<?xml version="1.0" encoding="UTF-8"?><svg id="Responsible" xmlns="http://www.w3.org/2000/svg" viewBox="0 0 478.49 639.68"><defs><style>.cls-1{fill:#231f20;}</style></defs><rect class="cls-1" x="174.96" y="624.68" width="128.73" height="15"/><path class="cls-1" d="M239.33,98.88c-57.3,0-111.17,22.31-151.68,62.83s-62.83,94.38-62.83,151.68,22.31,111.17,62.83,151.68c22.66,22.66,49.5,39.62,78.77,50.17h-24.32v15h7v12.26h-7v15h7v12.26h-7v15h7v27.54h179.87v-27.54h7.59v-15h-7.59v-12.26h7.59v-15h-7.59v-12.26h7.59v-15h-24.32c29.28-10.55,56.11-27.51,78.77-50.17,40.52-40.52,62.83-94.38,62.83-151.68s-22.31-111.17-62.83-151.68-94.38-62.83-151.68-62.83ZM420.72,230.36h-75.69c-5.44-24.6-13.32-47.25-23.41-66.79-9.31-18.01-20.05-32.52-31.78-43.21,58.24,15.25,106.17,56.22,130.88,110ZM338.78,313.39c0,23.17-1.99,45.73-5.81,66.94h-86.14v-134.97h85.95c3.94,21.53,6,44.46,6,68.03ZM139.88,313.39c0-23.57,2.06-46.51,6-68.03h85.95v134.97h-86.14c-3.81-21.21-5.81-43.76-5.81-66.94ZM231.83,114.47v115.9h-82.84c5.11-22.06,12.3-42.34,21.38-59.91,17-32.9,38.59-52.47,61.46-55.99ZM231.83,395.33v116.99c-22.87-3.52-44.46-23.09-61.46-55.99-9.23-17.86-16.51-38.51-21.64-61h83.1ZM246.83,512.32v-116.99h83.1c-5.13,22.49-12.41,43.14-21.64,61-17,32.91-38.59,52.47-61.46,55.99ZM246.83,230.36v-115.9c22.87,3.52,44.46,23.09,61.46,55.99,9.08,17.57,16.26,37.84,21.38,59.91h-82.84ZM188.82,120.37c-11.73,10.68-22.47,25.19-31.78,43.21-10.1,19.54-17.98,42.19-23.41,66.79H57.94c24.71-53.77,72.64-94.75,130.88-110ZM51.77,245.36h78.89c-3.8,21.64-5.78,44.55-5.78,68.03s1.91,45.61,5.58,66.94H51.38c-7.48-20.93-11.56-43.46-11.56-66.94s4.22-46.79,11.95-68.03ZM57.43,395.33h75.95c5.44,25.03,13.41,48.05,23.66,67.89,9.31,18.01,20.04,32.52,31.78,43.21-58.63-15.35-106.83-56.78-131.39-111.09ZM313.97,597.29h-149.87v-12.54h149.87v12.54ZM313.97,569.76h-149.87v-12.26h149.87v12.26ZM313.97,542.5h-149.87v-12.26h149.87v12.26ZM289.84,506.42c11.73-10.68,22.47-25.19,31.78-43.21,10.25-19.83,18.21-42.86,23.66-67.89h75.95c-24.56,54.31-72.76,95.74-131.39,111.09ZM427.27,380.33h-79.08c3.67-21.32,5.58-43.85,5.58-66.94s-1.98-46.39-5.78-68.03h78.89c7.73,21.24,11.95,44.15,11.95,68.03s-4.09,46-11.56,66.94Z"/><rect class="cls-1" x="231.67" y="0" width="15" height="54.74"/><rect class="cls-1" x="112.37" y="28.62" width="15" height="55.84" transform="translate(-12.5 63.17) rotate(-28.12)"/><rect class="cls-1" x="20.13" y="111.22" width="15" height="56.52" transform="translate(-103.5 84.5) rotate(-56.05)"/><rect class="cls-1" x="330.7" y="49.04" width="55.84" height="15" transform="translate(139.74 346.19) rotate(-61.88)"/><rect class="cls-1" x="422.6" y="131.98" width="56.52" height="15" transform="translate(-1.03 275.58) rotate(-33.95)"/></svg>