<?xml version="1.0" encoding="UTF-8"?><svg id="Flexible" xmlns="http://www.w3.org/2000/svg" viewBox="0 0 665.13 549.43"><defs><style>.cls-1{fill:#231f20;}</style></defs><rect class="cls-1" x="324.3" y="13.4" width="15" height="72.27"/><rect class="cls-1" x="276.3" y="0" width="15" height="72.27"/><rect class="cls-1" x="373.3" y="0" width="15" height="72.27"/><path class="cls-1" d="M472.05,12.6l-58.48,58.48,23.8,23.8c-24.28-3.9-50.03,3.46-68.71,22.14l-36.35,36.35-35.84-35.84c-14.97-14.97-34.87-23.21-56.03-23.21-3.85,0-7.66.28-11.4.82l22.52-22.52-58.48-58.48L0,207.21l5.3,5.3c14.66,14.66,33.92,21.99,53.17,21.99,8.86,0,17.71-1.57,26.12-4.67-2.43,7.67-3.71,15.75-3.71,24.03,0,21.17,8.24,41.07,23.21,56.03l35.33,35.33-10.81,10.81,56.31,56.3,35.09,35.09,10.61,10.61,35.09,35.09,10.61,10.61,45.7,45.7,58.62-58.62c.4-.4.78-.81,1.16-1.22,2.9.66,5.84.99,8.78.99,10.41,0,20.66-4.07,28.24-11.64,7.52-7.52,11.66-17.52,11.66-28.15,0-2.17-.18-4.3-.52-6.4,2.1.34,4.24.52,6.4.52,10.63,0,20.63-4.14,28.15-11.66,7.52-7.52,11.66-17.52,11.66-28.15,0-2.18-.18-4.32-.52-6.43,2.12.34,4.26.53,6.41.53,10.19,0,20.39-3.88,28.15-11.64,10.23-10.23,13.71-24.68,10.47-37.79l40.37-40.37c14.97-14.97,23.21-34.87,23.21-56.03,0-8.68-1.41-17.14-4.08-25.15,8.36,3.14,17.29,4.8,26.49,4.8,20.09,0,38.97-7.82,53.17-22.03l5.3-5.3L472.05,12.6ZM21.54,206.88L193.08,35.34l37.26,37.27-37.89,37.89c-2.81,2.15-5.5,4.48-8.04,7.02l-80.31,80.31c-2.22,2.22-4.26,4.55-6.18,6.97-21.73,18.88-53.88,19.58-76.37,2.08ZM197.84,308.02c4.69-4.69,10.92-7.27,17.54-7.27s12.86,2.58,17.55,7.27c9.67,9.67,9.67,25.42,0,35.09l-48.01,48.01-35.09-35.09,48.01-48.01ZM195.52,401.73l48.01-48.01c9.67-9.68,25.42-9.67,35.09,0,9.67,9.67,9.67,25.4.02,35.07,0,0-.01.01-.02.02l-48.01,48.01-35.09-35.09ZM241.22,447.43l48.01-48.01h0s0,0,.01-.01c9.68-9.66,25.41-9.66,35.08.01,9.67,9.67,9.67,25.41,0,35.08,0,0,0,0,0,0l-48.01,48.01-35.09-35.09ZM322.01,528.22l-35.09-35.09,48.01-48.01s0,0,.01-.01c9.68-9.66,25.41-9.66,35.08.01,9.67,9.67,9.67,25.42,0,35.09l-48.01,48.01ZM499.59,376.94c-9.67,9.67-25.42,9.68-35.09,0l-89.27-89.27-10.61,10.61,89.27,89.27c9.67,9.67,9.67,25.42,0,35.09-4.69,4.69-10.92,7.27-17.54,7.27s-12.86-2.58-17.54-7.27l-89.27-89.27-10.61,10.61,89.27,89.27c4.69,4.69,7.27,10.92,7.27,17.54s-2.58,12.86-7.27,17.54c-4.83,4.83-11.41,7.36-18.06,7.24,4.75-13.92,1.59-29.97-9.5-41.06-9.39-9.39-22.35-13.09-34.56-11.11.34-2.11.52-4.25.52-6.43,0-10.63-4.14-20.63-11.66-28.15-9.4-9.4-22.37-13.1-34.59-11.11,1.98-12.22-1.71-25.19-11.11-34.59-9.39-9.39-22.35-13.09-34.56-11.12.34-2.11.52-4.25.52-6.43,0-10.63-4.14-20.63-11.66-28.15-15.52-15.52-40.78-15.52-56.31,0l-37.2,37.2-35.33-35.33c-12.13-12.13-18.82-28.27-18.82-45.42,0-14.14,4.55-27.58,12.94-38.67.96-.87,1.9-1.76,2.82-2.68l90.72-90.72c10.97-8.1,24.18-12.48,38.06-12.48,17.16,0,33.29,6.68,45.42,18.82l35.84,35.84-67.56,67.56,5.3,5.3c13.49,13.49,31.42,20.91,50.49,20.91s37-7.43,50.49-20.91l17.07-17.08,122.09,122.09c9.67,9.67,9.67,25.42,0,35.09ZM550.43,298.78l-36.62,36.62c-1.09-1.45-2.3-2.83-3.62-4.15l-100.98-100.98c.43.01.85.03,1.28.03,13.87,0,27.74-5.28,38.31-15.84l26.28-26.28-10.61-10.61-26.28,26.28c-15.27,15.27-40.12,15.27-55.4,0h0s-5.3-5.3-5.3-5.3l-27.68,27.68c-10.65,10.65-24.82,16.52-39.88,16.52-12.54,0-24.45-4.06-34.23-11.56l103.57-103.57c25.05-25.05,65.8-25.05,90.85,0l80.31,80.31c12.13,12.13,18.82,28.27,18.82,45.42s-6.68,33.29-18.82,45.42ZM564.09,200.37l-129.3-129.3,37.26-37.26,171.54,171.54c-23.6,18.36-57.83,16.7-79.5-4.97Z"/><path class="cls-1" d="M188.41,96.68c5.18,0,10.05-2.02,13.71-5.68,3.66-3.66,5.68-8.53,5.68-13.71s-2.02-10.05-5.68-13.71c-3.66-3.66-8.53-5.68-13.71-5.68s-10.05,2.02-13.71,5.68c-3.66,3.66-5.68,8.53-5.68,13.71s2.02,10.05,5.68,13.71c3.66,3.66,8.53,5.68,13.71,5.68ZM185.3,74.18c.83-.83,1.93-1.29,3.11-1.29s2.28.46,3.11,1.29c.83.83,1.29,1.93,1.29,3.11s-.46,2.28-1.29,3.11c-.83.83-1.93,1.29-3.11,1.29s-2.28-.46-3.11-1.29c-.83-.83-1.29-1.93-1.29-3.11s.46-2.28,1.29-3.11Z"/><path class="cls-1" d="M457.33,75.75c0,5.18,2.02,10.05,5.68,13.71,3.66,3.66,8.53,5.68,13.71,5.68s10.05-2.02,13.71-5.68c7.56-7.56,7.56-19.87,0-27.43-3.66-3.66-8.53-5.68-13.71-5.68s-10.05,2.02-13.71,5.68c-3.66,3.66-5.68,8.53-5.68,13.71ZM473.62,72.64c.83-.83,1.93-1.29,3.11-1.29s2.28.46,3.11,1.29c1.71,1.71,1.71,4.5,0,6.21-.83.83-1.93,1.29-3.11,1.29s-2.28-.46-3.11-1.29c-.83-.83-1.29-1.93-1.29-3.11s.46-2.28,1.29-3.11Z"/></svg>