<?xml version="1.0" encoding="UTF-8"?><svg id="Affordable" xmlns="http://www.w3.org/2000/svg" viewBox="0 0 519.55 536.34"><defs><style>.cls-1{fill:#231f20;}</style></defs><path class="cls-1" d="M450.75,41.9l-190.98,75.7L68.81,41.9,0,14.63v192.5l58.71,23.27,61.66,24.44c-3.6,9.79-6.2,20.07-7.67,30.7l-43.89-17.4L0,240.87v192.5l58.71,23.27,198.3,78.61,2.76,1.09,201.08-79.7,58.7-23.27v-192.5l-68.8,27.27-43.9,17.4c-1.47-10.63-4.07-20.91-7.67-30.7l61.67-24.44,58.7-23.27V14.63l-68.8,27.27ZM504.55,36.71v36.34c-14.17-2.2-26.52-10.59-33.79-22.95l33.79-13.39ZM15,36.71l33.8,13.4c-7.28,12.35-19.62,20.74-33.8,22.94v-36.34ZM15,161.95c19,6.51,32.46,24.7,32.46,45.39,0,.82-.02,1.62-.06,2.44l-32.4-12.84v-34.99ZM393.25,305.97c0,.37,0,.74-.01,1.1-.59,73.1-60.23,132.38-133.46,132.38s-132.88-59.28-133.47-132.38c-.01-.36-.01-.73-.01-1.1,0-4.97.27-9.88.81-14.72,1.18-10.72,3.63-21.07,7.21-30.88,1.72-4.72,3.71-9.32,5.93-13.78,21.89-43.88,67.25-74.09,119.53-74.09s97.63,30.21,119.52,74.09c2.23,4.46,4.21,9.06,5.93,13.79,3.58,9.81,6.03,20.15,7.21,30.87.54,4.84.81,9.75.81,14.72ZM15,262.95l33.8,13.4c-7.28,12.35-19.62,20.74-33.8,22.94v-36.34ZM15,423.18v-34.99c19,6.51,32.46,24.7,32.46,45.39,0,.82-.02,1.63-.06,2.44l-32.4-12.84ZM504.55,423.18l-32.4,12.84c-.04-.81-.06-1.62-.06-2.44,0-20.69,13.46-38.88,32.46-45.39v34.99ZM504.55,262.95v36.34c-14.17-2.2-26.52-10.59-33.79-22.95l33.79-13.39ZM456.69,281.92c9.72,18.05,27.48,30.12,47.86,32.51v58.12c-27.47,6.98-47.46,32.15-47.46,61.03,0,2.76.18,5.5.54,8.2l-197.86,78.43-197.85-78.43c.36-2.7.54-5.44.54-8.2,0-28.88-19.99-54.05-47.46-61.03v-58.12c20.38-2.39,38.14-14.46,47.87-32.51l48.51,19.23c-.05,1.6-.08,3.21-.08,4.82,0,81.87,66.61,148.48,148.48,148.48s148.47-66.61,148.47-148.48c0-1.61-.03-3.22-.08-4.82l48.52-19.23ZM504.55,196.94l-32.4,12.84c-.04-.82-.06-1.62-.06-2.44,0-20.69,13.46-38.88,32.46-45.39v34.99ZM457.09,207.34c0,2.76.18,5.5.54,8.2l-64.34,25.5c-24.13-49.42-74.91-83.54-133.51-83.54s-109.39,34.12-133.52,83.55l-64.34-25.51c.36-2.7.54-5.44.54-8.2,0-28.88-19.99-54.04-47.46-61.03v-58.12c20.37-2.39,38.14-14.46,47.87-32.5l196.9,78.05,196.92-78.06c9.72,18.05,27.48,30.12,47.86,32.51v58.12c-27.47,6.99-47.46,32.15-47.46,61.03Z"/><path class="cls-1" d="M367.73,267.31c-1.7-4.74-3.7-9.33-5.99-13.76-19.06-36.93-57.61-62.24-101.96-62.24s-82.9,25.31-101.96,62.24c-2.29,4.43-4.29,9.03-5.99,13.77-3.54,9.84-5.77,20.3-6.46,31.17-.17,2.47-.25,4.97-.25,7.48,0,2.92.11,5.82.32,8.69,4.46,59.19,54.03,105.97,114.34,105.97s109.88-46.79,114.34-105.98c.21-2.86.32-5.76.32-8.68,0-2.51-.08-5.01-.25-7.48-.7-10.87-2.92-21.34-6.46-31.18ZM359.44,305.97c0,5.08-.38,10.07-1.12,14.94-7.23,47.9-48.67,84.72-98.54,84.72s-91.31-36.82-98.54-84.71c-.74-4.88-1.12-9.87-1.12-14.95,0-.54,0-1.08.02-1.62.17-11.02,2.15-21.62,5.65-31.5,1.67-4.75,3.7-9.34,6.06-13.73,16.78-31.4,49.9-52.81,87.93-52.81s71.14,21.41,87.93,52.8c2.36,4.39,4.39,8.98,6.06,13.74,3.5,9.88,5.48,20.47,5.65,31.49.02.54.02,1.09.02,1.63Z"/><path class="cls-1" d="M281.42,301.53c-3.94-1.96-8.37-3.06-13.06-3.06h-1.08v-29.03h23.1v-15h-23.1v-17.98h-15v17.98h-1.09c-14.59,0-26.75,10.65-29.1,24.59-.28,1.6-.42,3.25-.42,4.93,0,4.3.92,8.38,2.59,12.07,4.62,10.27,14.96,17.44,26.93,17.44h1.09v29.04h-23.11v15h23.11v17.97h15v-17.97h1.08c8.58,0,16.32-3.68,21.72-9.55,4.68-5.09,7.6-11.82,7.78-19.22.02-.25.02-.5.02-.75,0-11.59-6.71-21.64-16.46-26.46ZM236.67,283.96c0-8.01,6.52-14.52,14.52-14.52h1.09v29.03h-1.09c-7.71,0-14.05-6.05-14.49-13.65-.02-.29-.03-.57-.03-.86ZM280.76,335.52c-2.54,4.19-7.15,6.99-12.4,6.99h-1.08v-29.04h1.08c8.01,0,14.52,6.51,14.52,14.52,0,2.75-.77,5.33-2.11,7.52h-.01Z"/><rect class="cls-1" x="252.27" y="13.4" width="15" height="72.27"/><rect class="cls-1" x="204.27" y="0" width="15" height="72.27"/><rect class="cls-1" x="301.27" y="0" width="15" height="72.27"/></svg>