<?xml version="1.0" encoding="UTF-8"?><svg id="Reliable" xmlns="http://www.w3.org/2000/svg" viewBox="0 0 516.16 592.8"><defs><style>.cls-1{fill:#231f20;}</style></defs><rect class="cls-1" x="205.08" y="13.4" width="15" height="72.27"/><rect class="cls-1" x="157.08" y="0" width="15" height="72.27"/><rect class="cls-1" x="254.08" y="0" width="15" height="72.27"/><path class="cls-1" d="M410,384.25c0,20.61-5.28,41.04-15.28,59.07-10,18.03-24.52,33.33-42.01,44.25l-140.21,87.55-140.21-87.55c-17.48-10.92-32.01-26.22-42.01-44.25-10-18.03-15.28-38.45-15.28-59.07V56.87l197.5,75.89,197.5-75.89v78.17h15V35.03l-212.5,81.66L0,35.03v349.22C0,407.41,5.93,430.35,17.16,450.59s27.54,37.43,47.18,49.69l148.16,92.52,148.16-92.52c19.64-12.26,35.95-29.45,47.18-49.69s17.16-43.19,17.16-66.34v-90.85h-15v90.85Z"/><path class="cls-1" d="M350.63,232.4v-89.12l-138.13,53.08-138.13-53.08v225.71c0,31.23,15.81,59.75,42.3,76.29l95.83,59.84,95.83-59.84c26.49-16.54,42.3-45.06,42.3-76.29v-47.12h-15v47.12c0,26.02-13.18,49.79-35.25,63.57l-87.88,54.88-87.88-54.88c-22.07-13.78-35.25-37.55-35.25-63.57v-203.88l123.13,47.32,123.13-47.32v67.28h15Z"/><path class="cls-1" d="M511.63,251.1l4.53-14.3-49.22-15.59,44.15-22.91-6.91-13.31-44.15,22.91,15.59-49.22-14.3-4.53-20.11,63.52-25.96,13.47,15.59-49.22-14.3-4.53-20.12,63.52-120.16,62.36v-51.74l-63.76,24.5-63.76-24.5v106.27c0,12.42,6.29,23.75,16.82,30.33l46.94,29.31,46.94-29.31c10.53-6.58,16.82-17.91,16.82-30.33v-37.63l127.06-65.94,63.52,20.12,4.53-14.3-49.22-15.59,25.96-13.47,63.52,20.12ZM261.26,357.8c0,7.21-3.65,13.79-9.76,17.61l-39,24.35-39-24.35c-6.11-3.82-9.76-10.4-9.76-17.61v-84.44l48.76,18.74,48.76-18.74v37.69l-50.68,26.3,6.91,13.31,43.77-22.72v29.85Z"/></svg>