<?xml version="1.0" encoding="UTF-8"?><svg id="Icons" xmlns="http://www.w3.org/2000/svg" viewBox="0 0 124.65 100"><defs><style>.cls-1{fill:#6c6863;}</style></defs><path class="cls-1" d="M123.84,77.29c-1.02-.35-2.08-.48-3.14-.4l-1.64.12v-13.66c0-18.24-9.85-34.98-25.72-43.91,0-4.66-3.15-8.72-7.75-9.8l-9.41-2.22c-.44-1.63-1.29-3.13-2.5-4.38-1.91-1.96-4.47-3.04-7.21-3.04h-8.84c-2.74,0-5.3,1.08-7.21,3.04-1.21,1.25-2.06,2.75-2.5,4.38l-9.41,2.22c-4.71,1.11-7.91,5.33-7.74,10.13C15.21,28.77,5.59,45.39,5.59,63.35v13.73l-2.64-.19c-.66-.05-1.32-.01-1.97.1l-.98.18v15.22l.88.24c.1.03.21.05.43.08l48.36,6.49c4.03.54,8.1.81,12.16.81s8.13-.27,12.16-.81l48.36-6.49c.52-.07,1.03-.19,1.52-.37l.79-.28v-14.49l-.81-.27ZM7.97,63.35c0-16.72,8.76-32.21,22.95-40.91l2.49,32.95,2.37-.18-2.66-35.19c-.29-3.8,2.2-7.19,5.9-8.06l8.52-2.01c0,.13-.01.26,0,.39l1.38,53.2,2.38-.06-1.38-53.2c-.05-2.09.72-4.07,2.18-5.57,1.46-1.5,3.42-2.32,5.51-2.32h8.84c2.09,0,4.05.83,5.51,2.32,1.46,1.5,2.23,3.47,2.18,5.57l-1.38,53.2,2.38.06,1.38-53.2c0-.13,0-.26,0-.39l8.52,2.01c3.71.87,6.19,4.27,5.9,8.06l-2.66,35.19,2.37.18,2.52-33.29c14.54,8.64,23.51,24.26,23.51,41.25v13.84l-48.15,3.53c-4.31.32-8.69.32-13,0l-47.56-3.47v-13.9ZM122.27,90.31c-.08.01-.16.03-.24.04l-48.36,6.49c-7.86,1.05-15.83,1.05-23.69,0l-47.6-6.38v-11.2c.14,0,.26,0,.4.01l52.58,3.84c4.43.33,8.92.33,13.35,0l49.25-3.61,2.93-.22c.46-.04.93-.01,1.38.07v10.97Z"/></svg>