<?xml version="1.0" encoding="UTF-8"?><svg id="Icons" xmlns="http://www.w3.org/2000/svg" viewBox="0 0 123.7 96.22"><defs><style>.cls-1{fill:#6c6863;}</style></defs><rect class="cls-1" x="62.85" y="33.28" width="2.12" height="13.81"/><path class="cls-1" d="M76.89,48.9c0-5.12-3.02-9.77-7.69-11.85l-.86,1.94c3.91,1.74,6.44,5.64,6.44,9.92,0,5.99-4.87,10.86-10.86,10.86s-10.86-4.87-10.86-10.86c0-4.28,2.53-8.18,6.44-9.92l-.86-1.93c-4.67,2.09-7.69,6.74-7.69,11.85,0,7.15,5.82,12.98,12.97,12.98s12.98-5.82,12.98-12.98Z"/><path class="cls-1" d="M41.71,2.12c11.66,0,21.14,9.48,21.14,21.14v1.61h2.12v-1.61c0-12.83-10.43-23.26-23.26-23.26s-23.26,10.43-23.26,23.26v4.72h-2.85v2.12h2.85v2.02h-3.55l-.33,11.1h-.65c-4.89,0-8.88,3.98-8.88,8.88v10.52H0v8.05h9.31v8.22h2.12v-8.22h16.16v8.22h2.12v-8.22h9.31v-8.05h-5.04v-10.52c0-4.89-3.98-8.88-8.88-8.88h-.65l-.33-11.1h-3.55v-2.02h2.85v-2.12h-2.85v-4.72c0-11.66,9.48-21.14,21.14-21.14ZM36.9,64.73v3.82H2.12v-3.82h34.78ZM25.1,45.34c3.73,0,6.76,3.03,6.76,6.76v3.27h-6.18v2.12h6.18v5.14H7.16v-5.14h6.18v-2.12h-6.18v-3.27c0-3.73,3.03-6.76,6.76-6.76h11.18ZM22.33,43.22h-5.64l.26-8.99h5.11l.26,8.99Z"/><path class="cls-1" d="M123.7,41.27c0-13.78-14.14-24.67-14.75-25.13l-.64-.49-.64.49c-.6.46-14.74,11.35-14.74,25.13,0,12.64,11.89,22.85,14.33,24.8v6.89c0,11.66-9.48,21.14-21.14,21.14s-21.14-9.48-21.14-21.14v-3.24h-2.12v3.24c0,12.83,10.43,23.26,23.26,23.26s23.26-10.43,23.26-23.26v-6.89c2.43-1.95,14.33-12.16,14.33-24.8ZM95.05,41.27c0-10,8.5-18.69,12.21-22.01v17.15l-5.04-5.04-1.5,1.5,6.54,6.54v8.92l-5.04-5.04-1.5,1.5,6.54,6.54v11.95c-3.71-3.32-12.21-12.01-12.21-22.01ZM109.37,63.28v-11.95l6.54-6.54-1.5-1.5-5.04,5.04v-8.92l6.54-6.54-1.5-1.5-5.04,5.04v-17.15c3.71,3.32,12.21,12.01,12.21,22.01s-8.5,18.69-12.21,22.01Z"/><rect class="cls-1" x="86.85" y="9.33" width="2.12" height="4.45"/><rect class="cls-1" x="86.85" y="19.05" width="2.12" height="4.45"/><rect class="cls-1" x="90.54" y="15.36" width="4.45" height="2.12"/><rect class="cls-1" x="80.82" y="15.36" width="4.45" height="2.12"/></svg>