<?xml version="1.0" encoding="utf-8"?>
<!-- Generator: Adobe Illustrator 27.5.0, SVG Export Plug-In . SVG Version: 6.00 Build 0)  -->
<svg version="1.1" id="Layer_1" xmlns="http://www.w3.org/2000/svg" xmlns:xlink="http://www.w3.org/1999/xlink" x="0px" y="0px"
	 viewBox="0 0 1183.89 545.28" style="enable-background:new 0 0 1183.89 545.28;" xml:space="preserve">
<g>
	<defs>
		<rect id="SVGID_1_" width="1183.89" height="545.28"/>
	</defs>
	<clipPath id="SVGID_00000122679211049966699120000013754043069983245239_">
		<use xlink:href="#SVGID_1_"  style="overflow:visible;"/>
	</clipPath>
	
		<!-- <radialGradient id="SVGID_00000125596595173283889480000012002407269137848708_" cx="580.0907" cy="289.5895" r="819.2545" gradientUnits="userSpaceOnUse">
		<stop  offset="0" style="stop-color:#FFFFFF"/>
		<stop  offset="0.3658" style="stop-color:#FCFCFC"/>
		<stop  offset="0.6365" style="stop-color:#F3F3F3"/>
		<stop  offset="0.8758" style="stop-color:#E3E3E3"/>
		<stop  offset="1" style="stop-color:#D7D7D7"/>
	</radialGradient> -->
	
		<rect style="clip-path:url(#SVGID_00000122679211049966699120000013754043069983245239_);fill:url(#SVGID_00000125596595173283889480000012002407269137848708_);" width="1183.89" height="545.28"/>
	<g style="clip-path:url(#SVGID_00000122679211049966699120000013754043069983245239_);">
		<g>
			
				<line style="fill:none;stroke:#FFFFFF;stroke-width:0.5;stroke-miterlimit:10;" x1="700.662" y1="290" x2="659.793" y2="263.793"/>
			<g>
				<g>
					<g>
						<g>
							<polyline style="fill:none;stroke:#FFFFFF;stroke-miterlimit:10;" points="-1.908,553.471 49.928,508.763 88.804,553.471 
								96.579,454.984 49.928,508.763 -5.147,442.673 							"/>
							<polyline style="fill:none;stroke:#FFFFFF;stroke-miterlimit:10;" points="154.245,498.072 239.773,476.366 193.77,548.468 
								154.245,498.072 164.612,428.418 96.579,454.984 64,398 -1.908,442.673 96.579,454.984 154.245,498.072 88.804,553.471 
								193.77,548.468 							"/>
							<polyline style="fill:none;stroke:#FFFFFF;stroke-miterlimit:10;" points="239.773,476.366 320.765,548.468 370.009,482.845 
								239.773,476.366 164.612,428.418 280.593,438.138 							"/>
							<polyline style="fill:none;stroke:#FFFFFF;stroke-miterlimit:10;" points="193.77,548.468 320.765,548.468 421.196,528.201 
								370.009,482.845 280.593,438.138 239.773,476.366 250,389 							"/>
							<polyline style="fill:none;stroke:#FFFFFF;stroke-width:0.75;stroke-miterlimit:10;" points="462.664,456.928 
								636.287,468.494 421.196,528.201 462.664,456.928 370.009,482.845 421.196,398 535,373 618,406 692,384 535,373 							"/>
							<polyline style="fill:none;stroke:#FFFFFF;stroke-miterlimit:10;" points="320.765,548.468 521.555,546.373 421.196,528.201 
															"/>
							<polyline style="fill:none;stroke:#FFFFFF;stroke-miterlimit:10;" points="521.555,546.373 683.043,546.373 641.58,468.494 
								730.681,456.928 683.043,546.373 818.016,548.468 879.769,488.444 826.838,448.204 730.681,456.928 818.016,548.468 
								826.838,448.204 							"/>
							<polygon style="fill:none;stroke:#FFFFFF;stroke-miterlimit:10;" points="1043.757,483.491 973.28,546.373 941.521,438.138 
															"/>
							<polyline style="fill:none;stroke:#FFFFFF;stroke-miterlimit:10;" points="941.521,438.138 1056.205,433.207 
								1043.757,483.491 1077.377,553.471 973.28,546.373 							"/>
							<polyline style="fill:none;stroke:#FFFFFF;stroke-miterlimit:10;" points="1043.757,483.491 1160,545.28 1077.377,553.471 
								1183.89,438.138 							"/>
							<polygon style="fill:none;stroke:#FFFFFF;stroke-miterlimit:10;" points="1183.89,438.138 1160,545.28 1056.205,433.207 
															"/>
							<polyline style="fill:none;stroke:#FFFFFF;stroke-miterlimit:10;" points="280.593,438.138 421.196,398 462.664,456.928 
															"/>
							<polyline style="fill:none;stroke:#FFFFFF;stroke-width:0.75;stroke-miterlimit:10;" points="1160,545.28 1232,553.471 
								1183.89,438.138 1183.89,384 1056.205,433.207 907,384 692,384 826.838,448.204 941.521,438.138 879.769,488.444 
								973.28,546.373 818.016,548.468 641.58,468.494 535,373 462.664,456.928 							"/>
							<polyline style="fill:none;stroke:#FFFFFF;stroke-miterlimit:10;" points="826.838,448.204 907,384 941.521,438.138 							
								"/>
							<polyline style="fill:none;stroke:#FFFFFF;stroke-width:0.75;stroke-miterlimit:10;" points="641.58,468.494 692,384 
								730.681,456.928 618,406 531.308,438.138 421.196,398 250,389 64,398 164.612,428.418 250,389 280.593,438.138 
								462.664,456.928 531.308,438.138 641.58,468.494 521.555,546.373 462.664,456.928 							"/>
							<polyline style="fill:none;stroke:#FFFFFF;stroke-width:0.75;stroke-miterlimit:10;" points="730.681,456.928 907,384 
								1107,373 							"/>
							<polyline style="fill:none;stroke:#FFFFFF;stroke-width:0.75;stroke-miterlimit:10;" points="692,384 663,319 566,338 
															"/>
							<polygon style="fill:none;stroke:#FFFFFF;stroke-width:0.75;stroke-miterlimit:10;" points="663,319 726,348 792,324 
								907,384 879.769,332 792,324 							"/>
							<polyline style="fill:none;stroke:#FFFFFF;stroke-width:0.5;stroke-miterlimit:10;" points="1183.89,339 1131,338 
								1183.89,384 1107,373 1056.205,433.207 1002,332 879.769,332 928,352 726,348 566,338 535,373 421.16,353 566,338 692,384 
								726,348 907,384 928,352 1107,373 1002,332 928,352 957,272.64 							"/>
							<line style="fill:none;stroke:#FFFFFF;stroke-width:0.5;stroke-miterlimit:10;" x1="507" y1="282" x2="700.662" y2="290"/>
							<polyline style="fill:none;stroke:#FFFFFF;stroke-width:0.5;stroke-miterlimit:10;" points="467,301 455,259 356,290 
								274,267 							"/>
							<polyline style="fill:none;stroke:#FFFFFF;stroke-width:0.5;stroke-miterlimit:10;" points="291,343 274,267 193.77,286 
								24,298 -10,286 -20,319 24,298 51,321.5 118.933,290 193.77,310 193.77,286 356,290 507,282 455,259 580,264 712,264 
								700.662,290 580,264 536,302 507,282 467,301 356,290 193.77,310 51,321.5 -20,319 0,368 51,321.5 110,358 0,368 64,398 
								110,358 250,389 291,343 421.196,398 421.16,353 291,343 110,358 193.77,310 291,343 467,301 566,338 536,302 663,319 
								700.662,290 792,324 818,297 879.769,332 914,299 1002,332 1131,338 1107,373 1061,300 							"/>
							<polyline style="fill:none;stroke:#FFFFFF;stroke-width:0.5;stroke-miterlimit:10;" points="982,290 1056.205,268 1061,300 
															"/>
							<polyline style="fill:none;stroke:#FFFFFF;stroke-width:0.5;stroke-miterlimit:10;" points="455,259 274,267 157,264 64,264 
								-10,252 -10,286 64,264 118.933,290 157,264 193.77,286 							"/>
							<path style="fill:none;stroke:#FFFFFF;stroke-width:0.5;stroke-miterlimit:10;" d="M390.082,449.946l-36.996-55.715L291,343
								l65-53l65.16,63L467,301l69,1l164.662-12L818,297l96,2l68-9l20,42l59-32c-6-1-79-10-79-10l-25-17.36L914,299l-45-26.36
								L818,297l-106-33l157,8.64h88l99.205-4.64l127.685,22L1061,300l70,38l-8.953-79"/>
							<polyline style="fill:none;stroke:#FFFFFF;stroke-width:0.5;stroke-miterlimit:10;" points="1131,338 1183.89,290 
								1183.89,252 1056.205,268 							"/>
							<polyline style="fill:none;stroke:#FFFFFF;stroke-width:0.5;stroke-miterlimit:10;" points="51,321.5 64,264 24,298 							
								"/>
							<line style="fill:none;stroke:#FFFFFF;stroke-width:0.75;stroke-miterlimit:10;" x1="193.77" y1="310" x2="250" y2="389"/>
							<polyline style="fill:none;stroke:#FFFFFF;stroke-width:0.5;stroke-miterlimit:10;" points="164.612,428.418 110,358 
								118.933,290 							"/>
							
								<line style="fill:none;stroke:#FFFFFF;stroke-width:0.75;stroke-miterlimit:10;" x1="421.16" y1="353" x2="280.593" y2="438.138"/>
							<line style="fill:none;stroke:#FFFFFF;stroke-width:0.75;stroke-miterlimit:10;" x1="467" y1="301" x2="535" y2="373"/>
							<polyline style="fill:none;stroke:#FFFFFF;stroke-width:0.5;stroke-miterlimit:10;" points="618,406 663,319 580,264 
								507,282 							"/>
							<path style="fill:none;stroke:#FFFFFF;stroke-width:0.5;stroke-miterlimit:10;" d="M712,264"/>
						</g>
						<polyline style="fill:none;stroke:#FFFFFF;stroke-width:0.75;stroke-miterlimit:10;" points="462.664,456.928 
							684.875,546.373 826.838,448.204 						"/>
					</g>
					
						<line style="fill:none;stroke:#FFFFFF;stroke-width:0.75;stroke-miterlimit:10;" x1="818.016" y1="548.468" x2="1056.205" y2="433.207"/>
				</g>
				<polyline style="fill:none;stroke:#FFFFFF;stroke-width:0.5;stroke-miterlimit:10;" points="712,264 792,324 792,431.013 
					726,348 				"/>
			</g>
		</g>
		<g>
			<path style="fill:#FFFFFF;" d="M244.811,476.366c0,2.783-2.256,5.038-5.038,5.038s-5.038-2.256-5.038-5.038
				c0-2.782,2.256-5.038,5.038-5.038S244.811,473.583,244.811,476.366z"/>
			<circle style="fill:#FFFFFF;" cx="64" cy="398" r="5.038"/>
			<path style="fill:#FFFFFF;" d="M55.792,507.072c0,2.783-2.256,5.038-5.038,5.038c-2.782,0-5.038-2.256-5.038-5.038
				c0-2.782,2.256-5.038,5.038-5.038C53.536,502.034,55.792,504.289,55.792,507.072z"/>
			<path style="fill:#FFFFFF;" d="M467.845,456.928c0,2.861-2.32,5.181-5.181,5.181c-2.862,0-5.181-2.32-5.181-5.181
				c0-2.861,2.32-5.181,5.181-5.181C465.525,451.747,467.845,454.066,467.845,456.928z"/>
			<circle style="fill:#FFFFFF;" cx="370.009" cy="483.491" r="7.125"/>
			<path style="fill:#FFFFFF;" d="M646.618,468.494c0,2.782-2.256,5.038-5.038,5.038c-2.782,0-5.038-2.256-5.038-5.038
				c0-2.783,2.256-5.038,5.038-5.038C644.363,463.456,646.618,465.711,646.618,468.494z"/>
			<path style="fill:#FFFFFF;" d="M831.876,448.204c0,2.783-2.256,5.038-5.038,5.038c-2.783,0-5.038-2.256-5.038-5.038
				c0-2.782,2.256-5.038,5.038-5.038C829.621,443.166,831.876,445.421,831.876,448.204z"/>
			<path style="fill:#FFFFFF;" d="M1049.08,483.491c0,2.94-2.383,5.323-5.323,5.323s-5.323-2.383-5.323-5.323
				c0-2.94,2.383-5.323,5.323-5.323S1049.08,480.551,1049.08,483.491z"/>
			<circle style="fill:#FFFFFF;" cx="1160" cy="545.28" r="7.125"/>
			<circle style="fill:#FFFFFF;" cx="1077.377" cy="553.471" r="7.125"/>
			<circle style="fill:#FFFFFF;" cx="974.875" cy="545.28" r="7.125"/>
			<circle style="fill:#FFFFFF;" cx="1183.89" cy="438.138" r="7.125"/>
			<path style="fill:#FFFFFF;" d="M1061,433.207c0,2.648-2.147,4.795-4.795,4.795c-2.648,0-4.795-2.147-4.795-4.795
				c0-2.648,2.147-4.795,4.795-4.795C1058.853,428.411,1061,430.558,1061,433.207z"/>
			<circle style="fill:#FFFFFF;" cx="941.521" cy="440.332" r="7.125"/>
			<circle style="fill:#FFFFFF;" cx="819.713" cy="545.28" r="7.125"/>
			<circle style="fill:#FFFFFF;" cx="879.769" cy="488.444" r="4.411"/>
			<circle style="fill:#FFFFFF;" cx="764" cy="492.255" r="5.033"/>
			<circle style="fill:#FFFFFF;" cx="907" cy="506.505" r="7.125"/>
			<circle style="fill:#FFFFFF;" cx="1122.047" cy="505.197" r="7.125"/>
			<path style="fill:#FFFFFF;" d="M712.825,499.38c0,2.782-2.256,5.038-5.038,5.038c-2.782,0-5.038-2.256-5.038-5.038
				c0-2.783,2.256-5.038,5.038-5.038C710.569,494.342,712.825,496.598,712.825,499.38z"/>
			<circle style="fill:#FFFFFF;" cx="736.445" cy="511.197" r="4.125"/>
			<path style="fill:#FFFFFF;" d="M494.697,424.287c0,2.278-1.847,4.125-4.125,4.125c-2.278,0-4.125-1.847-4.125-4.125
				c0-2.278,1.847-4.125,4.125-4.125C492.85,420.162,494.697,422.008,494.697,424.287z"/>
			<circle style="fill:#FFFFFF;" cx="390" cy="449.803" r="4.125"/>
			<circle style="fill:#FFFFFF;" cx="585.125" cy="418.162" r="4.125"/>
			<circle style="fill:#FFFFFF;" cx="164.612" cy="428.418" r="4.125"/>
			<circle style="fill:#FFFFFF;" cx="421.16" cy="353" r="4.125"/>
			<circle style="fill:#FFFFFF;" cx="692" cy="384" r="4.125"/>
			<path style="fill:#FFFFFF;" d="M882.686,332c0,1.611-1.306,2.917-2.917,2.917c-1.611,0-2.917-1.306-2.917-2.917
				s1.306-2.917,2.917-2.917C881.38,329.083,882.686,330.389,882.686,332z"/>
			<path style="fill:#FFFFFF;" d="M938.313,332c0,1.611-1.306,2.917-2.917,2.917s-2.917-1.306-2.917-2.917s1.306-2.917,2.917-2.917
				S938.313,330.389,938.313,332z"/>
			<path style="fill:#FFFFFF;" d="M930.917,351.5c0,1.611-1.306,2.917-2.917,2.917s-2.917-1.306-2.917-2.917
				s1.306-2.917,2.917-2.917S930.917,349.889,930.917,351.5z"/>
			<path style="fill:#FFFFFF;" d="M946.355,309.5c0,1.611-1.306,2.917-2.917,2.917c-1.611,0-2.917-1.306-2.917-2.917
				s1.306-2.917,2.917-2.917C945.049,306.583,946.355,307.889,946.355,309.5z"/>
			<circle style="fill:#FFFFFF;" cx="949.646" cy="293.793" r="1.854"/>
			<circle style="fill:#FFFFFF;" cx="1107" cy="373" r="2.917"/>
			<circle style="fill:#FFFFFF;" cx="1131" cy="338" r="2.917"/>
			<circle style="fill:#FFFFFF;" cx="1183.89" cy="338" r="2.917"/>
			<circle style="fill:#FFFFFF;" cx="1183.89" cy="290" r="2.917"/>
			<circle style="fill:#FFFFFF;" cx="1061" cy="300" r="2.917"/>
			<circle style="fill:#FFFFFF;" cx="1122" cy="259" r="2.917"/>
			<path style="fill:#FFFFFF;" d="M1128.712,295c0,1.611-1.306,2.917-2.917,2.917c-1.611,0-2.917-1.306-2.917-2.917
				s1.306-2.917,2.917-2.917C1127.406,292.083,1128.712,293.389,1128.712,295z"/>
			<circle style="fill:#FFFFFF;" cx="1183.89" cy="252" r="2.917"/>
			<path style="fill:#FFFFFF;" d="M1029.417,377.917c0,1.611-1.306,2.917-2.917,2.917s-2.917-1.306-2.917-2.917
				c0-1.611,1.306-2.917,2.917-2.917S1029.417,376.306,1029.417,377.917z"/>
			<path style="fill:#FFFFFF;" d="M1021.5,362c0,1.611-1.306,2.917-2.917,2.917c-1.611,0-2.917-1.306-2.917-2.917
				s1.306-2.917,2.917-2.917C1020.194,359.083,1021.5,360.389,1021.5,362z"/>
			<circle style="fill:#FFFFFF;" cx="914.125" cy="300" r="2.917"/>
			<path style="fill:#FFFFFF;" d="M984.917,290c0,1.611-1.306,2.917-2.917,2.917s-2.917-1.306-2.917-2.917s1.306-2.917,2.917-2.917
				S984.917,288.389,984.917,290z"/>
			<circle style="fill:#FFFFFF;" cx="1056.205" cy="268" r="1.878"/>
			<path style="fill:#FFFFFF;" d="M1126.795,279.667c0,1.037-0.841,1.878-1.878,1.878c-1.037,0-1.878-0.841-1.878-1.878
				c0-1.037,0.841-1.878,1.878-1.878C1125.954,277.788,1126.795,278.629,1126.795,279.667z"/>
			<path style="fill:#FFFFFF;" d="M959,273c0,1.611-1.306,2.917-2.917,2.917c-1.611,0-2.917-1.306-2.917-2.917
				s1.306-2.917,2.917-2.917C957.694,270.083,959,271.389,959,273z"/>
			<circle style="fill:#FFFFFF;" cx="842" cy="349.875" r="2.917"/>
			<circle style="fill:#FFFFFF;" cx="907" cy="384" r="4.125"/>
			<circle style="fill:#FFFFFF;" cx="1002" cy="332" r="4.125"/>
			<circle style="fill:#FFFFFF;" cx="1183.89" cy="384" r="4.125"/>
			<circle style="fill:#FFFFFF;" cx="730.681" cy="456.928" r="7.125"/>
			<circle style="fill:#FFFFFF;" cx="684.875" cy="546.373" r="7.125"/>
			<circle style="fill:#FFFFFF;" cx="521.555" cy="546.373" r="7.125"/>
			<circle style="fill:#FFFFFF;" cx="550.625" cy="493.339" r="7.125"/>
			<circle style="fill:#FFFFFF;" cx="495.786" cy="507.072" r="5.214"/>
			<path style="fill:#FFFFFF;" d="M283.8,438.138c0,1.771-1.436,3.207-3.207,3.207c-1.771,0-3.207-1.436-3.207-3.207
				c0-1.771,1.436-3.207,3.207-3.207C282.365,434.931,283.8,436.366,283.8,438.138z"/>
			<path style="fill:#FFFFFF;" d="M248.018,434.795c0,1.771-1.436,3.207-3.207,3.207c-1.771,0-3.207-1.436-3.207-3.207
				c0-1.771,1.436-3.207,3.207-3.207C246.582,431.587,248.018,433.023,248.018,434.795z"/>
			<path style="fill:#FFFFFF;" d="M140.513,394.793c0,1.771-1.436,3.207-3.207,3.207c-1.771,0-3.207-1.436-3.207-3.207
				c0-1.771,1.436-3.207,3.207-3.207C139.077,391.586,140.513,393.022,140.513,394.793z"/>
			<circle style="fill:#FFFFFF;" cx="118.933" cy="290" r="3.207"/>
			<path style="fill:#FFFFFF;" d="M3.207,367.793C3.207,369.564,1.771,371,0,371s-3.207-1.436-3.207-3.207
				c0-1.771,1.436-3.207,3.207-3.207S3.207,366.022,3.207,367.793z"/>
			<circle style="fill:#FFFFFF;" cx="110" cy="357.125" r="3.207"/>
			<circle style="fill:#FFFFFF;" cx="50.754" cy="321.5" r="3.207"/>
			<circle style="fill:#FFFFFF;" cx="-10" cy="252" r="3.207"/>
			<circle style="fill:#FFFFFF;" cx="64" cy="264" r="3.207"/>
			<circle style="fill:#FFFFFF;" cx="156.207" cy="263.793" r="2.268"/>
			<circle style="fill:#FFFFFF;" cx="24" cy="298" r="2.268"/>
			<path style="fill:#FFFFFF;" d="M2.268,282.586c0,1.253-1.015,2.268-2.268,2.268s-2.268-1.015-2.268-2.268
				c0-1.252,1.015-2.268,2.268-2.268S2.268,281.333,2.268,282.586z"/>
			<circle style="fill:#FFFFFF;" cx="0" cy="253.207" r="2.268"/>
			<circle style="fill:#FFFFFF;" cx="0" cy="309" r="2.268"/>
			<path style="fill:#FFFFFF;" d="M2.268,319.061c0,1.252-1.015,2.268-2.268,2.268s-2.268-1.015-2.268-2.268
				c0-1.253,1.015-2.268,2.268-2.268S2.268,317.808,2.268,319.061z"/>
			<circle style="fill:#FFFFFF;" cx="-20" cy="320" r="3.207"/>
			<path style="fill:#FFFFFF;" d="M-6.793,286.793c0,1.771-1.436,3.207-3.207,3.207c-1.771,0-3.207-1.436-3.207-3.207
				c0-1.771,1.436-3.207,3.207-3.207C-8.229,283.586-6.793,285.022-6.793,286.793z"/>
			<circle style="fill:#FFFFFF;" cx="222.5" cy="348.875" r="3.207"/>
			<circle style="fill:#FFFFFF;" cx="274" cy="267" r="3.207"/>
			<circle style="fill:#FFFFFF;" cx="455" cy="259" r="3.207"/>
			<circle style="fill:#FFFFFF;" cx="580" cy="264" r="3.207"/>
			<circle style="fill:#FFFFFF;" cx="566" cy="338" r="3.207"/>
			<circle style="fill:#FFFFFF;" cx="663" cy="319" r="3.207"/>
			<circle style="fill:#FFFFFF;" cx="535.419" cy="302" r="3.207"/>
			<path style="fill:#FFFFFF;" d="M558.957,283.793c0,1.219-0.988,2.207-2.207,2.207c-1.219,0-2.207-0.988-2.207-2.207
				c0-1.219,0.988-2.207,2.207-2.207C557.969,281.586,558.957,282.574,558.957,283.793z"/>
			<path style="fill:#FFFFFF;" d="M510.207,344.793c0,1.771-1.436,3.207-3.207,3.207c-1.771,0-3.207-1.436-3.207-3.207
				c0-1.771,1.436-3.207,3.207-3.207C508.771,341.586,510.207,343.022,510.207,344.793z"/>
			<circle style="fill:#FFFFFF;" cx="507" cy="282" r="3.207"/>
			<circle style="fill:#FFFFFF;" cx="467" cy="302" r="3.207"/>
			<path style="fill:#FFFFFF;" d="M465.078,285c0,1.333-1.081,2.414-2.414,2.414c-1.333,0-2.414-1.081-2.414-2.414
				s1.081-2.414,2.414-2.414C463.997,282.586,465.078,283.667,465.078,285z"/>
			<circle style="fill:#FFFFFF;" cx="291" cy="343" r="3.207"/>
			<path style="fill:#FFFFFF;" d="M359.5,290c0,1.771-1.436,3.207-3.207,3.207c-1.771,0-3.207-1.436-3.207-3.207
				s1.436-3.207,3.207-3.207C358.064,286.793,359.5,288.229,359.5,290z"/>
			<circle style="fill:#FFFFFF;" cx="386.875" cy="320" r="2.375"/>
			<path style="fill:#FFFFFF;" d="M380.341,379.875c0,1.771-1.436,3.207-3.207,3.207c-1.771,0-3.207-1.436-3.207-3.207
				c0-1.771,1.436-3.207,3.207-3.207C378.905,376.668,380.341,378.104,380.341,379.875z"/>
			<path style="fill:#FFFFFF;" d="M355.293,394.569c0,1.771-1.436,3.207-3.207,3.207c-1.771,0-3.207-1.436-3.207-3.207
				c0-1.771,1.436-3.207,3.207-3.207C353.857,391.362,355.293,392.797,355.293,394.569z"/>
			<path style="fill:#FFFFFF;" d="M369.298,414.037c0,1.771-1.436,3.207-3.207,3.207c-1.771,0-3.207-1.436-3.207-3.207
				c0-1.771,1.436-3.207,3.207-3.207C367.862,410.83,369.298,412.266,369.298,414.037z"/>
			<circle style="fill:#FFFFFF;" cx="193.77" cy="310" r="3.207"/>
			<circle style="fill:#FFFFFF;" cx="115.726" cy="316.793" r="2.268"/>
			<circle style="fill:#FFFFFF;" cx="193.77" cy="286" r="2.207"/>
			<path style="fill:#FFFFFF;" d="M283.8,298.793c0,1.771-1.436,3.207-3.207,3.207c-1.771,0-3.207-1.436-3.207-3.207
				c0-1.771,1.436-3.207,3.207-3.207C282.365,295.586,283.8,297.022,283.8,298.793z"/>
			<path style="fill:#FFFFFF;" d="M280.654,288.207c0,1.253-1.015,2.268-2.268,2.268c-1.252,0-2.268-1.015-2.268-2.268
				c0-1.252,1.015-2.268,2.268-2.268C279.639,285.939,280.654,286.955,280.654,288.207z"/>
			<circle style="fill:#FFFFFF;" cx="250" cy="389" r="3.207"/>
			<path style="fill:#FFFFFF;" d="M424.403,398c0,1.771-1.436,3.207-3.207,3.207c-1.771,0-3.207-1.436-3.207-3.207
				s1.436-3.207,3.207-3.207C422.967,394.793,424.403,396.229,424.403,398z"/>
			<path style="fill:#FFFFFF;" d="M534.211,438.002c0,1.771-1.436,3.207-3.207,3.207c-1.771,0-3.207-1.436-3.207-3.207
				c0-1.771,1.436-3.207,3.207-3.207C532.776,434.795,534.211,436.23,534.211,438.002z"/>
			<circle style="fill:#FFFFFF;" cx="618" cy="406" r="3.207"/>
			<path style="fill:#FFFFFF;" d="M669.414,427.464c0,1.771-1.436,3.207-3.207,3.207c-1.771,0-3.207-1.436-3.207-3.207
				c0-1.771,1.436-3.207,3.207-3.207C667.978,424.257,669.414,425.693,669.414,427.464z"/>
			<circle style="fill:#FFFFFF;" cx="792" cy="431.013" r="3.207"/>
			<circle style="fill:#FFFFFF;" cx="726" cy="348" r="3.207"/>
			<path style="fill:#FFFFFF;" d="M757.967,384c0,1.771-1.436,3.207-3.207,3.207c-1.771,0-3.207-1.436-3.207-3.207
				s1.436-3.207,3.207-3.207C756.531,380.793,757.967,382.229,757.967,384z"/>
			<circle style="fill:#FFFFFF;" cx="792" cy="348.875" r="3.207"/>
			<circle style="fill:#FFFFFF;" cx="792" cy="362" r="3.207"/>
			<circle style="fill:#FFFFFF;" cx="792" cy="384" r="3.207"/>
			<path style="fill:#FFFFFF;" d="M677.852,344.793c0,1.771-1.436,3.207-3.207,3.207c-1.771,0-3.207-1.436-3.207-3.207
				c0-1.771,1.436-3.207,3.207-3.207C676.416,341.586,677.852,343.022,677.852,344.793z"/>
			<circle style="fill:#FFFFFF;" cx="649.826" cy="343" r="3.207"/>
			<path style="fill:#FFFFFF;" d="M642.957,365.207c0,1.771-1.436,3.207-3.207,3.207c-1.771,0-3.207-1.436-3.207-3.207
				c0-1.771,1.436-3.207,3.207-3.207C641.521,362,642.957,363.436,642.957,365.207z"/>
			<path style="fill:#FFFFFF;" d="M633.748,379.875c0,1.771-1.436,3.207-3.207,3.207c-1.771,0-3.207-1.436-3.207-3.207
				c0-1.771,1.436-3.207,3.207-3.207C632.312,376.668,633.748,378.104,633.748,379.875z"/>
			<path style="fill:#FFFFFF;" d="M795.207,324.207c0,1.771-1.436,3.207-3.207,3.207c-1.771,0-3.207-1.436-3.207-3.207
				c0-1.771,1.436-3.207,3.207-3.207C793.771,321,795.207,322.436,795.207,324.207z"/>
			<path style="fill:#FFFFFF;" d="M871.268,272.64c0,1.252-1.015,2.268-2.268,2.268s-2.268-1.015-2.268-2.268
				c0-1.253,1.015-2.268,2.268-2.268S871.268,271.388,871.268,272.64z"/>
			<circle style="fill:#FFFFFF;" cx="818" cy="297" r="3.207"/>
			<circle style="fill:#FFFFFF;" cx="700.662" cy="290" r="3.207"/>
			<path style="fill:#FFFFFF;" d="M752.565,293.207c0,1.347-1.092,2.439-2.439,2.439c-1.347,0-2.439-1.092-2.439-2.439
				s1.092-2.439,2.439-2.439C751.473,290.768,752.565,291.86,752.565,293.207z"/>
			<circle style="fill:#FFFFFF;" cx="712" cy="264" r="3.207"/>
			<circle style="fill:#FFFFFF;" cx="659.793" cy="263.793" r="2.268"/>
			<circle style="fill:#FFFFFF;" cx="613" cy="286" r="2.268"/>
			<path style="fill:#FFFFFF;" d="M630.54,294.707c0,1.771-1.436,3.207-3.207,3.207c-1.771,0-3.207-1.436-3.207-3.207
				c0-1.771,1.436-3.207,3.207-3.207C629.105,291.5,630.54,292.936,630.54,294.707z"/>
			<path style="fill:#FFFFFF;" d="M537.419,373c0,1.771-1.436,3.207-3.207,3.207c-1.771,0-3.207-1.436-3.207-3.207
				s1.436-3.207,3.207-3.207C535.983,369.793,537.419,371.229,537.419,373z"/>
			<circle style="fill:#FFFFFF;" cx="193.77" cy="546.373" r="7.125"/>
			<circle style="fill:#FFFFFF;" cx="421.196" cy="528.201" r="7.125"/>
			<circle style="fill:#FFFFFF;" cx="320.765" cy="546.373" r="7.125"/>
			<circle style="fill:#FFFFFF;" cx="152" cy="498.072" r="7.125"/>
			<path style="fill:#FFFFFF;" d="M101.617,454.984c0,2.782-2.256,5.038-5.038,5.038c-2.783,0-5.038-2.256-5.038-5.038
				c0-2.783,2.256-5.038,5.038-5.038C99.361,449.946,101.617,452.202,101.617,454.984z"/>
			<path style="fill:#FFFFFF;" d="M5.217,442.673c0,3.935-3.19,7.125-7.125,7.125s-7.125-3.19-7.125-7.125
				c0-3.935,3.19-7.125,7.125-7.125S5.217,438.738,5.217,442.673z"/>
			<circle style="fill:#FFFFFF;" cx="0" cy="552.405" r="7.125"/>
			<circle style="fill:#FFFFFF;" cx="89.454" cy="553.497" r="7.125"/>
		</g>
	</g>
	<g style="opacity:0.25;clip-path:url(#SVGID_00000122679211049966699120000013754043069983245239_);">
		<g>
			
				<line style="fill:none;stroke:#FFFFFF;stroke-width:0.5;stroke-miterlimit:10;" x1="490.899" y1="297.147" x2="532.653" y2="270.372"/>
			<g>
				<g>
					<g>
						<g>
							<polyline style="fill:none;stroke:#FFFFFF;stroke-miterlimit:10;" points="1208.687,566.325 1155.729,520.648 
								1116.01,566.325 1108.067,465.705 1155.729,520.648 1211.996,453.127 							"/>
							<polyline style="fill:none;stroke:#FFFFFF;stroke-miterlimit:10;" points="1049.151,509.726 961.771,487.55 
								1008.771,561.214 1049.151,509.726 1038.56,438.564 1108.067,465.705 1141.351,407.487 1208.687,453.127 1108.067,465.705 
								1049.151,509.726 1116.01,566.325 1008.771,561.214 							"/>
							<polyline style="fill:none;stroke:#FFFFFF;stroke-miterlimit:10;" points="961.771,487.55 879.024,561.214 828.714,494.17 
								961.771,487.55 1038.56,438.564 920.067,448.493 							"/>
							<polyline style="fill:none;stroke:#FFFFFF;stroke-miterlimit:10;" points="1008.771,561.214 879.024,561.214 
								776.419,540.508 828.714,494.17 920.067,448.493 961.771,487.55 951.323,398.292 							"/>
							<polyline style="fill:none;stroke:#FFFFFF;stroke-width:0.75;stroke-miterlimit:10;" points="734.052,467.691 
								556.668,479.507 776.419,540.508 734.052,467.691 828.714,494.17 776.419,407.487 660.149,381.945 575.352,415.66 
								499.749,393.183 660.149,381.945 							"/>
							<polyline style="fill:none;stroke:#FFFFFF;stroke-miterlimit:10;" points="879.024,561.214 673.885,559.073 776.419,540.508 
															"/>
							<polyline style="fill:none;stroke:#FFFFFF;stroke-miterlimit:10;" points="673.885,559.073 508.9,559.073 551.26,479.507 
								460.23,467.691 508.9,559.073 371.003,561.214 307.913,499.889 361.99,458.778 460.23,467.691 371.003,561.214 
								361.99,458.778 							"/>
							<polygon style="fill:none;stroke:#FFFFFF;stroke-miterlimit:10;" points="140.372,494.829 212.376,559.073 244.822,448.493 
															"/>
							<polyline style="fill:none;stroke:#FFFFFF;stroke-miterlimit:10;" points="244.822,448.493 127.655,443.456 140.372,494.829 
								106.024,566.325 212.376,559.073 							"/>
							<polyline style="fill:none;stroke:#FFFFFF;stroke-miterlimit:10;" points="140.372,494.829 21.612,557.957 106.024,566.325 
								-2.796,448.493 							"/>
							<polygon style="fill:none;stroke:#FFFFFF;stroke-miterlimit:10;" points="-2.796,448.493 21.612,557.957 127.655,443.456 
															"/>
							<polyline style="fill:none;stroke:#FFFFFF;stroke-miterlimit:10;" points="920.067,448.493 776.419,407.487 734.052,467.691 
															"/>
							<polyline style="fill:none;stroke:#FFFFFF;stroke-width:0.75;stroke-miterlimit:10;" points="21.612,557.957 
								-51.948,566.325 -2.796,448.493 -2.796,393.183 127.655,443.456 280.092,393.183 499.749,393.183 361.99,458.778 
								244.822,448.493 307.913,499.889 212.376,559.073 371.003,561.214 551.26,479.507 660.149,381.945 734.052,467.691 							
								"/>
							<polyline style="fill:none;stroke:#FFFFFF;stroke-miterlimit:10;" points="361.99,458.778 280.092,393.183 244.822,448.493 
															"/>
							<polyline style="fill:none;stroke:#FFFFFF;stroke-width:0.75;stroke-miterlimit:10;" points="551.26,479.507 
								499.749,393.183 460.23,467.691 575.352,415.66 663.921,448.493 776.419,407.487 951.323,398.292 1141.351,407.487 
								1038.56,438.564 951.323,398.292 920.067,448.493 734.052,467.691 663.921,448.493 551.26,479.507 673.885,559.073 
								734.052,467.691 							"/>
							<polyline style="fill:none;stroke:#FFFFFF;stroke-width:0.75;stroke-miterlimit:10;" points="460.23,467.691 
								280.092,393.183 75.76,381.945 							"/>
							<polyline style="fill:none;stroke:#FFFFFF;stroke-width:0.75;stroke-miterlimit:10;" points="499.749,393.183 
								529.377,326.775 628.478,346.187 							"/>
							<polygon style="fill:none;stroke:#FFFFFF;stroke-width:0.75;stroke-miterlimit:10;" points="529.377,326.775 
								465.012,356.404 397.583,331.884 280.092,393.183 307.913,340.057 397.583,331.884 							"/>
							<polyline style="fill:none;stroke:#FFFFFF;stroke-width:0.5;stroke-miterlimit:10;" points="-2.796,347.208 51.24,346.187 
								-2.796,393.183 75.76,381.945 127.655,443.456 183.034,340.057 307.913,340.057 258.637,360.49 465.012,356.404 
								628.478,346.187 660.149,381.945 776.455,361.512 628.478,346.187 499.749,393.183 465.012,356.404 280.092,393.183 
								258.637,360.49 75.76,381.945 183.034,340.057 258.637,360.49 229.009,279.411 							"/>
							
								<line style="fill:none;stroke:#FFFFFF;stroke-width:0.5;stroke-miterlimit:10;" x1="688.756" y1="288.974" x2="490.899" y2="297.147"/>
							<polyline style="fill:none;stroke:#FFFFFF;stroke-width:0.5;stroke-miterlimit:10;" points="729.622,308.385 
								741.882,265.476 843.027,297.147 926.803,273.649 							"/>
							<polyline style="fill:none;stroke:#FFFFFF;stroke-width:0.5;stroke-miterlimit:10;" points="909.434,351.295 
								926.803,273.649 1008.771,293.06 1182.218,305.32 1216.954,293.06 1227.171,326.775 1182.218,305.32 1154.633,329.329 
								1085.229,297.147 1008.771,317.58 1008.771,293.06 843.027,297.147 688.756,288.974 741.882,265.476 614.175,270.584 
								479.315,270.584 490.899,297.147 614.175,270.584 659.128,309.407 688.756,288.974 729.622,308.385 843.027,297.147 
								1008.771,317.58 1154.633,329.329 1227.171,326.775 1206.738,376.837 1154.633,329.329 1094.355,366.62 1206.738,376.837 
								1141.351,407.487 1094.355,366.62 951.323,398.292 909.434,351.295 776.419,407.487 776.455,361.512 909.434,351.295 
								1094.355,366.62 1008.771,317.58 909.434,351.295 729.622,308.385 628.478,346.187 659.128,309.407 529.377,326.775 
								490.899,297.147 397.583,331.884 371.02,304.299 307.913,340.057 272.94,306.342 183.034,340.057 51.24,346.187 
								75.76,381.945 122.756,307.364 							"/>
							<polyline style="fill:none;stroke:#FFFFFF;stroke-width:0.5;stroke-miterlimit:10;" points="203.467,297.147 
								127.655,274.671 122.756,307.364 							"/>
							<polyline style="fill:none;stroke:#FFFFFF;stroke-width:0.5;stroke-miterlimit:10;" points="741.882,265.476 
								926.803,273.649 1046.337,270.584 1141.351,270.584 1216.954,258.324 1216.954,293.06 1141.351,270.584 1085.229,297.147 
								1046.337,270.584 1008.771,293.06 							"/>
							<path style="fill:none;stroke:#FFFFFF;stroke-width:0.5;stroke-miterlimit:10;" d="M808.206,460.558l37.798-56.922
								l63.43-52.341l-66.408-54.148l-66.572,64.365l-46.832-53.126l-70.495,1.022l-168.229-12.26l-119.879,7.152l-98.079,2.043
								l-69.473-9.195l-20.433,42.91l-60.278-32.693c6.13-1.022,80.711-10.217,80.711-10.217l25.542-17.736l43.931,26.931
								l45.975-26.931l52.105,24.888l108.296-33.715l-160.401,8.827h-89.906l-101.354-4.741L-2.796,297.147l125.552,10.217
								L51.24,346.187l9.146-80.711"/>
							<polyline style="fill:none;stroke:#FFFFFF;stroke-width:0.5;stroke-miterlimit:10;" points="51.24,346.187 -2.796,297.147 
								-2.796,258.324 127.655,274.671 							"/>
							<polyline style="fill:none;stroke:#FFFFFF;stroke-width:0.5;stroke-miterlimit:10;" points="1154.633,329.329 
								1141.351,270.584 1182.218,305.32 							"/>
							
								<line style="fill:none;stroke:#FFFFFF;stroke-width:0.75;stroke-miterlimit:10;" x1="1008.771" y1="317.58" x2="951.323" y2="398.292"/>
							<polyline style="fill:none;stroke:#FFFFFF;stroke-width:0.5;stroke-miterlimit:10;" points="1038.56,438.564 
								1094.355,366.62 1085.229,297.147 							"/>
							
								<line style="fill:none;stroke:#FFFFFF;stroke-width:0.75;stroke-miterlimit:10;" x1="776.455" y1="361.512" x2="920.067" y2="448.493"/>
							
								<line style="fill:none;stroke:#FFFFFF;stroke-width:0.75;stroke-miterlimit:10;" x1="729.622" y1="308.385" x2="660.149" y2="381.945"/>
							<polyline style="fill:none;stroke:#FFFFFF;stroke-width:0.5;stroke-miterlimit:10;" points="575.352,415.66 529.377,326.775 
								614.175,270.584 688.756,288.974 							"/>
							<path style="fill:none;stroke:#FFFFFF;stroke-width:0.5;stroke-miterlimit:10;" d="M479.315,270.584"/>
						</g>
						<polyline style="fill:none;stroke:#FFFFFF;stroke-width:0.75;stroke-miterlimit:10;" points="734.052,467.691 
							507.028,559.073 361.99,458.778 						"/>
					</g>
					
						<line style="fill:none;stroke:#FFFFFF;stroke-width:0.75;stroke-miterlimit:10;" x1="371.003" y1="561.214" x2="127.655" y2="443.456"/>
				</g>
				<polyline style="fill:none;stroke:#FFFFFF;stroke-width:0.5;stroke-miterlimit:10;" points="479.315,270.584 397.583,331.884 
					397.583,441.214 465.012,356.404 				"/>
			</g>
		</g>
		<g>
			<path style="fill:#FFFFFF;" d="M956.624,487.55c0,2.843,2.305,5.147,5.147,5.147s5.147-2.304,5.147-5.147
				c0-2.843-2.305-5.147-5.147-5.147S956.624,484.707,956.624,487.55z"/>
			<circle style="fill:#FFFFFF;" cx="1141.351" cy="407.487" r="5.147"/>
			<path style="fill:#FFFFFF;" d="M1149.737,518.921c0,2.843,2.305,5.147,5.147,5.147s5.147-2.304,5.147-5.147
				s-2.305-5.147-5.147-5.147S1149.737,516.078,1149.737,518.921z"/>
			<circle style="fill:#FFFFFF;" cx="734.052" cy="467.691" r="5.293"/>
			<circle style="fill:#FFFFFF;" cx="828.714" cy="494.829" r="7.279"/>
			<circle style="fill:#FFFFFF;" cx="551.26" cy="479.507" r="5.147"/>
			<path style="fill:#FFFFFF;" d="M356.843,458.778c0,2.843,2.305,5.147,5.147,5.147c2.843,0,5.147-2.304,5.147-5.147
				c0-2.843-2.305-5.147-5.147-5.147C359.147,453.63,356.843,455.935,356.843,458.778z"/>
			<path style="fill:#FFFFFF;" d="M134.934,494.829c0,3.003,2.435,5.438,5.438,5.438c3.003,0,5.438-2.435,5.438-5.438
				s-2.435-5.438-5.438-5.438C137.369,489.391,134.934,491.826,134.934,494.829z"/>
			
				<ellipse transform="matrix(0.9732 -0.2298 0.2298 0.9732 -127.6133 19.891)" style="fill:#FFFFFF;" cx="21.612" cy="557.957" rx="7.279" ry="7.279"/>
			
				<ellipse transform="matrix(0.9873 -0.1586 0.1586 0.9873 -88.4786 23.984)" style="fill:#FFFFFF;" cx="106.024" cy="566.325" rx="7.279" ry="7.279"/>
			
				<ellipse transform="matrix(0.9871 -0.1598 0.1598 0.9871 -86.4635 40.8532)" style="fill:#FFFFFF;" cx="210.746" cy="557.957" rx="7.279" ry="7.279"/>
			<circle style="fill:#FFFFFF;" cx="-2.796" cy="448.493" r="7.279"/>
			<path style="fill:#FFFFFF;" d="M122.756,443.456c0,2.706,2.193,4.899,4.899,4.899c2.706,0,4.899-2.193,4.899-4.899
				c0-2.706-2.193-4.899-4.899-4.899C124.949,438.557,122.756,440.75,122.756,443.456z"/>
			<circle style="fill:#FFFFFF;" cx="244.822" cy="450.735" r="7.279"/>
			
				<ellipse transform="matrix(0.9871 -0.1598 0.1598 0.9871 -84.4259 66.1882)" style="fill:#FFFFFF;" cx="369.269" cy="557.957" rx="7.279" ry="7.279"/>
			<path style="fill:#FFFFFF;" d="M303.406,499.889c0,2.489,2.018,4.507,4.506,4.507c2.489,0,4.507-2.018,4.507-4.507
				c0-2.489-2.018-4.506-4.507-4.506C305.424,495.383,303.406,497.4,303.406,499.889z"/>
			<path style="fill:#FFFFFF;" d="M421.047,503.783c0,2.84,2.302,5.142,5.142,5.142c2.84,0,5.142-2.302,5.142-5.142
				c0-2.84-2.302-5.142-5.142-5.142C423.349,498.641,421.047,500.943,421.047,503.783z"/>
			<circle style="fill:#FFFFFF;" cx="280.092" cy="518.342" r="7.279"/>
			
				<ellipse transform="matrix(0.9871 -0.1602 0.1602 0.9871 -82.035 16.3486)" style="fill:#FFFFFF;" cx="60.386" cy="517.005" rx="7.279" ry="7.279"/>
			<path style="fill:#FFFFFF;" d="M478.472,511.062c0,2.843,2.304,5.147,5.147,5.147c2.843,0,5.147-2.305,5.147-5.147
				c0-2.843-2.304-5.147-5.147-5.147C480.777,505.915,478.472,508.22,478.472,511.062z"/>
			<circle style="fill:#FFFFFF;" cx="454.341" cy="523.135" r="4.214"/>
			<path style="fill:#FFFFFF;" d="M701.326,434.342c0,2.327,1.887,4.214,4.214,4.214s4.214-1.887,4.214-4.214
				c0-2.327-1.887-4.214-4.214-4.214S701.326,432.015,701.326,434.342z"/>
			<path style="fill:#FFFFFF;" d="M804.076,460.411c0,2.327,1.887,4.214,4.214,4.214c2.327,0,4.214-1.887,4.214-4.214
				c0-2.327-1.887-4.214-4.214-4.214C805.963,456.197,804.076,458.084,804.076,460.411z"/>
			<path style="fill:#FFFFFF;" d="M604.724,428.085c0,2.327,1.887,4.214,4.214,4.214c2.327,0,4.214-1.887,4.214-4.214
				c0-2.328-1.887-4.214-4.214-4.214C606.611,423.871,604.724,425.757,604.724,428.085z"/>
			<path style="fill:#FFFFFF;" d="M1034.345,438.564c0,2.327,1.887,4.214,4.214,4.214c2.327,0,4.214-1.887,4.214-4.214
				c0-2.328-1.887-4.214-4.214-4.214C1036.232,434.35,1034.345,436.236,1034.345,438.564z"/>
			<path style="fill:#FFFFFF;" d="M772.24,361.512c0,2.327,1.887,4.214,4.214,4.214c2.328,0,4.214-1.887,4.214-4.214
				c0-2.328-1.887-4.214-4.214-4.214C774.127,357.297,772.24,359.184,772.24,361.512z"/>
			<path style="fill:#FFFFFF;" d="M495.534,393.183c0,2.327,1.887,4.214,4.214,4.214s4.214-1.887,4.214-4.214
				c0-2.327-1.887-4.214-4.214-4.214S495.534,390.856,495.534,393.183z"/>
			<circle style="fill:#FFFFFF;" cx="307.913" cy="340.057" r="2.98"/>
			<circle style="fill:#FFFFFF;" cx="251.08" cy="340.057" r="2.98"/>
			<path style="fill:#FFFFFF;" d="M255.657,359.979c0,1.646,1.334,2.98,2.98,2.98c1.646,0,2.98-1.334,2.98-2.98
				c0-1.646-1.334-2.98-2.98-2.98C256.991,356.999,255.657,358.333,255.657,359.979z"/>
			<path style="fill:#FFFFFF;" d="M239.884,317.07c0,1.646,1.334,2.98,2.98,2.98s2.98-1.334,2.98-2.98c0-1.646-1.334-2.98-2.98-2.98
				S239.884,315.424,239.884,317.07z"/>
			<path style="fill:#FFFFFF;" d="M234.628,301.022c0,1.046,0.848,1.894,1.894,1.894s1.894-0.848,1.894-1.894
				c0-1.046-0.848-1.894-1.894-1.894S234.628,299.976,234.628,301.022z"/>
			<path style="fill:#FFFFFF;" d="M72.78,381.945c0,1.646,1.334,2.98,2.98,2.98c1.646,0,2.98-1.334,2.98-2.98
				c0-1.646-1.334-2.98-2.98-2.98C74.114,378.965,72.78,380.299,72.78,381.945z"/>
			<circle style="fill:#FFFFFF;" cx="51.24" cy="346.187" r="2.98"/>
			<circle style="fill:#FFFFFF;" cx="-2.796" cy="346.187" r="2.98"/>
			<circle style="fill:#FFFFFF;" cx="-2.796" cy="297.147" r="2.98"/>
			<path style="fill:#FFFFFF;" d="M119.776,307.364c0,1.646,1.334,2.98,2.98,2.98c1.646,0,2.98-1.334,2.98-2.98
				s-1.334-2.98-2.98-2.98C121.11,304.384,119.776,305.718,119.776,307.364z"/>
			<path style="fill:#FFFFFF;" d="M57.455,265.476c0,1.646,1.334,2.98,2.98,2.98c1.646,0,2.98-1.334,2.98-2.98
				c0-1.646-1.334-2.98-2.98-2.98C58.789,262.496,57.455,263.83,57.455,265.476z"/>
			<circle style="fill:#FFFFFF;" cx="56.557" cy="302.255" r="2.98"/>
			<circle style="fill:#FFFFFF;" cx="-2.796" cy="258.324" r="2.98"/>
			<circle style="fill:#FFFFFF;" cx="158.003" cy="386.968" r="2.98"/>
			<path style="fill:#FFFFFF;" d="M163.112,370.707c0,1.646,1.334,2.98,2.98,2.98c1.646,0,2.98-1.334,2.98-2.98
				c0-1.646-1.334-2.98-2.98-2.98C164.446,367.727,163.112,369.061,163.112,370.707z"/>
			<circle style="fill:#FFFFFF;" cx="272.813" cy="307.364" r="2.98"/>
			<circle style="fill:#FFFFFF;" cx="203.467" cy="297.147" r="2.98"/>
			<path style="fill:#FFFFFF;" d="M125.736,274.671c0,1.06,0.859,1.919,1.919,1.919c1.06,0,1.919-0.859,1.919-1.919
				c0-1.06-0.859-1.919-1.919-1.919C126.595,272.752,125.736,273.611,125.736,274.671z"/>
			<path style="fill:#FFFFFF;" d="M55.536,286.59c0,1.06,0.859,1.919,1.919,1.919c1.06,0,1.919-0.859,1.919-1.919
				c0-1.06-0.859-1.919-1.919-1.919C56.395,284.671,55.536,285.53,55.536,286.59z"/>
			<path style="fill:#FFFFFF;" d="M226.965,279.779c0,1.646,1.334,2.98,2.98,2.98s2.98-1.334,2.98-2.98
				c0-1.646-1.334-2.98-2.98-2.98S226.965,278.133,226.965,279.779z"/>
			<path style="fill:#FFFFFF;" d="M343.52,358.319c0,1.646,1.334,2.98,2.98,2.98c1.646,0,2.98-1.334,2.98-2.98
				c0-1.646-1.334-2.98-2.98-2.98C344.854,355.339,343.52,356.673,343.52,358.319z"/>
			<path style="fill:#FFFFFF;" d="M275.878,393.183c0,2.327,1.887,4.214,4.214,4.214c2.327,0,4.214-1.887,4.214-4.214
				c0-2.327-1.887-4.214-4.214-4.214C277.764,388.969,275.878,390.856,275.878,393.183z"/>
			<path style="fill:#FFFFFF;" d="M178.82,340.057c0,2.328,1.887,4.214,4.214,4.214s4.214-1.887,4.214-4.214
				c0-2.327-1.887-4.214-4.214-4.214S178.82,337.729,178.82,340.057z"/>
			<path style="fill:#FFFFFF;" d="M-7.01,393.183c0,2.327,1.887,4.214,4.214,4.214c2.327,0,4.214-1.887,4.214-4.214
				c0-2.327-1.887-4.214-4.214-4.214C-5.123,388.969-7.01,390.856-7.01,393.183z"/>
			<circle style="fill:#FFFFFF;" cx="460.23" cy="467.691" r="7.279"/>
			<circle style="fill:#FFFFFF;" cx="507.028" cy="559.073" r="7.279"/>
			<circle style="fill:#FFFFFF;" cx="673.885" cy="559.073" r="7.279"/>
			<circle style="fill:#FFFFFF;" cx="644.186" cy="504.89" r="7.279"/>
			<path style="fill:#FFFFFF;" d="M694.886,518.921c0,2.942,2.385,5.327,5.327,5.327c2.942,0,5.327-2.385,5.327-5.327
				c0-2.942-2.385-5.327-5.327-5.327C697.271,513.594,694.886,515.979,694.886,518.921z"/>
			<circle style="fill:#FFFFFF;" cx="920.067" cy="448.493" r="3.277"/>
			<path style="fill:#FFFFFF;" d="M953.347,445.078c0,1.81,1.467,3.277,3.277,3.277c1.81,0,3.277-1.467,3.277-3.277
				c0-1.81-1.467-3.276-3.277-3.276C954.814,441.802,953.347,443.268,953.347,445.078z"/>
			<circle style="fill:#FFFFFF;" cx="1066.457" cy="404.21" r="3.277"/>
			<circle style="fill:#FFFFFF;" cx="1085.229" cy="297.147" r="3.277"/>
			<circle style="fill:#FFFFFF;" cx="1206.738" cy="376.625" r="3.277"/>
			<circle style="fill:#FFFFFF;" cx="1094.355" cy="365.726" r="3.277"/>
			<circle style="fill:#FFFFFF;" cx="1154.884" cy="329.329" r="3.277"/>
			<circle style="fill:#FFFFFF;" cx="1216.954" cy="258.324" r="3.277"/>
			<circle style="fill:#FFFFFF;" cx="1141.351" cy="270.584" r="3.277"/>
			<circle style="fill:#FFFFFF;" cx="1047.147" cy="270.372" r="2.317"/>
			<circle style="fill:#FFFFFF;" cx="1182.218" cy="305.32" r="2.317"/>
			<circle style="fill:#FFFFFF;" cx="1227.171" cy="327.797" r="3.277"/>
			<circle style="fill:#FFFFFF;" cx="1216.954" cy="293.871" r="3.277"/>
			<path style="fill:#FFFFFF;" d="M976.142,357.297c0,1.81,1.467,3.277,3.277,3.277c1.81,0,3.277-1.467,3.277-3.277
				c0-1.81-1.467-3.276-3.277-3.276C977.609,354.021,976.142,355.488,976.142,357.297z"/>
			<circle style="fill:#FFFFFF;" cx="926.803" cy="273.649" r="3.277"/>
			<circle style="fill:#FFFFFF;" cx="741.882" cy="265.476" r="3.277"/>
			<circle style="fill:#FFFFFF;" cx="614.175" cy="270.584" r="3.277"/>
			<circle style="fill:#FFFFFF;" cx="628.478" cy="346.187" r="3.277"/>
			<path style="fill:#FFFFFF;" d="M526.1,326.775c0,1.81,1.467,3.277,3.276,3.277c1.81,0,3.277-1.467,3.277-3.277
				s-1.467-3.277-3.277-3.277C527.567,323.499,526.1,324.966,526.1,326.775z"/>
			<circle style="fill:#FFFFFF;" cx="659.722" cy="309.407" r="3.277"/>
			<path style="fill:#FFFFFF;" d="M635.673,290.806c0,1.245,1.01,2.255,2.255,2.255c1.245,0,2.255-1.009,2.255-2.255
				s-1.01-2.255-2.255-2.255C636.683,288.551,635.673,289.56,635.673,290.806z"/>
			<circle style="fill:#FFFFFF;" cx="688.756" cy="353.127" r="3.277"/>
			<circle style="fill:#FFFFFF;" cx="688.756" cy="288.974" r="3.277"/>
			<circle style="fill:#FFFFFF;" cx="729.622" cy="309.407" r="3.277"/>
			<path style="fill:#FFFFFF;" d="M731.586,292.039c0,1.362,1.104,2.466,2.466,2.466c1.362,0,2.467-1.104,2.467-2.466
				c0-1.362-1.104-2.467-2.467-2.467C732.69,289.572,731.586,290.677,731.586,292.039z"/>
			<circle style="fill:#FFFFFF;" cx="909.434" cy="351.295" r="3.277"/>
			<circle style="fill:#FFFFFF;" cx="842.727" cy="297.147" r="3.277"/>
			<circle style="fill:#FFFFFF;" cx="811.483" cy="327.797" r="2.426"/>
			<path style="fill:#FFFFFF;" d="M818.159,388.969c0,1.81,1.467,3.277,3.277,3.277c1.81,0,3.276-1.467,3.276-3.277
				s-1.467-3.277-3.276-3.277C819.626,385.692,818.159,387.159,818.159,388.969z"/>
			<circle style="fill:#FFFFFF;" cx="847.026" cy="403.981" r="3.277"/>
			<circle style="fill:#FFFFFF;" cx="832.717" cy="423.871" r="3.277"/>
			<circle style="fill:#FFFFFF;" cx="1008.771" cy="317.58" r="3.277"/>
			<circle style="fill:#FFFFFF;" cx="1088.505" cy="324.52" r="2.317"/>
			<path style="fill:#FFFFFF;" d="M1006.516,293.06c0,1.245,1.01,2.255,2.255,2.255c1.245,0,2.255-1.01,2.255-2.255
				c0-1.245-1.01-2.255-2.255-2.255C1007.526,290.806,1006.516,291.815,1006.516,293.06z"/>
			<circle style="fill:#FFFFFF;" cx="920.067" cy="306.13" r="3.277"/>
			<circle style="fill:#FFFFFF;" cx="922.322" cy="295.315" r="2.317"/>
			<circle style="fill:#FFFFFF;" cx="951.323" cy="398.292" r="3.277"/>
			<circle style="fill:#FFFFFF;" cx="776.419" cy="407.487" r="3.277"/>
			<circle style="fill:#FFFFFF;" cx="664.232" cy="448.355" r="3.277"/>
			<circle style="fill:#FFFFFF;" cx="575.352" cy="415.66" r="3.277"/>
			<path style="fill:#FFFFFF;" d="M522.824,437.589c0,1.81,1.467,3.277,3.277,3.277c1.81,0,3.276-1.467,3.276-3.277
				s-1.467-3.277-3.276-3.277C524.291,434.312,522.824,435.779,522.824,437.589z"/>
			<circle style="fill:#FFFFFF;" cx="397.583" cy="441.214" r="3.277"/>
			<path style="fill:#FFFFFF;" d="M461.736,356.404c0,1.81,1.467,3.277,3.276,3.277c1.81,0,3.277-1.467,3.277-3.277
				s-1.467-3.277-3.277-3.277C463.203,353.127,461.736,354.594,461.736,356.404z"/>
			<circle style="fill:#FFFFFF;" cx="435.629" cy="393.183" r="3.277"/>
			<path style="fill:#FFFFFF;" d="M394.306,357.297c0,1.81,1.467,3.277,3.277,3.277s3.277-1.467,3.277-3.277
				c0-1.81-1.467-3.276-3.277-3.276S394.306,355.488,394.306,357.297z"/>
			<circle style="fill:#FFFFFF;" cx="397.583" cy="370.707" r="3.277"/>
			<path style="fill:#FFFFFF;" d="M394.321,392.868c-0.174,1.801,1.145,3.403,2.946,3.577c1.801,0.174,3.403-1.145,3.577-2.946
				c0.174-1.801-1.145-3.403-2.946-3.577C396.097,389.748,394.496,391.066,394.321,392.868z"/>
			<circle style="fill:#FFFFFF;" cx="517.479" cy="353.127" r="3.277"/>
			<circle style="fill:#FFFFFF;" cx="542.837" cy="351.295" r="3.277"/>
			<circle style="fill:#FFFFFF;" cx="553.131" cy="373.983" r="3.277"/>
			<circle style="fill:#FFFFFF;" cx="562.539" cy="388.969" r="3.277"/>
			<path style="fill:#FFFFFF;" d="M394.306,332.095c0,1.81,1.467,3.276,3.277,3.276s3.277-1.467,3.277-3.276
				c0-1.81-1.467-3.277-3.277-3.277S394.306,330.286,394.306,332.095z"/>
			<circle style="fill:#FFFFFF;" cx="318.915" cy="279.411" r="2.317"/>
			<circle style="fill:#FFFFFF;" cx="371.02" cy="304.299" r="3.277"/>
			<circle style="fill:#FFFFFF;" cx="490.899" cy="297.147" r="3.277"/>
			<path style="fill:#FFFFFF;" d="M437.871,300.424c0,1.376,1.116,2.492,2.492,2.492c1.376,0,2.492-1.116,2.492-2.492
				s-1.116-2.492-2.492-2.492C438.987,297.932,437.871,299.047,437.871,300.424z"/>
			<circle style="fill:#FFFFFF;" cx="479.315" cy="270.584" r="3.277"/>
			<circle style="fill:#FFFFFF;" cx="532.653" cy="270.372" r="2.317"/>
			<circle style="fill:#FFFFFF;" cx="580.46" cy="293.06" r="2.317"/>
			<circle style="fill:#FFFFFF;" cx="565.816" cy="301.956" r="3.277"/>
			<circle style="fill:#FFFFFF;" cx="660.955" cy="381.945" r="3.277"/>
			<circle style="fill:#FFFFFF;" cx="1008.771" cy="559.073" r="7.279"/>
			<circle style="fill:#FFFFFF;" cx="776.419" cy="540.508" r="7.279"/>
			<circle style="fill:#FFFFFF;" cx="879.024" cy="559.073" r="7.279"/>
			<circle style="fill:#FFFFFF;" cx="1051.445" cy="509.726" r="7.279"/>
			<path style="fill:#FFFFFF;" d="M1102.92,465.705c0,2.843,2.304,5.147,5.147,5.147s5.147-2.305,5.147-5.147
				c0-2.843-2.304-5.147-5.147-5.147S1102.92,462.862,1102.92,465.705z"/>
			<circle style="fill:#FFFFFF;" cx="1208.687" cy="453.127" r="7.279"/>
			
				<ellipse transform="matrix(0.7071 -0.7071 0.7071 0.7071 -46.2368 1018.8461)" style="fill:#FFFFFF;" cx="1206.738" cy="565.236" rx="7.279" ry="7.279"/>
			<circle style="fill:#FFFFFF;" cx="1115.346" cy="566.352" r="7.279"/>
		</g>
	</g>
</g>
</svg>
