<?xml version="1.0" encoding="UTF-8"?>
<svg id="Layer_1" xmlns="http://www.w3.org/2000/svg" version="1.1" viewBox="0 0 293.3 314">
  <!-- Generator: Adobe Illustrator 29.1.0, SVG Export Plug-In . SVG Version: 2.1.0 Build 142)  -->
  <defs>
    <style>
      .st0 {
        fill: #fff;
      }
    </style>
  </defs>
  <path class="st0" d="M105.8,207.8c-1.2-.7-2.5-1.4-3.9-1.4s-2.8.4-4.1,1.1c-1.2.7-2.1,1.8-2.9,3-1.3,2.2-1.2,2.3-2.5,4.5-.7,1.2-1.3,2.5-1.4,3.9,0,1.4.4,2.8,1,4s1.5,2.3,2.7,3.1c1.2.7,2.6.8,4,.8s2.8,0,4-.7,2-1.8,2.8-3.1c1.3-2.2,1.7-2,3-4.2.8-1.3.9-2.7.9-4.1s0-2.8-.8-4.1c-.6-1.2-1.7-2.1-3-2.8M104.7,216.5c-1.3,2.2-1.2,2.3-2.5,4.5-1.1,1.8-3.4,2.2-5.1,1.2-1.7-1-2.2-3.1-1.1-5,1.3-2.2,1.2-2.3,2.6-4.5,1.1-1.8,3.4-2.6,5.2-1.5,1.7,1,2.1,3.5,1,5.3"/>
  <path class="st0" d="M128.1,218.8c-.9-1-2.1-1.7-3.5-2.2-1.4-.4-2.8-.7-4.1-.4-1.4.3-2.6,1.1-3.6,2.1-1,.9-1.7,2.1-2.1,3.5-.8,2.4-1,2.4-1.8,4.8-.4,1.4-.4,2.9,0,4.2.3,1.4,1.2,2.5,2.2,3.5.9,1,2,1.8,3.3,2.2,1.8.6,3.7.6,5.4-.2.3-.1.9-.1,1.1.2.3.6.7,1,1.3,1.4.5.4,1.1.5,1.4,0,.6-1,.4-1.1,1-2.1.2-.3.3-.9,0-1.1-.5-.6-.8-1.6,0-4.6.2-.7.5-.6.7-1.3.2-.5-.4-.9-.9-1-2.9-.9-2.8-1-5.6-1.9-.5-.2-.8.1-1,.6-.3,1.1-.6,1-.9,2.1-.2.5.2,1,.7,1.2.9.3.8.4,1.7.6.5.1.8.7.5,1.1-.9,1.2-2.7,1.9-4.2,1.4-1.9-.6-2.8-2.9-2.2-4.9.8-2.5.6-2.5,1.4-5,.6-2,2.8-3.3,4.7-2.7,1.2.4,2.3,1.4,2.6,2.7,0,.4.3.7.7.7,1.2,0,1.2-.2,2.3-.2s.9-.4.8-.9c-.3-1.4-.9-2.7-1.8-3.7"/>
  <path class="st0" d="M148.5,221.4c-2.2-.2-2.2-.3-4.5-.5-2.2-.2-2.2,0-4.5-.3-.5,0-1,.3-1,.8-.2,2.3,0,2.3-.2,4.6s-.6,2.3-.8,4.6c0,1.5-.3,3.1-.4,4.6-.2,2.3,0,2.4,0,4.7,0,.5.3,1.1.9,1.1,2.2.2,2.2,0,4.5.1,2.2.2,2.3.2,4.5.3.5,0,.9-.2.9-.7,0-1.1,0-1.1.2-2.2,0-.5-.3-1.1-.8-1.1-2.2-.2-2.2,0-4.4-.3-.8,0-1.4-.7-1.4-1.5s0-.7,0-1.3c0-.8,1-1.4,1.7-1.3,1.4.1,1.4.2,2.8.3.5,0,.8-.4.8-.9,0-1.1.4-1.1.5-2.2,0-.5-.4-.9-1-.9-1.4-.1-1.4-.4-2.8-.5-.8,0-1.3-.5-1.2-1.3v-1.3c0-.7.7-1.1,1.5-1,2.2.2,2.2-.2,4.4,0,.5,0,.8-.2.8-.8,0-1.1.2-1.1.3-2.2,0-.5-.3-.9-.8-.9"/>
  <path class="st0" d="M167.5,219.9c-2.9.3-2.9.5-5.8.9-1.9.2-3.9.4-5.9.6-.5,0-1.1.6-1,1.1,0,1.1.5,1.1.6,2.1,0,.5.4.7.9.6,1.2-.1,1.3,0,2.5-.1.7,0,1.4.5,1.5,1.2.3,2.3.2,2.3.5,4.6s.4,2.3.7,4.6c.3,2.3,0,2.3.2,4.7,0,.5.8.9,1.3.9,1.1-.1,1.1,0,2.2-.1.5,0,.7-.7.6-1.2-.3-2.3,0-2.4-.3-4.6-.2-1.5-.4-3.1-.6-4.6-.2-1.5-.4-3.1-.5-4.6,0-.8.4-1.4,1.2-1.5,1.2-.1,1.3,0,2.5-.1.5,0,1.1-.8,1-1.3,0-1.1-.2-1.1-.4-2.2,0-.5-.6-1-1.2-1"/>
  <path class="st0" d="M191.9,228.3c-.5-1.5-1.1-2.9-1.6-4.3-.8-2.2-.9-2.1-1.7-4.3s-.7-2.2-1.4-4.4c-.2-.5-.8-1-1.3-.8-1,.4-.9.6-2,1-.5.2-.8.7-.6,1.2,1.1,3.1,1.4,3,2.4,6,.3.7-.3,1.7-1,2-1.4.5-1.5.3-2.9.8-.7.3-1.7,0-2-.7-1.1-3.1-1.1-3-2.2-6.1-.2-.5-.4-.7-.9-.6-1.1.4-1,.5-2,.9s-1,.6-.9,1.1c.8,2.2,1.2,2,2,4.2s.3,2.4,1,4.5c.5,1.5,1,2.9,1.5,4.4.8,2.2,1.2,2,2,4.2.2.5.5.9,1,.8,1-.4,1-.5,2-.9s.6-.6.4-1.1c-.8-2.4-.4-2.6-1.3-5-.3-.7,0-1.4.6-1.6,1.4-.5,1.4-.4,2.8-.9.7-.3,1.3,0,1.5.8.6,1.6,1.2,3.2,1.7,4.9.2.5.8.5,1.3.3,1.1-.4,1.1-.3,2.1-.6.5-.2.6-.5.4-1-.8-2.2-.4-2.3-1.2-4.5"/>
  <path class="st0" d="M210.1,221.2c-.3-.4-.8-.7-1.3-.4-1.9,1.1-1.8,1.2-3.8,2.4-.7.4-1.6.2-2-.4-.3-.6-.5-.5-.8-1-.4-.7,0-1.7.6-2.1,1.2-.7,1.2-.6,2.5-1.4.4-.3.4-.7.1-1.2-.6-1-.3-1.1-.9-2-.3-.5-.9-.5-1.3-.2-1.2.7-1.4.5-2.6,1.2-.7.4-1.4.3-1.7-.3s-.4-.5-.7-1.1c-.4-.6,0-1.3.6-1.7,1.9-1.1,1.7-1.5,3.6-2.6.5-.3.5-.6.2-1.1-.6-.9-.5-1-1-1.9-.3-.4-.7-.6-1.2-.3-1.9,1.1-2,1-3.9,2.2-1.9,1.1-1.9,1.2-3.8,2.4-.5.3-.6.8-.3,1.3,1.2,2,1.4,1.9,2.5,3.9,1.2,2,.8,2.2,2,4.2.8,1.3,1.6,2.7,2.4,4,1.2,2,1.4,1.9,2.6,3.9.3.4.9.7,1.3.4,1.9-1.1,1.8-1.4,3.7-2.5,1.3-.8,2.5-1.6,3.8-2.3.5-.3.6-.6.3-1.1-.6-1-.5-1-1.1-1.9"/>
  <path class="st0" d="M92.1,203.8c.4.4,1.3.3,1.7,0,.7-.8.7-.9,1.4-1.7.4-.4.4-1.2,0-1.5-2.1-2-2.3-1.9-4.4-3.9-2.2-2-2.1-2.1-4.3-4.1-.4-.4-1.1-.4-1.5,0-.8.8-.5,1-1.3,1.8s-.3.7,0,1.1c.9.9.8,1,1.7,1.9s.5,1.4,0,2c-1.1,1.1-2.1,2.3-3.2,3.4-1.6,1.7-1.5,1.8-3.1,3.4-1.6,1.7-1.8,1.5-3.4,3.1-.4.4-.2,1.2.2,1.6.8.8.7.8,1.5,1.6.4.4,1,0,1.3-.3,1.6-1.7,1.8-1.5,3.4-3.2,1.1-1.1,2.1-2.3,3.2-3.4,1.1-1.1,2.1-2.3,3.2-3.4.5-.6,1.3-.5,1.9,0,.9.9.8,1,1.7,1.8"/>
  <path class="st0" d="M228.2,206.1c-.3-.4-.8-.6-1.2-.4-1.4,1-3-.2-3.9-1.5-1.2-1.9-1.1-4.3-2.8-6-2.4-2.4-7.1-2.5-9.6-.2-2.3,2.1-2.1,2.3-4.3,4.4-.4.4-.5.9-.2,1.3,1.6,1.7,1.6,1.8,3.2,3.5s1.8,1.6,3.4,3.3c1.6,1.7,1.5,1.8,3.1,3.5s1.5,1.8,3.2,3.5c.3.4,1.1.6,1.5.2.8-.7.7-.9,1.5-1.6.4-.3.6-1.2.2-1.6-1.5-1.6-1.8-1.4-3.3-3-.5-.6-.4-1.4.2-2s.5-.5.8-.7c.5-.5,1.3-.8,1.9-.3.7.5,1.3,1.3,2.1,1.5,2.3.8,4.4,0,5.8-1,.4-.3.3-1,0-1.4-.8-.9-.8-.8-1.6-1.7M217.7,205.5c-.6.6-.7.4-1.3,1-.6.5-1.3.5-1.8,0-1-1.1-1.1-1-2.1-2.1-1.6-1.7,1-3,2.4-3.5,1.1-.4,2.2,0,2.9,1,.7,1.1,1.1,2.7,0,3.7"/>
  <path class="st0" d="M93.8,117l-1.3-1.6c-1-1.3-2.2-1.9-3.9-1.9h-27.6c-.4,0-.7.2-.9.5s-.2.7-.2,1.2.2,1.4.5,1.9c.8,1.8,1.1,3.9,1.1,6.7v43.1c0,3.3,0,6.6-1.4,9.5-.3.7-.4,1.4-.2,1.8.2.5.7.7,1.6.8h25.8c3.1,0,5.3-1.2,7-3.7.2-.2.3-.4.5-.6h.2c1.3-1.6,1.8-3.1,1.7-5.3v-17.4c0-2.1-.5-3.6-1.6-4.9-.7-.7-.9-1.1-.9-1.5s.2-.8.9-1.4c1.8-1.8,2-4.1,2-5.9v-13.3c0-4.4,0-4.5-3-8.1M72.9,133.8v-2.4c0-2.5,1.1-3.8,3.2-3.8h6.9c.5,0,.9,0,1.1.4.2.3.3.6.3,1.3v8.3c0,.5-.2.8-.3,1-.2.3-.5.4-.9.4h-8.7c-1.6,0-1.7-.2-1.8-1.9v-3.1M84.5,163.1c0,.6,0,1-.3,1.2-.2.3-.5.4-1.2.4h-8.7c-.5,0-.9,0-1.2-.4-.2-.2-.2-.6-.2-1v-8.3c0-1.9.2-2,1.9-2h8.5c.5,0,.8,0,.9.3.2.3.3.6.3,1.2v8.7"/>
  <path class="st0" d="M123.9,142.9c-.3-.2-.7,0-1.2,0-.3,0-.5.2-.8.3-.7.3-1.2.5-1.8.5h-9.4c-.6,0-.9-.2-.9-.7v-5.6c0-2.1,0-.3.2-.4,0,0,.3,0,.4,0h2.5c1.9,0,3.7-.2,5.4.8.3.2.5.3.8.2.3,0,.4-.4.5-.8v-8.1c0-.9,0-1.3-.4-1.5s-.7,0-1.4.2c-.9.5-1.7.9-2.7.9h-4.1c-.7,0-1.1-.4-1.2-1.1v-4.5c0-1.3,0-1.4,1.4-1.4h6.7c1.6,0,3.3,0,4.8.8.5.2.9.3,1.1,0,.3-.2.4-.6.4-1.2v-6.2c0-1.4-.2-1.5-1.6-1.5h-21.3c-.3,0-.4,0-.6.3,0,.2-.2.4,0,.7,0,.3,0,.6.2.9.9,1.4.9,2.9.8,4.7v26.3c0,6.6-.2,2.4-.8,3.5-.3.7-.5,1.2-.3,1.6s.8.4,1.6.5h20.1c.9,0,1.5,0,1.7-.4.4-.3.4-.9.4-1.9,0-1.9,0-3.7,0-5.6,0-.6,0-1-.4-1.2"/>
  <path class="st0" d="M148.1,113.7h-18.2c-.5,0-.9,0-1.1.3-.2.2-.2.5-.2,1,0,1.1,0,2.3,0,3.4v1.8c0,.6,0,1,.3,1.2s.7,0,1.2,0c1.1-.5,2.3-.7,3.8-.6,1.4,0,1.5,0,1.5,1.5v18.9c0,1.6,0,3.2-.8,4.7-.2.4-.3.7,0,.8,0,.2.4.4,1,.4h6.8c.6,0,1,0,1.1-.3.2-.3,0-.7-.2-1.2-.7-1.3-.9-2.6-.6-4v-20.6s.2,0,.4,0h.2c1.3,0,2.7-.2,4,.4.3.2.7.3,1.1.4.3,0,.6,0,.8,0,0,0,.3-.3.3-.7v-6c0-.7-.4-1-1.1-1"/>
  <path class="st0" d="M172.4,113.7h-18.2c-.5,0-.9,0-1.1.3-.2.2-.2.5-.2,1,0,1.1,0,2.3,0,3.4v1.8c0,.6,0,1,.3,1.2s.7,0,1.2,0c1.1-.5,2.3-.7,3.8-.6,1.4,0,1.5,0,1.5,1.5v18.9c0,1.6,0,3.2-.8,4.7-.2.4-.3.7,0,.8,0,.2.4.4,1,.4h6.8c.6,0,1,0,1.1-.3.2-.3,0-.7-.2-1.2-.7-1.3-.9-2.6-.6-4v-20.6s.2,0,.4,0h.2c1.3,0,2.7-.2,4,.4.3.2.7.3,1.1.4.3,0,.6,0,.8,0,0,0,.3-.3.3-.7v-6c0-.7-.4-1-1.1-1"/>
  <path class="st0" d="M201.1,144.1c0-.6-.1-1-.4-1.2s-.7,0-1.2,0c-.3,0-.5.2-.8.3-.7.3-1.2.5-1.8.5h-9.4c-.6,0-.9-.2-.9-.7v-5.6c0-2.1,0-.3.2-.4.1,0,.3,0,.4,0h2.5c1.9,0,3.7-.2,5.4.8.3.2.5.3.8.2.3,0,.4-.4.5-.8v-8.1c0-.9-.1-1.3-.4-1.5s-.7,0-1.4.2c-.9.5-1.7.9-2.7.9h-4.1c-.7,0-1.1-.4-1.2-1.1v-4.5c0-1.3.1-1.4,1.4-1.4h6.7c1.6,0,3.3,0,4.8.8.5.2.9.3,1.1,0,.3-.2.4-.6.4-1.2v-6.2c0-1.4-.2-1.5-1.6-1.5h-21.3c-.3,0-.4,0-.6.3,0,.2-.2.4,0,.7,0,.3,0,.6.2.9.9,1.4.9,2.9.8,4.7v26.3c0,6.6-.2,2.4-.8,3.5-.3.7-.5,1.2-.3,1.6s.8.4,1.6.5h20.1c.9,0,1.5,0,1.7-.4.4-.3.4-.9.4-1.9,0-1.9,0-3.7-.1-5.6"/>
  <path class="st0" d="M245.7,176.5c-.4-.6-.8-1-1.2-1.5-1.6-1.8-2.7-4.1-3.4-7-1.1-4-2.4-8-3.4-11.5v-.2c-.8-2.5-.4-4.7,1.3-6.6,1.4-1.7,2-3.4,2-5.7v-20.4c0-4,0-4.1-2.6-6.7-.2-.3-.5-.6-.9-.9-.2-.3-.5-.5-.6-.7-.7-1.1-1.6-1.6-3.1-1.6h-27.6c-.9,0-1.4,0-1.6.6-.2.4-.2,1,.2,2,0,.4.2.8.5,1.3.6,1.6.9,3.2.9,5.5v43.5c0,3.6,0,6.9-1.3,10.2-.4.8-.5,1.4-.3,1.8.3.5.9.6,1.6.6h11.6c.8,0,1.3,0,1.5-.5.2-.4.2-.9,0-1.9v-.2l-.3-.9c-1.2-2.3-1.3-4.9-1.2-7.1v-12.6c0-1.7.2-1.9,1.7-1.9h2.7c1.7,0,2.9.9,3.4,2.8.7,2.7,1.5,5.3,2.2,7.8l2.1,7.2c.5,1.7.9,3.3.2,5.2-.3.6-.3,1.1-.2,1.5.2.4.7.6,1.4.6h13.7c.5,0,1.2,0,1.4-.6.2-.5,0-1-.4-1.9M219,139.8c-.5,0-.9-.2-1.1-.5s-.3-.7-.3-1.4v-8.9c0-1.6.2-1.8,1.6-1.8h8.5c.8,0,1.2.5,1.2,1.4v9.8c0,.9-.4,1.4-1.2,1.4h-8.8.1Z"/>
  <path class="st0" d="M195.7,183.8c-.6,0-1.4.5-2.9,2h-.1c-.3.4-.6.8-.9,1.1-.1.2-.3.3-.4.5l-.2.3c-.3.4-.7.8-1,1.1l-.4.4-.6.6-.5.5h-.1c-.1,0-.2,0-.3,0-.1,0-.3-.2-.4-.3-.1,0-.3-.2-.4-.2-.4-.2-.8-.4-1.1-.7h-.1c-1.2-.9-2.4-1.7-3.2-1-.2.2-.3.5-.4.7h0c0,.4-.3.6-.4.8-.2.3-.4.7-.7,1.1-.5.7-.9,1.5-1.3,2.2-.2.5-.5.9-.8,1.4l-.2.4c-.3.5-.7,1.2-.8,1.3-.2.3-.4.6-.5.9-.6,1.1-2.1,4.1-2.1,5.1s.2.6.4.7c.2.2.5.2.6.3s.3.2.5.2h0c.3,0,.8-.2,1.3-.8.2-.2.4-.4.6-.7l.5-.5c.8-1,1.8-2,3-3.2.4-.3.7-.7,1-1l.5-.5h0c0,0,.2.2.4.2.3.2.7.4,1,.6.4.3.9.5,1.4.8.2,0,.4.2.5.3.2,0,.3.2.5.3.3.2,1.2.7,1.9-.4.2-.4.4-.8.6-1.2.2-.5.4-.9.7-1.2.7-.8,1.2-1.7,1.6-2.6.2-.3.3-.6.5-.9l.3-.5c.4-.7.8-1.4,1.2-2,.1-.2.3-.4.4-.6.2-.3.4-.7.6-1,.3-.4.5-.8.6-1.2,0,0,.1-.3.2-.4,0,0,0,0,.1-.2.2-.3.5-.7.4-1.3-.1-.8-.7-1.3-1.5-1.4"/>
  <path class="st0" d="M112.2,197.7c.2,0,.4-.2.5-.3.5-.3.9-.5,1.4-.8.3-.2.6-.4,1-.6,0,0,.2,0,.4-.2h0c0,.2.3.3.5.5.3.3.6.7,1,1,1.3,1.2,2.3,2.2,3,3.2.2.2.3.4.5.5.2.2.4.4.6.7.5.7,1,.8,1.3.8s0,0,0,0c.2,0,.3,0,.5-.2.2,0,.4,0,.6-.3,0,0,.3-.3.4-.7,0-1-1.5-4-2.1-5.1,0-.3-.3-.6-.5-.9,0,0-.5-.8-.8-1.3,0,0-.2-.3-.2-.4-.3-.5-.5-.9-.8-1.4-.4-.7-.8-1.5-1.3-2.2-.3-.4-.5-.8-.7-1.1,0-.2-.3-.5-.4-.7h0v-.2c0-.2-.2-.5-.4-.7-.8-.7-2,0-3.2.9h0c-.4.3-.7.5-1.1.8,0,0-.3,0-.4.2,0,0-.3.2-.4.3,0,0-.2,0-.3.2h0c-.2-.3-.3-.4-.5-.6l-.6-.6-.4-.4c-.3-.4-.7-.8-1-1.1l-.2-.3c0-.2-.3-.3-.4-.5-.3-.4-.6-.7-.9-1h0c-1.5-1.6-2.3-2.1-2.9-2.1s-1.4.6-1.5,1.4c0,.6.2,1,.4,1.3v.2c0,0,.2.3.3.4.2.4.3.8.6,1.2.2.3.4.6.6,1,0,.2.3.4.4.6.4.6.8,1.3,1.2,2l.3.5c.2.3.3.6.5.9.5.9,1,1.9,1.6,2.6.3.3.5.8.7,1.2l.6,1.2c.7,1.1,1.6.6,1.9.4.2,0,.3-.2.5-.3"/>
  <path class="st0" d="M131,183.6h0"/>
  <path class="st0" d="M167.7,186.8c0-2.9,3.5-5.7,4.9-7.9,1.6-2.5,4.3-4.5,6.7-6.4.9-.7,8.3-4.5,8-5,.1-.8-1.7-2.3-2.4-2.4-1.1-.2-2.5,1.4-3.5,1.8-1.9.8-3.4,1.6-5.1,2.8-1.9,1.5-3.7,3-5.5,4.7-.8.7-1.5,1.4-2.2,2.2-.7.8-1,1.7-1.6,2.7-1,1.7-2.6,3.2-3.4,5-.2.4-.3,1.6-.7,1.8-.5.2-1.3-.5-1.7-.8-1.5-1.1-2-2.7-2.1-4.5.2,1.3,1.2,3.7,1,.8,0-.6,0-1.2-.2-1.8,0,0-.3-.4-.3-.4,0-.3.5-1.1.7-1.4,0,.5,1.2-.7,1.2-.8.5-.7.5-1.6.9-2.3.2-.3,1.1-1.2.7-1.6-.5-.6-1,1.1-1.4,1.3.3-.6.5-1.3.8-1.9.6.4,1,0,1.3-.7.7-1,.6-2.1.9-3.3.2-1.1.8-2.1.9-3.2,0-.6-.6-2.7-.4-2.8,0,.3,0,.5.2.7.6.3.3-1.5.2-1.6-.2-1.2-.4-2.4-.8-3.5-.9-2.2-2.6-4.4-5-5.2-4.4-1.4-8.6,2.2-9.9,6.3-1.6,5,.6,9.4,2.5,14,1,2.4,2.9,5.4,3,8.1,0,2.1-1.4,5-3.8,4.9-3.5,0-8.2.9-9.5-3.6-.8-2.8,1.5-4.2,1.9-6.6.4-2.3,1.7-4.4,2.4-6.7,1.3-4.4,2.4-10-.9-13.9-3.2-3.8-8.6-3.1-11.4.8-3.6,4.9-1.6,11,.2,16.2.5,1.5,1.1,2.9,1.7,4.3.6,1.2,1.6,2.4,2,3.7.6,2-1.2,5.1-3.2,5.6,0-1.1-.9-2.1-1.3-3-.6-1.4-1.2-2.5-2.1-3.7-1.5-2.1-3-4.1-4.8-6-.8-.9-1.6-1.7-2.6-2.4-1-.7-2.2-1.1-3.2-1.9-1.7-1.3-3.1-2.3-5.2-3-.8-.2-1.7-1.2-2.4-1.3-.9,0-1.7,1.1-2.2,1.7-.8.9-.8,1.1.3,1.6,1.2.6,2.3,1.3,3.5,1.9,2.3,1.2,4.5,2.7,6.4,4.4.8.7,1.8,1.5,2.5,2.3.3.3,1.2,2,1.7,1.1.2.3,0,.5,0,.6.3.4.5.7.9,1,.8.8,1.4,1.4,1.9,2.5.3.5.6,1,.8,1.5h0c0,0,0,.2.2.3.3.6,1,1.5,1.3,2.3-.7,0-2.7-.4-3.3.2-.3.3-.4,2.1-.2,2.4.7,1.6,3.7-.5,4.9.9.5.5.6,2.1.8,2.8.4,1.4.5,2.8.8,4.3.2,1.4.5,2.8.8,4.2.2.8.4,2.9,1,3.4.9.8,3.7,1.1,3.7-.4s-.6-2.4-.8-3.4c-.3-1.3-.6-2.7-.8-4-.2-1.4-.6-2.7-.9-4.1-.2-.6-1-2.3-.9-2.9,0-.9,1.1-1.1,1.8-1.6,1.1-.8,1.8-1.9,2.3-3.1,1.2,4,5.6,4.4,9.1,4.4s7.1-.6,8.5-4.3c.6,1.4,1.6,2.6,2.9,3.3,1.1.7,1.4.8,1,2.1-.9,2.9-1.4,5.7-2,8.7-.3,1.3-.5,2.7-1,3.9-.4,1.1-.8,1.6.5,1.9.5.1,2.5.5,2.9.1.7-.5.6-2.2.8-3,.3.5.7-1.3.7-1.6.2-.8.2-1.7.3-2.6,0,.9.5,1.6.7.3.2-.9-.7-1.1-.5-1.9.6.3.8-.3,1-.8,0,0,0-.4,0-.5,0-.2.4-.3.5-.5.3-.9.2-1.9.4-2.7.2-.7.3-2,.7-2.5.3-.3.2,0,.6-.2.3,0,.7,0,1,0,.6,0,0-.3.6-.3s.4.4.9,0c.3-.3.4-.6.3-1,0-1.5-1.4-1.2-2.5-1.2M164.9,166.4c0,.2,0,.3,0,.5s0,.9-.4,1c0-.3.2-1.3.5-1.4M163.8,169.7c0,.4-.2.9-.3,1.2,0,0,.3-1.1.3-1.2M139,175.1l1.3,2.4c0,.3,0,.3,0,.7-1.3-4.6-4-8.6-4.8-13.5-.4-2.6.2-5.6,2.1-7.6.6-.6,1.2-.8,2.1-.9.4,0,1.6,0,.8-.7.3,0,.6,0,.9.2-.4.4.7.8,1.5,1-.5,0,0,1.5.7,1,0,.2-.2,1.1.3.8-.2.8.8,2.1,1,2.9.5,2.4-.4,4.2-.9,6.5-.4,2-.9,4.4-1.8,6.3-.4.7-2.1,2.4-1.8,3.3M157.8,178.1c-1.3-4.6-4-8.6-4.8-13.5-.4-2.6.2-5.6,2.1-7.6.6-.6,1.2-.8,2.1-.9.4,0,1.6,0,.8-.7.3,0,.6,0,.9.2-.4.4.7.8,1.5,1-.5,0,0,1.5.7,1,0,.2-.2,1.1.3.8-.2.8.8,2.1,1,2.9.5,2.4-.4,4.2-.9,6.5-.4,2-.9,4.4-1.8,6.3-.4.7-2.1,2.4-1.8,3.3,0,.3,0,.3,0,.7M164.4,194.8c0-.2,0-.4,0-.6.4.2,0,.4,0,.6M164.9,192.8v.3c0,0,0,0,0-.3"/>
  <path class="st0" d="M122.7,84.4c.2,1.3.4,2.5.6,3.8.3,1.9.4,1.9.7,3.7.3,1.9,0,1.9.3,3.8s.3,1.9.6,3.8c0,.3,0,.5-.3.6-1,.5-.9.7-1.9,1.2-.3.1-.8,0-1-.3-.5-.7-1.1-1.3-1.7-2-.4-.4-1-.1-.9.4.2,1.3,0,1.3.3,2.6,0,.3,0,.7-.4.9-1,.5-1.1.3-2.1.8-.3.1-.6.2-.8,0-1.3-1.4-1.4-1.3-2.7-2.7-1.2-1.5-.9-1.7-2.2-3.2-.9-.9-1.7-1.9-2.6-2.8-1.3-1.4-1.3-1.3-2.6-2.8-.3-.4-.2-.9.3-1.1.7-.3.7-.5,1.4-.8.5-.2.9,0,1.3.4.9,1,1.7,2,2.6,2.9,1.3,1.5,1.3,1.4,2.6,2.9.4.4,1.2,0,1.1-.5-.2-1.4-.5-1.3-.7-2.7,0-.3-.2-.5-.4-.7-1.3-1.5-1.2-1.5-2.5-3-.3-.4-.2-1.2.3-1.4,1.9-.9,2-.8,3.9-1.7.5-.2.9.2,1,.7.2,1.3.4,2.6.6,3.9,0,.3.3.6.5.9.9,1.1.9,1,1.9,2.1.4.4,1.2,0,1.1-.5-.3-1.9-.4-1.9-.7-3.8-.2-1.3-.4-2.5-.6-3.8,0-.5,0-1.1.5-1.3.7-.3.9,0,1.6-.4.4-.2,1.1-.1,1.2.4"/>
  <path class="st0" d="M139.3,93.5c.2.9,0,.9.3,1.7,0,.4,0,.6-.5.7-1.1.3-2.3.5-3.5.8-1.7.4-1.7.6-3.4.9-.4,0-.8-.2-.9-.6-.4-1.8-.6-1.8-1-3.6-.3-1.2-.5-2.4-.8-3.6-.4-1.8,0-1.9-.4-3.7s-.5-1.8-.9-3.6c0-.4,0-.8.6-.9,1.1-.3,2.3-.5,3.5-.8,1.8-.4,1.8-.3,3.5-.6.4,0,.7,0,.8.5.2.9,0,.9.3,1.7,0,.4,0,.7-.4.8-1.7.4-1.7.6-3.4,1-.6.1-1,.5-.9,1.1,0,.5.2.5.3,1,0,.6.6.8,1.2.7,1.1-.2,1.1,0,2.2-.2.4,0,.9,0,.9.5.2.8,0,.9,0,1.8,0,.4,0,.8-.4.9-.7.1-1.5.3-2.2.4-.6.1-1.1.8-1,1.4,0,.5.2.5.3,1,0,.6.8.9,1.4.8,1.1-.3,2.3-.5,3.4-.8.4,0,.8.3.9.7"/>
  <path class="st0" d="M160.4,95.5c-.8,0-.8.1-1.6,0-.5,0-.9-.5-1-1-.2-.9-.3-.8-.5-1.7,0-.5-.3-.8-.8-.8-1.1,0-1.1-.2-2.2-.3-.5,0-1,.3-1.1.8-.3.8-.4.8-.6,1.6-.2.4-.5.7-1,.7-.8,0-.8.1-1.6,0-.5,0-.7-.6-.5-1.1.6-1.8.5-1.8,1.1-3.6.6-1.8.4-1.8,1-3.6s.7-1.7,1.3-3.5c.6-1.8.7-1.8,1.3-3.5.2-.5.6-.8,1.1-.8.9,0,.9.2,1.8.2s.9.3,1,.8c.4,1.8.3,1.9.6,3.7.4,1.8.7,1.8,1.1,3.6.3,1.2.5,2.4.8,3.7.4,1.8,0,1.9.5,3.7,0,.5-.2.9-.7.9M156.5,88.9c-.3-1.4,0-1.4-.3-2.8,0-.3-.7-.3-.8,0-.5,1.3-.3,1.4-.7,2.7-.5,1.4,1.9.8,1.8.1"/>
  <path class="st0" d="M176.4,98.8c0,.4-.5.8-.9.6-1.3-.5-2.7-1.6-3.1-3.5,0-.7,0-1.4.2-2.1,0-.5-.5-1-1-1.1-.2,0-.5-.2-.8-.3-.6-.2-1.2,0-1.4.7-.5,1.7-.2,1.8-.7,3.4,0,.4-.8.6-1.2.5-.8-.3-.9-.1-1.7-.3s-.6-.7-.5-1.1c.5-1.8.6-1.8,1.1-3.6.5-1.8.6-1.8,1.1-3.6.5-1.8.4-1.9.9-3.7s.6-1.8,1.1-3.6c0-.4.5-.5,1-.4,2.3.7,2.4.5,4.8,1.2,2.6.8,4.5,4,3.8,6.6-.5,1.9-2.2,2.7-3,4.4-.5,1.2-.7,2.7.6,3.3.3.1.3.6.2.9-.3.9-.2.9-.5,1.8M175,85.7c-.8-.7-2.8-2-3.3-.2-.3,1.1-.2,1.1-.6,2.3-.2.6,0,1.1.7,1.3s.6.3,1.2.5c1.1.3,2-.6,2.5-1.5.4-.9.2-1.7-.5-2.4"/>
  <path class="st0" d="M188.5,102.7c-.4.8-.5.8-.9,1.5-.2.4-.5.4-.9.2-1.1-.5-2.1-1.1-3.2-1.6-1.6-.8-1.7-.7-3.2-1.5-.4-.2-.5-.7-.3-1.1.9-1.6.7-1.7,1.6-3.4.6-1.1,1.2-2.2,1.7-3.3.9-1.6,1.2-1.5,2-3.1.9-1.6.7-1.7,1.6-3.3.2-.4.6-.5,1-.3,1.1.5,2.1,1.1,3.2,1.6,1.6.8,1.5,1,3.1,1.8.4.2.5.6.3.9-.4.8-.5.7-.9,1.5s-.5.5-.8.3c-1.5-.8-1.7-.6-3.2-1.4-.5-.3-1.1-.3-1.4.3-.1.3-.3.6-.4.9-.3.5,0,1,.5,1.3,1,.5.9.7,1.9,1.2.4.2.6.6.4,1-.4.8-.6.7-1,1.4-.2.4-.5.6-.9.4-1-.5-1-.6-1.9-1.1-.5-.3-1.4-.1-1.7.4-.2.5-.1.5-.4,1s0,1.2.5,1.5c1.1.5,2.1,1.1,3.1,1.6.4.2.4.7.2,1.1"/>
</svg>