<?xml version="1.0" encoding="UTF-8"?>
<svg id="Layer_1" xmlns="http://www.w3.org/2000/svg" version="1.1" viewBox="0 0 293.3 314">
  <!-- Generator: Adobe Illustrator 29.1.0, SVG Export Plug-In . SVG Version: 2.1.0 Build 142)  -->
  <defs>
    <style>
      .st0 {
        fill: #fff;
      }
    </style>
  </defs>
  <g>
    <path class="st0" d="M204.9,53.5l.7,1.3c0,.2.3.3.5.3h0c.1,0,.3,0,.4,0h.9c.2,0,.4-.2.5-.3l1.1-2.1,1.7-1.9,1.1-2.1,1.3-2.1,1.2-2.1,1.1-2.2.9-2.2,1.2-2,1.7-1.8h0c0,0,1.1-2.2,1.1-2.2l1.2-2.1c0,0,.1-.3,0-.5l-.6-1.7c0-.2-.3-.4-.5-.4s-.4,0-.5.2h-1.5c-.3,0-.5.2-.5.4l-.7,2.3-1.6,1.9-1.2,2.2-.8,2.2-1.3,2.1-1,2.1-1.6,1.9s0,0-.1.2l-.7,2.3-2.3,4.1-1.6,1.9c-.1.2-.2.4,0,.6"/>
    <path class="st0" d="M193.9,75.1c.1,0,.3.2.4.2h.2l1.1-.5s.2,0,.2-.2l1.4-2,1-2.1,2.6-4,1-2.1,3.7-6.1c0,0,.1-.3,0-.5l-.4-1.3c0-.2-.3-.4-.5-.4h-.3l-1.2.3c-.2,0-.3,0-.4.3l-3.7,6.1-1,2.1-2.2,4.1-1.3,2-1.1,2.1v.4l.2,1c0,.2,0,.4.1.5"/>
    <path class="st0" d="M221.9,61.4v1.3l-.9,2.3s0,.2-.1.2l-1.8,1.6-1.2,1.9h-.1c0,0-1.7,1.6-1.7,1.6l-1,2.1c0,0-.1.2-.2.2l-1.9,1.3-.9,2.1h0c0,0-1.5,1.9-1.5,1.9l-1.5,1.8-1.6,1.8-1.5,1.8-1.3,1.2c-.5-.7-1-1.3-1.6-1.9l.9-.8,1-2.1,1.5-2,3-3.7,1.6-1.7,1.1-2.1,1.6-1.9,1.2-1.9,3.4-3.4.8-2.2c0-.2.3-.4.6-.4l1.6.2h.3c.2,0,.4.3.4.5"/>
    <path class="st0" d="M222.5,59.2c0,.3.3.5.6.5s0,0,0,0h1.3c.2,0,.3,0,.4-.3l2.3-2.8c.1,0,.2-.3.1-.5l-.4-1.3c0-.2-.3-.4-.5-.4h-1.5c-.2,0-.4,0-.5.2l-2.2,2.9c0,0-.1.3,0,.5l.3,1.3h.1,0Z"/>
    <path class="st0" d="M218.7,84.8l-1.8,1.6-1.5,1.7-1.7,1.6c-.1,0-.2.3-.2.5l.2,1.1c0,.2.2.3.4.4h.2l1,.3h.2c.1,0,.3,0,.4,0l1.9-1.6,2.8-3.5,2-1.1s.1,0,.2-.2l1.3-1.8,1.8-1.6,1.4-1.7,1.9-1.5,1.4-1.8,1.7-1.6,1.6-1.6,1.7-1.5,1.9-1.4,1.9-1.6,3-3.5,1.5-1.6,2.1-1.1c.2,0,.3-.3.3-.6l-.2-2c0-.2-.2-.4-.4-.5-.2,0-.4,0-.6,0l-.2.2h-.8c-.1,0-.2,0-.3,0l-1.9,1.5-1.5,1.7-2,1.1s-.1,0-.1,0l-1.5,1.6-1.8,1.5-.2.2-1,2.2-1.4,1.5-1.9,1.3-2,1.3-.2.2-1.2,1.9-1.8,1.3h-.1c0,0-1.4,1.9-1.4,1.9l-1.6,1.7-1.4,1.8-2,1.2v.3h0Z"/>
    <path class="st0" d="M208.7,97.5l-.2,1.2c0,0,0,.3-.2.4l-1.6,1.4-1.4,1.5h-1.8c.3-.4.6-.9.9-1.4.3-.4.6-.9,1-1.7.2-.3.3-.6.5-.9l.8-.8s.2,0,.3-.2l1.2-.2c.2,0,.4,0,.5.2.1,0,.2.3.2.5"/>
    <path class="st0" d="M245.8,82.1l-1.6,1.6-1.9,1.3-2.1,1s-.1,0-.2,0l-1.5,1.7-1.8,1.4-2,1.2c-.2,0-.3.3-.3.5v.8c-.1,0-.2.4-.2.6s.2.4.4.4l1.4.3h.1c.1,0,.3,0,.4,0l1.9-1.4,1.7-1.4,2.1-1.2,2-1.4,1.5-1.7,2-1.1h.1c0,0,1.6-1.7,1.6-1.7l1.8-1.3,2.1-1.1h.1l1.6-1.6,4-2.5c.2,0,.3-.3.3-.5v-1.5c0-.2-.2-.4-.4-.4l-1.3-.3c-.2,0-.3,0-.5,0l-1.8,1.4-1.9,1.3-3.8,2.8-1.7,1.5-2,1.1h-.1"/>
    <path class="st0" d="M234.1,94.6c.2,0,.3-.3.3-.4v-1.3c.1-.2,0-.4-.2-.5h-.3l-1-.2h-.5l-2,1.4-1.7,1.5-1.9,1.3-3.8,2.8c-.1,0-.2.2-.2.3l-.2,1.1v.4c0,.2.3.4.5.4s0,0,0,0h1.2c.1,0,.2,0,.3,0l2-1.3,5.7-4.2,2-1.3h-.2Z"/>
    <path class="st0" d="M265.7,69.8h.5l1.1.5h.2c.1,0,.2,0,.3,0l1.9-1.4,1.7-1.5,2.1-1.2,1.8-1.4,1.8-1.4,1.9-1.3c.2,0,.3-.3.2-.5v-1.7c0-.2-.2-.4-.4-.5l-1.5-.5h-.5l-1.9,1.4-1.8,1.4-2,1.3-1.6,1.5-2.1,1.2-1.7,1.6c-.1,0-.2.2-.2.4v1.5c0,.2,0,.4.2.5"/>
    <path class="st0" d="M254,97.1c-.1,0-.2.2-.3.3l-.6,1.3c0,.2,0,.5.2.6.1,0,.2,0,.4,0l1.3.3h.4l9.4-5c.1,0,.2-.2.3-.4l.3-1.2c0,0,.1-.3.1-.4,0-.2-.2-.4-.4-.5l-1.5-.4h-.5l-6.1,3.6-3.2,1.6h.2Z"/>
    <path class="st0" d="M252.2,100c0,.2,0,.5-.3.6h0l-.2,1c0,.2-.2.3-.3.4l-2.8,1.3-2.7,1.4-2,1.3c-.8-.7-1.6-1.3-2.5-1.8l.6-.3,2.7-1.5,2.6-1.6,2.9-1.3h1.6c.3,0,.5.3.5.6"/>
    <path class="st0" d="M275.7,97.8l-2.3,1-1.9,1.3-2.3.9-2.1,1.1-2.4.6s-.1,0-.2,0l-1.8,1.5-4.4,2-2.4.6c-.2,0-.4.2-.4.5l-.2,1.4c0,.2,0,.4.2.5.1,0,.3,0,.4,0l.8.5h.6l2.1-1.1,2.5-.6,2.2-1,2.3-.9,2.2-1,2.2-1.2,2-1.2,2.1-.9,2.5-.5h.2l2.1-1.1,2.2-.9c.2,0,.3-.2.3-.4l.5-1.8c0-.2,0-.4-.2-.6-.2,0-.4-.2-.6,0l-1.3-.9c-.2,0-.5,0-.7,0l-1.9,1.4-2.4.6h0Z"/>
    <path class="st0" d="M254.1,110.1l-.4,1.3c0,.2-.2.3-.3.4l-3.3,1.3c-.6-.8-1.2-1.7-2-2.5l4-1.7h.5l1.1.5h.2c.2,0,.3.4.3.7"/>
    <path class="st0" d="M264.5,123.7l-.7.9h-.1c0,.1-2.1,1.5-2.1,1.5h-.3l-2.4.3-2.1.8h-.1l-2.3.2-1.3.7v-3.3h.5c0-.1,2.1-1,2.1-1l4.7-.8,2-1.3c.2,0,.5,0,.7,0l1.2,1s.2.1.2.2v.6"/>
    <path class="st0" d="M267.7,123.8h.5l3.5-1c.2,0,.3-.2.4-.3l.5-1.3c0-.2,0-.4-.1-.6,0,0-.1,0-.2,0l-1-.8c-.1,0-.3,0-.5,0l-3.5,1.1c-.2,0-.3.2-.3.3l-.5,1.2c-.1.3,0,.6.2.7l1.1.7h-.1Z"/>
    <path class="st0" d="M284.5,137.4l-1,1.8c-.1.2-.4.3-.6.3l-2.3-.4-2.2.4-4.5,1.1-2.4.2h-2.4l-2.3.2-2.3.4-2.3.3-2.2.6h-2.5c0,.1-2.2.6-2.2.6l-2.2.2v-2.9l1.7-.4,2.2-.6h2.3l2.1-.9h2.6c0,.1,2.3.2,2.3.2l2.1-.4,2.1-1.2h.2l2.3-.2,2.2-.4h.2l2.3.3,2.2-.5h2.5c.1-.1.2,0,.3,0l.7.5h.2c.2,0,.4,0,.6.2.1.2.1.4,0,.6"/>
    <path class="st0" d="M281.1,154.3h-4.8l-2.3.4-2.3-.3h-.2l-2.2.4h-2.3l-2.4-.4h-.2l-2.3.5h-2.3c0,.1-2.3,0-2.3,0-.2,0-.4,0-.5.3l-.4.6h0c-.2,0-.4.1-.5.3v.6l.9,1.1c.1.1.3.2.5.2h2.4l2.2-.2,2.4.3h2.5l2.2-.5,2.2.3h.2l2.3-.4h2.3l2.4.3h.2l2.2-.3,4.7.3c.2,0,.4,0,.5-.3l.7-1s.2-.1.2-.2v-.6l-.9-1c-.1-.1-.3-.2-.5-.2h-4.7v-.2h0Z"/>
    <path class="st0" d="M256.1,156.5l-.8,1c-.1.1-.3.2-.4.2h0l-2.4-.2h-2l-.2-.6c.4-.7.8-1.4,1.2-2.2h1c0-.1,2.4,0,2.4,0,.1,0,.3,0,.4.2l.7.8c.1,0,.2.1.2.2,0,.2.1.5,0,.6"/>
    <path class="st0" d="M280.1,172.4l-7.1-.6-3.5-.5h-.4l-1.2.8c-.2.1-.3.4-.2.6,0,.1.1.2.2.3l.9,1c0,.1.2.2.4.2l10.6,1.4h0c.1,0,.3,0,.4-.1l1-.8c.1,0,.2-.1.3-.3.1-.2.1-.5,0-.6l-.9-1.2c0-.1-.2-.2-.4-.2"/>
  </g>
  <g>
    <path class="st0" d="M266.3,172.5c-.1.2-.4.4-.6.3l-.8.7c-.1,0-.2.1-.4.1s0,0-.1,0l-3-.6-3-.5h-1.6c0-.2-.1-.4-.2-.5-.3-.6-.6-1.1-1-1.6-.2-.3-.4-.6-.6-.9h.8c0,.1,3,.4,3,.4l3.1.2,3.1.7s.2,0,.3.1l1,.9c.2.2.2.4.1.7"/>
    <path class="st0" d="M292.3,187.2l-.5-1.4c0-.2-.3-.4-.6-.4h-2.4l-2.3-.9-2.5-.5h-2.4l-2.4-.6-2.3-.4-2.3-.9h-2.6c0,.1-4.7-.9-4.7-.9l-2.3-.9c-.2,0-.5,0-.6.1l-1,1c-.2.2-.2.4-.1.6,0,.1.1.3.3.3l.3.8c0,.2.2.3.5.4l2.4.4,2.3,1,2.4.4,2.4.6,2.4.5,2.5.3,2.4.2,2.3.5,2.3,1.1h.2l2.4.4,2.4.5h.1c.1,0,.2,0,.3-.1l1.5-1.1c.2-.1.3-.4.2-.6,0-.2-.2-.4-.4-.4"/>
  </g>
  <g>
    <path class="st0" d="M261.8,181.7l-1.1.8c-.1,0-.2.1-.4.1s0,0-.1,0l-2-.5c.2-1,.3-2,.2-3.1l2.5.6c.2,0,.3.1.4.3l.6,1s0,.1.1.2c0,.2,0,.5-.2.6"/>
    <path class="st0" d="M262.5,198.4c0,.2-.2.4-.4.4l-1.1.3h-2.7c0-.1-.2-.1-.3-.2l-2.1-1.2-2.2-.6h-.1l-2-1.2-2.3-.3c-.1,0-.2,0-.3-.1l-1.8-1.4s1.3-1,3.1-1.9h0l2.3,1,2.2.6,4.3,2.2h2.4c.2.1.5.3.5.6l.3,1.6v.3"/>
    <path class="st0" d="M265.1,201.1l3.4,1.3h.5l1.2-.7c.2-.1.3-.3.3-.6v-.2l-.4-1.2c0-.2-.2-.3-.4-.4l-3.5-1.2h-.5l-1.1.7c-.2.1-.3.4-.3.7l.5,1.3c0,.2.2.3.3.3"/>
    <path class="st0" d="M270.5,221c0,.2-.1.4-.3.5l-1.8.8h-.2c-.1,0-.3,0-.4-.2l-1.7-1.6-2-1-4.3-1.7-2.1-1.3-2-1.3-2-1.2-2-1-2.1-1.1-2.1-.8-2.1-1.4-2.1-.8-1.1-.6c-.1-1.2-.4-2.4-.9-3.5l1.2.4,2.2,1,2.2.8h.1l1.8,1.3,2.2.5s.2,0,.2.1l1.8,1.5,1.9,1.4,1.9.9,2.4.2h.2l2,1.2,2.1,1s.1,0,.1.1l1.7,1.6,2.1.9,2,1.4c.1,0,.2.2.2.3l.3.7h.2c.2.2.3.4.3.6"/>
    <path class="st0" d="M261.7,237.6c0,.2,0,.4-.3.5h-.3l-1.2.4h-.2c-.1,0-.3,0-.4-.1l-1.8-1.5-1.8-1.5-2-1h-.1c0-.1-1.7-1.8-1.7-1.8l-1.8-1.3-2.1-1s-.1,0-.1-.1l-1.6-1.6-2.1-.9-2-1.5-1.8-1.6-1.9-1.2-2-1.3c-.1-.1-.2-.3-.3-.4v-.2c.2-.2.5-.4.7-.5.5-.4,1-.8,1.5-1.3l1.7,1.5,1.9,1.2,2.1.9s.1,0,.2.1l1.7,1.7,1.8,1.4,2,1h.1l1.7,1.6,2,1.1,3.9,2.7,1.9,1.4,1.9,1.3c.1.1.2.3.2.4v1.3l.2.3h0Z"/>
    <path class="st0" d="M281.6,249.8l-1.9-1.3-1.9-1.2-1.9-1.5-1.9-1.1-1.9-1.6-2-1.1h-.4l-1.4.4c-.2,0-.4.2-.4.5s0,.3.1.5v1.2c-.1.2,0,.4.1.5l1.9,1.3,1.9,1.1,1.8,1.6,1.9,1.2,1.9,1.3,1.9,1.4c.1,0,.2.1.3.1h.2l1.2-.5h.4c.2-.1.3-.3.3-.5v-1.6c0-.2-.1-.4-.3-.5"/>
    <path class="st0" d="M235.6,240.6v1.3c.1.1.2.3.3.4l7.7,7.3c.1.1.3.2.4.2s0,0,0,0h1.7c.2,0,.3-.3.3-.5v-1.5c0-.2-.1-.3-.2-.4l-5.4-4.6-2.6-2.5s-.2-.2-.4-.2h-1.5c-.2-.1-.4,0-.5.3v.4"/>
    <path class="st0" d="M234.9,238.6c0,.2,0,.5-.2.6h-.3s-.3,0-.4-.1h-1c-.2,0-.4,0-.5-.2l-2.1-2.3-2.2-2.2-2.4-1.9-1.3-1.1c.9-.4,1.8-.8,2.6-1.4l.5.5,2.3,2,2.4,1.9,2.1,2.4v.2c.1,0,.4,1.3.4,1.3v.3h0Z"/>
    <path class="st0" d="M247.3,264.2l-2-1.4-1.3-2.1-1.7-1.8-1.9-1.4-1.6-1.9-1.7-1.6-1.4-2.1s0-.1-.2-.2l-2-1.3-3.2-3.5-1.3-2.1c-.1-.2-.4-.3-.6-.3l-1.4.2c-.2,0-.4.2-.5.4v.4l-.2.9c0,.2,0,.4.1.6l1.7,1.7,1.3,2.2,1.7,1.7,1.6,1.9,1.7,1.8,1.8,1.7,1.8,1.5,1.5,1.7,1.2,2.2h0c0,.1,1.7,1.8,1.7,1.8l1.6,1.8c.1.1.3.2.4.2h1.9c.2,0,.4-.2.5-.4v-.6l.5-1.5c0-.2,0-.5-.2-.6"/>
    <path class="st0" d="M226.1,242.3v1.1s0,.2-.1.3c0,.3-.3.4-.6.5h-1.3c-.2,0-.3,0-.4-.2l-4.7-5.4-1.7-1.6-.2-.2c.9-.6,1.7-1.2,2.4-1.9h0l1.7,1.6,4.7,5.4c.1.1.2.3.1.4"/>
    <path class="st0" d="M217,256.3l-.6,1.4c0,.1,0,.2-.1.3-.1.1-.3.2-.4.2h-.2l-1-.4h-.2l-2-1.6-.2-.2-1-2.2-1.4-1.7h0c0-.1-.9-2.2-.9-2.2l-1.7-1.6v-.2c-.1,0-.8-2.2-.8-2.2l-1.7-1.5h-.1c0-.1-.2-.5-.2-.5,1.1-.2,2.2-.5,3.2-.9l.9,1.6,1.6,1.7,1.3,2.2,1.5,1.8,2.2,4.2,1.8,1.5c.2.2.3.4.2.7"/>
    <path class="st0" d="M219.3,259.8c0-.1-.2-.2-.4-.2h-1.3c-.3-.1-.5,0-.6.3l-.4,1.3v.5l2,3c.1.2.3.3.5.3h1.4c.2,0,.4-.1.5-.3v-.2l.4-1.2v-.5l-2.2-3h.1Z"/>
    <path class="st0" d="M209.3,280.3c.1.2,0,.4,0,.6-.1,0-.3.2-.5.2s0,0-.1,0l-2-.4c-.2,0-.4-.2-.5-.5l-.4-2.3-1-2-2.5-3.9-.9-2.2-.8-2.2-.9-2.1-1.1-2-1-2.1-1.3-1.9-.9-2.3-1.2-1.9-1-2.2-1.3-1.8s0-.1-.1-.2l-.5-2.2h0c.8-.2,1.7-.4,2.5-.7h.2l.4,1.8,1.3,1.8,1.2,2.1,1.3,1.9h0c0,.1.7,2.2.7,2.2l1.5,1.7s.1.1.1.2l.6,2.3.7,2.2,1,1.8,1.8,1.6s.1.1.1.2l.9,2.1,1.1,2v.2l.4,2.3,1.2,1.9.8,2.3v.4l-.2.8v.2h.4Z"/>
    <path class="st0" d="M192.1,285.3l-.7-2.2-1.6-4.5-1-2.1-.4-2.2v-.2l-1-2-.7-2.1-.3-2.3v-.2l-1.1-2-.8-2.1-.6-2.3c0-.2-.2-.4-.4-.4l-.8-.2c0-.2-.3-.4-.5-.4s-.4,0-.6.3l-.8,1.2c0,.1-.1.3,0,.5l.8,2.2.9,2,.5,2.4.8,2.4,1.2,1.9.4,2.2v.2l1.1,2,.7,2.1.4,2.3v.2l1,2,1.2,4.5c0,.2.2.4.4.4l1.2.3h.3c.2,0,.4,0,.5-.3l.7-1.1s.1-.3,0-.5l-.8-2.2h0v.2Z"/>
    <path class="st0" d="M182.7,258.9l-.5.7c0,.1,0,.3-.2.4h-.1c0,0,0,.1-.1.1h-.2l-1.2-.5c-.2,0-.3-.2-.3-.4l-.6-2.3-1.6-4.6c1,.2,2,.3,3,.2l.4,1.3.9,2.1.7,2.3v.5"/>
    <path class="st0" d="M200.4,308.4l-.8-2.1-.7-2.3-.9-2-.6-2.4-1-2.1s-.2-.2-.3-.3l-1.4-.5h-.6c-.1,0-.2.3-.2.5l-.8.9c-.1.2-.2.4-.1.6l.8,2.2.9,2,.6,2.3.8,2.1.8,2.2.7,2.2c0,.2.2.3.4.4l1.2.3s.2,0,.3.2h0c.2,0,.4,0,.5-.2l.9-1.3c.1,0,.1-.3,0-.5l-.7-2.2h.2Z"/>
    <path class="st0" d="M172.1,280.8l-.6-3.5s0-.3-.2-.3l-1.1-.9c-.2-.2-.4,0-.7,0s-.2.2-.2.3l-.7,1.1v.4l1.9,10.4c0,.2.1.3.3.4l1.1.7s.2.2.3.2h.1c.2,0,.4,0,.5-.2l.9-1.2s.1-.3,0-.5l-1.6-6.9h0Z"/>
    <path class="st0" d="M170.5,272.8v.3l-.5,1.2c0,.2-.3.4-.5.4s0,0,0,0c-.2,0-.5-.2-.5-.4l-.9-.5c-.1,0-.3-.2-.3-.4l-.4-3-.5-3-.8-2.9-.6-3-.5-3-.4-2.5c.4,0,.9,0,1.4-.1.4,0,.8-.1,1.2-.2l.6,2.3,1.1,6.1.7,3,.7,3,.3,3.1v-.4h-.1Z"/>
    <path class="st0" d="M164.1,299.9l.2-2.4-.3-2.5-.7-2.2-.2-2.5-.4-2.3v-2.4c.1,0,.1-.2,0-.2l-.8-2.2-.5-4.7v-2.5c.1-.2,0-.4-.2-.5l-1.3-.6h-.6c-.1,0-.2.2-.2.3l-.7.6c-.2,0-.3.3-.2.5l.4,2.3-.2,2.5.3,2.4.2,2.4.3,2.4.5,2.4.6,2.3.2,2.3-.3,2.5v.2l.4,2.4.2,2.4c0,.2.1.3.2.4l1.5,1h.6c.2,0,.3-.3.3-.5l1.2-.9c.2,0,.3-.4.2-.7l-.8-2.2h.1Z"/>
    <path class="st0" d="M160.8,271.8c0,.2,0,.3-.1.4l-.8.9-.2.2h-.3s-.2,0-.3-.1l-1.1-.8c-.1-.1-.2-.3-.2-.4l-.6-7.1-.4-2.3-.3-4.8-.5-2.3v-1.2c.9.5,1.9.8,3,1l.2,2.2.6,4.6.5,2.3.6,7.1v.3h0Z"/>
    <path class="st0" d="M145.3,261.2l-.3,2.3.3,2.3-.2,2.5.2,2.3-.7,4.7.6,2.3c0,.2,0,.5-.3.6l-1.3.8h-.4c-.2,0-.4,0-.5-.2l-.6-.9v-.2l-.7-2.4v-.3l.4-2.3v-2.2c-.1,0-.1-.1-.1-.2l.5-2.2-.4-2.3v-.3l.8-2.2-.5-2.2v-.2l.2-2.4v-2.8h.8c.5,0,1,0,1.9.1h.6v.3l-.3,4.8v.2h0Z"/>
    <path class="st0" d="M144.5,282l-1-.9c-.2-.2-.5-.2-.7,0l-1.1.8c-.1,0-.2.3-.2.4l-.2,3.6c0,.2,0,.4.2.5l1.1.9h.9l1-.7c.1,0,.2-.3.2-.5v-3.6c0-.2,0-.3-.2-.4"/>
    <path class="st0" d="M132,254.7v1l-.6,2.3-.9,2.2v2.2l-.3,2.3v2.3c-.1,0-.1.1-.1.2l-.7,2.1.2,2.2v.3l-.8,2.2-.8,2.2-.3,2.1.5,2.3v.3l-.6,2.2-.3,2.2v.2l-1,2.1-.2,2.2-.7,2.3s-.1.2-.2.3l-.7.5v.2c0,.2-.2.4-.4.5h-.2c-.2,0-.3,0-.4-.2l-1.4-1.5c-.2-.2-.2-.4,0-.7l1.1-2.1.3-2.2.3-4.6.6-2.3.7-2.2.5-2.2.3-2.2.5-2.3v-2.2l.8-2.4v-2.2c.1,0,.7-2.3.7-2.3v-2.4l.9-2.1.2-4.5h0c1,.7,2.1,1.2,3.2,1.7"/>
    <path class="st0" d="M114.5,261.6c0-.2,0-.4-.2-.6s-.4-.2-.6-.1l-1.3.5c-.2,0-.3.2-.3.4l-.6,2.3-.5,2.2-1,2.2-.8,2.3-.2,2.3-1,2v.2l-.3,2.2-.7,2.1-1.1,2.1v.2l-.4,2.2-.8,2.2-.9,2.2v.6l.8.9s0,.2.2.3c0,0,.3.2.4.2h.2l1.2-.5c.2,0,.3-.2.3-.4l.6-2.2.8-2.2,1.4-4.5.4-2.2,1-2v-.2l.3-2.2.7-2.1,1.1-2.1v-.2l.2-2.3.6-2.2.9-2.2v-.6l-.5-.6v-.2h.1Z"/>
    <path class="st0" d="M118.5,251.7l-.5,1.6-.8,2.2-.5,2.2-.8,2.3c0,.2-.2.3-.3.4l-.9.4s-.2.1-.3.1h0c-.2,0-.4,0-.5-.2l-.7-1.1c0-.2,0-.4,0-.5l.9-2.2,1.8-5.6c.9.2,1.8.3,2.8.4"/>
    <path class="st0" d="M102.9,297.8c0-.2-.3-.3-.6-.3s-.3,0-.4.3l-1.1.3c-.2,0-.4.2-.4.4l-.7,2.2-.5,2.2-.9,2.2-.6,2.2-.7,2.2-.8,2.2v.6l.8,1s0,.2.2.3c0,0,.3.2.4.2h.2l1.5-.5c.2,0,.3-.2.4-.4l.7-2.2.6-2.2.8-2.2.5-2.1,1-2.2.5-2.3v-.4l-.8-1.2v-.3h0Z"/>
    <path class="st0" d="M94.8,266.5c0,0-.3,0-.4.1l-1.2.5c0,0-.2.2-.3.3l-4.6,9.6v.5l.5,1.2s0,.3.2.4c0,0,.3.2.4.2h.2l1.4-.5c.2,0,.3-.2.3-.3l2.8-6.5,1.6-3.2v-.4l-.3-1.4c0-.2-.3-.4-.5-.4"/>
    <path class="st0" d="M105.9,246.3l-.7,1.5-1.1,2.8-2.7,5.6-1.2,2.8-1.1,2.8-1.6,2.7-.2.2-1.1.7h-.3c0,0-.3,0-.4-.2-.2-.2-.2-.4,0-.7l-.4-.9v-.5l1.5-2.7,1.4-2.7,1.1-2.8,1.3-2.8,1.3-2.8,1.4-2.7,1.1-2.3c0,.1.2.3.3.4.5.6,1,1.1,1.5,1.6"/>
    <path class="st0" d="M88.3,261.2l-.7-1.3c0-.2-.3-.3-.5-.3s-.3,0-.4.1h-.9c-.2,0-.4.2-.5.3l-1.1,2.1-1.7,1.9-1.1,2.1-1.3,2.1-1.2,2.1-1.1,2.2-.9,2.2-1.2,2-1.7,1.8h0l-1.1,2.2-1.2,2.1s0,.3,0,.5l.6,1.7c0,.2.3.4.5.4h0c.2,0,.4,0,.5-.2h1.5c.2,0,.5-.2.5-.4l.7-2.2,1.6-1.9,1.2-2.2.8-2.2,1.3-2.1,1-2.1,1.5-1.9s0-.1,0-.2l.6-2.3,2.4-4.1,1.6-1.9c0-.2.2-.4,0-.6"/>
    <path class="st0" d="M99.5,241.4h0l-1.1,2.1-1.3,2.1-2.2,4.1-1,2.1-3.7,6.1c0,.1-.2.2-.4.3l-1.2.2h-.2c-.2,0-.4-.2-.5-.4l-.4-1.3v-.5l3.7-6.1,1-2.1,2.6-4,1-2.1.5-.8h3.2"/>
    <path class="st0" d="M85.9,238l-2,2.5-1.6,1.7-1.1,2.1-1.7,1.9-1.2,1.9-3.4,3.4-.9,2.2c0,.2-.3.4-.5.4h0l-1.5-.2h-.3c-.2-.1-.4-.3-.4-.5v-1.3l.9-2.3s0-.1,0-.2l1.7-1.7,1.2-1.9h0c0-.1,1.7-1.6,1.7-1.6l1-2.1s0-.2.2-.2l1.9-1.3.9-2.1h0c0-.1,1.5-1.9,1.5-1.9l.6-.7c.8.8,1.6,1.5,2.5,2.1"/>
    <path class="st0" d="M70.7,255.5c0-.3-.3-.5-.6-.5s0,0,0,0h-1.3c-.2,0-.3.1-.4.3l-2.3,2.8c0,.1-.2.3,0,.5l.4,1.3c0,.2.2.4.4.4h1.5c.2,0,.3,0,.5-.2l2.2-2.9c0-.1,0-.3,0-.5l-.3-1.3h0Z"/>
    <path class="st0" d="M77.2,227.1l-.9,1.1-1.8,1.6-2,1.2-1.4,1.7-1.6,1.7-1.4,1.8h0c0,.1-1.8,1.4-1.8,1.4l-1.2,2s0,.1-.2.2l-2,1.3-1.9,1.3-1.5,1.5-1,2.2s0,.1-.2.2l-1.8,1.5-1.5,1.6h0c0,.1-2.1,1.2-2.1,1.2l-1.5,1.7-1.9,1.5c0,0-.2.1-.3.1h-.8l-.2.2c0,.1-.2.2-.4.2h-.2c-.2,0-.4-.3-.4-.5l-.2-2c0-.2,0-.5.3-.6l2.1-1,1.5-1.6,3-3.5,1.9-1.6,1.9-1.4,1.7-1.5,1.6-1.6,1.7-1.6,1.4-1.8,1.9-1.5,1.4-1.7,1.8-1.6,1.3-1.8s0-.1.2-.2l2-1.1.9-1.1c1.2.3,2.5.5,3.8.5"/>
    <path class="st0" d="M47.4,232.5l1.6-1.6,1.9-1.3,2.1-1s0,0,.2-.1l1.5-1.7,1.8-1.4,2-1.2c.2-.1.3-.3.3-.5v-.8c0-.1.2-.4.2-.6s-.2-.4-.4-.4l-1.4-.3c-.2,0-.3,0-.5.1l-1.9,1.5-1.7,1.4-2.1,1.2-2,1.4-1.5,1.7-2,1.1h0c0,.1-1.6,1.7-1.6,1.7l-1.8,1.3-2.1,1.1h0l-1.6,1.6-4,2.5c-.2.1-.3.3-.3.5v1.5c0,.2.2.4.4.4l1.3.3h0c0,0,.3,0,.4-.1l1.8-1.4,1.9-1.3,3.8-2.8,1.7-1.5,2-1.1h0"/>
    <path class="st0" d="M64.3,219.8l-1.5,1.3-2,1.4s-.2.1-.3.1h0l-1-.2h-.3c-.2-.1-.4-.3-.4-.5v-1.3c0-.2.2-.3.4-.4l2-1.2,1.8-1.3c.4.8.8,1.6,1.4,2.4"/>
    <path class="st0" d="M27,244.8l-1.1-.5h-.6l-1.9,1.4-1.7,1.5-2.1,1.2-1.8,1.4-1.8,1.4-1.9,1.3c-.2.1-.3.3-.2.5v1.7c0,.2.2.4.4.5l1.5.5h.2c.1,0,.2,0,.3-.1l1.9-1.4,1.8-1.4,2-1.3,1.6-1.5,2.1-1.2,1.7-1.6c.1-.1.2-.2.2-.4v-1.4c0-.2,0-.4-.2-.5h-.5"/>
    <path class="st0" d="M39.2,217.5c0,0,.2-.2.3-.3l.5-1.3c0-.2,0-.5-.2-.6,0,0-.2-.1-.4-.1l-1.3-.3h-.4l-9.4,5c-.1,0-.2.2-.3.4l-.3,1.2c0,.1-.1.3-.1.4,0,.2.2.4.4.5l1.5.4h.5l6.1-3.6,3.2-1.6h0,0Z"/>
    <path class="st0" d="M68.2,200.6l-.5,1c0,.1,0,.2-.2.3l-2.7,1.5-1.3.7-1.4.7-2.6,1.5-2.6,1.6-5.5,2.9-2.6,1.5-2.6,1.6-2.9,1.3h-1.6c-.2-.1-.5-.3-.5-.6s0-.5.3-.6h0l.2-1c0-.2.2-.3.3-.4l2.8-1.3,2.7-1.4,2.5-1.6,2.7-1.5,2.7-1.4,2.8-1.4,2.7-1.5,5.5-2.8h1.3c.2,0,.3,0,.4.2.2.2.2.4,0,.6"/>
    <path class="st0" d="M17.5,216.9l2.3-1,1.9-1.3,2.3-.9,2.1-1.1,2.4-.6s.1,0,.2-.1l1.8-1.5,4.4-2,2.4-.6c.2,0,.4-.2.4-.5l.2-1.4c0-.2,0-.4-.2-.5,0,0-.3-.1-.4-.1l-.8-.5c-.2-.1-.4-.1-.6,0l-2.1,1.1-2.5.6-2.2,1-2.3.9-2.2,1-2.2,1.2-2,1.2-2.1.9-2.5.5h-.2l-2.1,1.1-2.2.9c-.2,0-.3.2-.3.4l-.5,1.8c0,.2,0,.4.2.6.2.1.4.2.6.1l1.3.9c.1,0,.2.1.3.1s.2,0,.3-.1l1.9-1.4,2.4-.6h0Z"/>
    <path class="st0" d="M39.6,205.3l1.1.5h.4l6.7-2.8,2.1-1.1,4.3-2,2.3-.9,2.1-1.1c0,0,.2-.1.3-.3l.4-.9c.2-.1.2-.3.2-.5,0-.3-.2-.5-.5-.5l-1.2-.2h-.3l-2.4.8-2,1.1-4.5,1.7-2,1.1-6.6,2.7c-.2,0-.3.2-.3.4l-.4,1.3c0,.2,0,.4.2.6h.2"/>
    <path class="st0" d="M48.1,187.5l-1.6.4-2.3.5-2.1,1-2.4.6-2.1.8-4.8.8-2,1.2h-.3c0,0-.3,0-.4-.1l-1.1-1s0,0-.2-.1c-.2-.2-.2-.5,0-.7l.7-.9h0c0-.1,2.1-1.5,2.1-1.5h.2l2.4-.3,2.1-.8h.2l2.3-.2,2.1-1.1h2.6l2-1.1h.2l.9-.2s0,.2,0,.3c0,.3.2.5.4.8.3.7.7,1.3,1.1,1.9"/>
    <path class="st0" d="M25.5,190.9c-.1,0-.3-.1-.5,0l-3.5,1c-.2,0-.3.2-.4.3l-.5,1.3c0,.2,0,.5.1.6h.2c0,.1,1,.8,1,.8,0,0,.2.1.3.1h.2l3.5-1.1c.2,0,.3-.2.3-.3l.5-1.2c.1-.3,0-.6-.2-.7l-1.1-.7h.1Z"/>
    <path class="st0" d="M47.2,170.3v1.8c0,.2-.2.4-.3.7s-.2.6-.4.9h-1.3c0,.1-2.4,0-2.4,0l-2.2.6-2.3.5-2.2.6h-2.4l-2.1.9h-2.7c0-.1-2.4-.2-2.4-.2l-2.1.4-2.1,1.2h-.2l-2.3.2-2.2.4h-.2l-2.3-.3-2.2.5h-2.4c-.1,0-.2,0-.3-.1l-.7-.5h-.2c-.2,0-.4,0-.6-.2-.1-.2-.1-.4,0-.6l1-1.8c.1-.2.3-.3.6-.3l2.3.4,2.2-.4,4.5-1.1,2.4-.2h2.4l2.3-.3,2.2-.4,2.4-.3,2.2-.6h2.5c0-.1,2.2-.7,2.2-.7l2.4-.2,2.1-.7h.2l2.3.2,2.4-.7v.3h0Z"/>
    <path class="st0" d="M12.1,160.3h4.8l2.3-.4,2.3.3h.2l2.2-.4h2.3l2.4.5h.2l2.3-.5h2.3c0-.1,2.4,0,2.4,0,.2,0,.4,0,.5-.3l.4-.6h0c.2,0,.4-.1.5-.3v-.6l-.9-1.1c0-.1-.3-.2-.5-.2h-2.4l-2.2.3-2.4-.3h-2.5l-2.2.5-2.2-.3h-.2l-2.3.4h-2.3l-2.4-.3h-.2l-2.2.3-4.7-.3c-.2,0-.4,0-.5.3l-.7,1s-.2.2-.2.3c0,.2,0,.4.1.6l.9,1c.1.1.3.2.4.2s0,0,0,0h4.7-.2,0Z"/>
    <path class="st0" d="M47.2,157v2.8h-4l-2.3.2h-2.4c-.2,0-.3-.1-.4-.3l-.7-.7c0,0-.2-.1-.2-.2,0-.2,0-.5,0-.6l.8-1c0-.1.3-.2.5-.2h2.4c0,.1,4.7,0,4.7,0h1.7,0Z"/>
    <path class="st0" d="M24.1,140.4l-10.6-1.4c-.2,0-.3,0-.4.1l-1,.8c-.1,0-.2.1-.3.3s0,.4,0,.6l.9,1.2c0,.1.2.2.4.2l7.1.6,3.5.5h.3l1.2-.8c.2-.1.3-.4.2-.6,0-.1-.1-.3-.2-.3l-.9-1c0-.1-.2-.2-.4-.2"/>
  </g>
  <g>
    <path class="st0" d="M47.2,143.5v2.6h-.4l-3-.2-6.2-.8-3.1-.3-3.1-.2-3.1-.7c-.1,0-.2,0-.2-.1l-1-.9c-.2-.2-.3-.4-.2-.7.1-.2.3-.4.6-.4h0l.8-.7c.1-.1.3-.2.5-.1l3,.6,3,.5,3,.2,3.1.3,6.2.9h.1Z"/>
    <path class="st0" d="M9.1,130.7h2.4l2.4.6,2.3.3,2.3.9h2.6c0-.1,4.7.9,4.7.9l2.3.9h.2c.1,0,.3,0,.4-.2l1-1c.2-.2.2-.4,0-.6,0-.1,0-.3-.3-.3l-.3-.8c0-.2-.2-.3-.5-.4l-2.3-.4-2.3-1-2.4-.4-2.4-.6-2.4-.5-2.5-.3-2.4-.2-2.3-.5-2.3-1.1h-.2l-2.4-.4-2.4-.5c-.2,0-.3,0-.5.1l-1.5,1.1c-.2.1-.3.4-.2.6,0,.2.2.4.4.4l.5,1.5c0,.2.3.4.5.4h2.4l2.3.9,2.5.5h.3,0Z"/>
  </g>
  <g>
    <path class="st0" d="M47.2,135.2v2.8l-.8-.2-4.7-.8-2.3-.3-7-1.6c0,0-.3-.1-.4-.3l-.6-1s0-.2,0-.3c0-.2,0-.4.2-.5l1.1-.8c0-.1.3-.1.5-.1l7,1.7,2.3.3,4.7,1.2h.2-.1Z"/>
    <path class="st0" d="M47.2,123.7l-2-.9-2.3-.4-2.3-1-2.2-.6-4.3-2.1h-2.4c-.3-.2-.5-.4-.5-.6l-.3-1.5v-.3c0-.2.2-.4.4-.5l1.1-.3h2.7c0,0,.2,0,.3.2l2.1,1.2,2.2.6h.2l2,1.2,2.3.3s.2,0,.3,0l1.8,1.4h.2c.2,1,.5,2.2,1,3.3"/>
    <path class="st0" d="M28.1,113.6l-3.4-1.3h-.5l-1.2.7c-.2,0-.3.3-.3.5v.2l.4,1.2c0,.2.2.3.4.4l3.5,1.2h.5l1.1-.7c.2,0,.3-.4.3-.7l-.5-1.2c0-.2-.2-.3-.3-.3"/>
    <path class="st0" d="M50.2,105.8c-.4.4-.8.8-1.2,1.3-.3.4-.6.8-.9,1.2l-1.8-.7h0l-1.8-1.3-2.2-.5s-.2,0-.2,0l-1.8-1.5-1.9-1.4-1.9-.9-2.4-.3h-.2l-2-1.2-2-1s0,0-.2,0l-1.7-1.6-2.1-.8-2-1.4c-.1,0-.2-.2-.2-.3l-.3-.7h-.2c-.2-.2-.3-.4-.3-.6s.1-.4.3-.5l1.8-.8c.2,0,.5,0,.6,0l1.6,1.6,2,1,4.3,1.7,2.1,1.3,1.9,1.3,2,1.2,2,1,2.1,1.1,2.1.8,2.1,1.3,2.1.8.4.2v-.2h0Z"/>
    <path class="st0" d="M31.9,78.8l1.9,1.3,1.9,1.4,3.9,2.7,2,1.1,1.7,1.6h0l2,1,1.8,1.4,1.7,1.7s0,0,.2,0l2.1.9,1.9,1.2,1.8,1.5c0,0,.2,0,.4,0h.2l.7-.3c.2,0,.4,0,.6,0,.2,0,.3-.3.3-.5v-1.4c0-.2-.2-.3-.4-.4l-2-1.3-1.9-1.2-1.8-1.6-2-1.5-2.1-.9-1.6-1.6h0l-2.1-1-1.8-1.3-1.7-1.7h0l-2-1-3.6-3c-.2,0-.4-.2-.6,0l-1.1.4h-.3c-.2,0-.3.3-.3.6v1.3c0,.2.2.3.4.4"/>
    <path class="st0" d="M69,101.9h-3.8l-2-1.4-1.9-1.4-2-1.2-1.9-1.5c0,0-.2-.2-.2-.4v-1c0,0,0-.2,0-.3,0-.2.2-.4.4-.5l1.2-.3c.2,0,.4,0,.5,0l1.8,1.5,5.8,4,1.9,1.5.2.2.2.6h0Z"/>
    <path class="st0" d="M11.6,64.9l1.9,1.4,1.9,1.2,1.9,1.5,1.9,1.1,1.9,1.6,2,1.1h.4l1.4-.4c.2,0,.4-.2.4-.5s0-.3-.1-.5v-1.2c.1-.2,0-.4-.1-.5l-1.9-1.3-1.9-1.1-1.8-1.6-1.9-1.2-1.9-1.3-1.9-1.4c-.2,0-.4,0-.6,0l-1.2.5h-.4c-.2,0-.3.3-.3.5v1.6c0,.2.1.4.3.5"/>
    <path class="st0" d="M57.6,74.1v-1.3c0,0-.2-.3-.3-.4l-7.8-7.3c0,0-.3-.2-.4-.2h-1.7c-.2,0-.3.3-.3.5v1.5c0,.2,0,.3.2.4l5.4,4.6,2.6,2.5s.2.2.4.2h1.5c.2,0,.4,0,.5-.3v-.4"/>
    <path class="st0" d="M76.9,94.3l2.3,2.1s.2,0,.3,0h1.1c.2,0,.3,0,.4,0s.2-.4,0-.5l-.3-1s0-.2,0-.2l-2.2-2.2-8.9-8.6-2.3-2.1-2.4-1.9-2.2-2.1-2.1-2.3c0,0-.3-.2-.5-.2h-1c-.2-.2-.5-.2-.7,0-.2,0-.3.4-.3.6l.3,1.3s0,.2,0,.2l2.1,2.4,2.4,2,2.3,2,4.5,4.3,2.4,1.9,2.3,2,2.2,2.2h.2,0Z"/>
    <path class="st0" d="M88.6,101.9h-3.3l-1.2-1.1-.2-.2-.3-.9c-.2-.2-.2-.5,0-.7s.4-.3.6-.3l1.2.3c0,0,.2,0,.3,0l2.9,2.8s0,0,0,0Z"/>
    <path class="st0" d="M45.9,50.5l2,1.4,1.3,2.1,1.7,1.8,1.9,1.4,1.6,1.9,1.7,1.6,1.3,2.1s0,0,.2.2l2,1.3,3.2,3.5,1.3,2.1c0,.2.3.3.5.3s0,0,0,0l1.4-.2c.2,0,.4-.2.5-.4v-.4l.3-.9c0-.2,0-.4-.2-.6l-1.7-1.7-1.3-2.2-1.7-1.7-1.6-1.9-1.7-1.8-1.8-1.7-1.8-1.5-1.5-1.7-1.2-2.2h0c0,0-1.7-1.8-1.7-1.8l-1.6-1.8c0,0-.3-.2-.4-.2h-1.9c-.2,0-.4.2-.5.4v.6l-.5,1.5c0,.2,0,.5.2.6"/>
    <path class="st0" d="M71.9,78.2l1.7,1.6,3.3,3.4,1.6,1.8,1.7,1.7s.2,0,.3.2h1c0,.2.2.2.3.2h.2c.2,0,.4-.3.3-.6v-1.2c-.2,0-.2-.2-.3-.3l-1.5-2-1.7-1.6-3.1-3.7-1.7-1.6-4.7-5.4c0,0-.2-.2-.4-.2h-1.3c-.2,0-.4.2-.5.4v1.5c0,.2,0,.3,0,.4l4.7,5.4h0Z"/>
    <path class="st0" d="M94.8,84.6l-.4-.7-1.5-1.7s0,0,0-.2l-.9-2-1.7-1.6-1.5-2-2.6-4-1.1-2-1.7-1.7-1.3-2.2-1.5-1.7-2.2-4.2-1.8-1.5c-.2-.2-.3-.4-.2-.7l.6-1.4s0-.2,0-.2c0-.2.4-.2.6-.2l1,.4h.2l2,1.5s0,.2.2.2l1,2.2,1.4,1.7h0l.9,2.2,1.7,1.6s0,.2.2.3l.7,2.2,1.8,1.6h0l1.3,2,1.3,1.9,1.2,2.1,1.3,2,1.1,2.2.3.5c.6.8.6,1.9,0,2.7-.2.2-.4.5-.5.6"/>
    <path class="st0" d="M73.9,54.8c0,0,.2.2.4.2h1.3c.3,0,.5,0,.6-.3l.4-1.3v-.5l-2-3c0-.2-.3-.2-.4-.3h-1.4c-.2,0-.4,0-.5.2v.2l-.4,1.2v.5l2.2,3h-.2Z"/>
    <path class="st0" d="M83.8,35.7l.8,2.3,1.2,1.9.4,2.3v.2l1.1,2,.9,2.1s0,.2,0,.2l1.8,1.6,1,1.8.7,2.2.6,2.3s0,.2,0,.2l1.5,1.7.7,2.1h0c0,0,1.3,2,1.3,2l1.2,2,1.3,1.8.6,2.3,1,2.2,1.2,1.9,1,2.1c0,.2.2.3.4.3l1.2.2h0c.2,0,.4,0,.5-.3v-.2l.6-.8c0-.2.2-.4,0-.6l-1-2.3-2.5-3.7-.5-2.2v-.2l-1.3-1.8-.9-2.2-1.2-1.9-.9-2.3-1.3-1.9-1-2.1-1.1-2-.9-2.1-.8-2.2-.9-2.2-2.5-3.9-1-2-.4-2.3c0-.2-.2-.4-.5-.5l-2-.4c-.2,0-.4,0-.6.2,0,.2-.2.4,0,.6v.2c0,0,0,.8,0,.8v.4"/>
    <path class="st0" d="M101.1,29.3l.7,2.2,1.6,4.5,1,2.1.4,2.2v.2l1,2,.7,2.1.4,2.3v.2l1.1,2,.8,2.1.6,2.3c0,.2.2.4.4.4l.8.2c0,.2.3.4.5.4h0c.2,0,.4,0,.5-.3l.8-1.2c0-.2,0-.3,0-.5l-.8-2.2-.9-2-.5-2.4-.8-2.4-1.2-1.9-.4-2.2v-.2l-1.1-2-.7-2.1-.4-2.3v-.2l-1-2-1.2-4.5c0-.2-.2-.4-.4-.4l-1.2-.3s-.2-.1-.3-.1c-.2,0-.4,0-.5.3l-.7,1.1c0,.2,0,.3,0,.5l.8,2.2h0Z"/>
    <path class="st0" d="M111.1,54.6s0,.2-.2.3l-.5.8c0,0,0,.3,0,.5l.7,2.3.9,2.1.7,2.3,1.5,4.5c0,0,0,.2.3.3l1,.6c0,0,.2.2.4.2h0c.3,0,.5-.2.5-.4l.3-1.1v-.3l-.7-2.3-2.3-6.6-.6-2.3c0-.2-.2-.3-.3-.4l-1.2-.5c-.2,0-.4,0-.6.2"/>
    <path class="st0" d="M92.8,6.3l.8,2.1.7,2.3.9,2,.6,2.4,1,2.1s.2.2.3.3l1.4.5h.2c0,0,.3,0,.4-.2,0-.1.2-.3.2-.5l.8-.9c0-.2.2-.4,0-.6l-.8-2.2-.9-2-.6-2.3-.8-2.1-.8-2.2-.7-2.2c0-.2-.2-.3-.4-.4l-1.2-.3s-.2-.2-.3-.2c-.2,0-.4,0-.5.2l-.9,1.3c0,.1,0,.3,0,.5l.7,2.2s-.2.2-.2.2Z"/>
    <path class="st0" d="M123.3,38.8h.3c0,0,.2-.2.2-.3l.7-1.1v-.4l-1.9-10.4c0-.2,0-.3-.3-.4l-1.1-.7c0-.1-.2-.2-.3-.2-.2,0-.5,0-.6.2l-.9,1.2c0,0,0,.3,0,.5l1.6,6.9.6,3.5c0,0,0,.3.2.3l1.1.9s.2,0,.3,0"/>
    <path class="st0" d="M130.4,68.5v.3l-.2.5-.2.5c0,.2-.2.3-.4.3h-.1c-.1,0-.3,0-.4,0l-.5-.4-.4-.4s-.1-.2-.2-.3l-.6-3-.5-3.1-.6-3-.8-2.9-1.1-6.1-.7-3-.8-3-.3-3.1v-.3l.5-1.2c0-.2.3-.4.6-.4s.5.2.5.5h0l.9.5c.2,0,.3.2.3.4l.4,3,.5,3,.8,2.9.6,3,.5,3,.5,3,.6,3,1,6.1v.3h0Z"/>
    <path class="st0" d="M129.1,14.7l-.2,2.4.3,2.5.7,2.2.2,2.5.4,2.3v2.4c-.1,0-.1.2,0,.2l.9,2.3.5,4.6v2.4c-.2.2,0,.4.2.5l1.3.6h.3s.2,0,.3,0c.1,0,.2-.2.2-.3l.7-.6c.2,0,.2-.3.2-.6l-.4-2.3.2-2.5-.3-2.4-.2-2.4-.3-2.4-.5-2.4-.6-2.3-.2-2.3.3-2.5v-.2l-.4-2.3-.2-2.4c0-.2-.1-.3-.2-.4l-1.5-1c-.2-.1-.4-.1-.6,0s-.3.3-.3.5l-1.2.9c-.2.2-.3.4-.2.7l.8,2.2s-.2.2-.2.2Z"/>
    <path class="st0" d="M136.8,56.7l-.3-4.8-.4-2.3-.6-7.1c0-.2-.1-.3-.2-.4l-1.1-.8c-.2,0-.4,0-.6,0l-.2.2-.8.9c-.1,0-.2.3-.1.4l.6,7.1.5,2.3.6,4.7.2,2.4.4,2.3c0,0,0,.2.2.3l.7.7c0,.2.2.3.4.4h.1c.2,0,.4,0,.5-.3l.6-1.1v-2.8l-.5-2.3v.2h0Z"/>
    <path class="st0" d="M151.4,41.8v2.2c.1,0,.1,0,.1.2l-.5,2.2.4,2.2v.3l-.8,2.2.5,2.2v.2l-.2,2.4v2.3l-.3,2.4v2.3c-.1,0-.6,2.4-.6,2.4v1c0,.7-.5,1.3-1.2,1.2-.6,0-1.1-.5-1.2-1.1v-1.2c-.1,0-.1,0-.1-.2l.5-2.2-.5-2.3v-2.5l.3-4.7.3-2.3-.4-2.3.2-2.5-.2-2.3.7-4.7-.6-2.3c0-.2,0-.5.3-.6l1.3-.8s.1,0,.2,0c.2,0,.5,0,.6.2l.6.9v.2l.7,2.4v.3l-.4,2.3h.3,0Z"/>
    <path class="st0" d="M150.5,27.3c-.2,0-.4-.2-.6,0h-.1l-1,.7c-.1,0-.2.3-.2.5v3.6c0,.2,0,.3.2.4l1,.9c.1,0,.2,0,.4,0s.2,0,.4,0l1.1-.8c.1,0,.2-.3.2-.4l.2-3.6c0-.2,0-.4-.2-.5l-1.1-.9h-.3,0Z"/>
    <path class="st0" d="M161.7,64.8s.2,0,.3,0h.3s.1,0,.2,0l1-.3c.2,0,.4-.2.4-.4l.5-2.4.2-4.5.9-2.1v-2.4l.5-2.3v-2.2c.1,0,.8-2.4.8-2.4v-2.2l.5-2.3.3-2.2.5-2.2.7-2.2.6-2.3.3-4.6.3-2.2,1.1-2.1c.1-.2,0-.5,0-.7l-1.4-1.5c-.1-.2-.4-.2-.6-.2s-.4.2-.4.5v.2l-.7.5c-.1,0-.2.2-.2.3l-.7,2.3-.2,2.2-1,2.1v.2l-.3,2.2-.6,2.2v.3l.5,2.3-.3,2.1-.8,2.2-.8,2.2v.3l.2,2.2-.7,2.1v2.5c-.1,0-.4,2.3-.4,2.3v2.2l-1,2.2-.5,2.3-.2,2.2-.4,2.3c0,.2,0,.4.2.5l.8.8h.1,0Z"/>
    <path class="st0" d="M178.7,53c0,.2,0,.4.2.6.1,0,.2.2.4.2h.2l1.3-.5c.2,0,.3-.2.3-.4l.6-2.3.5-2.2,1-2.2.8-2.3.2-2.3,1-2v-.2l.3-2.2.7-2.1,1.1-2.1v-.2l.4-2.2.8-2.2.9-2.2v-.6l-.8-.9c0-.1,0-.2-.2-.3-.2-.1-.4-.2-.6,0l-1.2.5c-.2,0-.3.2-.3.4l-.6,2.2-.8,2.2-1.4,4.5-.4,2.2-1,2v.2l-.3,2.2-.7,2.1-1.1,2.1v.2l-.2,2.3-.6,2.2-.9,2.2v.6l.5.6h0Z"/>
  </g>
  <g>
    <path class="st0" d="M179.2,57.7l.9-2.2v-.5l-.7-1.1c-.1-.2-.4-.2-.6-.2s-.2,0-.3,0l-.9.4c-.1,0-.3.2-.3.3l-.8,2.3-.5,2.2-.8,2.2-1.4,4.5v.4l.5,1c0,0,.1.3.2.4,0,0,.2,0,.3,0s.3,0,.4,0l.9-.7s.1-.2.2-.3l.8-2.2,2.1-6.7h0Z"/>
    <path class="st0" d="M190.3,16.8c.1.2.3.3.5.3s0,0,0,0c.2,0,.3-.1.4-.3l1.1-.3c.2,0,.4-.2.4-.4l.7-2.2.5-2.2.9-2.2.6-2.2.7-2.2.8-2.2v-.6l-.8-1c0,0,0-.2-.2-.3s-.4-.2-.6,0l-1.5.5c-.2,0-.3.2-.4.4l-.7,2.2-.6,2.2-.8,2.2-.5,2.1-1,2.2-.5,2.3v.4l.8,1.2.2.2h0Z"/>
  </g>
  <path class="st0" d="M198.4,48.2h0c.1,0,.2,0,.3,0l1.2-.5c.1,0,.2-.2.3-.3l4.6-9.6v-.5l-.5-1.2c0,0,0-.3-.1-.4-.2-.2-.4-.2-.6-.2l-1.4.5c-.2,0-.3.2-.3.3l-2.8,6.5-1.6,3.2v.4l.3,1.4c0,.2.3.4.5.4"/>
  <path class="st0" d="M198.3,51.5l-1.5,2.7-1.4,2.7-1.1,2.8-1.3,2.8-1.3,2.8-1.4,2.7-1.3,2.7-2.3,4.5h-.9c-.4-.4-.8-.8-1.3-1.1l.8-1.7,1.4-2.7,1.2-2.8,1.1-2.8,2.7-5.6,1.2-2.8,1.1-2.8,1.6-2.7.2-.2,1.1-.7c.2,0,.5,0,.7,0,.1,0,.2.3.2.4v.2l.4.9v.5"/>
  <path class="st0" d="M85.7,99.1s3.3,2.1,2.9,2.8c-.4.7-3.3,0-3.3,0"/>
</svg>