<?xml version="1.0" encoding="UTF-8"?>
<svg id="Layer_1" xmlns="http://www.w3.org/2000/svg" version="1.1" viewBox="0 0 300 321">
  <!-- Generator: Adobe Illustrator 29.1.0, SVG Export Plug-In . SVG Version: 2.1.0 Build 142)  -->
  <defs>
    <style>
      .st0 {
        fill: #fff;
      }
    </style>
  </defs>
  <g>
    <path class="st0" d="M207.3,56.2l.7,1.3c0,.2.3.3.5.3h0c.1,0,.3,0,.4-.1h.9c.2,0,.4-.2.5-.3l1.1-2.1,1.7-1.9,1.1-2.1,1.3-2.1,1.2-2.1,1.1-2.2.9-2.2,1.2-2,1.7-1.8h0c0-.1,1.1-2.2,1.1-2.2l1.2-2.1c0-.1.1-.3,0-.5l-.6-1.7c0-.2-.3-.4-.5-.4s-.4,0-.5.2h-1.5c-.3,0-.5.2-.5.4l-.7,2.3-1.6,1.9-1.2,2.2-.8,2.2-1.3,2.1-1,2.1-1.6,1.9s0,.1-.1.2l-.7,2.3-2.3,4.1-1.6,1.9c-.1.2-.2.4,0,.6"/>
    <path class="st0" d="M196.3,77.8c.1.1.3.2.4.2h.2l1.1-.5s.2-.1.2-.2l1.4-2,1-2.1,2.6-4,1-2.1,3.7-6.1c0-.1.1-.3,0-.5l-.4-1.3c0-.2-.3-.4-.5-.4h-.3l-1.2.3c-.2,0-.3.1-.4.3l-3.7,6.1-1,2.1-2.2,4.1-1.3,2-1.1,2.1v.4l.2,1c0,.2,0,.4.1.5"/>
    <path class="st0" d="M224.3,64.1v1.3l-.9,2.3s0,.2-.1.2l-1.8,1.6-1.2,1.9h-.1c0,.1-1.7,1.6-1.7,1.6l-1,2.1c0,.1-.1.2-.2.2l-1.9,1.3-.9,2.1h0c0,.1-1.5,1.9-1.5,1.9l-1.5,1.8-1.6,1.8-1.5,1.8-1.3,1.2c-.5-.7-1-1.3-1.6-1.9l.9-.8,1-2.1,1.5-2,3-3.7,1.6-1.7,1.1-2.1,1.6-1.9,1.2-1.9,3.4-3.4.8-2.2c0-.2.3-.4.6-.4l1.6.2h.3c.2,0,.4.3.4.5"/>
    <path class="st0" d="M224.9,61.9c0,.3.3.5.6.5s0,0,0,0h1.3c.2,0,.3-.1.4-.3l2.3-2.8c.1-.1.2-.3.1-.5l-.4-1.3c0-.2-.3-.4-.5-.4h-1.5c-.2,0-.4,0-.5.2l-2.2,2.9c0,.1-.1.3,0,.5l.3,1.3h.1Z"/>
    <path class="st0" d="M221.1,87.5l-1.8,1.6-1.5,1.7-1.7,1.6c-.1.1-.2.3-.2.5l.2,1.1c0,.2.2.3.4.4h.2l1,.3h.2c.1,0,.3,0,.4-.1l1.9-1.6,2.8-3.5,2-1.1s.1,0,.2-.2l1.3-1.8,1.8-1.6,1.4-1.7,1.9-1.5,1.4-1.8,1.7-1.6,1.6-1.6,1.7-1.5,1.9-1.4,1.9-1.6,3-3.5,1.5-1.6,2.1-1.1c.2-.1.3-.3.3-.6l-.2-2c0-.2-.2-.4-.4-.5-.2,0-.4,0-.6.1l-.2.2h-.8c-.1,0-.2,0-.3.1l-1.9,1.5-1.5,1.7-2,1.1s-.1,0-.1.1l-1.5,1.6-1.8,1.5-.2.2-1,2.2-1.4,1.5-1.9,1.3-2,1.3-.2.2-1.2,1.9-1.8,1.3h-.1c0,.1-1.4,1.9-1.4,1.9l-1.6,1.7-1.4,1.8-2,1.2v.3Z"/>
    <path class="st0" d="M211.1,100.2l-.2,1.2c0,.1,0,.3-.2.4l-1.6,1.4-1.4,1.5h-1.8c.3-.4.6-.9.9-1.4.3-.4.6-.9,1-1.7.2-.3.3-.6.5-.9l.8-.8s.2-.1.3-.2l1.2-.2c.2,0,.4,0,.5.2.1.1.2.3.2.5"/>
    <path class="st0" d="M248.2,84.8l-1.6,1.6-1.9,1.3-2.1,1s-.1,0-.2.1l-1.5,1.7-1.8,1.4-2,1.2c-.2.1-.3.3-.3.5v.8c-.1.1-.2.4-.2.6s.2.4.4.4l1.4.3h.1c.1,0,.3,0,.4-.1l1.9-1.4,1.7-1.4,2.1-1.2,2-1.4,1.5-1.7,2-1.1h.1c0-.1,1.6-1.7,1.6-1.7l1.8-1.3,2.1-1.1h.1l1.6-1.6,4-2.5c.2-.1.3-.3.3-.5v-1.5c0-.2-.2-.4-.4-.4l-1.3-.3c-.2,0-.3,0-.5.1l-1.8,1.4-1.9,1.3-3.8,2.8-1.7,1.5-2,1.1h-.1"/>
    <path class="st0" d="M236.5,97.3c.2,0,.3-.3.3-.4v-1.3c.1-.2,0-.4-.2-.5h-.3l-1-.2h-.5l-2,1.4-1.7,1.5-1.9,1.3-3.8,2.8c-.1,0-.2.2-.2.3l-.2,1.1v.4c0,.2.3.4.5.4s0,0,0,0h1.2c.1,0,.2,0,.3-.1l2-1.3,5.7-4.2,2-1.3h-.2Z"/>
    <path class="st0" d="M268.1,72.5h.5l1.1.5h.2c.1,0,.2,0,.3-.1l1.9-1.4,1.7-1.5,2.1-1.2,1.8-1.4,1.8-1.4,1.9-1.3c.2-.1.3-.3.2-.5v-1.7c0-.2-.2-.4-.4-.5l-1.5-.5h-.5l-1.9,1.4-1.8,1.4-2,1.3-1.6,1.5-2.1,1.2-1.7,1.6c-.1.1-.2.2-.2.4v1.5c0,.2,0,.4.2.5"/>
    <path class="st0" d="M256.4,99.8c-.1,0-.2.2-.3.3l-.6,1.3c0,.2,0,.5.2.6.1,0,.2.1.4.1l1.3.3h.4l9.4-5c.1,0,.2-.2.3-.4l.3-1.2c0-.1.1-.3.1-.4,0-.2-.2-.4-.4-.5l-1.5-.4h-.5l-6.1,3.6-3.2,1.6h.2Z"/>
    <path class="st0" d="M254.6,102.7c0,.2,0,.5-.3.6h0l-.2,1c0,.2-.2.3-.3.4l-2.8,1.3-2.7,1.4-2,1.3c-.8-.7-1.6-1.3-2.5-1.8l.6-.3,2.7-1.5,2.6-1.6,2.9-1.3h1.6c.3.1.5.3.5.6"/>
    <path class="st0" d="M278.1,100.5l-2.3,1-1.9,1.3-2.3.9-2.1,1.1-2.4.6s-.1,0-.2.1l-1.8,1.5-4.4,2-2.4.6c-.2,0-.4.2-.4.5l-.2,1.4c0,.2,0,.4.2.5.1,0,.3.1.4.1l.8.5h.6l2.1-1.1,2.5-.6,2.2-1,2.3-.9,2.2-1,2.2-1.2,2-1.2,2.1-.9,2.5-.5h.2l2.1-1.1,2.2-.9c.2,0,.3-.2.3-.4l.5-1.8c0-.2,0-.4-.2-.6-.2-.1-.4-.2-.6-.1l-1.3-.9c-.2-.1-.5-.1-.7,0l-1.9,1.4-2.4.6h0Z"/>
    <path class="st0" d="M256.5,112.8l-.4,1.3c0,.2-.2.3-.3.4l-3.3,1.3c-.6-.8-1.2-1.7-2-2.5l4-1.7h.5l1.1.5h.2c.2.1.3.4.3.7"/>
    <path class="st0" d="M266.9,126.4l-.7.9h-.1c0,.1-2.1,1.5-2.1,1.5h-.3l-2.4.3-2.1.8h-.1l-2.3.2-1.3.7v-3.3h.5c0-.1,2.1-1,2.1-1l4.7-.8,2-1.3c.2-.1.5-.1.7,0l1.2,1s.2.1.2.2v.6"/>
    <path class="st0" d="M270.1,126.5h.5l3.5-1c.2,0,.3-.2.4-.3l.5-1.3c0-.2,0-.4-.1-.6,0,0-.1,0-.2-.1l-1-.8c-.1-.1-.3-.1-.5,0l-3.5,1.1c-.2,0-.3.2-.3.3l-.5,1.2c-.1.3,0,.6.2.7l1.1.7h-.1Z"/>
    <path class="st0" d="M286.9,140.1l-1,1.8c-.1.2-.4.3-.6.3l-2.3-.4-2.2.4-4.5,1.1-2.4.2h-2.4l-2.3.2-2.3.4-2.3.3-2.2.6h-2.5c0,.1-2.2.6-2.2.6l-2.2.2v-2.9l1.7-.4,2.2-.6h2.3l2.1-.9h2.6c0,.1,2.3.2,2.3.2l2.1-.4,2.1-1.2h.2l2.3-.2,2.2-.4h.2l2.3.3,2.2-.5h2.5c.1-.1.2,0,.3,0l.7.5h.2c.2,0,.4,0,.6.2.1.2.1.4,0,.6"/>
    <path class="st0" d="M283.5,157h-4.8l-2.3.4-2.3-.3h-.2l-2.2.4h-2.3l-2.4-.4h-.2l-2.3.5h-2.3c0,.1-2.3,0-2.3,0-.2,0-.4,0-.5.3l-.4.6h0c-.2,0-.4.1-.5.3v.6l.9,1.1c.1.1.3.2.5.2h2.4l2.2-.2,2.4.3h2.5l2.2-.5,2.2.3h.2l2.3-.4h2.3l2.4.3h.2l2.2-.3,4.7.3c.2,0,.4,0,.5-.3l.7-1s.2-.1.2-.2v-.6l-.9-1c-.1-.1-.3-.2-.5-.2h-4.7v-.2Z"/>
    <path class="st0" d="M258.5,159.2l-.8,1c-.1.1-.3.2-.4.2h0l-2.4-.2h-2l-.2-.6c.4-.7.8-1.4,1.2-2.2h1c0-.1,2.4,0,2.4,0,.1,0,.3,0,.4.2l.7.8c.1,0,.2.1.2.2,0,.2.1.5,0,.6"/>
    <path class="st0" d="M282.5,175.1l-7.1-.6-3.5-.5h-.4l-1.2.8c-.2.1-.3.4-.2.6,0,.1.1.2.2.3l.9,1c0,.1.2.2.4.2l10.6,1.4h0c.1,0,.3,0,.4-.1l1-.8c.1,0,.2-.1.3-.3.1-.2.1-.5,0-.6l-.9-1.2c0-.1-.2-.2-.4-.2"/>
  </g>
  <g>
    <path class="st0" d="M268.7,175.2c-.1.2-.4.4-.6.3l-.8.7c-.1,0-.2.1-.4.1s0,0-.1,0l-3-.6-3-.5h-1.6c0-.2-.1-.4-.2-.5-.3-.6-.6-1.1-1-1.6-.2-.3-.4-.6-.6-.9h.8c0,.1,3,.4,3,.4l3.1.2,3.1.7s.2,0,.3.1l1,.9c.2.2.2.4.1.7"/>
    <path class="st0" d="M294.7,189.9l-.5-1.4c0-.2-.3-.4-.6-.4h-2.4l-2.3-.9-2.5-.5h-2.4l-2.4-.6-2.3-.4-2.3-.9h-2.6c0,.1-4.7-.9-4.7-.9l-2.3-.9c-.2,0-.5,0-.6.1l-1,1c-.2.2-.2.4-.1.6,0,.1.1.3.3.3l.3.8c0,.2.2.3.5.4l2.4.4,2.3,1,2.4.4,2.4.6,2.4.5,2.5.3,2.4.2,2.3.5,2.3,1.1h.2l2.4.4,2.4.5h.1c.1,0,.2,0,.3-.1l1.5-1.1c.2-.1.3-.4.2-.6,0-.2-.2-.4-.4-.4"/>
  </g>
  <g>
    <path class="st0" d="M264.2,184.4l-1.1.8c-.1,0-.2.1-.4.1s0,0-.1,0l-2-.5c.2-1,.3-2,.2-3.1l2.5.6c.2,0,.3.1.4.3l.6,1s0,.1.1.2c0,.2,0,.5-.2.6"/>
    <path class="st0" d="M264.9,201.1c0,.2-.2.4-.4.4l-1.1.3h-2.7c0-.1-.2-.1-.3-.2l-2.1-1.2-2.2-.6h-.1l-2-1.2-2.3-.3c-.1,0-.2,0-.3-.1l-1.8-1.4s1.3-1,3.1-1.9h0l2.3,1,2.2.6,4.3,2.2h2.4c.2.1.5.3.5.6l.3,1.6v.3"/>
    <path class="st0" d="M267.5,203.8l3.4,1.3h.5l1.2-.7c.2-.1.3-.3.3-.6v-.2l-.4-1.2c0-.2-.2-.3-.4-.4l-3.5-1.2h-.5l-1.1.7c-.2.1-.3.4-.3.7l.5,1.3c0,.2.2.3.3.3"/>
    <path class="st0" d="M272.9,223.7c0,.2-.1.4-.3.5l-1.8.8h-.2c-.1,0-.3,0-.4-.2l-1.7-1.6-2-1-4.3-1.7-2.1-1.3-2-1.3-2-1.2-2-1-2.1-1.1-2.1-.8-2.1-1.4-2.1-.8-1.1-.6c-.1-1.2-.4-2.4-.9-3.5l1.2.4,2.2,1,2.2.8h.1l1.8,1.3,2.2.5s.2,0,.2.1l1.8,1.5,1.9,1.4,1.9.9,2.4.2h.2l2,1.2,2.1,1s.1,0,.1.1l1.7,1.6,2.1.9,2,1.4c.1,0,.2.2.2.3l.3.7h.2c.2.2.3.4.3.6"/>
    <path class="st0" d="M264.1,240.3c0,.2,0,.4-.3.5h-.3l-1.2.4h-.2c-.1,0-.3,0-.4-.1l-1.8-1.5-1.8-1.5-2-1h-.1c0-.1-1.7-1.8-1.7-1.8l-1.8-1.3-2.1-1s-.1,0-.1-.1l-1.6-1.6-2.1-.9-2-1.5-1.8-1.6-1.9-1.2-2-1.3c-.1-.1-.2-.3-.3-.4v-.2c.2-.2.5-.4.7-.5.5-.4,1-.8,1.5-1.3l1.7,1.5,1.9,1.2,2.1.9s.1,0,.2.1l1.7,1.7,1.8,1.4,2,1h.1l1.7,1.6,2,1.1,3.9,2.7,1.9,1.4,1.9,1.3c.1.1.2.3.2.4v1.3l.2.3Z"/>
    <path class="st0" d="M284,252.5l-1.9-1.3-1.9-1.2-1.9-1.5-1.9-1.1-1.9-1.6-2-1.1h-.4l-1.4.4c-.2,0-.4.2-.4.5s0,.3.1.5v1.2c-.1.2,0,.4.1.5l1.9,1.3,1.9,1.1,1.8,1.6,1.9,1.2,1.9,1.3,1.9,1.4c.1,0,.2.1.3.1h.2l1.2-.5h.4c.2-.1.3-.3.3-.5v-1.6c0-.2-.1-.4-.3-.5"/>
    <path class="st0" d="M238,243.3v1.3c.1.1.2.3.3.4l7.7,7.3c.1.1.3.2.4.2s0,0,0,0h1.7c.2,0,.3-.3.3-.5v-1.5c0-.2-.1-.3-.2-.4l-5.4-4.6-2.6-2.5s-.2-.2-.4-.2h-1.5c-.2-.1-.4,0-.5.3v.4"/>
    <path class="st0" d="M237.3,241.3c0,.2,0,.5-.2.6h-.3c0,0-.3,0-.4-.1h-1c-.2,0-.4,0-.5-.2l-2.1-2.3-2.2-2.2-2.4-1.9-1.3-1.1c.9-.4,1.8-.8,2.6-1.4l.5.5,2.3,2,2.4,1.9,2.1,2.4v.2c.1,0,.4,1.3.4,1.3v.3Z"/>
    <path class="st0" d="M249.7,266.9l-2-1.4-1.3-2.1-1.7-1.8-1.9-1.4-1.6-1.9-1.7-1.6-1.4-2.1s0-.1-.2-.2l-2-1.3-3.2-3.5-1.3-2.1c-.1-.2-.4-.3-.6-.3l-1.4.2c-.2,0-.4.2-.5.4v.4l-.2.9c0,.2,0,.4.1.6l1.7,1.7,1.3,2.2,1.7,1.7,1.6,1.9,1.7,1.8,1.8,1.7,1.8,1.5,1.5,1.7,1.2,2.2h0c0,.1,1.7,1.8,1.7,1.8l1.6,1.8c.1.1.3.2.4.2h1.9c.2,0,.4-.2.5-.4v-.6l.5-1.5c0-.2,0-.5-.2-.6"/>
    <path class="st0" d="M228.5,245v1.1s0,.2-.1.3c0,.3-.3.4-.6.5h-1.3c-.2,0-.3,0-.4-.2l-4.7-5.4-1.7-1.6-.2-.2c.9-.6,1.7-1.2,2.4-1.9h0l1.7,1.6,4.7,5.4c.1.1.2.3.1.4"/>
    <path class="st0" d="M219.4,259l-.6,1.4c0,.1,0,.2-.1.3-.1.1-.3.2-.4.2h-.2l-1-.4h-.2l-2-1.6-.2-.2-1-2.2-1.4-1.7h0c0-.1-.9-2.2-.9-2.2l-1.7-1.6v-.2c-.1,0-.8-2.2-.8-2.2l-1.7-1.5h-.1c0-.1-.2-.5-.2-.5,1.1-.2,2.2-.5,3.2-.9l.9,1.6,1.6,1.7,1.3,2.2,1.5,1.8,2.2,4.2,1.8,1.5c.2.2.3.4.2.7"/>
    <path class="st0" d="M221.7,262.5c0-.1-.2-.2-.4-.2h-1.3c-.3-.1-.5,0-.6.3l-.4,1.3v.5l2,3c.1.2.3.3.5.3h1.4c.2,0,.4-.1.5-.3v-.2l.4-1.2v-.5l-2.2-3h.1Z"/>
    <path class="st0" d="M211.7,283c.1.2,0,.4,0,.6-.1,0-.3.2-.5.2s0,0-.1,0l-2-.4c-.2,0-.4-.2-.5-.5l-.4-2.3-1-2-2.5-3.9-.9-2.2-.8-2.2-.9-2.1-1.1-2-1-2.1-1.3-1.9-.9-2.3-1.2-1.9-1-2.2-1.3-1.8s0-.1-.1-.2l-.5-2.2h0c.8-.2,1.7-.4,2.5-.7h.2l.4,1.8,1.3,1.8,1.2,2.1,1.3,1.9h0c0,.1.7,2.2.7,2.2l1.5,1.7s.1.1.1.2l.6,2.3.7,2.2,1,1.8,1.8,1.6s.1.1.1.2l.9,2.1,1.1,2v.2l.4,2.3,1.2,1.9.8,2.3v.4l-.2.8v.2h.4Z"/>
    <path class="st0" d="M194.5,288l-.7-2.2-1.6-4.5-1-2.1-.4-2.2v-.2l-1-2-.7-2.1-.3-2.3v-.2l-1.1-2-.8-2.1-.6-2.3c0-.2-.2-.4-.4-.4l-.8-.2c0-.2-.3-.4-.5-.4s-.4,0-.6.3l-.8,1.2c0,.1-.1.3,0,.5l.8,2.2.9,2,.5,2.4.8,2.4,1.2,1.9.4,2.2v.2l1.1,2,.7,2.1.4,2.3v.2l1,2,1.2,4.5c0,.2.2.4.4.4l1.2.3s.2,0,.3,0h0c.2,0,.4,0,.5-.3l.7-1.1c0,0,.1-.3,0-.5l-.8-2.2h0Z"/>
    <path class="st0" d="M185.1,261.6l-.5.7c0,.1,0,.3-.2.4h-.1q0,.1-.1.1h-.2l-1.2-.5c-.2,0-.3-.2-.3-.4l-.6-2.3-1.6-4.6c1,.2,2,.3,3,.2l.4,1.3.9,2.1.7,2.3v.5"/>
    <path class="st0" d="M202.8,311.1l-.8-2.1-.7-2.3-.9-2-.6-2.4-1-2.1c0,0-.2-.2-.3-.3l-1.4-.5c-.2,0-.4,0-.6,0-.1,0-.2.3-.2.5l-.8.9c-.1.2-.2.4-.1.6l.8,2.2.9,2,.6,2.3.8,2.1.8,2.2.7,2.2c0,.2.2.3.4.4l1.2.3s.2,0,.3.2h0c.2,0,.4,0,.5-.2l.9-1.3c.1,0,.1-.3,0-.5l-.7-2.2h.2Z"/>
    <path class="st0" d="M174.5,283.5l-.6-3.5c0,0,0-.3-.2-.3l-1.1-.9c-.2-.2-.4,0-.7,0-.1,0-.2.2-.2.3l-.7,1.1v.4l1.9,10.4c0,.2.1.3.3.4l1.1.7c0,0,.2.2.3.2h.1c.2,0,.4,0,.5-.2l.9-1.2c0,0,.1-.3,0-.5l-1.6-6.9h0Z"/>
    <path class="st0" d="M172.9,275.5v.3l-.5,1.2c0,.2-.3.4-.5.4s0,0,0,0c-.2,0-.5-.2-.5-.4l-.9-.5c-.1,0-.3-.2-.3-.4l-.4-3-.5-3-.8-2.9-.6-3-.5-3-.4-2.5c.4,0,.9,0,1.4-.1.4,0,.8-.1,1.2-.2l.6,2.3,1.1,6.1.7,3,.7,3,.3,3.1v-.4Z"/>
    <path class="st0" d="M166.5,302.6l.2-2.4-.3-2.5-.7-2.2-.2-2.5-.4-2.3v-2.4c.1,0,.1-.2,0-.2l-.8-2.2-.5-4.7v-2.5c.1-.2,0-.4-.2-.5l-1.3-.6h-.6c-.1,0-.2.2-.2.3l-.7.6c-.2,0-.3.3-.2.5l.4,2.3-.2,2.5.3,2.4.2,2.4.3,2.4.5,2.4.6,2.3.2,2.3-.3,2.5v.2l.4,2.4.2,2.4c0,.2.1.3.2.4l1.5,1s.2,0,.3,0h.3c.2,0,.3-.3.3-.5l1.2-.9c.2,0,.3-.4.2-.7l-.8-2.2h.1Z"/>
    <path class="st0" d="M163.2,274.5c0,.2,0,.3-.1.4l-.8.9-.2.2h-.3c0,0-.2,0-.3-.1l-1.1-.8c-.1-.1-.2-.3-.2-.4l-.6-7.1-.4-2.3-.3-4.8-.5-2.3v-1.2c.9.5,1.9.8,3,1l.2,2.2.6,4.6.5,2.3.6,7.1v.3Z"/>
    <path class="st0" d="M147.7,263.9l-.3,2.3.3,2.3-.2,2.5.2,2.3-.7,4.7.6,2.3c0,.2,0,.5-.3.6l-1.3.8s-.1,0-.2,0h-.2c-.2,0-.4,0-.5-.2l-.6-.9v-.2l-.7-2.4v-.3l.4-2.3v-2.2c-.1,0-.1-.1-.1-.2l.5-2.2-.4-2.3v-.3l.8-2.2-.5-2.2v-.2l.2-2.4v-2.8h.8c.5,0,1,0,1.9.1h.6v.3l-.3,4.8v.2Z"/>
    <path class="st0" d="M146.9,284.7l-1-.9c-.2-.2-.5-.2-.7,0l-1.1.8c-.1,0-.2.3-.2.4l-.2,3.6c0,.2,0,.4.2.5l1.1.9c.1,0,.2,0,.4,0h.3s.1,0,.2,0l1-.7c.1,0,.2-.3.2-.5v-3.6c0-.2,0-.3-.2-.4"/>
    <path class="st0" d="M134.4,257.4v1l-.6,2.3-.9,2.2v2.2l-.3,2.3v2.3c-.1,0-.1.1-.1.2l-.7,2.1.2,2.2v.3l-.8,2.2-.8,2.2-.3,2.1.5,2.3v.3l-.6,2.2-.3,2.2v.2l-1,2.1-.2,2.2-.7,2.3c0,0-.1.2-.2.3l-.7.5v.2c0,.2-.2.4-.4.5h-.2c-.2,0-.3,0-.4-.2l-1.4-1.5c-.2-.2-.2-.4-.1-.7l1.1-2.1.3-2.2.3-4.6.6-2.3.7-2.2.5-2.2.3-2.2.5-2.3v-2.2l.8-2.4v-2.2c.1,0,.7-2.3.7-2.3v-2.4l.9-2.1.2-4.5h0c1,.7,2.1,1.2,3.2,1.7"/>
    <path class="st0" d="M116.9,264.3c0-.2,0-.4-.2-.6s-.4-.2-.6-.1l-1.3.5c-.2,0-.3.2-.3.4l-.6,2.3-.5,2.2-1,2.2-.8,2.3-.2,2.3-1,2v.2l-.3,2.2-.7,2.1-1.1,2.1v.2l-.4,2.2-.8,2.2-.9,2.2v.6l.8.9s0,.2.2.3c.1,0,.3.2.4.2h.2l1.2-.5c.2,0,.3-.2.3-.4l.6-2.2.8-2.2,1.4-4.5.4-2.2,1-2v-.2l.3-2.2.7-2.1,1.1-2.1v-.2l.2-2.3.6-2.2.9-2.2v-.6l-.5-.6v-.2Z"/>
    <path class="st0" d="M120.9,254.4l-.5,1.6-.8,2.2-.5,2.2-.8,2.3c0,.2-.2.3-.3.4l-.9.4s-.2.1-.3.1h-.1c-.2,0-.4,0-.5-.2l-.7-1.1c-.1-.2-.1-.4,0-.5l.9-2.2,1.8-5.6c.9.2,1.8.3,2.8.4"/>
    <path class="st0" d="M105.3,300.5c-.1-.2-.3-.3-.6-.3s-.3,0-.4.3l-1.1.3c-.2,0-.4.2-.4.4l-.7,2.2-.5,2.2-.9,2.2-.6,2.2-.7,2.2-.8,2.2v.6l.8,1c0,0,0,.2.2.3.1,0,.3.2.4.2h.2l1.5-.5c.2,0,.3-.2.4-.4l.7-2.2.6-2.2.8-2.2.5-2.1,1-2.2.5-2.3v-.4l-.8-1.2v-.3Z"/>
    <path class="st0" d="M97.2,269.2c-.1,0-.3,0-.4.1l-1.2.5c-.1,0-.2.2-.3.3l-4.6,9.6v.5l.5,1.2c0,0,0,.3.2.4.1,0,.3.2.4.2h.2l1.4-.5c.2,0,.3-.2.3-.3l2.8-6.5,1.6-3.2v-.4l-.3-1.4c0-.2-.3-.4-.5-.4"/>
    <path class="st0" d="M108.3,249l-.7,1.5-1.1,2.8-2.7,5.6-1.2,2.8-1.1,2.8-1.6,2.7-.2.2-1.1.7h-.3c-.1,0-.3,0-.4-.2-.2-.2-.2-.4-.1-.7l-.4-.9v-.5l1.5-2.7,1.4-2.7,1.1-2.8,1.3-2.8,1.3-2.8,1.4-2.7,1.1-2.3c.1.1.2.3.3.4.5.6,1,1.1,1.5,1.6"/>
    <path class="st0" d="M90.7,263.9l-.7-1.3c0-.2-.3-.3-.5-.3s-.3,0-.4.1h-.9c-.2,0-.4.2-.5.3l-1.1,2.1-1.7,1.9-1.1,2.1-1.3,2.1-1.2,2.1-1.1,2.2-.9,2.2-1.2,2-1.7,1.8h0c0,0-1.1,2.2-1.1,2.2l-1.2,2.1c0,0-.1.3,0,.5l.6,1.7c0,.2.3.4.5.4h0c.2,0,.4,0,.5-.2h1.5c.2,0,.5-.2.5-.4l.7-2.2,1.6-1.9,1.2-2.2.8-2.2,1.3-2.1,1-2.1,1.5-1.9s0-.1.1-.2l.6-2.3,2.4-4.1,1.6-1.9c.1-.2.2-.4,0-.6"/>
    <path class="st0" d="M101.9,244.1h0l-1.1,2.1-1.3,2.1-2.2,4.1-1,2.1-3.7,6.1c0,.1-.2.2-.4.3l-1.2.2h-.2c-.2,0-.4-.2-.5-.4l-.4-1.3v-.5l3.7-6.1,1-2.1,2.6-4,1-2.1.5-.8h3.2"/>
    <path class="st0" d="M88.3,240.7l-2,2.5-1.6,1.7-1.1,2.1-1.7,1.9-1.2,1.9-3.4,3.4-.9,2.2c0,.2-.3.4-.5.4h0l-1.5-.2h-.3c-.2-.1-.4-.3-.4-.5v-1.3l.9-2.3s0-.1.1-.2l1.7-1.7,1.2-1.9h.1c0-.1,1.7-1.6,1.7-1.6l1-2.1s.1-.2.2-.2l1.9-1.3.9-2.1h0c0-.1,1.5-1.9,1.5-1.9l.6-.7c.8.8,1.6,1.5,2.5,2.1"/>
    <path class="st0" d="M73.1,258.2c0-.3-.3-.5-.6-.5s0,0,0,0h-1.3c-.2,0-.3.1-.4.3l-2.3,2.8c-.1.1-.2.3-.1.5l.4,1.3c0,.2.2.4.4.4h1.5c.2,0,.3,0,.5-.2l2.2-2.9c0-.1.1-.3,0-.5l-.3-1.3h0Z"/>
    <path class="st0" d="M79.6,229.8l-.9,1.1-1.8,1.6-2,1.2-1.4,1.7-1.6,1.7-1.4,1.8h-.1c0,.1-1.8,1.4-1.8,1.4l-1.2,2s-.1.1-.2.2l-2,1.3-1.9,1.3-1.5,1.5-1,2.2s0,.1-.2.2l-1.8,1.5-1.5,1.6h-.1c0,.1-2.1,1.2-2.1,1.2l-1.5,1.7-1.9,1.5c-.1,0-.2.1-.3.1h-.8l-.2.2c-.1.1-.2.2-.4.2h-.2c-.2,0-.4-.3-.4-.5l-.2-2c0-.2,0-.5.3-.6l2.1-1,1.5-1.6,3-3.5,1.9-1.6,1.9-1.4,1.7-1.5,1.6-1.6,1.7-1.6,1.4-1.8,1.9-1.5,1.4-1.7,1.8-1.6,1.3-1.8s.1-.1.2-.2l2-1.1.9-1.1c1.2.3,2.5.5,3.8.5"/>
    <path class="st0" d="M49.8,235.2l1.6-1.6,1.9-1.3,2.1-1s.1,0,.2-.1l1.5-1.7,1.8-1.4,2-1.2c.2-.1.3-.3.3-.5v-.8c.1-.1.2-.4.2-.6s-.2-.4-.4-.4l-1.4-.3c-.2,0-.3,0-.5.1l-1.9,1.5-1.7,1.4-2.1,1.2-2,1.4-1.5,1.7-2,1.1h-.1c0,.1-1.6,1.7-1.6,1.7l-1.8,1.3-2.1,1.1h-.1l-1.6,1.6-4,2.5c-.2.1-.3.3-.3.5v1.5c0,.2.2.4.4.4l1.3.3h.1c.1,0,.3,0,.4-.1l1.8-1.4,1.9-1.3,3.8-2.8,1.7-1.5,2-1.1h.1"/>
    <path class="st0" d="M66.7,222.5l-1.5,1.3-2,1.4s-.2.1-.3.1h-.1l-1-.2h-.3c-.2-.1-.4-.3-.4-.5v-1.3c.1-.2.2-.3.4-.4l2-1.2,1.8-1.3c.4.8.8,1.6,1.4,2.4"/>
    <path class="st0" d="M29.4,247.5l-1.1-.5h-.6l-1.9,1.4-1.7,1.5-2.1,1.2-1.8,1.4-1.8,1.4-1.9,1.3c-.2.1-.3.3-.2.5v1.7c0,.2.2.4.4.5l1.5.5h.2c.1,0,.2,0,.3-.1l1.9-1.4,1.8-1.4,2-1.3,1.6-1.5,2.1-1.2,1.7-1.6c.1-.1.2-.2.2-.4v-1.4c0-.2,0-.4-.2-.5h-.5"/>
    <path class="st0" d="M41.6,220.2c.1,0,.2-.2.3-.3l.5-1.3c0-.2,0-.5-.2-.6-.1,0-.2-.1-.4-.1l-1.3-.3h-.4l-9.4,5c-.1,0-.2.2-.3.4l-.3,1.2c0,.1-.1.3-.1.4,0,.2.2.4.4.5l1.5.4h.5l6.1-3.6,3.2-1.6h-.1Z"/>
    <path class="st0" d="M70.6,203.3l-.5,1c0,.1-.1.2-.2.3l-2.7,1.5-1.3.7-1.4.7-2.6,1.5-2.6,1.6-5.5,2.9-2.6,1.5-2.6,1.6-2.9,1.3h-1.6c-.2-.1-.5-.3-.5-.6s0-.5.3-.6h0l.2-1c0-.2.2-.3.3-.4l2.8-1.3,2.7-1.4,2.5-1.6,2.7-1.5,2.7-1.4,2.8-1.4,2.7-1.5,5.5-2.8h1.3c.2,0,.3,0,.4.2.2.2.2.4.1.6"/>
    <path class="st0" d="M19.9,219.6l2.3-1,1.9-1.3,2.3-.9,2.1-1.1,2.4-.6s.1,0,.2-.1l1.8-1.5,4.4-2,2.4-.6c.2,0,.4-.2.4-.5l.2-1.4c0-.2,0-.4-.2-.5-.1,0-.3-.1-.4-.1l-.8-.5c-.2-.1-.4-.1-.6,0l-2.1,1.1-2.5.6-2.2,1-2.3.9-2.2,1-2.2,1.2-2,1.2-2.1.9-2.5.5h-.2l-2.1,1.1-2.2.9c-.2,0-.3.2-.3.4l-.5,1.8c0,.2,0,.4.2.6.2.1.4.2.6.1l1.3.9c.1,0,.2.1.3.1s.2,0,.3-.1l1.9-1.4,2.4-.6h0Z"/>
    <path class="st0" d="M42,208l1.1.5h.4l6.7-2.8,2.1-1.1,4.3-2,2.3-.9,2.1-1.1c.1,0,.2-.1.3-.3l.4-.9c.2-.1.2-.3.2-.5,0-.3-.2-.5-.5-.5l-1.2-.2h-.3l-2.4.8-2,1.1-4.5,1.7-2,1.1-6.6,2.7c-.2,0-.3.2-.3.4l-.4,1.3c0,.2,0,.4.2.6h.2"/>
    <path class="st0" d="M50.5,190.2l-1.6.4-2.3.5-2.1,1-2.4.6-2.1.8-4.8.8-2,1.2h-.3c-.1,0-.3,0-.4-.1l-1.1-1s-.1,0-.2-.1c-.2-.2-.2-.5,0-.7l.7-.9h.1c0-.1,2.1-1.5,2.1-1.5h.2l2.4-.3,2.1-.8h.2l2.3-.2,2.1-1.1h2.6l2-1.1h.2l.9-.2s0,.2.1.3c.1.3.2.5.4.8.3.7.7,1.3,1.1,1.9"/>
    <path class="st0" d="M27.9,193.6c-.1,0-.3-.1-.5,0l-3.5,1c-.2,0-.3.2-.4.3l-.5,1.3c0,.2,0,.5.1.6h.2c0,.1,1,.8,1,.8,0,0,.2.1.3.1h.2l3.5-1.1c.2,0,.3-.2.3-.3l.5-1.2c.1-.3,0-.6-.2-.7l-1.1-.7h0Z"/>
    <path class="st0" d="M49.6,173v1.8c-.1.2-.2.4-.3.7-.1.3-.2.6-.4.9h-1.3c0,.1-2.4,0-2.4,0l-2.2.6-2.3.5-2.2.6h-2.4l-2.1.9h-2.7c0-.1-2.4-.2-2.4-.2l-2.1.4-2.1,1.2h-.2l-2.3.2-2.2.4h-.2l-2.3-.3-2.2.5h-2.4c-.1,0-.2,0-.3-.1l-.7-.5h-.2c-.2,0-.4,0-.6-.2-.1-.2-.1-.4,0-.6l1-1.8c.1-.2.3-.3.6-.3l2.3.4,2.2-.4,4.5-1.1,2.4-.2h2.4l2.3-.3,2.2-.4,2.4-.3,2.2-.6h2.5c0-.1,2.2-.7,2.2-.7l2.4-.2,2.1-.7h.2l2.3.2,2.4-.7v.3Z"/>
    <path class="st0" d="M14.5,163h4.8l2.3-.4,2.3.3h.2l2.2-.4h2.3l2.4.5h.2l2.3-.5h2.3c0-.1,2.4,0,2.4,0,.2,0,.4,0,.5-.3l.4-.6h0c.2,0,.4-.1.5-.3v-.6l-.9-1.1c-.1-.1-.3-.2-.5-.2h-2.4l-2.2.3-2.4-.3h-2.5l-2.2.5-2.2-.3h-.2l-2.3.4h-2.3l-2.4-.3h-.2l-2.2.3-4.7-.3c-.2,0-.4,0-.5.3l-.7,1s-.2.2-.2.3c0,.2,0,.4.1.6l.9,1c.1.1.3.2.4.2s0,0,0,0h4.7-.2Z"/>
    <path class="st0" d="M49.6,159.7v2.8h-4l-2.3.2h-2.4c-.2,0-.3-.1-.4-.3l-.7-.7c-.1,0-.2-.1-.2-.2-.1-.2-.1-.5,0-.6l.8-1c.1-.1.3-.2.5-.2h2.4c0,.1,4.7,0,4.7,0h1.7-.1Z"/>
    <path class="st0" d="M26.5,143.1l-10.6-1.4c-.2,0-.3,0-.4.1l-1,.8c-.1,0-.2.1-.3.3-.1.2,0,.4,0,.6l.9,1.2c0,.1.2.2.4.2l7.1.6,3.5.5h.3l1.2-.8c.2-.1.3-.4.2-.6,0-.1-.1-.3-.2-.3l-.9-1c0-.1-.2-.2-.4-.2"/>
  </g>
  <g>
    <path class="st0" d="M49.6,146.2v2.6h-.4l-3-.2-6.2-.8-3.1-.3-3.1-.2-3.1-.7c-.1,0-.2,0-.2-.1l-1-.9c-.2-.2-.3-.4-.2-.7.1-.2.3-.4.6-.4h0l.8-.7c.1-.1.3-.2.5-.1l3,.6,3,.5,3,.2,3.1.3,6.2.9h0Z"/>
    <path class="st0" d="M11.5,133.4h2.4l2.4.6,2.3.3,2.3.9h2.6c0-.1,4.7.9,4.7.9l2.3.9h.2c.1,0,.3,0,.4-.2l1-1c.2-.2.2-.4.1-.6,0-.1-.1-.3-.3-.3l-.3-.8c0-.2-.2-.3-.5-.4l-2.3-.4-2.3-1-2.4-.4-2.4-.6-2.4-.5-2.5-.3-2.4-.2-2.3-.5-2.3-1.1h-.2l-2.4-.4-2.4-.5c-.2,0-.3,0-.5.1l-1.5,1.1c-.2.1-.3.4-.2.6,0,.2.2.4.4.4l.5,1.5c0,.2.3.4.5.4h2.4l2.3.9,2.5.5h.3Z"/>
  </g>
  <g>
    <path class="st0" d="M49.6,137.9v2.8l-.8-.2-4.7-.8-2.3-.3-7-1.6c-.1,0-.3-.1-.4-.3l-.6-1s-.1-.2-.1-.3c0-.2,0-.4.2-.5l1.1-.8c.1-.1.3-.1.5-.1l7,1.7,2.3.3,4.7,1.2h.2,0Z"/>
    <path class="st0" d="M49.6,126.4l-2-.9-2.3-.4-2.3-1-2.2-.6-4.3-2.1h-2.4c-.3-.2-.5-.4-.5-.6l-.3-1.5v-.3c0-.2.2-.4.4-.5l1.1-.3h2.7c0,.1.2.1.3.2l2.1,1.2,2.2.6h.2l2,1.2,2.3.3s.2,0,.3.1l1.8,1.4h.2c.2,1,.5,2.2,1,3.3"/>
    <path class="st0" d="M30.5,116.3l-3.4-1.3h-.5l-1.2.7c-.2.1-.3.3-.3.5v.2l.4,1.2c0,.2.2.3.4.4l3.5,1.2h.5l1.1-.7c.2-.1.3-.4.3-.7l-.5-1.2c0-.2-.2-.3-.3-.3"/>
    <path class="st0" d="M52.6,108.5c-.4.4-.8.8-1.2,1.3-.3.4-.6.8-.9,1.2l-1.8-.7h-.1l-1.8-1.3-2.2-.5s-.2,0-.2-.1l-1.8-1.5-1.9-1.4-1.9-.9-2.4-.3h-.2l-2-1.2-2-1s-.1,0-.2-.1l-1.7-1.6-2.1-.8-2-1.4c-.1,0-.2-.2-.2-.3l-.3-.7h-.2c-.2-.2-.3-.4-.3-.6s.1-.4.3-.5l1.8-.8c.2-.1.5,0,.6.1l1.6,1.6,2,1,4.3,1.7,2.1,1.3,1.9,1.3,2,1.2,2,1,2.1,1.1,2.1.8,2.1,1.3,2.1.8.4.2v-.2Z"/>
    <path class="st0" d="M34.3,81.5l1.9,1.3,1.9,1.4,3.9,2.7,2,1.1,1.7,1.6h.1l2,1,1.8,1.4,1.7,1.7s.1,0,.2.1l2.1.9,1.9,1.2,1.8,1.5c.1,0,.2.1.4.1h.2l.7-.3c.2.1.4.1.6,0,.2-.1.3-.3.3-.5v-1.4c-.1-.2-.2-.3-.4-.4l-2-1.3-1.9-1.2-1.8-1.6-2-1.5-2.1-.9-1.6-1.6h-.1l-2.1-1-1.8-1.3-1.7-1.7h-.1l-2-1-3.6-3c-.2-.1-.4-.2-.6,0l-1.1.4h-.3c-.2.1-.3.3-.3.6v1.3c.1.2.2.3.4.4"/>
    <path class="st0" d="M71.4,104.6h-3.8l-2-1.4-1.9-1.4-2-1.2-1.9-1.5c-.1-.1-.2-.2-.2-.4v-1c-.1-.1-.1-.2-.1-.3,0-.2.2-.4.4-.5l1.2-.3c.2,0,.4,0,.5.1l1.8,1.5,5.8,4,1.9,1.5s.1.1.2.2l.2.6h0Z"/>
    <path class="st0" d="M14,67.6l1.9,1.4,1.9,1.2,1.9,1.5,1.9,1.1,1.9,1.6,2,1.1h.4l1.4-.4c.2,0,.4-.2.4-.5s0-.3-.1-.5v-1.2c.1-.2,0-.4-.1-.5l-1.9-1.3-1.9-1.1-1.8-1.6-1.9-1.2-1.9-1.3-1.9-1.4c-.2-.1-.4-.1-.6,0l-1.2.5h-.4c-.2.1-.3.3-.3.5v1.6c0,.2.1.4.3.5"/>
    <path class="st0" d="M60,76.8v-1.3c-.1-.1-.2-.3-.3-.4l-7.8-7.3c-.1-.1-.3-.2-.4-.2h-1.7c-.2,0-.3.3-.3.5v1.5c0,.2.1.3.2.4l5.4,4.6,2.6,2.5s.2.2.4.2h1.5c.2.1.4-.1.5-.3v-.4"/>
    <path class="st0" d="M79.3,97l2.3,2.1s.2.1.3.1h1.1c.2.1.3.1.4-.1.1-.2.2-.4.1-.5l-.3-1s0-.2-.1-.2l-2.2-2.2-8.9-8.6-2.3-2.1-2.4-1.9-2.2-2.1-2.1-2.3c-.1-.1-.3-.2-.5-.2h-1c-.2-.2-.5-.2-.7,0-.2.1-.3.4-.3.6l.3,1.3s0,.2.1.2l2.1,2.4,2.4,2,2.3,2,4.5,4.3,2.4,1.9,2.3,2,2.2,2.2h.2Z"/>
    <path class="st0" d="M91,104.6h-3.3l-1.2-1.1s-.1-.1-.2-.2l-.3-.9c-.2-.2-.2-.5-.1-.7.1-.2.4-.3.6-.3l1.2.3c.1,0,.2,0,.3.1l2.9,2.8h.1Z"/>
    <path class="st0" d="M48.3,53.2l2,1.4,1.3,2.1,1.7,1.8,1.9,1.4,1.6,1.9,1.7,1.6,1.3,2.1s0,.1.2.2l2,1.3,3.2,3.5,1.3,2.1c.1.2.3.3.5.3s0,0,0,0l1.4-.2c.2,0,.4-.2.5-.4v-.4l.3-.9c0-.2,0-.4-.2-.6l-1.7-1.7-1.3-2.2-1.7-1.7-1.6-1.9-1.7-1.8-1.8-1.7-1.8-1.5-1.5-1.7-1.2-2.2h-.1c0-.1-1.7-1.8-1.7-1.8l-1.6-1.8c-.1-.1-.3-.2-.4-.2h-1.9c-.2,0-.4.2-.5.4v.6l-.5,1.5c0,.2,0,.5.2.6"/>
    <path class="st0" d="M74.3,80.9l1.7,1.6,3.3,3.4,1.6,1.8,1.7,1.7s.2.1.3.2h1c0,.2.2.2.3.2h.2c.2-.1.4-.3.3-.6v-1.2c-.2,0-.2-.2-.3-.3l-1.5-2-1.7-1.6-3.1-3.7-1.7-1.6-4.7-5.4c-.1-.1-.2-.2-.4-.2h-1.3c-.2,0-.4.2-.5.4v1.5c-.1.2,0,.3,0,.4l4.7,5.4h0Z"/>
    <path class="st0" d="M97.2,87.3l-.4-.7-1.5-1.7s0-.1-.1-.2l-.9-2-1.7-1.6-1.5-2-2.6-4-1.1-2-1.7-1.7-1.3-2.2-1.5-1.7-2.2-4.2-1.8-1.5c-.2-.2-.3-.4-.2-.7l.6-1.4s0-.2.1-.2c.1-.2.4-.2.6-.2l1,.4h.2l2,1.5s.1.2.2.2l1,2.2,1.4,1.7h0l.9,2.2,1.7,1.6s.1.2.2.3l.7,2.2,1.8,1.6h0l1.3,2,1.3,1.9,1.2,2.1,1.3,2,1.1,2.2.3.5c.6.8.6,1.9,0,2.7-.2.2-.4.5-.5.6"/>
    <path class="st0" d="M76.3,57.5c0,.1.2.2.4.2h1.3c.3.1.5-.1.6-.3l.4-1.3v-.5l-2-3c0-.2-.3-.2-.4-.3h-1.4c-.2,0-.4,0-.5.2v.2l-.4,1.2v.5l2.2,3h-.2Z"/>
    <path class="st0" d="M86.2,38.4l.8,2.3,1.2,1.9.4,2.3v.2l1.1,2,.9,2.1s0,.2.1.2l1.8,1.6,1,1.8.7,2.2.6,2.3s0,.2.1.2l1.5,1.7.7,2.1h0c0,.1,1.3,2,1.3,2l1.2,2,1.3,1.8.6,2.3,1,2.2,1.2,1.9,1,2.1c0,.2.2.3.4.3l1.2.2h0c.2,0,.4-.1.5-.3v-.2l.6-.8c.1-.2.2-.4,0-.6l-1-2.3-2.5-3.7-.5-2.2v-.2l-1.3-1.8-.9-2.2-1.2-1.9-.9-2.3-1.3-1.9-1-2.1-1.1-2-.9-2.1-.8-2.2-.9-2.2-2.5-3.9-1-2-.4-2.3c0-.2-.2-.4-.5-.5l-2-.4c-.2,0-.4,0-.6.2-.1.2-.2.4,0,.6v.2c.1,0-.1.8-.1.8v.4"/>
    <path class="st0" d="M103.5,32l.7,2.2,1.6,4.5,1,2.1.4,2.2v.2l1,2,.7,2.1.4,2.3v.2l1.1,2,.8,2.1.6,2.3c0,.2.2.4.4.4l.8.2c0,.2.3.4.5.4h0c.2,0,.4-.1.5-.3l.8-1.2c0-.2.1-.3,0-.5l-.8-2.2-.9-2-.5-2.4-.8-2.4-1.2-1.9-.4-2.2v-.2l-1.1-2-.7-2.1-.4-2.3v-.2l-1-2-1.2-4.5c0-.2-.2-.4-.4-.4l-1.2-.3s-.2-.1-.3-.1c-.2,0-.4,0-.5.3l-.7,1.1c0,.2-.1.3,0,.5l.8,2.2h0Z"/>
    <path class="st0" d="M113.5,57.3s-.1.2-.2.3l-.5.8c0,.1-.1.3,0,.5l.7,2.3.9,2.1.7,2.3,1.5,4.5c0,.1.1.2.3.3l1,.6c.1,0,.2.2.4.2h0c.3,0,.5-.2.5-.4l.3-1.1v-.3l-.7-2.3-2.3-6.6-.6-2.3c0-.2-.2-.3-.3-.4l-1.2-.5c-.2,0-.4,0-.6.2"/>
    <path class="st0" d="M95.2,9l.8,2.1.7,2.3.9,2,.6,2.4,1,2.1c0,0,.2.2.3.3l1.4.5h.2c.1,0,.3,0,.4-.2.1-.1.2-.3.2-.5l.8-.9c.1-.2.2-.4.1-.6l-.8-2.2-.9-2-.6-2.3-.8-2.1-.8-2.2-.7-2.2c0-.2-.2-.3-.4-.4l-1.2-.3s-.2-.2-.3-.2c-.2,0-.4,0-.5.2l-.9,1.3c-.1.1-.1.3,0,.5l.7,2.2-.2.2Z"/>
    <path class="st0" d="M125.7,41.5h.3c.1,0,.2-.2.2-.3l.7-1.1v-.4l-1.9-10.4c0-.2-.1-.3-.3-.4l-1.1-.7c0-.1-.2-.2-.3-.2-.2,0-.5,0-.6.2l-.9,1.2c0,.1-.1.3,0,.5l1.6,6.9.6,3.5c0,.1,0,.3.2.3l1.1.9s.2.1.3.1"/>
    <path class="st0" d="M132.8,71.2v.3l-.2.5-.2.5c0,.2-.2.3-.4.3h-.1c-.1,0-.3,0-.4-.1l-.5-.4-.4-.4s-.1-.2-.2-.3l-.6-3-.5-3.1-.6-3-.8-2.9-1.1-6.1-.7-3-.8-3-.3-3.1v-.3l.5-1.2c.1-.2.3-.4.6-.4s.5.2.5.5h0l.9.5c.2,0,.3.2.3.4l.4,3,.5,3,.8,2.9.6,3,.5,3,.5,3,.6,3,1,6.1v.3Z"/>
    <path class="st0" d="M131.5,17.4l-.2,2.4.3,2.5.7,2.2.2,2.5.4,2.3v2.4c-.1,0-.1.2,0,.2l.9,2.3.5,4.6v2.4c-.2.2,0,.4.2.5l1.3.6h.3c0,0,.2,0,.3-.1.1,0,.2-.2.2-.3l.7-.6c.2-.1.2-.3.2-.6l-.4-2.3.2-2.5-.3-2.4-.2-2.4-.3-2.4-.5-2.4-.6-2.3-.2-2.3.3-2.5v-.2l-.4-2.3-.2-2.4c0-.2-.1-.3-.2-.4l-1.5-1c-.2-.1-.4-.1-.6,0s-.3.3-.3.5l-1.2.9c-.2.2-.3.4-.2.7l.8,2.2-.2.2Z"/>
    <path class="st0" d="M139.2,59.4l-.3-4.8-.4-2.3-.6-7.1c0-.2-.1-.3-.2-.4l-1.1-.8c-.2-.1-.4-.1-.6,0l-.2.2-.8.9c-.1.1-.2.3-.1.4l.6,7.1.5,2.3.6,4.7.2,2.4.4,2.3c0,.1,0,.2.2.3l.7.7c0,.2.2.3.4.4h.1c.2,0,.4-.1.5-.3l.6-1.1v-2.8l-.5-2.3v.2Z"/>
    <path class="st0" d="M153.8,44.5v2.2c.1,0,.1.1.1.2l-.5,2.2.4,2.2v.3l-.8,2.2.5,2.2v.2l-.2,2.4v2.3l-.3,2.4v2.3c-.1,0-.6,2.4-.6,2.4v1c0,.7-.5,1.3-1.2,1.2-.6,0-1.1-.5-1.2-1.1v-1.2c-.1,0-.1-.1-.1-.2l.5-2.2-.5-2.3v-2.5l.3-4.7.3-2.3-.4-2.3.2-2.5-.2-2.3.7-4.7-.6-2.3c0-.2,0-.5.3-.6l1.3-.8s.1-.1.2-.1c.2,0,.5,0,.6.2l.6.9v.2l.7,2.4v.3l-.4,2.3h.3Z"/>
    <path class="st0" d="M152.9,30c-.2-.1-.4-.2-.6,0h-.1l-1,.7c-.1.1-.2.3-.2.5v3.6c0,.2,0,.3.2.4l1,.9c.1,0,.2.1.4.1s.2,0,.4-.1l1.1-.8c.1-.1.2-.3.2-.4l.2-3.6c0-.2,0-.4-.2-.5l-1.1-.9h-.3Z"/>
    <path class="st0" d="M164.1,67.5s.2.1.3.1h.3s.1,0,.2-.1l1-.3c.2,0,.4-.2.4-.4l.5-2.4.2-4.5.9-2.1v-2.4l.5-2.3v-2.2c.1,0,.8-2.4.8-2.4v-2.2l.5-2.3.3-2.2.5-2.2.7-2.2.6-2.3.3-4.6.3-2.2,1.1-2.1c.1-.2,0-.5,0-.7l-1.4-1.5c-.1-.2-.4-.2-.6-.2s-.4.2-.4.5v.2l-.7.5c-.1,0-.2.2-.2.3l-.7,2.3-.2,2.2-1,2.1v.2l-.3,2.2-.6,2.2v.3l.5,2.3-.3,2.1-.8,2.2-.8,2.2v.3l.2,2.2-.7,2.1v2.5c-.1,0-.4,2.3-.4,2.3v2.2l-1,2.2-.5,2.3-.2,2.2-.4,2.3c0,.2,0,.4.2.5l.8.8h.1Z"/>
    <path class="st0" d="M181.1,55.7c0,.2,0,.4.2.6.1,0,.2.2.4.2h.2l1.3-.5c.2,0,.3-.2.3-.4l.6-2.3.5-2.2,1-2.2.8-2.3.2-2.3,1-2v-.2l.3-2.2.7-2.1,1.1-2.1v-.2l.4-2.2.8-2.2.9-2.2v-.6l-.8-.9c0-.1,0-.2-.2-.3-.2-.1-.4-.2-.6,0l-1.2.5c-.2,0-.3.2-.3.4l-.6,2.2-.8,2.2-1.4,4.5-.4,2.2-1,2v.2l-.3,2.2-.7,2.1-1.1,2.1v.2l-.2,2.3-.6,2.2-.9,2.2v.6l.5.6h0Z"/>
  </g>
  <g>
    <path class="st0" d="M181.6,60.4l.9-2.2v-.5l-.7-1.1c-.1-.2-.4-.2-.6-.2s-.2,0-.3.1l-.9.4c-.1,0-.3.2-.3.3l-.8,2.3-.5,2.2-.8,2.2-1.4,4.5v.4l.5,1c0,.1.1.3.2.4,0,0,.2.1.3.1s.3,0,.4-.1l.9-.7s.1-.2.2-.3l.8-2.2,2.1-6.7h0Z"/>
    <path class="st0" d="M192.7,19.5c.1.2.3.3.5.3s0,0,0,0c.2,0,.3-.1.4-.3l1.1-.3c.2,0,.4-.2.4-.4l.7-2.2.5-2.2.9-2.2.6-2.2.7-2.2.8-2.2v-.6l-.8-1c0-.1,0-.2-.2-.3s-.4-.2-.6-.1l-1.5.5c-.2,0-.3.2-.4.4l-.7,2.2-.6,2.2-.8,2.2-.5,2.1-1,2.2-.5,2.3v.4l.8,1.2.2.2Z"/>
  </g>
  <g>
    <path class="st0" d="M200.8,50.9h0c.1,0,.2,0,.3-.1l1.2-.5c.1,0,.2-.2.3-.3l4.6-9.6v-.5l-.5-1.2c0-.1,0-.3-.1-.4-.2-.2-.4-.2-.6-.2l-1.4.5c-.2,0-.3.2-.3.3l-2.8,6.5-1.6,3.2v.4l.3,1.4c0,.2.3.4.5.4"/>
    <path class="st0" d="M200.7,54.2l-1.5,2.7-1.4,2.7-1.1,2.8-1.3,2.8-1.3,2.8-1.4,2.7-1.3,2.7-2.3,4.5h-.9c-.4-.4-.8-.8-1.3-1.1l.8-1.7,1.4-2.7,1.2-2.8,1.1-2.8,2.7-5.6,1.2-2.8,1.1-2.8,1.6-2.7.2-.2,1.1-.7c.2-.1.5-.1.7,0,.1.1.2.3.2.4v.2l.4.9v.5"/>
    <path class="st0" d="M88.1,101.8s3.3,2.1,2.9,2.8c-.4.7-3.3,0-3.3,0"/>
    <polygon class="st0" points="238.5 171.3 238.5 171.3 238.5 171.3 238.5 171.3"/>
    <path class="st0" d="M107.3,212c-1.2-.7-2.5-1.4-3.9-1.4s-2.8.4-4.1,1.1c-1.2.7-2.1,1.8-2.9,3-1.3,2.2-1.2,2.3-2.5,4.5-.7,1.2-1.3,2.5-1.4,3.9,0,1.4.4,2.8,1,4s1.5,2.3,2.7,3.1c1.2.7,2.6.8,4,.8s2.8,0,4-.7,2-1.8,2.8-3.1c1.3-2.2,1.7-2,3-4.2.8-1.3.9-2.7.9-4.1s-.1-2.8-.8-4.1c-.6-1.2-1.7-2.1-3-2.8M106.2,220.7c-1.3,2.2-1.2,2.3-2.5,4.5-1.1,1.8-3.4,2.2-5.1,1.2-1.7-1-2.2-3.1-1.1-5,1.3-2.2,1.2-2.3,2.6-4.5,1.1-1.8,3.4-2.6,5.2-1.5,1.7,1,2.1,3.5,1,5.3"/>
    <path class="st0" d="M129.6,223c-.9-1-2.1-1.7-3.5-2.2-1.4-.4-2.8-.7-4.1-.4-1.4.3-2.6,1.1-3.6,2.1-1,.9-1.7,2.1-2.1,3.5-.8,2.4-1,2.4-1.8,4.8-.4,1.4-.4,2.9-.1,4.2.3,1.4,1.2,2.5,2.2,3.5.9,1,2,1.8,3.3,2.2,1.8.6,3.7.6,5.4-.2.3-.1.9-.1,1.1.2.3.6.7,1,1.3,1.4.5.4,1.1.5,1.4,0,.6-1,.4-1.1,1-2.1.2-.3.3-.9,0-1.1-.5-.6-.8-1.6.1-4.6.2-.7.5-.6.7-1.3.2-.5-.4-.9-.9-1-2.9-.9-2.8-1-5.6-1.9-.5-.2-.8.1-1,.6-.3,1.1-.6,1-.9,2.1-.2.5.2,1,.7,1.2.9.3.8.4,1.7.6.5.1.8.7.5,1.1-.9,1.2-2.7,1.9-4.2,1.4-1.9-.6-2.8-2.9-2.2-4.9.8-2.5.6-2.5,1.4-5,.6-2,2.8-3.3,4.7-2.7,1.2.4,2.3,1.4,2.6,2.7.1.4.3.7.7.7,1.2,0,1.2-.2,2.3-.2s.9-.4.8-.9c-.3-1.4-.9-2.7-1.8-3.7"/>
    <path class="st0" d="M150,225.6c-2.2-.2-2.2-.3-4.5-.5-2.2-.2-2.2,0-4.5-.3-.5,0-1,.3-1,.8-.2,2.3,0,2.3-.2,4.6-.2,2.3-.6,2.3-.8,4.6-.1,1.5-.3,3.1-.4,4.6-.2,2.3,0,2.4-.1,4.7,0,.5.3,1.1.9,1.1,2.2.2,2.2,0,4.5.1,2.2.2,2.3.2,4.5.3.5,0,.9-.2.9-.7,0-1.1.1-1.1.2-2.2,0-.5-.3-1.1-.8-1.1-2.2-.2-2.2,0-4.4-.3-.8,0-1.4-.7-1.4-1.5s-.1-.7,0-1.3c0-.8,1-1.4,1.7-1.3,1.4.1,1.4.2,2.8.3.5,0,.8-.4.8-.9,0-1.1.4-1.1.5-2.2,0-.5-.4-.9-1-.9-1.4-.1-1.4-.4-2.8-.5-.8,0-1.3-.5-1.2-1.3v-1.3c0-.7.7-1.1,1.5-1,2.2.2,2.2-.2,4.4,0,.5,0,.8-.2.8-.8,0-1.1.2-1.1.3-2.2,0-.5-.3-.9-.8-.9"/>
    <path class="st0" d="M169,224.1c-2.9.3-2.9.5-5.8.9q-2.9.3-5.9.6c-.5,0-1.1.6-1,1.1.1,1.1.5,1.1.6,2.1,0,.5.4.7.9.6,1.2-.1,1.3,0,2.5-.1.7,0,1.4.5,1.5,1.2.3,2.3.2,2.3.5,4.6.3,2.3.4,2.3.7,4.6.3,2.3,0,2.3.2,4.7,0,.5.8.9,1.3.9,1.1-.1,1.1,0,2.2-.1.5,0,.7-.7.6-1.2-.3-2.3,0-2.4-.3-4.6q-.3-2.3-.6-4.6c-.2-1.5-.4-3.1-.5-4.6,0-.8.4-1.4,1.2-1.5,1.2-.1,1.3,0,2.5-.1.5,0,1.1-.8,1-1.3-.1-1.1-.2-1.1-.4-2.2,0-.5-.6-1-1.2-1"/>
    <path class="st0" d="M193.4,232.5q-.8-2.2-1.6-4.3c-.8-2.2-.9-2.1-1.7-4.3-.8-2.2-.7-2.2-1.4-4.4-.2-.5-.8-1-1.3-.8-1,.4-.9.6-2,1-.5.2-.8.7-.6,1.2,1.1,3.1,1.4,3,2.4,6,.3.7-.3,1.7-1,2-1.4.5-1.5.3-2.9.8-.7.3-1.7,0-2-.7-1.1-3.1-1.1-3-2.2-6.1-.2-.5-.4-.7-.9-.6-1.1.4-1,.5-2,.9-.5.2-1,.6-.9,1.1.8,2.2,1.2,2,2,4.2s.3,2.4,1,4.5q.8,2.2,1.5,4.4c.8,2.2,1.2,2,2,4.2.2.5.5.9,1,.8,1-.4,1-.5,2-.9.5-.2.6-.6.4-1.1-.8-2.4-.4-2.6-1.3-5-.3-.7,0-1.4.6-1.6,1.4-.5,1.4-.4,2.8-.9.7-.3,1.3,0,1.5.8.6,1.6,1.2,3.2,1.7,4.9.2.5.8.5,1.3.3,1.1-.4,1.1-.3,2.1-.6.5-.2.6-.5.4-1-.8-2.2-.4-2.3-1.2-4.5"/>
    <path class="st0" d="M211.6,225.4c-.3-.4-.8-.7-1.3-.4-1.9,1.1-1.8,1.2-3.8,2.4-.7.4-1.6.2-2-.4-.3-.6-.5-.5-.8-1-.4-.7,0-1.7.6-2.1,1.2-.7,1.2-.6,2.5-1.4.4-.3.4-.7.1-1.2-.6-1-.3-1.1-.9-2-.3-.5-.9-.5-1.3-.2-1.2.7-1.4.5-2.6,1.2-.7.4-1.4.3-1.7-.3-.3-.6-.4-.5-.7-1.1-.4-.6,0-1.3.6-1.7,1.9-1.1,1.7-1.5,3.6-2.6.5-.3.5-.6.2-1.1-.6-.9-.5-1-1-1.9-.3-.4-.7-.6-1.2-.3-1.9,1.1-2,1-3.9,2.2-1.9,1.1-1.9,1.2-3.8,2.4-.5.3-.6.8-.3,1.3,1.2,2,1.4,1.9,2.5,3.9,1.2,2,.8,2.2,2,4.2.8,1.3,1.6,2.7,2.4,4,1.2,2,1.4,1.9,2.6,3.9.3.4.9.7,1.3.4,1.9-1.1,1.8-1.4,3.7-2.5q1.9-1.2,3.8-2.3c.5-.3.6-.6.3-1.1-.6-1-.5-1-1.1-1.9"/>
    <path class="st0" d="M93.6,208c.4.4,1.3.3,1.7,0,.7-.8.7-.9,1.4-1.7.4-.4.4-1.2,0-1.5-2.1-2-2.3-1.9-4.4-3.9-2.2-2-2.1-2.1-4.3-4.1-.4-.4-1.1-.4-1.5,0-.8.8-.5,1-1.3,1.8-.4.4-.3.7,0,1.1.9.9.8,1,1.7,1.9s.5,1.4,0,2q-1.6,1.7-3.2,3.4c-1.6,1.7-1.5,1.8-3.1,3.4-1.6,1.7-1.8,1.5-3.4,3.1-.4.4-.2,1.2.2,1.6.8.8.7.8,1.5,1.6.4.4,1,0,1.3-.3,1.6-1.7,1.8-1.5,3.4-3.2q1.6-1.7,3.2-3.4c1.1-1.1,2.1-2.3,3.2-3.4.5-.6,1.3-.5,1.9,0,.9.9.8,1,1.7,1.8"/>
    <path class="st0" d="M229.7,210.3c-.3-.4-.8-.6-1.2-.4-1.4,1-3-.2-3.9-1.5-1.2-1.9-1.1-4.3-2.8-6-2.4-2.4-7.1-2.5-9.6-.2-2.3,2.1-2.1,2.3-4.3,4.4-.4.4-.5.9-.2,1.3,1.6,1.7,1.6,1.8,3.2,3.5s1.8,1.6,3.4,3.3c1.6,1.7,1.5,1.8,3.1,3.5s1.5,1.8,3.2,3.5c.3.4,1.1.6,1.5.2.8-.7.7-.9,1.5-1.6.4-.3.6-1.2.2-1.6-1.5-1.6-1.8-1.4-3.3-3-.5-.6-.4-1.4.2-2s.5-.5.8-.7c.5-.5,1.3-.8,1.9-.3.7.5,1.3,1.3,2.1,1.5,2.3.8,4.4,0,5.8-1,.4-.3.3-1,0-1.4-.8-.9-.8-.8-1.6-1.7M219.2,209.7c-.6.6-.7.4-1.3,1-.6.5-1.3.5-1.8,0-1-1.1-1.1-1-2.1-2.1-1.6-1.7,1-3,2.4-3.5,1.1-.4,2.2,0,2.9,1,.7,1.1,1.1,2.7,0,3.7"/>
    <path class="st0" d="M95.3,121.2l-1.3-1.6c-1-1.3-2.2-1.9-3.9-1.9h-27.6c-.4,0-.7.2-.9.5s-.2.7-.2,1.2.2,1.4.5,1.9c.8,1.8,1.1,3.9,1.1,6.7v43.1c0,3.3,0,6.6-1.4,9.5-.3.7-.4,1.4-.2,1.8.2.5.7.7,1.6.8h25.8c3.1,0,5.3-1.2,7-3.7.2-.2.3-.4.5-.6h.2c1.3-1.6,1.8-3.1,1.7-5.3v-17.4c0-2.1-.5-3.6-1.6-4.9-.7-.7-.9-1.1-.9-1.5s.2-.8.9-1.4c1.8-1.8,2-4.1,2-5.9v-13.3c0-4.4,0-4.5-3-8.1M74.4,138v-2.4c0-2.5,1.1-3.8,3.2-3.8h6.9c.5,0,.9,0,1.1.4.2.3.3.6.3,1.3v8.3c0,.5-.2.8-.3,1-.2.3-.5.4-.9.4h-8.7c-1.6,0-1.7-.2-1.8-1.9v-3.1M86,167.3c0,.6,0,1-.3,1.2-.2.3-.5.4-1.2.4h-8.7c-.5,0-.9,0-1.2-.4-.2-.2-.2-.6-.2-1v-8.3c0-1.9.2-2,1.9-2h8.5c.5,0,.8,0,.9.3.2.3.3.6.3,1.2v8.7"/>
    <path class="st0" d="M125.4,147.1c-.3-.2-.7-.1-1.2.1-.3,0-.5.2-.8.3-.7.3-1.2.5-1.8.5h-9.4c-.6,0-.9-.2-.9-.7v-5.6c0-2.1,0-.3.2-.4.1,0,.3-.1.4-.1h2.5c1.9-.1,3.7-.2,5.4.8.3.2.5.3.8.2.3-.1.4-.4.5-.8v-8.1c0-.9-.1-1.3-.4-1.5s-.7-.1-1.4.2c-.9.5-1.7.9-2.7.9h-4.1q-1.1,0-1.2-1.1v-4.5c0-1.3.1-1.4,1.4-1.4h6.7c1.6,0,3.3,0,4.8.8.5.2.9.3,1.1.1.3-.2.4-.6.4-1.2v-6.2c0-1.4-.2-1.5-1.6-1.5h-21.3c-.3,0-.4.1-.6.3-.1.2-.2.4-.1.7,0,.3.1.6.2.9.9,1.4.9,2.9.8,4.7v26.3c0,6.6-.2,2.4-.8,3.5-.3.7-.5,1.2-.3,1.6s.8.4,1.6.5h20.1c.9,0,1.5,0,1.7-.4.4-.3.4-.9.4-1.9,0-1.9,0-3.7-.1-5.6,0-.6-.1-1-.4-1.2"/>
    <path class="st0" d="M149.6,117.9h-18.2c-.5,0-.9,0-1.1.3-.2.2-.2.5-.2,1,.1,1.1,0,2.3,0,3.4v1.8c0,.6,0,1,.3,1.2s.7,0,1.2-.1c1.1-.5,2.3-.7,3.8-.6,1.4,0,1.5,0,1.5,1.5v18.9c0,1.6,0,3.2-.8,4.7-.2.4-.3.7-.1.8,0,.2.4.4,1,.4h6.8c.6,0,1,0,1.1-.3.2-.3,0-.7-.2-1.2-.7-1.3-.9-2.6-.6-4v-20.6s.2-.1.4-.1h.2c1.3,0,2.7-.2,4,.4.3.2.7.3,1.1.4.3,0,.6,0,.8-.1.1,0,.3-.3.3-.7v-6c0-.7-.4-1-1.1-1"/>
    <path class="st0" d="M173.9,117.9h-18.2c-.5,0-.9,0-1.1.3-.2.2-.2.5-.2,1,.1,1.1,0,2.3,0,3.4v1.8c0,.6,0,1,.3,1.2s.7,0,1.2-.1c1.1-.5,2.3-.7,3.8-.6,1.4,0,1.5,0,1.5,1.5v18.9c0,1.6,0,3.2-.8,4.7-.2.4-.3.7-.1.8,0,.2.4.4,1,.4h6.8c.6,0,1,0,1.1-.3.2-.3,0-.7-.2-1.2-.7-1.3-.9-2.6-.6-4v-20.6s.2-.1.4-.1h.2c1.3,0,2.7-.2,4,.4.3.2.7.3,1.1.4.3,0,.6,0,.8-.1.1,0,.3-.3.3-.7v-6c0-.7-.4-1-1.1-1"/>
    <path class="st0" d="M202.6,148.3c0-.6-.1-1-.4-1.2s-.7-.1-1.2.1c-.3,0-.5.2-.8.3-.7.3-1.2.5-1.8.5h-9.4c-.6,0-.9-.2-.9-.7v-5.6c0-2.1,0-.3.2-.4.1,0,.3-.1.4-.1h2.5c1.9-.1,3.7-.2,5.4.8.3.2.5.3.8.2.3-.1.4-.4.5-.8v-8.1c0-.9-.1-1.3-.4-1.5s-.7-.1-1.4.2c-.9.5-1.7.9-2.7.9h-4.1q-1.1,0-1.2-1.1v-4.5c0-1.3.1-1.4,1.4-1.4h6.7c1.6,0,3.3,0,4.8.8.5.2.9.3,1.1.1.3-.2.4-.6.4-1.2v-6.2c0-1.4-.2-1.5-1.6-1.5h-21.3c-.3,0-.4.1-.6.3-.1.2-.2.4-.1.7,0,.3.1.6.2.9.9,1.4.9,2.9.8,4.7v26.3c0,6.6-.2,2.4-.8,3.5-.3.7-.5,1.2-.3,1.6s.8.4,1.6.5h20.1c.9,0,1.5,0,1.7-.4.4-.3.4-.9.4-1.9,0-1.9,0-3.7-.1-5.6"/>
    <path class="st0" d="M247.2,180.7c-.4-.6-.8-1-1.2-1.5-1.6-1.8-2.7-4.1-3.4-7-1.1-4-2.4-8-3.4-11.5v-.2c-.8-2.5-.4-4.7,1.3-6.6,1.4-1.7,2-3.4,2-5.7v-20.4c0-4,0-4.1-2.6-6.7-.2-.3-.5-.6-.9-.9-.2-.3-.5-.5-.6-.7-.7-1.1-1.6-1.6-3.1-1.6h-27.6c-.9,0-1.4,0-1.6.6-.2.4-.2,1,.2,2,0,.4.2.8.5,1.3.6,1.6.9,3.2.9,5.5v43.5c0,3.6,0,6.9-1.3,10.2-.4.8-.5,1.4-.3,1.8.3.5.9.6,1.6.6h11.6c.8,0,1.3,0,1.5-.5.2-.4.2-.9,0-1.9v-.2l-.3-.9c-1.2-2.3-1.3-4.9-1.2-7.1v-12.6c0-1.7.2-1.9,1.7-1.9h2.7c1.7,0,2.9.9,3.4,2.8.7,2.7,1.5,5.3,2.2,7.8l2.1,7.2c.5,1.7.9,3.3.2,5.2-.3.6-.3,1.1-.2,1.5.2.4.7.6,1.4.6h13.7c.5,0,1.2,0,1.4-.6.2-.5,0-1-.4-1.9M220.5,144c-.5,0-.9-.2-1.1-.5s-.3-.7-.3-1.4v-8.9c0-1.6.2-1.8,1.6-1.8h8.5c.8,0,1.2.5,1.2,1.4v9.8c0,.9-.4,1.4-1.2,1.4h-8.8,0Z"/>
    <path class="st0" d="M197.2,188c-.6,0-1.4.5-2.9,2h-.1c-.3.4-.6.8-.9,1.1-.1.2-.3.3-.4.5l-.2.3c-.3.4-.7.8-1,1.1l-.4.4-.6.6-.5.5h-.1c-.1.1-.2-.1-.3-.1-.1-.1-.3-.2-.4-.3-.1,0-.3-.2-.4-.2-.4-.2-.8-.4-1.1-.7h-.1c-1.2-.9-2.4-1.7-3.2-1-.2.2-.3.5-.4.7h0c-.1.4-.3.6-.4.8-.2.3-.4.7-.7,1.1-.5.7-.9,1.5-1.3,2.2-.2.5-.5.9-.8,1.4l-.2.4c-.3.5-.7,1.2-.8,1.3-.2.3-.4.6-.5.9-.6,1.1-2.1,4.1-2.1,5.1s.2.6.4.7c.2.2.5.2.6.3.1.1.3.2.5.2h.1c.3,0,.8-.2,1.3-.8.2-.2.4-.4.6-.7l.5-.5c.8-1,1.8-2,3-3.2.4-.3.7-.7,1-1l.5-.5h0c.1,0,.2.2.4.2.3.2.7.4,1,.6.4.3.9.5,1.4.8.2.1.4.2.5.3.2.1.3.2.5.3.3.2,1.2.7,1.9-.4.2-.4.4-.8.6-1.2.2-.5.4-.9.7-1.2.7-.8,1.2-1.7,1.6-2.6.2-.3.3-.6.5-.9l.3-.5c.4-.7.8-1.4,1.2-2,.1-.2.3-.4.4-.6.2-.3.4-.7.6-1,.3-.4.5-.8.6-1.2,0-.1.1-.3.2-.4,0,0,0-.1.1-.2.2-.3.5-.7.4-1.3-.1-.8-.7-1.3-1.5-1.4"/>
    <path class="st0" d="M113.7,201.9c.2-.1.4-.2.5-.3.5-.3.9-.5,1.4-.8.3-.2.6-.4,1-.6.1,0,.2-.1.4-.2h0c.1.2.3.3.5.5.3.3.6.7,1,1,1.3,1.2,2.3,2.2,3,3.2.2.2.3.4.5.5.2.2.4.4.6.7.5.7,1,.8,1.3.8s0,0,.1,0c.2,0,.3,0,.5-.2.2,0,.4,0,.6-.3.1,0,.3-.3.4-.7,0-1-1.5-4-2.1-5.1,0-.3-.3-.6-.5-.9,0-.1-.5-.8-.8-1.3,0-.1-.2-.3-.2-.4-.3-.5-.5-.9-.8-1.4-.4-.7-.8-1.5-1.3-2.2-.3-.4-.5-.8-.7-1.1-.1-.2-.3-.5-.4-.7h0v-.2c0-.2-.2-.5-.4-.7-.8-.7-2,0-3.2.9h-.1c-.4.3-.7.5-1.1.8-.1,0-.3.1-.4.2-.1,0-.3.2-.4.3,0,0-.2.1-.3.2h-.1c-.2-.3-.3-.4-.5-.6l-.6-.6-.4-.4c-.3-.4-.7-.8-1-1.1l-.2-.3c-.1-.2-.3-.3-.4-.5-.3-.4-.6-.7-.9-1h-.1c-1.5-1.6-2.3-2.1-2.9-2.1s-1.4.6-1.5,1.4c0,.6.2,1,.4,1.3v.2c.1.1.2.3.3.4.2.4.3.8.6,1.2.2.3.4.6.6,1,.1.2.3.4.4.6.4.6.8,1.3,1.2,2l.3.5c.2.3.3.6.5.9.5.9,1,1.9,1.6,2.6.3.3.5.8.7,1.2.2.4.4.8.6,1.2.7,1.1,1.6.6,1.9.4.2,0,.3-.2.5-.3"/>
    <path class="st0" d="M132.5,187.8h0"/>
    <path class="st0" d="M169.2,191c.1-2.9,3.5-5.7,4.9-7.9,1.6-2.5,4.3-4.5,6.7-6.4.9-.7,8.3-4.5,8-5,.1-.8-1.7-2.3-2.4-2.4-1.1-.2-2.5,1.4-3.5,1.8-1.9.8-3.4,1.6-5.1,2.8-1.9,1.5-3.7,3-5.5,4.7-.8.7-1.5,1.4-2.2,2.2-.7.8-1,1.7-1.6,2.7-1,1.7-2.6,3.2-3.4,5-.2.4-.3,1.6-.7,1.8-.5.2-1.3-.5-1.7-.8-1.5-1.1-2-2.7-2.1-4.5.2,1.3,1.2,3.7,1,.8,0-.6-.1-1.2-.2-1.8,0-.1-.3-.4-.3-.4,0-.3.5-1.1.7-1.4,0,.5,1.2-.7,1.2-.8.5-.7.5-1.6.9-2.3.2-.3,1.1-1.2.7-1.6-.5-.6-1,1.1-1.4,1.3.3-.6.5-1.3.8-1.9.6.4,1-.1,1.3-.7.7-1,.6-2.1.9-3.3.2-1.1.8-2.1.9-3.2,0-.6-.6-2.7-.4-2.8,0,.3,0,.5.2.7.6.3.3-1.5.2-1.6-.2-1.2-.4-2.4-.8-3.5-.9-2.2-2.6-4.4-5-5.2-4.4-1.4-8.6,2.2-9.9,6.3-1.6,5,.6,9.4,2.5,14,1,2.4,2.9,5.4,3,8.1,0,2.1-1.4,5-3.8,4.9-3.5-.1-8.2.9-9.5-3.6-.8-2.8,1.5-4.2,1.9-6.6.4-2.3,1.7-4.4,2.4-6.7,1.3-4.4,2.4-10-.9-13.9-3.2-3.8-8.6-3.1-11.4.8-3.6,4.9-1.6,11,.2,16.2.5,1.5,1.1,2.9,1.7,4.3.6,1.2,1.6,2.4,2,3.7.6,2-1.2,5.1-3.2,5.6,0-1.1-.9-2.1-1.3-3-.6-1.4-1.2-2.5-2.1-3.7-1.5-2.1-3-4.1-4.8-6-.8-.9-1.6-1.7-2.6-2.4-1-.7-2.2-1.1-3.2-1.9-1.7-1.3-3.1-2.3-5.2-3-.8-.2-1.7-1.2-2.4-1.3-.9-.1-1.7,1.1-2.2,1.7-.8.9-.8,1.1.3,1.6,1.2.6,2.3,1.3,3.5,1.9,2.3,1.2,4.5,2.7,6.4,4.4.8.7,1.8,1.5,2.5,2.3.3.3,1.2,2,1.7,1.1.2.3-.1.5,0,.6.3.4.5.7.9,1,.8.8,1.4,1.4,1.9,2.5.3.5.6,1,.8,1.5h0c0,.1.1.2.2.3.3.6,1,1.5,1.3,2.3-.7,0-2.7-.4-3.3.2-.3.3-.4,2.1-.2,2.4.7,1.6,3.7-.5,4.9.9.5.5.6,2.1.8,2.8.4,1.4.5,2.8.8,4.3.2,1.4.5,2.8.8,4.2.2.8.4,2.9,1,3.4.9.8,3.7,1.1,3.7-.4s-.6-2.4-.8-3.4c-.3-1.3-.6-2.7-.8-4-.2-1.4-.6-2.7-.9-4.1-.2-.6-1-2.3-.9-2.9.1-.9,1.1-1.1,1.8-1.6,1.1-.8,1.8-1.9,2.3-3.1,1.2,4,5.6,4.4,9.1,4.4s7.1-.6,8.5-4.3c.6,1.4,1.6,2.6,2.9,3.3,1.1.7,1.4.8,1,2.1-.9,2.9-1.4,5.7-2,8.7-.3,1.3-.5,2.7-1,3.9-.4,1.1-.8,1.6.5,1.9.5.1,2.5.5,2.9.1.7-.5.6-2.2.8-3,.3.5.7-1.3.7-1.6.2-.8.2-1.7.3-2.6,0,.9.5,1.6.7.3.2-.9-.7-1.1-.5-1.9.6.3.8-.3,1-.8,0-.1-.1-.4-.1-.5,0-.2.4-.3.5-.5.3-.9.2-1.9.4-2.7.2-.7.3-2,.7-2.5.3-.3.2,0,.6-.2.3,0,.7.1,1,.1.6,0,0-.3.6-.3s.4.4.9,0c.3-.3.4-.6.3-1,0-1.5-1.4-1.2-2.5-1.2M166.4,170.6c0,.2,0,.3-.1.5s0,.9-.4,1c0-.3.2-1.3.5-1.4M165.3,173.9c.1.4-.2.9-.3,1.2-.1-.1.3-1.1.3-1.2M140.5,179.3l1.3,2.4c.1.3,0,.3,0,.7-1.3-4.6-4-8.6-4.8-13.5-.4-2.6.2-5.6,2.1-7.6.6-.6,1.2-.8,2.1-.9.4,0,1.6,0,.8-.7.3,0,.6,0,.9.2-.4.4.7.8,1.5,1-.5.1-.1,1.5.7,1,0,.2-.2,1.1.3.8-.2.8.8,2.1,1,2.9.5,2.4-.4,4.2-.9,6.5-.4,2-.9,4.4-1.8,6.3-.4.7-2.1,2.4-1.8,3.3M159.3,182.3c-1.3-4.6-4-8.6-4.8-13.5-.4-2.6.2-5.6,2.1-7.6.6-.6,1.2-.8,2.1-.9.4,0,1.6,0,.8-.7.3,0,.6,0,.9.2-.4.4.7.8,1.5,1-.5.1-.1,1.5.7,1,0,.2-.2,1.1.3.8-.2.8.8,2.1,1,2.9.5,2.4-.4,4.2-.9,6.5-.4,2-.9,4.4-1.8,6.3-.4.7-2.1,2.4-1.8,3.3.1.3,0,.3,0,.7M165.9,199c0-.2,0-.4.1-.6.4.2.1.4-.1.6M166.4,197v.3c-.1,0-.1-.1,0-.3"/>
    <path class="st0" d="M124.2,88.6q.3,1.9.6,3.8c.3,1.9.4,1.9.7,3.7.3,1.9,0,1.9.3,3.8s.3,1.9.6,3.8c0,.3,0,.5-.3.6-1,.5-.9.7-1.9,1.2-.3.1-.8,0-1-.3q-.8-1-1.7-2c-.4-.4-1-.1-.9.4.2,1.3,0,1.3.3,2.6,0,.3,0,.7-.4.9-1,.5-1.1.3-2.1.8-.3.1-.6.2-.8,0-1.3-1.4-1.4-1.3-2.7-2.7-1.2-1.5-.9-1.7-2.2-3.2q-1.3-1.4-2.6-2.8c-1.3-1.4-1.3-1.3-2.6-2.8-.3-.4-.2-.9.3-1.1.7-.3.7-.5,1.4-.8.5-.2.9,0,1.3.4q1.3,1.5,2.6,2.9c1.3,1.5,1.3,1.4,2.6,2.9.4.4,1.2,0,1.1-.5-.2-1.4-.5-1.3-.7-2.7,0-.3-.2-.5-.4-.7-1.3-1.5-1.2-1.5-2.5-3-.3-.4-.2-1.2.3-1.4,1.9-.9,2-.8,3.9-1.7.5-.2.9.2,1,.7q.3,1.9.6,3.9c0,.3.3.6.5.9.9,1.1.9,1,1.9,2.1.4.4,1.2,0,1.1-.5-.3-1.9-.4-1.9-.7-3.8q-.3-1.9-.6-3.8c0-.5,0-1.1.5-1.3.7-.3.9,0,1.6-.4.4-.2,1.1-.1,1.2.4"/>
    <path class="st0" d="M140.8,97.7c.2.9.1.9.3,1.7,0,.4-.1.6-.5.7q-1.7.4-3.5.8c-1.7.4-1.7.6-3.4.9-.4,0-.8-.2-.9-.6-.4-1.8-.6-1.8-1-3.6-.3-1.2-.5-2.4-.8-3.6-.4-1.8,0-1.9-.4-3.7-.4-1.8-.5-1.8-.9-3.6,0-.4.1-.8.6-.9q1.7-.4,3.5-.8c1.8-.4,1.8-.3,3.5-.6.4,0,.7.1.8.5.2.9.1.9.3,1.7,0,.4,0,.7-.4.8-1.7.4-1.7.6-3.4,1-.6.1-1,.5-.9,1.1.1.5.2.5.3,1,.1.6.6.8,1.2.7,1.1-.2,1.1,0,2.2-.2.4,0,.9,0,.9.5.2.8,0,.9.1,1.8,0,.4,0,.8-.4.9q-1.1.2-2.2.4c-.6.1-1.1.8-1,1.4.1.5.2.5.3,1,.1.6.8.9,1.4.8q1.7-.4,3.4-.8c.4,0,.8.3.9.7"/>
    <path class="st0" d="M161.9,99.7c-.8,0-.8.1-1.6,0-.5,0-.9-.5-1-1-.2-.9-.3-.8-.5-1.7,0-.5-.3-.8-.8-.8-1.1,0-1.1-.2-2.2-.3-.5,0-1,.3-1.1.8-.3.8-.4.8-.6,1.6-.2.4-.5.7-1,.7-.8,0-.8.1-1.6,0-.5,0-.7-.6-.5-1.1.6-1.8.5-1.8,1.1-3.6.6-1.8.4-1.8,1-3.6.6-1.8.7-1.7,1.3-3.5.6-1.8.7-1.8,1.3-3.5.2-.5.6-.8,1.1-.8.9,0,.9.2,1.8.2s.9.3,1,.8c.4,1.8.3,1.9.6,3.7.4,1.8.7,1.8,1.1,3.6q.4,1.8.8,3.7c.4,1.8.1,1.9.5,3.7,0,.5-.2.9-.7.9M158,93.1c-.3-1.4,0-1.4-.3-2.8,0-.3-.7-.3-.8,0-.5,1.3-.3,1.4-.7,2.7-.5,1.4,1.9.8,1.8.1"/>
    <path class="st0" d="M177.9,103c-.1.4-.5.8-.9.6-1.3-.5-2.7-1.6-3.1-3.5-.1-.7,0-1.4.2-2.1,0-.5-.5-1-1-1.1-.2,0-.5-.2-.8-.3-.6-.2-1.2,0-1.4.7-.5,1.7-.2,1.8-.7,3.4-.1.4-.8.6-1.2.5-.8-.3-.9-.1-1.7-.3-.4-.1-.6-.7-.5-1.1.5-1.8.6-1.8,1.1-3.6.5-1.8.6-1.8,1.1-3.6.5-1.8.4-1.9.9-3.7.5-1.8.6-1.8,1.1-3.6.1-.4.5-.5,1-.4,2.3.7,2.4.5,4.8,1.2,2.6.8,4.5,4,3.8,6.6-.5,1.9-2.2,2.7-3,4.4-.5,1.2-.7,2.7.6,3.3.3.1.3.6.2.9-.3.9-.2.9-.5,1.8M176.5,89.9c-.8-.7-2.8-2-3.3-.2-.3,1.1-.2,1.1-.6,2.3-.2.6.1,1.1.7,1.3.6.2.6.3,1.2.5,1.1.3,2-.6,2.5-1.5.4-.9.2-1.7-.5-2.4"/>
    <path class="st0" d="M190,106.9c-.4.8-.5.8-.9,1.5-.2.4-.5.4-.9.2q-1.6-.8-3.2-1.6c-1.6-.8-1.7-.7-3.2-1.5-.4-.2-.5-.7-.3-1.1.9-1.6.7-1.7,1.6-3.4.6-1.1,1.2-2.2,1.7-3.3.9-1.6,1.2-1.5,2-3.1.9-1.6.7-1.7,1.6-3.3.2-.4.6-.5,1-.3q1.6.8,3.2,1.6c1.6.8,1.5,1,3.1,1.8.4.2.5.6.3.9-.4.8-.5.7-.9,1.5-.2.4-.5.5-.8.3-1.5-.8-1.7-.6-3.2-1.4-.5-.3-1.1-.3-1.4.3q-.2.5-.4.9c-.3.5,0,1,.5,1.3,1,.5.9.7,1.9,1.2.4.2.6.6.4,1-.4.8-.6.7-1,1.4-.2.4-.5.6-.9.4-1-.5-1-.6-1.9-1.1-.5-.3-1.4-.1-1.7.4-.2.5-.1.5-.4,1s0,1.2.5,1.5q1.6.8,3.1,1.6c.4.2.4.7.2,1.1"/>
  </g>
</svg>