<?xml version="1.0" encoding="UTF-8"?>
<svg id="Layer_1" xmlns="http://www.w3.org/2000/svg" version="1.1" viewBox="0 0 338 53">
  <!-- Generator: Adobe Illustrator 29.1.0, SVG Export Plug-In . SVG Version: 2.1.0 Build 142)  -->
  <defs>
    <style>
      .st0 {
        fill: #fff;
      }
    </style>
  </defs>
  <path class="st0" d="M33.6,19.6l-2,1.6c-1.5-2.2-4-3.5-6.9-3.5-6.5,0-10.9,4.8-10.9,11.3s4.2,11.3,10.9,11.3,6.1-1.6,7.6-4l2,1.5c-2.5,3.4-5.8,4.7-9.6,4.7-7.9,0-13.3-5.8-13.3-13.5s5.5-13.5,13.3-13.5,6.6,1.2,8.9,4Z"/>
  <path class="st0" d="M70.3,29.1c0,7.7-5.4,13.5-13.3,13.5s-13.3-5.8-13.3-13.5,5.4-13.5,13.3-13.5,13.3,5.8,13.3,13.5ZM57,40.4c6.6,0,10.9-4.9,10.9-11.3s-4.2-11.3-10.9-11.3-10.9,4.9-10.9,11.3,4.3,11.3,10.9,11.3Z"/>
  <path class="st0" d="M85.7,16.3l9.4,21.6,9.4-21.6h3.4v25.7h-2.4v-22.7h0l-9.8,22.7h-1.1l-10-22.7h0v22.7h-2.4v-25.7h3.6Z"/>
  <path class="st0" d="M123.6,16.3v25.7h-2.4v-25.7h2.4Z"/>
  <path class="st0" d="M140.4,16.3l15.7,22.5h0v-22.5h2.4v25.7h-3.1l-15.7-22.5h0v22.5h-2.4v-25.7h3.1Z"/>
  <path class="st0" d="M193.1,19.2l-1.7,1.8c-1.6-2-4.9-3.2-7.5-3.2-6.6,0-10.9,4.9-10.9,11.3s4.3,11.3,10.9,11.3,5.2-.3,7.2-1.5v-8.6h-6.2v-2.2h8.6v12.2c-3,1.7-6.2,2.3-9.6,2.3-7.9,0-13.3-5.8-13.3-13.5s5.4-13.5,13.3-13.5,6.9,1.2,9.3,3.6Z"/>
  <path class="st0" d="M225.6,16.3v25.7h-2.4v-25.7h2.4Z"/>
  <path class="st0" d="M242.4,16.3l15.7,22.5h0v-22.5h2.4v25.7h-3.1l-15.7-22.5h0v22.5h-2.4v-25.7h3.1Z"/>
  <path class="st0" d="M291.1,16.3v2.2h-8.8v23.5h-2.4v-23.5h-8.8v-2.2h20Z"/>
  <path class="st0" d="M326.7,29.1c0,7.7-5.4,13.5-13.3,13.5s-13.3-5.8-13.3-13.5,5.4-13.5,13.3-13.5,13.3,5.8,13.3,13.5ZM313.4,40.4c6.6,0,10.9-4.9,10.9-11.3s-4.2-11.3-10.9-11.3-10.9,4.9-10.9,11.3,4.3,11.3,10.9,11.3Z"/>
</svg>