<?xml version="1.0" encoding="UTF-8"?>
<svg id="Layer_1" xmlns="http://www.w3.org/2000/svg" version="1.1" viewBox="0 0 935.5 143.3">
  <!-- Generator: Adobe Illustrator 29.1.0, SVG Export Plug-In . SVG Version: 2.1.0 Build 142)  -->
  <defs>
    <style>
      .st0 {
        fill: none;
        stroke: #6ea3a2;
        stroke-miterlimit: 10;
      }

      .st1 {
        fill: #6ea3a2;
      }
    </style>
  </defs>
  <rect class="st1" x="696.9" y="57.9" width="2.7" height="43.4"/>
  <rect class="st1" x="548.6" y="57.9" width="2.7" height="43.4"/>
  <rect class="st1" x="89" y="57.9" width="39.8" height="43.4"/>
  <rect class="st1" x="16.7" y="57.9" width="39.8" height="43.4"/>
  <rect class="st1" x="161.3" y="57.9" width="39.8" height="43.4"/>
  <rect class="st1" x="215.6" y="57.9" width="21.2" height="43.4"/>
  <rect class="st1" x="360.2" y="57.9" width="21.2" height="43.4"/>
  <rect class="st1" x="389.1" y="57.9" width="10.6" height="43.4"/>
  <rect class="st1" x="407.1" y="57.9" width="10.6" height="43.4"/>
  <rect class="st1" x="425.2" y="57.9" width="10.6" height="43.4"/>
  <rect class="st1" x="443.2" y="57.9" width="10.6" height="43.4"/>
  <rect class="st1" x="461.2" y="57.9" width="10.6" height="43.4"/>
  <rect class="st1" x="479.3" y="57.9" width="10.6" height="43.4"/>
  <rect class="st1" x="497.3" y="57.9" width="10.6" height="43.4"/>
  <rect class="st1" x="515.3" y="57.9" width="10.6" height="43.4"/>
  <rect class="st1" x="533.3" y="57.9" width="10.6" height="43.4"/>
  <rect class="st1" x="324" y="57.9" width="21.2" height="43.4"/>
  <rect class="st1" x="287.9" y="57.9" width="21.2" height="43.4"/>
  <rect class="st1" x="251.7" y="57.9" width="21.2" height="43.4"/>
  <rect class="st1" x="557.8" y="57.9" width="2.7" height="43.4"/>
  <rect class="st1" x="567.1" y="57.9" width="2.7" height="43.4"/>
  <rect class="st1" x="576.4" y="57.9" width="2.7" height="43.4"/>
  <rect class="st1" x="585.7" y="57.9" width="2.7" height="43.4"/>
  <rect class="st1" x="594.9" y="57.9" width="2.7" height="43.4"/>
  <rect class="st1" x="604.2" y="57.9" width="2.7" height="43.4"/>
  <rect class="st1" x="613.5" y="57.9" width="2.7" height="43.4"/>
  <rect class="st1" x="622.7" y="57.9" width="2.7" height="43.4"/>
  <rect class="st1" x="632" y="57.9" width="2.7" height="43.4"/>
  <rect class="st1" x="641.3" y="57.9" width="2.7" height="43.4"/>
  <rect class="st1" x="650.6" y="57.9" width="2.7" height="43.4"/>
  <rect class="st1" x="659.8" y="57.9" width="2.7" height="43.4"/>
  <rect class="st1" x="669.1" y="57.9" width="2.7" height="43.4"/>
  <rect class="st1" x="678.4" y="57.9" width="2.7" height="43.4"/>
  <rect class="st1" x="687.6" y="57.9" width="2.7" height="43.4"/>
  <polygon class="st1" points="721.6 78.4 736.3 85.7 750.9 78.4 736.3 71.1 721.6 78.4"/>
  <polygon class="st1" points="780.3 78.4 765.6 71.1 750.9 78.4 765.6 85.7 780.3 78.4"/>
  <polygon class="st1" points="750.9 49.1 743.7 63.8 750.9 78.4 758.2 63.8 750.9 49.1"/>
  <polygon class="st1" points="743.7 93.1 750.9 107.7 758.2 93.1 750.9 78.4 743.7 93.1"/>
  <polygon class="st1" points="791.5 78.4 806.2 85.7 820.8 78.4 806.2 71.1 791.5 78.4"/>
  <polygon class="st1" points="850.2 78.4 835.5 71.1 820.8 78.4 835.5 85.7 850.2 78.4"/>
  <polygon class="st1" points="820.8 49.1 813.6 63.8 820.8 78.4 828.1 63.8 820.8 49.1"/>
  <polygon class="st1" points="813.6 93.1 820.8 107.7 828.1 93.1 820.8 78.4 813.6 93.1"/>
  <g>
    <polygon class="st0" points="863.7 78.4 877.6 85.3 891.5 78.4 877.6 71.5 863.7 78.4"/>
    <polygon class="st0" points="920.8 78.4 906.9 71.5 893 78.4 906.9 85.3 920.8 78.4"/>
    <polygon class="st0" points="892.2 49.8 885.3 63.8 892.2 77.7 899.1 63.8 892.2 49.8"/>
    <polygon class="st0" points="892.2 107 899.1 93.1 892.2 79.2 885.3 93.1 892.2 107"/>
  </g>
</svg>