<?xml version="1.0" encoding="UTF-8"?>
<svg id="Layer_1" xmlns="http://www.w3.org/2000/svg" version="1.1" viewBox="0 0 908.2 61">
  <!-- Generator: Adobe Illustrator 29.1.0, SVG Export Plug-In . SVG Version: 2.1.0 Build 142)  -->
  <defs>
    <style>
      .st0 {
        fill: none;
        stroke: #6ea3a2;
        stroke-miterlimit: 10;
      }

      .st1 {
        fill: #6ea3a2;
      }
    </style>
  </defs>
  <rect class="st1" x="681" y="10.4" width="2.7" height="43.4"/>
  <rect class="st1" x="532.7" y="10.4" width="2.7" height="43.4"/>
  <rect class="st1" x="73.1" y="10.4" width="39.8" height="43.4"/>
  <rect class="st1" x=".8" y="10.4" width="39.8" height="43.4"/>
  <rect class="st1" x="145.4" y="10.4" width="39.8" height="43.4"/>
  <rect class="st1" x="199.7" y="10.4" width="21.2" height="43.4"/>
  <rect class="st1" x="344.3" y="10.4" width="21.2" height="43.4"/>
  <rect class="st1" x="373.2" y="10.4" width="10.6" height="43.4"/>
  <rect class="st1" x="391.2" y="10.4" width="10.6" height="43.4"/>
  <rect class="st1" x="409.3" y="10.4" width="10.6" height="43.4"/>
  <rect class="st1" x="427.3" y="10.4" width="10.6" height="43.4"/>
  <rect class="st1" x="445.3" y="10.4" width="10.6" height="43.4"/>
  <rect class="st1" x="463.4" y="10.4" width="10.6" height="43.4"/>
  <rect class="st1" x="481.4" y="10.4" width="10.6" height="43.4"/>
  <rect class="st1" x="499.4" y="10.4" width="10.6" height="43.4"/>
  <rect class="st1" x="517.4" y="10.4" width="10.6" height="43.4"/>
  <rect class="st1" x="308.1" y="10.4" width="21.2" height="43.4"/>
  <rect class="st1" x="272" y="10.4" width="21.2" height="43.4"/>
  <rect class="st1" x="235.8" y="10.4" width="21.2" height="43.4"/>
  <rect class="st1" x="541.9" y="10.4" width="2.7" height="43.4"/>
  <rect class="st1" x="551.2" y="10.4" width="2.7" height="43.4"/>
  <rect class="st1" x="560.5" y="10.4" width="2.7" height="43.4"/>
  <rect class="st1" x="569.8" y="10.4" width="2.7" height="43.4"/>
  <rect class="st1" x="579" y="10.4" width="2.7" height="43.4"/>
  <rect class="st1" x="588.3" y="10.4" width="2.7" height="43.4"/>
  <rect class="st1" x="597.6" y="10.4" width="2.7" height="43.4"/>
  <rect class="st1" x="606.8" y="10.4" width="2.7" height="43.4"/>
  <rect class="st1" x="616.1" y="10.4" width="2.7" height="43.4"/>
  <rect class="st1" x="625.4" y="10.4" width="2.7" height="43.4"/>
  <rect class="st1" x="634.7" y="10.4" width="2.7" height="43.4"/>
  <rect class="st1" x="643.9" y="10.4" width="2.7" height="43.4"/>
  <rect class="st1" x="653.2" y="10.4" width="2.7" height="43.4"/>
  <rect class="st1" x="662.5" y="10.4" width="2.7" height="43.4"/>
  <rect class="st1" x="671.7" y="10.4" width="2.7" height="43.4"/>
  <polygon class="st1" points="705.7 30.9 720.4 38.2 735 30.9 720.4 23.6 705.7 30.9"/>
  <polygon class="st1" points="764.4 30.9 749.7 23.6 735 30.9 749.7 38.2 764.4 30.9"/>
  <polygon class="st1" points="735 1.6 727.8 16.3 735 30.9 742.3 16.3 735 1.6"/>
  <polygon class="st1" points="727.8 45.6 735 60.2 742.3 45.6 735 30.9 727.8 45.6"/>
  <polygon class="st1" points="775.6 30.9 790.3 38.2 804.9 30.9 790.3 23.6 775.6 30.9"/>
  <polygon class="st1" points="834.3 30.9 819.6 23.6 804.9 30.9 819.6 38.2 834.3 30.9"/>
  <polygon class="st1" points="804.9 1.6 797.7 16.3 804.9 30.9 812.2 16.3 804.9 1.6"/>
  <polygon class="st1" points="797.7 45.6 804.9 60.2 812.2 45.6 804.9 30.9 797.7 45.6"/>
  <g>
    <polygon class="st0" points="847.8 30.9 861.7 37.8 875.6 30.9 861.7 24 847.8 30.9"/>
    <polygon class="st0" points="904.9 30.9 891 24 877.1 30.9 891 37.8 904.9 30.9"/>
    <polygon class="st0" points="876.3 2.3 869.4 16.3 876.3 30.2 883.2 16.3 876.3 2.3"/>
    <polygon class="st0" points="876.3 59.5 883.2 45.6 876.3 31.7 869.4 45.6 876.3 59.5"/>
  </g>
</svg>