<?xml version="1.0" encoding="UTF-8"?>
<svg id="Layer_1" xmlns="http://www.w3.org/2000/svg" version="1.1" viewBox="0 0 987.1 726.8">
  <!-- Generator: Adobe Illustrator 29.1.0, SVG Export Plug-In . SVG Version: 2.1.0 Build 142)  -->
  <defs>
    <style>
      .st0 {
        fill: #231f20;
      }

      .st1 {
        fill: none;
        stroke: #231f20;
        stroke-width: .8px;
      }

      .st2 {
        fill: #6ea3a2;
      }
    </style>
  </defs>
  <path class="st2" d="M49.6,128.4c0,4.9,4.9,4.1,8.1,4.1s8.6,3.2,8.6,9.1-5,12.5-12.5,12.5-14.5-6.9-14.5-15.6,4.3-25.7,30.7-29.1l.4,3.7c-16.8,2.4-20.8,10.2-20.8,15.2ZM86.5,128.4c0,4.9,4.9,4.1,8.1,4.1s8.6,3.2,8.6,9.1-5,12.5-12.5,12.5-14.5-6.9-14.5-15.6,4.3-25.7,30.7-29.1l.4,3.7c-16.8,2.4-20.8,10.2-20.8,15.2Z"/>
  <g>
    <path class="st0" d="M112.8,173.2c0-18.2,15.7-34.7,33-34.7s20.3,7.8,20.3,21.2-15.6,34.6-33,34.6-20.3-7.8-20.3-21.1ZM157.3,158.6c0-11.6-4-17.9-11.2-17.9-12.8,0-24.6,16.2-24.6,33.6s4,17.8,11.2,17.8c12.8,0,24.6-16.1,24.6-33.5Z"/>
    <path class="st0" d="M179.7,173.1l4.8-14.7c4.6-14.2,5.4-15.9-2.3-16.2l.4-2h22.6l-.5,2c-7.8.3-8,2-12.6,16.2l-4.6,14c-4.1,12.7.4,19.1,8.3,19.1s16.3-6.8,20.1-18.4l4.8-14.8c4.6-14.2,4.3-15.9-4.6-16.2l.7-2.1h21.9l-.7,2.1c-8.4.3-9.9,1.9-14.5,16.2l-4.7,14.5c-4.4,13.5-12.5,21.4-25.4,21.4s-17.6-9.1-13.6-21.2Z"/>
    <path class="st0" d="M259.8,167.3c-1.9,0-4,0-5.9-.2l-2.4,7.5c-4.8,14.7-4.4,16.4,3,16.2l-.7,2.1h-23.5l.7-2.1c8.2-.2,8-1.3,12.9-16.2l5.3-16.2c4.6-14,4.2-16-2.3-16.2l.7-2h18.8c5.7,0,20.4.3,20.4,11.7s-9,13.3-19.6,14.5c11.7,2.4,6.7,23,12.8,23s3.5-3,3.8-5.8h1.9c-.2,4.8-2.4,10.4-9.1,10.4-16.3,0-1-26.7-16.7-26.7ZM254.7,165c1.3,0,2.3,0,3.3,0,10.8,0,20.1-4.9,20.1-13.7s-4.6-8.9-11.3-8.9h-4.7l-7.4,22.6Z"/>
    <path class="st0" d="M333.4,173.2c0-18.2,15.7-34.7,33-34.7s20.3,7.8,20.3,21.2-15.6,34.6-33,34.6-20.3-7.8-20.3-21.1ZM378,158.6c0-11.6-4-17.9-11.2-17.9-12.8,0-24.6,16.2-24.6,33.6s4,17.8,11.2,17.8c12.8,0,24.6-16.1,24.6-33.5Z"/>
    <path class="st0" d="M402.2,174.6l5.3-16.2c4.6-14,4.2-16-2.3-16.2l.7-2h20.8c13.9,0,20.1,4.6,20.1,12.2,0,11.5-14.1,16.6-28.1,16.6s-4.3-.1-6.9-.4l-2,6.1c-4.8,14.7-4.4,16.4,3,16.2l-.7,2.1h-23.5l.7-2.1c8.2-.2,8-1.3,12.9-16.2ZM412.4,166.5c1.9.1,4,.3,5.9.3,11.7,0,19.7-5.1,19.7-15.2s-3.2-9.1-11.8-9.1h-5.9l-7.9,24Z"/>
    <path class="st0" d="M457.8,174.6l5.3-16.2c4.6-14,4.2-16-2.3-16.2l.7-2h41.5l-3.5,12.8h-1.7c-.4-7.5-3.5-10.5-13.2-10.5h-8.6l-7.5,22.9h4.9c6.6,0,10-1.4,13.6-10.1h2l-7.2,22.3h-2.1c2.1-8.6-.4-10-7-10h-4.9l-2.4,7.2c-4.6,14.1-4.6,16,6.6,16h.2c10,0,16.7-6,22.9-14.7l1.6.7-6.9,16.2h-45.6l.7-2.1c8.2-.2,8-1.3,12.9-16.2Z"/>
    <path class="st0" d="M530.5,167.3c-1.9,0-4,0-5.9-.2l-2.4,7.5c-4.8,14.7-4.4,16.4,3,16.2l-.7,2.1h-23.5l.7-2.1c8.2-.2,8-1.3,12.9-16.2l5.3-16.2c4.6-14,4.2-16-2.3-16.2l.7-2h18.8c5.7,0,20.4.3,20.4,11.7s-9,13.3-19.6,14.5c11.7,2.4,6.7,23,12.8,23s3.5-3,3.8-5.8h1.9c-.2,4.8-2.4,10.4-9.1,10.4-16.3,0-1-26.7-16.7-26.7ZM525.3,165c1.3,0,2.3,0,3.3,0,10.8,0,20.1-4.9,20.1-13.7s-4.6-8.9-11.3-8.9h-4.7l-7.4,22.6Z"/>
    <path class="st0" d="M581.4,175.7l26-36.7h1.8l2.7,37.1c1,13.1.8,14.4,8.6,14.7l-.7,2.1h-24l.7-2.1c8.3-.2,8.2-1,7.2-13.9v-2.1h-18.2l-.7,1c-9.2,13.1-10,14.9-1.6,15l-.7,2.1h-20.1l.7-2.1c7.1-.2,8.8-1.5,18.4-15.1ZM603.3,172.6l-1.6-21-14.8,21h16.4Z"/>
    <path class="st0" d="M645.9,174.6l10.5-32.2h-2.6c-10.3,0-14.6,4.3-22.2,16.7l-1.5-.4,6.2-18.6h49.3l-4.6,18.6h-1.7c.4-12.8-2.1-16.4-9.7-16.4h-5.5l-10.3,32.2c-4.5,14.2-5.2,15.9,4.6,16.2l-.7,2.1h-27.5l.7-2.1c10-.2,10.4-1.9,15-16.2Z"/>
    <path class="st0" d="M692.9,174.6l5.3-16.2c4.6-14.3,4.1-15.9-2.3-16.2l.7-2h22.6l-.7,2c-8.1.2-8.3,2.4-12.8,16.2l-5.3,16.2c-5,15.3-3.9,16,2.3,16.2l-.7,2.1h-22.7l.7-2.1c7.9-.3,7.8-.8,12.8-16.2Z"/>
    <path class="st0" d="M721.1,173.2c0-18.2,15.7-34.7,33-34.7s20.3,7.8,20.3,21.2-15.6,34.6-33,34.6-20.3-7.8-20.3-21.1ZM765.6,158.6c0-11.6-4-17.9-11.2-17.9-12.8,0-24.6,16.2-24.6,33.6s4,17.8,11.2,17.8c12.8,0,24.6-16.1,24.6-33.5Z"/>
    <path class="st0" d="M791.4,174.6l10.1-31c-1-.7-2.4-1.1-4.1-1.2l-4.7-.2.7-2.1h17.9l15.3,37.5,6.3-19.3c4.6-14.2,4.3-15.9-5.3-16.2l.7-2.1h22.6l-.7,2.1c-8.4.3-9.9,1.9-14.5,16.2l-11.5,35.4h-.9l-16.4-40.3c-1.3-3-2.1-5.5-3.2-7.5l-9.4,28.7c-4.6,14.2-4.3,15.9,5.3,16.2l-.7,2.1h-22.6l.7-2.1c8.4-.3,9.9-1.9,14.5-16.2Z"/>
    <path class="st0" d="M848.2,180.9c0-4.9,2.8-7.9,6.4-7.9s5.5,2.4,5.5,5.1c0,4.9-5.8,4.3-5.8,6.2s2.4,7.5,11.7,7.5,12.7-4.1,12.7-9.7c0-13.4-19.6-15-19.6-28.8s8.5-14.7,18.4-14.7,11.1,4.1,14,4.1,3.2-1.5,4.3-3.6h1.5l-6.4,19.2h-2.1c2.8-11.8-1.3-17.5-11.4-17.5s-10.7,3.4-10.7,8.9c0,11,19.7,13.5,19.7,28.1s-8.9,16.5-20.3,16.5-17.9-8.6-17.9-13.4Z"/>
    <path class="st0" d="M112.9,262c0-19.3,15.3-34.8,34.7-34.8s12.5,4.3,16.2,4.3,3.5-2.4,4.6-4.4h1.5l-7.1,21.2h-2c3.2-15.4-5.1-19-12.4-19-15.1,0-26.7,16.5-26.7,33.1s4.3,17.3,14.2,17.3,18.3-6.9,22.3-17.2l2.1.9c-5.7,13.7-15.3,19.5-26.6,19.5s-21.1-7.9-21.1-20.9Z"/>
    <path class="st0" d="M175.1,261.7c0-18.2,15.7-34.7,33-34.7s20.3,7.8,20.3,21.2-15.6,34.6-33,34.6-20.3-7.8-20.3-21.1ZM219.6,247.1c0-11.6-4-17.9-11.2-17.9-12.8,0-24.6,16.2-24.6,33.6s4,17.8,11.2,17.8c12.8,0,24.6-16.1,24.6-33.5Z"/>
    <path class="st0" d="M245.5,263.1l10.1-31c-1-.7-2.4-1.1-4.1-1.2l-4.7-.2.7-2.1h17.9l15.3,37.5,6.3-19.3c4.6-14.2,4.3-15.9-5.3-16.2l.7-2.1h22.6l-.7,2.1c-8.4.3-9.9,1.9-14.5,16.2l-11.5,35.4h-.9l-16.4-40.3c-1.3-3-2.1-5.5-3.2-7.5l-9.4,28.7c-4.6,14.2-4.3,15.9,5.3,16.2l-.7,2.1h-22.6l.7-2.1c8.4-.3,9.9-1.9,14.5-16.2Z"/>
    <path class="st0" d="M323.9,263.1l10.5-32.2h-2.6c-10.3,0-14.6,4.3-22.2,16.7l-1.5-.4,6.2-18.6h49.3l-4.6,18.6h-1.7c.4-12.8-2.1-16.4-9.7-16.4h-5.5l-10.3,32.2c-4.5,14.2-5.2,15.9,4.6,16.2l-.7,2.1h-27.5l.7-2.1c10-.2,10.4-1.9,15-16.2Z"/>
    <path class="st0" d="M370.9,263.1l5.3-16.2c4.6-14.3,4.1-15.9-2.3-16.2l.7-2h22.6l-.7,2c-8.1.2-8.3,2.4-12.8,16.2l-5.3,16.2c-5,15.3-3.9,16,2.3,16.2l-.7,2.1h-22.7l.7-2.1c7.9-.3,7.8-.8,12.8-16.2Z"/>
    <path class="st0" d="M404.9,263.1l10.1-31c-1-.7-2.4-1.1-4.1-1.2l-4.7-.2.7-2.1h17.9l15.3,37.5,6.3-19.3c4.6-14.2,4.3-15.9-5.3-16.2l.7-2.1h22.6l-.7,2.1c-8.4.3-9.9,1.9-14.5,16.2l-11.5,35.4h-.9l-16.4-40.3c-1.3-3-2.1-5.5-3.2-7.5l-9.4,28.7c-4.6,14.2-4.3,15.9,5.3,16.2l-.7,2.1h-22.6l.7-2.1c8.4-.3,9.9-1.9,14.5-16.2Z"/>
    <path class="st0" d="M469.7,261.6l4.8-14.7c4.6-14.2,5.4-15.9-2.3-16.2l.4-2h22.6l-.5,2c-7.8.3-8,2-12.6,16.2l-4.6,14c-4.1,12.7.4,19.1,8.3,19.1s16.3-6.8,20.1-18.4l4.8-14.8c4.6-14.2,4.3-15.9-4.6-16.2l.7-2.1h21.9l-.7,2.1c-8.4.3-9.9,1.9-14.5,16.2l-4.7,14.5c-4.4,13.5-12.5,21.4-25.4,21.4s-17.6-9.1-13.6-21.2Z"/>
    <path class="st0" d="M533.9,263.1l5.3-16.2c4.6-14,4.2-16-2.3-16.2l.7-2h41.5l-3.5,12.8h-1.7c-.4-7.5-3.5-10.5-13.2-10.5h-8.6l-7.5,22.9h4.9c6.6,0,10-1.4,13.6-10.1h2l-7.2,22.3h-2.1c2.1-8.6-.4-10-7-10h-4.9l-2.4,7.2c-4.6,14.1-4.6,16,6.6,16h.2c10,0,16.7-6,22.9-14.7l1.6.7-6.9,16.2h-45.6l.7-2.1c8.2-.2,8-1.3,12.9-16.2Z"/>
    <path class="st0" d="M635.6,263.1l10.5-32.2h-2.6c-10.3,0-14.6,4.3-22.2,16.7l-1.5-.4,6.2-18.6h49.3l-4.6,18.6h-1.7c.4-12.8-2.1-16.4-9.7-16.4h-5.5l-10.3,32.2c-4.5,14.2-5.2,15.9,4.6,16.2l-.7,2.1h-27.5l.7-2.1c10-.2,10.4-1.9,15-16.2Z"/>
    <path class="st0" d="M679.2,261.7c0-18.2,15.7-34.7,33-34.7s20.3,7.8,20.3,21.2-15.6,34.6-33,34.6-20.3-7.8-20.3-21.1ZM723.7,247.1c0-11.6-4-17.9-11.2-17.9-12.8,0-24.6,16.2-24.6,33.6s4,17.8,11.2,17.8c12.8,0,24.6-16.1,24.6-33.5Z"/>
    <path class="st0" d="M132.9,344.3c-1.9,0-4,0-5.9-.2l-2.4,7.5c-4.8,14.7-4.4,16.4,3,16.2l-.7,2.1h-23.5l.7-2.1c8.2-.2,8-1.3,12.9-16.2l5.3-16.2c4.6-14,4.2-16-2.3-16.2l.7-2h18.8c5.7,0,20.4.3,20.4,11.7s-9,13.3-19.6,14.5c11.7,2.4,6.7,23,12.8,23s3.5-3,3.8-5.8h1.9c-.2,4.8-2.4,10.4-9.1,10.4-16.3,0-1-26.7-16.7-26.7ZM127.7,342c1.3,0,2.3,0,3.3,0,10.8,0,20.1-4.9,20.1-13.7s-4.6-8.9-11.3-8.9h-4.7l-7.4,22.6Z"/>
    <path class="st0" d="M179,351.7l5.3-16.2c4.6-14,4.2-16-2.3-16.2l.7-2h41.5l-3.5,12.8h-1.7c-.4-7.5-3.5-10.5-13.2-10.5h-8.6l-7.5,22.9h4.9c6.6,0,10-1.4,13.6-10.1h2l-7.2,22.3h-2.1c2.1-8.6-.4-10-7-10h-4.9l-2.4,7.2c-4.6,14.1-4.6,16,6.6,16h.2c10,0,16.7-6,22.9-14.7l1.6.7-6.9,16.2h-45.6l.7-2.1c8.2-.2,8-1.3,12.9-16.2Z"/>
    <path class="st0" d="M235.7,351.7l5.3-16.2c4.6-14.1,4.2-15.9-2.3-16.2l.7-2h23.4l-.7,2c-8.7,0-8.8,1.7-13.5,16.2l-5.3,16.2c-4.9,14.9-5.8,16,6.6,16s18.8-8.6,23.9-16.6l1.6.7-8,18.1h-45.3l.7-2c7.9-.2,7.9-1,12.8-16.2Z"/>
    <path class="st0" d="M292.3,351.7l5.3-16.2c4.6-14.3,4.1-15.9-2.3-16.2l.7-2h22.6l-.7,2c-8.1.2-8.3,2.4-12.8,16.2l-5.3,16.2c-5,15.3-3.9,16,2.3,16.2l-.7,2.1h-22.7l.7-2.1c7.9-.3,7.8-.8,12.8-16.2Z"/>
    <path class="st0" d="M329.5,352.7l26-36.7h1.8l2.7,37.1c1,13.1.8,14.4,8.6,14.7l-.7,2.1h-24l.7-2.1c8.3-.2,8.2-1,7.2-13.9v-2.1h-18.2l-.7,1c-9.2,13.1-10,14.9-1.6,15l-.7,2.1h-20.1l.7-2.1c7.1-.2,8.8-1.5,18.4-15.1ZM351.4,349.6l-1.6-21-14.8,21h16.4Z"/>
    <path class="st0" d="M390.1,351.7l5.3-16.2c4.6-14.3,4.1-15.9-2.3-16.2l.7-2h21.2c10-.2,17.8,2.4,17.8,11s-6,12.5-15.2,14.1c6.6.8,13,4.1,13,12.4s-8.3,15.2-23.3,15.2h-30.6l.7-2.1c7.9-.3,7.8-.8,12.8-16.2ZM422.5,353.7c0-6.4-3.8-9.8-13.6-9.8h-8.8l-2.5,7.7c-4.9,15.2-5.1,16,5.2,16h3.3c9.7,0,16.3-5.8,16.3-13.9ZM400.9,341.7h6.5c12.5,0,17.4-6.6,17.4-13.5s-2.9-8.8-11.8-8.8h-4.8l-7.3,22.3Z"/>
    <path class="st0" d="M449.4,351.7l5.3-16.2c4.6-14.1,4.2-15.9-2.3-16.2l.7-2h23.4l-.7,2c-8.7,0-8.8,1.7-13.5,16.2l-5.3,16.2c-4.9,14.9-5.8,16,6.6,16s18.8-8.6,23.9-16.6l1.6.7-8,18.1h-45.3l.7-2c7.9-.2,7.9-1,12.8-16.2Z"/>
    <path class="st0" d="M509.9,351.7l2.1-6.6-4.3-12.5c-3.5-10.3-3.7-13-10.9-13.3l.7-2.1h24l-.7,2.1c-8.3.1-7.7,1.3-4.7,10.8l3.4,10.5,8-8.7c10.8-11.7,10.3-12.5,2.2-12.6l.7-2.1h20.1l-.7,2.1c-6.2.2-7.9.6-18.9,12.8l-11,12.2-2.4,7.4c-5.1,15.6-3.8,15.9,2.3,16.2l-.7,2.1h-22.7l.7-2.1c7.7-.3,7.7-.6,12.8-16.2Z"/>
    <path class="st0" d="M560.9,367.8c7.9-.3,7.8-.8,12.8-16.2l5.3-16.2c4.6-14.3,4.1-15.9-2.3-16.2l.7-2,20.5-.2c14.7-.1,24.5,7.6,24.5,20.2,0,19.8-15.1,33.6-42.6,33l-19.5-.4.7-2.1ZM613.8,336.1c0-9.9-4.8-16.8-15.2-16.8h-6.6l-12.3,37.7c-3.1,9.5-2.4,10.7,6.7,10.7,15,0,27.4-13,27.4-31.6Z"/>
    <path class="st0" d="M631.5,351.7l5.3-16.2c4.6-14,4.2-16-2.3-16.2l.7-2h41.5l-3.5,12.8h-1.7c-.4-7.5-3.5-10.5-13.2-10.5h-8.6l-7.5,22.9h4.9c6.6,0,10-1.4,13.6-10.1h2l-7.2,22.3h-2.1c2.1-8.6-.4-10-7-10h-4.9l-2.4,7.2c-4.6,14.1-4.6,16,6.6,16h.2c10,0,16.7-6,22.9-14.7l1.6.7-6.9,16.2h-45.6l.7-2.1c8.2-.2,8-1.3,12.9-16.2Z"/>
    <path class="st0" d="M681.6,351.7l5.3-16.2c4.6-14.1,4.2-15.9-2.3-16.2l.7-2h23.4l-.7,2c-8.7,0-8.8,1.7-13.5,16.2l-5.3,16.2c-4.9,14.9-5.8,16,6.6,16s18.8-8.6,23.9-16.6l1.6.7-8,18.1h-45.3l.7-2c7.9-.2,7.9-1,12.8-16.2Z"/>
    <path class="st0" d="M731.5,351.7l5.3-16.2c4.6-14.3,4.1-15.9-2.3-16.2l.7-2h22.6l-.7,2c-8.1.2-8.3,2.4-12.8,16.2l-5.3,16.2c-5,15.3-3.9,16,2.3,16.2l-.7,2.1h-22.7l.7-2.1c7.9-.3,7.8-.8,12.8-16.2Z"/>
    <path class="st0" d="M759.1,319.3l.7-2.1h24l-.7,2.1c-8.3.2-8.2,1-7.2,13.9l1.9,25.3,17-24.3c9.2-13.1,10-14.9,1.6-15l.7-2.1h20.1l-.7,2.1c-7.1.2-8.8,1.5-18.4,15.1l-26,36.7h-1.8l-2.7-37.1c-1-13.1-.8-14.4-8.6-14.7Z"/>
    <path class="st0" d="M815.4,351.7l5.3-16.2c4.6-14,4.2-16-2.3-16.2l.7-2h41.5l-3.5,12.8h-1.7c-.4-7.5-3.5-10.5-13.2-10.5h-8.6l-7.5,22.9h4.9c6.6,0,10-1.4,13.6-10.1h2l-7.2,22.3h-2.1c2.1-8.6-.4-10-7-10h-4.9l-2.4,7.2c-4.6,14.1-4.6,16,6.6,16h.2c10,0,16.7-6,22.9-14.7l1.6.7-6.9,16.2h-45.6l.7-2.1c8.2-.2,8-1.3,12.9-16.2Z"/>
    <path class="st0" d="M881.5,344.3c-1.9,0-4,0-5.9-.2l-2.4,7.5c-4.8,14.7-4.4,16.4,3,16.2l-.7,2.1h-23.5l.7-2.1c8.2-.2,8-1.3,12.9-16.2l5.3-16.2c4.6-14,4.2-16-2.3-16.2l.7-2h18.8c5.7,0,20.4.3,20.4,11.7s-9,13.3-19.6,14.5c11.7,2.4,6.7,23,12.8,23s3.5-3,3.8-5.8h1.9c-.2,4.8-2.4,10.4-9.1,10.4-16.3,0-1-26.7-16.7-26.7ZM876.3,342c1.3,0,2.3,0,3.3,0,10.8,0,20.1-4.9,20.1-13.7s-4.6-8.9-11.3-8.9h-4.7l-7.4,22.6Z"/>
    <path class="st0" d="M117,440.2l5.3-16.2c4.6-14,4.2-16-2.3-16.2l.7-2h20.8c13.9,0,20.1,4.6,20.1,12.2,0,11.5-14.1,16.6-28.1,16.6s-4.3-.1-6.9-.4l-2,6.1c-4.8,14.7-4.4,16.4,3,16.2l-.7,2.1h-23.5l.7-2.1c8.2-.2,8-1.3,12.9-16.2ZM127.2,432c1.9.1,4,.3,5.9.3,11.7,0,19.7-5.1,19.7-15.2s-3.2-9.1-11.8-9.1h-5.9l-7.9,24Z"/>
    <path class="st0" d="M169,438.8c0-18.2,15.7-34.7,33-34.7s20.3,7.8,20.3,21.2-15.6,34.6-33,34.6-20.3-7.8-20.3-21.1ZM213.6,424.2c0-11.6-4-17.8-11.2-17.8-12.8,0-24.6,16.2-24.6,33.6s4,17.8,11.2,17.8c12.8,0,24.6-16.1,24.6-33.5Z"/>
    <path class="st0" d="M232.1,407.8l.7-2.1h24l-.7,2.1c-8.4.1-8.2,1.3-7.2,13.9l1.9,25.4,19.4-28.1c-.4-9.9-1.3-10.9-8.1-11.2l.7-2.1h24l-.7,2.1c-8.9.2-7.7,1-7.6,13.9l.2,25.3,16.2-24c9.1-13.5,10.5-15.1,1.8-15.3l.7-2.1h20.1l-.7,2.1c-6.7.1-9.3,1.7-18.7,15.4l-24.8,36.4h-2.2l-.8-36.2-24.7,36.2h-2.2l-2.7-37.1c-1-13.1-.8-14.4-8.6-14.7Z"/>
    <path class="st0" d="M322.3,440.2l5.3-16.2c4.6-14,4.2-16-2.3-16.2l.7-2h41.5l-3.5,12.8h-1.7c-.4-7.5-3.5-10.5-13.2-10.5h-8.6l-7.5,22.9h4.9c6.6,0,10-1.4,13.6-10.1h2l-7.2,22.3h-2.1c2.1-8.6-.4-10-7-10h-4.9l-2.4,7.2c-4.6,14.1-4.6,16,6.6,16h.2c10,0,16.7-6,22.9-14.7l1.6.7-6.9,16.2h-45.6l.7-2.1c8.2-.2,8-1.3,12.9-16.2Z"/>
    <path class="st0" d="M395,432.9c-1.9,0-4,0-5.9-.2l-2.4,7.5c-4.8,14.7-4.4,16.4,3,16.2l-.7,2.1h-23.5l.7-2.1c8.2-.2,8-1.3,12.9-16.2l5.3-16.2c4.6-14,4.2-16-2.3-16.2l.7-2h18.8c5.7,0,20.4.3,20.4,11.7s-9,13.3-19.6,14.5c11.7,2.4,6.7,23,12.8,23s3.5-3,3.8-5.8h1.9c-.2,4.8-2.4,10.4-9.1,10.4-16.3,0-1-26.7-16.7-26.7ZM389.9,430.5c1.3,0,2.3,0,3.3,0,10.8,0,20.1-4.9,20.1-13.7s-4.6-8.9-11.3-8.9h-4.7l-7.4,22.6Z"/>
    <path class="st0" d="M486.1,440.2l10.5-32.2h-2.6c-10.3,0-14.6,4.3-22.2,16.7l-1.5-.4,6.2-18.6h49.3l-4.6,18.6h-1.7c.4-12.8-2.1-16.4-9.7-16.4h-5.5l-10.3,32.2c-4.5,14.2-5.2,15.9,4.6,16.2l-.7,2.1h-27.5l.7-2.1c10-.2,10.4-1.9,15-16.2Z"/>
    <path class="st0" d="M529.8,438.8c0-18.2,15.7-34.7,33-34.7s20.3,7.8,20.3,21.2-15.6,34.6-33,34.6-20.3-7.8-20.3-21.1ZM574.3,424.2c0-11.6-4-17.8-11.2-17.8-12.8,0-24.6,16.2-24.6,33.6s4,17.8,11.2,17.8c12.8,0,24.6-16.1,24.6-33.5Z"/>
    <path class="st0" d="M112.8,527.3c0-18.2,15.7-34.7,33-34.7s20.3,7.8,20.3,21.2-15.6,34.6-33,34.6-20.3-7.8-20.3-21.1ZM157.3,512.7c0-11.6-4-17.9-11.2-17.9-12.8,0-24.6,16.2-24.6,33.6s4,17.8,11.2,17.8c12.8,0,24.6-16.1,24.6-33.5Z"/>
    <path class="st0" d="M179.7,527.1l4.8-14.7c4.6-14.2,5.4-15.9-2.3-16.2l.4-2h22.6l-.5,2c-7.8.3-8,2-12.6,16.2l-4.6,14c-4.1,12.7.4,19.1,8.3,19.1s16.3-6.8,20.1-18.4l4.8-14.8c4.6-14.2,4.3-15.9-4.6-16.2l.7-2.1h21.9l-.7,2.1c-8.4.3-9.9,1.9-14.5,16.2l-4.7,14.5c-4.4,13.5-12.5,21.4-25.4,21.4s-17.6-9.1-13.6-21.2Z"/>
    <path class="st0" d="M259.8,521.4c-1.9,0-4,0-5.9-.2l-2.4,7.5c-4.8,14.7-4.4,16.4,3,16.2l-.7,2.1h-23.5l.7-2.1c8.2-.2,8-1.3,12.9-16.2l5.3-16.2c4.6-14,4.2-16-2.3-16.2l.7-2h18.8c5.7,0,20.4.3,20.4,11.7s-9,13.3-19.6,14.5c11.7,2.4,6.7,23,12.8,23s3.5-3,3.8-5.8h1.9c-.2,4.8-2.4,10.4-9.1,10.4-16.3,0-1-26.7-16.7-26.7ZM254.7,519c1.3,0,2.3,0,3.3,0,10.8,0,20.1-4.9,20.1-13.7s-4.6-8.9-11.3-8.9h-4.7l-7.4,22.6Z"/>
    <path class="st0" d="M339.2,528.7l10.3-31.3c-1-.5-2.3-.8-3.9-.9l-5-.2.7-2h20l2.1,40.1,28.8-40.1h16.5l-.7,2c-8,.4-8,1.4-12.8,16.2l-5.9,18.1c-4.5,13.7-2.9,14,2.9,14.2l-.7,2.1h-22.7l.7-2.1c7.9-.3,7.9-.8,12.8-16.2l9.5-29.4-35.1,48.7h-.9l-2.8-40.2c-.3-4.1-.6-6.6-1.5-8.3l-9.5,29.2c-4.6,14.2-4.3,15.9,5.3,16.2l-.7,2.1h-22.6l.7-2.1c8.4-.3,9.9-1.9,14.5-16.2Z"/>
    <path class="st0" d="M414.6,528.7l5.3-16.2c4.6-14,4.2-16-2.3-16.2l.7-2h41.5l-3.5,12.8h-1.7c-.4-7.5-3.5-10.5-13.2-10.5h-8.6l-7.5,22.9h4.9c6.6,0,10-1.4,13.6-10.1h2l-7.2,22.3h-2.1c2.1-8.6-.4-10-7-10h-4.9l-2.4,7.2c-4.6,14.1-4.6,16,6.6,16h.2c10,0,16.7-6,22.9-14.7l1.6.7-6.9,16.2h-45.6l.7-2.1c8.2-.2,8-1.3,12.9-16.2Z"/>
    <path class="st0" d="M473.1,528.7l10.3-31.3c-1-.5-2.3-.8-3.9-.9l-5-.2.7-2h20l2.1,40.1,28.8-40.1h16.5l-.7,2c-8,.4-8,1.4-12.8,16.2l-5.9,18.1c-4.5,13.7-2.9,14,2.9,14.2l-.7,2.1h-22.7l.7-2.1c7.9-.3,7.9-.8,12.8-16.2l9.5-29.4-35.1,48.7h-.9l-2.8-40.2c-.3-4.1-.6-6.6-1.5-8.3l-9.5,29.2c-4.6,14.2-4.3,15.9,5.3,16.2l-.7,2.1h-22.6l.7-2.1c8.4-.3,9.9-1.9,14.5-16.2Z"/>
    <path class="st0" d="M548.4,528.7l5.3-16.2c4.6-14.3,4.1-15.9-2.3-16.2l.7-2h21.2c10-.2,17.8,2.4,17.8,11s-6,12.5-15.2,14.1c6.6.8,13,4.1,13,12.4s-8.3,15.2-23.3,15.2h-30.6l.7-2.1c7.9-.3,7.8-.8,12.8-16.2ZM580.9,530.7c0-6.4-3.8-9.8-13.6-9.8h-8.8l-2.5,7.7c-4.9,15.2-5.1,16,5.2,16h3.3c9.7,0,16.3-5.8,16.3-13.9ZM559.3,518.7h6.5c12.5,0,17.4-6.6,17.4-13.5s-2.9-8.8-11.8-8.8h-4.8l-7.3,22.3Z"/>
    <path class="st0" d="M607.8,528.7l5.3-16.2c4.6-14,4.2-16-2.3-16.2l.7-2h41.5l-3.5,12.8h-1.7c-.4-7.5-3.5-10.5-13.2-10.5h-8.6l-7.5,22.9h4.9c6.6,0,10-1.4,13.6-10.1h2l-7.2,22.3h-2.1c2.1-8.6-.4-10-7-10h-4.9l-2.4,7.2c-4.6,14.1-4.6,16,6.6,16h.2c10,0,16.7-6,22.9-14.7l1.6.7-6.9,16.2h-45.6l.7-2.1c8.2-.2,8-1.3,12.9-16.2Z"/>
    <path class="st0" d="M680.5,521.4c-1.9,0-4,0-5.9-.2l-2.4,7.5c-4.8,14.7-4.4,16.4,3,16.2l-.7,2.1h-23.5l.7-2.1c8.2-.2,8-1.3,12.9-16.2l5.3-16.2c4.6-14,4.2-16-2.3-16.2l.7-2h18.8c5.7,0,20.4.3,20.4,11.7s-9,13.3-19.6,14.5c11.7,2.4,6.7,23,12.8,23s3.5-3,3.8-5.8h1.9c-.2,4.8-2.4,10.4-9.1,10.4-16.3,0-1-26.7-16.7-26.7ZM675.3,519c1.3,0,2.3,0,3.3,0,10.8,0,20.1-4.9,20.1-13.7s-4.6-8.9-11.3-8.9h-4.7l-7.4,22.6Z"/>
    <path class="st0" d="M716,534.9c0-4.9,2.8-7.9,6.4-7.9s5.5,2.4,5.5,5.1c0,4.9-5.8,4.3-5.8,6.2s2.4,7.5,11.7,7.5,12.7-4.1,12.7-9.7c0-13.4-19.6-15-19.6-28.8s8.5-14.7,18.4-14.7,11.1,4.1,14,4.1,3.2-1.5,4.3-3.6h1.5l-6.4,19.2h-2.1c2.8-11.8-1.3-17.5-11.4-17.5s-10.7,3.4-10.7,8.9c0,11,19.7,13.5,19.7,28.1s-8.9,16.5-20.3,16.5-17.9-8.6-17.9-13.4Z"/>
    <path class="st0" d="M766.7,543c0-3.2,2.3-5.5,5.4-5.5s5.4,2.2,5.4,5.5-2.3,5.3-5.4,5.3-5.4-2.2-5.4-5.3Z"/>
    <path class="st0" d="M802.2,501.4c0-2.4-2.4-2.1-4.1-2.1s-4.3-1.6-4.3-4.6,2.5-6.3,6.3-6.3,7.2,3.5,7.2,7.8-2.1,12.8-15.3,14.5l-.2-1.8c8.4-1.2,10.4-5.1,10.4-7.6ZM820.7,501.4c0-2.4-2.4-2.1-4.1-2.1s-4.3-1.6-4.3-4.6,2.5-6.3,6.3-6.3,7.2,3.5,7.2,7.8-2.1,12.8-15.3,14.5l-.2-1.8c8.4-1.2,10.4-5.1,10.4-7.6Z"/>
  </g>
  <line class="st1" x1="45" y1="43.5" x2="937.4" y2="43.5"/>
  <line class="st1" x1="45" y1="689.3" x2="937.4" y2="689.3"/>
  <g>
    <path class="st0" d="M436.9,615.4c5.9,0,8.4,4.1,8.4,8.1s-3.7,8.1-8.8,8.1h-5.4v-16.3h5.8ZM436.2,629.7c3.1,0,6.8-1.7,6.8-6.1s-2-6.1-6.3-6.1h-3.4v12.1h2.9Z"/>
    <path class="st0" d="M450.5,615.4v10c0,1.8.9,4.6,4.1,4.6s4.1-2.6,4.1-4.6v-10h2.2v10.4c0,3.2-2.3,6.3-6.3,6.3s-6.3-2.9-6.3-6.3v-10.4h2.2Z"/>
    <path class="st0" d="M471.9,615.4l7,16.3h-2.6l-1.6-4h-7.7l-1.6,4h-2.6l7.2-16.3h2ZM467.6,625.8h6.2l-3-7.5h0l-3.1,7.5Z"/>
    <path class="st0" d="M483.8,615.4l9,13.4h0v-13.4h2.2v16.3h-2.8l-9.1-13.4h0v13.4h-2.2v-16.3h2.9Z"/>
    <path class="st0" d="M509.8,615.4v2.1h-8.3v4.9h7.7v2.1h-7.7v5.2h8.7v2.1h-10.9v-16.3h10.5Z"/>
    <path class="st0" d="M521.9,615.4v6.8h8.4v-6.8h2.2v16.3h-2.2v-7.5h-8.4v7.5h-2.2v-16.3h2.2Z"/>
    <path class="st0" d="M538.9,615.4v16.3h-2.2v-16.3h2.2Z"/>
    <path class="st0" d="M556.7,617.2l-1.6,1.7c-1.3-1.3-2.9-1.7-4.5-1.7-3.6,0-6.1,2.8-6.1,6.5s2.6,6.5,6.3,6.5,3-.3,4-.9v-4.5h-3.6v-2.1h5.8v8c-1.5.9-4.1,1.5-6.2,1.5-5.2,0-8.7-3.7-8.7-8.6s3.5-8.6,8.5-8.6,4.7.7,6,2.1Z"/>
    <path class="st0" d="M563.2,615.4v6.8h8.4v-6.8h2.2v16.3h-2.2v-7.5h-8.4v7.5h-2.2v-16.3h2.2Z"/>
    <path class="st0" d="M580.3,615.4v14.2h7.5v2.1h-9.7v-16.3h2.2Z"/>
    <path class="st0" d="M600.5,615.4v2.1h-8.3v4.9h7.7v2.1h-7.7v5.2h8.7v2.1h-10.9v-16.3h10.5Z"/>
    <path class="st0" d="M604.6,615.4l4.4,7.2,4.6-7.2h2.7l-6.2,9.3v6.9h-2.2v-6.9l-6.2-9.3h2.8Z"/>
    <path class="st0" d="M617.8,629.1l-1.9,5.7h-1.9l1.6-5.7h2.2Z"/>
    <path class="st0" d="M640.9,617.6l-1.8,1.4c-1-1.2-2.4-1.9-3.9-1.9-3.6,0-6.1,2.9-6.1,6.6s2.4,6.3,6.1,6.3,3.3-.8,4.3-2.2l1.9,1.4c-1.3,1.7-3.5,2.9-6.2,2.9-5.2,0-8.4-4.4-8.4-8.4s3.4-8.7,8.5-8.7,4.4.9,5.7,2.5Z"/>
    <path class="st0" d="M646.1,615.4v6.8h8.4v-6.8h2.2v16.3h-2.2v-7.5h-8.4v7.5h-2.2v-16.3h2.2Z"/>
    <path class="st0" d="M663.2,615.4v16.3h-2.2v-16.3h2.2Z"/>
    <path class="st0" d="M677.9,615.4v2.1h-8.3v4.9h7.7v2.1h-7.7v5.2h8.7v2.1h-10.9v-16.3h10.5Z"/>
    <path class="st0" d="M691.6,615.4v2.1h-8v5.1h7.5v2.1h-7.5v7h-2.2v-16.3h10.2Z"/>
    <path class="st0" d="M711.5,615.4v2.1h-8.3v4.9h7.7v2.1h-7.7v5.2h8.7v2.1h-10.9v-16.3h10.5Z"/>
    <path class="st0" d="M716.2,615.4l4.2,6.3,4.2-6.3h2.8l-5.4,7.7,6,8.6h-2.9l-4.7-7.1-4.7,7.1h-2.7l5.9-8.6-5.5-7.7h2.8Z"/>
    <path class="st0" d="M740.5,615.4v2.1h-8.3v4.9h7.7v2.1h-7.7v5.2h8.7v2.1h-10.9v-16.3h10.5Z"/>
    <path class="st0" d="M757.2,617.6l-1.8,1.4c-1-1.2-2.4-1.9-3.9-1.9-3.6,0-6.1,2.9-6.1,6.6s2.4,6.3,6.1,6.3,3.3-.8,4.3-2.2l1.9,1.4c-1.3,1.7-3.5,2.9-6.2,2.9-5.2,0-8.4-4.4-8.4-8.4s3.4-8.7,8.5-8.7,4.4.9,5.7,2.5Z"/>
    <path class="st0" d="M762.1,615.4v10c0,1.8.9,4.6,4.1,4.6s4.1-2.6,4.1-4.6v-10h2.2v10.4c0,3.2-2.3,6.3-6.3,6.3s-6.3-2.9-6.3-6.3v-10.4h2.2Z"/>
    <path class="st0" d="M787.2,615.4v2.1h-5.2v14.2h-2.2v-14.2h-5.2v-2.1h12.7Z"/>
    <path class="st0" d="M791.8,615.4v16.3h-2.2v-16.3h2.2Z"/>
    <path class="st0" d="M796.3,615.4l4.8,13.2h0l5-13.2h2.4l-6.4,16.3h-2.1l-6.3-16.3h2.6Z"/>
    <path class="st0" d="M821,615.4v2.1h-8.3v4.9h7.7v2.1h-7.7v5.2h8.7v2.1h-10.9v-16.3h10.5Z"/>
    <path class="st0" d="M846.9,623.6c0,4.8-3.5,8.6-8.5,8.6s-8.5-3.6-8.5-8.6,3.6-8.6,8.5-8.6,8.5,3.5,8.5,8.6ZM838.4,630.1c3.6,0,6.1-2.8,6.1-6.5s-2.4-6.5-6.2-6.5-6.1,2.8-6.1,6.5,2.4,6.5,6.1,6.5Z"/>
    <path class="st0" d="M860.3,615.4v2.1h-8v5.1h7.5v2.1h-7.5v7h-2.2v-16.3h10.2Z"/>
    <path class="st0" d="M873.5,615.4v2.1h-8v5.1h7.5v2.1h-7.5v7h-2.2v-16.3h10.2Z"/>
    <path class="st0" d="M878.7,615.4v16.3h-2.2v-16.3h2.2Z"/>
    <path class="st0" d="M896,617.6l-1.8,1.4c-1-1.2-2.4-1.9-3.9-1.9-3.6,0-6.1,2.9-6.1,6.6s2.4,6.3,6.1,6.3,3.3-.8,4.3-2.2l1.9,1.4c-1.3,1.7-3.5,2.9-6.2,2.9-5.2,0-8.4-4.4-8.4-8.4s3.4-8.7,8.5-8.7,4.4.9,5.7,2.5Z"/>
    <path class="st0" d="M909.6,615.4v2.1h-8.3v4.9h7.7v2.1h-7.7v5.2h8.7v2.1h-10.9v-16.3h10.5Z"/>
    <path class="st0" d="M918.9,615.4c2.8,0,5.1,1.4,5.1,4.6s-1.3,4-4,4.3h0l4.6,7.4h-2.8l-4.1-7.2h-2.5v7.2h-2.2v-16.3h5.8ZM918.3,622.6c2.3,0,3.4-.8,3.4-2.6s-1.1-2.6-3.4-2.6h-3v5.2h3Z"/>
  </g>
</svg>