<?xml version="1.0" encoding="UTF-8"?>
<svg id="Layer_1" xmlns="http://www.w3.org/2000/svg" version="1.1" viewBox="0 0 567.1 204.1">
  <!-- Generator: Adobe Illustrator 29.1.0, SVG Export Plug-In . SVG Version: 2.1.0 Build 142)  -->
  <defs>
    <style>
      .st0 {
        fill: #231f20;
      }
    </style>
  </defs>
  <path class="st0" d="M13.5,32.1l4.6-14.1c4-12.2,3.7-13.9-2-14.1l.6-1.7h36.4l-3.1,11.1h-1.5c-.3-6.4-2.8-9.2-11.5-9.2h-7.8l-6.6,20.2h4.3c5.8,0,8.7-1.2,11.9-8.8h1.7l-6.3,19.4h-1.9c1.8-7.5-.4-8.7-6.1-8.7h-4.3l-1.9,5.9c-4.2,12.8-3.9,14.3,2.6,14.1l-.6,1.8H1.5l.6-1.8c7.1-.2,7-1.2,11.2-14.1h.2Z"/>
  <path class="st0" d="M59.8,32.1l4.6-14.1c4-12.3,3.7-13.9-2-14.1l.6-1.7h20.4l-.6,1.7c-7.6,0-7.6,1.5-11.8,14.1l-4.6,14.1c-4.2,13-5,13.9,5.8,13.9s16.4-7.5,20.8-14.5l1.4.6-6.9,15.7h-39.5l.6-1.7c6.9-.2,6.9-.8,11.2-14.1h0Z"/>
  <path class="st0" d="M110,32.1l4.6-14.1c4-12.2,3.7-13.9-2-14.1l.6-1.7h36.1l-3.1,11.1h-1.5c-.3-6.6-3-9.2-11.5-9.2h-7.5l-6.5,19.9h4.3c5.8,0,8.7-1.2,11.9-8.8h1.7l-6.3,19.4h-1.9c1.8-7.5-.4-8.7-6.1-8.7h-4.3l-2.1,6.2c-4,12.3-4,13.9,5.7,13.9h.2c8.7,0,14.6-5.3,20-12.8l1.4.6-6,14.1h-39.7l.6-1.8c7.1-.2,7-1.2,11.2-14.1h.2Z"/>
  <path class="st0" d="M167.3,34.9l9.1-9.2-3.1-10.2c-2.8-9-4.4-11.4-10.7-11.6l.6-1.8h20.8l-.6,1.8c-7.1.2-5.7,1.2-3,9.4l2.5,7.9,6.8-7c9.4-9.7,9.4-10,2.8-10.3l.6-1.8h17.5l-.6,1.8c-5.8.2-7.3.5-17.4,10.7l-8.9,9.1,3.5,10.9c3.1,9.7,4.6,11.2,10.7,11.5l-.6,1.8h-21.1l.6-1.8c4.9-.3,6,.3,3.1-8.9l-2.8-9.1-5.5,5.8c-9.6,10.2-12.4,12-3.8,12.3l-.6,1.8h-19.7l.6-1.8c6.2-.4,8.7-.8,19.2-11.3h0Z"/>
  <path class="st0" d="M217.4,32.1l4.6-14.1c4-12.5,3.6-13.9-2-14.1l.6-1.7h19.7l-.6,1.7c-7.1.2-7.2,2.1-11.1,14.1l-4.6,14.1c-4.4,13.3-3.4,13.9,2,14.1l-.6,1.8h-19.8l.6-1.8c6.9-.3,6.8-.7,11.2-14.1h0Z"/>
  <path class="st0" d="M247.9,32.1l8.8-27c-.9-.6-2.1-1-3.6-1l-4.1-.2.6-1.8h15.6l13.4,32.7,5.5-16.8c4-12.4,3.7-13.8-4.6-14.1l.6-1.8h19.7l-.6,1.8c-7.3.3-8.6,1.7-12.7,14.1l-10,30.8h-.8l-14.3-35.2c-1.1-2.6-1.8-4.8-2.8-6.6l-8.2,25c-4,12.4-3.7,13.8,4.6,14.1l-.6,1.8h-19.7l.6-1.8c7.3-.3,8.6-1.7,12.7-14.1h-.1Z"/>
  <path class="st0" d="M301,31.1c0-16.8,13.3-30.3,30.3-30.3s10.9,3.7,14.1,3.7,3.1-2.1,4-3.9h1.3l-6.2,18.5h-1.7c2.8-13.4-4.4-16.5-10.8-16.5-13.2,0-23.3,14.4-23.3,28.9s4.4,15.2,11.5,15.2c11.4,0,14.3-8.9,14.3-13.2s-1.5-3-6.7-3.1l.5-1.7h21.3l-.5,1.7c-6.4.3-6.9,1.3-12.6,18.5h-1.9c0-1.5-1-2.8-2.9-2.8-2.7,0-5.5,3.1-13.2,3.1s-17.6-6.9-17.6-18.2h.1Z"/>
  <path class="st0" d="M386.3,30.9c0-15.9,13.7-30.2,28.8-30.2s17.7,6.8,17.7,18.4-13.6,30.1-28.8,30.1-17.7-6.8-17.7-18.4h0ZM425.1,18.2c0-10.1-3.5-15.6-9.8-15.6-11.1,0-21.4,14.1-21.4,29.2s3.5,15.5,9.8,15.5c11.1,0,21.4-14,21.4-29.2h0Z"/>
  <path class="st0" d="M445.5,30.8l4.2-12.8c4-12.4,4.7-13.9-2-14.1l.4-1.7h19.7l-.5,1.7c-6.8.3-6.9,1.7-11,14.1l-4,12.2c-3.6,11.1.4,16.6,7.3,16.6s14.2-5.9,17.5-16l4.2-12.9c4-12.4,3.7-13.8-4-14.1l.6-1.8h19.1l-.6,1.8c-7.3.3-8.6,1.7-12.7,14.1l-4.1,12.7c-3.9,11.8-10.9,18.6-22.2,18.6s-15.4-7.9-11.9-18.5h0Z"/>
  <path class="st0" d="M516.2,25.8c-1.7,0-3.5,0-5.1-.2l-2.1,6.6c-4.2,12.8-3.9,14.3,2.6,14.1l-.6,1.8h-20.5l.6-1.8c7.1-.2,7-1.2,11.2-14.1l4.6-14.1c4-12.2,3.7-13.9-2-14.1l.6-1.7h16.4c4.9,0,17.7.3,17.7,10.2s-7.8,11.6-17.1,12.6c10.2,2.1,5.8,20.1,11.1,20.1s3.1-2.6,3.3-5h1.7c-.2,4.2-2.1,9.1-8,9.1-14.2,0-.8-23.3-14.5-23.3v-.2ZM511.7,23.7h2.9c9.4,0,17.5-4.2,17.5-12s-4-7.8-9.8-7.8h-4.1l-6.4,19.7h-.1Z"/>
  <path class="st0" d="M10,108.2c0-16.8,13.3-30.3,30.3-30.3s10.9,3.7,14.1,3.7,3.1-2.1,4-3.9h1.3l-6.2,18.5h-1.7c2.8-13.4-4.4-16.5-10.8-16.5-13.2,0-23.3,14.4-23.3,28.9s3.7,15,12.4,15,15.9-6,19.5-15l1.9.8c-4.9,12-13.3,17-23.1,17s-18.4-6.9-18.4-18.2h0Z"/>
  <path class="st0" d="M65.1,108c0-15.9,13.7-30.2,28.8-30.2s17.7,6.8,17.7,18.4-13.6,30.1-28.8,30.1-17.7-6.8-17.7-18.4h0ZM103.9,95.3c0-10.1-3.5-15.6-9.8-15.6-11.1,0-21.4,14.1-21.4,29.2s3.5,15.5,9.8,15.5c11.1,0,21.4-14,21.4-29.2h0Z"/>
  <path class="st0" d="M122.2,108c0-15.9,13.7-30.2,28.8-30.2s17.7,6.8,17.7,18.4-13.6,30.1-28.8,30.1-17.7-6.8-17.7-18.4h0ZM161,95.3c0-10.1-3.5-15.6-9.8-15.6-11.1,0-21.4,14.1-21.4,29.2s3.5,15.5,9.8,15.5c11.1,0,21.4-14,21.4-29.2h0Z"/>
  <path class="st0" d="M182.9,109.3l4.6-14.1c4-12.2,3.7-13.9-2-14.1l.6-1.7h18.1c12.1,0,17.5,4,17.5,10.6,0,10-12.3,14.5-24.5,14.5s-3.7-.1-6-.4l-1.7,5.3c-4.2,12.8-3.9,14.3,2.6,14.1l-.6,1.8h-20.5l.6-1.8c7.1-.2,7-1.2,11.2-14.1h0ZM191.9,102.1c1.7.1,3.5.3,5.1.3,10.2,0,17.2-4.4,17.2-13.2s-2.8-8-10.3-8h-5.1l-6.9,21h0Z"/>
  <path class="st0" d="M232.3,109.3l4.6-14.1c4-12.2,3.7-13.9-2-14.1l.6-1.7h36.1l-3.1,11.1h-1.5c-.3-6.6-3-9.2-11.5-9.2h-7.5l-6.5,19.9h4.3c5.8,0,8.7-1.2,11.9-8.8h1.7l-6.3,19.4h-1.9c1.8-7.5-.4-8.7-6.1-8.7h-4.3l-2.1,6.2c-4,12.3-4,13.9,5.7,13.9h.2c8.7,0,14.6-5.3,20-12.8l1.4.6-6,14.1h-39.7l.6-1.8c7.1-.2,7-1.2,11.2-14.1h.2Z"/>
  <path class="st0" d="M296.5,102.9c-1.7,0-3.5,0-5.1-.2l-2.1,6.6c-4.2,12.8-3.9,14.3,2.6,14.1l-.6,1.8h-20.5l.6-1.8c7.1-.2,7-1.2,11.2-14.1l4.6-14.1c4-12.2,3.7-13.9-2-14.1l.6-1.7h16.4c4.9,0,17.7.3,17.7,10.2s-7.8,11.6-17.1,12.6c10.2,2.1,5.8,20.1,11.1,20.1s3.1-2.6,3.3-5h1.7c-.2,4.2-2.1,9.1-8,9.1-14.2,0-.8-23.3-14.5-23.3v-.2ZM292,100.8h2.9c9.4,0,17.5-4.2,17.5-12s-4-7.8-9.8-7.8h-4.1l-6.4,19.7h-.1Z"/>
  <path class="st0" d="M341.7,110.2l22.6-31.9h1.5l2.3,32.3c.8,11.4.7,12.5,7.5,12.8l-.6,1.8h-20.9l.6-1.8c7.2-.2,7.1-.8,6.3-12.1v-1.8h-15.9l-.6.9c-8,11.4-8.7,13-1.4,13l-.6,1.8h-17.5l.6-1.8c6.2-.2,7.6-1.3,16.1-13.2h0ZM360.8,107.5l-1.4-18.3-12.9,18.3h14.3Z"/>
  <path class="st0" d="M398.7,109.3l9.1-28.1h-2.2c-9,0-12.7,3.7-19.3,14.6l-1.3-.3,5.4-16.2h42.9l-4,16.2h-1.5c.4-11.1-1.8-14.3-8.5-14.3h-4.8l-8.9,28.1c-3.9,12.4-4.6,13.9,4,14.1l-.6,1.8h-24l.6-1.8c8.7-.2,9.1-1.7,13.1-14.1h0Z"/>
  <path class="st0" d="M440.6,109.3l4.6-14.1c4-12.5,3.6-13.9-2-14.1l.6-1.7h19.7l-.6,1.7c-7.1.2-7.2,2.1-11.1,14.1l-4.6,14.1c-4.4,13.3-3.4,13.9,2,14.1l-.6,1.8h-19.8l.6-1.8c6.9-.3,6.8-.7,11.2-14.1h0Z"/>
  <path class="st0" d="M471.3,81l.6-1.8h20.9l-.6,1.8c-7.2.2-7.1.8-6.3,12.1l1.7,22,14.8-21.1c8-11.4,8.7-13,1.4-13l.6-1.8h17.5l-.6,1.8c-6.2.2-7.6,1.3-16.1,13.2l-22.6,31.9h-1.5l-2.3-32.3c-.8-11.4-.7-12.5-7.5-12.8h0Z"/>
  <path class="st0" d="M527,109.3l4.6-14.1c4-12.2,3.7-13.9-2-14.1l.6-1.7h36.1l-3.1,11.1h-1.5c-.3-6.6-3-9.2-11.5-9.2h-7.5l-6.5,19.9h4.3c5.8,0,8.7-1.2,11.9-8.8h1.7l-6.3,19.4h-1.9c1.8-7.5-.4-8.7-6.1-8.7h-4.3l-2.1,6.2c-4,12.3-4,13.9,5.7,13.9h.2c8.7,0,14.6-5.3,20-12.8l1.4.6-6,14.1h-39.7l.6-1.8c7.1-.2,7-1.2,11.2-14.1h.2Z"/>
  <path class="st0" d="M6.3,191.8c0-4.3,2.4-6.9,5.6-6.9s4.8,2.1,4.8,4.4c0,4.3-5.1,3.7-5.1,5.4s2.1,6.6,10.2,6.6,11.1-3.5,11.1-8.5c0-11.6-17.1-13-17.1-25.1s7.4-12.8,16-12.8,9.7,3.5,12.2,3.5,2.8-1.3,3.7-3.1h1.3l-5.6,16.7h-1.9c2.4-10.3-1.1-15.2-9.9-15.2s-9.3,3-9.3,7.8c0,9.6,17.2,11.8,17.2,24.5s-7.7,14.4-17.7,14.4-15.6-7.5-15.6-11.7h0Z"/>
  <path class="st0" d="M68.9,186.4l9.1-28.1h-2.2c-9,0-12.7,3.7-19.3,14.6l-1.3-.3,5.4-16.2h42.9l-4,16.2h-1.5c.4-11.1-1.8-14.3-8.5-14.3h-4.8l-8.9,28.1c-3.9,12.4-4.6,13.9,4,14.1l-.6,1.8h-24l.6-1.8c8.7-.2,9.1-1.7,13.1-14.1Z"/>
  <path class="st0" d="M124.7,180c-1.7,0-3.5,0-5.1-.2l-2.1,6.6c-4.2,12.8-3.9,14.3,2.6,14.1l-.6,1.8h-20.5l.6-1.8c7.1-.2,7-1.2,11.2-14.1l4.6-14.1c4-12.2,3.7-13.9-2-14.1l.6-1.7h16.4c4.9,0,17.7.3,17.7,10.2s-7.8,11.6-17.1,12.6c10.2,2.1,5.8,20.1,11.1,20.1s3.1-2.6,3.3-5h1.7c-.2,4.2-2.1,9.1-8,9.1-14.2,0-.8-23.3-14.5-23.3v-.2ZM120.2,178h2.9c9.4,0,17.5-4.2,17.5-12s-4-7.8-9.8-7.8h-4.1l-6.4,19.7h0Z"/>
  <path class="st0" d="M165.7,186.4l4.6-14.1c4-12.2,3.7-13.9-2-14.1l.6-1.7h36.1l-3.1,11.1h-1.5c-.3-6.6-3-9.2-11.5-9.2h-7.5l-6.5,19.9h4.3c5.8,0,8.7-1.2,11.9-8.8h1.7l-6.3,19.4h-1.9c1.8-7.5-.4-8.7-6.1-8.7h-4.3l-2.1,6.2c-4,12.3-4,13.9,5.7,13.9h.2c8.7,0,14.6-5.3,20-12.8l1.4.6-6,14.1h-39.7l.6-1.8c7.1-.2,7-1.2,11.2-14.1h.2Z"/>
  <path class="st0" d="M217.5,186.4l8.8-27c-.9-.6-2.1-1-3.6-1l-4.1-.2.6-1.8h15.6l13.4,32.7,5.5-16.8c4-12.4,3.7-13.8-4.6-14.1l.6-1.8h19.7l-.6,1.8c-7.3.3-8.6,1.7-12.7,14.1l-10,30.8h-.8l-14.3-35.2c-1.1-2.6-1.8-4.8-2.8-6.6l-8.2,25c-4,12.4-3.7,13.8,4.6,14.1l-.6,1.8h-19.7l.6-1.8c7.3-.3,8.6-1.7,12.7-14.1h-.1Z"/>
  <path class="st0" d="M270.6,185.3c0-16.8,13.3-30.3,30.3-30.3s10.9,3.7,14.1,3.7,3.1-2.1,4-3.9h1.3l-6.2,18.5h-1.7c2.8-13.4-4.4-16.5-10.8-16.5-13.2,0-23.3,14.4-23.3,28.9s4.4,15.2,11.5,15.2c11.4,0,14.3-8.9,14.3-13.2s-1.5-3-6.7-3.1l.5-1.7h21.3l-.5,1.7c-6.4.3-6.9,1.3-12.6,18.5h-1.9c0-1.5-1-2.8-2.9-2.8-2.7,0-5.5,3.1-13.2,3.1s-17.6-6.9-17.6-18.2h.1Z"/>
  <path class="st0" d="M341.8,186.4l9.1-28.1h-2.2c-9,0-12.7,3.7-19.3,14.6l-1.3-.3,5.4-16.2h42.9l-4,16.2h-1.5c.4-11.1-1.8-14.3-8.5-14.3h-4.8l-8.9,28.1c-3.9,12.4-4.6,13.9,4,14.1l-.6,1.8h-24l.6-1.8c8.7-.2,9.1-1.7,13.1-14.1h0Z"/>
  <path class="st0" d="M383.7,186.4l4.6-14.1c4-12.5,3.6-13.9-2-14.1l.6-1.7h19.7l-.6,1.7c-7.1.2-7.2,2.1-11.1,14.1l-1.9,5.9h22.5l1.9-5.9c4-12.5,3.6-13.9-2-14.1l.6-1.7h19.7l-.6,1.7c-7.1.2-7.2,2.1-11.1,14.1l-4.6,14.1c-4.4,13.3-3.4,13.9,2,14.1l-.6,1.8h-19.8l.6-1.8c6.9-.3,6.8-.7,11.2-14.1l2.1-6.3h-22.5l-2.1,6.3c-4.4,13.3-3.4,13.9,2,14.1l-.6,1.8h-19.8l.6-1.8c6.9-.3,6.8-.7,11.2-14.1h0Z"/>
</svg>