<?xml version="1.0" encoding="UTF-8"?>
<svg id="Layer_1" xmlns="http://www.w3.org/2000/svg" xmlns:xlink="http://www.w3.org/1999/xlink" version="1.1" viewBox="0 0 783 231.4">
  <!-- Generator: Adobe Illustrator 29.1.0, SVG Export Plug-In . SVG Version: 2.1.0 Build 142)  -->
  <defs>
    <style>
      .st0 {
        fill: none;
      }

      .st1 {
        fill: #fff;
      }

      .st2 {
        clip-path: url(#clippath);
      }
    </style>
    <clipPath id="clippath">
      <rect class="st0" x="9.4" y="29.9" width="428.2" height="101"/>
    </clipPath>
  </defs>
  <g>
    <g>
      <path class="st1" d="M437.4,84.6l6.7-20.3c5.7-17.6,5.3-20.1-2.9-20.3l.8-2.5h51.9l-4.4,16-2.1.2c-.5-9.6-4.3-13.4-16.5-13.4h-10.7l-9.3,28.7h6.2c8.3,0,12.6-1.8,17.1-12.7h2.5l-9.1,27.9h-2.7c2.6-10.7-.6-12.5-8.8-12.5h-6.2l-3,9c-5.8,17.7-5.7,20.1,8.2,20.1h.3c12.5,0,21-7.6,28.7-18.4l2,.8-8.7,20.3h-57.1l.8-2.6c10.3-.3,10.1-1.7,16.2-20.2Z"/>
      <path class="st1" d="M500.7,104.9c9.9-.4,9.8-1,16.1-20.2l6.7-20.3c5.8-17.9,5.2-20-2.9-20.3l.8-2.5,25.7-.3c18.4-.2,30.7,9.5,30.7,25.3,0,24.8-18.9,42.1-53.4,41.4l-24.5-.5.8-2.6ZM567,65.1c0-12.4-6-21.1-19-21.1h-8.3l-15.4,47.2c-3.9,11.9-3,13.4,8.4,13.4,18.9,0,34.4-16.3,34.4-39.6Z"/>
    </g>
    <g class="st2">
      <image width="2076" height="490" transform="translate(9.4 29.9) scale(.2)" xlink:href="Focused on Reliability-1.png"/>
    </g>
  </g>
  <g>
    <path class="st1" d="M600,85.8c0-10.3,8.9-19.6,18.7-19.6s11.5,4.4,11.5,12-8.8,19.5-18.7,19.5-11.5-4.4-11.5-11.9ZM625.2,77.5c0-6.5-2.2-10.1-6.3-10.1-7.2,0-13.9,9.1-13.9,19s2.2,10,6.3,10c7.2,0,13.9-9.1,13.9-18.9Z"/>
    <path class="st1" d="M638.1,86.6l5.7-17.5c-.6-.4-1.3-.6-2.3-.7h-2.7c0-.1.4-1.3.4-1.3h10.1l8.7,21.2,3.5-10.9c2.6-8,2.4-9-3-9.1l.4-1.2h12.8l-.4,1.2c-4.8.2-5.6,1.1-8.2,9.1l-6.5,20h-.5l-9.3-22.8c-.7-1.7-1.2-3.1-1.8-4.2l-5.3,16.2c-2.6,8-2.4,9,3,9.1l-.4,1.2h-12.8l.4-1.2c4.7-.2,5.6-1.1,8.2-9.1Z"/>
  </g>
  <g>
    <path class="st1" d="M125.7,180.1c-2.4,0-4.9,0-7.2-.3l-3,9.2c-5.9,18-5.4,20.1,3.7,19.8l-.8,2.5h-28.9l.8-2.5c10.1-.3,9.9-1.6,15.9-19.8l6.5-19.9c5.6-17.2,5.2-19.7-2.8-19.9l.8-2.4h23.1c7,0,25,.4,25,14.4s-11.1,16.3-24.1,17.8c14.3,3,8.2,28.3,15.7,28.3s4.3-3.6,4.7-7.1l2.4.2c-.3,5.7-3,12.6-11.2,12.6-20,0-1.2-32.8-20.5-32.8ZM119.4,177.2c1.5,0,2.8,0,4.1,0,13.2,0,24.6-6,24.6-16.8s-5.6-11-13.9-11h-5.8l-9.1,27.7Z"/>
    <path class="st1" d="M178.7,189.1l6.5-19.9c5.6-17.2,5.2-19.7-2.8-19.9l.8-2.4h50.9l-4.3,15.7-2.1.2c-.5-9.4-4.3-13.1-16.2-13.1h-10.5l-9.1,28.1h6.1c8.2,0,12.3-1.7,16.8-12.4h2.4l-8.9,27.4h-2.6c2.5-10.5-.5-12.2-8.6-12.2h-6.1l-2.9,8.8c-5.7,17.3-5.6,19.7,8.1,19.7h.3c12.2,0,20.6-7.4,28.2-18l2,.8-8.5,19.9h-56l.8-2.5c10.1-.3,9.9-1.6,15.9-19.8Z"/>
    <path class="st1" d="M244.7,189.1l6.5-19.9c5.7-17.3,5.2-19.6-2.8-19.9l.8-2.4h28.7l-.8,2.4c-10.7,0-10.8,2.1-16.6,19.9l-6.5,19.9c-6,18.3-7.1,19.7,8.2,19.7s23.1-10.5,29.3-20.4l2,.8-9.8,22.2h-55.6l.8-2.4c9.7-.3,9.7-1.2,15.8-19.8Z"/>
    <path class="st1" d="M310.6,189.1l6.5-19.9c5.7-17.6,5.1-19.6-2.8-19.9l.8-2.4h27.8l-.8,2.4c-10,.3-10.1,2.9-15.7,19.9l-6.5,19.9c-6.2,18.7-4.8,19.7,2.8,19.8l-.8,2.5h-27.9l.8-2.5c9.7-.4,9.6-1,15.8-19.8Z"/>
    <path class="st1" d="M352.6,190.3l31.9-45h2.2l3.3,45.6c1.2,16.1,1,17.7,10.5,18l-.8,2.5h-29.4l.8-2.5c10.1-.3,10.1-1.2,8.9-17.1l-.2-2.5h-22.2l-.9,1.3c-11.3,16.1-12.2,18.3-2,18.4l-.8,2.5h-24.6l.8-2.5c8.7-.3,10.8-1.9,22.6-18.6ZM379.5,186.5l-2-25.8-18.1,25.8h20.1Z"/>
    <path class="st1" d="M423.4,189.1l6.5-19.9c5.7-17.6,5.1-19.6-2.8-19.9l.8-2.4,26-.2c12.2,0,21.8,3.1,21.8,13.7s-7.3,15.4-18.7,17.3c8.1,1,15.9,5,15.9,15.2s-10.2,18.7-28.6,18.7h-37.6l.8-2.5c9.7-.4,9.6-1,15.8-19.8ZM463.3,191.6c0-7.9-4.6-12-16.7-12h-10.8l-3.1,9.5c-6.1,18.7-6.2,19.7,6.4,19.7h4.1c12,0,20-7.1,20-17.1ZM436.7,176.8h8c15.3,0,21.4-8.1,21.4-16.6s-3.5-10.8-14.5-10.8h-5.9l-9,27.4Z"/>
    <path class="st1" d="M492.6,189.1l6.5-19.9c5.7-17.6,5.1-19.6-2.8-19.9l.8-2.4h27.8l-.8,2.4c-10,.3-10.1,2.9-15.7,19.9l-6.5,19.9c-6.2,18.7-4.8,19.7,2.8,19.8l-.8,2.5h-27.9l.8-2.5c9.7-.4,9.6-1,15.8-19.8Z"/>
    <path class="st1" d="M528.7,189.1l6.5-19.9c5.7-17.3,5.2-19.6-2.8-19.9l.8-2.4h28.7l-.8,2.4c-10.7,0-10.8,2.1-16.6,19.9l-6.5,19.9c-6,18.3-7.1,19.7,8.2,19.7s23.1-10.5,29.3-20.4l2,.8-9.8,22.2h-55.6l.8-2.4c9.7-.3,9.7-1.2,15.8-19.8Z"/>
    <path class="st1" d="M594.5,189.1l6.5-19.9c5.7-17.6,5.1-19.6-2.8-19.9l.8-2.4h27.8l-.8,2.4c-10,.3-10.1,2.9-15.7,19.9l-6.5,19.9c-6.2,18.7-4.8,19.7,2.8,19.8l-.8,2.5h-27.9l.8-2.5c9.7-.4,9.6-1,15.8-19.8Z"/>
    <path class="st1" d="M647,189.1l12.9-39.6h-3.2c-12.7,0-17.9,5.3-27.3,20.6l-1.8-.5,7.6-22.8h60.5l-5.7,22.8h-2.1c.5-15.7-2.5-20.1-12-20.1h-6.7l-12.6,39.6c-5.5,17.5-6.4,19.6,5.6,19.8l-.8,2.5h-33.8l.8-2.5c12.2-.3,12.8-2.4,18.5-19.8Z"/>
    <path class="st1" d="M719.4,189.1l2.6-8.2-5.3-15.3c-4.3-12.7-4.5-15.9-13.4-16.3l.8-2.5h29.4l-.8,2.5c-10.1.2-9.5,1.6-5.8,13.2l4.2,13,9.9-10.7c13.2-14.3,12.7-15.3,2.7-15.5l.8-2.5h24.6l-.8,2.5c-7.6.3-9.7.7-23.2,15.7l-13.5,15-3,9.1c-6.2,19.1-4.6,19.6,2.8,19.8l-.8,2.5h-27.9l.8-2.5c9.5-.4,9.5-.7,15.8-19.8Z"/>
  </g>
</svg>