<?xml version="1.0" encoding="UTF-8"?>
<svg id="Layer_1" xmlns="http://www.w3.org/2000/svg" version="1.1" viewBox="0 0 103 203">
  <!-- Generator: Adobe Illustrator 29.1.0, SVG Export Plug-In . SVG Version: 2.1.0 Build 142)  -->
  <defs>
    <style>
      .st0 {
        fill: #fff;
      }
    </style>
  </defs>
  <rect class="st0" x="7" y="175.8" width="17.8" height="17.8"/>
  <rect class="st0" x="24.8" y="158.1" width="17.8" height="17.8"/>
  <rect class="st0" x="7" y="104.7" width="17.8" height="17.8"/>
  <rect class="st0" x="7" y="140.3" width="17.8" height="17.8"/>
  <rect class="st0" x="24.8" y="122.5" width="17.8" height="17.8"/>
  <rect class="st0" x="42.6" y="175.8" width="17.8" height="17.8"/>
  <rect class="st0" x="60.4" y="158.1" width="17.8" height="17.8"/>
  <rect class="st0" x="42.6" y="104.7" width="17.8" height="17.8"/>
  <rect class="st0" x="42.6" y="140.3" width="17.8" height="17.8"/>
  <rect class="st0" x="78.2" y="175.8" width="17.8" height="17.8"/>
  <rect class="st0" x="78.2" y="104.7" width="17.8" height="17.8"/>
  <rect class="st0" x="78.2" y="140.3" width="17.8" height="17.8"/>
  <rect class="st0" x="60.4" y="122.5" width="17.8" height="17.8"/>
  <rect class="st0" x="7" y="86.9" width="8.9" height="8.9"/>
  <rect class="st0" x="7" y="69.2" width="8.9" height="8.9"/>
  <rect class="st0" x="15.9" y="95.8" width="8.9" height="8.9"/>
  <rect class="st0" x="24.8" y="86.9" width="8.9" height="8.9"/>
  <rect class="st0" x="15.9" y="60.3" width="8.9" height="8.9"/>
  <rect class="st0" x="15.9" y="78" width="8.9" height="8.9"/>
  <rect class="st0" x="33.7" y="95.8" width="8.9" height="8.9"/>
  <rect class="st0" x="33.7" y="60.3" width="8.9" height="8.9"/>
  <rect class="st0" x="33.7" y="78" width="8.9" height="8.9"/>
  <rect class="st0" x="24.8" y="69.2" width="8.9" height="8.9"/>
  <rect class="st0" x="42.6" y="86.9" width="8.9" height="8.9"/>
  <rect class="st0" x="42.6" y="69.2" width="8.9" height="8.9"/>
  <rect class="st0" x="51.5" y="95.8" width="8.9" height="8.9"/>
  <rect class="st0" x="60.4" y="86.9" width="8.9" height="8.9"/>
  <rect class="st0" x="51.5" y="60.3" width="8.9" height="8.9"/>
  <rect class="st0" x="51.5" y="78" width="8.9" height="8.9"/>
  <rect class="st0" x="69.3" y="95.8" width="8.9" height="8.9"/>
  <rect class="st0" x="69.3" y="60.3" width="8.9" height="8.9"/>
  <rect class="st0" x="69.3" y="78" width="8.9" height="8.9"/>
  <rect class="st0" x="60.4" y="69.2" width="8.9" height="8.9"/>
  <rect class="st0" x="78.2" y="86.9" width="8.9" height="8.9"/>
  <rect class="st0" x="78.2" y="69.2" width="8.9" height="8.9"/>
  <rect class="st0" x="87.1" y="95.8" width="8.9" height="8.9"/>
  <rect class="st0" x="87.1" y="60.3" width="8.9" height="8.9"/>
  <rect class="st0" x="87.1" y="78" width="8.9" height="8.9"/>
  <rect class="st0" x="7" y="51.3" width="8.9" height="8.9"/>
  <rect class="st0" x="7" y="33.6" width="8.9" height="8.9"/>
  <rect class="st0" x="24.8" y="51.3" width="8.9" height="8.9"/>
  <rect class="st0" x="15.9" y="24.7" width="8.9" height="8.9"/>
  <rect class="st0" x="15.9" y="42.4" width="8.9" height="8.9"/>
  <rect class="st0" x="33.7" y="24.7" width="8.9" height="8.9"/>
  <rect class="st0" x="33.7" y="42.4" width="8.9" height="8.9"/>
  <rect class="st0" x="24.8" y="33.6" width="8.9" height="8.9"/>
  <rect class="st0" x="42.6" y="51.3" width="8.9" height="8.9"/>
  <rect class="st0" x="42.6" y="33.6" width="8.9" height="8.9"/>
  <rect class="st0" x="60.4" y="51.3" width="8.9" height="8.9"/>
  <rect class="st0" x="51.5" y="24.7" width="8.9" height="8.9"/>
  <rect class="st0" x="51.5" y="42.4" width="8.9" height="8.9"/>
  <rect class="st0" x="69.3" y="24.7" width="8.9" height="8.9"/>
  <rect class="st0" x="69.3" y="42.4" width="8.9" height="8.9"/>
  <rect class="st0" x="60.4" y="33.6" width="8.9" height="8.9"/>
  <rect class="st0" x="78.2" y="51.3" width="8.9" height="8.9"/>
  <rect class="st0" x="78.2" y="33.6" width="8.9" height="8.9"/>
  <rect class="st0" x="87.1" y="24.7" width="8.9" height="8.9"/>
  <rect class="st0" x="87.1" y="42.4" width="8.9" height="8.9"/>
  <rect class="st0" x="7" y="15.8" width="8.9" height="8.9"/>
  <rect class="st0" x="24.8" y="15.8" width="8.9" height="8.9"/>
  <rect class="st0" x="15.9" y="6.9" width="8.9" height="8.9"/>
  <rect class="st0" x="33.7" y="6.9" width="8.9" height="8.9"/>
  <rect class="st0" x="42.6" y="15.8" width="8.9" height="8.9"/>
  <rect class="st0" x="60.4" y="15.8" width="8.9" height="8.9"/>
  <rect class="st0" x="51.5" y="6.9" width="8.9" height="8.9"/>
  <rect class="st0" x="69.3" y="6.9" width="8.9" height="8.9"/>
  <rect class="st0" x="78.2" y="15.8" width="8.9" height="8.9"/>
  <rect class="st0" x="87.1" y="6.9" width="8.9" height="8.9"/>
</svg>