<?xml version="1.0" encoding="UTF-8"?>
<svg id="Layer_1" xmlns="http://www.w3.org/2000/svg" version="1.1" viewBox="0 0 594 108">
  <!-- Generator: Adobe Illustrator 29.1.0, SVG Export Plug-In . SVG Version: 2.1.0 Build 142)  -->
  <defs>
    <style>
      .st0 {
        fill: #fff;
      }
    </style>
  </defs>
  <g>
    <rect class="st0" x="584.6" y="4.8" width="2.3" height="37"/>
    <rect class="st0" x="458" y="4.8" width="2.3" height="37"/>
    <rect class="st0" x="65.8" y="4.8" width="34" height="37"/>
    <rect class="st0" x="4.1" y="4.8" width="34" height="37"/>
    <rect class="st0" x="127.5" y="4.8" width="34" height="37"/>
    <rect class="st0" x="173.8" y="4.8" width="18.1" height="37"/>
    <rect class="st0" x="297.2" y="4.8" width="18.1" height="37"/>
    <rect class="st0" x="321.9" y="4.8" width="9.1" height="37"/>
    <rect class="st0" x="337.3" y="4.8" width="9.1" height="37"/>
    <rect class="st0" x="352.7" y="4.8" width="9.1" height="37"/>
    <rect class="st0" x="368.1" y="4.8" width="9.1" height="37"/>
    <rect class="st0" x="383.5" y="4.8" width="9.1" height="37"/>
    <rect class="st0" x="398.8" y="4.8" width="9.1" height="37"/>
    <rect class="st0" x="414.2" y="4.8" width="9.1" height="37"/>
    <rect class="st0" x="429.6" y="4.8" width="9.1" height="37"/>
    <rect class="st0" x="445" y="4.8" width="9.1" height="37"/>
    <rect class="st0" x="266.4" y="4.8" width="18.1" height="37"/>
    <rect class="st0" x="235.5" y="4.8" width="18.1" height="37"/>
    <rect class="st0" x="204.7" y="4.8" width="18.1" height="37"/>
    <rect class="st0" x="465.9" y="4.8" width="2.3" height="37"/>
    <rect class="st0" x="473.8" y="4.8" width="2.3" height="37"/>
    <rect class="st0" x="481.7" y="4.8" width="2.3" height="37"/>
    <rect class="st0" x="489.6" y="4.8" width="2.3" height="37"/>
    <rect class="st0" x="497.6" y="4.8" width="2.3" height="37"/>
    <rect class="st0" x="505.5" y="4.8" width="2.3" height="37"/>
    <rect class="st0" x="513.4" y="4.8" width="2.3" height="37"/>
    <rect class="st0" x="521.3" y="4.8" width="2.3" height="37"/>
    <rect class="st0" x="529.2" y="4.8" width="2.3" height="37"/>
    <rect class="st0" x="537.1" y="4.8" width="2.3" height="37"/>
    <rect class="st0" x="545" y="4.8" width="2.3" height="37"/>
    <rect class="st0" x="552.9" y="4.8" width="2.3" height="37"/>
    <rect class="st0" x="560.9" y="4.8" width="2.3" height="37"/>
    <rect class="st0" x="568.8" y="4.8" width="2.3" height="37"/>
    <rect class="st0" x="576.7" y="4.8" width="2.3" height="37"/>
  </g>
  <polygon class="st0" points="18.7 92.4 12.1 103.7 6.3 92.4 18.7 92.4"/>
  <rect class="st0" x="4.1" y="55.8" width="3.2" height="30.3"/>
  <rect class="st0" x="10.9" y="55.8" width="3.2" height="30.3"/>
  <rect class="st0" x="17.7" y="55.8" width="3.2" height="30.3"/>
  <rect class="st0" x="26.6" y="55.8" width="3.2" height="30.3"/>
  <polygon class="st0" points="50.1 92.4 43.5 103.7 37.7 92.4 50.1 92.4"/>
  <rect class="st0" x="35.5" y="55.8" width="3.2" height="30.3"/>
  <rect class="st0" x="42.3" y="55.8" width="3.2" height="30.3"/>
  <rect class="st0" x="49.1" y="55.8" width="3.2" height="30.3"/>
  <rect class="st0" x="58" y="55.8" width="3.2" height="30.3"/>
  <polygon class="st0" points="81.5 92.4 74.9 103.7 69.1 92.4 81.5 92.4"/>
  <rect class="st0" x="66.9" y="55.8" width="3.2" height="30.3"/>
  <rect class="st0" x="73.7" y="55.8" width="3.2" height="30.3"/>
  <rect class="st0" x="80.5" y="55.8" width="3.2" height="30.3"/>
  <rect class="st0" x="89.4" y="55.8" width="3.2" height="30.3"/>
  <polygon class="st0" points="112.9 92.4 106.3 103.7 100.4 92.4 112.9 92.4"/>
  <rect class="st0" x="98.3" y="55.8" width="3.2" height="30.3"/>
  <rect class="st0" x="105.1" y="55.8" width="3.2" height="30.3"/>
  <rect class="st0" x="111.9" y="55.8" width="3.2" height="30.3"/>
  <rect class="st0" x="120.8" y="55.8" width="3.2" height="30.3"/>
  <polygon class="st0" points="144.2 92.4 137.7 103.7 131.8 92.4 144.2 92.4"/>
  <rect class="st0" x="129.7" y="55.8" width="3.2" height="30.3"/>
  <rect class="st0" x="136.5" y="55.8" width="3.2" height="30.3"/>
  <rect class="st0" x="143.2" y="55.8" width="3.2" height="30.3"/>
  <rect class="st0" x="152.1" y="55.8" width="3.2" height="30.3"/>
  <polygon class="st0" points="175.6 92.4 169 103.7 163.2 92.4 175.6 92.4"/>
  <rect class="st0" x="161" y="55.8" width="3.2" height="30.3"/>
  <rect class="st0" x="167.8" y="55.8" width="3.2" height="30.3"/>
  <rect class="st0" x="174.6" y="55.8" width="3.2" height="30.3"/>
  <rect class="st0" x="183.5" y="55.8" width="3.2" height="30.3"/>
</svg>