<?xml version="1.0" encoding="UTF-8"?>
<svg id="Layer_1" xmlns="http://www.w3.org/2000/svg" version="1.1" viewBox="0 0 91 188.7">
  <!-- Generator: Adobe Illustrator 29.1.0, SVG Export Plug-In . SVG Version: 2.1.0 Build 142)  -->
  <defs>
    <style>
      .st0 {
        fill: #fff;
      }
    </style>
  </defs>
  <rect class="st0" x=".9" y="169.9" width="17.8" height="17.8"/>
  <rect class="st0" x="18.7" y="152.2" width="17.8" height="17.8"/>
  <rect class="st0" x=".9" y="98.8" width="17.8" height="17.8"/>
  <rect class="st0" x=".9" y="134.4" width="17.8" height="17.8"/>
  <rect class="st0" x="18.7" y="116.6" width="17.8" height="17.8"/>
  <rect class="st0" x="36.5" y="169.9" width="17.8" height="17.8"/>
  <rect class="st0" x="54.3" y="152.2" width="17.8" height="17.8"/>
  <rect class="st0" x="36.5" y="98.8" width="17.8" height="17.8"/>
  <rect class="st0" x="36.5" y="134.4" width="17.8" height="17.8"/>
  <rect class="st0" x="72.1" y="169.9" width="17.8" height="17.8"/>
  <rect class="st0" x="72.1" y="98.8" width="17.8" height="17.8"/>
  <rect class="st0" x="72.1" y="134.4" width="17.8" height="17.8"/>
  <rect class="st0" x="54.3" y="116.6" width="17.8" height="17.8"/>
  <rect class="st0" x=".9" y="81" width="8.9" height="8.9"/>
  <rect class="st0" x=".9" y="63.3" width="8.9" height="8.9"/>
  <rect class="st0" x="9.8" y="89.9" width="8.9" height="8.9"/>
  <rect class="st0" x="18.7" y="81" width="8.9" height="8.9"/>
  <rect class="st0" x="9.8" y="54.4" width="8.9" height="8.9"/>
  <rect class="st0" x="9.8" y="72.1" width="8.9" height="8.9"/>
  <rect class="st0" x="27.6" y="89.9" width="8.9" height="8.9"/>
  <rect class="st0" x="27.6" y="54.4" width="8.9" height="8.9"/>
  <rect class="st0" x="27.6" y="72.1" width="8.9" height="8.9"/>
  <rect class="st0" x="18.7" y="63.3" width="8.9" height="8.9"/>
  <rect class="st0" x="36.5" y="81" width="8.9" height="8.9"/>
  <rect class="st0" x="36.5" y="63.3" width="8.9" height="8.9"/>
  <rect class="st0" x="45.4" y="89.9" width="8.9" height="8.9"/>
  <rect class="st0" x="54.3" y="81" width="8.9" height="8.9"/>
  <rect class="st0" x="45.4" y="54.4" width="8.9" height="8.9"/>
  <rect class="st0" x="45.4" y="72.1" width="8.9" height="8.9"/>
  <rect class="st0" x="63.2" y="89.9" width="8.9" height="8.9"/>
  <rect class="st0" x="63.2" y="54.4" width="8.9" height="8.9"/>
  <rect class="st0" x="63.2" y="72.1" width="8.9" height="8.9"/>
  <rect class="st0" x="54.3" y="63.3" width="8.9" height="8.9"/>
  <rect class="st0" x="72.1" y="81" width="8.9" height="8.9"/>
  <rect class="st0" x="72.1" y="63.3" width="8.9" height="8.9"/>
  <rect class="st0" x="81" y="89.9" width="8.9" height="8.9"/>
  <rect class="st0" x="81" y="54.4" width="8.9" height="8.9"/>
  <rect class="st0" x="81" y="72.1" width="8.9" height="8.9"/>
  <rect class="st0" x=".9" y="45.4" width="8.9" height="8.9"/>
  <rect class="st0" x=".9" y="27.7" width="8.9" height="8.9"/>
  <rect class="st0" x="18.7" y="45.4" width="8.9" height="8.9"/>
  <rect class="st0" x="9.8" y="18.8" width="8.9" height="8.9"/>
  <rect class="st0" x="9.8" y="36.5" width="8.9" height="8.9"/>
  <rect class="st0" x="27.6" y="18.8" width="8.9" height="8.9"/>
  <rect class="st0" x="27.6" y="36.5" width="8.9" height="8.9"/>
  <rect class="st0" x="18.7" y="27.7" width="8.9" height="8.9"/>
  <rect class="st0" x="36.5" y="45.4" width="8.9" height="8.9"/>
  <rect class="st0" x="36.5" y="27.7" width="8.9" height="8.9"/>
  <rect class="st0" x="54.3" y="45.4" width="8.9" height="8.9"/>
  <rect class="st0" x="45.4" y="18.8" width="8.9" height="8.9"/>
  <rect class="st0" x="45.4" y="36.5" width="8.9" height="8.9"/>
  <rect class="st0" x="63.2" y="18.8" width="8.9" height="8.9"/>
  <rect class="st0" x="63.2" y="36.5" width="8.9" height="8.9"/>
  <rect class="st0" x="54.3" y="27.7" width="8.9" height="8.9"/>
  <rect class="st0" x="72.1" y="45.4" width="8.9" height="8.9"/>
  <rect class="st0" x="72.1" y="27.7" width="8.9" height="8.9"/>
  <rect class="st0" x="81" y="18.8" width="8.9" height="8.9"/>
  <rect class="st0" x="81" y="36.5" width="8.9" height="8.9"/>
  <rect class="st0" x=".9" y="9.9" width="8.9" height="8.9"/>
  <rect class="st0" x="18.7" y="9.9" width="8.9" height="8.9"/>
  <rect class="st0" x="9.8" y="1" width="8.9" height="8.9"/>
  <rect class="st0" x="27.6" y="1" width="8.9" height="8.9"/>
  <rect class="st0" x="36.5" y="9.9" width="8.9" height="8.9"/>
  <rect class="st0" x="54.3" y="9.9" width="8.9" height="8.9"/>
  <rect class="st0" x="45.4" y="1" width="8.9" height="8.9"/>
  <rect class="st0" x="63.2" y="1" width="8.9" height="8.9"/>
  <rect class="st0" x="72.1" y="9.9" width="8.9" height="8.9"/>
  <rect class="st0" x="81" y="1" width="8.9" height="8.9"/>
</svg>