<?xml version="1.0" encoding="UTF-8"?>
<svg id="Layer_1" xmlns="http://www.w3.org/2000/svg" version="1.1" viewBox="0 0 186.9 159.8">
  <!-- Generator: Adobe Illustrator 29.1.0, SVG Export Plug-In . SVG Version: 2.1.0 Build 142)  -->
  <defs>
    <style>
      .st0 {
        fill: #fff;
      }
    </style>
  </defs>
  <path class="st0" d="M149.7,44.9c-1.4,1.4-1.4,3.8,0,5.2,9.5,9.5,9.5,24.9,0,34.4-1.4,1.4-1.4,3.8,0,5.2.7.7,1.7,1.1,2.6,1.1s1.9-.4,2.6-1.1c12.3-12.3,12.3-32.4,0-44.8-1.4-1.4-3.8-1.4-5.2,0Z"/>
  <path class="st0" d="M170.9,28.9c-1.4-1.4-3.8-1.4-5.2,0-1.4,1.4-1.4,3.8,0,5.2,18.3,18.3,18.3,48.1,0,66.5-1.4,1.4-1.4,3.8,0,5.2.7.7,1.7,1.1,2.6,1.1s1.9-.4,2.6-1.1c21.2-21.2,21.2-55.7,0-76.9Z"/>
  <path class="st0" d="M37.2,44.9c-1.4-1.4-3.8-1.4-5.2,0-12.3,12.3-12.3,32.4,0,44.8.7.7,1.7,1.1,2.6,1.1s1.9-.4,2.6-1.1c1.4-1.4,1.4-3.8,0-5.2-9.5-9.5-9.5-24.9,0-34.4,1.4-1.4,1.4-3.8,0-5.2Z"/>
  <path class="st0" d="M21.2,28.9c-1.4-1.4-3.8-1.4-5.2,0-21.2,21.2-21.2,55.7,0,76.9.7.7,1.7,1.1,2.6,1.1s1.9-.4,2.6-1.1c1.4-1.4,1.4-3.8,0-5.2-18.3-18.3-18.3-48.1,0-66.5,1.4-1.4,1.4-3.8,0-5.2Z"/>
</svg>