<?xml version="1.0" encoding="UTF-8"?>
<svg id="Layer_1" xmlns="http://www.w3.org/2000/svg" version="1.1" viewBox="0 0 102 186">
  <!-- Generator: Adobe Illustrator 29.1.0, SVG Export Plug-In . SVG Version: 2.1.0 Build 142)  -->
  <defs>
    <style>
      .st0 {
        fill: #fff;
      }
    </style>
  </defs>
  <path class="st0" d="M93.8,68.6c-2.2,0-4,1.8-4,4v29.8c0,20.9-17,37.8-37.8,37.8S14.2,123.2,14.2,102.4v-29.8c0-2.2-1.8-4-4-4s-4,1.8-4,4v29.8c0,23.9,18.4,43.6,41.8,45.6v24.9h-27.9c-2.2,0-4,1.8-4,4s1.8,4,4,4h63.7c2.2,0,4-1.8,4-4s-1.8-4-4-4h-27.9v-24.9c23.4-2,41.8-21.7,41.8-45.6v-29.8c0-2.2-1.8-4-4-4h.1Z"/>
  <path class="st0" d="M52,132c16.3,0,29.6-13.3,29.6-29.6V36.9c0-16.3-13.3-29.6-29.6-29.6s-29.6,13.3-29.6,29.6v65.4c0,16.3,13.3,29.6,29.6,29.6h0ZM30.3,36.9c0-11.9,9.7-21.6,21.6-21.6s21.6,9.7,21.6,21.6v65.4c0,11.9-9.7,21.6-21.6,21.6s-21.6-9.7-21.6-21.6V36.9Z"/>
</svg>