<?xml version="1.0" encoding="UTF-8"?>
<svg id="Layer_1" xmlns="http://www.w3.org/2000/svg" version="1.1" viewBox="0 0 186.9 159.8">
  <!-- Generator: Adobe Illustrator 29.1.0, SVG Export Plug-In . SVG Version: 2.1.0 Build 142)  -->
  <defs>
    <style>
      .st0 {
        fill: #fff;
      }
    </style>
  </defs>
  <path class="st0" d="M131.9,56.4c-2,0-3.7,1.6-3.7,3.7v27.4c0,19.2-15.6,34.8-34.8,34.8s-34.8-15.6-34.8-34.8v-27.4c0-2-1.6-3.7-3.7-3.7s-3.7,1.6-3.7,3.7v27.4c0,22,16.9,40.1,38.5,42v22.9h-25.6c-2,0-3.7,1.6-3.7,3.7s1.6,3.7,3.7,3.7h58.6c2,0,3.7-1.6,3.7-3.7s-1.6-3.7-3.7-3.7h-25.6v-22.9c21.5-1.9,38.5-20,38.5-42v-27.4c0-2-1.6-3.7-3.7-3.7h0Z"/>
  <path class="st0" d="M93.5,114.7c15,0,27.3-12.2,27.3-27.3V27.3c-.1-15.1-12.3-27.3-27.3-27.3s-27.3,12.2-27.3,27.3v60.2c0,15,12.2,27.3,27.3,27.3h0ZM73.6,27.3c0-11,8.9-19.9,19.9-19.9s19.9,8.9,19.9,19.9v60.2c0,11-8.9,19.9-19.9,19.9s-19.9-8.9-19.9-19.9V27.3Z"/>
</svg>