<?xml version="1.0" encoding="UTF-8"?>
<svg id="Layer_1" xmlns="http://www.w3.org/2000/svg" version="1.1" viewBox="0 0 790.9 162">
  <!-- Generator: Adobe Illustrator 29.1.0, SVG Export Plug-In . SVG Version: 2.1.0 Build 142)  -->
  <defs>
    <style>
      .st0 {
        fill: #fff;
      }
    </style>
  </defs>
  <polygon class="st0" points="110.1 27.4 60.7 46.2 60.7 11.5 110.1 27.4"/>
  <path class="st0" d="M14.9,29.9l30.3-11.5v21.3l-30.3-9.7h0ZM.6,30.3l49.4,15.9V11.6L.6,30.4h0Z"/>
  <g>
    <g>
      <path class="st0" d="M159.1,1.7c6.3,0,17.8,1.8,17.8,14.2s-6.1,14.8-19.2,14.8h-6.8v20.4h-8.8V1.7h17ZM156.6,23.1c5.2,0,11.1-.6,11.1-7s-3.4-6.9-10.2-6.9h-6.6v13.9h5.7Z"/>
      <path class="st0" d="M208.4,1.7c9.5,0,18.1,3.3,18.1,14.2s-4.5,12.4-11.4,13.4l13.1,21.8h-10.6l-11.4-20.9h-6.4v20.9h-8.8V1.7h17.4,0ZM207,22.6c5,0,10.3-.7,10.3-6.8s-5.1-6.6-9.7-6.6h-7.9v13.4h7.3,0Z"/>
      <path class="st0" d="M273.8,1.7v7.9h-23.9v12.1h22.7v7.9h-22.7v13.4h25.2v7.9h-34V1.5h32.7v.2Z"/>
      <path class="st0" d="M320.5,5.5l-6.4,6.8c-2-2.7-5.2-3.9-8.6-3.9-5,0-8.1,2.5-8.1,6.3s2.8,5.2,7.7,6.7c7.9,2.4,15.8,4.9,15.8,15.1s-8,15.8-17.7,15.8-12.7-2.1-16.5-6.7l6.6-6.4c2.2,3.3,5.8,5.2,9.8,5.2s8.6-2.8,8.6-6.8-2.5-5.6-8.9-7.6c-8.9-2.7-14.6-5.7-14.6-14.6s7.5-14.9,18.2-14.9,10.7,1.8,14.2,5.1h-.1Z"/>
      <path class="st0" d="M368.9,1.7v7.9h-23.9v12.1h22.7v7.9h-22.7v13.4h25.2v7.9h-34V1.5h32.7v.2Z"/>
      <path class="st0" d="M402.4,1.7c9.5,0,18.1,3.3,18.1,14.2s-4.5,12.4-11.4,13.4l13.1,21.8h-10.6l-11.4-20.9h-6.4v20.9h-8.8V1.7h17.4,0ZM401,22.6c5,0,10.3-.7,10.3-6.8s-5.1-6.6-9.7-6.6h-7.9v13.4h7.3Z"/>
      <path class="st0" d="M439.6,1.7l13.5,37.3,13.9-37.3h9.5l-19.9,49.4h-7.6L429.6,1.7h10.1-.1Z"/>
      <path class="st0" d="M496.6,1.7v49.4h-8.8V1.7s8.8,0,8.8,0Z"/>
      <path class="st0" d="M525.3,1.7l23.9,36.7h0V1.7h8.8v49.4h-11.2l-24.4-37.9h0v37.9h-8.8V1.7h11.7Z"/>
      <path class="st0" d="M618.3,6.7l-6.5,6.6c-3.3-3.2-8.3-4.8-12.9-4.8-10.1,0-16.9,7.8-16.9,17.6s6.4,18.3,17,18.3,8-.6,11.5-2.6v-11.6h-10.1v-7.9h18.9v25.2c-6.6,3.5-13.5,4.9-20.4,4.9-15.3,0-26.1-10.5-26.1-25.7s10.6-26.1,26.1-26.1,14.2,1.5,19.4,6.2h0Z"/>
    </g>
    <g>
      <path class="st0" d="M245.2,133.8l7.4-22.7c6.5-20,5.8-22.3-3.2-22.7l.9-2.8h31.7l-.9,2.8c-11.4.3-11.6,3.3-17.9,22.7l-3.1,9.5h36.2l3.1-9.5c6.5-20,5.8-22.3-3.2-22.7l.9-2.8h31.7l-.9,2.8c-11.4.3-11.6,3.3-17.9,22.7l-7.4,22.7c-7,21.4-5.5,22.4,3.2,22.6l-.9,2.9h-31.8l.9-2.9c11.1-.4,10.9-1.1,18-22.6l3.3-10.1h-36.2l-3.3,10.1c-7,21.4-5.5,22.4,3.2,22.6l-.9,2.9h-31.8l.9-2.9c11.1-.4,10.9-1.1,18-22.6h0Z"/>
      <path class="st0" d="M339.3,133.8l7.4-22.7c6.5-20,5.8-22.3-3.2-22.7l.9-2.8h31.7l-.9,2.8c-11.4.3-11.6,3.3-17.9,22.7l-7.4,22.7c-7,21.4-5.5,22.4,3.2,22.6l-.9,2.9h-31.8l.9-2.9c11.1-.4,10.9-1.1,18-22.6h0Z"/>
      <path class="st0" d="M375,142.5c0-6.9,3.9-11.1,9-11.1s7.7,3.3,7.7,7.1c0,6.9-8.2,6-8.2,8.7s3.4,10.5,16.4,10.5,17.8-5.7,17.8-13.6c0-18.7-27.5-21-27.5-40.3s11.9-20.6,25.7-20.6,15.6,5.7,19.6,5.7,4.4-2.1,6-5.1h2.2l-9,26.9h-3c3.9-16.5-1.8-24.5-15.9-24.5s-15,4.8-15,12.5c0,15.4,27.6,18.9,27.6,39.4s-12.4,23.1-28.4,23.1-25.1-12.1-25.1-18.8h0Z"/>
      <path class="st0" d="M476.3,133.8l14.7-45.1h-3.6c-14.5,0-20.5,6-31.1,23.4l-2.1-.5,8.7-26h69l-6.5,26h-2.4c.6-17.9-2.9-22.9-13.6-22.9h-7.6l-14.4,45.1c-6.3,19.9-7.3,22.3,6.4,22.6l-.9,2.9h-38.5l.9-2.9c13.9-.3,14.6-2.7,21.1-22.6h-.1Z"/>
      <path class="st0" d="M539.5,131.8c0-25.5,22-48.5,46.3-48.5s28.4,10.9,28.4,29.6-21.9,48.4-46.3,48.4-28.4-10.9-28.4-29.5h0ZM601.8,111.4c0-16.2-5.6-25-15.7-25-17.9,0-34.4,22.6-34.4,47s5.6,24.9,15.7,24.9c17.9,0,34.4-22.5,34.4-46.9Z"/>
      <path class="st0" d="M660.1,123.5c-2.7,0-5.6-.1-8.3-.3l-3.4,10.5c-6.7,20.6-6.2,22.9,4.2,22.6l-.9,2.9h-32.9l.9-2.9c11.5-.3,11.3-1.9,18.1-22.6l7.4-22.7c6.4-19.6,5.9-22.4-3.2-22.7l.9-2.8h26.3c8,0,28.5.4,28.5,16.4s-12.6,18.6-27.5,20.2c16.3,3.4,9.4,32.2,17.9,32.2s5-4.1,5.4-8.1l2.7.2c-.3,6.5-3.4,14.4-12.8,14.4-22.8,0-1.3-37.4-23.3-37.4h0ZM652.9,120.2c1.8.1,3.2.1,4.6.1,15.1,0,28.1-6.8,28.1-19.2s-6.4-12.5-15.8-12.5h-6.6l-10.3,31.6h0Z"/>
      <path class="st0" d="M733.1,133.8l3-9.3-6-17.5c-5-14.5-5.2-18.2-15.3-18.6l.9-2.9h33.6l-.9,2.9c-11.6.2-10.8,1.9-6.6,15.1l4.8,14.8,11.3-12.2c15.1-16.3,14.5-17.5,3.1-17.7l.9-2.9h28.1l-.9,2.9c-8.7.3-11.1.8-26.4,17.9l-15.4,17.1-3.4,10.3c-7.1,21.8-5.3,22.3,3.2,22.6l-.9,2.9h-31.8l.9-2.9c10.8-.4,10.8-.8,18-22.6h-.2Z"/>
    </g>
  </g>
</svg>