<?xml version="1.0" encoding="UTF-8"?>
<svg id="Layer_1" xmlns="http://www.w3.org/2000/svg" version="1.1" viewBox="0 0 88 79">
  <!-- Generator: Adobe Illustrator 29.1.0, SVG Export Plug-In . SVG Version: 2.1.0 Build 142)  -->
  <defs>
    <style>
      .st0 {
        fill: #fff;
      }
    </style>
  </defs>
  <path class="st0" d="M26.6,32.4c0,4,4,3.4,6.7,3.4s7,2.7,7,7.5-4.1,10.3-10.3,10.3-11.9-5.7-11.9-12.9,3.5-21.1,25.3-23.9l.4,3c-13.8,1.9-17.1,8.4-17.1,12.5ZM56.9,32.4c0,4,4,3.4,6.7,3.4s7,2.7,7,7.5-4.1,10.3-10.3,10.3-11.9-5.7-11.9-12.9,3.5-21.1,25.3-23.9l.4,3c-13.8,1.9-17.1,8.4-17.1,12.5Z"/>
</svg>