<?xml version="1.0" encoding="UTF-8"?>
<svg id="Layer_1" xmlns="http://www.w3.org/2000/svg" version="1.1" viewBox="0 0 56.4 37.3">
  <!-- Generator: Adobe Illustrator 29.1.0, SVG Export Plug-In . SVG Version: 2.1.0 Build 142)  -->
  <defs>
    <style>
      .st0 {
        fill: #fff;
      }
    </style>
  </defs>
  <path class="st0" d="M8.6,15.8c0,4,4,3.4,6.7,3.4s7,2.7,7,7.5-4.1,10.3-10.3,10.3S.1,31.3.1,24.1,3.6,3,25.4.2l.4,3c-13.8,1.9-17.1,8.4-17.1,12.5h-.1ZM38.9,15.8c0,4,4,3.4,6.7,3.4s7,2.7,7,7.5-4.1,10.3-10.3,10.3-11.9-5.7-11.9-12.9S33.9,3,55.7.2l.4,3c-13.8,1.9-17.1,8.4-17.1,12.5h-.1Z"/>
</svg>