<?xml version="1.0" encoding="UTF-8"?>
<svg id="Layer_1" xmlns="http://www.w3.org/2000/svg" version="1.1" viewBox="0 0 247 249.4">
  <!-- Generator: Adobe Illustrator 29.1.0, SVG Export Plug-In . SVG Version: 2.1.0 Build 142)  -->
  <defs>
    <style>
      .st0 {
        fill: #bdad89;
      }
    </style>
  </defs>
  <g>
    <path class="st0" d="M26.6,71.6c-8.4,16.1-12.9,34.3-12.9,52.6s0,3.7.1,5.6l46.7,26.9V32.3c-14.1,10.3-25.8,23.8-33.9,39.3"/>
    <path class="st0" d="M75.9,225.5l46.1-26.6L14.4,136.8c2.1,18.8,8.9,36.9,19.7,52.4,10.7,15.3,25.1,27.9,41.8,36.3"/>
    <path class="st0" d="M66.3,28.4v54.1l107.4-62c-14.6-6.5-30.2-9.9-46.4-9.9s-42.8,6.2-61.1,17.8"/>
    <path class="st0" d="M240.3,112c-4-37.8-26.6-70.8-60.4-88.5l-46.4,26.8,106.8,61.7Z"/>
    <path class="st0" d="M127.3,237.8c22.1,0,43.5-6.3,61.9-18.3v-52.8l-107,61.8c14.3,6.2,29.5,9.3,45.1,9.3"/>
    <path class="st0" d="M228.3,176.4c8.3-16,12.7-34,12.7-52.2s0-3.5-.1-5.3l-45.9-26.5v123.1c13.9-10.3,25.4-23.8,33.3-39.1"/>
  </g>
  <g>
    <path class="st0" d="M100.3,115.4v4h-5.9v16.6h-4.6v-16.6h-5.9v-4h16.3Z"/>
    <path class="st0" d="M121.1,117.1l-3.1,3.4c-.7-.9-2.2-1.4-3.3-1.4s-3.1.6-3.1,2.1,2.2,2.2,4.5,2.9c2.5.8,5.1,2,5.1,5.7s-3.8,6.8-8,6.8-5-.8-6.9-2.6l3.2-3.6c1,1.2,2.4,2,4,2s3.2-.6,3.2-2.2-2.2-2.3-4.5-3c-2.5-.8-5.2-2-5.2-5.6s3.9-6.7,7.9-6.7,4.6.6,6.3,2.2Z"/>
    <path class="st0" d="M147.9,117.6l-3.2,3.5c-1.4-1.5-3-2-5-2-3.9,0-6.5,2.8-6.5,6.7s2.6,6.7,6.5,6.7,2.9-.3,4.3-1v-3.4h-3.7v-4.2h8.1v10.8c-2.7,1.4-5.6,2-8.6,2-6.5,0-11.2-4.2-11.2-10.9s4.7-10.9,11.2-10.9,6,.6,8.2,2.7Z"/>
    <path class="st0" d="M171.8,115.4v4h-5.9v16.6h-4.6v-16.6h-5.9v-4h16.3Z"/>
  </g>
</svg>