<?xml version="1.0" encoding="UTF-8"?>
<svg id="Layer_1" xmlns="http://www.w3.org/2000/svg" version="1.1" viewBox="0 0 384.4 355.5">
  <!-- Generator: Adobe Illustrator 29.1.0, SVG Export Plug-In . SVG Version: 2.1.0 Build 142)  -->
  <defs>
    <style>
      .st0 {
        fill: #fff;
      }
    </style>
  </defs>
  <g>
    <path class="st0" d="M208,166.2c0,.2-.2.3-.3.5l-2.8,5.1-3.1-12.5c-.3-.3-.5-.7-.8-1,0,0,0-.1-.1-.2-5.8,12.6-12.4,21.6-19.2,27.8.2.2.3.4.5.6,2.8,3.7,6.3,6.9,9.8,9.9,3.5-3,7-6.2,9.8-9.9h0c.8-1.1,1.7-2.2,2.5-3.3,1.7-2,3.3-4.1,4.6-6.3.9-1.4,1.7-2.9,2.6-4.3.5-.7,1-1.4,1.4-2.2-1.8-1.3-3.5-2.7-5.1-4.2ZM311.3,109.9c-.6-3.3-.9-6.6-1.4-9.8-.2-1.1-.5-2.1-.7-3.1-.9-3.3-1.7-6.7-2.6-10-.5-1.9-1.3-3.7-1.8-5.5-1.5-5.6-4-10.7-6-16.1-.5-1.5-1.3-3.1-2-4.6-1.6-3.4-3.2-6.8-4.8-10.2-1.5-3.2-2.9-6.4-4.6-9.4-1.4-2.6-2.9-5.1-4.3-7.6-.4-.6-.9-.7-1.5-.1-.2.2-.3.6-.3.9,0,.4.3.8.5,1.1,2.3,4.5,4.6,8.9,6.9,13.3,1.7,3.3,3.5,6.6,5,10,1.6,3.6,3.1,7.2,4.5,10.8,1.3,3.2,2.4,6.5,3.6,9.7.1.4.3.6.3,1,.1.5.1,1,.2,1.4-.2-.4-.4-.9-.5-1.3-.7-1.8-1.5-3.6-2.2-5.4-.7-1.7-1.4-3.3-2-4.9-2.7-6.5-5.8-12.6-9.1-18.7-1.9-3.6-3.7-7.2-6.1-10.5-1-1.4-1.8-2.9-2.7-4.3-.7-1.1-.9-1.1-2.2-.5-3.1,1.6-6.2,3.2-9.3,4.8-.9.5-1.8,1-2.6,1.6-.8.4-1,1-.7,1.8.8,2.4,1.6,4.9,2.7,7.2.4.8.7,1.6,1.1,2.4.6,1.3,1,2.7,1.6,3.9.7,1.3.9,2.9,1.3,4.5,0,.1,0,.3,0,.4-.1-.2-.3-.3-.4-.4l-1.2-2.8c-.3-.6-.6-1.3-1-1.9-.7-1.4-1.4-2.8-2.1-4.2-.9-1.8-1.9-3.4-2.7-5.2-.7-1.5-1.4-2.9-1.6-4.5,0-.9.1-1.5.9-2.1,1.6-1.2,3.1-2.5,5-3.4.6-.3,1.2-.6,1.7-1,2.2-1.7,4.6-3,7.1-4.2,1.3-.6,2.5-1.3,3.8-1.9.2,0,.4-.1.5-.3,1.2-1.3,2.5-2.7,3.6-4,.3-.4.3-1,.3-1.5-.1-1.3-.7-2.5-1.4-3.5-.7-1-1.5-1.9-2.2-2.9-.8-1.2-1.8-2-3-2.7-1.4-.8-2.9-.9-4.5-.3-1.8.6-3.4,1.4-5.1,2.5-1.7,1.1-3.4,2-5.1,2.9-3.3,1.9-6.2,4.3-8.4,7.4-1.6,2.3-2.5,4.9-1.4,7.6.7,1.9,1.5,3.8,2.3,5.6.4,1,.9,2,1.4,2.9,1.7,3.8,3.3,7.5,4.9,11.3,1,2.4,1.8,4.9,2.8,7.4.8,2,1.6,4,2.3,6,.8,2.2,1.5,4.5,2.3,6.7.9,2.8,1.6,5.6,2.6,8.3,1.2,3.3,1.9,6.6,2.7,9.9.8,3.1,1.7,6.3,2.4,9.4.3,1.5.5,2.9.8,4.4.4,2.7.8,5.4,1.2,8.1.1.9.1,1.8.1,2.7,0,3.1.6,6.3.1,9.4-.3,1.8-.2,3.6-.3,5.4,0,.7-.2,1.3-.3,2-.1.6-.3,1.3-.4,2-.3-.7-.2-1.5-.1-2.3.1-2.8.4-5.6.6-8.4,0-.5,0-1,0-1.4-.1-1.9-.3-3.8-.4-5.8-.1-1.1-.2-2.3-.4-3.4-.7-4.3-1.4-8.5-2.3-12.7-1.1-5-2.4-10.1-3.9-15.1-1.2-4.2-2.8-8.1-4.1-12.3-1.3-4.6-3.2-8.8-4.8-13.3-.9-2.5-1.9-5.1-2.9-7.5-1.6-3.8-3.3-7.5-5.1-11.2-1.1-2.5-2.5-5.1-2.7-8,0-.2-.3-.4-.4-.6-.2.1-.5.2-.6.4-2,3.1-1.7,6.3-.3,9.4,1,2.3,2.2,4.7,3.2,7,.6,1.3,1.3,2.5,1.8,3.8,1.1,2.7,2.2,5.6,3.2,8.3,1.1,2.7,2.2,5.4,3.2,8.1.9,2.5,1.8,5.1,2.7,7.6.4,1,.7,2,1,3.1.8,2.5,1.7,5.1,2.5,7.6.9,3.1,1.9,6.2,2.7,9.3,1,4.4,2.3,8.7,2.9,13.1.4,3.2,1,6.3,1.5,9.4.3,1.7.5,3.3.4,5.1v.6c.6,3.7,0,7.5-.3,11.3-.3,4.7-1.7,9.2-2.9,13.6-.8,2.8-2,5.3-3.7,7.6-1.3,1.8-2.4,3.6-3.9,5.1-2,2-4.2,3.9-6.3,5.7-1,.8-2,1.6-3.1,2.2-1.6.8-3.3,1.6-4.9,2.4-5,2.3-10.3,2.9-15.8,2.9-3.1,0-6-.6-8.9-1.4-3.1-.8-6-2-8.8-3.6-.5-.3-.9-.5-1.3-.8-.8-.5-1.6-1-2.4-1.6,0,.1-.1.3-.2.4-.7,1.3-1.5,2.5-2.3,3.8-1.3,2.1-2.5,4.3-4,6.3-.6.9-1.3,1.8-2,2.7-.8,1.1-1.7,2.1-2.5,3.2-.3.3-.5.6-.7.9-1,1.3-2.1,2.6-3.2,3.8-1.3,1.4-2.8,2.7-4.2,4.1l-1.5,1.4c.5.4,1.1.9,1.6,1.3.8.6,1.6,1.2,2.5,1.8,1.2.8,2.5,1.5,3.9,2.2,0,0,.1,0,.2,0,3.3,2.3,7.1,3.6,10.8,5,3.1,1.1,6.4,2,9.8,2.5,3.2.6,6.4,1.1,9.6,1.3,5.7.5,11.4.3,17.1-.9,1.4-.2,2.8-.5,4.2-.7,1.3-.2,2.7-.5,3.9-1.2.6-.3,1.3-.4,1.9-.6,4.6-1.4,9-3.4,13.1-5.6,3.3-1.9,6.4-4.1,9.5-6.2,4.2-2.8,7.5-6.5,10.7-10.4,1.9-2.3,3.6-4.7,5.1-7.3,2-3.2,3.5-6.5,5-9.9,2.2-4.8,3.8-9.8,5-14.9.9-4,1.7-7.9,2.4-11.9.3-1.7.4-3.5.5-5.2,0-.6.2-1.1.3-1.7,0-.5.3-.9.3-1.4.2-3.7.3-7.5.5-11.3,0-1.4,0-2.8.1-4.3,0-.4.1-.8,0-1.1-.5-2.6-.3-5.1-.8-7.6ZM262.7,26.7c.9-.7,1.9-1.5,2.9-2.2,3.3-2.5,6.9-4.6,10.6-6.6,1.4-.8,2.9-.6,3.9.7.8,1,1.5,2.2,2.3,3.3.1.2.1.5.2.8-.3-.1-.5-.2-.7-.3-1-.9-1.9-1.8-2.8-2.6-.6-.6-1.1-.6-1.8-.2-1.5.9-3,1.8-4.5,2.7-3.1,2-6.5,3.5-9.9,5,0,.1-.2,0-.4,0,0-.2.1-.4.3-.5ZM299.7,150.2l-1.3,5.6-7.3-13c-11.1,71.9-69.6,54.1-69.6,54.1-5.3-1.5-10-3.7-14-6.3.7-1,1.5-1.9,2.3-2.9,0,0,0,0,0-.1,0,0,.1-.1.1-.2h0c19.5,13.2,43.7,8.7,57.5-1.9,6.9-6.2,13.5-14.5,15.9-24.7,3.3-14,3.1-26.2,3.1-26.3l-1.1-10.9,10.8,19.3c1.3-20.6-10.2-47.9-10.3-48.2l-2.7-6.5,9,5.3,1,.6s-8-28.2-21.2-44.6c17.3,16.8,25.2,40,28,50,.9,3.2,1.3,5.1,1.3,5.1l-8.8-5.4c4,11.1,11.1,34.4,7.2,51.1ZM188.7,196.6c-1.4-1.4-2.9-2.7-4.2-4.1-1.1-1.2-2.2-2.5-3.2-3.8-.4-.5-.7-.9-1.1-1.4-1.3,1-2.5,2-3.7,2.9,1.3,1.7,2.5,3.4,3.9,5,1.8,2,3.8,4,5.7,5.9,1.4-1,2.8-2,4.1-3.1-.5-.5-1-.9-1.5-1.4ZM294.4,186c0,0-.3,0-.3,0-.3.3-.5.6-.8.9-1.5,1.8-2.8,3.6-4.4,5.3-3.6,3.9-7.5,7.4-12.1,10.1-1,.5-1.9,1.2-2.9,1.8-3,1.8-6.2,3.3-9.4,4.7-2.9,1.4-6.1,2-9.1,3.3-1.2.5-2.6.7-3.9.9-4.8.9-9.6,1.6-14.5,1.6-4.4,0-8.8-.4-13.1-1.1-4-.6-7.8-1.5-11.6-2.8-1.2-.4-2.4-.9-3.6-1.4-4.5-1.6-8.4-4-12.3-6.5-.1,0-.2-.1-.3-.2-.9-.6-1.7-1.3-2.5-1.9-.5-.4-1-.8-1.5-1.3-1.3,1.1-2.7,2.2-4.1,3.2.5.5,1.1,1,1.7,1.4.8.7,1.6,1.4,2.5,1.9,1.6,1.3,3.3,2.4,5,3.4,3.5,2.1,7.2,3.9,11.1,5.2,2.7.9,5.5,2,8.3,2.5,4.3,1,8.7,1.7,13.2,1.9,3.8.2,7.6.1,11.5-.2,3.8-.4,7.6-.9,11.3-2,5.7-1.7,11.3-3.9,16.6-6.7.6-.3,1.3-.8,1.9-1.1,3.3-2,6.6-4.2,9.7-6.6,1.4-1.1,2.7-2.5,4-3.8.8-.7,1.4-1.6,2.2-2.4,2.4-2.3,4.2-5.2,6.3-7.9.5-.7.9-1.5,1.3-2.3,0,0,0-.3-.1-.3ZM196.3,151c-1-1.6-1.6-3.4-2.4-5.1,0-.1-.1-.3-.2-.5-.6-1.2-1.1-2.4-1.5-3.6-1.2-3.1-2.2-6.4-2.9-9.7-.8-3.8-1.9-7.6-2.2-11.5-.3-3.3-.9-6.4-1.2-9.6-.3-2.6-.3-5.1-.4-7.7-.1-2.8-.4-5.7-.5-8.7,0-1.5,0-3.1,0-4.7,0-2.2,0-4.5,0-6.7,0-2.8,0-5.5,0-8.3,0-.6,0-1.2.1-1.8.3-4.7.6-9.4.9-14.1.2-3,.5-6,1-9,.4-2.5-.1-4.9-1.3-7-.9-1.7-2.4-2.7-4-3.7-3.3-2-7-3-10.8-3.7-2.4-.5-4.7-1-7.1-1.4-1.1-.1-2.3-.1-3.4,0-2.2.2-3.5,1.5-4.4,3.4-.3.6-.5,1.2-.7,1.9-.5,1.6-1,3.3-2.2,4.5-.3.4-.5.9-.6,1.3-.8,2.4-1.8,4.8-2,7.4-.1,1.2.1,2.1,1.3,2.7.7.3,1.5.7,2.2,1.1,1.7.8,2.3,2,2.1,3.9-.1,1.5-.3,2.9-.7,4.3-.8,2.8-1,5.7-1.4,8.6-.8,4.5-1.1,9-1.7,13.6-.8,7-1.1,14-1.3,21,0,4.3.1,8.6.3,13,.1,2.8.4,5.7.6,8.6.2,1.8.6,3.6.8,5.4.1,1.9.5,3.8.9,5.7.5,2.7,1.3,5.2,1.9,7.9.9,3.8,2.5,7.4,4,11,.3.5.4,1.1.6,1.8.3.8.5,1.6.9,2.4.9,2,1.8,3.9,2.8,5.9.7,1.4,1.4,2.9,2.1,4.3.2.5.5.9.7,1.4.5.9.9,1.7,1.5,2.5,2.1,3.3,3.9,6.8,6.4,9.8,0,0,.1.1.2.2,1.3-.8,2.5-1.8,3.8-2.8-.8-1-1.6-2-2.3-3.1-1.4-2-2.7-4.2-4-6.3-.6-1-1.3-2-1.8-3.1-.1-.2-.3-.5-.4-.7,0-.1-.1-.3-.2-.4-1.3-2.3-2.6-4.6-3.6-7-1.8-4.1-3.6-8.1-5.2-12.3-1-2.7-2-5.4-2.8-8.2-.5-1.7-1-3.3-1.2-5.1-.3-2.1-.9-4.1-1.2-6.1-.5-3.6-1-7.2-1.4-10.8-.4-3.3-.5-6.7-.7-10.1,0-1.6,0-3.3,0-4.9,0-2.9,0-5.8.1-8.7.1-2.3.4-4.6.5-6.8.1-2.4.2-4.7.4-7.1.1-1.9.3-3.9.6-5.9.3-2.5.6-4.9,1-7.4,0-.1.2-.3.3-.4,0,0,.2.3.1.3,0,.6-.1,1.3-.2,2-.4,2.9-.8,5.8-1.1,8.7-.2,1.6-.1,3.2-.2,4.8-.2,3.6-.5,7.1-.6,10.7-.1,5.6-.3,11.2.3,16.7.3,2.5.2,5,.5,7.5.4,3.9.8,7.9,1.7,11.8,1,4.7,2,9.4,3.8,13.9.7,1.8,1.6,3.7,2.2,5.6,1.3,3.7,3.1,7.2,4.8,10.7,1.1,2.3,2.2,4.6,3.5,6.8.2.4.4.7.7,1.1.2.4.5.8.7,1.1,1,1.3,1.8,2.9,2.6,4.3,1.4,2.4,3.2,4.6,4.9,6.8,3.6-3.1,6.7-6.8,9.1-11.1,4.1-7.5,6.9-14.7,8.4-19.4-.4-.7-.9-1.4-1.3-2.1ZM157.6,63.9c0,.4-.1.9-.2,1.3,0,0,0,.1-.1.2,0-.1-.2-.1-.2-.2,0-.3,0-.6,0-.8.2-1.7.5-3.4.8-5.1,0,0,.1-.2.2-.3,0,.1.1.3.2.5-.2,1.4-.4,2.9-.6,4.5ZM160.6,52.6c-.9-.3-1.1-.1-1.3.8-.1.6-.2,1.1-.3,1.8,0,0-.2.2-.3.2,0-.1-.2-.2-.2-.3-.1-1.9-1.3-2.9-2.9-3.6-.7-.2-1.4-.6-1.9-1.1-.3-.3-.7-.7-.7-1.1,0-1.2.1-2.4.2-3.6,0,0,.3-.2.4-.4,0,.1.1.3.1.4,0,.8,0,1.6.7,2,1.7,1.1,3.4,2.2,5.4,2.6,4.2.8,8.3,1.7,12.5,2.5,1.2.3,2.3.7,3.5,1.1,2.2.5,4.3,1.1,6.5,1.6,1.4.3,2.2,1.3,2.2,2.5,0,2.2-.1,4.5-.4,6.6-.3,2.3-.8,4.7-1.1,7-.3,1.9-.3,3.9-.3,5.8,0,.1,0,.2-.1.4,0-.1-.2-.2-.2-.3-.1-1.1-.5-2.3-.4-3.4.2-3.3.5-6.6.8-9.9.1-1.6.2-3.2.3-4.8-.3-1.8-.4-1.9-2.1-2.4l-12.2-2.4c-2.8-.7-5.5-1.4-8.2-2.2ZM169.7,119l-5.4,7.5s-.4-1.7-.8-4.6c-1.2-9.2-2.8-31.1,5.6-51-5.2,18.1-1.9,44.2-1.9,44.2l.6-.9,5.6-7.5s-3.7,26.4,8.3,53.4c-.4.5-.8,1.1-1.3,1.6-10.3-19.4-10.3-32.5-10.8-42.7Z"/>
    <path class="st0" d="M184.4,165.6l-2.2-1.5-.6-.4c-.4-.7-.8-1.4-1.1-2,.4-.5.9-1,1.3-1.6.4.9.8,1.8,1.3,2.8.4.9.9,1.8,1.4,2.8Z"/>
    <path class="st0" d="M204.5,183.1c-.8,1.1-1.7,2.2-2.5,3.3-2.7-2.3-5.1-4.8-7.2-7.4l.6-6.5c2.8,4.2,5.9,7.7,9.1,10.6Z"/>
    <path class="st0" d="M210,187.4c0,0,0,.1-.1.2,0,0,0,0,0,.1-.8,1-1.5,1.9-2.3,2.9-.2-.2-.5-.3-.7-.5-1.1-.7-2.1-1.5-3.1-2.3.8-1.1,1.7-2.1,2.5-3.2,1.2,1,2.5,2,3.7,2.8Z"/>
    <path class="st0" d="M178.4,185c-1.2,1-2.5,1.9-3.8,2.8-.3.2-.5.4-.8.5l-8.9-11.9,1.7-1.2,3.7-2.7,1.6-1.1,10.3-7.4h.2c0-.1.7-1.2.7-1.2l10.6-17.4,7.1-11.6,7.6,16.9c-.5,2.7-1.2,5.4-2.1,7.9l-5.3-21.4-1.8,10.8s-.5,2-1.6,5.2c-1.5,4.7-4.3,11.9-8.4,19.4-2.4,4.4-5.5,8-9.1,11.1-.5.5-1.1,1-1.8,1.4Z"/>
    <path class="st0" d="M186.1,201.1c-.6.4-1.2.8-1.9,1.1l-8.6-11.5c.3-.2.5-.4.8-.5,1.3-.9,2.5-1.9,3.7-2.9.5-.5,1.1-.9,1.7-1.4,6.9-6.2,13.4-15.2,19.2-27.8.1-.3.3-.5.4-.8l.5,2,3.1,12.5,2.8-5.1c0-.2.2-.3.3-.5,1.4-2.7,2.5-5.7,3.4-8.8l3.9,8.7c-.7,1.5-1.4,2.9-2.3,4.3-.4.8-.9,1.5-1.4,2.2-1,1.3-1.8,2.9-2.6,4.3-1.3,2.3-2.9,4.3-4.6,6.3-.8,1.1-1.7,2.2-2.5,3.3h0c-2.8,3.8-6.3,6.9-9.8,9.9-.3.3-.6.5-.9.8-.4.3-.7.6-1,.9-1.3,1.1-2.7,2.1-4.1,3.1Z"/>
    <path class="st0" d="M217.9,171.5l-.8,1.6-7.1,14.3c0,0,0,.1-.1.2,0,0,0,0,0,.1l-2.9,2.4-11.2,9.2-2,1.6-4,3.3-2.4,2-1.5-1.9c.6-.4,1.3-.8,1.9-1.2.1,0,.2-.1.3-.2,1.4-1,2.8-2,4.1-3.2.6-.5,1.3-1.1,1.9-1.7l1.5-1.4c1.4-1.4,2.9-2.7,4.2-4.1,1.1-1.2,2.2-2.5,3.2-3.8.2-.3.5-.6.7-.9.8-1.1,1.7-2.1,2.5-3.2.7-.9,1.4-1.8,2-2.7,1.4-2,2.7-4.2,4-6.3.8-1.3,1.5-2.5,2.3-3.8,0-.1.1-.3.2-.4.6-1.1,1.2-2.2,1.8-3.2l1.4,3.2Z"/>
    <path class="st0" d="M175.2,176.8c-.9-1.4-1.7-2.9-2.6-4.3-.3-.4-.5-.8-.7-1.1l-1.6,1.1c.6,1,1.2,2,1.8,3.1,1.3,2.1,2.5,4.3,4,6.3.7,1,1.5,2.1,2.3,3.1.6-.4,1.2-.9,1.8-1.4-1.8-2.2-3.5-4.4-4.9-6.8ZM175.2,176.8c-.9-1.4-1.7-2.9-2.6-4.3-.3-.4-.5-.8-.7-1.1l-1.6,1.1c.6,1,1.2,2,1.8,3.1,1.3,2.1,2.5,4.3,4,6.3.7,1,1.5,2.1,2.3,3.1.6-.4,1.2-.9,1.8-1.4-1.8-2.2-3.5-4.4-4.9-6.8ZM230.4,73.3c-.5-2.9-.6-5.8-1.4-8.6-.4-1.4-.5-2.8-.7-4.3-.2-1.9.4-3.1,2.1-3.9.7-.4,1.5-.8,2.2-1.1,1.1-.6,1.4-1.5,1.3-2.7-.3-2.6-1.2-5-2-7.4-.1-.4-.3-.9-.6-1.3-1.2-1.2-1.7-2.9-2.2-4.5-.2-.6-.4-1.3-.7-1.9-.9-1.9-2.3-3.2-4.5-3.4-1.1-.1-2.3-.1-3.4,0-2.4.4-4.7,1-7.1,1.4-3.8.7-7.5,1.7-10.8,3.7-1.6,1-3.1,2-4,3.7-1.1,2.2-1.6,4.5-1.3,7,.5,3,.8,6,.9,9,.3,4.7.6,9.4.9,14.1,0,.6.1,1.2.1,1.8,0,2.8,0,5.5,0,8.3,0,2.2,0,4.5,0,6.7,0,1.5,0,3.1,0,4.7-.1,2.9-.4,5.8-.5,8.7-.1,2.6-.1,5.1-.4,7.7-.3,3.2-.9,6.4-1.2,9.6-.3,3.9-1.4,7.7-2.2,11.5-.7,3.3-1.7,6.5-2.9,9.7-.5,1.4-1.1,2.8-1.8,4.1-.8,1.7-1.5,3.5-2.4,5.1-1.5,2.5-3.2,4.8-4.8,7.2-.4.6-.9,1.3-1.3,1.8-.4.5-.8,1.1-1.3,1.6-2.7,3.3-5.9,6.1-9.3,8.7-.3.2-.6.5-.9.7-.2.1-.4.3-.6.4-1.2.9-2.4,1.7-3.7,2.4-2.8,1.5-5.7,2.8-8.8,3.6-2.9.8-5.9,1.4-9,1.4-5.5,0-10.8-.5-15.8-2.9-1.7-.8-3.3-1.5-4.9-2.4-1.1-.6-2.2-1.4-3.1-2.2-2.2-1.8-4.3-3.7-6.3-5.7-1.5-1.5-2.7-3.4-3.9-5.1-1.6-2.3-2.9-4.8-3.7-7.6-1.2-4.4-2.6-8.9-2.9-13.6-.2-3.8-.9-7.5-.3-11.3,0-.2,0-.4,0-.6-.1-1.7.1-3.4.4-5.1.5-3.1,1.1-6.2,1.5-9.4.5-4.4,1.9-8.7,2.9-13.1.7-3.1,1.7-6.2,2.7-9.3.8-2.6,1.7-5.1,2.5-7.6.3-1.1.6-2.1,1-3.1.9-2.5,1.8-5.1,2.7-7.6,1-2.7,2.1-5.4,3.2-8.1,1.1-2.7,2.1-5.5,3.2-8.3.5-1.3,1.2-2.5,1.8-3.8,1.1-2.3,2.2-4.6,3.2-7,1.4-3.2,1.7-6.3-.3-9.4-.1-.2-.4-.3-.6-.4-.1.2-.4.4-.4.6-.2,2.9-1.5,5.5-2.7,8-1.7,3.7-3.4,7.4-5,11.2-1.1,2.5-2.1,5-2.9,7.5-1.6,4.5-3.5,8.8-4.8,13.3-1.2,4.2-2.8,8.1-4.1,12.3-1.4,5-2.7,10.1-3.9,15.1-.9,4.2-1.6,8.5-2.3,12.7-.2,1.1-.3,2.2-.4,3.4-.2,2-.3,3.9-.4,5.8,0,.5,0,1,0,1.4.2,2.8.4,5.6.6,8.4,0,.8.2,1.5-.1,2.3-.1-.7-.3-1.3-.4-2-.1-.7-.3-1.3-.3-2-.1-1.8,0-3.6-.3-5.4-.5-3.2,0-6.3.1-9.4,0-.9,0-1.8.1-2.7.4-2.7.8-5.4,1.2-8.1.3-1.5.4-2.9.8-4.4.8-3.1,1.6-6.3,2.4-9.4.8-3.3,1.5-6.6,2.7-9.9,1-2.7,1.7-5.5,2.6-8.3.7-2.3,1.4-4.5,2.3-6.7.7-2,1.5-4,2.3-6,.9-2.5,1.8-5,2.8-7.4,1.6-3.8,3.2-7.6,4.9-11.3.4-1,.9-2,1.3-2.9.8-1.8,1.7-3.7,2.4-5.6,1-2.7.2-5.4-1.4-7.6-2.2-3.2-5.1-5.5-8.4-7.4-1.7-.9-3.4-1.8-5.1-2.9-1.6-1-3.3-1.8-5.1-2.5-1.6-.6-3.1-.5-4.5.3-1.2.7-2.3,1.5-3,2.7-.6,1-1.5,1.9-2.2,2.9-.7,1-1.3,2.2-1.4,3.5,0,.5,0,1.1.3,1.5,1.1,1.4,2.4,2.7,3.6,4,.1.2.3.3.5.3,1.3.6,2.5,1.3,3.8,1.9,2.5,1.2,4.9,2.5,7.1,4.2.5.4,1.1.8,1.7,1,1.9.8,3.4,2.2,5,3.4.8.6,1,1.2.9,2.1-.2,1.6-.9,3.1-1.6,4.5-.8,1.8-1.8,3.4-2.7,5.2-.7,1.4-1.4,2.8-2.1,4.2-.3.6-.6,1.3-.9,1.9l-1.2,2.8c0,.1-.3.3-.4.4,0-.2,0-.3,0-.4.4-1.5.6-3.1,1.3-4.5.6-1.2,1-2.6,1.6-3.9.4-.8.7-1.6,1.1-2.4,1.1-2.3,1.9-4.7,2.7-7.2.3-.8,0-1.4-.7-1.8-.9-.6-1.7-1.1-2.6-1.6-3.1-1.6-6.2-3.2-9.4-4.8-1.2-.6-1.4-.6-2.1.5-.9,1.4-1.7,2.9-2.7,4.3-2.4,3.3-4.2,6.9-6.1,10.5-3.3,6.1-6.5,12.2-9.1,18.7-.6,1.6-1.3,3.2-2,4.9-.7,1.8-1.5,3.6-2.2,5.4-.2.4-.4.9-.5,1.3,0-.5,0-.9.2-1.4,0-.3.2-.6.3-1,1.2-3.2,2.3-6.5,3.5-9.7,1.4-3.6,2.9-7.2,4.6-10.8,1.5-3.4,3.3-6.7,5-10,2.3-4.4,4.6-8.8,6.9-13.3.2-.3.4-.7.5-1.1,0-.3-.1-.7-.3-.9-.5-.5-1.1-.5-1.5.1-1.5,2.5-3,5-4.3,7.6-1.6,3.1-3.1,6.3-4.6,9.4-1.7,3.4-3.3,6.8-4.8,10.2-.7,1.5-1.5,3.1-2,4.6-1.9,5.4-4.4,10.6-6,16.1-.5,1.9-1.3,3.7-1.8,5.5-.9,3.3-1.7,6.7-2.6,10-.3,1-.6,2-.7,3.1-.5,3.3-.8,6.6-1.4,9.8-.5,2.5-.3,5.1-.7,7.6,0,.3,0,.8,0,1.1,0,1.4,0,2.9.1,4.3.2,3.8.3,7.6.5,11.3,0,.5.1.9.3,1.4,0,.5.2,1.1.3,1.7.1,1.7.2,3.4.5,5.2.7,4,1.6,7.9,2.4,11.9,1.1,5.2,2.8,10.1,5,14.9,1.5,3.3,3,6.7,5,9.9,1.6,2.5,3.3,5,5.1,7.3,3.1,3.8,6.5,7.5,10.7,10.4,3.1,2.2,6.2,4.3,9.5,6.2,4.2,2.3,8.6,4.3,13.2,5.6.6.2,1.3.3,1.9.6,1.2.6,2.5,1,3.9,1.2,1.4.3,2.8.5,4.2.7,5.7,1.1,11.4,1.4,17.1.9,3.2-.2,6.4-.7,9.6-1.3,3.3-.5,6.6-1.3,9.8-2.5,3.7-1.4,7.5-2.6,10.8-5,0,0,.1,0,.2,0,.7-.3,1.4-.6,2-1,.6-.4,1.3-.7,1.9-1.1,1.4-1,2.8-2,4.1-3.1.4-.3.7-.6,1-.9.3-.3.6-.5.9-.8,3.5-3,7-6.2,9.8-9.9h0c.8-1.1,1.7-2.2,2.5-3.3,1.7-2,3.3-4.1,4.6-6.3.9-1.4,1.7-2.9,2.6-4.3.5-.7,1-1.4,1.4-2.2.9-1.4,1.6-2.9,2.3-4.3.4-.8.8-1.7,1.2-2.5,1.7-3.6,3.5-7,4.8-10.7.6-1.9,1.5-3.8,2.3-5.6,1.8-4.5,2.8-9.2,3.8-13.9.8-3.9,1.2-7.9,1.7-11.8.3-2.4.3-5,.5-7.5.6-5.6.4-11.1.3-16.7,0-3.6-.4-7.1-.6-10.7,0-1.6,0-3.2-.2-4.8-.3-2.9-.7-5.8-1.1-8.7-.1-.7-.2-1.4-.2-2,0,0,0-.3.1-.3.1.1.3.3.3.4.4,2.5.7,4.9,1,7.4.3,1.9.4,3.9.6,5.9.2,2.3.3,4.7.4,7.1.1,2.3.4,4.5.5,6.8.1,2.9,0,5.8.1,8.7,0,1.6,0,3.3,0,4.9-.2,3.4-.4,6.7-.7,10.1-.4,3.6-.9,7.3-1.4,10.8-.3,2-1,4-1.3,6.1-.2,1.8-.7,3.4-1.2,5.1-.8,2.8-1.8,5.5-2.8,8.2-1.6,4.2-3.4,8.2-5.2,12.3-.6,1.3-1.2,2.5-1.9,3.8-.6,1-1.2,2.1-1.8,3.2,0,.1-.1.3-.2.4-.7,1.3-1.5,2.5-2.3,3.8-1.3,2.1-2.5,4.3-4,6.3-.6.9-1.3,1.8-2,2.7-.8,1.1-1.7,2.1-2.5,3.2-.3.3-.5.6-.7.9-1,1.3-2.1,2.6-3.2,3.8-1.3,1.4-2.8,2.7-4.2,4.1l-1.5,1.4c-.6.6-1.3,1.1-1.9,1.7-1.3,1.1-2.7,2.2-4.1,3.2-.1,0-.2.1-.3.2-.6.4-1.3.8-1.9,1.2-3.3,2.1-6.7,4-10.4,5.3-1.2.4-2.3,1-3.6,1.4-3.8,1.3-7.7,2.1-11.6,2.8-4.3.7-8.7,1-13.1,1.1-4.9,0-9.7-.7-14.5-1.6-1.3-.3-2.7-.4-4-.9-2.9-1.3-6.1-1.9-9.1-3.3-3.2-1.5-6.4-2.9-9.4-4.7-1-.6-1.9-1.3-2.9-1.8-4.6-2.7-8.5-6.2-12.1-10.1-1.6-1.7-2.9-3.6-4.4-5.3-.3-.3-.5-.6-.8-.9s-.3-.1-.4,0c0,0-.1.2,0,.3.4.8.8,1.6,1.3,2.3,2.1,2.7,3.9,5.6,6.3,7.9.8.8,1.4,1.7,2.2,2.4,1.3,1.3,2.5,2.7,4,3.8,3.1,2.4,6.3,4.5,9.7,6.6.6.3,1.2.8,1.9,1.1,5.3,2.8,10.9,5,16.6,6.7,3.7,1.1,7.5,1.6,11.3,2,3.8.3,7.6.4,11.5.2,4.5-.2,8.8-.9,13.2-1.9,2.8-.6,5.6-1.6,8.3-2.5,3.9-1.3,7.6-3.1,11.1-5.2,1.7-1,3.3-2.2,5-3.4,1.4-1,2.8-2.2,4.1-3.3.5-.4.9-.8,1.4-1.3.2-.1.3-.3.5-.5,2-1.9,4-3.8,5.7-5.9,1.3-1.5,2.4-3.1,3.6-4.6.7-1,1.5-1.9,2.3-2.9,0,0,0,0,0-.1,0,0,.1-.1.1-.2h0c2.4-2.9,4.2-6.4,6.2-9.6.8-1.3,1.5-2.6,2.2-4,.7-1.4,1.4-2.9,2.1-4.3,1-2,1.9-3.9,2.8-5.9.4-.8.6-1.6.9-2.4.2-.6.4-1.2.6-1.8,1.5-3.6,3.1-7.2,4-11,.6-2.7,1.4-5.2,2-7.9.4-1.9.7-3.8.9-5.7.1-1.8.6-3.6.8-5.4.3-2.9.5-5.8.6-8.6.2-4.3.4-8.7.3-13-.1-7-.5-14-1.3-21-.5-4.5-.9-9.1-1.7-13.6ZM121.5,27.2c-3.4-1.4-6.8-2.9-9.9-5-1.5-1-3-1.8-4.5-2.7-.7-.4-1.3-.4-1.8.2-.9.9-1.9,1.8-2.8,2.6-.2.1-.4.1-.7.3,0-.3,0-.6.2-.8.8-1.1,1.5-2.3,2.3-3.3,1-1.3,2.5-1.5,3.9-.7,3.7,2,7.3,4.1,10.6,6.6,1,.7,1.9,1.5,2.9,2.2.1.1.2.3.3.5-.2,0-.3.1-.4,0ZM203.8,41.2c2.6-.8,5.2-1.7,7.8-2.3,2.7-.7,5.4-1.2,8.2-1.7.8-.1,1.6-.1,2.4,0,1,.2,1.7.8,2,1.8.4,1.4.8,2.7,1.1,4.1,0,.1,0,.3,0,.4-.1,0-.3.1-.3.1-.3-.4-.5-.6-.7-1-.6-.9-1.1-1.9-1.7-2.8-.7-1.1-1-1.1-2.2-.9-2.2.5-4.3,1.1-6.5,1.4-3.1.5-6.1.8-9.2,1.2-.3,0-.5,0-.8,0-.1,0-.2-.1-.3-.2,0-.1.1-.3.3-.3ZM221.4,123.1l-7-7.5c.7,9.5,1.3,27.4-3,41.8-.9,3.1-2,6.1-3.4,8.8,0,.2-.2.3-.3.5l-2.8,5.1-3.1-12.5-.5-2c-.1.3-.3.5-.4.8-5.8,12.6-12.4,21.6-19.2,27.8-.6.5-1.1,1-1.7,1.4-1.3,1-2.5,2-3.7,2.9-.3.2-.5.4-.8.5-27,18.2-55.7,0-55.7,0-21-12.7-25.8-35.7-26.7-48.3l-7.1,13.2-1.4-5.6c-4.2-16.7,2.5-40.1,6.2-51.2l-8.7,5.5s.3-1.9,1.1-5c2.5-10.1,10-33.4,27-50.5-12.9,16.6-20.4,44.9-20.4,44.9l1-.6,8.9-5.5-2.6,6.5c-.1.3-11.1,27.8-9.4,48.4l10.5-19.5-1,10.8c0,.1-.9,12.6,3.6,26.3,11.3,34.4,45.5,40.1,66.1,31.8,2.2-1.1,4.4-2.3,6.5-3.7.3-.1.5-.3.8-.5,1.3-.8,2.5-1.8,3.8-2.8.6-.4,1.2-.9,1.8-1.4,3.6-3.1,6.7-6.8,9.1-11.1,4.1-7.5,6.9-14.7,8.4-19.4,1.1-3.2,1.6-5.2,1.6-5.2l1.8-10.8,5.3,21.4c.9-2.5,1.5-5.1,2.1-7.9,3.7-18.6.9-41,.9-41.3l-.9-7,7.3,7.5.8.8s-.2-29.3-8.5-48.6c12.2,20.9,13.6,45.2,13.6,55.7,0,3.3-.1,5.2-.1,5.2ZM227.2,65.2s-.1,0-.2.2c0,0-.1-.1-.1-.2,0-.4-.1-.9-.2-1.3-.2-1.6-.4-3.1-.6-4.5.1-.3.2-.4.2-.5,0,.1.2.3.2.3.3,1.7.5,3.4.8,5.1,0,.3,0,.5,0,.8ZM225.7,55.1c0,0-.1.1-.2.3-.1,0-.3-.1-.3-.2-.1-.6-.2-1.2-.3-1.8-.2-.9-.4-1-1.3-.8-2.7.8-5.4,1.5-8.2,2.2-3.6.9-7.4,1.5-11.1,2.2-.4,0-.8.2-1.1.3-1.7.5-1.8.6-2.1,2.4.1,1.6.2,3.2.3,4.8.3,3.3.6,6.6.8,9.9,0,1.1-.3,2.3-.4,3.4,0,.1-.1.2-.2.3,0-.2-.1-.3-.1-.4-.1-1.9,0-3.9-.3-5.8-.3-2.3-.8-4.6-1.1-7-.3-2.2-.4-4.5-.4-6.6,0-1.2.8-2.2,2.2-2.5,2.2-.5,4.3-1.1,6.5-1.6,1.1-.4,2.3-.8,3.5-1.1,4.2-.9,8.3-1.7,12.5-2.5,2-.4,3.7-1.5,5.4-2.6.7-.4.6-1.3.7-2,0,0,0-.2,0-.4.1.1.4.3.4.4.1,1.2.2,2.4.2,3.6,0,.4-.4.9-.7,1.1-.6.4-1.3.9-1.9,1.1-1.6.7-2.8,1.6-2.9,3.6ZM175.2,176.8c-.9-1.4-1.7-2.9-2.6-4.3-.3-.4-.5-.8-.7-1.1l-1.6,1.1c.6,1,1.2,2,1.8,3.1,1.3,2.1,2.5,4.3,4,6.3.7,1,1.5,2.1,2.3,3.1.6-.4,1.2-.9,1.8-1.4-1.8-2.2-3.5-4.4-4.9-6.8Z"/>
  </g>
  <g>
    <g>
      <g>
        <path class="st0" d="M80.4,250.5c-.3-.6-1-1.1-2.2-1.6-.9-.3-1.9-.5-2.8-.7h-.4c-.4-.2-.9-.1-1.3,0-1.8.8-3.1,2.3-4,4.6-2.2,5.6-4.5,11-6.5,15.5-1.5,3.4-2.9,6.3-4.6,9.4l-.8,1.5-.9-3.4c-.3-1.1-.6-2-.9-2.8-1.1-3.5-1.3-5.5-1.5-7.5-.2-1.9-.4-3.8-1.4-7.1-.9-2.9-2.4-4.5-7-3.4-1.7.4-3.4,2.5-4.2,5-.9,2.3-1.2,3.2-1.4,3.8-.3.9-.5,1.5-1.7,4.3-1.4,3.3-2.9,6.2-4.5,9.4l-.8,1.4-1-3.5c-.3-1-.6-1.8-.8-2.7l-2-6.5c-1.5-4.7-2.9-9.4-4.3-14.2-.9-2.9-2.4-4.5-7-3.4-2.1.5-3.6,1.6-4.6,3.4.4.8.8,1.7,1.3,2.5,1,1.9,2,4,2.7,6.1l.3.9c2.9,8.9,5.8,18.2,8.1,27.4.9,3.5,2.7,5.5,6.1,6.8,2,.8,3.3.9,4.3.4,1-.5,1.7-1.7,2.4-4,1-3.7,2.1-6.6,3.3-9.3,1-2.2,1.8-4.2,2.7-6.1l1.5-3.6.5,1.8c1.2,4.4,2.2,8.5,3.7,14.3.9,3.5,2.7,5.4,6.1,6.7,2,.8,3.3.9,4.3.4,1-.5,1.7-1.7,2.4-3.9,1.1-3.7,2.2-6.7,3.3-9.4,2.2-4.9,4.5-9.8,6.7-14.5,1.1-2.5,2.3-5,3.4-7.4l.5-1.1c1-2.2,2.1-4.6,3-6.9.3-.6.4-1.2.4-1.7s0-.6-.2-.8Z"/>
        <path class="st0" d="M124.5,274.7l-2-2.5c-.3-.4-.8-.5-1.3-.5-.5,0-.9.3-1.1.7-.8,1.3-1.6,2.8-1.8,3.1-.2.4-.4.8-.6,1.2-.1.2-.2.4-.3.5-.4.7-.8,1.4-1.1,2,0,.1-.9,1.5-1.3,2.2-.1.3-.3.6-.5.9-.1.3-.3.5-.6.6-.1,0-.2,0-.3-.2,0,0-.1-.2,0-.3,0,0-.7-3.5-1.1-5.1-.3-.9-.6-1.8-1-2.7-.3-.8-.6-1.7-.8-2.6-.3-1-.6-2.1-1.1-3.1-.4-.6-.9-1.3-1.5-1.8-.3-.3-.8-.5-1.2-.5-1,0-2.1.3-2.9.9-.9.9-1.7,1.8-2.5,2.8-.1.1-.2.2-.3.4-.6.6-3,3.6-3.1,3.8-.5.8-.9,1.6-1.4,2.4-.4.6-.8,1.2-1.2,1.8,0,0,0,.1-.1.3-.5.7-.9,1.5-1.4,2.2-.4.6-.8,1.2-1.2,1.8-.2.3-.4.5-.5.8-.5.6-.9,1.3-1.5,1.8-.6.6-1.3,1.3-2,1.8-.3.2-.7.4-.9.6-.4.4-1,.5-1.4.8-.1,0-.3,0-.4,0-.9,0-1.8.1-2.6.2-.4,0-.8-.2-.9-.5,0,0,0,0,0-.1.5-.4,1.1-.9,1.7-1.3.8-.6,1.5-1.2,2.3-1.9.6-.4,1.1-.9,1.6-1.4.5-.6,1-1.2,1.5-1.8,0-.1.1-.2.2-.3.4-.6.7-1.2,1-1.9.4-.8.7-1.5,1-2.3.3-.7.4-1.4.7-2,.3-.7.4-1.5.4-2.3,0-1.3-.4-2.5-1.2-3.4-.9-.9-1.9-1.6-3-2.2-.2-.1-.4-.2-.7-.3-.8-.2-1.5-.4-2.3-.5-.4,0-.8-.1-1.3-.1-.7,0-1.5,0-2.2.2-.5.1-1,.3-1.5.4-.6.3-1.1.5-1.7.8-1.1.6-2,1.5-2.7,2.5-.5.6-.9,1.4-1.3,2-.9,1.3-1.6,2.8-1.9,4.3-.3,1.1-.4,2.3-.6,3.5-.2.9-.3,1.9-.3,2.9-.3,4.8,1.3,7.8,4.2,10.6.6.6,1.3,1.1,2,1.5.1.1.3.2.5.3.7.4,1.5.7,2.3.9.5.1,1.1.3,1.7.4,1,.1,2,.1,2.9,0,.7-.1,1.5-.1,2.2-.4,1-.3,1.9-.8,2.8-1.2.7-.3,1.3-.7,1.9-1.1.5-.3,1-.6,1.4-1,1.3-1.3,2.7-2.5,3.7-4.1,0,0,.1-.1.2-.3.4.8.8,1.7,1,2.5.2.3.3.6.4.8.5.9,1.1,1.6,1.7,2.4.7.9,2.2,2.2,3.4,2.3.7,0,1.4.1,2,0,.5,0,1,0,1.6-.2.4-.1.8-.4,1.2-.5.8-.3,1.6-.7,2.3-1.2,1.3-.9,2.5-2,3.5-3.2.4-.4.6-1,1.1-1.4.6-.7,1.2-1.4,1.7-2.2.1-.2.3-.4.4-.6.4-.6.8-1.1,1.1-1.7.1-.2,5.1-8.7,5.3-8.9.3-.2-.3-2.4-.3-2.4ZM79.9,282.6c-.2-.8-.3-1.7-.2-2.6,0-1.3.6-2,1.1-3.2.3-.7.7-1.3,1.2-1.9.3-.3.7-.5,1-.8.2,0,.4,0,.6.1.6.2,1.1.4,1.1,1,0,1-.1,1.9-.6,2.8-.5.9-1.1,1.6-1.7,2.5-.7.8-1.6,1.5-2.5,2.1ZM106.6,287.4c-.1,1-.9,1.8-1.9,1.8-1.9,0-3.3-2.7-3.6-3.3-.1-.5-.2-1-.1-1.5.3-1.3.8-2.6,1.3-3.8,0-.1,0-.2.1-.3.3-.4.5-.8.8-1.2.2-.4.5-.6.8-.9.4.2.7.4.9.8.7.9,1.4,3.9,1.5,5.2,0,.6.2,3.1.2,3.3Z"/>
        <path class="st0" d="M136.5,275.9c-.3-.4-.6-.6-.9-.9-.4-.3-.8-.4-1.1-.6-.6.3-1.2.6-1.6,1.4-.4.8-.6,1.5-.8,2.4-.2.5-.3,1-.4,1.6-.1.4-.3.7-.4,1.1-.1.6-.2,1.6-.4,2.7h0c-.3,1.3-.5,2.5-1,3.3-.5.8-1.3,1.4-2.6,1.3-1.4-.1-1.6-3.2-1.8-4.7-.2-1.5-.2-3.5,0-5,.5-5.4.6-8.3,2-12.7.3-.9.5-1.7.8-2.6,0-.3,1.2-.4,1.6-.4.7-.1,5.9-.4,7.2-.9.9-.4,1.4-1.3,1.1-2.2-.2-.7-.4-1.3-.7-2-.4-.8-.5-1.1-1.2-1.7-.5-.3-1.7,0-2.2,0-1.2.2-2.9.3-3.8.4-1.3.2-1.4-.6-2.2-1.9-.3-.6-.8-1.1-1.2-1.7-.6-.6-1.3-1-2.3-.9-.2,0-.4.1-.6.3-.8.5-1.4,1.3-2,1.9-.1.1-.1.2-.2.4-.1.3-.2.7-.3,1-.2.7-.6,1-1.4,1-.2,0-.4,0-.5,0-1.5.1-2.9.1-4.8.4-1.1.1-4.7.2-5.1.6-2.4,1.1,1,6.5,3.1,6.3.9-.1,6.8-.5,7,0-.3.9-1.1,3.4-1.5,5.2-.5,2.3-.8,5.3-.9,8.4-.2,4.1,0,8.2.5,10.8,0,0,0,.1,0,.2.8,3.3,4.1,7.8,5.5,8.3,1.4.5,2.8.8,4.9.5,2.1-.3,4-1.3,4.7-2.7,0,0,0,0,0-.1.3-.3.6-.8.9-1.2,1.7-2.4,3.2-6.2,3.3-7.3.1-.8.2-1.7.3-2.5,0-1.4.1-2.7.2-4.1,0-.4-.1-.9-.3-1.3-.3-.7-.7-1.3-1.1-1.9Z"/>
        <path class="st0" d="M183.1,283.7c-.4.6-1.5,1.9-2.2,2.7h0c-.1.1-.2.3-.3.3-.8.8-1.6,1.6-2.3,2.2-.6.4-1.5.8-2.8,1-1-.1-2-.8-2.6-1.8-.3-.5-.3-2.2-.3-2.7,0-1.3.3-2.6.6-3.9.3-1.3.5-2.6.9-3.8.2-.8.3-1.6.6-2.3.4-1,.9-1.9,1.3-2.9.3-.7.6-1.4.8-2.2.2-.9.1-1.8-.2-2.7-.2-.7-.6-1.1-1.2-1.4-.8-.3-1.5-.5-2.3-.4-.4,0-.7,0-1.1,0-.8,0-1.5,0-2.3.1-.8.1-1.7.3-2.5.5-.7.1-1.4.3-2,.6-.9.5-1,.5-1.7-.3-.3-.4-.8-.6-1.3-.5-.6,0-1.3,0-1.9.1-.6,0-1.3.6-1.5,1.2,0,.3-.1.7-.3,1-.1.4-.6,2.9-1.6,5.9-1,3-2.4,6.7-4.4,9.6-.2.3-.4.5-.4.5-.2.3-6.1,7-9,5.5-.4-.2-1.8-1.4-2-1.8,0,0,0-.1,0-.1.6-.5,1.1-.9,1.7-1.4.8-.6,1.6-1.2,2.3-1.9.5-.5,1.1-.8,1.6-1.4.5-.6,1-1.2,1.5-1.9,0,0,.1-.2.2-.3.4-.6.7-1.2,1-1.9.4-.8.7-1.5,1-2.3.3-.7.4-1.4.6-2,.3-.8.4-1.5.4-2.3,0-1.3-.3-2.5-1.1-3.4-.9-1-1.9-1.6-3.1-2.2-.2-.1-.5-.2-.7-.3-.8-.2-1.5-.4-2.3-.5-.4,0-.8,0-1.3,0-.8,0-1.5,0-2.2.2-.5.1-1,.3-1.5.4-.6.3-1.1.5-1.7.8-1.2.6-2,1.5-2.7,2.5-.5.7-.9,1.4-1.3,2.1-.9,1.3-1.6,2.8-1.9,4.3-.3,1.2-.4,2.4-.7,3.6-.2.9-.2,1.9-.3,2.9v.4c-.2,4.1,1,6.9,3.2,9.3.3.4.6.7,1,1,.6.6,1.4,1,2.1,1.5.1.1.3.2.5.3.7.4,1.5.7,2.3.9.6,0,1.1.3,1.7.3,1,0,1.9.3,2.9,0,.7-.2,1.5-.2,2.2-.4,1-.3,1.9-.8,2.9-1.2.7-.3,1.3-.7,1.9-1.1.5-.3,1-.6,1.4-1,.7-.6,1.4-1.1,2.2-1.9.8-.8,1.7-1.9,2.7-3.8.5-.8.9-1.5,1.3-2.2.5-.9,3.6-7.9,4-8.9.2-.5.6-.8,1.1-.9.4-.1.9-.1,1.3-.2.2,0,.4,0,.5.2.4.3.5.8.4,1.3-.1.6-.4,1.2-.6,1.8-.2.6-.4,1.1-.6,1.7-.1.4-.4.8-.5,1.3-.2.8-.4,1.7-.6,2.4,0,.4-.2,1-.2,1.4,0,.6,0,1.2,0,1.8,0,1,.1,2.1.4,3.2.2.8.5,1.6.9,2.3.3.6.7,1.1,1.1,1.7.4.5,1.8,1.5,2.3,1.9,1.7,1.1,7.3.9,8.8.1.9-.4,1.9-1,2.8-1.8,2.3-1.8,4.4-4.2,4.6-6.5,0-1.2-.1-4.1-1.8-4.3ZM138.8,282.4c-.3-.9-.3-2.3-.2-2.6,0-1.3.6-2.1,1.1-3.3.3-.7.7-1.3,1.2-1.9.3-.3.7-.5,1.1-.8.2,0,.4,0,.5.1.6.1,1.1.4,1.2,1,0,1-.2,1.9-.7,2.8-.5,1-1.1,1.7-1.7,2.5-.3.5-2,1.9-2.5,2.1Z"/>
        <path class="st0" d="M212.4,276.9c-.5-.4-1.3-.3-1.7.3-.2.3-1.9,4.6-2,5-1.2,2.9-3,4.7-4.6,4.5-.3,0-.5-.4-.5-.6,0-.6-.1-1.3-.2-2,0-.9,0-1.8,0-2.6,0-.9.2-1.9.3-2.8,0-1,0-2,.1-3,0-.1,0-.3,0-.4.1-1.3.3-2.5.4-3.7.1-1.3-.3-2.4-1-3.3-.4-.5-.9-1-1.5-1.4-.5-.4-1-.6-1.7-.6-.8,0-1.5,0-2.2.3-.8.2-1.4.7-2,1.1-1.1.9-2.2,1.9-3,3.1-.4.5-.8,1.1-1.2,1.7,0,0,0,.1-.1.2-.5.8-1.8,4.3-2.2,3.4-.3-.7-.2-1.4-.2-1.8,0-1.6-.3-3.1-1-4.6-.4-.8-.9-1.3-1.5-1.7-.4-.3-.9-.4-1.3-.6-.8-.3-1.6,0-2.3.4-.7.3-1.7.8-2.5,1.3-.4.3-.6.8-.5,1.3.7,2.5,1.3,6.8,1.2,10.5,0,.9,0,1.8.1,2.7,0,1,0,2.1-.2,3.1h0c0,.2,0,.3,0,.5-.1.5-.1,1-.2,1.5,0,.4,0,.8-.1,1.2-.1.8-.3,1.5-.4,2.3-.1.9-.1,1.8.1,2.6,0,.1,0,.3,0,.4.3.8.8,1.4,1.6,1.7.7.3,1.3.2,2,.3.5,0,1.1,0,1.5-.4,0,0,.2,0,.3-.1,1.1-.4,2-1.1,2.5-2.2.4-.9.9-1.7,1.2-2.6.3-1,2.9-8.1,3.1-8.4.4-.7,1.4-3,1.8-3.7.1-.2.2-.4.6-.4,0,.1.2.3.2.5,0,.3-.1,1.4-.3,2.5,0,.9-.3,5.5,0,6.9.2,1,.4,1.9.6,2.9.2.6.6,1.3.8,1.9.3.8.9,1.4,1.6,1.8,1.1.8,2.4,1.1,3.8,1.2.4,0,.8,0,1.2-.1,2.8-.5,7.1-4.7,7.8-5.3,1.3-1.2,3.2-4.1,4.7-7.1,1.6-3.2-1.4-6.1-3-7.3Z"/>
      </g>
      <g>
        <path class="st0" d="M285.1,250.5c-.3-.6-1-1.1-2.2-1.6-.9-.3-1.9-.5-2.8-.7h-.4c-.4-.2-.9-.1-1.3,0-1.8.8-3,2.3-4,4.6-2.2,5.6-4.5,11-6.5,15.5-1.5,3.4-2.9,6.3-4.5,9.4l-.8,1.4-1-3.3c-.4-1.1-.6-2-.9-2.9-1.1-3.5-1.3-5.5-1.5-7.5-.2-1.9-.4-3.8-1.5-7.1-.8-2.9-2.3-4.5-7-3.4-1.7.4-3.4,2.5-4.2,5-.9,2.3-1.2,3.2-1.4,3.8-.3.9-.5,1.5-1.8,4.3-1.4,3.3-2.8,6.2-4.5,9.4l-.8,1.4-1-3.3c-.3-1.1-.6-2-.9-2.9l-2-6.5c-1.5-4.7-2.9-9.4-4.3-14.2-.9-2.9-2.4-4.5-7-3.4-2.1.5-3.7,1.6-4.6,3.4.4.8.8,1.7,1.2,2.5,1,1.9,2,4,2.7,6.1l.3,1c2.8,8.9,5.8,18.1,8.1,27.4.9,3.5,2.6,5.5,6.1,6.8,2,.8,3.3.9,4.3.4,1-.5,1.7-1.7,2.4-4,1.1-3.7,2.2-6.6,3.3-9.3,1.1-2.4,2-4.6,2.9-6.7l1.3-3,.5,1.8c1.2,4.4,2.3,8.5,3.7,14.3.9,3.5,2.6,5.4,6.1,6.7,2,.8,3.3.9,4.3.4,1-.5,1.8-1.7,2.4-3.9,1.1-3.7,2.2-6.7,3.3-9.4,2.2-4.9,4.5-9.8,6.7-14.5,1.1-2.5,2.3-5,3.4-7.4l.5-1.1c1-2.2,2.1-4.6,2.9-6.9.2-.6.4-1.2.4-1.7s0-.6-.2-.8Z"/>
        <path class="st0" d="M311,272.3c-.6-.4-1.7-.3-2.2.3,0,0,0,0,0,0-.5.8-1.2,2-1.4,2.6-.3.4-.5.9-.7,1.3-.8,1.4-1.5,2.9-2.4,4.3-.6.9-1.2,1.7-1.8,2.5-.2.2-.4.5-.5.7-.2.3-.4.6-.6.9-.4.6-1,1-1.8,1.1-.2-.4-.4-.8-.5-1.2-.1-.5-.1-1.1-.3-1.7-.3-1.3-.1-2.6.3-3.9.3-.9.5-1.8.7-2.7.2-.8.3-1.6.4-2.4,0-.4.1-.7.1-1.1.1-.8.3-1.7.3-2.5,0-.7-.1-1.4-.1-2.1s-.2-.8-.5-1l-.4-.4c-.4-.4-.9-.5-1.5-.6-.9,0-1.6.4-2.3.8-.2.1-.3.2-.5.3-.5-.1-.7-.5-1-.8-.4-.4-1.8-.7-2.5-.6-1.3.1-1.7,0-3,.4-.5.2-1.1.4-1.7.5-.5.2-1,.5-1.5.8-1,.5-1.7,1.3-2.6,2-.6.5-1.1,1.3-1.8,1.9-.2.2-.4.4-.6.6-.6.9-1.3,1.8-1.9,2.7-.5.7-.9,1.4-1.3,2.1-.2.3-.4.6-.5,1-.3.6-.5,1.2-.8,1.8-.1.4-.4,1-.5,1.3-.2.6-.3,1.1-.5,1.7-.2.8-.3,1.5-.4,2.3,0,.8.1,1.6.2,2.4.1,1.3.6,2.5,1.1,3.6.4.9,1,1.8,1.8,2.5.8.8,1.6,1.5,2.7,2,.6.3,1.3.6,1.9.8.6.1,1.3.2,1.9.1,1.3-.3,2.6-.7,3.7-1.5,1.4-1,2.5-2.2,3.4-3.6.2,0,.4-.1.6-.2.1.2.4.4.5.6.1.5.5.8.7,1.1.4.5.7,1,1.2,1.4,1,.9,2.2,1.4,3.4,1.6.9.1,1.9.1,2.8.2.9,0,1.7-.4,2.4-.8.4-.2.7-.6,1.1-.9.6-.6,1.1-1.2,1.5-2,.4-.7.9-1.4,1.3-2.2.4-.7.7-1.5,1.2-2.2,0,0,.3-.4.5-.9.6-1,1.4-2.3,1.4-2.3,4.8-7.6,3.2-11.1.8-12.9ZM291,276.6c-.1.8-.3,1.5-.5,2.3-.1.5-.5,1-.7,1.5-.4.7-.7,1.4-1.1,2.2,0,.1-.1.2-.2.3-.5.8-1.1,1.6-1.5,2.4-.4.8-1,1.5-1.5,2.3-.4.5-.9,1-1.3,1.5-.3,0-.5,0-.8,0-.7-.5-1.1-1.2-1.3-2-.1-1-.2-1.9,0-2.9.1-.8.2-1.5.5-2.2.3-.5.4-1.1.7-1.7,0-.1.2-.3.3-.5.3-.4.5-.8.8-1.2,0,0,.1-.2.2-.3.9-1.1,1.8-2.2,2.9-3.1.5-.4.9-.6,1.5-.8.9-.3,1.5,0,2,.6.3.5.3,1,.2,1.5Z"/>
        <path class="st0" d="M370.3,274.4l-2.1-2.4c-.6-.8-1.9-.7-2.4.2-.7,1.3-1.6,2.8-1.8,3.1-.2.4-.4.8-.6,1.2-.5.8-1,1.7-1.5,2.5,0,.1-.9,1.5-1.3,2.2-.1.3-.3.6-.5.9-.1.3-.3.5-.5.6-.3-.1-.4-.3-.4-.5,0-.1-.7-3.6-1.2-5.1-.3-.9-.6-1.9-1-2.8-.3-.8-.5-1.8-.8-2.6-.3-1-.6-2.1-1.1-3.1-.4-.7-.9-1.3-1.5-1.8-.4-.4-.8-.5-1.2-.5-1,0-2.1.3-2.9.9-.6.5-3.1,3.6-3.7,4.5-.6.9-2.3,3.1-2.4,3.2-.1.3-.5.8-.9,1.5-.7,1-1.4,2.2-1.7,2.6,0,0-1,1.7-1.4,2.4-.4.6-.8,1.1-1.2,1.7-.1.3-1.4,2-1.9,2.5,0,0-.1.1-.2.1-.5.6-1.2,1.1-1.8,1.6-.3.3-.6.5-.9.6,0,0-.1,0-.3.1h-.1c-1.4-.1-1.6-3.2-1.8-4.7-.2-1.5-.2-3.5,0-5,.5-5.4.6-8.3,2-12.8.3-.9.5-1.7.8-2.6.1-.3,1.2-.4,1.6-.4.7,0,6-.4,7.2-.9.9-.4,1.4-1.3,1.1-2.2-.2-.7-.4-1.3-.7-2-.4-.8-.4-1.1-1.2-1.7-.5-.3-1.7,0-2.2,0-1.2.3-2.9.3-3.8.4-1.3.2-1.4-.6-2.2-2-.4-.6-.8-1.1-1.2-1.7-.6-.6-1.4-1-2.3-.9-.2,0-.5.1-.6.2-.8.5-1.3,1.3-2,2,0,0-.1.2-.1.3-.1.3-.2.7-.3,1,0,.3-.2.5-.3.6-.2,0-.4,0-.5.1-1.2.2-2.9.2-3.8.4-1.3.2-2.7-.8-3.5-2.1-.3-.6-.8-1.1-1.2-1.7-.6-.6-1.3-1-2.2-.9-.2,0-.5.1-.6.2-.8.5-1.4,1.3-2,2-.1,0-.1.2-.2.3-.1.3-.2.7-.3,1-.2.7-.6,1-1.3,1-.2,0-.4,0-.5,0-1.5.1-2.9.1-4.8.4-1.1.1-4.7.2-5.1.6-2.4,1.1,1,6.5,3.1,6.2.9,0,6.8-.5,7,.1-.3.9-1.1,3.4-1.4,5.2-.2,1.1-.4,2.4-.6,3.8-.6,5-.6,11.1,0,14.9,0,.2,0,.4.1.6.7,3.3,4.2,8,5.6,8.4,1.4.4,2.8.8,4.9.5,2.1-.3,4-1.3,4.8-2.7,0,0,0,0,0-.1.4-.4.9-1,1.3-1.7,1.3,2,2.8,3.8,3.7,4,0,0,1.8.9,4.2,0,.9-.4,4.1-1.8,4.7-2.3.5-.3.6-.4,1.4-.9.1-.1.3-.3.5-.4,1.2-1,2.3-2.2,3.2-3.6.3,0,1.4,2.2,1.8,2.8.5.8,1,1.7,1.7,2.4.8.8,2.2,2.2,3.5,2.2.6,0,1.4.1,2,.1s1,0,1.5-.2c.4-.1.8-.4,1.2-.5.9-.3,1.6-.8,2.4-1.2,1.4-.8,2.5-2,3.5-3.3.4-.4.7-.9,1.1-1.4.9-.8,1.4-1.9,2.1-2.8.4-.5.8-1.1,1.1-1.7.1-.2,5.2-8.8,5.3-8.9.3-.2-.3-2.4-.3-2.4ZM324.1,268.9c-.6,2.9-.9,6.9-1,10.7-.3,2.8-1.3,6.1-2.1,7.3-.5.7-1.3,1.4-2.6,1.3-1.4-.1-1.6-3.2-1.8-4.7-.2-1.5-.2-3.5,0-5,.5-5.4.6-8.3,2-12.8.2-.7.4-1.4.6-2.1,1.8-.1,6.2-.4,6.4.1-.2.9-1.1,3.4-1.4,5.2ZM352.3,287.2c0,.6-.6,1.8-1.9,1.8s-3.3-2.7-3.6-3.3c-.2-.5-.1-1-.1-1.5s1-3.1,1.3-3.9c0,0,0-.2.1-.3.3-.4.5-.8.8-1.2.2-.4.5-.7.8-.9.4.2.8.4,1,.7.7.9,1.4,4,1.5,5.2,0,.6.2,3.1.2,3.3Z"/>
      </g>
    </g>
    <g>
      <path class="st0" d="M39.8,317.7c-1.6,0-3.2,0-4.8,0s-3.3,0-5,0c-.9,0-1.1.3-1.2,1.1,0,.7,0,1.5.2,2.2.2.7.4.9,1.1.9h2.5c.5,0,.8.3.8.8,0,.5,0,1,0,1.5.1,1.2.1,2.3,0,3.6-.1,1.2-.5,2.4-.5,3.6,0,.9.3,1.1,1.1,1.2h1.8c.9,0,1.2-.3,1.1-1.2,0-.6-.1-1.3-.3-1.9-.4-1.8-.4-3.5-.3-5.4,0-.4,0-.8.1-1.2.1-.6.4-.8,1-.9h2c1,0,1.3-.3,1.4-1.3,0-.6,0-1.2,0-1.8,0-1-.1-1.2-1.1-1.2Z"/>
      <path class="st0" d="M52.5,328.3c-.5-.7-.5-.7.3-1.1.9-.6,1.6-1.4,1.9-2.4.3-1.2.4-2.4.2-3.6-.4-2.5-1.7-3.5-4.2-3.5h-3c-1.1,0-2.3,0-3.4,0-1.5,0-1.6.5-1.6,1.6,0,1.2.1,2.4.2,3.6.2,1.7.2,3.4.1,5.1,0,1.2-.3,2.5-.2,3.7,0,.8.2.9.9.9.5,0,1,0,1.5,0,1.3,0,1.6,0,1.4-1.4,0-.3,0-.5-.1-.7-.1-.6-.3-1.3-.4-2,0-.6,0-.8.6-.8.4,0,.8,0,1.2,0,.5,0,.7.2.9.6.3.6.5,1.3.8,2,1,2.5.9,2.3,3.3,2.3s1.3.2,1.6-.4c.3-.6-.2-1.1-.5-1.7-.5-.8-1-1.5-1.5-2.2ZM51.3,324.5c-.9.3-2,.3-3,.3s-1.1,0-1.6,0-.7-.3-.8-.7c0-.5,0-1.1.2-1.6,0-.3.2-.4.5-.4,1.6,0,3.1-.1,4.6.3.7.2.9.5.8,1.2,0,.5-.4.8-.8,1Z"/>
      <path class="st0" d="M60.5,326.4c0-1.6.3-3.1.5-4.6,0-.9.2-1.7.3-2.5,0-1.1-.3-1.5-1.4-1.5h-.7c-.3,0-.5,0-.7,0-1.1,0-1.3.1-1.3,1.2,0,1.3.2,2.6.3,3.9.3,2.2.5,4.3,0,6.5-.2.7-.3,1.5-.3,2.3,0,.6.2.9.9.9.8,0,1.5,0,2.3,0,.5,0,.8-.3.8-.9s0-1.3-.1-1.9c-.2-1.1-.5-2.3-.5-3.4Z"/>
      <path class="st0" d="M69.5,323c-.8,0-1.6,0-2.4,0s-1.6,0-2.4,0c-.9,0-1.1.2-1.2,1.2v1.5c0,.9.3,1.1,1.1,1.2,1.7,0,3.4,0,5,0s.9-.2.9-.9c0-.7,0-1.4,0-2.1,0-.7-.3-.9-1-.9Z"/>
      <path class="st0" d="M84.3,327.1c-.2-1.5-1.3-2.4-2.8-2.9-.6-.2-1.3-.3-1.9-.4-1-.1-2-.2-3.1-.4-.4,0-1-.2-1-.6,0-.6.5-.7,1-.8,1.1-.2,2.8,0,4.1.4.4.1.9.3,1.3.4.9.2,1.2,0,1.5-.8.1-.6.3-1.1.3-1.7,0-1.1-.2-1.4-1.3-1.8-1.2-.5-2.5-.6-3.8-.6s-2.2,0-3.2.5c-1.5.6-2.4,1.8-2.4,3.4v.9c0,1.7.8,2.8,2.4,3.4.9.4,1.8.5,2.8.6.8,0,1.7.1,2.5.4.3,0,.7.1.7.5,0,.5-.4.7-.8.8-.6.3-1.1.3-1.8.2-1.2-.2-2.4-.5-3.5-1.2-.3-.2-.6-.4-.9-.5-.7-.3-1-.2-1.3.5-.2.5-.3,1.1-.4,1.7-.2,1,.1,1.8,1.1,2.4,1.8,1.1,3.8,1.6,6,1.4,1.1,0,2.3-.4,3.2-1.2,1.3-1.1,1.7-2.6,1.4-4.3Z"/>
      <path class="st0" d="M96.8,317.7c-1.6,0-3.2,0-4.8,0s-3.3,0-5,0c-.9,0-1.1.3-1.2,1.1,0,.7,0,1.5.1,2.2.2.7.4.9,1.1.9h2.5c.5,0,.7.3.8.8,0,.5,0,1,.1,1.5,0,1.2,0,2.3,0,3.6-.1,1.2-.5,2.4-.5,3.6s.3,1.1,1.1,1.2h1.8c.9,0,1.2-.3,1.1-1.2,0-.6-.1-1.3-.3-1.9-.4-1.8-.4-3.5-.3-5.4,0-.4,0-.8,0-1.2.1-.6.4-.8,1-.9h2.1c1,0,1.3-.3,1.4-1.3,0-.6,0-1.2,0-1.8,0-1-.1-1.2-1.2-1.2Z"/>
      <path class="st0" d="M111,331.3c-.1-.6-.4-1.1-.6-1.7-1.3-3.1-2.5-6.2-3.8-9.3-.3-.6-.5-1.1-.8-1.7-.1-.3-.4-.6-.8-.8-1.3-.4-2.4,0-2.9,1.3-1.5,3.7-3.1,7.4-4.6,11.2-.1.4-.2.7-.3,1.1-.1,1,.1,1.1,1.1,1.2h1.4c.9,0,1.1-.2,1.4-1,.1-.4.2-.8.3-1.3.2-.7.6-1.1,1.3-1.1h1.9c1.1,0,1.8.5,2,1.5.4,1.8.5,1.8,2.4,1.8h.8c1,0,1.2-.4,1-1.3ZM104.7,326.3h-1c-.5,0-.6-.2-.5-.7.2-.7.4-1.3.7-1.9.1-.3.5-.2.6,0,.4.7.5,1.3.7,2.1.1.4,0,.6-.4.6Z"/>
      <path class="st0" d="M121.4,317.7c-1.6,0-3.2,0-4.8,0s-3.3,0-4.9,0c-.9,0-1.2.3-1.2,1.1,0,.7,0,1.5.2,2.2.1.7.4.9,1.1.9h2.5c.5,0,.8.3.8.8,0,.5,0,1,0,1.5.1,1.2.1,2.3,0,3.6-.1,1.2-.5,2.4-.5,3.6,0,.9.3,1.1,1.2,1.2h1.8c.9,0,1.1-.3,1.1-1.2,0-.6-.1-1.3-.3-1.9-.4-1.8-.4-3.5-.3-5.4,0-.4,0-.8.1-1.2.1-.6.4-.8,1-.9h2c1,0,1.3-.3,1.4-1.3,0-.6,0-1.2,0-1.8,0-1-.1-1.2-1.2-1.2Z"/>
      <path class="st0" d="M134.6,328.3h-5.4c-.3,0-.5,0-.8,0-.7-.1-.9-.4-.8-1.1,0-.6,0-.6.9-.6.5,0,1,0,1.5,0,1.1,0,2.2,0,3.3,0,.8,0,.9-.2,1-.9v-.2c0-1.2-.5-1.8-1.8-1.8h-4.1c-.2,0-.5,0-.6-.2-.4-.6,0-1.4.8-1.4.2,0,.5,0,.7,0h5.2c.8,0,1-.2,1.1-1,0-.6,0-1.3,0-1.9,0-1.1-.3-1.3-1.4-1.3-2.8,0-5.6,0-8.5,0-1.2,0-1.3.1-1.3,1.3,0,1.7.1,3.3.3,5,.1,1.5.2,2.9,0,4.3-.1,1.1-.3,2.2-.3,3.3,0,.9.1,1,1.1,1h9.2c.9,0,1.1-.2,1.1-1.1,0-.7,0-1.4,0-2,0-.9-.3-1.1-1.1-1.1Z"/>
      <path class="st0" d="M141.5,317.9c-.6,0-1.2,0-1.8,0-.5,0-.8.2-1,.6-.4,1.1-.8,2.3-.8,3.3,0,1.1.3,1.5,1,1.5.4,0,.8-.1,1.1-.5.8-1.1,1.4-2.2,2-3.4,0-.1.1-.5.1-.6,0-.6,0-.9-.7-1Z"/>
      <path class="st0" d="M156,327.1c-.3-1.5-1.3-2.4-2.8-2.9-.6-.2-1.2-.3-1.9-.4-1-.1-2-.2-3.1-.4-.4,0-1-.2-1-.6,0-.6.5-.7,1-.8,1.1-.2,2.8,0,4.1.4.4.1.9.3,1.3.4.9.2,1.2,0,1.5-.8.2-.6.3-1.1.3-1.7,0-1.1-.2-1.4-1.3-1.8-1.2-.5-2.5-.6-3.8-.6s-2.1,0-3.2.5c-1.5.6-2.3,1.8-2.4,3.4v.9c0,1.7.8,2.8,2.4,3.4.9.4,1.8.5,2.8.6.9,0,1.7.1,2.5.4.3,0,.7.1.7.5,0,.5-.4.7-.8.8-.6.3-1.1.3-1.8.2-1.2-.2-2.4-.5-3.5-1.2-.3-.2-.6-.4-.9-.5-.6-.3-1-.2-1.3.5-.2.5-.3,1.1-.4,1.7-.2,1,.1,1.8,1.1,2.4,1.8,1.1,3.8,1.6,6,1.4,1.1,0,2.2-.4,3.1-1.2,1.3-1.1,1.7-2.6,1.5-4.3Z"/>
      <path class="st0" d="M175.2,328.3h-5.4c-.3,0-.5,0-.8,0-.7-.1-.9-.4-.8-1.1q0-.6.9-.6c.5,0,1,0,1.6,0,1.1,0,2.2,0,3.3,0,.8,0,.9-.2,1-.9v-.2c0-1.2-.5-1.8-1.8-1.8h-4.1c-.2,0-.5,0-.6-.2-.4-.6,0-1.4.8-1.4.2,0,.5,0,.7,0h5.2c.8,0,1-.2,1.1-1,0-.6,0-1.3,0-1.9,0-1.1-.3-1.3-1.4-1.3-2.8,0-5.6,0-8.4,0-1.2,0-1.3.1-1.3,1.3,0,1.7.1,3.3.3,5,.1,1.5.2,2.9,0,4.3-.1,1.1-.3,2.2-.3,3.3,0,.9.1,1,1.1,1h9.2c.9,0,1.1-.2,1.1-1.1,0-.7,0-1.4,0-2,0-.9-.3-1.1-1.2-1.1Z"/>
      <path class="st0" d="M191.7,323.1c.1-1.4.2-2.8.3-4.1,0-.9-.3-1.2-1.2-1.2h-1.8c-1,0-1.4.4-1.3,1.4.2,1.3.4,2.7.5,4,.1,1,.4,2.1.3,3.2,0,.1,0,.3-.2.3-.1,0-.2,0-.3-.1-.2-.2-.4-.4-.5-.6-1.5-2.2-3.2-4.3-4.6-6.6-.8-1.2-1.8-1.8-3.3-1.6-.9.1-1.2.3-1.1,1.2.1,1.8.2,3.6.4,5.4.1,1.3.2,2.7,0,4-.1,1-.3,2.1-.3,3.1,0,.8.3,1.1,1.1,1.1.4,0,.9,0,1.3,0,1.8,0,1.6-.2,1.5-1.5,0-.1,0-.5,0-.6-.2-1.7-.6-3.4-.6-5.1,0-.5,0-.9,0-1.4,0-.2,0-.4.1-.5.2,0,.3.1.4.3.6.9,1.3,1.8,1.9,2.7,1.2,1.8,2.5,3.5,3.7,5.2.4.6,1,.9,1.7.9h.8c1.1,0,1.3-.3,1.3-1.3,0-.8,0-1.6-.3-2.4-.4-1.9-.1-3.8,0-5.7Z"/>
      <path class="st0" d="M204.7,328.3h-5.4c-.3,0-.6,0-.8,0-.7-.1-.9-.4-.8-1.1,0-.6,0-.6.9-.6.5,0,1,0,1.5,0,1.1,0,2.2,0,3.3,0,.8,0,.9-.2,1-.9v-.2c0-1.2-.6-1.8-1.8-1.8h-4.1c-.3,0-.5,0-.6-.2-.4-.6,0-1.4.7-1.4.3,0,.5,0,.7,0h5.3c.8,0,1-.2,1.1-1,0-.6,0-1.3,0-1.9,0-1.1-.3-1.3-1.4-1.3-2.8,0-5.6,0-8.4,0-1.2,0-1.3.1-1.3,1.3,0,1.7.1,3.3.3,5,0,1.5.2,2.9,0,4.3-.1,1.1-.3,2.2-.3,3.3,0,.9.1,1,1.1,1h9.2c.9,0,1-.2,1.1-1.1v-2c0-.9-.3-1.1-1.2-1.1Z"/>
      <path class="st0" d="M218,328.3c-.5-.7-.5-.7.2-1.1,1-.6,1.6-1.4,1.9-2.4.3-1.2.4-2.4.2-3.6-.4-2.5-1.7-3.5-4.2-3.5h-3c-1.1,0-2.3,0-3.4,0-1.4,0-1.6.5-1.6,1.6s0,2.4.2,3.6c.1,1.7.2,3.4.1,5.1,0,1.2-.3,2.5-.2,3.7,0,.8.2.9.9.9.5,0,1,0,1.6,0,1.3,0,1.6,0,1.4-1.4,0-.3,0-.5-.1-.7-.1-.6-.3-1.3-.4-2,0-.6.1-.8.7-.8.4,0,.8,0,1.2,0,.5,0,.7.2.9.6.3.6.5,1.3.8,2,1,2.5.9,2.3,3.3,2.3s1.3.2,1.6-.4c.3-.6-.2-1.1-.5-1.7-.5-.8-1-1.5-1.5-2.2ZM216.7,324.5c-.9.3-2,.3-3,.3s-1.1,0-1.7,0-.7-.3-.7-.7c0-.5,0-1.1.2-1.6,0-.3.3-.4.5-.4,1.6,0,3.1-.1,4.6.3.7.2.8.5.8,1.2,0,.5-.4.8-.8,1Z"/>
      <path class="st0" d="M233.6,324.2h-5.1c-1.4,0-1.8-.2-1.7,1.8,0,.8.1.9.9.9h3.1c.3,0,.5,0,.6.3.2.5,0,1-.4,1.1-1.7.7-3.2.6-4.7-.4-1.1-.8-1.5-1.9-1.4-3.2.1-1.1.9-1.9,1.9-2.3,1.2-.5,2.4-.5,3.7-.3.5,0,1,.3,1.6.3.6,0,.9-.2,1-.8.1-.5.2-1,.3-1.5,0-1.1-.1-1.5-1.2-1.9-1.6-.6-3.2-.6-4.9-.3-2.5.5-4.1,2-4.8,4.4-.6,2.2-.5,4.3.3,6.4.7,1.7,1.8,2.9,3.5,3.4,2.6.9,5.1.5,7.4-1,.6-.4.7-.9.7-1.5v-4.5c0-.8-.2-.9-1-1Z"/>
      <path class="st0" d="M247,317.7c-.4,0-.9,0-1.3,0q-1.9,0-2.5,1.8c-.4,1.1-.8,2.2-1.2,3.3,0,.1,0,.4-.3.4-.3,0-.3-.3-.4-.4-.4-1.1-.8-2.2-1.2-3.2-.5-1.3-1.4-1.9-2.7-1.9s-.6,0-.9,0c-.9,0-1.1.4-.9,1.2.1.5.4.9.7,1.4,1.1,1.8,2.2,3.7,3.3,5.5.4.6.5,1.2.5,1.9,0,.6-.1,1.2-.2,1.8-.1.8,0,1.5-.1,2.3,0,.5.3.8.8.8.7,0,1.4,0,2,0,.7,0,.9-.3.9-1s0-.9,0-1.3c-.3-3.6-.9-2.8,1.4-6.2.9-1.4,1.8-2.8,2.6-4.2.2-.3.4-.7.5-1.1,0-.7-.1-1-.9-1Z"/>
      <path class="st0" d="M268.6,321c-.4-2.2-1.7-3.3-4-3.3-1.1,0-2.1,0-3.2,0s-2.4,0-3.6,0c-1.1,0-1.3.2-1.3,1.3,0,1.6.1,3.2.2,4.8.1,2.3,0,4.6-.2,6.9-.1,1.7,0,1.9,1.9,1.9h.2c1.8.1,2.1-.4,1.8-2.2-.1-.6-.3-1.2-.3-1.8,0-.7,0-.8.8-.8,1.3,0,2.5,0,3.7,0,2.4-.2,3.8-1.4,4.1-3.7.1-1,.1-2,0-3.1ZM264.9,324.5c-.9.3-1.8.2-2.7.2h-1.9c-.4,0-.5-.1-.6-.4-.1-.6,0-1.2.2-1.8,0-.2.3-.4.5-.4,1.5,0,3-.2,4.5.2.8.2.9.6.9,1.1s-.2.9-.9,1.1Z"/>
      <path class="st0" d="M283.7,322.9c-.5-2.5-2.4-4.5-4.9-5.1-.6-.1-1.3,0-2,0-2.6,0-4.8,1.4-5.8,3.8-.9,2.3-.9,4.7,0,7,1,2.4,2.8,3.8,5.5,4.1,2.9.3,5.1-.9,6.5-3.4.7-1.3,1-2.7.9-4.1,0-.8,0-1.5-.2-2.2ZM280.5,326.9c-1.7,2-5.1,1.9-6.8-.1-1-1.3-.8-3.1.6-4.1.9-.6,1.8-.8,2.9-.8s1.9.2,2.7.8c1.5,1,1.7,2.8.5,4.2Z"/>
      <path class="st0" d="M298.7,321.4c-.9-2.4-2.9-3.7-5.5-3.7h-2.7c-1,0-2.1,0-3.2,0-1.1,0-1.4.2-1.3,1.4,0,1.5.1,2.9.2,4.4,0,.6.1,1,.1,1.7,0,.9,0,1.6-.1,2.4-.1,1.3-.2,2.6-.2,4,0,.8.3,1,1,1h.6c1.7,0,3.5,0,5.2,0,2.6,0,4.6-1.2,5.6-3.6,1.1-2.5,1.1-5,.2-7.6ZM294.5,327.9c-1.1.3-2.3.5-3.3.4h-.9c-.9,0-1.3-.3-1.1-1.2v-2.3c.1-.1.2-1.1.2-1.4,0-.3,0-.6.1-.8,0-.4.3-.6.6-.6,1.5,0,3,0,4.5.4,1.3.4,2,1.4,1.9,2.7,0,1.3-.7,2.4-2,2.8Z"/>
      <path class="st0" d="M313.3,328.3c-.3-1.1-.6-1.3-1.7-.9-.6.2-1.3.5-1.9.6-1.3.4-2.6.4-3.9,0-1.4-.5-2.2-1.9-2-3.3.2-1.5,1.2-2.2,2.6-2.6,1.5-.4,3.1-.1,4.5.4.4.1.8.4,1.2.4.4,0,.7-.1.9-.6.2-.6.4-1.3.4-1.9,0-1.1-.1-1.4-1.2-1.9-1.8-.7-3.7-.9-5.6-.5-2.7.4-4.5,2-5.2,4.7-.2.8-.3,1.7-.3,2.5,0,.8,0,1.6.3,2.4.5,2.2,1.7,3.8,3.9,4.6,2.5.9,5,.6,7.4-.5.7-.4,1-.9.9-1.7,0-.5-.1-1.1-.3-1.6Z"/>
      <path class="st0" d="M328.7,331.3c-.1-.6-.4-1.1-.6-1.7-1.3-3.1-2.5-6.2-3.8-9.3-.3-.6-.5-1.1-.8-1.7-.1-.3-.4-.6-.8-.8-1.3-.4-2.4,0-2.9,1.3-1.5,3.7-3.1,7.4-4.6,11.2-.1.4-.3.7-.3,1.1-.2,1,.1,1.1,1.1,1.2h1.4c.9,0,1.1-.2,1.4-1,.1-.4.2-.8.3-1.3.2-.7.6-1.1,1.3-1.1h1.9c1.1,0,1.7.5,2,1.5.5,1.8.5,1.8,2.4,1.8h.8c1,0,1.2-.4,1-1.3ZM322.4,326.3h-1c-.5,0-.6-.2-.5-.7.2-.7.4-1.3.7-1.9.1-.3.5-.2.6,0,.4.7.5,1.3.7,2.1.1.4,0,.6-.4.6Z"/>
      <path class="st0" d="M341.9,327.1c-.3-1.5-1.3-2.4-2.8-2.9-.6-.2-1.3-.3-1.9-.4-1-.1-2.1-.2-3.1-.4-.4,0-1-.2-1-.6,0-.6.5-.7.9-.8,1.1-.2,2.8,0,4.1.4.4.1.9.3,1.3.4.9.2,1.2,0,1.4-.8.2-.6.3-1.1.3-1.7,0-1.1-.2-1.4-1.3-1.8-1.2-.5-2.5-.6-3.8-.6s-2.1,0-3.2.5c-1.5.6-2.3,1.8-2.4,3.4,0,.3,0,.6,0,.9,0,1.7.8,2.8,2.3,3.4.9.4,1.8.5,2.8.6.9,0,1.7.1,2.5.4.3,0,.7.1.8.5,0,.5-.4.7-.8.8-.6.3-1.1.3-1.9.2-1.2-.2-2.4-.5-3.5-1.2-.3-.2-.6-.4-.9-.5-.7-.3-1-.2-1.3.5-.2.5-.3,1.1-.4,1.7-.2,1,.2,1.8,1.1,2.4,1.9,1.1,3.8,1.6,6,1.4,1.1,0,2.2-.4,3.1-1.2,1.3-1.1,1.7-2.6,1.5-4.3Z"/>
      <path class="st0" d="M354.3,317.7c-1.6,0-3.2,0-4.8,0s-3.3,0-5,0c-.9,0-1.1.3-1.2,1.1,0,.7,0,1.5.2,2.2.1.7.4.9,1.1.9h2.5c.5,0,.8.3.8.8,0,.5,0,1,.1,1.5,0,1.2.1,2.3,0,3.6-.1,1.2-.5,2.4-.5,3.6s.3,1.1,1.2,1.2h1.8c.9,0,1.1-.3,1.1-1.2,0-.6-.1-1.3-.3-1.9-.4-1.8-.4-3.5-.3-5.4,0-.4,0-.8.1-1.2.1-.6.4-.8.9-.9h2.1c1,0,1.3-.3,1.4-1.3,0-.6,0-1.2,0-1.8,0-1-.1-1.2-1.2-1.2Z"/>
    </g>
  </g>
</svg>