<?xml version="1.0" encoding="UTF-8"?><svg id="Layer_1" xmlns="http://www.w3.org/2000/svg" viewBox="0 0 1048.97 933.68"><defs><style>.cls-1{fill:#fff;}</style></defs><path class="cls-1" d="M571.15,444.55c-.21.53-.53.95-.74,1.48l-8.12,14.88-8.97-36.61c-.84-.95-1.48-2-2.22-3.06-.11-.21-.21-.32-.32-.53-16.99,37.14-36.3,63.41-56.45,81.77.53.53.95,1.16,1.37,1.69,8.34,10.97,18.47,20.26,28.81,29.12,10.34-8.86,20.47-18.15,28.81-29.12l.11-.1c2.43-3.27,4.96-6.44,7.39-9.6,4.85-6.01,9.6-11.92,13.4-18.57,2.53-4.11,4.85-8.65,7.7-12.56,1.48-2.11,2.85-4.22,4.12-6.44-5.17-3.9-10.24-8.02-14.88-12.35ZM874.62,279.21c-1.79-9.6-2.64-19.31-4.12-28.91-.53-3.17-1.37-6.23-2.11-9.18-2.53-9.81-4.96-19.63-7.7-29.44-1.48-5.49-3.8-10.76-5.28-16.25-4.54-16.36-11.82-31.55-17.52-47.38-1.58-4.54-3.9-9.07-6.01-13.61-4.64-10.02-9.39-19.94-14.24-29.86-4.43-9.29-8.65-18.78-13.4-27.75-4.01-7.7-8.44-14.88-12.77-22.26-1.16-1.9-2.74-2-4.33-.42-.53.63-.95,1.79-.84,2.64.21,1.05.95,2.22,1.48,3.17,6.75,13.08,13.51,26.17,20.26,39.04,4.96,9.71,10.23,19.41,14.77,29.33,4.75,10.45,9.07,21.1,13.29,31.65,3.8,9.39,6.96,19.1,10.45,28.49.32,1.06.74,1.9.84,2.85.32,1.48.42,2.85.53,4.22-.53-1.27-1.05-2.64-1.58-3.9-2.11-5.28-4.33-10.55-6.44-15.93-2-4.85-4.01-9.6-5.91-14.35-7.81-18.99-17.09-37.04-26.8-54.97-5.59-10.45-10.87-21.1-17.83-30.81-2.95-4.01-5.17-8.55-7.91-12.66-2.11-3.17-2.74-3.17-6.33-1.37-9.07,4.75-18.25,9.39-27.43,14.03-2.64,1.37-5.17,2.95-7.7,4.64-2.22,1.27-2.95,2.95-2.11,5.38,2.22,7.17,4.64,14.35,7.81,21.1,1.06,2.43,2.11,4.64,3.17,7.07,1.69,3.69,2.85,7.81,4.75,11.4,2.11,3.9,2.74,8.65,3.9,13.08.1.32,0,.74,0,1.27-.32-.53-.84-.95-1.06-1.27l-3.48-8.34c-.84-1.9-1.79-3.9-2.85-5.7-2-4.12-4.01-8.23-6.12-12.24-2.64-5.17-5.49-10.02-7.81-15.3-2-4.33-4.12-8.55-4.75-13.3-.21-2.64.42-4.54,2.64-6.23,4.75-3.59,9.18-7.49,14.77-9.92,1.79-.84,3.48-1.9,5.06-3.06,6.54-4.96,13.61-8.86,20.89-12.45,3.69-1.9,7.39-3.8,11.08-5.59.53-.21,1.16-.42,1.58-.95,3.59-3.9,7.28-7.81,10.66-11.82.84-1.16.95-3.06.84-4.54-.32-3.9-2.11-7.28-4.12-10.34-2-2.95-4.54-5.59-6.33-8.65-2.22-3.48-5.38-5.8-8.86-7.81-4.22-2.32-8.55-2.64-13.19-.95-5.17,1.9-10.13,4.22-14.88,7.28-4.85,3.17-10.02,5.8-14.88,8.55-9.71,5.59-18.36,12.56-24.8,21.84-4.75,6.65-7.28,14.35-4.22,22.37,2,5.7,4.54,11.08,6.86,16.46,1.27,2.85,2.74,5.8,4.01,8.65,4.85,11.08,9.71,22.16,14.35,33.34,2.95,7.07,5.38,14.35,8.12,21.63,2.22,5.91,4.64,11.71,6.75,17.73,2.43,6.54,4.54,13.08,6.65,19.73,2.53,8.23,4.64,16.35,7.7,24.27,3.59,9.71,5.49,19.52,7.91,29.23,2.32,9.18,4.85,18.47,7.07,27.64.95,4.33,1.48,8.55,2.22,12.98,1.16,7.91,2.43,15.83,3.59,23.85.32,2.53.32,5.17.42,7.81.21,9.18,1.69,18.47.32,27.75-.74,5.28-.63,10.66-.95,15.93-.21,2-.63,3.9-.95,5.91-.42,1.9-.84,3.8-1.27,5.8-.95-2.11-.53-4.43-.42-6.65.42-8.23,1.27-16.46,1.79-24.8.1-1.37.1-2.85,0-4.22-.32-5.7-.74-11.29-1.16-17.09-.32-3.38-.63-6.65-1.27-9.92-2.11-12.56-4.01-25.11-6.75-37.46-3.38-14.77-7.18-29.65-11.4-44.32-3.59-12.24-8.34-23.85-11.92-36.09-3.8-13.4-9.39-25.96-14.03-39.15-2.53-7.39-5.49-14.88-8.65-22.16-4.75-11.08-9.81-21.95-14.88-32.92-3.38-7.49-7.28-15.09-7.81-23.53,0-.63-.74-1.16-1.06-1.79-.63.32-1.48.63-1.79,1.27-5.91,9.18-4.96,18.47-.84,27.75,3.06,6.86,6.33,13.72,9.5,20.47,1.79,3.9,3.69,7.49,5.28,11.29,3.27,8.02,6.33,16.35,9.5,24.27,3.17,8.02,6.33,15.83,9.39,23.85,2.74,7.39,5.38,14.98,7.91,22.37,1.06,2.95,2,6.01,2.95,9.18,2.43,7.39,5.06,14.88,7.39,22.47,2.74,9.18,5.7,18.25,7.81,27.33,2.85,12.87,6.86,25.43,8.44,38.41,1.16,9.29,2.85,18.47,4.33,27.54.84,4.96,1.58,9.81,1.06,14.88v1.79c1.69,10.97-.21,21.95-.84,33.13-.84,13.82-4.96,26.91-8.44,39.89-2.22,8.23-6.01,15.51-10.76,22.37-3.69,5.17-7.17,10.55-11.5,15.09-5.8,6.01-12.24,11.5-18.47,16.88-2.85,2.32-5.91,4.64-9.18,6.54-4.64,2.43-9.6,4.75-14.46,6.96-14.67,6.86-30.39,8.65-46.43,8.44-8.97-.11-17.62-1.79-26.27-4.12-9.18-2.43-17.73-6.01-25.85-10.66-1.37-.74-2.64-1.48-3.9-2.22-2.43-1.48-4.75-3.06-7.07-4.75-.21.42-.42.74-.63,1.16-2.11,3.8-4.43,7.39-6.65,11.18-3.8,6.12-7.39,12.56-11.61,18.47-1.79,2.64-3.8,5.28-5.91,7.81-2.43,3.17-4.96,6.23-7.39,9.39-.74.84-1.48,1.69-2.11,2.53-3.06,3.9-6.12,7.7-9.5,11.29-3.9,4.22-8.23,8.02-12.35,12.03l-4.43,4.12c1.58,1.27,3.17,2.53,4.75,3.8,2.32,1.9,4.75,3.59,7.28,5.28,3.59,2.32,7.39,4.54,11.4,6.33.21.1.42.1.53.21,9.71,6.86,20.89,10.55,31.87,14.56,9.18,3.38,18.89,5.8,28.7,7.28,9.39,1.69,18.78,3.17,28.28,3.8,16.78,1.37,33.55.74,50.23-2.64,4.01-.63,8.12-1.37,12.24-2.11,3.9-.63,7.81-1.58,11.4-3.48,1.69-.95,3.8-1.06,5.59-1.69,13.51-4.01,26.38-9.92,38.62-16.57,9.71-5.49,18.78-11.92,27.96-18.25,12.24-8.34,22.16-19.2,31.34-30.49,5.49-6.65,10.45-13.93,15.09-21.42,5.91-9.29,10.24-19.2,14.77-29.02,6.33-14.14,11.29-28.7,14.56-43.89,2.53-11.61,5.06-23.11,7.17-34.93.95-5.06,1.06-10.23,1.48-15.19.21-1.69.53-3.27.74-4.85.21-1.37.74-2.64.74-4.01.53-10.97.95-22.05,1.48-33.24.11-4.11.21-8.34.32-12.56.11-1.16.32-2.43.21-3.38-1.37-7.6-.74-15.09-2.22-22.47ZM731.75,34.73c2.74-2.11,5.59-4.43,8.44-6.54,9.71-7.39,20.36-13.61,31.23-19.41,4.22-2.43,8.65-1.79,11.5,2,2.43,3.06,4.54,6.44,6.65,9.71.42.63.42,1.58.63,2.32-.74-.42-1.58-.53-2-.84-2.85-2.53-5.59-5.17-8.34-7.7-1.69-1.69-3.38-1.69-5.38-.53-4.33,2.74-8.86,5.17-13.19,8.02-9.18,6.01-19.2,10.34-29.23,14.56-.21.32-.63,0-1.16-.11.21-.53.42-1.05.84-1.48ZM840.64,397.7l-3.8,16.46-21.52-38.2c-32.5,211.24-204.38,158.91-204.38,158.91-15.62-4.43-29.33-10.76-41.26-18.47,2.11-2.85,4.33-5.7,6.65-8.55,0-.11.11-.21.21-.32.11-.21.32-.32.32-.53h.11c57.29,38.72,128.52,25.43,169.04-5.7,20.36-18.25,39.67-42.63,46.74-72.7,9.71-41.05,9.18-77.03,9.18-77.34l-3.38-31.97,31.87,56.66c3.8-60.46-29.86-140.65-30.28-141.6l-8.02-18.99,26.59,15.51,2.95,1.79s-23.64-82.93-62.36-130.94c50.96,49.49,74.18,117.44,82.2,146.88,2.64,9.39,3.69,14.88,3.69,14.88l-25.75-15.93c11.71,32.5,32.5,100.98,21.21,150.15ZM514.49,534.02c-4.12-4.01-8.44-7.81-12.35-12.03-3.38-3.59-6.44-7.39-9.5-11.29-1.05-1.37-2.11-2.74-3.17-4.01-3.69,3.06-7.28,5.91-10.97,8.55,3.69,5.06,7.39,10.02,11.5,14.77,5.28,6.01,11.08,11.71,16.88,17.2,4.22-2.85,8.23-5.91,12.03-9.07-1.48-1.37-2.95-2.74-4.43-4.12ZM825.02,502.79c-.21-.21-.74,0-.95.21-.84.84-1.48,1.9-2.22,2.74-4.33,5.17-8.34,10.66-12.87,15.62-10.45,11.4-22.05,21.63-35.56,29.54-2.85,1.58-5.59,3.48-8.44,5.38-8.86,5.38-18.25,9.6-27.54,13.93-8.65,4.12-18.04,6.01-26.8,9.81-3.48,1.58-7.6,2-11.5,2.74-14.03,2.64-28.17,4.64-42.52,4.64-12.87-.11-25.75-1.16-38.41-3.17-11.61-1.9-23-4.33-34.08-8.12-3.59-1.16-6.96-2.74-10.45-4.01-13.08-4.64-24.8-11.71-36.19-19.2-.32-.21-.63-.42-.95-.63-2.53-1.79-5.07-3.69-7.49-5.59-1.58-1.16-3.06-2.32-4.54-3.69-3.9,3.38-7.91,6.44-12.13,9.28,1.58,1.48,3.17,2.85,4.85,4.12,2.32,2.11,4.75,4.01,7.28,5.7,4.64,3.69,9.6,6.96,14.56,10.02,10.34,6.23,21.21,11.4,32.71,15.3,8.02,2.74,16.14,5.8,24.37,7.49,12.77,2.95,25.64,4.96,38.72,5.59,11.29.53,22.47.32,33.77-.63,11.29-1.27,22.47-2.64,33.34-6.01,16.88-5.06,33.24-11.5,48.85-19.73,1.9-.84,3.69-2.32,5.59-3.27,9.81-6.01,19.42-12.35,28.49-19.31,4.22-3.27,7.91-7.28,11.71-11.08,2.22-2.11,4.22-4.64,6.44-6.96,7.07-6.86,12.35-15.41,18.47-23.21,1.58-2,2.64-4.43,3.8-6.75.11-.1-.11-.74-.32-.74ZM536.86,400.02c-2.85-4.64-4.75-9.92-7.17-14.98-.21-.42-.42-.95-.63-1.37-1.69-3.48-3.17-7.07-4.54-10.66-3.59-9.18-6.44-18.78-8.55-28.38-2.43-11.18-5.49-22.26-6.44-33.76-.74-9.6-2.53-18.89-3.48-28.28-.74-7.6-.84-15.09-1.27-22.69-.42-8.34-1.06-16.88-1.48-25.43-.21-4.54-.11-9.18-.11-13.72.11-6.54.11-13.08.21-19.63.11-8.12.11-16.14.21-24.37,0-1.69.21-3.48.42-5.28.84-13.82,1.9-27.75,2.53-41.57.53-8.86,1.48-17.73,2.85-26.48,1.05-7.39-.42-14.35-3.69-20.68-2.53-4.96-6.96-8.02-11.61-10.97-9.81-5.8-20.68-8.76-31.87-10.76-6.96-1.37-13.93-3.06-20.89-4.22-3.27-.42-6.75-.32-10.13,0-6.33.63-10.34,4.43-12.98,10.13-.84,1.69-1.48,3.59-2,5.49-1.48,4.75-2.85,9.6-6.44,13.19-.95,1.06-1.48,2.53-1.9,3.8-2.32,7.17-5.17,14.03-5.91,21.74-.42,3.48.42,6.12,3.69,7.91,2.11.95,4.33,2,6.44,3.17,4.85,2.43,6.86,6.01,6.23,11.5-.42,4.43-.84,8.65-2,12.77-2.32,8.34-2.85,16.78-4.22,25.32-2.22,13.19-3.38,26.59-4.85,39.89-2.22,20.47-3.38,41.15-3.69,61.73-.21,12.56.42,25.32.84,38.09.42,8.34,1.05,16.88,1.9,25.32.53,5.28,1.9,10.55,2.22,15.93.42,5.7,1.37,11.29,2.53,16.88,1.58,7.81,3.9,15.3,5.7,23.11,2.74,11.18,7.49,21.74,11.82,32.29.74,1.58,1.16,3.38,1.79,5.17.84,2.32,1.58,4.75,2.64,7.07,2.64,5.8,5.38,11.5,8.23,17.3,2.11,4.22,4.01,8.44,6.12,12.66.63,1.37,1.37,2.74,2,4.01,1.37,2.53,2.74,5.07,4.33,7.49,6.12,9.71,11.5,20.05,18.78,28.81.21.21.32.42.53.63,3.8-2.43,7.49-5.17,11.08-8.12-2.43-2.95-4.75-6.01-6.86-9.07-4.22-5.91-7.81-12.35-11.61-18.47-1.79-3.06-3.69-6.01-5.38-9.07-.42-.63-.84-1.37-1.27-2.11-.21-.42-.42-.74-.63-1.16-3.69-6.86-7.7-13.51-10.66-20.47-5.28-11.92-10.55-23.85-15.3-36.09-3.06-8.02-5.91-15.93-8.34-24.06-1.48-4.96-2.85-9.81-3.59-14.98-.74-6.12-2.64-12.03-3.59-17.94-1.58-10.55-3.06-21.21-4.12-31.87-1.05-9.81-1.58-19.63-2.11-29.54-.21-4.75-.1-9.6,0-14.35.11-8.55,0-17.09.32-25.53.32-6.75,1.16-13.4,1.58-20.05.42-6.96.63-13.93,1.16-20.79.42-5.7.95-11.5,1.69-17.2.84-7.28,1.9-14.46,2.95-21.74.11-.32.63-.74.95-1.06.21.21.53.74.42.95-.11,1.9-.32,3.9-.63,5.91-1.06,8.44-2.22,16.99-3.17,25.43-.53,4.64-.42,9.39-.63,14.03-.53,10.55-1.48,21-1.79,31.55-.42,16.46-.84,32.82.84,49.17.74,7.39.63,14.77,1.48,21.95,1.27,11.5,2.43,23.21,4.96,34.61,2.95,13.72,5.91,27.54,11.18,40.73,2.11,5.38,4.64,10.76,6.54,16.46,3.8,10.87,9.18,21.1,14.14,31.55,3.27,6.75,6.44,13.61,10.34,20.05.63,1.05,1.27,2.11,2,3.17.63,1.06,1.37,2.22,2.11,3.27,2.85,3.9,5.17,8.44,7.7,12.56,4.12,7.07,9.29,13.51,14.46,19.94,10.45-9.07,19.73-19.84,26.7-32.71,12.13-21.95,20.26-43.16,24.8-56.87-1.27-2-2.64-4.12-3.9-6.23ZM423.01,144.14c-.21,1.27-.42,2.64-.63,3.9,0,.21-.21.32-.32.53-.21-.32-.63-.42-.63-.53-.11-.95-.21-1.69-.11-2.43.63-4.96,1.37-10.02,2.22-15.09,0-.21.42-.63.63-.95.11.32.32.74.63,1.48-.53,4.01-1.16,8.44-1.79,13.08ZM431.87,110.8c-2.53-.74-3.17-.32-3.69,2.32-.32,1.69-.53,3.38-.84,5.28-.11.21-.53.53-.84.63-.21-.32-.53-.53-.53-.74-.32-5.7-3.8-8.44-8.55-10.45-2-.63-4.01-1.9-5.7-3.17-.95-.74-2-2.11-2.11-3.27,0-3.48.32-7.07.63-10.66,0-.21.74-.63,1.06-1.05.1.42.32.84.32,1.05.21,2.22,0,4.75,2.11,6.01,4.96,3.17,9.92,6.44,15.93,7.7,12.24,2.32,24.37,4.85,36.61,7.39,3.48.74,6.75,2.11,10.24,3.17,6.33,1.58,12.66,3.38,18.99,4.75,4.12.95,6.44,3.9,6.54,7.49.21,6.44-.32,13.08-1.05,19.52-.74,6.86-2.43,13.72-3.17,20.47-.74,5.59-.74,11.4-.95,17.09-.11.32-.21.63-.42,1.16-.1-.42-.53-.53-.53-.95-.42-3.38-1.37-6.75-1.16-10.02.53-9.71,1.48-19.31,2.22-29.02.32-4.64.63-9.29.95-14.03-.84-5.28-1.05-5.59-6.12-7.07l-35.87-7.17c-8.12-2-16.04-4.22-24.06-6.44ZM458.68,305.9l-15.72,22.05s-1.06-4.85-2.22-13.51c-3.59-27.12-8.34-91.27,16.46-149.94-15.19,53.18-5.7,129.89-5.7,129.89l1.9-2.53,16.46-22.16s-10.87,77.55,24.27,156.9c-1.16,1.58-2.43,3.17-3.69,4.64-30.18-57.08-30.18-95.49-31.76-125.35Z"/><path class="cls-1" d="M501.83,442.86l-6.54-4.54-1.69-1.16c-1.06-2-2.22-4.01-3.17-5.91,1.27-1.48,2.53-3.06,3.69-4.64,1.05,2.74,2.32,5.38,3.69,8.12,1.27,2.74,2.64,5.38,4.01,8.12Z"/><path class="cls-1" d="M560.81,494.46c-2.43,3.17-4.96,6.33-7.39,9.6-7.91-6.75-14.98-14.14-21.1-21.74l1.69-19.1c8.23,12.24,17.2,22.58,26.8,31.23Z"/><path class="cls-1" d="M576.85,507.01c0,.21-.21.32-.32.53-.11.11-.21.21-.21.32-2.32,2.85-4.54,5.7-6.65,8.55-.63-.53-1.37-.95-2-1.48-3.17-2.11-6.23-4.33-9.18-6.75,2.43-3.17,4.96-6.23,7.39-9.39,3.59,3.06,7.28,5.8,10.97,8.23Z"/><path class="cls-1" d="M484.1,500.05c-3.59,2.95-7.28,5.7-11.08,8.12-.74.53-1.48,1.06-2.22,1.48l-26.27-34.93,4.85-3.48,10.87-7.81,4.75-3.38,30.28-21.74.53-.42,2-3.17,31.23-51.07,21-34.19,22.47,49.7c-1.58,8.02-3.59,15.83-6.12,23.11l-15.62-62.99-5.28,31.65c0,.11-1.58,5.91-4.75,15.3-4.54,13.72-12.66,34.93-24.8,56.87-6.96,12.87-16.25,23.64-26.7,32.71-1.58,1.48-3.38,2.95-5.17,4.22Z"/><path class="cls-1" d="M506.9,547.21c-1.79,1.16-3.59,2.22-5.49,3.27l-25.32-33.66c.84-.53,1.58-1.05,2.43-1.58,3.69-2.64,7.28-5.49,10.97-8.55,1.58-1.37,3.17-2.74,4.85-4.22,20.15-18.36,39.46-44.63,56.45-81.77.32-.74.74-1.48,1.05-2.32l1.48,5.91,8.97,36.61,8.12-14.88c.21-.53.53-.95.74-1.48,4.12-7.91,7.49-16.67,10.13-25.85l11.5,25.43c-2,4.33-4.22,8.65-6.75,12.77-1.27,2.22-2.64,4.33-4.12,6.44-2.85,3.9-5.17,8.44-7.7,12.56-3.8,6.65-8.55,12.56-13.4,18.57-2.43,3.17-4.96,6.33-7.39,9.6l-.11.1c-8.34,10.97-18.47,20.26-28.81,29.12-.84.74-1.69,1.48-2.53,2.22-1.06.84-2,1.79-3.06,2.64-3.8,3.17-7.81,6.23-12.03,9.07Z"/><path class="cls-1" d="M600.07,460.16l-2.32,4.75-20.89,42.1c0,.21-.21.32-.32.53-.11.11-.21.21-.21.32l-8.65,7.07-32.82,27.01-5.8,4.75-11.82,9.71-7.07,5.8-4.33-5.7c1.9-1.16,3.69-2.32,5.59-3.59.32-.21.63-.42.95-.63,4.22-2.85,8.23-5.91,12.13-9.28,1.9-1.48,3.8-3.17,5.59-4.85l4.43-4.12c4.11-4.01,8.44-7.81,12.35-12.03,3.38-3.59,6.44-7.39,9.5-11.29.63-.84,1.37-1.69,2.11-2.53,2.43-3.17,4.96-6.23,7.39-9.39,2.11-2.53,4.12-5.17,5.91-7.81,4.22-5.91,7.81-12.35,11.61-18.47,2.22-3.8,4.54-7.39,6.65-11.18.21-.42.42-.74.63-1.16,1.69-3.17,3.48-6.33,5.17-9.39l4.22,9.39Z"/><path class="cls-1" d="M474.82,475.89c-2.53-4.11-4.85-8.65-7.7-12.56-.74-1.05-1.48-2.22-2.11-3.27l-4.75,3.38c1.69,3.06,3.59,6.01,5.38,9.07,3.8,6.12,7.39,12.56,11.61,18.47,2.11,3.06,4.43,6.12,6.86,9.07,1.79-1.27,3.59-2.74,5.17-4.22-5.17-6.44-10.34-12.87-14.46-19.94ZM474.82,475.89c-2.53-4.11-4.85-8.65-7.7-12.56-.74-1.05-1.48-2.22-2.11-3.27l-4.75,3.38c1.69,3.06,3.59,6.01,5.38,9.07,3.8,6.12,7.39,12.56,11.61,18.47,2.11,3.06,4.43,6.12,6.86,9.07,1.79-1.27,3.59-2.74,5.17-4.22-5.17-6.44-10.34-12.87-14.46-19.94ZM636.89,171.79c-1.37-8.55-1.9-16.99-4.22-25.32-1.16-4.12-1.58-8.34-2-12.77-.63-5.49,1.27-9.07,6.23-11.5,2.11-1.16,4.33-2.22,6.44-3.17,3.27-1.79,4.11-4.43,3.69-7.91-.74-7.7-3.59-14.56-5.91-21.74-.42-1.27-.95-2.74-1.9-3.8-3.59-3.59-4.96-8.44-6.44-13.19-.53-1.9-1.16-3.8-2-5.49-2.64-5.7-6.75-9.5-13.08-10.13-3.27-.32-6.75-.42-10.02,0-6.96,1.16-13.93,2.85-20.89,4.22-11.18,2-22.05,4.96-31.87,10.76-4.64,2.95-9.18,6.01-11.61,10.97-3.38,6.33-4.75,13.3-3.69,20.68,1.37,8.76,2.32,17.62,2.74,26.48.74,13.82,1.79,27.75,2.64,41.57.11,1.79.42,3.59.42,5.28.11,8.23.11,16.25.21,24.37,0,6.54.11,13.08.21,19.63,0,4.54.1,9.18-.11,13.72-.42,8.55-1.06,17.09-1.58,25.43-.42,7.6-.42,15.09-1.16,22.69-.95,9.39-2.74,18.68-3.48,28.28-.95,11.5-4.01,22.58-6.44,33.76-2.11,9.6-4.96,19.2-8.55,28.38-1.58,4.12-3.27,8.12-5.17,12.03-2.43,5.06-4.33,10.34-7.17,14.98-4.43,7.28-9.5,14.14-14.24,21.21-1.27,1.9-2.53,3.69-3.8,5.38-1.16,1.58-2.43,3.17-3.69,4.64-8.02,9.71-17.41,18.04-27.43,25.64-.95.63-1.79,1.37-2.74,2-.63.42-1.27.95-1.9,1.27-3.48,2.53-7.17,4.85-10.97,7.07-8.12,4.54-16.67,8.12-25.85,10.55-8.65,2.32-17.3,4.01-26.38,4.12-16.04.21-31.65-1.58-46.32-8.44-4.85-2.22-9.81-4.54-14.46-6.96-3.27-1.9-6.33-4.22-9.18-6.54-6.33-5.38-12.66-10.87-18.47-16.88-4.33-4.54-7.81-9.92-11.5-15.09-4.75-6.86-8.55-14.14-10.76-22.37-3.59-12.98-7.6-26.06-8.44-39.89-.63-11.18-2.53-22.16-.84-33.13,0-.53,0-1.16-.11-1.79-.42-5.06.32-9.92,1.16-14.88,1.48-9.07,3.17-18.25,4.33-27.54,1.58-12.98,5.59-25.54,8.44-38.41,2.11-9.07,5.06-18.15,7.81-27.33,2.32-7.6,4.96-15.09,7.39-22.47.95-3.17,1.9-6.23,2.95-9.18,2.53-7.39,5.17-14.98,7.91-22.37,3.06-8.02,6.23-15.83,9.39-23.85,3.17-7.91,6.23-16.25,9.5-24.27,1.58-3.8,3.48-7.39,5.28-11.29,3.17-6.75,6.44-13.61,9.5-20.47,4.12-9.29,5.07-18.57-.84-27.75-.32-.63-1.16-.95-1.79-1.27-.42.63-1.05,1.16-1.05,1.79-.53,8.44-4.43,16.04-7.91,23.53-4.96,10.97-10.02,21.84-14.77,32.92-3.17,7.28-6.12,14.77-8.65,22.16-4.64,13.19-10.24,25.75-14.03,39.15-3.59,12.24-8.34,23.85-11.92,36.09-4.22,14.67-8.02,29.54-11.4,44.32-2.74,12.35-4.64,24.9-6.86,37.46-.53,3.27-.95,6.54-1.16,9.92-.53,5.8-.84,11.4-1.16,17.09-.11,1.37-.11,2.85,0,4.22.53,8.34,1.27,16.57,1.79,24.8.11,2.22.53,4.54-.42,6.65-.42-2-.84-3.9-1.27-5.8-.32-2-.74-3.9-.95-5.91-.32-5.28-.21-10.66-.95-15.93-1.37-9.29.11-18.57.32-27.75,0-2.64.11-5.28.42-7.81,1.16-8.02,2.43-15.93,3.59-23.85.74-4.43,1.27-8.65,2.22-12.98,2.22-9.18,4.75-18.47,7.07-27.64,2.43-9.71,4.33-19.52,7.91-29.23,3.06-7.91,5.06-16.04,7.7-24.27,2.11-6.65,4.22-13.19,6.65-19.73,2.11-6.01,4.54-11.82,6.75-17.73,2.74-7.28,5.17-14.56,8.12-21.63,4.64-11.18,9.5-22.26,14.35-33.34,1.27-2.85,2.64-5.8,3.9-8.65,2.43-5.38,4.96-10.76,6.96-16.46,3.06-8.02.53-15.72-4.22-22.37-6.44-9.29-15.09-16.25-24.8-21.84-4.96-2.74-10.13-5.38-14.88-8.55-4.75-3.06-9.71-5.38-14.88-7.28-4.64-1.69-8.97-1.37-13.19.95-3.48,2-6.65,4.33-8.86,7.81-1.79,3.06-4.33,5.7-6.33,8.65-2,3.06-3.8,6.44-4.12,10.34-.11,1.48,0,3.38.84,4.54,3.38,4.01,7.07,7.91,10.66,11.82.42.53.95.74,1.48.95,3.8,1.79,7.49,3.69,11.18,5.59,7.28,3.59,14.35,7.49,20.89,12.45,1.58,1.16,3.27,2.22,5.06,3.06,5.59,2.43,10.02,6.33,14.77,9.92,2.22,1.69,2.85,3.59,2.53,6.23-.53,4.75-2.64,8.97-4.64,13.3-2.32,5.28-5.17,10.13-7.81,15.3-2.11,4.01-4.12,8.12-6.23,12.24-.95,1.79-1.9,3.8-2.74,5.7l-3.48,8.34c-.21.32-.74.74-1.06,1.27,0-.53-.11-.95,0-1.27,1.16-4.43,1.79-9.18,3.9-13.08,1.9-3.59,3.06-7.7,4.75-11.4,1.05-2.43,2.11-4.64,3.17-7.07,3.17-6.75,5.59-13.93,7.81-21.1.74-2.43,0-4.12-2.11-5.38-2.64-1.69-5.07-3.27-7.7-4.64-9.18-4.64-18.36-9.29-27.54-14.03-3.48-1.79-4.12-1.79-6.23,1.37-2.74,4.11-5.06,8.65-7.91,12.66-6.96,9.71-12.24,20.36-17.83,30.81-9.71,17.94-19.1,35.98-26.8,54.97-1.9,4.75-3.9,9.5-5.91,14.35-2.11,5.38-4.33,10.66-6.44,15.93-.53,1.27-1.06,2.64-1.58,3.9.11-1.37.21-2.74.53-4.22.11-.95.53-1.79.84-2.85,3.48-9.39,6.65-19.1,10.34-28.49,4.22-10.55,8.65-21.21,13.4-31.65,4.54-9.92,9.81-19.63,14.77-29.33,6.75-12.87,13.51-25.96,20.26-39.04.53-.95,1.27-2.11,1.48-3.17.11-.84-.32-2-.84-2.64-1.58-1.58-3.17-1.48-4.33.42-4.33,7.39-8.76,14.56-12.77,22.26-4.75,8.97-8.97,18.47-13.4,27.75-4.85,9.92-9.6,19.84-14.24,29.86-2.11,4.54-4.43,9.07-6.01,13.61-5.7,15.83-12.98,31.02-17.52,47.38-1.48,5.49-3.8,10.76-5.38,16.25-2.64,9.81-5.07,19.63-7.6,29.44-.74,2.95-1.69,6.01-2.11,9.18-1.48,9.6-2.32,19.31-4.22,28.91-1.37,7.39-.74,14.88-2.11,22.47-.21.95.11,2.22.21,3.38.11,4.22.21,8.44.32,12.56.53,11.18.95,22.26,1.48,33.24,0,1.37.42,2.64.74,4.01.21,1.58.53,3.17.74,4.85.42,4.96.53,10.13,1.48,15.19,2.11,11.82,4.64,23.32,7.17,34.93,3.27,15.19,8.23,29.76,14.56,43.89,4.43,9.81,8.86,19.73,14.77,29.02,4.64,7.49,9.6,14.77,15.09,21.42,9.18,11.29,19.1,22.16,31.34,30.49,9.18,6.33,18.25,12.77,27.86,18.25,12.35,6.65,25.22,12.56,38.72,16.57,1.79.63,3.9.74,5.59,1.69,3.59,1.9,7.49,2.85,11.4,3.48,4.01.74,8.12,1.48,12.24,2.11,16.67,3.38,33.45,4.01,50.22,2.64,9.5-.63,18.89-2.11,28.28-3.8,9.81-1.48,19.52-3.9,28.7-7.28,10.97-4.01,22.16-7.7,31.87-14.56.1-.11.32-.11.53-.21,2-.95,4.01-1.9,5.91-3.06,1.9-1.05,3.69-2.11,5.49-3.27,4.22-2.85,8.23-5.91,12.03-9.07,1.06-.84,2-1.79,3.06-2.64.84-.74,1.69-1.48,2.53-2.22,10.34-8.86,20.47-18.15,28.81-29.12l.11-.1c2.43-3.27,4.96-6.44,7.39-9.6,4.85-6.01,9.6-11.92,13.4-18.57,2.53-4.11,4.85-8.65,7.7-12.56,1.48-2.11,2.85-4.22,4.12-6.44,2.53-4.12,4.75-8.44,6.75-12.77,1.27-2.43,2.43-4.85,3.59-7.28,4.96-10.45,10.34-20.68,14.03-31.55,1.9-5.7,4.43-11.08,6.65-16.46,5.28-13.19,8.23-27.01,11.18-40.73,2.43-11.4,3.59-23.11,4.96-34.61.84-7.18.74-14.56,1.48-21.95,1.69-16.35,1.27-32.71.74-49.17-.21-10.55-1.16-21-1.69-31.55-.21-4.64-.21-9.39-.63-14.03-.95-8.44-2.11-16.99-3.17-25.43-.32-2-.53-4.01-.63-5.91-.11-.21.21-.74.42-.95.32.32.84.74.95,1.06,1.05,7.28,2.11,14.46,2.95,21.74.74,5.7,1.27,11.5,1.69,17.2.53,6.86.74,13.82,1.16,20.79.42,6.65,1.27,13.3,1.58,20.05.32,8.44.21,16.99.32,25.53.11,4.75.21,9.6,0,14.35-.53,9.92-1.05,19.73-2.11,29.54-1.05,10.66-2.53,21.31-4.11,31.87-.95,5.91-2.85,11.82-3.69,17.94-.63,5.17-2,10.02-3.48,14.98-2.43,8.12-5.28,16.04-8.34,24.06-4.75,12.24-10.02,24.16-15.3,36.09-1.69,3.8-3.59,7.39-5.49,11.08-1.69,3.06-3.48,6.23-5.17,9.39-.21.42-.42.74-.63,1.16-2.11,3.8-4.43,7.39-6.65,11.18-3.8,6.12-7.39,12.56-11.61,18.47-1.79,2.64-3.8,5.28-5.91,7.81-2.43,3.17-4.96,6.23-7.39,9.39-.74.84-1.48,1.69-2.11,2.53-3.06,3.9-6.12,7.7-9.5,11.29-3.9,4.22-8.23,8.02-12.35,12.03l-4.43,4.12c-1.79,1.69-3.69,3.38-5.59,4.85-3.9,3.38-7.91,6.44-12.13,9.28-.32.21-.63.42-.95.63-1.9,1.27-3.69,2.43-5.59,3.59-9.6,6.12-19.63,11.71-30.49,15.62-3.48,1.27-6.86,2.85-10.45,4.01-11.18,3.8-22.58,6.23-34.08,8.12-12.66,2-25.53,3.06-38.41,3.17-14.35,0-28.49-2-42.52-4.64-3.9-.74-8.02-1.16-11.61-2.74-8.65-3.8-18.04-5.7-26.7-9.81-9.29-4.33-18.68-8.55-27.54-13.93-2.85-1.9-5.59-3.8-8.55-5.38-13.4-7.91-25.01-18.15-35.45-29.54-4.64-4.96-8.55-10.45-12.87-15.62-.74-.84-1.37-1.9-2.22-2.74-.21-.21-.74-.42-1.05-.21-.11,0-.42.63-.21.74,1.16,2.32,2.22,4.75,3.8,6.75,6.12,7.81,11.4,16.35,18.47,23.21,2.22,2.32,4.22,4.85,6.44,6.96,3.8,3.8,7.49,7.81,11.71,11.08,9.07,6.96,18.57,13.29,28.49,19.31,1.9.95,3.59,2.43,5.59,3.27,15.62,8.23,31.97,14.67,48.85,19.73,10.87,3.38,22.05,4.75,33.34,6.01,11.29.95,22.47,1.16,33.77.63,13.08-.63,25.96-2.64,38.72-5.59,8.23-1.69,16.36-4.75,24.37-7.49,11.5-3.9,22.37-9.07,32.71-15.3,4.96-3.06,9.81-6.33,14.56-10.02,4.12-2.95,8.12-6.33,12.03-9.81,1.37-1.16,2.74-2.43,4.11-3.69.53-.42.95-.95,1.48-1.37,5.8-5.49,11.61-11.18,16.88-17.2,3.8-4.33,7.17-8.97,10.66-13.61,2.11-2.85,4.33-5.7,6.65-8.55,0-.11.11-.21.21-.32.11-.21.32-.32.32-.53h.11c7.07-8.65,12.35-18.78,18.36-28.28,2.32-3.69,4.33-7.6,6.33-11.61,2.11-4.12,4.12-8.44,6.12-12.56,2.85-5.8,5.59-11.5,8.23-17.3,1.06-2.32,1.79-4.75,2.64-7.07.53-1.79,1.06-3.59,1.79-5.17,4.33-10.55,9.07-21.1,11.71-32.29,1.9-7.81,4.22-15.3,5.8-23.11,1.16-5.59,2.11-11.18,2.53-16.88.32-5.38,1.69-10.66,2.22-15.93.74-8.44,1.48-16.99,1.79-25.32.53-12.77,1.16-25.54.95-38.09-.32-20.57-1.48-41.26-3.69-61.73-1.48-13.3-2.64-26.7-4.85-39.89ZM316.86,36.31c-9.92-4.22-19.94-8.55-29.12-14.56-4.33-2.85-8.86-5.28-13.19-8.02-2-1.16-3.69-1.16-5.38.53-2.74,2.53-5.49,5.17-8.34,7.7-.53.32-1.27.42-2,.84.21-.74.21-1.69.53-2.32,2.22-3.27,4.33-6.65,6.75-9.71,2.85-3.8,7.28-4.43,11.5-2,10.87,5.8,21.53,12.03,31.23,19.41,2.85,2.11,5.7,4.43,8.44,6.54.42.42.63.95.84,1.48-.53.11-.95.42-1.27.11ZM558.92,77.35c7.6-2.43,15.19-4.96,22.79-6.86,7.91-2,15.93-3.48,23.95-4.85,2.22-.42,4.75-.32,6.96.11,2.95.53,5.07,2.43,5.8,5.38,1.06,4.01,2.32,8.02,3.38,12.03.11.32.11.84.21,1.16-.32.11-.84.42-.95.42-.74-1.05-1.37-1.9-2-3.06-1.69-2.64-3.17-5.49-4.96-8.12-2.11-3.17-2.85-3.27-6.33-2.53-6.44,1.48-12.77,3.17-19.2,4.22-8.97,1.48-18.04,2.32-27.12,3.59-.74,0-1.58,0-2.43-.1-.32,0-.53-.42-.84-.53.21-.42.42-.74.74-.84ZM610.62,317.93l-20.58-22.16c2.11,27.96,3.69,80.4-8.76,122.93-2.64,9.18-6.01,17.94-10.13,25.85-.21.53-.53.95-.74,1.48l-8.12,14.88-8.97-36.61-1.48-5.91c-.32.84-.74,1.58-1.05,2.32-16.99,37.14-36.3,63.41-56.45,81.77-1.69,1.48-3.27,2.85-4.85,4.22-3.69,3.06-7.28,5.91-10.97,8.55-.84.53-1.58,1.05-2.43,1.58-79.35,53.6-163.65.11-163.65.11-61.83-37.35-75.76-104.78-78.5-141.92l-20.79,38.72-4.12-16.46c-12.24-48.96,7.28-117.86,18.36-150.46l-25.43,16.25s.95-5.49,3.38-14.77c7.49-29.65,29.33-98.13,79.35-148.46-37.77,48.75-59.83,132-59.83,132l2.95-1.79,26.27-16.04-7.7,19.2c-.42.84-32.5,81.77-27.54,142.13l30.81-57.19-2.85,31.87c0,.42-2.53,37.14,10.66,77.24,33.34,100.98,133.69,117.86,194.15,93.38,6.44-3.27,12.87-6.86,19.2-10.97.74-.42,1.48-.95,2.22-1.48,3.8-2.43,7.49-5.17,11.08-8.12,1.79-1.27,3.59-2.74,5.17-4.22,10.45-9.07,19.73-19.84,26.7-32.71,12.13-21.95,20.26-43.16,24.8-56.87,3.17-9.39,4.75-15.19,4.75-15.3l5.28-31.65,15.62,62.99c2.53-7.28,4.54-15.09,6.12-23.11,10.97-54.66,2.64-120.39,2.53-121.34l-2.74-20.47,21.42,22.16,2.43,2.43s-.53-86.21-25.11-142.87c35.98,61.3,40.1,132.95,39.99,163.55,0,9.71-.42,15.3-.42,15.3ZM627.61,148.05c0,.11-.42.21-.63.53-.1-.21-.32-.32-.32-.53-.21-1.27-.42-2.64-.63-3.9-.63-4.64-1.27-9.07-1.79-13.08.32-.74.53-1.16.63-1.48.21.32.63.74.63.95.74,5.06,1.58,10.13,2.22,15.09.11.74,0,1.48-.1,2.43ZM623.07,118.29c0,.21-.32.42-.53.74-.32-.1-.74-.42-.84-.63-.32-1.9-.53-3.59-.84-5.28-.53-2.64-1.16-3.06-3.69-2.32-8.02,2.22-15.93,4.43-24.06,6.44-10.66,2.53-21.63,4.43-32.5,6.44-1.16.11-2.32.53-3.38.74-5.06,1.48-5.28,1.79-6.12,7.07.32,4.75.63,9.39.95,14.03.74,9.71,1.69,19.31,2.22,29.02.21,3.27-.74,6.65-1.16,10.02,0,.42-.42.53-.63.95-.1-.53-.32-.84-.32-1.16-.32-5.7-.21-11.5-.95-17.09-.74-6.75-2.43-13.61-3.17-20.47-.74-6.44-1.27-13.08-1.05-19.52.11-3.59,2.43-6.54,6.54-7.49,6.33-1.37,12.66-3.17,18.99-4.75,3.38-1.05,6.75-2.43,10.24-3.17,12.24-2.53,24.37-5.06,36.61-7.39,6.01-1.27,10.87-4.54,15.93-7.7,2.11-1.27,1.9-3.8,2.11-6.01,0-.21.21-.63.21-1.05.42.42,1.16.84,1.16,1.05.32,3.59.63,7.17.53,10.66,0,1.16-1.06,2.53-2,3.27-1.79,1.27-3.69,2.53-5.7,3.17-4.75,2-8.34,4.75-8.55,10.45ZM474.82,475.89c-2.53-4.11-4.85-8.65-7.7-12.56-.74-1.05-1.48-2.22-2.11-3.27l-4.75,3.38c1.69,3.06,3.59,6.01,5.38,9.07,3.8,6.12,7.39,12.56,11.61,18.47,2.11,3.06,4.43,6.12,6.86,9.07,1.79-1.27,3.59-2.74,5.17-4.22-5.17-6.44-10.34-12.87-14.46-19.94Z"/><path class="cls-1" d="M196.26,692.3c-.84-1.9-2.95-3.38-6.33-4.64-2.74-.95-5.59-1.58-8.34-2.11l-1.27-.21c-1.27-.32-2.64-.21-3.69.42-5.28,2.43-8.97,6.65-11.61,13.4-6.54,16.46-13.3,32.29-19.1,45.58-4.33,10.02-8.44,18.47-13.4,27.54l-2.32,4.33-2.74-9.92c-.95-3.27-1.69-5.8-2.53-8.34-3.17-10.34-3.8-16.25-4.54-21.95-.63-5.49-1.27-11.18-4.22-21-2.64-8.65-6.96-13.3-20.68-10.13-4.85,1.16-10.02,7.28-12.35,14.67-2.74,6.86-3.59,9.29-4.22,11.29-.84,2.53-1.48,4.33-5.07,12.77-4.22,9.81-8.44,18.36-13.3,27.54l-2.32,4.22-2.95-10.34c-.95-2.95-1.69-5.38-2.43-7.81l-5.8-18.99c-4.33-13.82-8.55-27.64-12.77-41.68-2.64-8.55-6.96-13.3-20.68-10.02-6.23,1.48-10.66,4.75-13.61,9.92,1.16,2.43,2.43,4.85,3.69,7.28,2.95,5.7,5.91,11.61,7.91,17.83l.84,2.74c8.44,26.27,17.09,53.39,23.85,80.51,2.53,10.34,7.81,16.14,17.94,19.84,5.8,2.22,9.81,2.53,12.66,1.16,2.95-1.48,5.06-5.06,7.07-11.61,3.06-10.76,6.23-19.42,9.71-27.43,2.85-6.44,5.38-12.35,7.81-18.04l4.54-10.55,1.58,5.38c3.48,12.87,6.54,25.01,10.76,42.1,2.64,10.23,7.81,15.93,17.94,19.73,5.8,2.22,9.81,2.53,12.66,1.16,2.85-1.48,5.07-4.96,7.07-11.5,3.17-10.97,6.33-19.63,9.71-27.54,6.33-14.35,13.08-28.81,19.63-42.73,3.38-7.39,6.75-14.67,10.13-21.84l1.48-3.38c3.06-6.54,6.23-13.4,8.76-20.26.74-1.79,1.06-3.48,1.06-4.96,0-.95-.21-1.79-.53-2.43Z"/><path class="cls-1" d="M325.73,763.52l-6.01-7.28c-.95-1.05-2.32-1.58-3.69-1.48-1.37.11-2.64.95-3.27,2.11-2.22,3.8-4.75,8.23-5.28,9.07-.63,1.16-1.27,2.32-1.9,3.48-.32.53-.53,1.06-.84,1.48-1.16,2-2.32,4.01-3.38,5.91-.11.32-2.53,4.54-3.69,6.33-.42.84-.95,1.79-1.48,2.64-.42.74-.84,1.48-1.69,1.69-.32-.11-.63-.21-.84-.53-.21-.21-.32-.63-.21-.95,0-.21-2-10.34-3.38-14.98-.84-2.74-1.79-5.38-2.85-8.02-.84-2.43-1.69-5.06-2.32-7.6-.74-3.06-1.79-6.12-3.17-9.07-1.16-1.9-2.53-3.69-4.33-5.17-.95-.95-2.22-1.37-3.48-1.37-3.06-.11-6.12.84-8.65,2.74-2.64,2.53-5.06,5.28-7.28,8.23-.32.32-.63.63-.84,1.06-1.9,1.9-8.76,10.66-9.07,11.18-1.37,2.32-2.74,4.64-4.22,6.96-1.16,1.79-2.32,3.48-3.59,5.28-.11.21-.21.42-.32.74-1.37,2.11-2.64,4.43-4.01,6.54-1.05,1.79-2.32,3.48-3.59,5.17-.53.74-1.06,1.48-1.58,2.22-1.37,1.9-2.74,3.69-4.33,5.38-1.9,1.9-3.8,3.69-5.91,5.38-.84.63-2,1.05-2.74,1.79-1.27,1.27-2.95,1.48-4.22,2.43-.32.21-.74.11-1.16.21-2.53.11-5.17.32-7.7.53-1.16.11-2.32-.53-2.74-1.58,0-.11.11-.21.11-.32,1.58-1.27,3.27-2.64,4.85-3.9,2.22-1.79,4.54-3.48,6.65-5.49,1.69-1.16,3.27-2.53,4.64-4.11,1.37-1.9,3.06-3.59,4.54-5.38.21-.32.42-.63.53-.95,1.05-1.79,2.11-3.59,2.95-5.49,1.16-2.22,2.11-4.43,2.95-6.65.74-2,1.27-4.01,2-6.01.74-2.11,1.16-4.43,1.27-6.65.21-3.69-1.06-7.28-3.48-10.13-2.53-2.64-5.49-4.75-8.86-6.44-.63-.32-1.27-.63-2-.84-2.32-.53-4.54-1.05-6.86-1.48-1.27-.21-2.43-.32-3.69-.32-2.11-.11-4.33.11-6.44.53-1.48.32-2.95.74-4.43,1.27-1.69.74-3.27,1.58-4.85,2.43-3.17,1.79-5.91,4.33-7.81,7.39-1.37,1.9-2.53,4.12-3.9,6.01-2.74,3.9-4.64,8.23-5.7,12.77-.74,3.38-1.16,6.86-1.9,10.34-.53,2.74-.74,5.59-.74,8.44-.84,14.14,3.8,22.9,12.24,31.13,1.9,1.69,3.9,3.17,6.01,4.43.42.32.95.63,1.37.84,2.11,1.16,4.43,2,6.75,2.53,1.58.42,3.27.74,4.85,1.06,2.85.42,5.8.42,8.65,0,2.11-.42,4.33-.42,6.44-1.16,2.85-.95,5.59-2.22,8.34-3.48,2-.84,3.9-2,5.7-3.17,1.48-.84,2.85-1.9,4.12-2.95,3.9-3.8,8.02-7.28,10.87-12.03.21-.21.42-.42.53-.74,1.16,2.43,2.22,4.85,3.06,7.28.53.95.95,1.79,1.27,2.22,1.48,2.53,3.17,4.75,4.96,6.96,2.11,2.53,6.33,6.33,10.02,6.65,2,.11,4.01.32,6.01.21,1.58,0,3.06-.21,4.64-.53,1.16-.32,2.32-1.06,3.48-1.48,2.43-.95,4.75-2.11,6.86-3.59,3.9-2.64,7.39-5.8,10.34-9.5,1.16-1.27,1.9-2.85,3.17-4.01,1.79-2,3.48-4.22,4.96-6.44.42-.53.84-1.16,1.16-1.69,1.27-1.69,2.22-3.38,3.27-5.06.42-.53,15.09-25.64,15.62-26.06.74-.53-.74-6.96-.74-6.96ZM194.89,786.63c-.63-2.43-.84-5.06-.63-7.6.21-3.8,1.9-6.01,3.27-9.5.84-2,2.11-3.9,3.48-5.7.95-.84,2-1.58,3.06-2.22.63.11,1.16.21,1.69.32,1.69.53,3.27,1.16,3.38,2.95.21,2.85-.42,5.7-1.9,8.12-1.58,2.74-3.17,4.75-4.96,7.39-2.11,2.43-4.64,4.54-7.39,6.23ZM273.28,800.66c-.32,2.95-2.64,5.17-5.49,5.28-5.49,0-9.81-7.91-10.66-9.6-.42-1.48-.63-2.95-.42-4.43.95-3.9,2.22-7.7,3.9-11.29.11-.32.21-.53.32-.74.74-1.16,1.48-2.43,2.22-3.59.63-1.06,1.48-1.9,2.43-2.64,1.06.53,2,1.27,2.74,2.22,2,2.74,4.01,11.5,4.43,15.19.21,1.9.63,8.97.53,9.6Z"/><path class="cls-1" d="M360.97,767.11c-.74-1.06-1.69-1.9-2.64-2.64-1.06-.74-2.22-1.16-3.38-1.79-1.9.84-3.59,1.9-4.64,4.01-1.05,2.22-1.69,4.54-2.32,6.96-.53,1.48-.84,3.06-1.27,4.64-.32,1.05-.84,2.11-1.05,3.17-.32,1.69-.63,4.75-1.27,7.91v.32c-.74,3.48-1.58,7.18-3.06,9.29-1.48,2.22-3.69,4.22-7.7,3.9-4.11-.32-4.64-9.39-5.38-13.93-.53-4.43-.53-10.24-.1-14.67,1.48-15.83,1.79-24.37,5.91-37.46.74-2.53,1.48-5.07,2.32-7.6.21-.84,3.48-1.05,4.75-1.27,2-.32,17.41-1.05,21.1-2.64,2.74-1.16,4.22-3.69,3.38-6.44-.63-2.11-1.06-3.9-2-6.01-1.16-2.32-1.37-3.27-3.59-4.85-1.37-.95-5.06-.11-6.54.21-3.59.63-8.65.74-11.08,1.05-3.9.63-4.22-1.79-6.54-5.7-.95-1.79-2.22-3.27-3.48-4.85-1.69-1.9-3.9-2.95-6.65-2.74-.63.1-1.27.42-1.79.74-2.43,1.37-4.01,3.8-5.91,5.7-.32.32-.42.63-.53,1.05-.32.95-.53,2.11-.84,3.06-.53,2.11-1.79,3.06-4.01,2.95-.53,0-1.05,0-1.48.11-4.43.32-8.55.32-14.03,1.16-3.27.42-13.72.63-15.09,1.69-6.96,3.17,3.06,18.99,8.97,18.47,2.53-.32,19.84-1.58,20.68.21-.74,2.74-3.27,10.13-4.33,15.19-1.37,6.75-2.22,15.62-2.64,24.59-.53,11.92-.11,24.06,1.48,31.87,0,.21.11.32.21.53,2.22,9.81,12.13,23,16.25,24.27,4.22,1.37,8.23,2.32,14.46,1.48,6.12-.84,11.61-3.9,13.93-8.02,0-.11,0-.21.11-.32.95-.95,1.9-2.22,2.74-3.59,4.85-6.96,9.28-18.15,9.71-21.31.42-2.43.63-4.96.84-7.39.21-4.01.42-7.91.53-11.92,0-1.27-.32-2.64-.84-3.9-.74-2-2-3.8-3.17-5.49Z"/><path class="cls-1" d="M498.03,790c-1.27,1.79-4.33,5.59-6.33,7.91l-.11.11c-.32.32-.63.63-.84.84-2.43,2.43-4.64,4.75-6.86,6.54-1.9,1.27-4.43,2.32-8.12,2.95-2.85-.42-5.8-2.43-7.6-5.17-.84-1.37-.95-6.54-.95-8.02,0-3.9.84-7.7,1.69-11.5.74-3.8,1.58-7.6,2.74-11.18.63-2.32.95-4.64,1.9-6.86,1.16-2.85,2.74-5.59,3.9-8.44.95-2.11,1.79-4.22,2.32-6.44.53-2.64.32-5.28-.63-7.81-.63-2-1.9-3.27-3.59-4.01-2.22-.95-4.43-1.58-6.86-1.27-1.05.11-2.11.21-3.17.21-2.22.11-4.54.11-6.75.42-2.43.32-4.96.74-7.39,1.37-2,.42-4.01.84-5.8,1.9-2.53,1.37-2.95,1.37-4.96-.74-.95-1.06-2.43-1.69-3.9-1.58-1.9.21-3.8.21-5.7.32-1.69.11-3.9,1.9-4.33,3.59-.21.95-.42,2-.74,2.95-.32,1.27-1.79,8.44-4.64,17.41-2.85,8.86-7.17,19.63-12.98,28.07-.63.74-1.05,1.37-1.27,1.58-.53.74-17.83,20.68-26.48,16.04-1.05-.53-5.17-4.22-5.8-5.38.11-.11.11-.32.11-.32,1.69-1.37,3.27-2.64,4.85-4.01,2.32-1.79,4.64-3.48,6.86-5.49,1.48-1.37,3.38-2.43,4.64-4.12,1.37-1.9,2.95-3.59,4.54-5.49.21-.21.42-.63.53-.95,1.06-1.79,2.11-3.59,3.06-5.49,1.05-2.22,2-4.43,2.95-6.75.74-2,1.27-4.01,1.9-6.01.74-2.22,1.27-4.43,1.27-6.75.11-3.8-.84-7.28-3.38-10.13-2.53-2.85-5.7-4.75-8.97-6.54-.63-.32-1.37-.63-2.11-.84-2.22-.53-4.54-1.05-6.86-1.58-1.27-.21-2.43-.11-3.69-.21-2.22-.11-4.33.11-6.54.53-1.48.32-2.95.74-4.43,1.27-1.69.74-3.27,1.58-4.85,2.43-3.48,1.69-5.8,4.43-7.91,7.39-1.48,2-2.53,4.22-3.9,6.23-2.74,3.9-4.75,8.12-5.7,12.77-.74,3.48-1.27,6.96-2,10.45-.63,2.74-.53,5.59-.74,8.44v1.05c-.53,12.13,2.95,20.15,9.5,27.43.95,1.05,1.9,2,2.85,2.95,1.79,1.79,4.01,3.06,6.12,4.54.42.32.84.53,1.37.74,2.11,1.16,4.33,2.11,6.75,2.64,1.69.21,3.27.84,4.96.95,2.85.21,5.7.74,8.65.11,2.11-.53,4.43-.53,6.44-1.16,2.95-.95,5.7-2.32,8.44-3.48,2-.95,3.9-2.11,5.7-3.27,1.48-.95,3.06-1.79,4.22-2.95,2-1.9,4.12-3.38,6.44-5.7,2.32-2.32,5.06-5.7,8.02-11.29,1.58-2.22,2.74-4.33,3.9-6.54,1.37-2.74,10.45-23.32,11.82-26.17.63-1.37,1.79-2.22,3.27-2.53,1.27-.32,2.64-.42,3.9-.53.53,0,1.05.21,1.48.53,1.16.95,1.58,2.22,1.16,3.69-.42,1.79-1.06,3.59-1.69,5.28-.63,1.69-1.27,3.27-1.9,4.85-.42,1.27-1.05,2.43-1.37,3.69-.63,2.43-1.27,4.85-1.79,7.17-.21,1.16-.53,2.95-.53,4.01-.11,1.69-.11,3.48-.11,5.17,0,3.06.42,6.23,1.16,9.29.63,2.32,1.58,4.64,2.64,6.75.84,1.79,2.11,3.38,3.27,4.96,1.06,1.58,5.17,4.43,6.75,5.49,4.96,3.27,21.31,2.53,25.85.42,2.53-1.27,5.49-3.06,8.23-5.17,6.86-5.17,12.98-12.45,13.4-18.99.21-3.59-.42-12.03-5.28-12.56ZM367.72,786.21c-.95-2.53-.74-6.65-.63-7.6.1-3.8,1.79-6.12,3.27-9.6.84-2.11,2.11-3.9,3.48-5.7.84-.95,2.11-1.48,3.17-2.22.53.11,1.05.11,1.58.32,1.79.42,3.38,1.16,3.48,2.95.21,2.95-.53,5.59-2,8.12-1.48,2.85-3.17,4.85-4.96,7.49-.95,1.37-5.8,5.59-7.39,6.23Z"/><path class="cls-1" d="M584.13,770.06c-1.48-1.27-3.8-.84-4.85.74-.53.95-5.49,13.4-6.01,14.77-3.59,8.55-8.86,13.82-13.51,13.19-.95-.11-1.37-1.06-1.48-1.9-.11-1.9-.42-3.9-.53-5.8,0-2.64.11-5.17.21-7.7.21-2.74.53-5.59.74-8.34.21-2.95.21-5.91.32-8.86,0-.42.1-.84.1-1.27.32-3.69.74-7.28,1.06-10.97.42-3.69-.84-6.96-3.06-9.81-1.27-1.58-2.74-2.95-4.33-4.12-1.37-1.06-2.95-1.9-4.85-1.9-2.22.11-4.43.21-6.54.84-2.32.63-4.22,2-5.91,3.38-3.38,2.64-6.33,5.7-8.86,9.18-1.16,1.58-2.32,3.27-3.59,4.96-.11.11-.21.32-.32.53-1.58,2.32-5.38,12.77-6.44,10.13-.74-2-.53-4.22-.63-5.17-.11-4.64-.84-9.18-2.95-13.4-1.06-2.22-2.74-3.69-4.54-5.06-1.06-.84-2.53-1.27-3.9-1.79-2.43-.74-4.64,0-6.86,1.06-2.11.95-5.06,2.32-7.49,3.69-1.27.74-1.9,2.22-1.48,3.69,2,7.49,3.69,19.84,3.48,30.92.21,2.64.21,5.17.32,7.81.11,3.06-.11,6.12-.53,9.07l-.11.11c0,.42,0,.84-.11,1.27-.32,1.48-.42,2.95-.63,4.33-.11,1.27-.21,2.43-.32,3.59-.32,2.22-.84,4.43-1.05,6.65-.32,2.64-.42,5.17.42,7.7,0,.42.11.74.21,1.06.95,2.32,2.22,4.11,4.75,4.96,2,.74,3.9.53,5.8.74,1.58.11,3.17,0,4.54-1.06.21-.21.53-.21.84-.32,3.38-1.05,6.01-3.17,7.39-6.44,1.16-2.53,2.64-4.96,3.59-7.7.95-2.95,8.55-23.74,9.07-24.69,1.06-2.11,4.12-8.76,5.28-10.87.32-.53.63-1.16,1.69-1.16.21.42.63.84.63,1.48.21.95-.42,4.01-.84,7.49-.21,2.53-.95,16.14-.11,20.26.53,2.85,1.16,5.7,1.9,8.44.63,1.9,1.69,3.69,2.32,5.59.84,2.43,2.64,4.12,4.75,5.38,3.27,2.32,7.17,3.17,11.08,3.59,1.27.11,2.43-.11,3.59-.32,8.23-1.37,21-13.72,22.9-15.51,3.9-3.48,9.39-11.92,13.72-20.89,4.64-9.29-4.01-17.83-8.86-21.53Z"/><path class="cls-1" d="M797.59,692.3c-.84-1.9-2.95-3.38-6.44-4.64-2.64-.95-5.49-1.58-8.23-2.11l-1.27-.21c-1.27-.32-2.64-.21-3.8.42-5.28,2.43-8.86,6.65-11.61,13.4-6.54,16.46-13.3,32.29-18.99,45.58-4.33,10.02-8.44,18.47-13.3,27.54l-2.32,4.22-2.85-9.71c-1.05-3.27-1.69-5.8-2.53-8.44-3.17-10.34-3.8-16.25-4.54-21.95-.63-5.49-1.27-11.18-4.33-21-2.43-8.65-6.86-13.3-20.57-10.13-4.85,1.16-10.02,7.28-12.35,14.67-2.74,6.86-3.59,9.29-4.22,11.29-.84,2.53-1.48,4.33-5.17,12.77-4.22,9.81-8.34,18.36-13.3,27.54l-2.22,4.22-2.85-9.71c-.95-3.27-1.79-5.91-2.53-8.44l-5.8-18.99c-4.33-13.82-8.65-27.75-12.77-41.68-2.53-8.55-6.96-13.3-20.68-10.02-6.23,1.48-10.76,4.75-13.61,9.92,1.16,2.43,2.43,4.85,3.59,7.28,3.06,5.7,6.01,11.61,8.02,17.83l.95,2.85c8.34,26.27,16.99,53.29,23.74,80.4,2.53,10.34,7.7,16.14,17.94,19.84,5.8,2.22,9.81,2.53,12.66,1.16,2.85-1.48,5.06-5.06,6.96-11.61,3.27-10.76,6.33-19.52,9.81-27.43,3.17-7.07,5.91-13.51,8.55-19.73l3.8-8.86,1.48,5.38c3.59,12.87,6.65,25.01,10.87,42.1,2.53,10.23,7.7,15.93,17.94,19.73,5.8,2.22,9.81,2.53,12.56,1.16,3.06-1.48,5.17-4.96,7.07-11.5,3.27-10.97,6.33-19.63,9.81-27.54,6.33-14.35,13.08-28.81,19.63-42.73,3.27-7.39,6.75-14.67,10.13-21.84l1.58-3.38c2.95-6.54,6.12-13.4,8.65-20.26.63-1.79,1.05-3.59,1.05-4.96,0-.95-.21-1.79-.53-2.43Z"/><path class="cls-1" d="M873.77,756.45c-1.69-1.16-5.06-.74-6.33.95-.11,0-.21.11-.21.21-1.48,2.43-3.48,6.01-4.22,7.6-.74,1.27-1.37,2.64-2.11,3.9-2.32,4.22-4.54,8.55-7.07,12.56-1.69,2.64-3.59,4.96-5.38,7.39-.53.63-1.06,1.37-1.48,2-.63.84-1.16,1.79-1.79,2.64-1.27,1.69-2.85,2.85-5.17,3.17-.53-1.16-1.27-2.32-1.48-3.48-.42-1.58-.32-3.27-.74-4.85-.74-3.9-.32-7.7.74-11.5.74-2.64,1.48-5.38,2-8.02.53-2.32.74-4.64,1.05-6.96.11-1.05.32-2.11.42-3.17.32-2.43.74-4.85.74-7.28.11-2-.32-4.12-.32-6.12,0-1.37-.63-2.22-1.48-3.06l-1.16-1.16c-1.16-1.16-2.74-1.48-4.33-1.69-2.53-.21-4.75,1.06-6.86,2.22-.53.32-.95.53-1.37.84-1.37-.42-2-1.58-2.85-2.32-1.16-1.27-5.38-2.11-7.28-1.9-3.9.42-4.96-.11-8.76,1.06-1.58.53-3.27,1.05-4.85,1.58-1.58.53-2.95,1.58-4.54,2.32-2.95,1.37-5.07,3.8-7.6,5.8-1.9,1.58-3.38,3.8-5.17,5.7-.53.63-1.16,1.27-1.69,1.9-1.9,2.64-3.69,5.38-5.49,8.02-1.37,2-2.53,4.12-3.69,6.23-.63.95-1.16,1.9-1.58,2.95-.84,1.79-1.48,3.59-2.22,5.38-.42,1.06-1.05,2.85-1.37,3.9-.53,1.69-.95,3.38-1.37,5.07-.63,2.22-.95,4.54-1.05,6.86-.11,2.43.42,4.64.63,6.96.32,3.8,1.79,7.28,3.27,10.55,1.27,2.74,2.85,5.28,5.17,7.28,2.43,2.22,4.64,4.54,7.81,6.01,1.79.84,3.69,1.79,5.7,2.22,1.79.32,3.69.53,5.49.32,3.9-.74,7.6-2.11,10.97-4.33,4.12-2.85,7.49-6.33,9.92-10.66.63-.21,1.16-.32,1.9-.63.42.63,1.27,1.06,1.37,1.69.32,1.48,1.48,2.32,2.11,3.38,1.05,1.48,2.11,2.85,3.48,4.11,2.95,2.53,6.33,4.12,10.13,4.64,2.74.42,5.49.42,8.23.63,2.64.11,4.85-1.16,6.96-2.43,1.16-.63,2.11-1.69,3.17-2.64,1.69-1.79,3.27-3.59,4.54-5.8,1.16-2.11,2.74-4.12,3.9-6.33,1.16-2.11,2.11-4.43,3.48-6.44.11-.11.74-1.16,1.58-2.64,1.69-2.85,4.01-6.86,4.01-6.86,14.24-22.47,9.29-32.71,2.22-37.77ZM815.11,769.01c-.42,2.32-.84,4.54-1.58,6.75-.42,1.58-1.37,3.06-2.11,4.54-1.06,2.11-2.11,4.22-3.17,6.33-.21.32-.42.63-.63.95-1.48,2.43-3.17,4.64-4.43,7.17-1.16,2.43-2.95,4.54-4.54,6.65-1.16,1.58-2.64,2.95-3.8,4.33-.84,0-1.48.11-2.22.11-2-1.48-3.17-3.48-3.69-6.01-.42-2.85-.53-5.7-.21-8.44.32-2.22.63-4.43,1.58-6.54.74-1.58,1.27-3.17,2-4.85.21-.42.53-.95.74-1.37.74-1.27,1.48-2.43,2.22-3.59.11-.21.32-.53.53-.74,2.64-3.17,5.28-6.44,8.65-9.07,1.37-1.06,2.74-1.9,4.33-2.32,2.53-.74,4.43-.11,5.8,1.79.95,1.37.74,2.85.53,4.33Z"/><path class="cls-1" d="M1047.98,762.57l-6.12-7.18c-1.9-2.32-5.49-2-6.96.63-2.11,3.69-4.75,8.23-5.28,9.07-.63,1.16-1.27,2.43-1.9,3.59-1.48,2.43-2.85,4.96-4.33,7.39-.1.32-2.53,4.54-3.69,6.44-.42.84-.95,1.69-1.58,2.64-.32.74-.74,1.37-1.58,1.69-.84-.32-1.16-.74-1.06-1.48,0-.32-2-10.45-3.48-15.09-.74-2.74-1.69-5.49-2.85-8.12-.95-2.43-1.58-5.17-2.22-7.7-.95-3.06-1.9-6.23-3.27-9.07-1.05-2.11-2.64-3.69-4.33-5.28-1.06-1.06-2.32-1.37-3.59-1.48-3.06,0-6.12.95-8.65,2.74-1.9,1.58-9.07,10.55-10.97,13.08-1.9,2.74-6.65,8.97-6.96,9.5-.42.84-1.58,2.43-2.64,4.33-2,2.95-4.22,6.54-4.96,7.6-.11.21-2.85,5.07-4.22,7.18-1.06,1.69-2.32,3.38-3.59,5.06-.42.74-4.22,5.8-5.7,7.39-.21.1-.32.32-.53.42-1.58,1.69-3.48,3.27-5.28,4.75-.84.74-1.79,1.37-2.74,1.9-.21.11-.42.21-.74.32h-.32c-4.22-.32-4.75-9.39-5.38-13.93-.63-4.43-.53-10.24-.11-14.56,1.48-15.93,1.79-24.48,5.91-37.56.74-2.53,1.48-5.07,2.22-7.6.32-.84,3.59-1.05,4.75-1.27,2-.21,17.52-1.05,21.21-2.64,2.74-1.16,4.22-3.69,3.38-6.44-.63-2.11-1.16-3.9-2.11-6.01-1.06-2.32-1.27-3.27-3.59-4.85-1.37-.95-5.06-.11-6.44.11-3.59.74-8.65.84-11.18,1.27-3.9.53-4.12-1.9-6.44-5.8-1.06-1.69-2.22-3.27-3.48-4.85-1.79-1.9-4.01-3.06-6.65-2.74-.63.1-1.37.32-1.9.63-2.43,1.48-3.9,3.9-5.91,5.91-.21.21-.42.63-.42.95-.32.95-.63,2.11-.95,3.06-.11.84-.53,1.37-.84,1.9-.63,0-1.27.21-1.58.32-3.59.63-8.65.63-11.18,1.06-3.8.53-7.81-2.32-10.24-6.23-.95-1.69-2.22-3.27-3.48-4.85-1.69-1.9-3.9-3.06-6.54-2.74-.63.1-1.37.32-1.9.63-2.43,1.48-4.01,3.9-5.91,5.91-.32.21-.42.63-.53.95-.32.95-.53,2.11-.84,3.06-.53,2.11-1.79,3.06-3.9,2.95-.63,0-1.16,0-1.58.11-4.33.42-8.55.32-14.03,1.16-3.27.42-13.72.63-15.09,1.69-6.96,3.17,3.06,18.99,8.97,18.36,2.53-.21,19.84-1.58,20.68.32-.74,2.74-3.27,10.13-4.22,15.19-.63,3.27-1.27,7.07-1.69,11.08-1.69,14.56-1.79,32.5.11,43.68.11.63.21,1.16.32,1.69,2.11,9.81,12.24,23.53,16.46,24.8,4.22,1.27,8.12,2.32,14.35,1.48,6.23-.84,11.71-3.9,14.03-8.02,0-.11,0-.21.11-.32,1.27-1.27,2.64-3.06,3.8-4.96,3.8,5.91,8.34,11.08,10.76,11.82.21,0,5.28,2.53,12.45-.21,2.74-1.05,12.03-5.38,13.72-6.65,1.48-.84,1.9-1.05,4.12-2.74.42-.32.84-.74,1.37-1.27,3.59-2.85,6.75-6.33,9.29-10.45.84.21,4.22,6.54,5.38,8.34,1.48,2.43,3.06,4.85,4.96,7.07,2.22,2.43,6.33,6.33,10.24,6.54,1.9.11,4.01.32,6.01.32,1.48,0,3.06-.21,4.54-.63,1.27-.32,2.43-1.06,3.59-1.48,2.53-.74,4.64-2.22,6.96-3.59,4.11-2.43,7.28-6.01,10.34-9.6,1.27-1.16,2-2.74,3.17-4.01,2.53-2.43,4.22-5.49,6.23-8.23,1.27-1.58,2.22-3.38,3.38-5.06.32-.53,15.19-25.85,15.62-26.17.84-.63-.74-7.17-.74-7.17ZM912.18,746.32c-1.69,8.44-2.74,20.26-2.95,31.34-.95,8.23-3.9,17.83-6.23,21.31-1.48,2.11-3.69,4.22-7.7,3.9-4.12-.32-4.64-9.39-5.28-13.93-.63-4.43-.63-10.24-.21-14.56,1.48-15.93,1.79-24.48,5.91-37.56.63-2,1.27-4.12,1.79-6.12,5.17-.42,18.15-1.16,18.89.42-.63,2.74-3.27,10.13-4.22,15.19ZM995.12,800.13c-.21,1.69-1.69,5.28-5.59,5.28-5.38,0-9.81-8.02-10.66-9.71-.63-1.37-.42-3.06-.42-4.43,0-1.69,2.95-9.07,3.9-11.4.1-.21.21-.53.32-.74.74-1.27,1.58-2.43,2.32-3.59.63-1.06,1.37-2,2.32-2.64,1.27.53,2.22,1.16,2.85,2.11,2,2.74,4.01,11.71,4.43,15.4.21,1.9.63,9.07.53,9.71Z"/><path class="cls-1" d="M76.82,889.93c-4.75-.1-9.5,0-14.24,0s-9.71-.1-14.56,0c-2.64,0-3.38.74-3.59,3.38,0,2.11,0,4.33.53,6.54.53,2,1.05,2.53,3.27,2.64h7.28c1.58,0,2.22.74,2.32,2.22,0,1.48.1,2.95.21,4.43.32,3.48.32,6.65,0,10.45-.42,3.48-1.37,6.96-1.37,10.55-.11,2.64.74,3.38,3.38,3.48h5.17c2.64,0,3.48-.84,3.27-3.48-.1-1.9-.42-3.69-.84-5.59-1.06-5.28-1.06-10.34-.84-15.93.11-1.27.11-2.43.32-3.59.32-1.69,1.16-2.43,2.85-2.53h6.01c2.85-.1,3.8-.84,4.01-3.69.21-1.79.21-3.59.21-5.38,0-3.06-.42-3.48-3.38-3.48Z"/><path class="cls-1" d="M114.38,921.05c-1.37-2-1.37-2.11.74-3.27,2.74-1.69,4.64-4.01,5.49-7.17.95-3.48,1.06-6.96.53-10.45-1.06-7.28-4.85-10.24-12.35-10.34h-8.76c-3.38,0-6.75.1-10.02,0-4.33,0-4.64,1.37-4.75,4.64,0,3.48.32,6.96.63,10.45.53,4.96.63,9.92.32,14.98-.21,3.59-.84,7.28-.63,10.97.11,2.22.53,2.64,2.74,2.74,1.48.11,3.06,0,4.54,0,3.8.21,4.64,0,4.22-4.01-.11-.74-.21-1.58-.32-2.11-.32-1.9-.74-3.9-1.05-5.8-.21-1.69.21-2.22,1.9-2.22,1.16-.11,2.43,0,3.59,0,1.37-.11,2.11.53,2.53,1.69.74,1.9,1.58,3.9,2.32,5.8,2.85,7.39,2.53,6.65,9.71,6.65,1.69,0,3.8.53,4.64-1.27.95-1.79-.53-3.38-1.48-4.85-1.48-2.22-3.06-4.33-4.54-6.44ZM110.58,909.66c-2.74.84-5.8.74-8.76.74-1.58,0-3.17.11-4.75.11s-2-.74-2.22-2c-.1-1.58.21-3.17.63-4.75.11-.74.63-1.27,1.48-1.27,4.64-.1,8.97-.42,13.51.84,2.11.63,2.53,1.48,2.43,3.48-.11,1.58-1.05,2.32-2.32,2.85Z"/><path class="cls-1" d="M137.8,915.36c.11-4.64.84-9.07,1.37-13.61.21-2.53.53-4.96.74-7.49.11-3.27-.95-4.33-4.12-4.43h-2.11c-.74,0-1.48,0-2.11.1-3.27,0-3.69.42-3.8,3.59-.1,3.8.53,7.7.95,11.5.74,6.33,1.48,12.66-.11,18.99-.53,2.11-.95,4.43-.84,6.75.11,1.9.63,2.64,2.53,2.74,2.22.21,4.54.11,6.86,0,1.58,0,2.32-.95,2.32-2.53,0-1.9-.11-3.8-.32-5.7-.53-3.27-1.37-6.65-1.37-9.92Z"/><path class="cls-1" d="M164.18,905.33c-2.43-.11-4.75,0-7.07,0s-4.75-.11-7.17,0c-2.74,0-3.38.63-3.48,3.48v4.43c.11,2.53.84,3.38,3.38,3.48,4.96.11,9.92,0,14.77,0,1.9,0,2.53-.63,2.64-2.53.1-2,.1-4.12,0-6.23-.21-2-.84-2.64-3.06-2.64Z"/><path class="cls-1" d="M207.76,917.36c-.63-4.54-3.8-7.17-8.12-8.65-1.79-.63-3.69-.95-5.59-1.27-2.95-.32-6.01-.63-9.07-1.27-1.06-.11-2.85-.53-2.95-1.69-.11-1.79,1.58-2,2.85-2.22,3.17-.63,8.12,0,12.03,1.05,1.27.32,2.53.74,3.8,1.06,2.64.53,3.59,0,4.33-2.43.42-1.69.74-3.38.74-5.06-.11-3.27-.53-4.01-3.69-5.28-3.59-1.37-7.39-1.79-11.29-1.79-3.17,0-6.33.1-9.29,1.37-4.43,1.9-6.96,5.17-7.07,10.02v2.64c.11,4.85,2.43,8.23,6.96,10.02,2.64,1.06,5.38,1.48,8.12,1.69,2.43.21,4.96.42,7.39,1.05.95.21,2,.42,2.11,1.48.21,1.37-1.27,2.11-2.22,2.43-1.79.74-3.17.84-5.38.53-3.59-.53-7.17-1.48-10.24-3.48-.84-.53-1.79-1.16-2.74-1.58-2-.95-2.95-.63-3.69,1.48-.53,1.58-.84,3.27-1.16,4.96-.53,2.95.42,5.28,3.17,6.96,5.38,3.38,11.29,4.64,17.52,4.11,3.38-.21,6.65-1.16,9.29-3.48,3.8-3.38,5.06-7.7,4.22-12.66Z"/><path class="cls-1" d="M244.37,889.93c-4.75-.1-9.5,0-14.24,0s-9.71-.1-14.56,0c-2.53,0-3.38.74-3.48,3.38-.11,2.11-.11,4.33.42,6.54.53,2,1.16,2.53,3.38,2.64h7.28c1.48,0,2.11.74,2.22,2.22.11,1.48.21,2.95.32,4.43.21,3.48.21,6.65-.11,10.45-.32,3.48-1.37,6.96-1.37,10.55,0,2.64.74,3.38,3.38,3.48h5.17c2.64,0,3.48-.84,3.27-3.48-.11-1.9-.42-3.69-.74-5.59-1.05-5.28-1.05-10.34-.84-15.93,0-1.27,0-2.43.21-3.59.32-1.69,1.16-2.43,2.85-2.53h6.12c2.85-.1,3.69-.84,4.01-3.69.11-1.79.21-3.59.21-5.38,0-3.06-.42-3.48-3.48-3.48Z"/><path class="cls-1" d="M286.26,929.81c-.32-1.79-1.05-3.38-1.79-5.06-3.69-9.07-7.49-18.15-11.18-27.22-.74-1.69-1.48-3.27-2.22-4.96-.42-.95-1.16-1.79-2.22-2.22-3.8-1.27-6.96,0-8.55,3.69-4.54,10.97-8.97,21.84-13.4,32.82-.42,1.16-.63,2.11-.84,3.27-.42,2.95.32,3.38,3.27,3.48h4.22c2.64-.11,3.27-.53,4.11-3.06.42-1.16.63-2.43.95-3.69.53-2.11,1.9-3.17,3.9-3.17h5.49c3.17,0,5.17,1.48,5.91,4.54,1.27,5.28,1.37,5.38,7.07,5.38h2.32c2.85-.11,3.59-1.05,2.95-3.8ZM267.69,915.15h-3.06c-1.48-.11-1.9-.53-1.58-2.11.53-2.11,1.16-3.69,2.11-5.59.42-.74,1.48-.63,1.69-.21,1.05,2,1.58,3.9,2.11,6.12.32,1.05-.1,1.69-1.27,1.79Z"/><path class="cls-1" d="M316.76,889.93c-4.75-.1-9.5,0-14.24,0s-9.6-.1-14.46,0c-2.64,0-3.48.74-3.59,3.38,0,2.11,0,4.33.53,6.54.42,2,1.05,2.53,3.27,2.64h7.28c1.48,0,2.22.74,2.32,2.22,0,1.48.1,2.95.21,4.43.32,3.48.32,6.65,0,10.45-.42,3.48-1.37,6.96-1.48,10.55,0,2.64.84,3.38,3.48,3.48h5.17c2.64,0,3.38-.84,3.27-3.48-.1-1.9-.42-3.69-.84-5.59-1.06-5.28-1.06-10.34-.84-15.93.11-1.27.11-2.43.32-3.59.32-1.69,1.16-2.43,2.85-2.53h6.01c2.85-.1,3.8-.84,4.01-3.69.21-1.79.21-3.59.21-5.38,0-3.06-.42-3.48-3.48-3.48Z"/><path class="cls-1" d="M355.38,921.05h-15.83c-.74,0-1.58,0-2.43-.11-2-.32-2.53-1.16-2.32-3.38.1-1.69.21-1.69,2.74-1.69,1.48-.11,2.95,0,4.54,0,3.17,0,6.44,0,9.6-.11,2.22,0,2.74-.53,2.85-2.53v-.63c.1-3.59-1.58-5.38-5.17-5.38h-12.13c-.63,0-1.37.21-1.9-.53-1.06-1.69.21-4.01,2.22-4.22.63-.1,1.37,0,2.11,0h15.41c2.43,0,3.06-.63,3.27-2.95.11-1.9.11-3.8,0-5.7-.11-3.27-.74-3.9-4.12-3.9-8.34-.1-16.57-.1-24.9,0-3.48,0-3.8.32-3.9,3.69-.11,4.85.42,9.71.74,14.56.32,4.33.63,8.55.1,12.77-.42,3.17-.95,6.33-.84,9.6.11,2.64.42,3.06,3.17,3.06h27.01c2.64-.11,3.17-.63,3.17-3.27.11-2,.11-4.01,0-5.91,0-2.74-.74-3.38-3.38-3.38Z"/><path class="cls-1" d="M375.85,890.46c-1.79-.11-3.59,0-5.38,0-1.48-.11-2.43.63-2.85,1.9-1.16,3.38-2.22,6.75-2.43,9.6-.21,3.27.84,4.54,3.06,4.43,1.16-.1,2.32-.32,3.17-1.37,2.43-3.27,4.12-6.33,6.01-10.02.11-.42.42-1.37.42-1.69.21-1.9-.21-2.64-2-2.85Z"/><path class="cls-1" d="M418.26,917.36c-.74-4.54-3.9-7.17-8.23-8.65-1.79-.63-3.59-.95-5.59-1.27-2.95-.32-6.01-.63-9.07-1.27-1.06-.11-2.85-.53-2.95-1.69,0-1.79,1.58-2,2.85-2.22,3.17-.63,8.12,0,12.03,1.05,1.27.32,2.53.74,3.8,1.06,2.64.53,3.59,0,4.33-2.43.53-1.69.74-3.38.74-5.06-.11-3.27-.53-4.01-3.69-5.28-3.59-1.37-7.39-1.79-11.29-1.79-3.17,0-6.23.1-9.29,1.37-4.43,1.9-6.86,5.17-7.07,10.02v2.64c.11,4.85,2.43,8.23,6.96,10.02,2.64,1.06,5.38,1.48,8.12,1.69,2.53.21,4.96.42,7.39,1.05.95.21,2,.42,2.11,1.48.21,1.37-1.16,2.11-2.22,2.43-1.79.74-3.17.84-5.38.53-3.59-.53-7.07-1.48-10.24-3.48-.84-.53-1.79-1.16-2.74-1.58-1.9-.95-2.95-.63-3.69,1.48-.53,1.58-.84,3.27-1.16,4.96-.53,2.95.42,5.28,3.17,6.96,5.38,3.38,11.29,4.64,17.62,4.11,3.38-.21,6.54-1.16,9.18-3.48,3.9-3.38,5.06-7.7,4.33-12.66Z"/><path class="cls-1" d="M474.82,921.05h-15.72c-.84,0-1.58,0-2.43-.11-2-.32-2.53-1.16-2.43-3.38q.21-1.69,2.74-1.69c1.58-.11,3.06,0,4.64,0,3.17,0,6.44,0,9.6-.11,2.22,0,2.74-.53,2.85-2.53v-.63c.11-3.59-1.58-5.38-5.17-5.38h-12.13c-.63,0-1.48.21-1.9-.53-1.05-1.69.21-4.01,2.22-4.22.63-.1,1.37,0,2.11,0h15.41c2.43,0,3.06-.63,3.27-2.95.1-1.9.1-3.8,0-5.7-.11-3.27-.84-3.9-4.22-3.9-8.23-.1-16.57-.1-24.8,0-3.48,0-3.8.32-3.9,3.69-.1,4.85.42,9.71.74,14.56.32,4.33.63,8.55,0,12.77-.42,3.17-.84,6.33-.74,9.6.11,2.64.42,3.06,3.17,3.06h27.01c2.64-.11,3.17-.63,3.17-3.27.11-2,.11-4.01,0-5.91,0-2.74-.74-3.38-3.48-3.38Z"/><path class="cls-1" d="M523.25,905.75c.32-4.01.63-8.12.84-12.13.11-2.64-.95-3.59-3.59-3.59h-5.17c-2.95,0-4.01,1.16-3.69,4.12.53,3.9,1.16,7.81,1.48,11.82.32,3.06,1.06,6.23.95,9.39,0,.42-.11.84-.53.95-.32,0-.63-.21-.74-.42-.53-.63-1.06-1.27-1.48-1.9-4.54-6.44-9.29-12.77-13.51-19.42-2.43-3.59-5.28-5.17-9.6-4.64-2.53.42-3.48.95-3.38,3.59.32,5.28.63,10.66,1.05,15.93.32,3.9.53,7.81,0,11.61-.42,3.06-.74,6.12-.84,9.18-.11,2.43.84,3.27,3.27,3.38,1.27.11,2.53,0,3.9,0,5.28.21,4.75-.53,4.54-4.54,0-.32-.11-1.37-.11-1.69-.53-5.07-1.9-10.02-1.9-15.09-.11-1.48-.11-2.74,0-4.01,0-.53-.21-1.16.42-1.37.53-.21.84.32,1.16.74,1.9,2.64,3.69,5.17,5.59,7.81,3.59,5.17,7.28,10.23,10.87,15.4,1.27,1.79,2.85,2.74,5.06,2.74h2.43c3.17-.11,3.9-.74,3.8-3.9-.1-2.32-.21-4.75-.74-7.07-1.06-5.59-.42-11.29-.11-16.88Z"/><path class="cls-1" d="M561.34,921.05h-15.72c-.84,0-1.69,0-2.43-.11-2-.32-2.64-1.16-2.43-3.38.11-1.69.21-1.69,2.74-1.69,1.48-.11,3.06,0,4.54,0,3.27,0,6.44,0,9.71-.11,2.22,0,2.64-.53,2.85-2.53v-.63c.11-3.59-1.69-5.38-5.17-5.38h-12.13c-.74,0-1.48.21-1.9-.53-1.05-1.69.11-4.01,2.11-4.22.74-.1,1.48,0,2.11,0h15.51c2.43,0,3.06-.63,3.27-2.95.11-1.9.11-3.8,0-5.7-.1-3.27-.84-3.9-4.22-3.9-8.23-.1-16.57-.1-24.8,0-3.48,0-3.9.32-3.9,3.69-.11,4.85.42,9.71.74,14.56.21,4.33.53,8.55,0,12.77-.42,3.17-.84,6.33-.74,9.6.11,2.64.32,3.06,3.17,3.06h27.01c2.53-.11,3.06-.63,3.17-3.27v-5.91c-.11-2.74-.74-3.38-3.48-3.38Z"/><path class="cls-1" d="M600.59,921.05c-1.48-2-1.48-2.11.63-3.27,2.85-1.69,4.75-4.01,5.59-7.17.95-3.48,1.05-6.96.53-10.45-1.16-7.28-4.96-10.24-12.35-10.34h-8.86c-3.27,0-6.65.1-10.02,0-4.22,0-4.64,1.37-4.64,4.64,0,3.48.21,6.96.63,10.45.42,4.96.63,9.92.32,14.98-.21,3.59-.84,7.28-.63,10.97.11,2.22.53,2.64,2.64,2.74,1.58.11,3.06,0,4.64,0,3.8.21,4.64,0,4.22-4.01-.11-.74-.21-1.58-.32-2.11-.42-1.9-.84-3.9-1.16-5.8-.21-1.69.32-2.22,2-2.22,1.16-.11,2.43,0,3.59,0,1.37-.11,2.11.53,2.53,1.69.74,1.9,1.48,3.9,2.22,5.8,2.95,7.39,2.64,6.65,9.81,6.65,1.69,0,3.69.53,4.64-1.27.95-1.79-.53-3.38-1.48-4.85-1.48-2.22-3.06-4.33-4.54-6.44ZM596.79,909.66c-2.74.84-5.8.74-8.76.74-1.58,0-3.27.11-4.85.11-1.48,0-2-.74-2.11-2-.21-1.58.21-3.17.53-4.75.21-.74.74-1.27,1.48-1.27,4.64-.1,8.97-.42,13.61.84,2.11.63,2.43,1.48,2.43,3.48-.11,1.58-1.06,2.32-2.32,2.85Z"/><path class="cls-1" d="M646.28,908.81h-14.88c-4.01-.11-5.17-.53-4.96,5.17,0,2.43.32,2.74,2.74,2.74h9.18c.84,0,1.48.11,1.9.95.63,1.37.21,2.85-1.27,3.38-4.85,2.11-9.39,1.69-13.82-1.16-3.38-2.32-4.43-5.59-4.12-9.39.32-3.38,2.53-5.49,5.59-6.86,3.59-1.58,7.17-1.48,10.97-.84,1.58.21,3.06.84,4.75.74,1.9-.11,2.53-.53,3.06-2.32.42-1.37.63-2.85.74-4.43.21-3.27-.42-4.33-3.59-5.49-4.64-1.69-9.5-1.79-14.35-.84-7.28,1.48-11.92,5.91-14.03,12.98-1.9,6.33-1.58,12.56.84,18.68,2,4.85,5.28,8.44,10.23,10.13,7.7,2.64,14.98,1.48,21.74-2.85,1.69-1.06,2-2.64,2.11-4.43v-13.3c-.11-2.22-.63-2.74-2.85-2.85Z"/><path class="cls-1" d="M685.85,889.93c-1.27-.1-2.64,0-3.9,0q-5.59,0-7.49,5.28c-1.16,3.27-2.32,6.54-3.48,9.81-.11.42-.21,1.16-.74,1.16-.84.11-.84-.74-1.06-1.27-1.16-3.17-2.32-6.33-3.48-9.5-1.37-3.69-4.01-5.49-7.91-5.49-.95,0-1.9-.1-2.74,0-2.53,0-3.38,1.16-2.74,3.59.42,1.48,1.27,2.74,2,4.01,3.27,5.38,6.54,10.76,9.81,16.14,1.06,1.79,1.58,3.59,1.37,5.7-.11,1.79-.32,3.59-.53,5.28-.32,2.22-.21,4.43-.32,6.65-.1,1.48.84,2.22,2.22,2.22,2,.11,4.01.21,6.01,0,2-.1,2.64-.84,2.64-2.85,0-1.27-.11-2.53-.21-3.9-.74-10.66-2.53-8.23,4.01-18.36,2.53-4.11,5.17-8.12,7.7-12.24.63-.95,1.27-2,1.48-3.27.21-2-.42-2.85-2.64-2.95Z"/><path class="cls-1" d="M749.26,899.53c-1.05-6.44-5.06-9.6-11.71-9.6-3.17-.1-6.23,0-9.39,0-3.59,0-7.07-.1-10.66,0-3.27,0-3.8.53-3.8,3.8-.11,4.64.32,9.29.53,14.03.42,6.75.11,13.51-.53,20.26-.42,4.96.21,5.59,5.49,5.59h.63c5.28.32,6.23-1.05,5.17-6.54-.32-1.69-.84-3.48-.95-5.28-.21-2.11,0-2.32,2.22-2.32,3.69-.11,7.28.1,10.87-.21,7.18-.63,11.08-4.01,12.13-10.76.42-2.95.42-6.01,0-8.97ZM738.4,909.76c-2.74.95-5.38.63-7.81.63h-5.7c-1.05.11-1.48-.42-1.69-1.27-.42-1.9.1-3.48.53-5.28.11-.63.84-1.27,1.48-1.27,4.43-.11,8.86-.63,13.19.63,2.22.63,2.74,1.79,2.74,3.27,0,1.69-.53,2.53-2.74,3.27Z"/><path class="cls-1" d="M793.48,905.02c-1.48-7.49-6.96-13.3-14.35-14.88-1.9-.32-3.8-.21-5.8-.21-7.7,0-14.14,4.12-16.99,11.18-2.64,6.75-2.64,13.72,0,20.47,2.85,7.07,8.23,11.29,16.04,11.92,8.44.74,14.98-2.53,18.99-9.92,2.11-3.8,2.85-7.91,2.74-12.03-.11-2.32-.21-4.33-.63-6.54ZM784.08,916.94c-5.06,5.91-14.98,5.7-19.84-.42-3.06-3.9-2.22-9.18,1.9-11.92,2.64-1.69,5.28-2.22,8.44-2.22s5.49.63,7.91,2.22c4.33,2.85,4.96,8.34,1.58,12.35Z"/><path class="cls-1" d="M837.69,900.8c-2.53-7.07-8.44-10.87-16.04-10.97h-7.91c-3.06,0-6.23,0-9.39.1-3.27,0-4.01.63-3.9,4.01.11,4.33.42,8.55.53,12.87.1,1.69.32,3.06.32,5.06.11,2.53-.11,4.64-.32,7.07-.32,3.9-.63,7.7-.53,11.61.11,2.22.74,2.85,2.85,3.06h1.9c5.07,0,10.24.11,15.41,0,7.7-.11,13.4-3.59,16.46-10.55,3.27-7.28,3.27-14.77.63-22.26ZM825.34,919.79c-3.38.95-6.75,1.48-9.71,1.27h-2.64c-2.74-.11-3.69-.84-3.38-3.59l.42-6.75c0-.32.11-3.27.21-4.22.1-.95.21-1.69.32-2.32.11-1.06.74-1.69,1.79-1.69,4.43-.1,8.86-.21,13.19,1.27,3.69,1.27,5.8,4.01,5.59,7.91-.11,3.8-2,7.07-5.8,8.12Z"/><path class="cls-1" d="M880.42,921.05c-.84-3.17-1.79-3.69-4.96-2.64-1.79.63-3.69,1.37-5.59,1.9-3.9,1.16-7.7,1.16-11.5-.21-4.22-1.48-6.44-5.49-5.8-9.81.63-4.54,3.59-6.54,7.7-7.7,4.54-1.27,8.97-.32,13.3,1.27,1.16.42,2.32,1.06,3.59,1.06,1.27.11,2.11-.32,2.53-1.69.63-1.9,1.06-3.8,1.16-5.7.21-3.38-.42-4.22-3.59-5.59-5.28-2.11-10.76-2.53-16.35-1.58-8.02,1.27-13.3,5.91-15.41,13.82-.63,2.43-.74,4.85-.84,7.39.11,2.32.21,4.75.74,7.17,1.58,6.33,5.07,11.18,11.5,13.4,7.39,2.53,14.56,1.69,21.63-1.48,2.11-1.06,2.85-2.74,2.64-4.85,0-1.58-.32-3.17-.74-4.75Z"/><path class="cls-1" d="M925.69,929.81c-.42-1.79-1.06-3.38-1.79-5.06-3.69-9.07-7.49-18.15-11.18-27.22-.74-1.69-1.48-3.27-2.22-4.96-.42-.95-1.16-1.79-2.22-2.22-3.9-1.27-6.96,0-8.55,3.69-4.54,10.97-8.97,21.84-13.4,32.82-.42,1.16-.74,2.11-.84,3.27-.53,2.95.32,3.38,3.27,3.48h4.22c2.64-.11,3.27-.53,4.12-3.06.32-1.16.63-2.43.95-3.69.53-2.11,1.79-3.17,3.9-3.17h5.49c3.17,0,5.07,1.48,5.8,4.54,1.37,5.28,1.48,5.38,7.18,5.38h2.32c2.85-.11,3.59-1.05,2.95-3.8ZM907.12,915.15h-3.06c-1.48-.11-1.9-.53-1.58-2.11.53-2.11,1.16-3.69,2.11-5.59.42-.74,1.48-.63,1.69-.21,1.05,2,1.58,3.9,2.11,6.12.32,1.05-.11,1.69-1.27,1.79Z"/><path class="cls-1" d="M964.52,917.36c-.74-4.54-3.9-7.17-8.12-8.65-1.9-.63-3.69-.95-5.59-1.27-3.06-.32-6.12-.63-9.07-1.27-1.16-.11-2.95-.53-2.95-1.69-.11-1.79,1.58-2,2.74-2.22,3.27-.63,8.12,0,12.03,1.05,1.27.32,2.53.74,3.9,1.06,2.53.53,3.48,0,4.22-2.43.53-1.69.74-3.38.74-5.06,0-3.27-.53-4.01-3.69-5.28-3.59-1.37-7.28-1.79-11.29-1.79-3.17,0-6.23.1-9.29,1.37-4.43,1.9-6.86,5.17-6.96,10.02-.11.84,0,1.79,0,2.64,0,4.85,2.32,8.23,6.86,10.02,2.64,1.06,5.38,1.48,8.12,1.69,2.53.21,4.96.42,7.39,1.05.95.21,2,.42,2.22,1.48.11,1.37-1.27,2.11-2.22,2.43-1.79.74-3.27.84-5.49.53-3.59-.53-7.07-1.48-10.24-3.48-.84-.53-1.69-1.16-2.64-1.58-2-.95-3.06-.63-3.8,1.48-.53,1.58-.84,3.27-1.16,4.96-.53,2.95.53,5.28,3.17,6.96,5.49,3.38,11.29,4.64,17.62,4.11,3.38-.21,6.54-1.16,9.18-3.48,3.9-3.38,5.07-7.7,4.33-12.66Z"/><path class="cls-1" d="M1001.02,889.93c-4.75-.1-9.5,0-14.24,0s-9.71-.1-14.56,0c-2.53,0-3.38.74-3.48,3.38-.11,2.11,0,4.33.53,6.54.42,2,1.06,2.53,3.27,2.64h7.28c1.48,0,2.22.74,2.22,2.22.11,1.48.21,2.95.32,4.43.21,3.48.32,6.65-.11,10.45-.32,3.48-1.37,6.96-1.37,10.55,0,2.64.74,3.38,3.48,3.48h5.17c2.64,0,3.38-.84,3.27-3.48-.11-1.9-.42-3.69-.84-5.59-1.05-5.28-1.05-10.34-.84-15.93.11-1.27.11-2.43.32-3.59.32-1.69,1.16-2.43,2.74-2.53h6.12c2.85-.1,3.8-.84,4.01-3.69.21-1.79.21-3.59.21-5.38,0-3.06-.42-3.48-3.48-3.48Z"/></svg>