<?xml version="1.0" encoding="UTF-8"?><svg id="Layer_1" xmlns="http://www.w3.org/2000/svg" viewBox="0 0 190.72 190.72"><defs><style>.cls-1{fill:#fff;stroke-width:0px;}</style></defs><path class="cls-1" d="M95.36,0C42.78,0,0,42.78,0,95.36c0,0,.05,3.33.1,4.44.07,1.52.44,6.08.44,6.08l18.23-15.25h0s.01,0,.01,0c0-42.22,34.35-71.83,76.57-71.83s76.57,34.35,76.57,76.57-34.35,76.57-76.57,76.57c-18.83,0-36.94-6.98-50.88-19.38l9.14-8.64.04.05c2.99-2.81,5.98-5.61,8.97-8.42.27.22.5.41.73.6,2.91,2.5,6.18,4.39,9.8,5.66,8.35,2.92,16.69,2.59,24.98-.19,7.49-2.51,13.93-6.78,19.68-12.12.87-.81,1.67-1.7,2.55-2.59-19.37-20.63-38.73-41.26-58.2-61.99-1.96,1.8-3.93,3.46-5.74,5.28-6.28,6.3-10.9,13.59-12.79,22.38-2.27,10.51-.43,20.23,5.98,28.98.14.19.27.4.41.62-10.59,9.94-21.13,19.84-31.67,29.73,1.99,2.66,4.16,5.2,6.46,7.63,18.05,19.83,43.69,31.2,70.52,31.2,52.58,0,95.36-42.78,95.36-95.36S147.94,0,95.36,0h0Z"/><path class="cls-1" d="M115.37,110.72c3.25,3.46,6.45,6.88,9.71,10.35.19-.16.31-.25.42-.35,7.35-6.9,14.72-13.8,22.05-20.72,2.92-2.76,3.06-7.28.38-10.09-2.77-2.91-7.17-3.05-10.15-.27-7.37,6.89-14.72,13.8-22.07,20.7-.12.11-.21.25-.34.39h0Z"/><path class="cls-1" d="M113.75,64.11c-7.37,6.89-14.71,13.8-22.07,20.7-.12.11-.22.25-.34.39,3.25,3.46,6.45,6.88,9.71,10.35.19-.16.31-.25.42-.35,7.35-6.9,14.72-13.8,22.05-20.72,2.92-2.76,3.06-7.28.38-10.09-2.77-2.91-7.17-3.05-10.15-.27h0Z"/><path class="cls-1" d="M90.57,39.63c-7.37,6.89-14.71,13.8-22.07,20.7-.12.11-.22.25-.34.39,3.25,3.46,6.45,6.88,9.71,10.35.19-.16.31-.25.42-.35,7.35-6.9,14.72-13.8,22.05-20.72,2.93-2.76,3.06-7.28.38-10.09-2.77-2.91-7.17-3.05-10.15-.27h0Z"/></svg>