<?xml version="1.0" encoding="UTF-8"?><svg id="Layer_1" xmlns="http://www.w3.org/2000/svg" xmlns:xlink="http://www.w3.org/1999/xlink" viewBox="0 0 646 220.17"><defs><style>.cls-1{clip-path:url(#clippath);}.cls-2{fill:none;}.cls-2,.cls-3{stroke-width:0px;}.cls-4{opacity:.2;}.cls-3{fill:#fff;}</style><clipPath id="clippath"><rect class="cls-2" x="-2704.19" y="-251.63" width="2001.75" height="827.64"/></clipPath></defs><g class="cls-1"><image class="cls-4" width="15215" height="8421" transform="translate(-2809.73 -857.07) scale(.25)" xlink:href="../../../Tri State Generation and Transmission Association Dropbox/Communications/PROJECTS/Events/_Annual Meeting/2024/Assets/White BG Chart_XL.png"/></g><path class="cls-3" d="M71.52,7.4c.21,1.13-.38,2.19-.97,3.16-2.51,4.12-4.93,8.3-7.57,12.33-2.2,3.35-3.93,6.97-6.15,10.29-.88,1.32-1.71,2.65-2.48,4.03-.51.92-.9,1.9-1.42,2.82-.23.42-.86.69-.94,1.1-.3,1.59-1.49,2.7-2.1,4.13-.6,1.4-1.55,2.64-2.17,4.03-.34.76-.67,1.43-1.3,1.98-.24.21-.59.51-.14.9.06.05.02.27-.03.37-.58,1.06-1.18,2.11-1.77,3.16-.09.15-.32.32-.29.41.34,1.04-.57,1.54-.96,2.26-.57,1.06-1.25,2.07-1.8,3.14-.19.37-.09.88-.15,1.33-.12.85-.29,1.01-1.23,1.16.55,1.29-.29,2.24-.89,3.17-.96,1.49-1.28,3.14-1.55,4.82-.1.6-.08,1.23-.12,1.96.33-.1.62-.16.9-.26,6.37-2.31,12.73-4.63,19.1-6.93.98-.35,1.96-.72,2.96-.96.67-.16,1.42-.89,2.08.07.03.04.18.02.26-.02,1.28-.62,2.56.27,3.84,0,.07-.02.17.06.36.14-.03.26-.15.6-.06.67.34.25.74.49.55.95-.14.34-.49.59-.82.95.31.91,1.05.66,1.79.5.06.66.11,1.29.19,2.1.04-.03-.06.07-.18.12-1.4.52-2.54,1.41-3.75,2.27-1.47,1.05-3.34,1.55-5.04,2.27-1.02.43-2.19.59-2.77,1.75-.11.22-.52.33-.82.42-3.85,1.17-7.58,2.64-11.26,4.23-2.86,1.23-5.45,2.96-8.08,4.62-1.48.93-3.07,1.68-4.62,2.51-.08.04-.18.12-.25.1-1.3-.32-2.42.47-3.63.61-.63.08-1.28-.11-2.04-.19,0-.02-.03-.18-.06-.35-.75-.1-1.23-.42-1.44-.97-.53-.17-1.02-.32-1.51-.5-1.64-.59-1.79-.69-1.29-2.29.58-1.85,1.38-3.63,2.1-5.43,1.44-3.61,3.03-7.16,4.31-10.82,2.44-7,5.34-13.81,8.61-20.45,1.55-3.16,3.28-6.23,4.93-9.34,1.14-2.14,2.26-4.29,3.46-6.4,1.06-1.88,2.2-3.72,3.31-5.57,2.14-3.56,4.29-7.11,6.45-10.67.17-.28.21-.68.76-.62.15.02.47-.5.54-.81.29-1.36,1.07-2.36,2.02-3.35.89-.93,1.57-2.06,2.33-3.11,1.03-1.43,2.01-2.89,3.07-4.29.52-.67,1.15-1.27,1.8-1.82.36-.3.86-.43,1.3-.63.6-.28,1.2-.55,2.01-.93.35.04.97.11,1.65.18-.07.3-.28.76-.17.87.45.43.42,1,.6,1.51.02.05.24.03.43.05-.1.51-.2.98-.31,1.5.29.12.56.24.9.38-.33.41-.57.74-.45,1.39ZM47.35,80.09c.04.08.08.16.13.24.16-.1.33-.2.49-.3-.02-.04-.05-.08-.07-.12-.18.06-.37.12-.55.18ZM54.72,34.86c-.07.04-.17.07-.2.13-.02.06.03.15.05.23.07-.04.17-.07.2-.14.03-.06-.03-.15-.05-.22ZM55.38,77.33c.05.05.1.09.16.14.15-.11.3-.23.62-.46-.33,0-.47-.04-.55,0-.1.07-.15.21-.23.32ZM58.25,28.64c-.07-.05-.14-.1-.21-.15-.08.15-.16.29-.25.44.05.03.1.06.15.09.1-.13.2-.26.31-.38Z"/><path class="cls-3" d="M127.41,61.56c-.15,1.02.69,1.13,1.58,1.24-.98,1.9-2.64,2.8-4.17,3.93.61.4,1.14.74,1.65,1.07-3.02,2.76-6.5,4.39-10.12,5.8-4.28,1.67-8.5,3.48-12.77,5.17-2.03.81-4.12,1.47-6.17,2.23-.59.22-1.13.55-1.69.84-.18.09-.36.31-.52.3-1.09-.1-1.93.52-2.83.93-2.33,1.06-4.81,1.19-7.31,1.27-.84.03-1.68.11-2.56.17-.59-.35-1.26-.76-1.93-1.16-.14-.08-.33-.12-.41-.23-1.2-1.6-2.24-3.31-1.99-5.4.21-1.8,1.43-2.98,3-3.67,2.19-.96,4.45-1.77,6.7-2.63,4.84-1.84,9.65-3.76,14.53-5.48,3.52-1.24,7.13-2.21,10.7-3.31.71-.22,1.4-.53,2.13-.7,2.18-.5,4.35-1.05,6.56-1.39,1-.15,2.06.03,3.06.54.71.36,1.63.31,2.56.47h0ZM141.44,34.44c-.39.34-.77.69-1.23,1.09.27.26.49.46.74.69-.48.35-.96.71-1.6,1.17.55.24.87.37,1.18.5-.04.15-.04.3-.1.34-.4.26-.8.54-1.23.74-.38.18-.73.2-.76.82-.01.31-.62.66-1.02.87-.84.45-1.92.63-2.56,1.27-1.32,1.32-2.99,1.72-4.64,2.2-4.52,1.3-9.08,2.47-13.57,3.87-2.7.84-5.3,1.99-7.93,3.03-1.79.71-3.53,1.57-5.34,2.18-2.63.88-5.31,1.6-7.97,2.38-.3.09-.77.28-.91.15-1.15-1.02-2.86-.34-4.01-1.51-1.08-1.09-2.06-2.1-2.16-3.73-.04-.67-.44-1.35-.39-2,.09-1.25.81-2.18,1.92-2.77.85-.45,1.71-.9,2.59-1.27,9.05-3.87,18.27-7.24,27.9-9.41,3.44-.78,6.87-1.58,10.32-2.3.64-.13,1.34.05,2.01.11.32.03.66.2.94.13,2.22-.62,4.45-.3,6.74-.05-.64.53-1.64.2-1.97,1.41.57.03,1.07.1,1.56.07.45-.03.9-.15,1.5.02ZM148.72,7.13v1.98c-1.44,1.81-3.7,2.31-5.8,2.96-4.48,1.39-9.05,2.51-13.52,3.91-4.58,1.43-9.12,3.01-13.64,4.63-3.11,1.11-6.16,2.42-9.25,3.61-.59.23-1.23.33-2,.52-.06-.26-.11-.48-.16-.73-1.62-.24-3.24-.48-5.08-.76-.36-.43-.86-1.14-1.46-1.73-1.99-1.96-.83-4.13.67-5.38.97-.81,2.15-1.4,3.28-1.99,7.16-3.66,14.68-6.42,22.46-8.43,3.61-.93,7.31-1.54,11-2.15,1.23-.2,2.54.08,3.81.06,1.27-.02,2.55-.13,3.82-.2.02.05.04.1.07.15-.94.28-1.89.56-2.83.84.02.09.04.19.06.28,1.5-.31,3-.63,4.5-.94.05.14.09.27.14.4l-1.99.75c.02.11.04.21.06.32.92-.1,1.85-.34,2.75-.26.8.07,1.58.48,2.49.78-.02.49-.4,1.33.66,1.36Z"/><path class="cls-3" d="M187.81,37.13c-.35.76-.61,1.57-.98,2.54h5.55c-.34.39-.53.6-.71.81.91.86,2.21,1.15,3.89.87.63.51.46.97-.33,1.49h1.71c-.49.37-.76.57-1.03.77.1.17.19.32.27.45-.09.09-.15.18-.22.21-1.73.61-3.4,1.3-4.95,2.31-1,.65-2.24.93-3.21,1.6-1.26.88-2.77,1.07-4.07,1.74-1.32.67-2.52,1.44-3.21,3.01-1.79,4.04-3.85,7.96-5.79,11.93-1.33,2.71-2.77,5.37-3.91,8.16-1.13,2.76-2.69,5.31-3.84,8.04-.49,1.16-1.41,1.94-1.91,3.03-.5,1.11-1.01,2.22-1.51,3.33-.3.66-.63,1.31-.85,1.99-.23.7-.67,1.28-1.32,1.44-.94.23-1.44.8-1.78,1.75-.29-.23-.49-.39-.69-.55.01,0,.02,0,.03,0-.05-.64-.09-1.29-.14-1.93-.85-.02-1.41.3-1.67,1.32-.26-.45-.47-.63-.46-.81.07-1.07-.38-2.09-.92-2.83-.98-1.34-.28-2.46.1-3.59,1.81-5.45,4.23-10.64,6.95-15.7,2.38-4.41,4.71-8.85,7.06-13.27.12-.23.21-.48.38-.87-.38.03-.64.01-.87.08-5.63,1.69-11.17,3.6-16.55,5.98-1.15.51-2.31,1.05-3.36,1.73-.57.37-1.05,1-1.36,1.62-2.62,5.3-5.19,10.62-7.78,15.94-.95,1.95-1.88,3.9-2.85,5.84-.51,1.02-1.25,1.83-2.34,2.26-.17-.2-.31-.36-.44-.52-.55.48-1.07.96-1.61,1.41-.35.29-.68.41-1.21.19-.49-.2-.74-.45-1.03-.86-.22-.3-.82-.2-.99-.87-.16-.64-.86-1.13-1.1-1.77-.84-2.22-.31-4.32.72-6.36,1.87-3.7,3.75-7.4,5.58-11.12.63-1.28,1.13-2.63,1.72-3.94.1-.23.35-.39.66-.71h-.85c-.34-.64-.75-1.18-.91-1.79-.14-.53-.15-1.01-.69-1.35-.12-.07-.01-.56.03-.86.07-.53.28-1.06.24-1.58-.09-1.48.42-2.53,1.8-3.09,1.21-.49,2.47-.84,3.71-1.25.26-.08.52-.14.79-.18,1.51-.2,2.47-1,3.15-2.4.68-1.41,1.5-2.81,2.51-4.01,2.74-3.25,4.98-6.85,7.3-10.39,1.82-2.77,4.17-5.09,6.14-7.72.98-1.3,1.99-2.57,3.08-3.77,1.08-1.2,2.29-2.29,3.43-3.44,2.09-2.11,4.1-4.31,6.29-6.32,2.48-2.29,5.03-4.52,7.88-6.36.8-.52,1.72-.94,2.13-1.95.13-.32.61-.52.95-.74,1.29-.83,2.6-1.62,3.87-2.47.45-.3.78-.78,1.24-1.04.49-.28,1.07-.39,1.58-.81-.36-.02-.71-.04-1.06-.06.02-.06.02-.18.07-.2,1.69-.77,3.43-1.35,5.31-1.48,1.44-.1,2.41.82,3.5,1.49.07.04.15.14.16.21.13,1.16.93,2.02,1.37,3.03.23.53.22,1.23.14,1.83-.69,5.13-2.92,9.73-5.1,14.33-1.81,3.82-3.87,7.52-5.42,11.47-.64,1.63-1.53,3.17-2.26,4.77ZM189.07,13.89c.62-1.35,1.21-2.7,1.82-4.06-.08-.1-.17-.19-.25-.29-.39.18-.8.32-1.16.55-1.07.67-2.17,1.31-3.16,2.09-2.27,1.77-4.62,3.47-6.7,5.45-2.54,2.42-4.92,5.02-7.2,7.68-2.33,2.72-4.47,5.61-6.66,8.46-.63.82-1.17,1.72-1.69,2.61-1.21,2.05-2.4,4.12-3.58,6.19-.82,1.43-1.61,2.88-2.57,4.6.9-.23,1.55-.36,2.17-.57,4.99-1.72,10.06-3.18,15.2-4.36.65-.15,1.06-.41,1.28-1.02.12-.34.3-.66.45-.99,4.03-8.77,8.05-17.55,12.07-26.32ZM159.55,90.83c-.19.4-.39.8-.58,1.2.6-.16.73-.6.58-1.2Z"/><path class="cls-3" d="M259.27,31.15c-1.85,2.55-3.77,5.03-5.7,7.5-.53.68-1.15,1.16-2,1.5-.96.38-1.68,1.49-2.51,2.28-1.35,1.06-2.83,1.97-3.6,3.72-.04.09-.09.2-.15.23-1.76.79-2.75,2.7-4.41,3.7-1.59.97-2.95,2.41-4.41,3.65-.07.06-.14.14-.22.16-2.34.83-3.92,2.86-5.78,4.46-1.49,1.29-3.06,2.45-4.61,3.63-1.55,1.18-3.13,2.29-4.69,3.45-1.63,1.22-3.24,2.48-4.88,3.7-.73.54-1.56.93-2.23,1.53-1.91,1.73-4.3,2.63-6.14,4.44-1.25,1.23-2.78,1.93-4.08,3.06-1.35,1.17-2.8,2.21-4.2,3.31-1.36,1.08-2.73,2.14-4.06,3.27-.79.67-1.46,1.52-2.25,2.19-.89.75-1.87,1.38-2.8,2.08-.49.36-.9.45-1.12-.37-.96.5-1.82.78-2.51-.47-.16-.29-.75-.29-1.26-.46-.34-1.3.08-2.71-.04-4.09-.13-1.54.58-2.51,1.33-3.61.9-1.32,1.62-2.79,2.36-4.24,3.13-6.12,6.36-12.2,9.33-18.42,2.54-5.31,4.88-10.74,7.13-16.22,3.21-7.84,6.38-15.7,10.06-23.28.1-.21.16-.43.37-.99-1.02.52-1.79.91-2.65,1.34-.14-.15-.35-.36-.59-.6-.21.19-.37.35-.55.48-.43.3-.68.41-1.16-.2-.59-.77-1.55-1.19-2.32-1.74-.18-.6-.57-1.24-.51-1.83.09-.94.33-1.95.76-2.76.64-1.21,1.43-2.34,2.3-3.37.55-.65,1.31-1.12,2.04-1.53,1.18-.66,2.41-1.19,3.61-1.78.31-.15.67-.23.64-.78,0-.15.25-.4.43-.46,1.68-.56,3.36-1.09,5.05-1.63.06-.02.15.07.34.17-.2.16-.35.29-.51.42.05.03.11.11.17.1,2.84-.37,5.67-.74,8.51-1.12.21-.03.55-.01.62-.14.51-1.1,1.42-.68,2.19-.75.17-.02.36.09.52.05,2.1-.52,4.06.54,6.1.7,1.08.09,2.15.41,3.24.52.34.03.7-.28.84-.34,1.88.71,3.59,1.45,5.36,1.98,2.82.86,5.25,2.46,7.41,4.58,1.83,1.79,3.07,4.09,4.08,6.53.25.61.32,1.32.43,1.99.9,5.37-.2,10.21-3.28,14.45ZM252.42,17.54c-2.32-2.48-5.28-3.53-8.31-4.15-4.9-1.01-9.86-1.2-14.84-.52-1.04.14-1.88.46-2.17,1.72-.08.32-.26.62-.41.92-2.15,4.54-4.38,9.04-6.43,13.64-2.3,5.17-4.47,10.42-6.63,15.66-1.96,4.75-3.83,9.56-5.77,14.33-.68,1.69-1.42,3.35-2.13,5.03.07.08.13.15.2.23.33-.22.66-.43.97-.67,4.35-3.31,8.68-6.67,13.05-9.95,7.99-5.98,16.06-11.81,23.58-18.52,2.75-2.45,5.45-4.96,7.73-7.96.9-1.19,1.81-2.45,2.38-3.85.96-2.39.61-3.93-1.24-5.91ZM220.06,3.36l.05.21.9-.3c-.01-.06-.03-.12-.04-.18-.3.09-.6.17-.9.26ZM249.06,42.44s0,0,0,0c0,0,0,0,.02-.01l-.02.02ZM253.16,38.24s-.06-.07-.09-.1c-.27.38-.53.75-.77,1.09.27-.31.56-.65.86-1Z"/><path class="cls-3" d="M270.25,40.22c.74.52,1.29,1.18,1.1,2.37-.36,2.25-1.39,4.11-2.53,6.01-1.23,2.04-2.29,4.2-3.24,6.39-1.93,4.42-3.71,8.91-5.62,13.34-.83,1.94-1.83,3.8-2.75,5.7-1.32,2.72-2.61,5.45-3.95,8.16-.26.54-.48,1.4-1.2,1.26-.85-.16-.39-1.05-.49-1.62,0-.04-.04-.08-.12-.21-.24.05-.51.11-.62.14-.12-.45-.21-.91-.36-1.34-.15-.42-.37-.81-.59-1.29-.54.23-1,.61-1.69.16-.62-.4-1.8.15-2.3.8-.33.43-.67.84-1.09,1.36-.39-.66-.7-1.24-.26-1.91.16-.24.44-.57.66-.56,1.16.06,1.81-.85,2.89-1.28-1.08-.61-1.89-.07-2.98.18.59-1.34,1.11-2.51,1.62-3.69,2.48-5.71,4.98-11.41,7.44-17.13,2.09-4.85,4.15-9.73,6.99-14.2.84-1.32,1.88-2.54,2.98-3.66,1.01-1.04,2.32-1.28,3.74-.71.39.16.86.11,1.4.17.05.61.36,1.1.97,1.53h0ZM286.44,7.64c.81.08,1.33.89,1.14,1.7-.11.47-.16.96-.23,1.45-.02.13.02.29-.03.4-.57,1.29-.99,2.69-1.76,3.86-2.5,3.78-4.73,7.68-6.18,11.99-.44,1.32-.8,2.67-1.31,3.97-.23.59-.76,1.06-1.18,1.63-.65-.34-1.23-.65-1.89-1,.42-1.02-.95-1.18-.98-2.04-1.09-.38-1.52-1.54-2.44-2.11-.16-.1-.43-.03-.64-.04-.52-1.44-.22-2.86.23-4.22,1.82-5.64,4.52-10.81,8.36-15.35.58-.68,1.27-1.28,1.97-1.84.75-.6,1.71-.52,2.44-.16.63.31,1.54.71,1.23,1.78.48,0,.88-.03,1.27,0h0Z"/><path class="cls-3" d="M335.71,9.71c.76.08,1.04.54.63,1.18-.38.6-.82,1.22-1.38,1.65-1.41,1.09-2.2,2.62-3,4.13-1.78,3.35-3.53,6.71-5.21,10.11-1.38,2.79-2.69,5.62-3.94,8.47-2.05,4.67-4.09,9.34-6,14.07-1.96,4.85-3.75,9.77-5.59,14.67-.7,1.86-1.31,3.75-2,5.61-.22.58-.61,1.1-.86,1.68-.34.78-.68,1.57-.91,2.38-1.3,4.51-2.58,9.02-3.86,13.53-.47,1.65-.89,3.31-1.41,4.94-.22.67-.65,1.27-.97,1.91-.36.71-.71,1.42-1.12,2.26-.27-.37-.47-.64-.83-1.14-.09.54-.14.84-.2,1.21-.17-.07-.39-.15-.6-.24-.89,1.29-1.26,1.48-2.12,1.12.22-.33.44-.66.8-1.2-.66-.14-1.15-.28-1.65-.36-1.15-.18-1.77-.75-2.03-1.91-.12-.52-.17-1.06-.32-1.58-.08-.27-.24-.61-.46-.72-.76-.36-.71-1.03-.37-1.46.42-.55.37-1.07.37-1.64.01-2.98-.18-5.98.08-8.93.36-4.13.89-8.27,1.64-12.35,1.23-6.7,2.61-13.38,4.07-20.03.94-4.27,1.83-8.56,3.39-12.67.17-.45.25-.95.16-1.55-.19.24-.42.46-.58.73-2.62,4.48-5.23,8.97-7.84,13.45-.81,1.4-1.56,2.84-2.44,4.2-.92,1.43-1.93,2.8-2.97,4.15-.2.26-.71.27-1.22.45.04-.47.08-.8.11-1.15-.13.02-.26,0-.28.04-.63,1.27-1.01,2.67-2.15,3.66-.15.13.15.61-.06,1.04-.9,1.86-1.68,3.77-2.49,5.67-.14.32-.13.71-.26,1.04-.24.63-.39,1.35-.81,1.83-1.05,1.19-1.45,2.68-2.09,4.05-.22.48-.43,1,0,1.53.07.08-.14.37-.21.57,0,0,0,0,0,0-.55,1.6-1.09,3.2-1.63,4.81-.01.04.11.12.22.22.7-.06.63-1.02,1.37-1.22-.5,1.9-1.17,3.66-2.12,5.29-.9,1.55-1.99,3-2.97,4.51-1.1,1.7-2.18,3.41-3.27,5.12-.48.76-.95,1.52-1.42,2.28-.06-.08-.11-.15-.16-.23-.55.2-1.14.33-1.64.62-.35.2-.6.33-.92.08h0c-.26.23-.52.45-.78.68-.05-.03-.11-.07-.16-.1.18-.42.37-.84.66-1.5-.73.09-1.27.16-1.94.25.06-.51.12-.98.19-1.55-.29-.02-.61-.04-1.07-.06.18-.58.32-1.09.49-1.59.17-.51.01-1.01-.42-1.15-.88-.28-.78-.89-.55-1.45,2.95-7.23,5.92-14.44,8.91-21.66.81-1.96,1.64-3.91,2.59-5.81,1.1-2.2,2.35-4.32,3.49-6.49.93-1.75,1.73-3.58,2.7-5.31,2.51-4.44,4.91-8.95,7.68-13.23,2-3.09,3.85-6.3,6.33-9.08,1.07-1.2,1.87-2.65,2.79-3.98,1.59-2.3,3.1-4.65,5.17-6.59,2.17-2.04,4.17-4.27,6.4-6.23,1.37-1.21,3-2.15,4.59-3.08.66-.39,1.54-.4,2.3-.63.32-.1.61-.34,1.1-.62.39.11,1.03.3,1.74.5v2.88c.08.02.15.04.22.06.15-.32.31-.64.46-.97.08.02.21.03.22.07.11.42.21.84.3,1.26.03.17-.05.45.04.51,1.29.94.61,2.08.25,3.09-.74,2.08-1.61,4.12-2.41,6.18-.72,1.85-1.39,3.72-2.15,5.56-.69,1.67-1.5,3.28-2.17,4.95-.88,2.17-1.75,4.36-2.52,6.57-.99,2.85-1.88,5.74-2.81,8.61-.09.29-.12.59,0,.94.77-1.77,1.53-3.54,2.31-5.31,2.62-5.95,5.47-11.79,8.56-17.52,2.19-4.05,4.25-8.17,6.41-12.24.59-1.11,1.34-2.15,2.08-3.17.56-.77,1.29-1.32,2.28-1.56.68-.16,1.3-.58,1.94-.88,0,0,0,0,0,.01,1.19-.48,1.33-.35,1.52,1.38.96-.22,1.93-.35,2.5.95-.33.06-.64.12-.94.18-.05.38-.11.76-.16,1.16.49.03.94.03,1.4.08h0ZM266.28,94.53c-.03.33-.07.66-.1.99.35-.24.53-.53.1-.99ZM274.15,87.89c.08.06.16.12.24.18-.28.42-.57.84-.85,1.26-.09-.06-.18-.12-.28-.18.29-.42.59-.84.88-1.26ZM277.96,75.09c.28-.37.51-.68.75-.99-.42.15-.97.18-.75.99ZM285.16,61.31c-.08.25-.15.5-.23.76-.05-.01-.1-.03-.15-.04.06-.24.12-.49.18-.73,0-.03.06-.07.1-.07.03,0,.06.04.1.08ZM287.04,57.28c.09,1.04-.67,1.18-1.16,1.44.34-.42.68-.84,1.16-1.44ZM298.26,94.7c-.07-.05-.13-.09-.2-.14-.14.17-.28.35-.42.52.08.06.17.12.25.19.12-.19.24-.38.36-.57ZM306.08,49.88c-.42.44-.57.96-.44,1.55.16-.57.31-1.06.44-1.55ZM331.39,5.98c-.25.39-.46.78-.12,1.25.93-.81.94-.89.12-1.25ZM334.44,8.46c-.05-.2-.1-.41-.19-.83-.49.49-.85.86-1.21,1.22l.18.22c.41-.2.81-.4,1.22-.61Z"/><path class="cls-3" d="M377.03,48.33c0,.09,0,.17,0,.26.45.12.89.23,1.46.38-1.65.83-3.1,1.86-4.89,2.24-1.76.37-3.5.89-5.24,1.35-1.28.34-2.14,1.02-2.75,2.33-1.53,3.31-3.3,6.51-4.95,9.76-.38.76-.61,1.6-1.01,2.35-.29.55-.77,1-1.09,1.54-1.3,2.22-2.58,4.45-3.86,6.68-.15.26-.17.59-.3.87-.36.82-.72,1.63-1.11,2.43-.06.14-.3.31-.4.28-.67-.22-.78.51-.77.68.07,1.6-1.29,2.3-2.13,3.33l1.04-1.88c-.08-.05-.16-.1-.24-.14-.14.15-.28.31-.42.46-1.46,1.54-2.9,3.09-4.39,4.6-.57.58-1.23.97-2.15.98-.83,0-1.71.17-2.34.89-.16.18-.45.23-.8.4.08-.34.12-.53.15-.67-1.11.12-2.23.24-3.45.38.14-.26.23-.42.38-.69h-1.73c-.32-.25-.55-.5-.84-.62-.36-.16-.77-.25-1.16-.33-2.92-.57-4.66-2.62-6.04-5-1.61-2.78-2.47-5.8-2.51-9.04-.04-2.93-.24-5.87.37-8.78-.14,3.19-.37,6.39.45,9.57.02-.27.09-.55.05-.82-.37-2.25-.14-4.51-.06-6.76.02-.39.39-.77.69-1.31-.06-.11-.33-.42-.42-.78-.09-.38-.03-.81.03-1.21.12-.89.29-1.78.43-2.67.04-.22.1-.46.06-.67-.45-2.27.39-4.36,1-6.44.84-2.9,1.9-5.73,2.96-8.56.42-1.13,1.07-2.17,1.62-3.25,1.15-2.25,2.22-4.54,3.49-6.72.83-1.42,1.98-2.65,2.93-4.01.76-1.09,1.76-2.04,1.97-3.49.07-.48.59-.89.9-1.32.13.06.25.12.38.17.03-.1.06-.2.09-.3-.11.02-.22.03-.32.05.65-.77,1.61-1.27,1.96-2.32.08-.23.34-.43.57-.57,2.4-1.42,3.96-3.79,6.15-5.44.35-.26.75-.46,1.11-.71.21-.15.39-.33.57-.52.25-.25.46-.56.74-.77,1.97-1.51,3.93-3.03,5.93-4.49,2.15-1.57,4.21-3.28,6.67-4.36,1.44-.63,2.91-1.23,4.41-1.71,1.46-.46,2.99-.68,4.46-1.11.75-.22,1.45-.65,2.4-1.09.54.4,1.45.79,1.91,1.49.49.74,1.72.48,1.87,1.72-.49-.17-.87-.3-1.29-.45-.25.61.02,1.02.38,1.37.95.93,1.27,1.96.94,3.31-.36,1.48-.38,3.04-.71,4.52-.33,1.49-.86,2.93-1.33,4.39-.26.81-.6,1.6-.85,2.42-.87,2.8-1.9,5.54-3.54,8.15-.08-.26-.14-.44-.2-.63-.88-.02-1.25.6-1.57,1.26-.31.64-.62,1.11-1.37.48-.09-.07-.3-.02-.45,0-1.29.18-2.67-.75-2.89-2-.17-.94-.24-1.86.18-2.79.79-1.77,1.47-3.59,2.26-5.36,1.37-3.09,2.79-6.16,4.19-9.24.09-.2.17-.4.33-.78-.43.06-.75.01-.98.14-2.8,1.55-5.88,2.59-8.47,4.54-1.51,1.14-3.03,2.29-4.46,3.52-4.77,4.1-9.24,8.53-13,13.56-4.45,5.95-8.18,12.35-10.54,19.46-.1.3-.26.58-.39.87,0-.35-.1-.73.01-1.04.74-1.98,1.54-3.94,2.3-5.92.11-.29.17-.6.25-.9-.84-.14-.22-.72-.32-1.08-.05-.18-.1-.36-.23-.86-.55,1.09-.96,1.87-1.34,2.68-.39.81-.69,1.67-1.38,2.29.12-.54.34-1.03.54-1.52.21-.5.49-.98.4-1.78-1.41,1.76-1.77,3.76-2.82,5.44.48-2,1.32-3.9,1.66-5.95-1.9,3.7-3.01,7.72-4.76,11.49-.27-1.97.96-3.69.97-5.61-.32.42-.57.85-.71,1.31-.72,2.37-1.4,4.75-2.11,7.13-.14.47-.28.95-.5,1.39-.51,1-.65,2.04-.54,3.14.02.22.15.49.07.65-.8,1.39-.65,2.81-.23,4.27.08.28.03.66-.1.92-.38.73.25,1.44-.02,2.16-.01.03.39.21.72.39.12-1.67.17-3.2.34-4.71.26-2.38.59-4.74.93-7.11.06-.4.33-.77.51-1.15-.43,3.56-1.41,7.04-.16,10.64.19-1.48.38-2.96.59-4.64.83.86-.23,1.9.64,2.52.56-1.31.52-2.03-.13-3.05-.07-.11-.17-.24-.16-.36.07-1.06.16-2.12.25-3.17.17.67.09,1.37.3,1.97.27.76.52,1.49.46,2.3,0,.09,0,.22.06.26.64.47.36,1.14.39,1.74.02.43,0,.85,0,1.59.25-.41.35-.5.37-.62.11-.57.24-1.15.31-1.73.49-4.05,1.49-7.98,2.77-11.85.15-.45.48-.85.72-1.27-.74,2.7-1.52,5.39-2.2,8.1-.84,3.34-1.2,6.75-1.18,10.2,0,1.17-.24,2.36-.11,3.51.24,2.19.5,4.42,1.83,6.3.73,1.03,1.58,1.24,2.71.66,1.85-.95,3.29-2.43,4.45-4.09,1.63-2.33,3.13-4.75,4.53-7.23,2.31-4.09,4.5-8.25,6.73-12.39.3-.55.52-1.13.84-1.85-.59-.24-1.08-.62-1.55-.6-1.61.06-2.59-.97-3.27-2.07-1.76-2.87-1.8-5.79,2.02-7.2,1.41-.52,3.01-.53,4.52-.76,3.7-.57,7.41-1.11,11.11-1.7,1.74-.28,3.46-.65,5.2-.93.51-.08,1.04-.3,1.53.33.2.25.95.14,1.43.07,1.91-.24,3.36.61,4.77,1.87-.33.21-.58.37-.94.59.57.4,1.06.74,1.74,1.21-.5.29-.86.5-1.3.76.03.16.07.36.12.65-1.01.41-2.03.82-3.05,1.23ZM326.12,61.68c-.05,0-.11-.02-.16-.03.1-.53.2-1.06.31-1.59l.2.07-.35,1.55ZM327.24,65.6c.03-.12.07-.23.1-.34-.08,0-.18-.04-.23,0-.06.04-.1.14-.1.22,0,.04.12.07.23.13ZM327.36,68.42c-.05-.06-.1-.12-.14-.17-.05.06-.15.14-.14.17.03.09.12.15.18.23.03-.07.07-.15.1-.22ZM327.15,62.67c.15-.03.3-.03.31-.07.73-3.28,1.45-6.56,2.16-9.84.03-.14-.05-.32-.08-.47-.08-.02-.16-.04-.25-.06-.16.33-.39.65-.47,1-.72,3.11-1.86,6.16-1.67,9.45h0ZM332.37,56.05h.18c.01.22.02.44.04.66-.07.01-.14.02-.21.03v-.7ZM332.7,60.14c.21.89,1.09,1.66.36,2.59-.07-.42-.16-.86-.22-1.29-.06-.43-.1-.87-.14-1.3ZM333.54,53.67c-.11.05-.22.11-.34.14-.04,0-.16-.14-.14-.17.04-.11.13-.19.2-.29.05.06.11.12.28.32ZM333.3,43.15c.11.06.21.11.32.16.18-.33.35-.66.53-.99-.11-.07-.22-.15-.34-.22-.17.35-.34.69-.5,1.04ZM333.35,45.85c.09.04.18.08.27.12.41-.97.82-1.94,1.23-2.9-.92.73-1.3,1.71-1.5,2.78ZM334.19,54.97c-.25.89-.5,1.77-.75,2.66.12-.93-.15-1.97.75-2.66ZM333.98,39.48c-.12.32-.24.63-.36.95.07.03.13.05.2.08.14-.31.28-.61.43-.91-.09-.04-.18-.07-.27-.11h0ZM334.19,54.97s0,0,0,0h0s0,0,0,0c-.2-.94.13-1.79.33-2.66l.27.05c-.2.87-.39,1.74-.59,2.61h0ZM335.42,50.18c-.06-.03-.12-.07-.18-.1.07-.16.14-.31.21-.47.04.02.09.03.14.05-.05.17-.11.35-.16.52h0ZM335.68,40.76l.18.05c.08-.17.16-.33.25-.5-.09-.03-.19-.07-.29-.1-.05.18-.09.36-.14.54ZM338.06,41.95c.09.02.17.03.26.05.04-.22.09-.44.13-.67l-.28-.05c-.04.22-.08.45-.11.67ZM339.46,41.53c1.18.16,1.73-.15,1.84-1,.02-.13,0-.27-.02-.4-.07-.48-.14-.95-.24-1.59-.63,1.09-1.38,1.89-1.57,2.99ZM341.5,35.83c.09.04.18.09.27.13.06-.18.13-.36.19-.54-.06-.03-.12-.05-.18-.08-.09.16-.19.32-.28.49ZM342.38,37.63c.3-.58.54-1.05.79-1.52-.71.55-.97,1.05-.79,1.52Z"/><path class="cls-3" d="M524.19,2.77c-.35.3-.67.57-1.05.9.32.19.54.32.78.47-.09.1-.17.21-.27.29-.2.16-.61.42-.6.43.41.67-.3,1.03-.46,1.52-.18.55-.67,1.01-1.06,1.49-.56.68-1.17,1.33-1.71,2.02-.1.13,0,.42.02.7-2.03,1.05-4.25,1.39-6.5,1.63-5.96.64-11.96,1.02-17.88,2.02-4.14.7-8.3,1.25-12.43,2-4.93.9-9.83,1.95-14.75,2.89-.8.15-1.27.55-1.67,1.21-3.66,6.08-6.91,12.38-10.04,18.74-2.48,5.02-4.98,10.03-7.41,15.08-1.68,3.49-3.24,7.05-4.87,10.56-1.58,3.4-3.21,6.77-4.75,10.19-1.54,3.42-3.07,6.84-4.48,10.31-.9,2.21-1.61,4.51-2.38,6.77-.17.5-.23.94-.93,1.13-.52.14-.9.8-1.47,1.33-.12-.4-.23-.75-.34-1.08.31-.17.55-.31.87-.49-.49-.33-.91-.6-1.31-.87-.55.09-.35,1.08-1.22.95.12-.43.23-.79.34-1.16-.63-.46-1.22-.82-1.97-.28-.15.11-.45.11-.65.05-.83-.27-1.62-.73-2.53-.25-.08.04-.34-.23-.57-.4-.16.27-.3.51-.44.74-.2-.61-.43-1.18-.57-1.77-.08-.33-.1-.72.01-1.03.74-2.18,1.47-4.36,2.31-6.5.85-2.18,1.8-4.33,2.74-6.48.58-1.32,1.23-2.61,1.84-3.92.75-1.63,1.31-3.38,2.29-4.85.79-1.19,1.68-2.24,1.79-3.72,1.08-.97,1.19-2.42,1.82-3.6.64-1.2,1.33-2.39,1.92-3.62,1.34-2.76,2.69-5.51,4.08-8.25,1.48-2.94,3.02-5.85,4.51-8.79,1.79-3.54,3.54-7.11,5.32-10.65.46-.93.94-1.85,1.47-2.74.57-.96.68-2,.94-3.25-.66.09-1.15.11-1.61.21-3.96.91-7.91,1.87-11.89,2.73-2.02.44-4.08.7-6.12,1.03-.11.02-.25-.06-.46-.12.17-.24.24-.35.32-.45-.03-.04-.05-.1-.08-.1-1.29-.27-2.59-.54-3.85-.8-.21-.37-.41-.72-.6-1.07.57.06,1.14-.24,1.51-1.02-.23-.34-.5-.73-.76-1.11.16-.09.38-.21.87-.48-.9-.34-1.58-.59-2.46-.91.57-.45,1.06-.83,1.63-1.28-.09-.08-.26-.22-.45-.38-.13-.39.79-.2.44-.8-.06-.11.37-.53.61-.78.24-.25.51-.48.84-.77-.3-.27-.55-.49-.83-.74.15-.14.23-.27.33-.3,3.74-.85,7.48-1.67,11.22-2.55,2.33-.54,4.62-1.24,6.97-1.71,1.88-.38,3.7-1.12,5.68-1.04.64.03,1.28-.4,1.94-.55.69-.15,1.41-.18,2.1-.33.74-.17,1.44-.49,2.18-.63,1.32-.26,2.66-.41,3.98-.66.74-.14,1.47-.38,2.21-.55,1.39-.31,2.79-.61,4.19-.9.36-.08.74-.4,1.12.05.09.11.46.11.6,0,.54-.37,1.16-.33,1.73-.49.98-.26,1.85-.02,2.77,0,1.16.02,2.33-.16,3.49-.33,2.89-.43,5.78-.91,8.67-1.35,2.18-.33,4.37-.62,6.56-.92.26-.04.57-.12.79-.02.67.32,1.25.49,1.76-.26.07-.11.44-.17.49-.11.55.64,1.08.12,1.64.07.57-.05,1.15.1,1.64-.35.08-.07.27-.04.4-.02,2.45.42,4.81-.37,7.22-.54,2.37-.16,4.75-.13,7.13-.2.98-.03,1.96-.1,3.08-.16-1.76,1.13-3.69.29-5.39.97,1.51.12,2.99.32,4.48.32,1.06,0,2.12-.26,3.18-.47,1.02-.2,1.01-.23,2.03.13h0ZM431.13,91.84c.02-.09.04-.19.05-.29-.32-.07-.64-.13-.95-.2l-.06.32c.32.06.64.11.96.16ZM503.4,4.05c.17-.07.33-.14.5-.2-.03-.07-.07-.21-.09-.2-.15.02-.3.06-.46.1.02.1.03.21.05.31ZM506.57,7.47c-.45-.06-.92-.57-1.61.1.7-.04,1.16-.07,1.61-.1ZM507.01,3.66c-.02-.12-.04-.24-.06-.36-.4-.04-.84-.25-1.3.47.59-.05.98-.08,1.36-.11ZM523.04,1.56c-.54.15-.8.24-1.08.29-.29.05-.6.06-.9.09.47-.63,1.04-.75,1.98-.38ZM521.63,8.89c.04.07.07.13.11.2-.07.04-.14.08-.21.12-.04-.07-.12-.15-.1-.2.02-.06.13-.08.19-.12Z"/><path class="cls-3" d="M540.16,7.49c.05,1.03.06,2.06.03,3.09,0,.3-.15.61-.31.88-2.56,4.31-5.14,8.6-7.68,12.92-1.12,1.9-2.16,3.85-3.25,5.76-.2.35-.5.63-.76.94-.2.24-.56.46-.59.72-.17,1.38-1.16,2.26-1.84,3.33-.45.7-.72,1.46-.75,2.39-.03.82-.63,1.66-1.11,2.4-.58.91-1.34,1.7-1.96,2.59-.49.7-.91,1.45-1.3,2.21-.78,1.52-1.55,3.04-2.28,4.58-.26.56-.42,1.18-.62,1.77-.07.21-.08.46-.18.65-.62,1.14-1.26,2.27-1.9,3.41-.07.12-.16.24-.17.37-.27,2.07-1.4,3.8-2.21,5.66-.04.08-.05.17-.09.26-1.02,2.74-2,5.5-3.09,8.21-1.26,3.13-2.65,6.2-3.93,9.32-.42,1.03-.67,2.13-1.02,3.18-.16.47-.35.93-.57,1.37-.56,1.12-1.16,2.22-1.72,3.34-.39.77-.74,1.55-1.12,2.32-.3.59-.33,1.49-1.41,1.22-.14-.04-.37.3-.7.58.03-.58.05-.98.07-1.38-.4-.24-.68-.64-.83-1.2-.21.07-.4.15-.69.25-.08-.33-.16-.65-.24-.95-1.33-.06-1.13,1.45-2.1,1.89-.11-.36-.2-.66-.34-1.09-1.07.53-2.13,1.06-3.18,1.58-.63-.99-.44-1.97.05-3,2.23-4.64,4.51-9.26,6.61-13.96,1.38-3.08,2.51-6.28,3.72-9.43,1.75-4.56,3.67-9.03,5.84-13.41.79-1.6,1.42-3.28,2.24-5.2-.91.05-1.53.02-2.12.14-3.45.68-6.9,1.4-10.34,2.11-.26.05-.51.21-.78.24-2.2.23-3.82,1.19-4.47,3.44-.93.71-1.38,1.6-1.37,2.81,0,.44-.4.89-.61,1.33-.17-.02-.46-.09-.48-.04-.18.44-.33.9-.48,1.35.22-.17.43-.34.65-.51-.1.24-.16.52-.31.72-.22.29-.31.09-.38-.11-.17.2-.4.37-.49.59-.77,1.77-1.5,3.55-2.25,5.32-.35.83-.73,1.65-1.09,2.48-.07.16-.06.39-.17.5-.48.49.77.76.16,1.16-.37.24-.72.43-.93.85-.79,1.57-1.63,3.11-2.44,4.67-.35.67-.69,1.34-1.03,2.01.09.06.18.11.27.17.38-.6.77-1.19,1.15-1.78-1.21,3.11-2.98,5.91-4.78,8.74.07-.33.14-.67.21-1-.5.58-.99,1.16-1.55,1.82-.37-.58-.87-.89-.91-1.7-.05-1.05-1.23-1.58-2.33-1.38-.21.04-.46.28-.61.22-1.13-.47-1.62.31-2.16,1.03-.04.05-.17.04-.33.08-.28-.46-.17-.91.04-1.36.39-.81.77-1.63,1.18-2.43,2.07-4.05,4.13-8.09,6.22-12.13.76-1.47,1.59-2.9,2.38-4.35.23-.43.39-.89.63-1.3.19-.31.47-.57.73-.88.08-.44.17-.96.26-1.47.12.11.24.21.37.32.35-.5.66-1.02.52-1.71l-.78,1.21c.67-1.57,1.33-3.15,2.02-4.72.21-.48.69-.88.13-1.45-.07-.07.17-.44.31-.8-1.51-.08-3.01.16-4.73-.24.56-.39.91-.62,1.25-.86l-.03-.23c-.71.06-1.44.24-2.12.15-.73-.1-1.43-.47-2.02-.68-.63-1.35-.04-2.49.32-3.57.44-1.31,1.7-1.99,2.94-2.4,3.03-1.02,6.11-1.92,9.17-2.83.84-.25,1.48-.66,1.79-1.49.4-1.09.72-2.22,1.15-3.3.55-1.38,1.11-2.77,1.78-4.09,2.86-5.58,5.79-11.12,9.26-16.36,1.48-2.24,3.34-4.13,5.34-5.9.2-.18.52-.24,1-.46-.26.51-.39.77-.53,1.04.08.04.18.12.22.09.2-.1.38-.23.57-.35.49-.34,1-.25,1.53.26-.4.96-.81,1.92-1.21,2.88.59-.17,1.06-.41,1.39-1.06.27-.54.9-.89,1.37-1.33.09.08.19.16.28.24-.48.68-.96,1.37-1.45,2.05.07.06.13.11.2.17.45-.42.9-.85,1.34-1.27.45-.43.87-.38,1.33.14-.4.45-.81.91-1.32,1.49.4.13.7.22,1.21.38-5.65,7.5-9.77,15.75-13.96,24.31.66-.07,1.08-.12,1.5-.17,3.54-.42,7.08-.86,10.62-1.24.84-.09,1.71.01,2.56-.03.59-.03.95-.37,1.17-.96,1.54-4.21,3.76-8.1,5.86-12.04,1.51-2.82,2.99-5.67,4.62-8.43,1.34-2.25,2.91-4.36,4.34-6.55.91-1.39,2.26-2.17,3.74-2.77.27-.11.7-.2.91-.07.77.5,1.77.61,2.25,1.59.28.58.87,1,1.3,1.51.17.2.4.43.41.66h0ZM479.27,79.3c-.09-.04-.19-.09-.28-.13-.07.28-.14.57-.2.85.16-.24.32-.49.48-.73ZM492.57,48.92c-.25.04-.45.02-.49.08-.84,1.42-1.69,2.85-2.49,4.3-.14.24-.1.61-.07.91.13,1.13-.04,1.4-1.25,1.76.53-2,1.37-3.82,2.34-5.59.18-.32.6-.63.16-1.09-1.25.09-2.18.6-2.68,1.87-.32.82-.83,1.56-1.25,2.34-.09-.04-.17-.07-.26-.11.15-.4.31-.79.45-1.19.1-.29.27-.6.24-.88-.03-.26-.25-.59-.47-.71-.14-.08-.55.11-.68.29-.59.84-1.28,1.67-1.65,2.61-.97,2.45-1.79,4.95-2.65,7.44-.1.3-.1.64-.2,1.26.58-1.09,1.03-1.88,1.43-2.68.38-.75.97-1.13,1.79-1.2-.37.44-.67.96-1.11,1.3-.74.56-.97,1.31-1.17,2.17.28-.02.47-.04.62-.05-.16.87-.31,1.64-.45,2.41-.14.74-.28,1.48-.42,2.22.06.03.13.05.19.08.44-.79.89-1.59,1.33-2.38.06-.75.44-1.31,1.06-1.93.02.33.04.54.05.73.74-1.49,1.49-2.99,2.22-4.49.09-.19.08-.43.09-.64.05-.79.05-.79.91-.86-.38,1.05-.8,2.11-1.12,3.2-.1.36.03.78.09,1.18.72-1.5,1.46-3,2.15-4.52,1.04-2.29,2.04-4.6,3.04-6.91.12-.27.15-.57.25-.93ZM484.65,64.1c.16-.32.18-.71.25-1.07-.35.34-.69.68-1.04,1.02.24.37.56.52.79.05ZM484.04,70.85c.18-.26.36-.51.54-.77-.09.3-.19.6-.28.9-.09-.04-.17-.09-.26-.14ZM484.66,69.97s-.05.07-.08.11c.01-.05.03-.1.04-.14,0,0,.03.03.03.04ZM484.62,69.93s.05-.08.08-.12l-.04.15-.03-.03ZM485.36,68.77c-.22.35-.44.69-.66,1.04.11-.39.23-.78.34-1.16.11.04.21.08.32.12ZM485.32,56.53c-.2.74-.34,1.27-.48,1.79-.28-.63-.06-1.14.48-1.79ZM484.85,58.33h0s0,0,0,0h0ZM484.84,58.33s0,0,0,0c0,0,0,0,0,0,0,0,0,0,0,0ZM487.1,61.37c-1.22.23-1.35.53-.89,2.14.59-.64.84-1.34.89-2.14ZM488.26,61.51l.12.07c-.08.13-.16.26-.24.4-.04-.03-.08-.05-.13-.08.08-.13.16-.26.24-.39ZM495.35,34.09c-.49.95-.74,1.96-1.94,2.63.56-1.4,1.02-2.54,1.48-3.68-.09-.04-.19-.08-.28-.12-.7,1.5-1.4,2.99-2.2,4.69.8-.13,1.48-.05,1.88-.35.45-.34.72-1,.93-1.57.16-.45.8-.91.13-1.6ZM498.3,31.84c-1.12,1.53-1.83,3.26-2.39,5.06,1.25-1.47,1.87-3.25,2.39-5.06ZM497.85,35.34c-.09-.04-.18-.07-.27-.11-.2.41-.39.81-.59,1.22.11.05.22.09.33.14.18-.42.35-.83.53-1.25ZM508.2,68.6c.06-.19.11-.39.17-.58l-.19-.07c-.08.2-.16.39-.24.59l.26.05h0ZM509.73,11.54c.08.06.15.11.23.17l.46-.78c-.43.02-.58.3-.69.62ZM511.54,60.39c-.08-.03-.16-.05-.25-.08l-.13.59c.06.02.11.03.17.05l.2-.56ZM513.32,56.07c-.07-.02-.15-.04-.22-.05-.06.2-.11.4-.17.61.08.02.15.04.23.06l.16-.61ZM514.47,51.41c.15-.32.3-.65.45-.97-.09-.05-.18-.09-.27-.14-.19.3-.37.59-.56.89l.38.22ZM515.31,50.95c-.34.73-.58,1.24-.82,1.76.54-.45.82-1.03.82-1.76Z"/><path class="cls-3" d="M573.85,59.53c-.15,1.02.69,1.13,1.58,1.24-.98,1.9-2.64,2.8-4.17,3.93.61.4,1.14.74,1.65,1.07-3.02,2.76-6.5,4.39-10.12,5.8-4.28,1.67-8.5,3.48-12.77,5.17-2.03.81-4.12,1.47-6.17,2.23-.59.22-1.13.55-1.69.84-.18.09-.36.31-.52.3-1.09-.1-1.93.52-2.83.93-2.33,1.06-4.81,1.19-7.31,1.27-.84.03-1.68.11-2.56.17-.59-.35-1.26-.76-1.93-1.16-.14-.08-.33-.12-.41-.23-1.2-1.6-2.24-3.31-1.99-5.4.21-1.8,1.43-2.98,3-3.67,2.19-.96,4.45-1.77,6.7-2.63,4.84-1.84,9.65-3.76,14.53-5.48,3.52-1.24,7.13-2.21,10.7-3.31.71-.22,1.4-.53,2.13-.7,2.18-.5,4.35-1.05,6.56-1.39,1-.15,2.06.03,3.06.54.71.36,1.63.31,2.56.47h0ZM587.87,32.42c-.39.34-.77.69-1.23,1.09.27.26.49.46.74.69-.48.35-.96.71-1.6,1.17.55.24.87.37,1.18.5-.04.15-.04.3-.1.34-.4.26-.8.54-1.23.74-.38.18-.73.2-.76.82-.01.31-.62.66-1.02.87-.84.45-1.92.63-2.56,1.27-1.32,1.32-2.99,1.72-4.64,2.2-4.52,1.3-9.08,2.47-13.57,3.87-2.7.84-5.3,1.99-7.93,3.03-1.79.71-3.53,1.57-5.34,2.18-2.63.88-5.31,1.6-7.97,2.38-.3.09-.77.28-.91.15-1.15-1.02-2.86-.34-4.01-1.51-1.08-1.09-2.06-2.1-2.16-3.73-.04-.67-.44-1.35-.39-2,.09-1.25.81-2.18,1.92-2.77.85-.45,1.71-.9,2.59-1.27,9.05-3.87,18.27-7.24,27.9-9.41,3.44-.78,6.87-1.58,10.32-2.3.64-.13,1.34.05,2.01.11.32.03.66.2.94.13,2.22-.62,4.45-.3,6.74-.05-.64.53-1.64.2-1.97,1.41.57.03,1.07.1,1.56.07.45-.03.9-.15,1.5.02ZM595.16,5.1v1.98c-1.44,1.81-3.7,2.31-5.8,2.96-4.48,1.39-9.05,2.51-13.52,3.91-4.58,1.43-9.12,3.01-13.64,4.63-3.11,1.11-6.16,2.42-9.25,3.61-.59.23-1.23.33-2,.52-.06-.26-.11-.48-.16-.73-1.62-.24-3.24-.48-5.08-.76-.36-.43-.86-1.14-1.46-1.73-1.99-1.96-.83-4.13.67-5.38.97-.81,2.15-1.4,3.28-1.99,7.16-3.66,14.68-6.42,22.46-8.43,3.61-.93,7.31-1.54,11-2.15,1.23-.2,2.54.08,3.81.06,1.27-.02,2.55-.13,3.82-.2.02.05.04.1.07.15-.94.28-1.89.56-2.83.84.02.09.04.19.06.28,1.5-.31,3-.63,4.5-.94.05.14.09.27.14.4l-1.99.75c.02.11.04.21.06.32.92-.1,1.85-.34,2.75-.26.8.07,1.58.48,2.49.78-.02.49-.4,1.33.66,1.36Z"/><path class="cls-3" d="M74.7,127.33c1.86.18,2.72,1.31,2.19,3.05-.37,1.22-.89,2.4-1.33,3.6-.56,1.51-1.18,3-1.65,4.53-1.13,3.73-3.02,7.09-4.99,10.41-3.41,5.77-6.86,11.52-10.32,17.26-.46.76-1,1.48-1.58,2.16-.63.74-1.18,1.43-2.41,1.49-1,.05-1.96.87-3.05,1.41.16-.47.29-.81.43-1.22-1,.36-1.91.69-2.9,1.04-.32-.78-.48-1.37-.78-1.88-.45-.76-.91-1.54-1.52-2.16-1-1-1.23-1.88-.48-3.06,2.25-3.53,4.46-7.08,6.79-10.56,2.9-4.32,5.73-8.7,8.91-12.8,2.18-2.8,4.04-5.74,5.68-8.85.14-.27.23-.58.48-1.24-.75.32-1.22.43-1.58.71-4.95,3.74-10.06,7.29-14.77,11.32-3.46,2.97-6.52,6.46-9.52,9.92-5.05,5.83-10.1,11.69-14.8,17.8-5.82,7.57-10.5,15.85-13.64,24.93-.81,2.35-2.24,8.95-2.37,11.31,1.16,0,2.11-.33,2.87-.98,2.42-2.07,4.86-4.12,7.17-6.31,3.45-3.27,6.77-6.69,10.19-9.99,4.1-3.95,8.72-7.21,13.81-9.73,3.45-1.71,6.99-3.34,10.65-4.51,2.67-.86,5.4-1.86,8.28-1.93.49-.01,1.05.23,1.48.51.4.26.67.72,1.09,1.2-1.66,1.2-3.87,1.72-5.55,3.07.05.12.09.23.14.35.45-.11.91-.19,1.36-.32.54-.16,1.05-.37,1.59-.54,1.04-.32,1.88.1,2.5,1.27-1.2.71-2.41,1.43-3.62,2.15.03.1.06.2.1.3.76-.12,1.52-.24,2.28-.36.04.1.08.2.13.3-1.52.84-3.05,1.65-4.55,2.52-2.94,1.7-5.91,3.36-8.78,5.18-2.64,1.68-5.22,3.46-7.7,5.35-2.13,1.62-4.11,3.44-6.13,5.2-.97.84-1.89,1.74-2.82,2.63-2.02,1.92-4.02,3.87-6.06,5.78-2.58,2.41-5.28,4.66-8.44,6.3-.28.14-.51.36-.67.77.35-.05.69-.1,1.04-.15-.03.1-.03.25-.09.28-1.11.54-2.2,1.12-3.34,1.57-1.24.49-2.49.84-3.9.59-.9-.16-1.89.09-2.83.19-1.64.19-3-.46-4.45-1.43.54-.13.92-.23,1.31-.33.04-.09.08-.19.12-.28-.15-.07-.29-.19-.44-.2-2.16-.16-3.47-1.87-5.19-2.83-1.75-.98-2.15-2.61-2.65-4.37-.73-2.57-.24-5,.44-7.39,3.21-11.23,8.34-21.56,14.95-31.18,4-5.83,8.59-11.17,13.42-16.31.8-.85,1.63-1.6,2.75-2.11,1.02-.47,1.82-1.43,2.96-2.38-.24.64-.4,1.05-.55,1.45.1.03.24.11.27.08,1.43-1.3,2.87-2.59,4.27-3.93.73-.69,1.41-1.44,2.08-2.18,1.87-2.07,3.73-4.15,5.58-6.24.29-.33.71-.7.75-1.09.13-1.2,1.08-1.73,1.81-2.44,1.54-1.48,3.3-2.67,5.13-3.73.38-.22.8-.38,1.22-.52.68-.23,1.4-.37,2.07-.64,1.6-.64,3.16-1.4,4.78-1.97,1.63-.57,3.31-1.01,4.99-1.42.78-.19,1.41-.41,2.01-1.03.89-.92,2.05-1.36,3.33-.57.18-.24.37-.47.57-.74.66.9-.51,2.54,1.36,2.72-.12.37-.21.66-.31.99.18.1.32.24.46.25h0ZM36,147.5c-.1-.09-.19-.18-.29-.27.2-.24.39-.48.59-.72.08.06.16.11.24.17l-.54.82ZM38.69,154.58c-.09-.1-.19-.2-.28-.3-.09.04-.25.07-.27.14-.05.14-.02.3-.03.46.19-.1.39-.2.58-.3ZM38.23,152.23c.05.07.11.19.14.19.09-.02.17-.09.25-.15-.04-.06-.09-.13-.13-.19l-.26.15ZM40.61,151.93c-.06-.03-.12-.07-.17-.1l-.6.72c.05.05.1.11.15.16.13-.11.27-.22.38-.35.1-.13.17-.29.25-.43Z"/><path class="cls-3" d="M124.85,140.14c.82,1.63,1.73,3.24,1.44,5.29-.44,3.12-1.49,6.04-2.54,8.97-.5,1.4-.85,2.84-1.3,4.26-.18.56-.44,1.09-.67,1.63-1.38,3.23-2.89,6.4-4.74,9.4-.94,1.53-1.78,3.12-2.79,4.61-2.7,4-5.67,7.78-9.14,11.16-4.4,4.28-9.35,7.84-14.84,10.56-2.5,1.23-5.08,2.44-8,2.21-2.89-.23-5.75-.64-8.3-2.15-.5-.3-1.01-.61-1.43-1.01-1.12-1.1-2.24-2.22-3.27-3.4-1.66-1.91-1.69-4.22-1.38-6.55.51-3.89,2.26-7.31,4.13-10.68,1.71-3.09,3.82-5.92,5.96-8.71,1.12-1.46,2.54-2.69,3.8-4.04.86-.92,1.67-1.89,2.54-2.82,1.7-1.81,3.41-3.6,5.15-5.37.2-.2.54-.26.83-.36-.23.29-.47.59-.79.98.68.06.91-.43,1.22-.72,2.01-1.88,4.04-3.75,6.01-5.67,3.68-3.61,8.06-6.06,12.83-7.88,2.23-.85,4.51-1.56,6.75-2.38,1.13-.42,2.2-.2,3.31.07.78.19,1.53.76,2.42.29.14-.07.48.04.63.18.76.7,1.74,1.3,2.18,2.17h0ZM117.14,146.09c-1.04.2-1.89.2-2.58.53-1.99.96-3.89,2.09-5.87,3.09-1.42.72-2.38,2.2-4.08,2.45-.86,1.19-2.4,1.43-3.38,2.47-.18.19-.4.39-.64.5-1.53.7-2.71,1.85-3.89,3-4.56,4.47-8.68,9.31-12.46,14.45-2.52,3.43-4.75,7.04-6.42,10.96-.47,1.11-1.08,2.23-.78,3.5.09.4.34.95.65,1.08.69.29,1.52.58,2.21.45,1.76-.33,3.56-.69,5.19-1.39,3.7-1.61,7.02-3.88,10.06-6.55,2.45-2.15,4.76-4.42,6.85-6.93,2.75-3.3,5.19-6.82,7.53-10.42,3.23-4.97,5.35-10.43,7.39-15.94.1-.28.11-.6.22-1.24ZM90.37,153.08s-.05.02-.08.03c.02-.02.03-.04.05-.06l.03.03Z"/><path class="cls-3" d="M180.47,132.49c.76.08,1.04.54.63,1.18-.38.6-.82,1.22-1.38,1.65-1.41,1.09-2.2,2.62-3,4.13-1.78,3.35-3.53,6.71-5.21,10.11-1.38,2.79-2.69,5.62-3.94,8.47-2.05,4.67-4.09,9.34-6,14.07-1.96,4.85-3.75,9.77-5.59,14.67-.7,1.86-1.31,3.75-2,5.61-.22.58-.61,1.1-.86,1.68-.34.78-.68,1.57-.91,2.38-1.3,4.51-2.58,9.02-3.86,13.53-.47,1.65-.89,3.31-1.41,4.94-.22.67-.65,1.27-.97,1.91-.36.71-.71,1.42-1.12,2.26-.27-.37-.47-.64-.83-1.14-.09.54-.14.84-.2,1.21-.17-.07-.39-.15-.6-.24-.89,1.29-1.26,1.48-2.12,1.12.22-.33.44-.66.8-1.2-.66-.14-1.15-.28-1.65-.36-1.15-.18-1.77-.75-2.03-1.91-.12-.52-.17-1.06-.32-1.58-.08-.27-.24-.61-.46-.72-.76-.36-.71-1.03-.37-1.46.42-.55.37-1.07.37-1.64.01-2.98-.18-5.98.08-8.93.36-4.13.89-8.27,1.64-12.35,1.23-6.7,2.61-13.38,4.07-20.03.94-4.27,1.83-8.56,3.39-12.67.17-.45.25-.95.16-1.55-.19.24-.42.46-.58.73-2.62,4.48-5.23,8.97-7.84,13.45-.81,1.4-1.56,2.84-2.44,4.2-.92,1.43-1.93,2.8-2.97,4.15-.2.26-.71.27-1.22.45.04-.47.08-.8.11-1.15-.13.02-.26,0-.28.04-.63,1.27-1.01,2.67-2.15,3.66-.15.13.15.61-.06,1.04-.9,1.86-1.68,3.77-2.49,5.67-.14.32-.13.71-.26,1.04-.24.63-.39,1.35-.81,1.83-1.05,1.19-1.45,2.68-2.09,4.05-.22.48-.43,1,0,1.53.07.08-.14.37-.21.57,0,0,0,0,0,0-.55,1.6-1.09,3.2-1.63,4.81-.01.04.11.12.22.22.7-.06.63-1.02,1.37-1.22-.5,1.9-1.17,3.66-2.12,5.29-.9,1.55-1.99,3-2.97,4.51-1.1,1.7-2.18,3.41-3.27,5.12-.48.76-.95,1.52-1.42,2.28-.06-.08-.11-.15-.16-.23-.55.2-1.14.33-1.64.62-.35.2-.6.33-.92.08h0c-.26.23-.52.45-.78.68-.05-.03-.11-.07-.16-.1.18-.42.37-.84.66-1.5-.73.09-1.27.16-1.94.25.06-.51.12-.98.19-1.55-.29-.02-.61-.04-1.07-.06.18-.58.32-1.09.49-1.59.17-.51.01-1.01-.42-1.15-.88-.28-.78-.89-.55-1.45,2.95-7.23,5.92-14.44,8.91-21.66.81-1.96,1.65-3.91,2.59-5.81,1.1-2.2,2.35-4.32,3.49-6.49.93-1.75,1.73-3.58,2.7-5.31,2.51-4.44,4.91-8.95,7.68-13.23,2-3.09,3.85-6.3,6.33-9.08,1.07-1.2,1.87-2.65,2.79-3.98,1.59-2.3,3.1-4.65,5.17-6.59,2.17-2.04,4.17-4.27,6.4-6.23,1.37-1.21,3-2.15,4.59-3.08.66-.39,1.54-.4,2.3-.63.32-.1.61-.34,1.1-.62.39.11,1.03.3,1.74.5v2.88c.08.02.15.04.22.06.15-.32.31-.64.46-.97.08.02.21.03.22.07.11.42.21.84.3,1.26.03.17-.05.45.04.51,1.29.94.61,2.08.25,3.09-.74,2.08-1.61,4.12-2.41,6.18-.72,1.85-1.39,3.72-2.15,5.56-.69,1.67-1.5,3.28-2.17,4.95-.88,2.17-1.75,4.36-2.52,6.57-.99,2.85-1.88,5.74-2.81,8.61-.09.29-.12.59,0,.94.77-1.77,1.53-3.54,2.31-5.31,2.62-5.95,5.47-11.79,8.56-17.52,2.19-4.05,4.25-8.17,6.41-12.24.59-1.11,1.34-2.15,2.08-3.17.56-.77,1.29-1.32,2.28-1.56.68-.16,1.3-.58,1.94-.88,0,0,0,0,0,.01,1.19-.48,1.33-.35,1.52,1.38.96-.22,1.93-.35,2.5.95-.33.06-.64.12-.94.18-.05.38-.11.76-.16,1.16.49.03.94.03,1.4.08h0ZM111.03,217.31c-.03.33-.07.66-.1.99.35-.24.53-.53.1-.99ZM118.91,210.67c.08.06.16.12.24.18-.28.42-.57.84-.85,1.26-.09-.06-.18-.12-.28-.18.29-.42.59-.84.88-1.26ZM122.71,197.87c.28-.37.51-.68.75-.99-.42.15-.97.18-.75.99ZM129.92,184.09c-.08.25-.15.5-.23.76-.05-.01-.1-.03-.15-.04.06-.24.12-.49.18-.73,0-.03.06-.07.1-.07.03,0,.06.04.1.08ZM131.79,180.06c.09,1.04-.67,1.18-1.16,1.44.34-.42.68-.84,1.16-1.44ZM143.02,217.48c-.07-.05-.13-.09-.2-.14-.14.17-.28.35-.42.52.08.06.17.12.25.19.12-.19.24-.38.36-.57ZM150.84,172.66c-.42.44-.57.96-.44,1.55.16-.57.31-1.06.44-1.55ZM176.14,128.76c-.25.39-.46.78-.12,1.25.93-.81.94-.89.12-1.25ZM179.2,131.24c-.05-.2-.1-.41-.19-.83-.49.49-.85.86-1.21,1.22l.18.22c.41-.2.81-.4,1.22-.61Z"/><path class="cls-3" d="M245.63,135.33c.36.29.64.69,1.02,1.12-.34.16-.79.46-1.29.61-2.47.76-4.75,1.91-6.95,3.25-.74.45-1.46,1.13-2.47.86-.02.19.02.44-.08.55-.09.09-.35.02-.53.02.06-.14.09-.31.18-.42.07-.08.24-.08.36-.11,0,0,.02,0,.03-.01-.01,0-.02.01-.03.01-.09-.02-.18-.02-.26-.06-1.17-.62-1.56-.43-1.78.84-.02.12-.05.24-.08.35-.6.38-1.56-.05-1.82.9.16.18.32.36.58.65-.46.09-.76.15-1.06.2-.29.05-.59.09-.86.14-.02.86-.37,1.37-1.06,1.54-.09.41-.1.83-.28,1.14-.36.62-1.02.63-1.65.66-.39.77-.4.77-1.42,1.22-.04,0-.12-.02-.12-.03,0-.21.02-.42.05-.74-.36.04-.69.08-1.02.12-.17.55-.51.17-.76.11-.35-.08-.69-.29-.94.24.53.23,1.06.46,1.59.68-.02.05-.04.11-.06.16-.63-.08-1.27-.16-2.13-.27.47.74,1.61.27,1.48,1.27-.47.22-.94.54-1.46-.14-.33,1.15-.75,2.1-1.66,2.79-.4.31-.71.85-.85,1.35-.23.8-.83,1.07-1.48,1.1-.68.04-1.02.41-1.34.96.4-.11.8-.22,1.36-.38-.42,1.21-1.59,1.62-2.05,2.72-.37-.4-.57-.96-1.18-.64-.05.03-.23-.17-.36-.29-.07.46-.09.84.39,1.23.62.49.63.84-.01,1.27-.72.49-.73,1.13-.73,1.83-.69.05-.78.55-.81,1.1-1.15.66-2.26,1.41-3.68,1.4.33-.57.47-1.1-.34-1.46-.94.44-.38,1.47-.78,2.12-1.06-.05-1.55.29-2.03,1.42-.74-.13-1.49-.25-2.32-.39v1.3c.49-.29.82-.49,1.29-.77.41.55.79,1.07,1.16,1.58.5-.69.62-1.64,1.45-2.18.24.92.3,1.07-.05,1.24-1.12.53-.58,1.58-.81,2.38-.05.17.28.59.51.67s.65-.02.84-.2c.31-.31.55-.71.73-1.12.07-.15-.09-.41-.18-.75-.49.44-.83.76-1.18,1.08.16-.7.34-1.32.72-1.79.69-.86.63-1.62-.04-2.41.59.39,1.09.03,1.6-.2.32-.14.62-.4.93,0,0,0,0,0,.02-.02,0-.01.02-.02.02-.02,0,.02,0,.03.02.05-.02,0-.03,0-.04,0-.23.36-.45.72-.68,1.09-.03.03-.07.06-.11.09-.53.58-.61,1.08-.22,1.5.34-.25.67-.51,1.01-.76-.02.16-.02.34-.1.47-.71,1.14-1.44,2.26-2.15,3.4-.73,1.18-1.44,2.37-2.17,3.56-.59.96-1.23,1.88-1.76,2.87-1.51,2.78-2.98,5.57-4.45,8.37-1.45,2.76-2.87,5.53-4.34,8.27-.24.45-.69.78-1.02,1.19-.45.56-.92,1.1-1.29,1.71-1.02,1.65-1.97,3.34-2.99,4.99-.33.53-.73,1.04-1.17,1.48-.81.81-1.41,1.75-1.86,2.79-.26.6-.71,1.09-1.3,1.03-.95-.09-1.38.5-1.88,1.07-.23.27-.42.57-.75,1.02-.66-1.27-1.39-1.88-2.62-1.63-.73.15-1.5.13-2.25.13-.22,0-.44-.22-.67-.34-.09.22-.18.43-.27.65-.05-.01-.1-.02-.14-.03v-2.11c-.52-.59-.9-1.03-1.29-1.47-.09.08-.31.28-.64.57-.28-.88-.1-1.59.15-2.3,1.32-3.72,2.12-7.53,2.2-11.51.09-4.38.29-8.76.68-13.12.43-4.86.59-9.71.66-14.58.06-3.98.27-7.95.4-11.92.02-.72-.01-1.45-.05-2.17-.14-2.91,1.1-3.98,3.31-4.87.86-.35.97-.4,1.19-1.35.53.09,1.24-.19,2.13-.83.31.42.64.83.93,1.28.3.45.55.93.82,1.4.72-.09,1.17.45,1.36,1.64.49-.2.3-.55.28-.88-.01-.27.11-.56.39-.84.23,1.24.45,2.48.68,3.72.08,0,.16-.02.25-.03.1-.47.21-.95.38-1.74.23,1.44.53,2.55.49,3.76-.12,3.97-.11,7.94-.22,11.91-.1,3.74-.29,7.49-.44,11.23,0,.13.03.26.06.58.29-.27.52-.43.68-.65,1.46-1.99,2.83-4.06,4.39-5.97.62-.76.99-1.64,1.56-2.41.59-.79,1.12-1.63,1.71-2.42.35-.46.79-.85,1.14-1.3.26-.33.44-.73.68-1.14.9-.3,1.67-.8,2.3-1.69.72-1.03,1.18-2.33,2.54-2.85.3-.12.49-.62.65-.99.5-1.14,1.13-2.14,2.38-2.59.16-.06.32-.18.43-.32.77-.92,1.53-1.83,2.27-2.78.34-.44.6-.94,1.28-.64-.14.49-.28.97-.42,1.45.41.06.83.12,1.22.17.27-1.14.5-2.14.73-3.14.1,0,.19.01.29.02.07.27.15.53.24.88.22-.33.41-.62.65-.99-.16-.14-.43-.26-.51-.47-.1-.26-.17-.77-.05-.85.85-.55,1.23-1.67,2.39-1.87,1.05-.18,1.62-1.1,2.34-1.76.41-.37.75-.82,1.25-1.37.84.3,1.39-.66,2.18-1.11.41-.36.82-.72,1.23-1.08.42-.37.89-.64,1.03-1.32.08-.37.7-.68,1.04-.87.71-.41,1.61-.49,2.44-.71-.03-.12-.07-.25-.12-.45-.44.19-.85.37-1.27.55,1.93-1.85,3.82-3.76,6.72-3.88.04.26.08.51.12.75.14,0,.27.03.3,0,.5-.61,1.14-.89,1.9-1.11.51-.14,1.5-.02,1.5-1.17.17.41.34.83.52,1.24h0c.65.35,1.43.59,1.92,1.1.47.5.63,1.3.97,2.04h-.87c.02.15,0,.3.04.31.86.31,1.72.6,2.62.91.21-.62-1.21-.56-.5-1.41.41.25.88.46,1.27.78h0ZM186.42,206.12c-.22.26-.4.47-.59.69.47-.09.66-.32.59-.69ZM186.87,145.64l-.08-.23c-.08.06-.16.12-.22.2-.01.02.09.12.14.18.05-.05.1-.1.16-.15ZM189.71,177.96c-.55.26-1.02.23-.74,1.11.28-.43.44-.66.74-1.11ZM190.93,176.93c.02-.11-.02-.23-.03-.36-.11.05-.24.09-.24.13,0,.11.05.23.08.35.07-.03.19-.06.19-.11h0ZM195.61,185.63s-.09-.01-.13-.02c-.09.28-.18.55-.27.83.09.02.19.05.28.07.04-.29.08-.59.12-.88ZM196.47,188.95c-.01-.09-.16-.16-.31-.29-.06.17-.15.29-.12.37.03.09.18.15.27.22.06-.1.18-.22.16-.31ZM199.2,185.18s.08-.13.22-.37h-1.83c-.71.9-.53,1.93-.53,2.94.22-.21.35-.45.39-.71.25-1.55.49-1.82,1.74-1.85ZM197.22,182.21c.07.03.14.06.21.08.08-.19.16-.38.24-.56-.07-.03-.14-.06-.22-.09-.08.19-.16.38-.24.57ZM198.06,184.08c.11.04.22.09.34.13.2-.44.44-.87.27-1.45-.2.44-.4.88-.6,1.32ZM198.7,178.9c.1.29.2.57.35,1,.5-.6.21-.84-.35-1ZM201.44,173.46c-.79-.29-1.46-.3-2.01-.05.81-.18,1.3,1.07,2.01.05ZM200.09,182.08c.15,0,.29-.05.45-.08-.05-.15-.08-.23-.1-.3-.14.06-.29.11-.43.18,0,0,.05.2.08.19ZM200.27,175.48c-.08.09-.22.16-.23.26-.02.13.04.28.1.63.22-.29.39-.41.39-.53,0-.12-.17-.24-.26-.36ZM200.42,183.18l.16-.19c-.08-.04-.16-.09-.25-.13-.03.07-.1.14-.09.21,0,.04.12.07.18.11ZM203.27,176.52c-.52.44-.01,1.66-1.24,1.3.13-.42.26-.82.39-1.21-1.38,1.37-1.54,1.68-1.62,2.92.48-.32.79-.53,1.14-.77.41.95-.32,1.65-.55,2.53,1.13-.48.91-1.51,1.27-2.25.37-.76.96-1.46.61-2.52ZM203.71,174.23c-.09-.04-.17-.08-.26-.13-.15.27-.29.53-.44.8-.42-.4-.7-.66-1.07-1.01-.25,1.32-.13,1.43,1.57,1.69.07-.45.13-.9.2-1.35ZM201.93,172.27c.33-.12.6-.21,1.09-.39-.59-.46-.89-.37-1.14-.05-.05.07.02.23.05.44ZM203.01,173.37c-.03-.15-.15-.28-.24-.42-.09.08-.24.15-.25.24-.02.14.06.28.13.52.19-.18.37-.28.36-.34ZM203.43,169.94c.45.32.72.51,1.03.73.39-.54.85-.96.58-1.63-.54.3-.98.55-1.6.9ZM205.86,168.17c.07,1.75-1.42,2.98-1.33,4.7.29.24.62.52.97.81.56-.42.85-.85.51-1.52-.35.08-.65.14-1.22.26.49-.67.8-1.09,1.09-1.49.83.3.83.3,1.8-.03-.48-.21-.83-.36-1.18-.51.08-.08.17-.16.25-.24.24-.04.49-.08.62-.1v-1.58c-.55-.11-1.09-.22-1.52-.31ZM204.99,174.8c-.05-.13-.14-.24-.22-.36-.05.18-.09.36-.14.54.08,0,.15.02.22.03.05-.07.15-.16.14-.21ZM207.64,157.11c-.23.3-.45.6-.7.93.52-.06.76-.37.7-.93ZM209.34,161.67c-.33.7-1.51.28-1.65,1.29,1.02.04,1.58-.39,1.65-1.29ZM208.75,160.98c.7-.09,1.19-.16,1.59-.21-.04-.65-.07-1.27-.12-2.21-1.1.56-.95,1.6-1.47,2.42ZM209.49,157.37c.08.09.16.17.23.25.1-.06.17-.1.24-.14-.09-.08-.17-.17-.27-.22-.03-.02-.13.07-.19.11ZM212.87,159.45c-1.18.66-1.39,1.94-2.01,2.92.05.09.11.18.17.27.43-.26.9-.47,1.29-.78.44-.36.43-.81.06-1.25.4-.26.88-.48.5-1.17ZM210.98,152.91c.15.35.24.58.39.95.22-.35.36-.57.65-1.03-.5.04-.72.06-1.04.08ZM211.95,165.18c.93.24,1.29-.59,1.87-1.05-.38,1.15-.87,2.2-1.9,2.9-.27-.23-.54-.45-.81-.68.04-.03.07-.06.11-.09.75-.04.89-.46.72-1.08ZM211.91,167.03h.02s.02.02.02.02c-.02.01-.03.03-.05.04,0-.02,0-.04,0-.06ZM211.91,167.03s0,0,0,0c.01,0,.02.02.03.03h-.02s-.02-.02-.02-.02ZM212.05,157.28c.65-.57.81-1.18.47-1.82-.18.69-.31,1.2-.47,1.82ZM215.33,155.48c-.36-.24-.76-.41-1.3-.69-.06.52-.11.89-.14,1.17.51.3.9.54,1.29.77h0c.73-.58.78-.83.15-1.25ZM214.08,163.27v-.03h.02s-.02.02-.02.03c0,0,0-.02,0-.03,0,0,0,0,0,0v.03ZM214.1,163.25c.26-.35.53-.7.8-1.06.12.03.34.06.34.09.01.61-.47,1.01-1.14.97ZM215.21,157.77c-.01-.33-.02-.65-.03-.98-.22.21-.57.41-.6.64-.05.4.32.39.63.34ZM214.89,162.19v-.03s.03,0,.04,0c-.01.01-.02.03-.03.04,0,0,0,0,0,0ZM216.97,149.49c-.11,0-.21,0-.32-.01v.7c.08,0,.16,0,.24.01.03-.23.06-.47.09-.7ZM219.55,148.86c.13.4.25.76.39,1.21.42-.54.78-1,1.17-1.5-.23-.2-.43-.37-.61-.53-.36.3-.67.57-.95.81ZM221.49,151.93c-.66.05-1.13.08-1.7.13.51.34,1.08.3,1.7-.13ZM219.83,144.56c.03.06.05.13.08.19.17-.07.34-.14.51-.2-.04-.07-.1-.2-.11-.2-.16.06-.32.14-.47.21ZM221.09,143.31c.45.68.89.75,1.42.38.31-.43.89-.92.82-1.28-.14-.68.36-.93.53-1.36-1.17.48-2.16,1.16-2.77,2.26ZM224.35,145.49c-1.71-.47-2.23-.51-2.71-.13,1.01.31.58,1.14.69,1.86h1.64c-.11-.44-.3-.78-.25-1.09.04-.23.39-.41.63-.64ZM222.56,143.72c.21.19.43.38.65.57.12-.18.25-.37.37-.55-.34,0-.68-.02-1.01-.03ZM225.19,143.44c-.34-.32-.68-.63-1.07-.99-.38.35-.89.62-.49,1.29.29.25.57.5.89.78.22-.36.45-.72.67-1.08ZM223.94,151.27c.11-.29.22-.59.33-.88l-.05.92c-.09-.01-.18-.03-.28-.04ZM223.94,140.98c.87-.28,1.75-.57,2.69-.87-.04-.17-.09-.41-.15-.71-.63.11-1.19.21-1.74.3-.26.43-.53.85-.8,1.28ZM224.27,150.36h.01s0,0-.01.02c0,0,0-.02,0-.02ZM224.27,150.36s0,0,0-.01c0,0,.01,0,.02,0h0s-.01.02-.01.02ZM225.72,147.26c-.77.17-.78.18-.64.87.19-.26.38-.52.64-.87ZM226.22,143.3c-.27-.33-.42-.52-.69-.84-.13.43-.21.71-.29.97.27-.03.55-.07.98-.13ZM226.75,141.34c-.07-.14-.15-.41-.19-.4-.25.05-.48.15-.72.24.04.13.09.27.13.41.26-.08.52-.17.78-.25ZM227.58,147.5c0-.2,0-.41,0-.61-.11.04-.22.08-.33.12.11.16.22.32.33.49ZM227.39,139.64c.02.38.04.76.07,1.39.28-.63.56-1-.07-1.39ZM229.66,142.07h-2.02c.05.2.04.37.12.44.13.12,1.51.26,1.9.24v-.68ZM229.54,137.8c.2-.39.37-.74.58-1.16-.74.2-.94.58-.58,1.16ZM230.61,142.68c-.28.03-.57.05-.85.08.28.07.55.14.83.21,0-.1.02-.2.02-.29ZM230.5,138.95c-.89.17-.02.86-.6,1.31,1.01-.32.96-.75.6-1.31ZM231.45,135.62c-.33.03-.59.05-.85.07.25.15.48.45.85-.07ZM231.72,142.28c.04-.17.13-.34.12-.5,0-.08-.17-.22-.27-.22-.1,0-.24.11-.29.21-.03.06.09.19.14.29.1.08.2.15.3.22ZM232.31,137.02c-.09.2-.18.4-.27.6.1.04.21.08.31.13.07-.21.13-.42.2-.62-.08-.03-.16-.07-.24-.1h0ZM232.31,140.64c.12-.16.24-.31.36-.47-.19.08-.37.16-.56.23.07.08.13.16.2.24ZM233.44,139.35c-.32.37-.5.57-.68.78.41.07.68-.04.68-.78ZM233.79,137.8c-.05-.02-.1-.03-.16-.05-.05.14-.1.29-.16.43.06.02.12.04.18.06.04-.15.09-.29.13-.44ZM234.7,134.27c-.05-.09-.1-.18-.14-.27-.27.15-.54.29-.8.44.05.09.09.17.14.26.27-.14.54-.29.81-.43ZM234.87,139.15c.08-.02.16-.04.24-.06-.06-.23-.13-.45-.19-.68-.05.01-.1.02-.15.03.04.23.07.47.11.71ZM237.15,133.15c.42-.26.67-.42.93-.57-.38-.05-.76-.13-.93.57ZM238.35,137.48c0-.06-.02-.12-.03-.17-.19-.02-.38-.04-.79-.08.28.22.36.34.46.35.11.01.24-.06.36-.1ZM237.93,136.52h-.34c0,.07,0,.14,0,.22.08-.06.17-.11.34-.22ZM238.32,139.84c-.21-.05-.33-.1-.44-.09-.06,0-.12.11-.18.17.08.07.18.2.25.19.1-.01.19-.13.36-.27ZM238.87,135.32c.12-.27.28-.48.23-.56-.1-.16-.31-.26-.48-.39-.09.14-.27.31-.24.4.07.18.26.31.48.55ZM239.2,138.91c-.08-.12-.16-.23-.24-.35-.04.03-.09.07-.13.1.09.1.19.2.28.3,0,0,.09-.06.09-.06ZM240.8,132.45c-.22-.3-.42-.56-.61-.83-.08.83-.08.83.61.83Z"/><path class="cls-3" d="M271,184.34c-.15,1.02.69,1.13,1.58,1.24-.98,1.9-2.64,2.8-4.17,3.93.61.4,1.14.74,1.65,1.07-3.02,2.76-6.5,4.39-10.12,5.8-4.28,1.67-8.5,3.48-12.77,5.17-2.03.81-4.12,1.47-6.17,2.23-.59.22-1.13.55-1.69.84-.18.09-.36.31-.52.3-1.09-.1-1.93.52-2.83.93-2.33,1.06-4.81,1.19-7.31,1.27-.84.03-1.68.11-2.56.17-.59-.35-1.26-.76-1.93-1.16-.14-.08-.33-.12-.41-.23-1.2-1.6-2.24-3.31-1.99-5.4.21-1.8,1.43-2.98,3-3.67,2.19-.96,4.45-1.77,6.7-2.63,4.84-1.84,9.65-3.76,14.53-5.48,3.52-1.24,7.13-2.21,10.7-3.31.71-.22,1.4-.53,2.13-.7,2.18-.5,4.35-1.05,6.56-1.39,1-.15,2.06.03,3.06.54.71.36,1.63.31,2.56.47h0ZM285.03,157.22c-.39.34-.77.69-1.23,1.09.27.26.49.46.74.69-.48.35-.96.71-1.6,1.17.55.24.87.37,1.18.5-.04.15-.04.3-.1.34-.4.26-.8.54-1.23.74-.38.18-.73.2-.76.82-.01.31-.62.66-1.02.87-.84.45-1.92.63-2.56,1.27-1.32,1.32-2.99,1.72-4.64,2.2-4.52,1.3-9.08,2.47-13.57,3.87-2.7.84-5.3,1.99-7.93,3.03-1.79.71-3.53,1.57-5.34,2.18-2.63.88-5.31,1.6-7.97,2.38-.3.09-.77.28-.91.15-1.15-1.02-2.86-.34-4.01-1.51-1.08-1.09-2.06-2.1-2.16-3.73-.04-.67-.44-1.35-.39-2,.09-1.25.81-2.18,1.92-2.77.85-.45,1.71-.9,2.59-1.27,9.05-3.87,18.27-7.24,27.9-9.41,3.44-.78,6.87-1.58,10.32-2.3.64-.13,1.34.05,2.01.11.32.03.66.2.94.13,2.22-.62,4.45-.3,6.74-.05-.64.53-1.64.2-1.97,1.41.57.03,1.07.1,1.56.07.45-.03.9-.15,1.5.02ZM292.31,129.91v1.98c-1.44,1.81-3.7,2.31-5.8,2.96-4.48,1.39-9.05,2.51-13.52,3.91-4.58,1.43-9.12,3.01-13.64,4.63-3.11,1.11-6.16,2.42-9.25,3.61-.59.23-1.23.33-2,.52-.06-.26-.11-.48-.16-.73-1.62-.24-3.24-.48-5.08-.76-.36-.43-.86-1.14-1.46-1.73-1.99-1.96-.83-4.13.67-5.38.97-.81,2.15-1.4,3.28-1.99,7.16-3.66,14.68-6.42,22.46-8.43,3.61-.93,7.31-1.54,11-2.15,1.23-.2,2.54.08,3.81.06,1.27-.02,2.55-.13,3.82-.2.02.05.04.1.07.15-.94.28-1.89.56-2.83.84.02.09.04.19.06.28,1.5-.31,3-.63,4.5-.94.05.14.09.27.14.4l-1.99.75c.02.11.04.21.06.32.92-.1,1.85-.34,2.75-.26.8.07,1.58.48,2.49.78-.02.49-.4,1.33.66,1.36Z"/><path class="cls-3" d="M344.05,146.45c-.03.22-.08.46-.2.64-.59.94-1.06,2.03-1.86,2.74-.67.59-1.78.69-1.82,1.89-1.04.58-1.33,1.78-2.14,2.55-.49.46-.88,1.03-1.39,1.46-4.89,4.11-10.28,7.5-15.8,10.67-3.01,1.73-6.14,3.24-9.22,4.86-1.16.61-2.33,1.19-3.46,1.85-.35.2-.6.58-.89.89,3.68-1.78,7.36-3.57,11.04-5.35-2.6,1.91-5.55,3.19-8.36,4.72-2.85,1.55-5.73,3.03-8.64,4.57.56,1.07,1.19,1.91,2,2.65,1.19,1.09,2.29,2.28,3.48,3.38,3.42,3.14,7.37,5.5,11.41,7.74,1.54.85,3.05,1.75,4.58,2.62.47.27.94.55,1.44.75,1.37.55,1.38.54,1.03,1.87.65.59,1.33,1.11,2.01,1.53-.09.33-.18.66-.26,1-.3.95-.56,1.91-.78,2.87-.05-.02-.09-.04-.14-.06-.41-.21-1.04,0-1.56,0-.33,0-.68.07-1,0-.92-.17-1.03-.05-.83,1.07-.41-.06-.78-.12-1.16-.17.02.2.03.41.06.78-1.95-.52-3.44-1.79-5.25-2.29-.49.58.25.74.41,1.32-.92-.46-1.74-.81-2.5-1.25-2.5-1.44-4.99-2.89-7.45-4.39-1.27-.77-2.44-1.69-3.71-2.46-1.44-.87-2.64-2.06-4.08-2.93-.19-.21-.39-.42-.59-.63.2.21.39.42.59.63-.64.02-.86-.22-.88-.94-1.89-1.71-3.78-3.42-5.86-5.29-.68,1.54-1.31,2.87-1.86,4.23-.29.72-.29,1.61-.7,2.23-1.18,1.74-1.94,3.68-2.76,5.58-.5,1.16-.7,2.48-1.34,3.62-.22.4-.61.72-.92,1.07.11.06.31.16.31.17-.21.52-.44,1.02-.66,1.53-.1-.04-.19-.08-.29-.12.13-.31.27-.61.4-.92-.95,1.73-1.9,3.46-2.86,5.18-.25.45-.28,1.07-1.12,1.03-.29-.01-.63.7-.93,1.09-.55.72-1.07,1.46-2.01,1.7l.03.04h-.05s.01-.02.01-.03c-.58-.61-.72-.56-1.09.3-.27.25-.55.5-1.03.94.24-.77.4-1.26.55-1.74-.05-.04-.11-.07-.16-.1-.44.53-.88,1.06-1.38,1.66-.14-.56-.26-1.05-.42-1.73-.34.34-.54.54-.75.74-.54.5-1.11.41-1.39-.25-.7-1.72-.85-3.3.1-5.12,3.2-6.17,6.21-12.44,9.28-18.68.72-1.46,1.36-2.95,2.11-4.39.62-1.18.91-2.36.75-3.71-.07-.6.27-1.26.43-1.89.12-.45.29-.86.36-1.36.12-.95.64-1.86,1.59-2.37,1.21-.65,1.88-1.7,2.47-2.93,3.35-7.06,6.76-14.08,10.16-21.12.71-1.46,1.46-2.9,2.16-4.3-.35-.8-.91-1-1.74-.78-.03-.54-.43-.79-.68-1.13-.48-.66-.82.4-1.22-.14-.37-1.73-.09-3.42,1.05-4.98.45-.61.76-1.33,1.09-2.01.49-.99,1.35-1.58,2.23-2.11,1.98-1.19,4.08-2.1,6.38-2.53.97-.18,1.92-.49,2.89-.7.44-.1.89-.14,1.34-.15,1.85-.03,3.7-.06,5.54-.02.93.02,1.86.16,2.79.27,1.25.15,2.55.65,3.72.44,2.42-.45,4.56.62,6.84.84,1.11.11,2.18.32,3.08,1.16.41.39,1.06.69,1.76.44.18-.06.5,0,.64.14,1.33,1.25,3.18,2.01,3.73,4.01.09.34.46.61.68.92.62.88,1.13,1.87,1.87,2.63,1.18,1.23.96,2.63.78,4.06ZM276.44,212.44c.35-.09.7-.17,1.05-.26-.22.67-.58,1.23-1.33,1.62.1-.51.19-.93.28-1.36ZM276.45,212.4s0,.02,0,.03c0,0-.02,0-.03,0l.04-.04ZM333.22,144.73c-1.19-.63-2.44-1.18-3.72-1.59-2.53-.82-5.16-1.26-7.8-1.5-2.57-.23-5.14-.07-7.69.3-.83.12-1.44.57-1.87,1.22-.54.83-1,1.71-1.44,2.6-2.11,4.29-4.24,8.58-6.27,12.9-1.22,2.6-2.27,5.27-3.49,8.13.41-.12.64-.14.83-.24,3.83-1.92,7.74-3.71,11.48-5.81,4.6-2.58,9.07-5.41,13.58-8.16,2.52-1.53,4.85-3.3,6.76-5.57.87-1.03.81-1.65-.36-2.28ZM301.45,144.68l.09.11c.13-.09.26-.18.39-.26-.05-.05-.09-.1-.14-.16-.12.1-.23.21-.35.31ZM307.19,174.04c-.57-.09-1.06.03-1.39.61.46-.2.92-.4,1.39-.61ZM319.59,202.34c.6.26,1.21.51,1.81.77-.48-.49-.85-1.18-1.81-.77ZM326.44,196.23c.15.02.29.14.45.22-.32.3-.63.26-.93-.13.18-.04.34-.12.48-.1ZM343.12,144.36c-.45,1.19-.85,2.24-1.31,3.46.59-.21.98-.36,1.49-.55-.3-.87.84-1.76-.18-2.91Z"/><path class="cls-3" d="M405.84,136.06c-.71,2.15-2,3.95-3.32,5.72-1.86,2.5-3.76,4.97-5.76,7.35-2.61,3.11-5.43,6.05-8.52,8.69-1.61,1.37-3.38,2.55-5.1,3.79-.35.26-.63.56-1.29.25-.46-.22-1.29.34-2.17.62.19-.36.32-.62.44-.84-.38-.55-.75-1.08-1.22-1.75-.44.28-.91.58-1.59,1.02.35-1.43,1.46-1.82,2.34-2.53-.15-.39-.32-.81-.49-1.26-.91.22-1.41,1.27-2.54,1.05-.19-.93-.46-1.88.57-2.59,1.32-2.7,3.92-4.19,5.92-6.25,1.48-1.52,2.96-3.05,4.42-4.59.23-.24.36-.57.69-1.11-.48.19-.69.23-.86.34-5.9,3.77-11.88,7.43-17.68,11.34-4.72,3.18-9.23,6.68-13.31,10.67-1.16,1.13-2.16,2.43-3.16,3.7-.4.51-.61,1.16-.96,1.84,1.25.52,2.39.7,3.53.92.61.12,1.18.38,1.78.54.61.16,1.22.31,1.83.4.58.08,1.17.07,1.79.1-.46,1.41-1.76.26-2.58.95,1.58.21,3.03.49,4.49.58,2.88.16,5.78.08,8.65.34,2.37.22,4.72.77,7.07,1.2.66.12,1.33.29,1.95.56.9.39,1.76.87,2.62,1.34.24.13.4.39.64.49,1.73.68,2.78,2.09,3.79,3.54.13.18.28.35.57.71-.05-.54-.09-.89-.13-1.26.08,0,.19,0,.21.03.94,1.61,1.09,3.41,1.21,5.22,0,.13-.03.28-.08.39-1.03,2.03-1.68,4.25-3.3,5.98-2.66,2.84-5.33,5.65-8.62,7.78-2.77,1.8-5.69,3.32-8.72,4.63-5.63,2.44-11.43,4.21-17.57,4.77-2.79.26-5.5-.08-8.18-.82-.43-.12-.8-.4-1.21-.58-.42-.18-.8-.6-1.3-.01-.12.14-.81-.03-1.09-.25-1.98-1.47-4.25-2.67-5.04-5.27-.04-.13-.1-.26-.19-.36-1.74-2.21-1.43-4.67-.79-7.12.64-2.47,1.85-4.71,3.23-6.84,2.59-4.02,5.81-7.49,9.41-10.6.24-.21.48-.42.7-.64.09-.09.13-.23.17-.31-.4-.58-.73-1.18-1.17-1.67-.8-.9-.74-1.93-.44-2.93.49-1.64,1.03-3.27,1.71-4.83.37-.85,1.07-1.55,1.64-2.31,1.66-2.21,3.66-4.09,5.6-6.04.98-.99,1.97-1.99,2.99-2.94.89-.83,1.83-1.6,2.76-2.38.17-.14.39-.32.59-.32.91.03,1.49-.59,2.15-1.03,4.01-2.69,7.99-5.43,12.04-8.08,2.38-1.56,4.88-2.93,7.27-4.47,2.69-1.74,5.37-3.51,7.96-5.4.83-.61,1.7-1.13,2.53-1.72,1.05-.75,2.03-1.58,3.04-2.38,1.19-.95,2.37-1.92,3.63-2.94.52.63,1.17.5,1.86.42.66-.07,1.38-.11,1.98.09.54.18,1.19-.47,1.58.24.26.47.37,1.03.66,1.47,1.18,1.73.97,3.48.35,5.35ZM349.86,187.28c-1.93,2.21-3.69,4.57-4.93,7.26-.65,1.39-1.23,2.81-1.72,4.26-.41,1.19-.1,1.67,1.15,1.93,1.1.23,2.23.32,3.04.43,4.81-.34,9.17-1.28,13.41-2.72,3.98-1.35,7.86-2.94,11.5-5.07,2.7-1.59,5.23-3.39,7.38-5.68.61-.66,1.12-1.41,1.67-2.12.31-.39.39-.79.13-1.25-.88-1.55-1.87-2.97-3.53-3.82-1.55-.79-3.15-1.38-4.91-1.37-4.78.04-9.57.13-14.35.17-1.02,0-1.84.37-2.52,1.1-2.11,2.29-4.27,4.53-6.32,6.87ZM384.19,140.9c-1.66.83-1.93,1.03-2.44,1.84.94-.57,1.88-.95,2.44-1.84ZM385.27,140.54c-.54-.37-.67.06-.93.27.31-.09.62-.18.93-.27Z"/><path class="cls-3" d="M449.27,159.91c-.35.76-.61,1.57-.98,2.54h5.55c-.34.39-.53.6-.71.81.91.86,2.21,1.15,3.89.87.63.51.46.97-.33,1.49h1.71c-.49.37-.76.57-1.03.77.1.17.19.32.27.45-.09.09-.15.18-.22.21-1.73.61-3.4,1.3-4.95,2.31-1,.65-2.24.93-3.21,1.6-1.26.88-2.77,1.07-4.07,1.74-1.32.67-2.52,1.44-3.21,3.01-1.79,4.04-3.85,7.96-5.79,11.93-1.33,2.71-2.77,5.37-3.91,8.16-1.13,2.76-2.69,5.31-3.84,8.04-.49,1.16-1.41,1.94-1.91,3.03-.5,1.11-1.01,2.22-1.51,3.33-.3.66-.63,1.31-.85,1.99-.23.7-.67,1.28-1.32,1.44-.94.23-1.44.8-1.78,1.75-.29-.23-.49-.39-.69-.55.01,0,.02,0,.03,0-.05-.64-.09-1.29-.14-1.93-.85-.02-1.41.3-1.67,1.32-.26-.45-.47-.63-.46-.81.07-1.07-.38-2.09-.92-2.83-.98-1.34-.28-2.46.1-3.59,1.81-5.45,4.23-10.64,6.95-15.7,2.38-4.41,4.71-8.85,7.06-13.27.12-.23.21-.48.38-.87-.38.03-.64.01-.87.08-5.63,1.69-11.17,3.6-16.55,5.98-1.15.51-2.31,1.05-3.36,1.73-.57.37-1.05,1-1.36,1.62-2.62,5.3-5.19,10.62-7.78,15.94-.95,1.95-1.88,3.9-2.85,5.84-.51,1.02-1.25,1.83-2.34,2.26-.17-.2-.31-.36-.44-.52-.55.48-1.07.96-1.61,1.41-.35.29-.68.41-1.21.19-.49-.2-.74-.45-1.03-.86-.22-.3-.82-.2-.99-.87-.16-.64-.86-1.13-1.1-1.77-.84-2.22-.31-4.32.72-6.36,1.87-3.7,3.75-7.4,5.58-11.12.63-1.28,1.13-2.63,1.72-3.94.1-.23.35-.39.66-.71h-.85c-.34-.64-.75-1.18-.91-1.79-.14-.53-.15-1.01-.69-1.35-.12-.07-.01-.56.03-.86.07-.53.28-1.06.24-1.58-.09-1.48.42-2.53,1.8-3.09,1.21-.49,2.47-.84,3.71-1.25.26-.08.52-.14.79-.18,1.51-.2,2.47-1,3.15-2.4.68-1.41,1.5-2.81,2.51-4.01,2.74-3.25,4.98-6.85,7.3-10.39,1.82-2.77,4.17-5.09,6.14-7.72.98-1.3,1.99-2.57,3.08-3.77,1.08-1.2,2.29-2.29,3.43-3.44,2.09-2.11,4.1-4.31,6.29-6.32,2.48-2.29,5.03-4.52,7.88-6.36.8-.52,1.72-.94,2.13-1.95.13-.32.61-.52.95-.74,1.29-.83,2.6-1.62,3.87-2.47.45-.3.78-.78,1.24-1.04.49-.28,1.07-.39,1.58-.81-.36-.02-.71-.04-1.06-.06.02-.06.02-.18.07-.2,1.69-.77,3.43-1.35,5.31-1.48,1.44-.1,2.41.82,3.5,1.49.07.04.15.14.16.21.13,1.16.93,2.02,1.37,3.03.23.53.22,1.23.14,1.83-.69,5.13-2.92,9.73-5.1,14.33-1.81,3.82-3.87,7.52-5.42,11.47-.64,1.63-1.53,3.17-2.26,4.77ZM450.53,136.67c.62-1.35,1.21-2.7,1.82-4.06-.08-.1-.17-.19-.25-.29-.39.18-.8.32-1.16.55-1.07.67-2.17,1.31-3.16,2.09-2.27,1.77-4.62,3.47-6.7,5.45-2.54,2.42-4.92,5.02-7.2,7.68-2.33,2.72-4.47,5.61-6.66,8.46-.63.82-1.17,1.72-1.69,2.61-1.21,2.05-2.4,4.12-3.58,6.19-.82,1.43-1.61,2.88-2.57,4.6.9-.23,1.55-.36,2.17-.57,4.99-1.72,10.06-3.18,15.2-4.36.65-.15,1.06-.41,1.28-1.02.12-.34.3-.66.45-.99,4.03-8.77,8.05-17.55,12.07-26.32ZM421.01,213.61c-.19.4-.39.8-.58,1.2.6-.16.73-.6.58-1.2Z"/><path class="cls-3" d="M561.81,127.58c-.35.3-.67.57-1.05.9.32.19.54.32.78.47-.09.1-.17.21-.27.29-.2.16-.61.42-.6.43.41.67-.3,1.03-.46,1.52-.18.55-.67,1.01-1.06,1.49-.56.68-1.17,1.33-1.71,2.02-.1.13,0,.42.02.7-2.03,1.05-4.25,1.39-6.5,1.63-5.96.64-11.96,1.02-17.88,2.02-4.14.7-8.3,1.25-12.43,2-4.93.9-9.83,1.95-14.75,2.89-.8.15-1.27.55-1.67,1.21-3.66,6.08-6.91,12.38-10.04,18.74-2.48,5.02-4.98,10.03-7.41,15.08-1.68,3.49-3.24,7.05-4.87,10.56-1.58,3.4-3.21,6.77-4.75,10.19-1.54,3.42-3.07,6.84-4.48,10.31-.9,2.21-1.61,4.51-2.38,6.77-.17.5-.23.94-.93,1.13-.52.14-.9.8-1.47,1.33-.12-.4-.23-.75-.34-1.08.31-.17.55-.31.87-.49-.49-.33-.91-.6-1.31-.87-.55.09-.35,1.08-1.22.95.12-.43.23-.79.34-1.16-.63-.46-1.22-.82-1.97-.28-.15.11-.45.11-.65.05-.83-.27-1.62-.73-2.53-.25-.08.04-.34-.23-.57-.4-.16.27-.3.51-.44.74-.2-.61-.43-1.18-.57-1.77-.08-.33-.1-.72.01-1.03.74-2.18,1.47-4.36,2.31-6.5.85-2.18,1.8-4.33,2.74-6.48.58-1.32,1.23-2.61,1.84-3.92.75-1.63,1.31-3.38,2.29-4.85.79-1.19,1.68-2.24,1.79-3.72,1.08-.97,1.19-2.42,1.82-3.6.64-1.2,1.33-2.39,1.92-3.62,1.34-2.76,2.69-5.51,4.08-8.25,1.48-2.94,3.02-5.85,4.51-8.79,1.79-3.54,3.54-7.11,5.32-10.65.46-.93.94-1.85,1.47-2.74.57-.96.68-2,.94-3.25-.66.09-1.15.11-1.61.21-3.96.91-7.91,1.87-11.89,2.73-2.02.44-4.08.7-6.12,1.03-.11.02-.25-.06-.46-.12.17-.24.24-.35.32-.45-.03-.04-.05-.1-.08-.1-1.29-.27-2.59-.54-3.85-.8-.21-.37-.41-.72-.6-1.07.57.06,1.14-.24,1.51-1.02-.23-.34-.5-.73-.76-1.11.16-.09.38-.21.87-.48-.9-.34-1.58-.59-2.46-.91.57-.45,1.06-.83,1.63-1.28-.09-.08-.26-.22-.45-.38-.13-.39.79-.2.44-.8-.06-.11.37-.53.61-.78.24-.25.51-.48.84-.77-.3-.27-.55-.49-.83-.74.15-.14.23-.27.33-.3,3.74-.85,7.48-1.67,11.22-2.55,2.33-.54,4.62-1.24,6.97-1.71,1.88-.38,3.7-1.12,5.68-1.04.64.03,1.28-.4,1.94-.55.69-.15,1.41-.18,2.1-.33.74-.17,1.44-.49,2.18-.63,1.32-.26,2.66-.41,3.98-.66.74-.14,1.47-.38,2.21-.55,1.39-.31,2.79-.61,4.19-.9.36-.08.74-.4,1.12.05.09.11.46.11.6,0,.54-.37,1.16-.33,1.73-.49.98-.26,1.85-.02,2.77,0,1.16.02,2.33-.16,3.49-.33,2.89-.43,5.78-.91,8.67-1.35,2.18-.33,4.37-.62,6.56-.92.26-.04.57-.12.79-.02.67.32,1.25.49,1.76-.26.07-.11.44-.17.49-.11.55.64,1.08.12,1.64.07.57-.05,1.15.1,1.64-.35.08-.07.27-.04.4-.02,2.45.42,4.81-.37,7.22-.54,2.37-.16,4.75-.13,7.13-.2.98-.03,1.96-.1,3.08-.16-1.76,1.13-3.69.29-5.39.97,1.51.12,2.99.32,4.48.32,1.06,0,2.12-.26,3.18-.47,1.02-.2,1.01-.23,2.03.13h0ZM468.75,216.64c.02-.09.04-.19.05-.29-.32-.07-.64-.13-.95-.2l-.06.32c.32.06.64.11.96.16ZM541.02,128.85c.17-.07.33-.14.5-.2-.03-.07-.07-.21-.09-.2-.15.02-.3.06-.46.1.02.1.03.21.05.31ZM544.19,132.27c-.45-.06-.92-.57-1.61.1.7-.04,1.16-.07,1.61-.1ZM544.63,128.46c-.02-.12-.04-.24-.06-.36-.4-.04-.84-.25-1.3.47.59-.05.98-.08,1.36-.11ZM560.66,126.37c-.54.15-.8.24-1.08.29-.29.05-.6.06-.9.09.47-.63,1.04-.75,1.98-.38ZM559.25,133.7c.04.07.07.13.11.2-.07.04-.14.08-.21.12-.04-.07-.12-.15-.1-.2.02-.06.13-.08.19-.12Z"/><path class="cls-3" d="M530.36,163c.74.52,1.29,1.18,1.1,2.37-.36,2.25-1.39,4.11-2.53,6.01-1.23,2.04-2.29,4.2-3.24,6.39-1.93,4.42-3.71,8.91-5.62,13.34-.83,1.94-1.83,3.8-2.75,5.7-1.32,2.72-2.61,5.45-3.95,8.16-.26.54-.48,1.4-1.2,1.26-.85-.16-.39-1.05-.49-1.62,0-.04-.04-.08-.12-.21-.24.05-.51.11-.62.14-.12-.45-.21-.91-.36-1.34-.15-.42-.37-.81-.59-1.29-.54.23-1,.61-1.69.16-.62-.4-1.8.15-2.3.8-.33.43-.67.84-1.09,1.36-.39-.66-.7-1.24-.26-1.91.16-.24.44-.57.66-.56,1.16.06,1.81-.85,2.89-1.28-1.08-.61-1.89-.07-2.98.18.59-1.34,1.11-2.51,1.62-3.69,2.48-5.71,4.98-11.41,7.44-17.13,2.09-4.85,4.15-9.73,6.99-14.2.84-1.32,1.88-2.54,2.98-3.66,1.01-1.04,2.32-1.28,3.74-.71.39.16.86.11,1.4.17.05.61.36,1.1.97,1.53h0ZM546.55,130.42c.81.08,1.33.89,1.14,1.7-.11.47-.16.96-.23,1.45-.02.13.02.29-.03.4-.57,1.29-.99,2.69-1.76,3.86-2.5,3.78-4.73,7.68-6.18,11.99-.44,1.32-.8,2.67-1.31,3.97-.23.59-.76,1.06-1.18,1.63-.65-.34-1.23-.65-1.89-1,.42-1.02-.95-1.18-.98-2.04-1.09-.38-1.52-1.54-2.44-2.11-.16-.1-.43-.03-.64-.04-.52-1.44-.22-2.86.23-4.22,1.82-5.64,4.52-10.81,8.36-15.35.58-.68,1.27-1.28,1.97-1.84.75-.6,1.71-.52,2.44-.16.63.31,1.54.71,1.23,1.78.48,0,.88-.03,1.27,0h0Z"/><path class="cls-3" d="M589.56,140.14c.82,1.63,1.73,3.24,1.44,5.29-.44,3.12-1.49,6.04-2.54,8.97-.5,1.4-.85,2.84-1.3,4.26-.18.56-.44,1.09-.67,1.63-1.38,3.23-2.89,6.4-4.74,9.4-.94,1.53-1.78,3.12-2.79,4.61-2.7,4-5.67,7.78-9.14,11.16-4.4,4.28-9.35,7.84-14.84,10.56-2.5,1.23-5.08,2.44-8,2.21-2.89-.23-5.75-.64-8.3-2.15-.5-.3-1.01-.61-1.43-1.01-1.12-1.1-2.24-2.22-3.27-3.4-1.66-1.91-1.69-4.22-1.38-6.55.51-3.89,2.26-7.31,4.13-10.68,1.71-3.09,3.82-5.92,5.96-8.71,1.12-1.46,2.54-2.69,3.8-4.04.86-.92,1.67-1.89,2.54-2.82,1.7-1.81,3.41-3.6,5.15-5.37.2-.2.54-.26.83-.36-.23.29-.47.59-.79.98.68.06.91-.43,1.22-.72,2.01-1.88,4.04-3.75,6.01-5.67,3.68-3.61,8.06-6.06,12.83-7.88,2.23-.85,4.51-1.56,6.75-2.38,1.13-.42,2.2-.2,3.31.07.78.19,1.53.76,2.42.29.14-.07.48.04.63.18.76.7,1.74,1.3,2.18,2.17h0ZM581.85,146.09c-1.04.2-1.89.2-2.58.53-1.99.96-3.89,2.09-5.87,3.09-1.42.72-2.38,2.2-4.08,2.45-.86,1.19-2.4,1.43-3.38,2.47-.18.19-.4.39-.64.5-1.53.7-2.71,1.85-3.89,3-4.56,4.47-8.68,9.31-12.46,14.45-2.52,3.43-4.75,7.04-6.42,10.96-.47,1.11-1.08,2.23-.78,3.5.09.4.34.95.65,1.08.69.29,1.52.58,2.21.45,1.76-.33,3.56-.69,5.19-1.39,3.7-1.61,7.02-3.88,10.06-6.55,2.45-2.15,4.76-4.42,6.85-6.93,2.75-3.3,5.19-6.82,7.53-10.42,3.23-4.97,5.35-10.43,7.39-15.94.1-.28.11-.6.22-1.24ZM555.08,153.08s-.05.02-.08.03c.02-.02.03-.04.05-.06l.03.03Z"/><path class="cls-3" d="M645.18,132.49c.76.08,1.04.54.63,1.18-.38.6-.82,1.22-1.38,1.65-1.41,1.09-2.2,2.62-3,4.13-1.78,3.35-3.53,6.71-5.21,10.11-1.38,2.79-2.69,5.62-3.94,8.47-2.05,4.67-4.09,9.34-6,14.07-1.96,4.85-3.75,9.77-5.59,14.67-.7,1.86-1.31,3.75-2,5.61-.22.58-.61,1.1-.86,1.68-.34.78-.68,1.57-.91,2.38-1.3,4.51-2.58,9.02-3.86,13.53-.47,1.65-.89,3.31-1.41,4.94-.22.67-.65,1.27-.97,1.91-.36.71-.71,1.42-1.12,2.26-.27-.37-.47-.64-.83-1.14-.09.54-.14.84-.2,1.21-.17-.07-.39-.15-.6-.24-.89,1.29-1.26,1.48-2.12,1.12.22-.33.44-.66.8-1.2-.66-.14-1.15-.28-1.65-.36-1.15-.18-1.77-.75-2.03-1.91-.12-.52-.17-1.06-.32-1.58-.08-.27-.24-.61-.46-.72-.76-.36-.71-1.03-.37-1.46.42-.55.37-1.07.37-1.64.01-2.98-.18-5.98.08-8.93.36-4.13.89-8.27,1.64-12.35,1.23-6.7,2.61-13.38,4.07-20.03.94-4.27,1.83-8.56,3.39-12.67.17-.45.25-.95.16-1.55-.19.24-.42.46-.58.73-2.62,4.48-5.23,8.97-7.84,13.45-.81,1.4-1.56,2.84-2.44,4.2-.92,1.43-1.93,2.8-2.97,4.15-.2.26-.71.27-1.22.45.04-.47.08-.8.11-1.15-.13.02-.26,0-.28.04-.63,1.27-1.01,2.67-2.15,3.66-.15.13.15.61-.06,1.04-.9,1.86-1.68,3.77-2.49,5.67-.14.32-.13.71-.26,1.04-.24.63-.39,1.35-.81,1.83-1.05,1.19-1.45,2.68-2.09,4.05-.22.48-.43,1,0,1.53.07.08-.14.37-.21.57,0,0,0,0,0,0-.55,1.6-1.09,3.2-1.63,4.81-.01.04.11.12.22.22.7-.06.63-1.02,1.37-1.22-.5,1.9-1.17,3.66-2.12,5.29-.9,1.55-1.99,3-2.97,4.51-1.1,1.7-2.18,3.41-3.27,5.12-.48.76-.95,1.52-1.42,2.28-.06-.08-.11-.15-.16-.23-.55.2-1.14.33-1.64.62-.35.2-.6.33-.92.08h0c-.26.23-.52.45-.78.68-.05-.03-.11-.07-.16-.1.18-.42.37-.84.66-1.5-.73.09-1.27.16-1.94.25.06-.51.12-.98.19-1.55-.29-.02-.61-.04-1.07-.06.18-.58.32-1.09.49-1.59.17-.51.01-1.01-.42-1.15-.88-.28-.78-.89-.55-1.45,2.95-7.23,5.92-14.44,8.91-21.66.81-1.96,1.64-3.91,2.59-5.81,1.1-2.2,2.35-4.32,3.49-6.49.93-1.75,1.73-3.58,2.7-5.31,2.51-4.44,4.91-8.95,7.68-13.23,2-3.09,3.85-6.3,6.33-9.08,1.07-1.2,1.87-2.65,2.79-3.98,1.59-2.3,3.1-4.65,5.17-6.59,2.17-2.04,4.17-4.27,6.4-6.23,1.37-1.21,3-2.15,4.59-3.08.66-.39,1.54-.4,2.3-.63.32-.1.61-.34,1.1-.62.39.11,1.03.3,1.74.5v2.88c.08.02.15.04.22.06.15-.32.31-.64.46-.97.08.02.21.03.22.07.11.42.21.84.3,1.26.03.17-.05.45.04.51,1.29.94.61,2.08.25,3.09-.74,2.08-1.61,4.12-2.41,6.18-.72,1.85-1.39,3.72-2.15,5.56-.69,1.67-1.5,3.28-2.17,4.95-.88,2.17-1.75,4.36-2.52,6.57-.99,2.85-1.88,5.74-2.81,8.61-.09.29-.12.59,0,.94.77-1.77,1.53-3.54,2.31-5.31,2.62-5.95,5.47-11.79,8.56-17.52,2.19-4.05,4.25-8.17,6.41-12.24.59-1.11,1.34-2.15,2.08-3.17.56-.77,1.29-1.32,2.28-1.56.68-.16,1.3-.58,1.94-.88,0,0,0,0,0,.01,1.19-.48,1.33-.35,1.52,1.38.96-.22,1.93-.35,2.5.95-.33.06-.64.12-.94.18-.05.38-.11.76-.16,1.16.49.03.94.03,1.4.08h0ZM575.74,217.31c-.03.33-.07.66-.1.99.35-.24.53-.53.1-.99ZM583.62,210.67c.08.06.16.12.24.18-.28.42-.57.84-.85,1.26-.09-.06-.18-.12-.28-.18.29-.42.59-.84.88-1.26ZM587.42,197.87c.28-.37.51-.68.75-.99-.42.15-.97.18-.75.99ZM594.63,184.09c-.08.25-.15.5-.23.76-.05-.01-.1-.03-.15-.04.06-.24.12-.49.18-.73,0-.03.06-.07.1-.07.03,0,.06.04.1.08ZM596.5,180.06c.09,1.04-.67,1.18-1.16,1.44.34-.42.68-.84,1.16-1.44ZM607.73,217.48c-.07-.05-.13-.09-.2-.14-.14.17-.28.35-.42.52.08.06.17.12.25.19.12-.19.24-.38.36-.57ZM615.55,172.66c-.42.44-.57.96-.44,1.55.16-.57.31-1.06.44-1.55ZM640.85,128.76c-.25.39-.46.78-.12,1.25.93-.81.94-.89.12-1.25ZM643.91,131.24c-.05-.2-.1-.41-.19-.83-.49.49-.85.86-1.21,1.22l.18.22c.41-.2.81-.4,1.22-.61Z"/></svg>