<?xml version="1.0" encoding="UTF-8"?><svg id="Layer_1" xmlns="http://www.w3.org/2000/svg" xmlns:xlink="http://www.w3.org/1999/xlink" viewBox="0 0 558.17 217.24"><defs><style>.cls-1{clip-path:url(#clippath);}.cls-2{fill:none;}.cls-2,.cls-3,.cls-4{stroke-width:0px;}.cls-5{opacity:.2;}.cls-3{fill:#fff;}.cls-4{fill:#231f20;}</style><clipPath id="clippath"><rect class="cls-2" x="-3587.86" y="23.35" width="2001.75" height="827.64"/></clipPath></defs><path class="cls-3" d="M199.39,21.7c-.15.36-.36.76-.35,1.13.16,4.09-2.1,7.11-4.29,10.25-6.96,9.98-13.26,20.35-18.84,31.18-6.67,12.93-13.09,25.97-19,39.26-4.49,10.1-9.18,20.11-13.54,30.27-5.1,11.89-9.94,23.9-14.87,35.86-1.21,2.93-2.36,5.85-4.4,8.4-1.22,1.52-1.9,3.48-2.77,5.26-1.94,3.93-3.89,7.84-5.76,11.81-.74,1.56-1.84,2.72-3.2,3.71-1.86,1.35-3.67.59-4-1.7-.1-.69-.21-1.38-.37-2.35-1.6,1.38-2.66,2.3-4.24,3.67.19-1.87.77-3.3.3-3.94-.57-.76-2.05-.85-3.41-1.32-.85,1.65-1.65,3.21-2.74,5.34v-2.91c-.98-.22-1.93-.43-2.83-.62-.76-2.66-.01-4.87,1.21-7.17,4.82-9.05,9.69-18.08,14.12-27.33,2.92-6.09,5.14-12.52,7.65-18.81,3.37-8.42,6.71-16.84,10.09-25.26,4.34-10.81,8.63-21.64,13.08-32.4,2.29-5.52,4.9-10.9,7.34-16.36.22-.5.28-1.07.57-2.21-.86.61-1.27.82-1.56,1.13-9.73,10.54-19.38,21.16-27.74,32.85-3.48,4.86-6.67,9.91-10.04,14.85-6.06,8.89-12.06,17.81-18.26,26.61-3.5,4.96-7.36,9.66-12.02,13.63-.44.38-.95.68-1.53,1.09-2.1-1.37-4.25-1.88-6.77-1.17-1.37.39-2.96-.03-4.45-.07-2.39-.07-3.74-1.88-4.55-3.57-1.37-2.86-1.98-6.07-.87-9.25,1.01-2.91,2.08-5.82,3.37-8.61,1.87-4.07,4.13-7.97,5.91-12.07,2.01-4.66,3.68-9.46,5.48-14.21.53-1.39,1.04-2.8,1.52-4.21.57-1.66,1.1-3.34,1.78-5.42-.7.32-1.02.37-1.15.55-3.78,5.5-7.83,10.84-11.23,16.57-6.04,10.19-11.82,20.55-17.45,30.97-4.11,7.61-7.76,15.48-11.73,23.18-1.98,3.83-4.48,7.34-8.09,9.83-4.31,2.97-8.78,3.81-13.85,1.5-4.23-1.93-5.96-5.04-5.88-9.39.02-1.23.38-2.58.98-3.65,3.91-7.05,7.97-14.01,11.9-21.05,3.1-5.55,5.97-11.25,9.16-16.75,2.49-4.29,5.27-8.43,8.03-12.56,4.32-6.45,8.58-12.94,13.16-19.2,5.4-7.39,11.12-14.55,16.71-21.81,3.46-4.5,6.9-9,10.41-13.47,2.51-3.2,5.12-6.32,8.11-9.16-1.9,2.65-3.8,5.29-5.7,7.94.12.11.25.21.37.31,2.03-2.43,4.09-4.82,6.08-7.29,3.86-4.8,7.57-9.72,11.53-14.43,2.1-2.5,4.3-4.84,5.83-7.83,2.02-3.95,2.24-3.84,8.12-7.42.35.9.68,1.76,1.03,2.67.77-.58,1.52-1.15,2.76-2.08-.39,1.34-.62,2.11-.92,3.12,1.82-.89,3.43-1.67,5.08-2.47,1.17,1.79,2.29,3.48,3.74,5.71-.43,3.53-1.29,7.67-2.87,11.66-2.01,5.09-3.87,10.23-5.85,15.33-1.83,4.72-3.72,9.4-5.58,14.11-.21.53-.39,1.07-.66,1.83,1.66.05,2.21-1.2,2.95-1.96,6.54-6.7,12.98-13.5,19.54-20.18,3-3.05,6.09-6.02,9.31-8.84,2.29-2.01,4.96-3.59,7.29-5.55,3.28-2.75,6.23-5.92,9.64-8.48,5.39-4.07,11.05-7.78,16.6-11.65.73-.51,1.72-.84,2.15-1.54,1.68-2.73,4.5-3.45,7.23-4.35,1.45-.48,3.87,1.12,5.19,3.39,1.39-.92,2.86-1.85,4.76-.56-.84,2.34,1.63,3.05,2.69,4.46.87,1.16,1.12,1.94.61,3.15ZM156.12,34.59l-.54-.54c-.42.39-.83.77-1.77,1.64,1.21-.58,1.76-.84,2.31-1.1ZM158.78,32.12c.64-.66,1.28-1.32,1.92-1.97-1.16.03-1.72.79-1.92,1.97ZM169.71,22.78c-3.23,2.58-6.6,4.18-8.81,7.23,3.35-1.63,7.47-4.89,8.81-7.23Z"/><path class="cls-3" d="M301.47,52.35c-.97,6.89-3.29,13.31-5.59,19.78-1.09,3.08-1.87,6.27-2.87,9.38-.39,1.23-.97,2.4-1.48,3.58-3.05,7.13-6.37,14.12-10.45,20.73-2.08,3.36-3.93,6.88-6.14,10.15-5.95,8.82-12.51,17.16-20.14,24.6-9.7,9.44-20.61,17.28-32.73,23.28-5.5,2.72-11.19,5.38-17.64,4.87-6.38-.5-12.67-1.41-18.31-4.75-1.11-.65-2.24-1.34-3.15-2.24-2.47-2.43-4.93-4.89-7.2-7.51-3.65-4.2-3.72-9.3-3.05-14.43,1.12-8.57,4.98-16.12,9.1-23.54,3.78-6.81,8.41-13.06,13.14-19.22,2.47-3.22,5.59-5.92,8.38-8.9,1.9-2.04,3.68-4.18,5.59-6.21,3.75-3.98,7.52-7.94,11.35-11.84.43-.44,1.18-.57,1.83-.8-.51.64-1.04,1.29-1.73,2.15,1.5.14,2-.94,2.69-1.58,4.43-4.15,8.91-8.26,13.24-12.51,8.12-7.95,17.78-13.37,28.29-17.37,4.92-1.87,9.95-3.44,14.89-5.26,2.49-.92,4.86-.45,7.3.15,1.73.42,3.37,1.67,5.33.64.32-.17,1.06.09,1.38.39,1.68,1.54,3.84,2.87,4.8,4.79,1.81,3.59,3.81,7.13,3.17,11.66ZM281.29,53.81c-2.29.44-4.17.43-5.69,1.17-4.39,2.11-8.59,4.61-12.93,6.81-3.14,1.59-5.25,4.85-9,5.4-1.89,2.62-5.3,3.16-7.45,5.44-.4.43-.87.86-1.4,1.09-3.38,1.54-5.98,4.08-8.57,6.62-10.05,9.85-19.15,20.52-27.47,31.87-5.55,7.57-10.47,15.51-14.17,24.16-1.04,2.44-2.38,4.92-1.72,7.72.21.88.74,2.09,1.44,2.38,1.52.63,3.35,1.29,4.88,1,3.88-.72,7.85-1.51,11.44-3.07,8.17-3.55,15.47-8.56,22.18-14.44,5.4-4.74,10.5-9.75,15.1-15.28,6.06-7.28,11.44-15.04,16.59-22.98,7.11-10.96,11.8-23,16.29-35.14.23-.62.24-1.33.48-2.73ZM222.28,69.23c-.06.02-.12.05-.18.07.04-.05.08-.1.11-.14l.06.07Z"/><path class="cls-3" d="M426.6,31.34c-.11,1.36-.13,2.84-.7,4.03-3.24,6.82-6.64,13.57-9.97,20.36-7.13,14.57-14.16,29.19-20.34,44.19-2.61,6.34-5.28,12.66-7.91,18.99-1.06,2.56-1.55,5.55-3.23,7.6-3,3.67-3.11,8.27-4.89,12.31-1.95,4.4-2.86,9.28-4.1,13.98-4.01,15.3-7.96,30.62-13.15,45.58-.42,1.22-.77,2.47-1.05,3.73-.52,2.38-1.2,4.61-3.83,5.56.15-1.3.32-2.71.48-4.11-.19-.04-.39-.09-.58-.13-1.15,3.79-2.31,7.58-3.47,11.38-.21,0-.43,0-.64-.01-.22-1.15-.44-2.31-.82-4.24-.71,1.32-1.02,2.08-1.52,2.71-.13.17-.7-.02-1.12-.07.02.03.03.05.05.08-2,.04-1.74,2.21-2.74,2.97-2.06.34-3.94.65-6,.99,0-1.35,0-2.33,0-3.31,0-.59.25-1.26.05-1.76-1.24-3.08-.26-6.01.33-9.02,1.95-9.98,4.83-19.7,8.54-29.14,5.96-15.14,9.25-31.07,14.19-46.51,3.06-9.56,6.45-19.02,9.69-28.53.44-1.3.86-2.6,1.15-3.95-7.74,11.77-14.86,23.88-21.76,36.12-4.54,8.06-9.14,16.1-13.91,24.03-2.3,3.83-4.78,7.63-7.69,10.99-2.36,2.73-5.38,4.97-8.35,7.08-1.16.83-2.99.73-4.52,1.04-.9,1.31-2.17,1.38-3.63,1.15-1.02-.17-2.09-.03-3.66-.03-.24-.69-.55-1.73-.96-2.73-.36-.88-.31-1.82-1.43-2.5-1.76-1.06-2.53-2.96-2.31-5.09.36-3.33.57-6.69,1.25-9.95.37-1.79,1.47-3.46,2.4-5.1,1.9-3.36,4.33-6.5,5.79-10.04,4.65-11.3,8.96-22.74,13.4-34.13-.17-.11-.35-.22-.52-.34-.21.2-.5.36-.63.6-5.16,9.66-10.3,19.33-15.48,28.97-7.11,13.23-14.1,26.54-21.49,39.61-2.82,4.99-6.55,9.46-10,14.08-.64.86-1.89,1.28-2.86,1.89-.16.1-.46.07-.54.2-1.63,2.55-4.69,2.17-7,3.34-.71.36-1.74.11-2.68,0-.1.04-.2.08-.31.12.28.31.58.65,1.09,1.21-1.15.49-2.1.89-3.06,1.29-.08-.12-.16-.24-.24-.36.65-.68,1.29-1.35,1.93-2.04-1.32.49-2.67,1-4.19,1.57-.37-.46-.96-1.21-1.65-2.08.54-.07.91-.13,1.4-.19.05-1.08.1-2.19.17-3.47-.62.15-1.25.31-1.94.48-.3-.81-.6-1.62-1.04-2.8.11-.14.53-.66,1-1.25-.41-.57-.83-1.16-1.24-1.73.62-.91,1.17-1.72,1.72-2.51.17-.24.53-.64.47-.71-1.39-1.74.58-2.28,1.07-3.55-1.22.55-2.44,1.11-3.65,1.66-.1-.09-.2-.19-.29-.28.89-.93,1.75-1.9,2.68-2.8,1.98-1.92,3.93-3.75,5.13-6.44,1.15-2.58,3.3-4.69,4.79-7.13,2.96-4.83,5.76-9.77,8.65-14.64,2.64-4.45,5.22-8.94,8.01-13.28,2.08-3.24,4.69-6.15,6.66-9.44,4.34-7.25,8.39-14.68,12.63-21.99,7.69-13.25,15.92-26.17,24.85-38.61,4.28-5.97,8.56-11.98,13.25-17.63,4.94-5.95,10.05-11.83,16.9-15.8.77-.45,1.53-.96,2.16-1.59,1.72-1.71,3.48-2.77,6.05-.02.18-1.66.27-2.53.37-3.41,1.49-.33,1,1.12,1.64,1.92.9-.3,1.88-.63,2.92-.98,1.18,1.59.02,3.14-.38,4.99.68-.36,1.36-.72,2.09-1.11.23.2.53.34.65.57.6,1.16,0,2.82,1.65,3.61.31.15.37,1.34.17,1.91-1.05,2.99-2.01,6.05-3.38,8.9-5.22,10.85-10.59,21.62-15.9,32.42-.16.33-.25.7.1,1.37.57-.81,1.18-1.6,1.71-2.44,7.52-11.99,16.01-23.27,24.98-34.2,5.28-6.43,11.34-12.03,18.26-16.6,2.48-1.64,4.94-3.64,8.37-3.37.84.07,1.79-1.24,2.86-2.03.52-.1,1.33-.32,2.16-.41.74-.08,1.62-.28,2.21.03,1.02.53.61,1.51.26,2.36-.07.17,0,.39,0,.53.75.32,1.74.43,2.09.96.43.65.33,1.65.4,2.51,0,.03-.43.09-.72.15.08.47.15.95.25,1.54.58.08,1.34-.02,1.79.31.39.28.63,1.07.59,1.6ZM268.13,194.2s-.05,0-.08,0h.06s.01,0,.02,0ZM271.16,191.75c-1.59-.07-1.69.97-1.69,2.11,0,0,0,0,0,0,.55-.69,1.1-1.37,1.68-2.1ZM318.78,174.2c-.05-.25-.06-.55-.21-.71-.2-.22-.54-.34-.84-.44-.06-.02-.34.34-.31.39.17.25.37.52.63.65.21.11.48.09.73.11ZM350.51,209.59c-.81,1.09-1.5,2.2-.76,3.56,1.66-.9.75-2.32.76-3.56ZM371.34,165.42c-.63.35-.87.96-.73,1.81.26-.64.46-1.14.73-1.81ZM373.21,156.87c.02-.07-.24-.21-.37-.32-.15.19-.33.37-.44.58-.02.04.24.21.46.4.13-.23.29-.44.35-.66ZM420.68,22.44c-.16-.05-.33-.1-.49-.15-.13.44-.26.88-.38,1.32.16.05.31.1.47.14.14-.44.27-.88.41-1.31ZM423.89,27.8c0-.5,0-1.02,0-1.9-1.03,1.06-1.03,1.58,0,1.9Z"/><path class="cls-3" d="M511.17,138.15c-.34,2.26,1.52,2.49,3.48,2.74-2.16,4.18-5.82,6.18-9.19,8.67,1.35.88,2.52,1.63,3.64,2.36-6.66,6.08-14.32,9.67-22.31,12.79-9.43,3.67-18.74,7.67-28.15,11.41-4.47,1.78-9.08,3.24-13.59,4.91-1.3.48-2.5,1.21-3.74,1.85-.4.2-.79.69-1.16.65-2.39-.21-4.25,1.15-6.24,2.05-5.14,2.34-10.61,2.63-16.12,2.81-1.86.06-3.7.25-5.64.38-1.3-.78-2.77-1.67-4.25-2.55-.3-.18-.72-.26-.91-.51-2.65-3.53-4.93-7.3-4.39-11.92.46-3.98,3.15-6.58,6.61-8.1,4.84-2.12,9.82-3.91,14.76-5.79,10.67-4.06,21.28-8.28,32.04-12.07,7.76-2.74,15.73-4.88,23.6-7.3,1.57-.49,3.09-1.17,4.69-1.54,4.8-1.11,9.6-2.31,14.46-3.06,2.21-.34,4.53.07,6.75,1.18,1.57.79,3.59.69,5.64,1.03h0ZM542.11,78.36c-.85.76-1.7,1.51-2.71,2.41.6.57,1.08,1.01,1.63,1.52-1.07.78-2.13,1.56-3.53,2.58,1.22.52,1.92.82,2.61,1.11-.09.33-.09.65-.22.74-.88.58-1.76,1.19-2.7,1.64-.83.39-1.62.45-1.67,1.81-.02.68-1.37,1.45-2.26,1.93-1.86.99-4.24,1.39-5.64,2.8-2.91,2.92-6.58,3.79-10.23,4.84-9.96,2.87-20.02,5.45-29.92,8.53-5.95,1.85-11.69,4.39-17.49,6.69-3.95,1.56-7.77,3.46-11.78,4.8-5.79,1.94-11.7,3.53-17.57,5.25-.67.2-1.7.62-2.02.34-2.53-2.25-6.31-.76-8.85-3.32-2.38-2.4-4.55-4.64-4.76-8.23-.09-1.49-.96-2.97-.86-4.42.19-2.75,1.78-4.81,4.24-6.1,1.88-.98,3.77-1.98,5.72-2.81,19.96-8.53,40.29-15.96,61.51-20.74,7.58-1.71,15.15-3.49,22.76-5.08,1.4-.29,2.95.11,4.43.24.69.06,1.45.45,2.06.28,4.91-1.38,9.82-.65,14.86-.12-1.4,1.17-3.62.45-4.33,3.1,1.27.07,2.36.22,3.44.16,1-.06,1.99-.33,3.31.05ZM558.17,18.13v4.37c-3.18,4-8.15,5.1-12.8,6.54-9.88,3.06-19.95,5.54-29.82,8.62-10.1,3.16-20.11,6.64-30.08,10.21-6.86,2.46-13.58,5.33-20.38,7.96-1.31.51-2.72.72-4.4,1.15-.13-.58-.23-1.05-.36-1.61-3.56-.53-7.15-1.06-11.2-1.67-.79-.95-1.89-2.51-3.23-3.82-4.39-4.31-1.82-9.12,1.47-11.87,2.14-1.78,4.73-3.1,7.24-4.38,15.8-8.08,32.38-14.15,49.52-18.57,7.96-2.06,16.12-3.39,24.25-4.73,2.71-.45,5.59.17,8.39.13,2.81-.04,5.61-.29,8.42-.45.05.11.1.22.15.33-2.08.62-4.16,1.23-6.25,1.85.05.21.09.42.14.62,3.3-.69,6.61-1.38,9.92-2.08.1.3.2.59.31.89l-4.39,1.65c.04.23.08.47.12.7,2.02-.22,4.07-.74,6.06-.57,1.77.15,3.48,1.06,5.48,1.73-.05,1.08-.89,2.94,1.45,3Z"/><path class="cls-4" d="M189.39,11.7c-.15.36-.36.76-.35,1.13.16,4.09-2.1,7.11-4.29,10.25-6.96,9.98-13.26,20.35-18.84,31.18-6.67,12.93-13.09,25.97-19,39.26-4.49,10.1-9.18,20.11-13.54,30.27-5.1,11.89-9.94,23.9-14.87,35.86-1.21,2.93-2.36,5.85-4.4,8.4-1.22,1.52-1.9,3.48-2.77,5.26-1.94,3.93-3.89,7.84-5.76,11.81-.74,1.56-1.84,2.72-3.2,3.71-1.86,1.35-3.67.59-4-1.7-.1-.69-.21-1.38-.37-2.35-1.6,1.38-2.66,2.3-4.24,3.67.19-1.87.77-3.3.3-3.94-.57-.76-2.05-.85-3.41-1.32-.85,1.65-1.65,3.21-2.74,5.34v-2.91c-.98-.22-1.93-.43-2.83-.62-.76-2.66-.01-4.87,1.21-7.17,4.82-9.05,9.69-18.08,14.12-27.33,2.92-6.09,5.14-12.52,7.65-18.81,3.37-8.42,6.71-16.84,10.09-25.26,4.34-10.81,8.63-21.64,13.08-32.4,2.29-5.52,4.9-10.9,7.34-16.36.22-.5.28-1.07.57-2.21-.86.61-1.27.82-1.56,1.13-9.73,10.54-19.38,21.16-27.74,32.85-3.48,4.86-6.67,9.91-10.04,14.85-6.06,8.89-12.06,17.81-18.26,26.61-3.5,4.96-7.36,9.66-12.02,13.63-.44.38-.95.68-1.53,1.09-2.1-1.37-4.25-1.88-6.77-1.17-1.37.39-2.96-.03-4.45-.07-2.39-.07-3.74-1.88-4.55-3.57-1.37-2.86-1.98-6.07-.87-9.25,1.01-2.91,2.08-5.82,3.37-8.61,1.87-4.07,4.13-7.97,5.91-12.07,2.01-4.66,3.68-9.46,5.48-14.21.53-1.39,1.04-2.8,1.52-4.21.57-1.66,1.1-3.34,1.78-5.42-.7.32-1.02.37-1.15.55-3.78,5.5-7.83,10.84-11.23,16.57-6.04,10.19-11.82,20.55-17.45,30.97-4.11,7.61-7.76,15.48-11.73,23.18-1.98,3.83-4.48,7.34-8.09,9.83-4.31,2.97-8.78,3.81-13.85,1.5C1.65,167.75-.08,164.64,0,160.3c.02-1.23.38-2.58.98-3.65,3.91-7.05,7.97-14.01,11.9-21.05,3.1-5.55,5.97-11.25,9.16-16.75,2.49-4.29,5.27-8.43,8.03-12.56,4.32-6.45,8.58-12.94,13.16-19.2,5.4-7.39,11.12-14.55,16.71-21.81,3.46-4.5,6.9-9,10.41-13.47,2.51-3.2,5.12-6.32,8.11-9.16-1.9,2.65-3.8,5.29-5.7,7.94.12.11.25.21.37.31,2.03-2.43,4.09-4.82,6.08-7.29,3.86-4.8,7.57-9.72,11.53-14.43,2.1-2.5,4.3-4.84,5.83-7.83,2.02-3.95,2.24-3.84,8.12-7.42.35.9.68,1.76,1.03,2.67.77-.58,1.52-1.15,2.76-2.08-.39,1.34-.62,2.11-.92,3.12,1.82-.89,3.43-1.67,5.08-2.47,1.17,1.79,2.29,3.48,3.74,5.71-.43,3.53-1.29,7.67-2.87,11.66-2.01,5.09-3.87,10.23-5.85,15.33-1.83,4.72-3.72,9.4-5.58,14.11-.21.53-.39,1.07-.66,1.83,1.66.05,2.21-1.2,2.95-1.96,6.54-6.7,12.98-13.5,19.54-20.18,3-3.05,6.09-6.02,9.31-8.84,2.29-2.01,4.96-3.59,7.29-5.55,3.28-2.75,6.23-5.92,9.64-8.48,5.39-4.07,11.05-7.78,16.6-11.65.73-.51,1.72-.84,2.15-1.54,1.68-2.73,4.5-3.45,7.23-4.35,1.45-.48,3.87,1.12,5.19,3.39,1.39-.92,2.86-1.85,4.76-.56-.84,2.34,1.63,3.05,2.69,4.46.87,1.16,1.12,1.94.61,3.15ZM146.12,24.59l-.54-.54c-.42.39-.83.77-1.77,1.64,1.21-.58,1.76-.84,2.31-1.1ZM148.78,22.12c.64-.66,1.28-1.32,1.92-1.97-1.16.03-1.72.79-1.92,1.97ZM159.71,12.78c-3.23,2.58-6.6,4.18-8.81,7.23,3.35-1.63,7.47-4.89,8.81-7.23Z"/><path class="cls-4" d="M291.47,42.35c-.97,6.89-3.29,13.31-5.59,19.78-1.09,3.08-1.87,6.27-2.87,9.38-.39,1.23-.97,2.4-1.48,3.58-3.05,7.13-6.37,14.12-10.45,20.73-2.08,3.36-3.93,6.88-6.14,10.15-5.95,8.82-12.51,17.16-20.14,24.6-9.7,9.44-20.61,17.28-32.73,23.28-5.5,2.72-11.19,5.38-17.64,4.87-6.38-.5-12.67-1.41-18.31-4.75-1.11-.65-2.24-1.34-3.15-2.24-2.47-2.43-4.93-4.89-7.2-7.51-3.65-4.2-3.72-9.3-3.05-14.43,1.12-8.57,4.98-16.12,9.1-23.54,3.78-6.81,8.41-13.06,13.14-19.22,2.47-3.22,5.59-5.92,8.38-8.9,1.9-2.04,3.68-4.18,5.59-6.21,3.75-3.98,7.52-7.94,11.35-11.84.43-.44,1.18-.57,1.83-.8-.51.64-1.04,1.29-1.73,2.15,1.5.14,2-.94,2.69-1.58,4.43-4.15,8.91-8.26,13.24-12.51,8.12-7.95,17.78-13.37,28.29-17.37,4.92-1.87,9.95-3.44,14.89-5.26,2.49-.92,4.86-.45,7.3.15,1.73.42,3.37,1.67,5.33.64.32-.17,1.06.09,1.38.39,1.68,1.54,3.84,2.87,4.8,4.79,1.81,3.59,3.81,7.13,3.17,11.66ZM271.29,43.81c-2.29.44-4.17.43-5.69,1.17-4.39,2.11-8.59,4.61-12.93,6.81-3.14,1.59-5.25,4.85-9,5.4-1.89,2.62-5.3,3.16-7.45,5.44-.4.43-.87.86-1.4,1.09-3.38,1.54-5.98,4.08-8.57,6.62-10.05,9.85-19.15,20.52-27.47,31.87-5.55,7.57-10.47,15.51-14.17,24.16-1.04,2.44-2.38,4.92-1.72,7.72.21.88.74,2.09,1.44,2.38,1.52.63,3.35,1.29,4.88,1,3.88-.72,7.85-1.51,11.44-3.07,8.17-3.55,15.47-8.56,22.18-14.44,5.4-4.74,10.5-9.75,15.1-15.28,6.06-7.28,11.44-15.04,16.59-22.98,7.11-10.96,11.8-23,16.29-35.14.23-.62.24-1.33.48-2.73ZM212.28,59.23c-.06.02-.12.05-.18.07.04-.05.08-.1.11-.14l.06.07Z"/><path class="cls-4" d="M416.6,21.34c-.11,1.36-.13,2.84-.7,4.03-3.24,6.82-6.64,13.57-9.97,20.36-7.13,14.57-14.16,29.19-20.34,44.19-2.61,6.34-5.28,12.66-7.91,18.99-1.06,2.56-1.55,5.55-3.23,7.6-3,3.67-3.11,8.27-4.89,12.31-1.95,4.4-2.86,9.28-4.1,13.98-4.01,15.3-7.96,30.62-13.15,45.58-.42,1.22-.77,2.47-1.05,3.73-.52,2.38-1.2,4.61-3.83,5.56.15-1.3.32-2.71.48-4.11-.19-.04-.39-.09-.58-.13-1.15,3.79-2.31,7.58-3.47,11.38-.21,0-.43,0-.64-.01-.22-1.15-.44-2.31-.82-4.24-.71,1.32-1.02,2.08-1.52,2.71-.13.17-.7-.02-1.12-.07.02.03.03.05.05.08-2,.04-1.74,2.21-2.74,2.97-2.06.34-3.94.65-6,.99,0-1.35,0-2.33,0-3.31,0-.59.25-1.26.05-1.76-1.24-3.08-.26-6.01.33-9.02,1.95-9.98,4.83-19.7,8.54-29.14,5.96-15.14,9.25-31.07,14.19-46.51,3.06-9.56,6.45-19.02,9.69-28.53.44-1.3.86-2.6,1.15-3.95-7.74,11.77-14.86,23.88-21.76,36.12-4.54,8.06-9.14,16.1-13.91,24.03-2.3,3.83-4.78,7.63-7.69,10.99-2.36,2.73-5.38,4.97-8.35,7.08-1.16.83-2.99.73-4.52,1.04-.9,1.31-2.17,1.38-3.63,1.15-1.02-.17-2.09-.03-3.66-.03-.24-.69-.55-1.73-.96-2.73-.36-.88-.31-1.82-1.43-2.5-1.76-1.06-2.53-2.96-2.31-5.09.36-3.33.57-6.69,1.25-9.95.37-1.79,1.47-3.46,2.4-5.1,1.9-3.36,4.33-6.5,5.79-10.04,4.65-11.3,8.96-22.74,13.4-34.13-.17-.11-.35-.22-.52-.34-.21.2-.5.36-.63.6-5.16,9.66-10.3,19.33-15.48,28.97-7.11,13.23-14.1,26.54-21.49,39.61-2.82,4.99-6.55,9.46-10,14.08-.64.86-1.89,1.28-2.86,1.89-.16.1-.46.07-.54.2-1.63,2.55-4.69,2.17-7,3.34-.71.36-1.74.11-2.68,0-.1.04-.2.08-.31.12.28.31.58.65,1.09,1.21-1.15.49-2.1.89-3.06,1.29-.08-.12-.16-.24-.24-.36.65-.68,1.29-1.35,1.93-2.04-1.32.49-2.67,1-4.19,1.57-.37-.46-.96-1.21-1.65-2.08.54-.07.91-.13,1.4-.19.05-1.08.1-2.19.17-3.47-.62.15-1.25.31-1.94.48-.3-.81-.6-1.62-1.04-2.8.11-.14.53-.66,1-1.25-.41-.57-.83-1.16-1.24-1.73.62-.91,1.17-1.72,1.72-2.51.17-.24.53-.64.47-.71-1.39-1.74.58-2.28,1.07-3.55-1.22.55-2.44,1.11-3.65,1.66-.1-.09-.2-.19-.29-.28.89-.93,1.75-1.9,2.68-2.8,1.98-1.92,3.93-3.75,5.13-6.44,1.15-2.58,3.3-4.69,4.79-7.13,2.96-4.83,5.76-9.77,8.65-14.64,2.64-4.45,5.22-8.94,8.01-13.28,2.08-3.24,4.69-6.15,6.66-9.44,4.34-7.25,8.39-14.68,12.63-21.99,7.69-13.25,15.92-26.17,24.85-38.61,4.28-5.97,8.56-11.98,13.25-17.63,4.94-5.95,10.05-11.83,16.9-15.8.77-.45,1.53-.96,2.16-1.59,1.72-1.71,3.48-2.77,6.05-.02.18-1.66.27-2.53.37-3.41,1.49-.33,1,1.12,1.64,1.92.9-.3,1.88-.63,2.92-.98,1.18,1.59.02,3.14-.38,4.99.68-.36,1.36-.72,2.09-1.11.23.2.53.34.65.57.6,1.16,0,2.82,1.65,3.61.31.15.37,1.34.17,1.91-1.05,2.99-2.01,6.05-3.38,8.9-5.22,10.85-10.59,21.62-15.9,32.42-.16.33-.25.7.1,1.37.57-.81,1.18-1.6,1.71-2.44,7.52-11.99,16.01-23.27,24.98-34.2,5.28-6.43,11.34-12.03,18.26-16.6,2.48-1.64,4.94-3.64,8.37-3.37.84.07,1.79-1.24,2.86-2.03.52-.1,1.33-.32,2.16-.41.74-.08,1.62-.28,2.21.03,1.02.53.61,1.51.26,2.36-.07.17,0,.39,0,.53.75.32,1.74.43,2.09.96.43.65.33,1.65.4,2.51,0,.03-.43.09-.72.15.08.47.15.95.25,1.54.58.08,1.34-.02,1.79.31.39.28.63,1.07.59,1.6ZM258.13,184.2s-.05,0-.08,0h.06s.01,0,.02,0ZM261.16,181.75c-1.59-.07-1.69.97-1.69,2.11,0,0,0,0,0,0,.55-.69,1.1-1.37,1.68-2.1ZM308.78,164.2c-.05-.25-.06-.55-.21-.71-.2-.22-.54-.34-.84-.44-.06-.02-.34.34-.31.39.17.25.37.52.63.65.21.11.48.09.73.11ZM340.51,199.59c-.81,1.09-1.5,2.2-.76,3.56,1.66-.9.75-2.32.76-3.56ZM361.34,155.42c-.63.35-.87.96-.73,1.81.26-.64.46-1.14.73-1.81ZM363.21,146.87c.02-.07-.24-.21-.37-.32-.15.19-.33.37-.44.58-.02.04.24.21.46.4.13-.23.29-.44.35-.66ZM410.68,12.44c-.16-.05-.33-.1-.49-.15-.13.44-.26.88-.38,1.32.16.05.31.1.47.14.14-.44.27-.88.41-1.31ZM413.89,17.8c0-.5,0-1.02,0-1.9-1.03,1.06-1.03,1.58,0,1.9Z"/><path class="cls-4" d="M501.17,128.15c-.34,2.26,1.52,2.49,3.48,2.74-2.16,4.18-5.82,6.18-9.19,8.67,1.35.88,2.52,1.63,3.64,2.36-6.66,6.08-14.32,9.67-22.31,12.79-9.43,3.67-18.74,7.67-28.15,11.41-4.47,1.78-9.08,3.24-13.59,4.91-1.3.48-2.5,1.21-3.74,1.85-.4.2-.79.69-1.16.65-2.39-.21-4.25,1.15-6.24,2.05-5.14,2.34-10.61,2.63-16.12,2.81-1.86.06-3.7.25-5.64.38-1.3-.78-2.77-1.67-4.25-2.55-.3-.18-.72-.26-.91-.51-2.65-3.53-4.93-7.3-4.39-11.92.46-3.98,3.15-6.58,6.61-8.1,4.84-2.12,9.82-3.91,14.76-5.79,10.67-4.06,21.28-8.28,32.04-12.07,7.76-2.74,15.73-4.88,23.6-7.3,1.57-.49,3.09-1.17,4.69-1.54,4.8-1.11,9.6-2.31,14.46-3.06,2.21-.34,4.53.07,6.75,1.18,1.57.79,3.59.69,5.64,1.03h0ZM532.11,68.36c-.85.76-1.7,1.51-2.71,2.41.6.57,1.08,1.01,1.63,1.52-1.07.78-2.13,1.56-3.53,2.58,1.22.52,1.92.82,2.61,1.11-.09.33-.09.65-.22.74-.88.58-1.76,1.19-2.7,1.64-.83.39-1.62.45-1.67,1.81-.02.68-1.37,1.45-2.26,1.93-1.86.99-4.24,1.39-5.64,2.8-2.91,2.92-6.58,3.79-10.23,4.84-9.96,2.87-20.02,5.45-29.92,8.53-5.95,1.85-11.69,4.39-17.49,6.69-3.95,1.56-7.77,3.46-11.78,4.8-5.79,1.94-11.7,3.53-17.57,5.25-.67.2-1.7.62-2.02.34-2.53-2.25-6.31-.76-8.85-3.32-2.38-2.4-4.55-4.64-4.76-8.23-.09-1.49-.96-2.97-.86-4.42.19-2.75,1.78-4.81,4.24-6.1,1.88-.98,3.77-1.98,5.72-2.81,19.96-8.53,40.29-15.96,61.51-20.74,7.58-1.71,15.15-3.49,22.76-5.08,1.4-.29,2.95.11,4.43.24.69.06,1.45.45,2.06.28,4.91-1.38,9.82-.65,14.86-.12-1.4,1.17-3.62.45-4.33,3.1,1.27.07,2.36.22,3.44.16,1-.06,1.99-.33,3.31.05ZM548.17,8.13v4.37c-3.18,4-8.15,5.1-12.8,6.54-9.88,3.06-19.95,5.54-29.82,8.62-10.1,3.16-20.11,6.64-30.08,10.21-6.86,2.46-13.58,5.33-20.38,7.96-1.31.51-2.72.72-4.4,1.15-.13-.58-.23-1.05-.36-1.61-3.56-.53-7.15-1.06-11.2-1.67-.79-.95-1.89-2.51-3.23-3.82-4.39-4.31-1.82-9.12,1.47-11.87,2.14-1.78,4.73-3.1,7.24-4.38,15.8-8.08,32.38-14.15,49.52-18.57,7.96-2.06,16.12-3.39,24.25-4.73,2.71-.45,5.59.17,8.39.13,2.81-.04,5.61-.29,8.42-.45.05.11.1.22.15.33-2.08.62-4.16,1.23-6.25,1.85.05.21.09.42.14.62,3.3-.69,6.61-1.38,9.92-2.08.1.3.2.59.31.89l-4.39,1.65c.04.23.08.47.12.7,2.02-.22,4.07-.74,6.06-.57,1.77.15,3.48,1.06,5.48,1.73-.05,1.08-.89,2.94,1.45,3Z"/><g class="cls-1"><image class="cls-5" width="15215" height="8421" transform="translate(-3693.4 -582.09) scale(.25)" xlink:href="../../../Tri State Generation and Transmission Association Dropbox/Communications/PROJECTS/Events/_Annual Meeting/2024/Assets/White BG Chart_XL.png"/></g></svg>