<?xml version="1.0" encoding="UTF-8"?><svg id="Layer_1" xmlns="http://www.w3.org/2000/svg" viewBox="0 0 514.54 217.36"><defs><style>.cls-1{fill:#fff;}.cls-1,.cls-2{stroke-width:0px;}.cls-2{fill:#231f20;}</style></defs><path class="cls-1" d="M171.57,23.96c1.67.18,2.29,1.19,1.39,2.59-.84,1.33-1.82,2.69-3.04,3.64-3.12,2.41-4.84,5.79-6.61,9.1-3.92,7.38-7.78,14.79-11.49,22.29-3.04,6.15-5.93,12.39-8.68,18.67-4.51,10.3-9.03,20.6-13.22,31.03-4.31,10.7-8.27,21.54-12.33,32.33-1.54,4.09-2.88,8.26-4.41,12.36-.48,1.29-1.34,2.43-1.89,3.69-.75,1.72-1.49,3.45-2.01,5.25-2.88,9.93-5.69,19.89-8.52,29.83-1.03,3.63-1.96,7.29-3.12,10.88-.47,1.48-1.43,2.81-2.14,4.22-.8,1.56-1.56,3.14-2.48,4.98-.6-.83-1.03-1.42-1.83-2.52-.19,1.2-.3,1.86-.44,2.67-.37-.15-.85-.34-1.32-.53-1.97,2.84-2.78,3.27-4.67,2.48.48-.72.97-1.45,1.76-2.64-1.46-.32-2.54-.61-3.64-.79-2.53-.4-3.91-1.66-4.48-4.21-.26-1.16-.38-2.35-.71-3.48-.17-.59-.53-1.35-1.02-1.59-1.67-.8-1.57-2.26-.82-3.23.93-1.2.8-2.37.81-3.63.03-6.57-.39-13.18.17-19.69.79-9.11,1.96-18.23,3.61-27.23,2.7-14.77,5.76-29.49,8.98-44.16,2.07-9.41,4.03-18.88,7.48-27.94.38-1,.54-2.09.35-3.42-.43.53-.93,1.02-1.27,1.6-5.78,9.88-11.54,19.77-17.29,29.66-1.8,3.09-3.44,6.26-5.37,9.26-2.03,3.15-4.25,6.19-6.54,9.16-.44.57-1.57.6-2.69.99.1-1.05.17-1.77.23-2.53-.29.04-.58,0-.62.1-1.38,2.8-2.22,5.9-4.75,8.07-.33.28.33,1.35-.14,2.3-1.97,4.09-3.71,8.3-5.49,12.49-.31.71-.3,1.56-.57,2.3-.52,1.38-.85,2.98-1.78,4.03-2.31,2.62-3.2,5.91-4.62,8.94-.49,1.05-.94,2.2.01,3.36.14.17-.3.83-.47,1.26,0,0,0,0-.02,0-1.2,3.53-2.41,7.06-3.59,10.6-.02.08.25.26.48.49,1.55-.13,1.39-2.26,3.02-2.69-1.11,4.18-2.58,8.07-4.67,11.66-1.99,3.43-4.39,6.62-6.56,9.95-2.43,3.74-4.81,7.51-7.2,11.28-1.06,1.67-2.08,3.35-3.13,5.03-.12-.17-.24-.34-.36-.51-1.22.44-2.52.73-3.62,1.37-.76.45-1.32.73-2.03.17h0c-.57.5-1.15,1-1.72,1.49-.12-.07-.23-.14-.35-.21.41-.92.81-1.84,1.46-3.3-1.62.2-2.79.35-4.29.55.14-1.12.27-2.16.42-3.42-.64-.04-1.35-.08-2.37-.14.4-1.29.71-2.41,1.09-3.51.38-1.12.02-2.23-.91-2.53-1.94-.63-1.72-1.98-1.22-3.2,6.5-15.93,13.05-31.85,19.64-47.75,1.79-4.32,3.63-8.63,5.71-12.81,2.42-4.84,5.18-9.52,7.7-14.31,2.04-3.87,3.81-7.89,5.96-11.7,5.53-9.79,10.83-19.74,16.94-29.17,4.41-6.8,8.5-13.89,13.95-20.03,2.35-2.65,4.11-5.84,6.15-8.78,3.51-5.07,6.84-10.25,11.41-14.53,4.79-4.49,9.2-9.4,14.12-13.74,3.02-2.67,6.61-4.75,10.11-6.79,1.46-.85,3.39-.87,5.06-1.39.72-.22,1.34-.74,2.44-1.38.86.25,2.26.65,3.82,1.1v6.35c.17.04.33.09.5.14.34-.71.67-1.42,1.01-2.13.17.05.47.06.49.15.25.93.47,1.86.66,2.79.08.38-.11.99.09,1.13,2.85,2.07,1.34,4.59.55,6.81-1.62,4.6-3.54,9.09-5.32,13.63-1.59,4.08-3.07,8.21-4.73,12.25-1.51,3.68-3.3,7.24-4.79,10.92-1.95,4.79-3.85,9.6-5.55,14.49-2.18,6.29-4.15,12.65-6.19,18.99-.2.63-.26,1.31,0,2.08,1.7-3.9,3.38-7.82,5.1-11.71,5.77-13.13,12.06-26,18.88-38.63,4.82-8.94,9.36-18.02,14.14-26.98,1.31-2.45,2.94-4.73,4.58-6.98,1.24-1.7,2.84-2.92,5.03-3.43,1.5-.35,2.86-1.28,4.28-1.95,0,0,0,.02-.02.03,2.62-1.06,2.93-.77,3.35,3.05,2.11-.48,4.26-.78,5.51,2.1-.74.14-1.41.26-2.07.39-.12.84-.23,1.68-.36,2.56,1.07.06,2.08.06,3.07.17h0ZM18.47,210.97c-.07.73-.15,1.46-.22,2.18.76-.53,1.17-1.17.22-2.18ZM35.84,196.32c.18.14.36.27.53.4-.62.93-1.25,1.85-1.87,2.77-.2-.14-.41-.27-.61-.4.65-.93,1.3-1.85,1.95-2.77ZM44.22,168.12c.63-.83,1.14-1.51,1.64-2.19-.92.33-2.14.41-1.64,2.19ZM60.12,137.72c-.17.55-.34,1.11-.5,1.67-.11-.03-.22-.06-.34-.08.13-.54.25-1.08.4-1.61.02-.07.14-.15.22-.15.06,0,.13.1.22.18ZM64.25,128.83c.19,2.3-1.47,2.59-2.55,3.18.75-.93,1.49-1.86,2.55-3.18ZM89,211.35c-.15-.1-.29-.2-.44-.3-.31.38-.61.76-.92,1.15.19.14.37.27.56.41.27-.42.53-.84.8-1.26ZM106.24,112.52c-.92.97-1.25,2.11-.98,3.42.36-1.26.67-2.34.98-3.42ZM162.03,15.74c-.56.85-1.01,1.71-.26,2.76,2.04-1.79,2.07-1.96.26-2.76ZM168.77,21.19c-.11-.44-.21-.91-.42-1.83-1.07,1.08-1.87,1.89-2.66,2.69l.4.48c.89-.45,1.79-.89,2.68-1.34Z"/><path class="cls-1" d="M382.44,13.13c-.78.66-1.47,1.26-2.32,1.99.71.42,1.19.71,1.72,1.03-.2.22-.37.47-.59.64-.45.35-1.35.92-1.34.95.91,1.48-.66,2.28-1.01,3.34-.39,1.22-1.47,2.23-2.33,3.28-1.23,1.51-2.57,2.92-3.76,4.46-.22.28,0,.94.04,1.54-4.49,2.31-9.37,3.06-14.33,3.6-13.15,1.42-26.37,2.25-39.43,4.46-9.12,1.54-18.3,2.76-27.4,4.41-10.87,1.98-21.67,4.31-32.52,6.37-1.77.34-2.8,1.21-3.67,2.66-8.07,13.4-15.24,27.29-22.15,41.31-5.46,11.08-10.99,22.12-16.35,33.25-3.71,7.71-7.14,15.53-10.74,23.29-3.47,7.49-7.07,14.93-10.48,22.46-3.4,7.53-6.76,15.09-9.88,22.74-2,4.88-3.55,9.94-5.26,14.93-.38,1.11-.52,2.07-2.06,2.49-1.15.32-1.99,1.75-3.24,2.94-.27-.89-.51-1.65-.74-2.38.68-.38,1.22-.69,1.92-1.08-1.09-.72-2-1.33-2.89-1.92-1.22.21-.78,2.38-2.69,2.1.27-.94.51-1.74.75-2.55-1.38-1.01-2.69-1.8-4.34-.61-.33.24-1,.24-1.43.1-1.82-.6-3.56-1.62-5.58-.55-.19.1-.74-.5-1.26-.87-.35.59-.67,1.13-.96,1.62-.44-1.34-.95-2.6-1.26-3.91-.17-.72-.21-1.59.02-2.28,1.64-4.8,3.25-9.62,5.09-14.34,1.88-4.81,3.96-9.55,6.04-14.29,1.27-2.91,2.72-5.75,4.05-8.64,1.66-3.58,2.9-7.44,5.05-10.69,1.73-2.62,3.7-4.94,3.95-8.21,2.39-2.13,2.63-5.33,4.01-7.94,1.41-2.66,2.92-5.27,4.24-7.99,2.95-6.08,5.94-12.15,8.98-18.18,3.27-6.48,6.67-12.89,9.94-19.37,3.94-7.81,7.8-15.67,11.72-23.49,1.02-2.05,2.07-4.08,3.23-6.05,1.25-2.11,1.51-4.42,2.07-7.15-1.47.19-2.53.23-3.55.47-8.74,2-17.45,4.13-26.21,6.03-4.45.96-8.99,1.54-13.49,2.27-.25.04-.54-.14-1.02-.27.37-.52.54-.76.7-1-.06-.08-.1-.21-.18-.23-2.85-.6-5.7-1.18-8.48-1.75-.46-.82-.89-1.6-1.32-2.36,1.26.13,2.52-.52,3.32-2.25-.52-.75-1.1-1.6-1.68-2.45.35-.19.83-.47,1.91-1.06-1.99-.74-3.49-1.3-5.42-2.01,1.27-.99,2.33-1.83,3.59-2.82-.19-.16-.58-.49-.99-.85-.29-.85,1.73-.45.97-1.75-.13-.23.82-1.16,1.34-1.71.53-.56,1.13-1.05,1.85-1.7-.67-.59-1.21-1.08-1.84-1.63.33-.3.5-.6.73-.65,8.24-1.88,16.5-3.69,24.73-5.61,5.14-1.2,10.2-2.73,15.36-3.77,4.15-.84,8.15-2.47,12.53-2.29,1.41.06,2.83-.89,4.28-1.21,1.52-.34,3.1-.39,4.62-.74,1.62-.37,3.18-1.07,4.81-1.39,2.91-.57,5.86-.91,8.78-1.45,1.64-.3,3.24-.84,4.87-1.2,3.08-.69,6.16-1.35,9.24-1.98.8-.17,1.64-.88,2.47.12.19.23,1.02.23,1.33.02,1.19-.81,2.56-.74,3.82-1.08,2.15-.58,4.08-.04,6.12-.02,2.56.04,5.15-.35,7.7-.72,6.38-.94,12.75-2.01,19.13-2.97,4.81-.73,9.64-1.37,14.46-2.04.58-.08,1.26-.25,1.73-.03,1.47.7,2.76,1.09,3.88-.57.16-.23.97-.38,1.09-.24,1.2,1.41,2.38.27,3.61.16,1.26-.12,2.54.22,3.62-.78.17-.15.59-.1.88-.05,5.41.93,10.61-.83,15.91-1.19,5.22-.35,10.48-.29,15.72-.45,2.16-.07,4.32-.22,6.8-.34-3.88,2.48-8.13.65-11.88,2.15,3.32.25,6.6.71,9.87.69,2.34-.01,4.68-.58,7-1.04,2.24-.44,2.23-.51,4.46.29h0ZM177.26,209.5c.04-.21.08-.42.12-.63-.7-.15-1.4-.29-2.11-.44l-.13.71c.71.12,1.41.24,2.12.36ZM336.6,15.94c.37-.15.74-.3,1.1-.45-.07-.16-.15-.45-.21-.45-.34.03-.67.14-1,.21.04.23.08.46.11.68ZM343.58,23.48c-1-.13-2.03-1.25-3.54.22,1.55-.1,2.55-.16,3.54-.22ZM344.55,15.08c-.04-.26-.09-.53-.13-.79-.88-.08-1.85-.55-2.87,1.04,1.3-.11,2.15-.18,3-.25ZM379.91,10.45c-1.19.32-1.77.53-2.38.63-.65.12-1.32.14-1.98.2,1.04-1.38,2.3-1.65,4.36-.84ZM376.78,26.62c.08.15.17.29.25.44-.15.09-.31.18-.46.26-.08-.15-.26-.33-.22-.44.05-.12.28-.18.43-.27Z"/><path class="cls-1" d="M386.33,67.56c.52,1.44,1.14,3.32.63,4.55-.79,1.9-2.37,3.56-3.87,5.06-1.51,1.51-3.81,2.24-4,4.92-.06.79-.92,1.5-1.36,2.28-1.01,1.79-1.99,3.59-3.22,5.82-1.82.21-3.28,1.09-2.8,4.07.17,1.07-1.33,2.59-2.34,3.62-1.23,1.24-2.06,2.4-1.06,4.18-1.4,1.71-2.57,3.33-2.92,5.65-.25,1.67-1.78,3.29-3.09,4.58-.77.76-1.43,1.4-1.93,2.42-1.36,2.74-2.67,5.62-4.6,7.95-2.05,2.47-4.19,4.77-5.22,7.87-.06.18-.19.38-.35.47-2.67,1.63-3.68,4.4-5.07,6.98-1.09,2.02-2.77,3.71-4.14,5.58-1.69,2.3-3.31,4.64-4.99,6.93-5.12,6.96-10.57,13.6-17.12,19.33-5.08,4.44-10.85,7.61-17.02,10.14-1.43.59-2.92,1.19-4.43,1.34-1.43.14-2.92-.29-4.38-.52-.76-.12-1.49-.48-2.24-.49-1.32-.03-2.38-.04-3.3-1.41-.53-.8-2.1-.96-3.24-1.29-1.36-.38-2.56-.87-3.57-1.99-.61-.68-1.71-.92-2.61-1.32-.85-.38-2.09-.42-1.22-1.97.13-.22-.66-1.13-1.17-1.52-2.91-2.24-3.57-5.88-5.51-8.71.9-1.8-.82-3.24-.65-4.99.19-1.88-.09-3.8.14-5.67.36-2.95.73-5.94,1.53-8.79,2.97-10.51,6.02-21,9.24-31.44,1.55-5.03,3.44-9.97,5.34-14.88.75-1.92,1.94-3.68,2.98-5.48,1.19-2.05,2.43-4.06,3.65-6.09.66-1.09,1.22-2.21,2.78-2.43.58-.08,1.15-.92,1.56-1.53,1.94-2.9,2.56-2.98,5.96-1.66.93.36,2.24-.23,3.41-.4,2.25,2.2,2.55,5.05.9,8.54.37.09.68.21,1,.22.27,0,.55-.11.81-.17.65,1.77.14,3.2-.62,4.81-1.47,3.12-2.45,6.47-3.79,9.66-4.5,10.68-7.57,21.79-10.15,33.05-1.31,5.71-2.04,11.55-2.98,17.34-.17,1.03-.02,2.11-.02,3.72,1.66-.84,3.07-1.32,4.22-2.17,5.62-4.17,10.63-9,15.1-14.38,6.8-8.21,13.09-16.8,18.93-25.72.22-.33.45-.65.72-.95,7.4-8.22,13.15-17.68,19.98-26.31,1.46-1.84,3.17-3.45,4.11-5.7.48-1.15.72-.9,2.49-1.33.87-.21,2.38.63,2.64-1.12h-1.37v-.53h1.67s.01.14.01.14c-.07.16-.18.27-.34.34,0,0,0,0,0,0,0,0,0,0,0,0,.51.53,1.03,1.06,1.54,1.58.14-.17.28-.33.42-.5-.54-.47-1.08-.95-1.62-1.42v-.14c-1-2.25.69-3.78,1.89-4.94,2.11-2.06,2.8-4.62,3.75-7.18,1.05-2.86,2.51-5.5,4.82-7.98.99,1.72,1.81,3.13,2.65,4.59,1.2-1.07,2.19-1.96,3.12-2.8,2.57,1.76-1.21,3.11,0,4.88.87.38,1.73.76,2.78,1.22.56-.84,1.03-1.56,1.52-2.29.09.05.24.11.37.2.49.37.97,1.05,1.47,1.06,2.18.04,3.53,1.26,4.19,3.09ZM270.47,156.5h-.21v1.34c.07,0,.14,0,.21,0v-1.33ZM347.01,102.95c-1.74-.47-2.42-.09-2.74,1.46.95-.51,1.65-.88,2.74-1.46ZM348.22,116.3c-.81,1.5-1.63,3-2.44,4.51,1.33-1.26,2.86-2.44,2.44-4.51ZM347.91,113.97c-.73.32-1.03.35-1.16.52-.15.19-.17.5-.24.75.13.05.25.1.37.15.24-.33.48-.66,1.03-1.42ZM353.22,108.95c-.2-.06-.4-.12-.59-.19-1.44,2.45-2.88,4.89-4.31,7.35.36-.08.78-.1.96-.32,1.41-1.74,2.79-3.51,4.08-5.34.22-.32-.08-.99-.14-1.5ZM351.96,97.07c.1.11.19.21.28.32.33-.28.67-.57,1-.85l-.29-.34c-.33.29-.66.58-.99.87ZM352.92,90.96c-.11.39-.22.78-.32,1.17.19.04.38.08.58.11.05-.4.11-.8.17-1.21l-.42-.07h0ZM355.99,105.18c-.6.52-1.43.87-1.5,1.78.18.11.37.21.56.32.31-.7.63-1.4.95-2.1ZM359.37,99.49c-1.3.19-1.59.94-1.82,2.03-.24,1.17-.87,2.26-1.34,3.38.7-.07,1.38-.15,1.82-.19.5-1.96.9-3.54,1.33-5.22ZM357.99,85.12c.26.17.51.34.77.51.16-.45.44-.9.42-1.34-.02-.36-.4-.7-.62-1.05-.36.24-.92.42-1.03.75-.1.29.29.75.46,1.13ZM358.35,95.53c-.17,0-.35.3-.53.47.22.12.43.24.62.35.19-.15.32-.25.45-.34-.18-.17-.36-.47-.54-.47ZM364.96,93.31c-.71-.19-.96-.31-1.22-.32-.16,0-.45.16-.45.25,0,.23.13.45.21.68.22-.09.45-.19,1.46-.61ZM366.52,84.86c.51-.79.93-1.42,1.63-2.48-1.34.33-2.09.6-2.14,1.68-.01.21.26.43.51.81ZM368.43,86.9c-.21-.23-.41-.47-.62-.71-.4.41-.8.83-1.2,1.24.15.17.3.33.45.5.46-.34.91-.69,1.37-1.04ZM380.45,61.26c-.16-.22-.26-.37-.36-.51.22-.14.44-.3.69-.41.03-.01.29.35.26.39-.16.2-.38.35-.58.53ZM387.31,62.12c-.05.42-.1.84-.15,1.26-.21-.06-.42-.12-.63-.18.1-.39.21-.78.31-1.16.16.03.31.06.47.08Z"/><path class="cls-1" d="M514.53,31.46c-.11,1.36-.13,2.84-.7,4.03-3.24,6.82-6.64,13.57-9.97,20.36-7.13,14.57-14.16,29.19-20.34,44.19-2.61,6.34-5.28,12.66-7.91,18.99-1.06,2.56-1.55,5.55-3.23,7.6-3,3.67-3.11,8.27-4.89,12.31-1.95,4.4-2.86,9.28-4.1,13.98-4.01,15.3-7.96,30.62-13.15,45.58-.42,1.22-.77,2.47-1.05,3.73-.52,2.38-1.2,4.61-3.83,5.56.15-1.3.32-2.71.48-4.11-.19-.04-.39-.09-.58-.13-1.15,3.79-2.31,7.58-3.47,11.38-.21,0-.43,0-.64-.01-.22-1.15-.44-2.31-.82-4.24-.71,1.32-1.02,2.08-1.52,2.71-.13.17-.7-.02-1.12-.07.02.03.03.05.05.08-2,.04-1.74,2.21-2.74,2.97-2.06.34-3.94.65-6,.99,0-1.35,0-2.33,0-3.31,0-.59.25-1.26.05-1.76-1.24-3.08-.26-6.01.33-9.02,1.95-9.98,4.83-19.7,8.54-29.14,5.96-15.14,9.25-31.07,14.19-46.51,3.06-9.56,6.45-19.02,9.69-28.53.44-1.3.86-2.6,1.15-3.95-7.74,11.77-14.86,23.88-21.76,36.12-4.54,8.06-9.14,16.1-13.91,24.03-2.3,3.83-4.78,7.63-7.69,10.99-2.36,2.73-5.38,4.97-8.35,7.08-1.16.83-2.99.73-4.52,1.04-.9,1.31-2.17,1.38-3.63,1.15-1.02-.17-2.09-.03-3.66-.03-.24-.69-.55-1.73-.96-2.73-.36-.88-.31-1.82-1.43-2.5-1.76-1.06-2.53-2.96-2.31-5.09.36-3.33.57-6.69,1.25-9.95.37-1.79,1.47-3.46,2.4-5.1,1.9-3.36,4.33-6.5,5.79-10.04,4.65-11.3,8.96-22.74,13.4-34.13-.17-.11-.35-.22-.52-.34-.21.2-.5.36-.63.6-5.16,9.66-10.3,19.33-15.48,28.97-7.11,13.23-14.1,26.54-21.49,39.61-2.82,4.99-6.55,9.46-10,14.08-.64.86-1.89,1.28-2.86,1.89-.16.1-.46.07-.54.2-1.63,2.55-4.69,2.17-7,3.34-.71.36-1.74.11-2.68,0-.1.04-.2.08-.31.12.28.31.58.65,1.09,1.21-1.15.49-2.1.89-3.06,1.29-.08-.12-.16-.24-.24-.36.65-.68,1.29-1.35,1.93-2.04-1.32.49-2.67,1-4.19,1.57-.37-.46-.96-1.21-1.65-2.08.54-.07.91-.13,1.4-.19.05-1.08.1-2.19.17-3.47-.62.15-1.25.31-1.94.48-.3-.81-.6-1.62-1.04-2.8.11-.14.53-.66,1-1.25-.41-.57-.83-1.16-1.24-1.73.62-.91,1.17-1.72,1.72-2.51.17-.24.53-.64.47-.71-1.39-1.74.58-2.28,1.07-3.55-1.22.55-2.44,1.11-3.65,1.66-.1-.09-.2-.19-.29-.28.89-.93,1.75-1.9,2.68-2.8,1.98-1.92,3.93-3.75,5.13-6.44,1.15-2.58,3.3-4.69,4.79-7.13,2.96-4.83,5.76-9.77,8.65-14.64,2.64-4.45,5.22-8.94,8.01-13.28,2.08-3.24,4.69-6.15,6.66-9.44,4.34-7.25,8.39-14.68,12.63-21.99,7.69-13.25,15.92-26.17,24.85-38.61,4.28-5.97,8.56-11.98,13.25-17.63,4.94-5.95,10.05-11.83,16.9-15.8.77-.45,1.53-.96,2.16-1.59,1.72-1.71,3.48-2.77,6.05-.02.18-1.66.27-2.53.37-3.41,1.49-.33,1,1.12,1.64,1.92.9-.3,1.88-.63,2.92-.98,1.18,1.59.02,3.14-.38,4.99.68-.36,1.36-.72,2.09-1.11.23.2.53.34.65.57.6,1.16,0,2.82,1.65,3.61.31.15.37,1.34.17,1.91-1.05,2.99-2.01,6.05-3.38,8.9-5.22,10.85-10.59,21.62-15.9,32.42-.16.33-.25.7.1,1.37.57-.81,1.18-1.6,1.71-2.44,7.52-11.99,16.01-23.27,24.98-34.2,5.28-6.43,11.34-12.03,18.26-16.6,2.48-1.64,4.94-3.64,8.37-3.37.84.07,1.79-1.24,2.86-2.03.52-.1,1.33-.32,2.16-.41.74-.08,1.62-.28,2.21.03,1.02.53.61,1.51.26,2.36-.07.17,0,.39,0,.53.75.32,1.74.43,2.09.96.43.65.33,1.65.4,2.51,0,.03-.43.09-.72.15.08.47.15.95.25,1.54.58.08,1.34-.02,1.79.31.39.28.63,1.07.59,1.6ZM356.06,194.33s-.05,0-.08,0h.06s.01,0,.02,0ZM359.09,191.87c-1.59-.07-1.69.97-1.69,2.11,0,0,0,0,0,0,.55-.69,1.1-1.37,1.68-2.1ZM406.72,174.32c-.05-.25-.06-.55-.21-.71-.2-.22-.54-.34-.84-.44-.06-.02-.34.34-.31.39.17.25.37.52.63.65.21.11.48.09.73.11ZM438.45,209.72c-.81,1.09-1.5,2.2-.76,3.56,1.66-.9.75-2.32.76-3.56ZM459.28,165.54c-.63.35-.87.96-.73,1.81.26-.64.46-1.14.73-1.81ZM461.15,157c.02-.07-.24-.21-.37-.32-.15.19-.33.37-.44.58-.02.04.24.21.46.4.13-.23.29-.44.35-.66ZM508.61,22.57c-.16-.05-.33-.1-.49-.15-.13.44-.26.88-.38,1.32.16.05.31.1.47.14.14-.44.27-.88.41-1.31ZM511.82,27.93c0-.5,0-1.02,0-1.9-1.03,1.06-1.03,1.58,0,1.9Z"/><path class="cls-2" d="M161.57,13.96c1.67.18,2.29,1.19,1.39,2.59-.84,1.33-1.82,2.69-3.04,3.64-3.12,2.41-4.84,5.79-6.61,9.1-3.92,7.38-7.78,14.79-11.49,22.29-3.04,6.15-5.93,12.39-8.68,18.67-4.51,10.3-9.03,20.6-13.22,31.03-4.31,10.7-8.27,21.54-12.33,32.33-1.54,4.09-2.88,8.26-4.41,12.36-.48,1.29-1.34,2.43-1.89,3.69-.75,1.72-1.49,3.45-2.01,5.25-2.88,9.93-5.69,19.89-8.52,29.83-1.03,3.63-1.96,7.29-3.12,10.88-.47,1.48-1.43,2.81-2.14,4.22-.8,1.56-1.56,3.14-2.48,4.98-.6-.83-1.03-1.42-1.83-2.52-.19,1.2-.3,1.86-.44,2.67-.37-.15-.85-.34-1.32-.53-1.97,2.84-2.78,3.27-4.67,2.48.48-.72.97-1.45,1.76-2.64-1.46-.32-2.54-.61-3.64-.79-2.53-.4-3.91-1.66-4.48-4.21-.26-1.16-.38-2.35-.71-3.48-.17-.59-.53-1.35-1.02-1.59-1.67-.8-1.57-2.26-.82-3.23.93-1.2.8-2.37.81-3.63.03-6.57-.39-13.18.17-19.69.79-9.11,1.96-18.23,3.61-27.23,2.7-14.77,5.76-29.49,8.98-44.16,2.07-9.41,4.03-18.88,7.48-27.94.38-1,.54-2.09.35-3.42-.43.53-.93,1.02-1.27,1.6-5.78,9.88-11.54,19.77-17.29,29.66-1.8,3.09-3.44,6.26-5.37,9.26-2.03,3.15-4.25,6.19-6.54,9.16-.44.57-1.57.6-2.69.99.1-1.05.17-1.77.23-2.53-.29.04-.58,0-.62.1-1.38,2.8-2.22,5.9-4.75,8.07-.33.28.33,1.35-.14,2.3-1.97,4.09-3.71,8.3-5.49,12.49-.31.71-.3,1.56-.57,2.3-.52,1.38-.85,2.98-1.78,4.03-2.31,2.62-3.2,5.91-4.62,8.94-.49,1.05-.94,2.2.01,3.36.14.17-.3.83-.47,1.26,0,0,0,0-.02,0-1.2,3.53-2.41,7.06-3.59,10.6-.02.08.25.26.48.49,1.55-.13,1.39-2.26,3.02-2.69-1.11,4.18-2.58,8.07-4.67,11.66-1.99,3.43-4.39,6.62-6.56,9.95-2.43,3.74-4.81,7.51-7.2,11.28-1.06,1.67-2.08,3.35-3.13,5.03-.12-.17-.24-.34-.36-.51-1.22.44-2.52.73-3.62,1.37-.76.45-1.32.73-2.03.17h0c-.57.5-1.15,1-1.72,1.49-.12-.07-.23-.14-.35-.21.41-.92.81-1.84,1.46-3.3-1.62.2-2.79.35-4.29.55.14-1.12.27-2.16.42-3.42-.64-.04-1.35-.08-2.37-.14.4-1.29.71-2.41,1.09-3.51.38-1.12.02-2.23-.91-2.53-1.94-.63-1.72-1.98-1.22-3.2,6.5-15.93,13.05-31.85,19.64-47.75,1.79-4.32,3.63-8.63,5.71-12.81,2.42-4.84,5.18-9.52,7.7-14.31,2.04-3.87,3.81-7.89,5.96-11.7,5.53-9.79,10.83-19.74,16.94-29.17,4.41-6.8,8.5-13.89,13.95-20.03,2.35-2.65,4.11-5.84,6.15-8.78,3.51-5.07,6.84-10.25,11.41-14.53,4.79-4.49,9.2-9.4,14.12-13.74,3.02-2.67,6.61-4.75,10.11-6.79,1.46-.85,3.39-.87,5.06-1.39.72-.22,1.34-.74,2.44-1.38.86.25,2.26.65,3.82,1.1v6.35c.17.04.33.09.5.14.34-.71.67-1.42,1.01-2.13.17.05.47.06.49.15.25.93.47,1.86.66,2.79.08.38-.11.99.09,1.13,2.85,2.07,1.34,4.59.55,6.81-1.62,4.6-3.54,9.09-5.32,13.63-1.59,4.08-3.07,8.21-4.73,12.25-1.51,3.68-3.3,7.24-4.79,10.92-1.95,4.79-3.85,9.6-5.55,14.49-2.18,6.29-4.15,12.65-6.19,18.99-.2.63-.26,1.31,0,2.08,1.7-3.9,3.38-7.82,5.1-11.71,5.77-13.13,12.06-26,18.88-38.63,4.82-8.94,9.36-18.02,14.14-26.98,1.31-2.45,2.94-4.73,4.58-6.98,1.24-1.7,2.84-2.92,5.03-3.43,1.5-.35,2.86-1.28,4.28-1.95,0,0,0,.02-.02.03,2.62-1.06,2.93-.77,3.35,3.05,2.11-.48,4.26-.78,5.51,2.1-.74.14-1.41.26-2.07.39-.12.84-.23,1.68-.36,2.56,1.07.06,2.08.06,3.07.17h0ZM8.47,200.97c-.07.73-.15,1.46-.22,2.18.76-.53,1.17-1.17.22-2.18ZM25.84,186.32c.18.14.36.27.53.4-.62.93-1.25,1.85-1.87,2.77-.2-.14-.41-.27-.61-.4.65-.93,1.3-1.85,1.95-2.77ZM34.22,158.12c.63-.83,1.14-1.51,1.64-2.19-.92.33-2.14.41-1.64,2.19ZM50.12,127.72c-.17.55-.34,1.11-.5,1.67-.11-.03-.22-.06-.34-.08.13-.54.25-1.08.4-1.61.02-.07.14-.15.22-.15.06,0,.13.1.22.18ZM54.25,118.83c.19,2.3-1.47,2.59-2.55,3.18.75-.93,1.49-1.86,2.55-3.18ZM79,201.35c-.15-.1-.29-.2-.44-.3-.31.38-.61.76-.92,1.15.19.14.37.27.56.41.27-.42.53-.84.8-1.26ZM96.24,102.52c-.92.97-1.25,2.11-.98,3.42.36-1.26.67-2.34.98-3.42ZM152.03,5.74c-.56.85-1.01,1.71-.26,2.76,2.04-1.79,2.07-1.96.26-2.76ZM158.77,11.19c-.11-.44-.21-.91-.42-1.83-1.07,1.08-1.87,1.89-2.66,2.69l.4.48c.89-.45,1.79-.89,2.68-1.34Z"/><path class="cls-2" d="M372.44,3.13c-.78.66-1.47,1.26-2.32,1.99.71.42,1.19.71,1.72,1.03-.2.22-.37.47-.59.64-.45.35-1.35.92-1.34.95.91,1.48-.66,2.28-1.01,3.34-.39,1.22-1.47,2.23-2.33,3.28-1.23,1.51-2.57,2.92-3.76,4.46-.22.28,0,.94.04,1.54-4.49,2.31-9.37,3.06-14.33,3.6-13.15,1.42-26.37,2.25-39.43,4.46-9.12,1.54-18.3,2.76-27.4,4.41-10.87,1.98-21.67,4.31-32.52,6.37-1.77.34-2.8,1.21-3.67,2.66-8.07,13.4-15.24,27.29-22.15,41.31-5.46,11.08-10.99,22.12-16.35,33.25-3.71,7.71-7.14,15.53-10.74,23.29-3.47,7.49-7.07,14.93-10.48,22.46-3.4,7.53-6.76,15.09-9.88,22.74-2,4.88-3.55,9.94-5.26,14.93-.38,1.11-.52,2.07-2.06,2.49-1.15.32-1.99,1.75-3.24,2.94-.27-.89-.51-1.65-.74-2.38.68-.38,1.22-.69,1.92-1.08-1.09-.72-2-1.33-2.89-1.92-1.22.21-.78,2.38-2.69,2.1.27-.94.51-1.74.75-2.55-1.38-1.01-2.69-1.8-4.34-.61-.33.24-1,.24-1.43.1-1.82-.6-3.56-1.62-5.58-.55-.19.1-.74-.5-1.26-.87-.35.59-.67,1.13-.96,1.62-.44-1.34-.95-2.6-1.26-3.91-.17-.72-.21-1.59.02-2.28,1.64-4.8,3.25-9.62,5.09-14.34,1.88-4.81,3.96-9.55,6.04-14.29,1.27-2.91,2.72-5.75,4.05-8.64,1.66-3.58,2.9-7.44,5.05-10.69,1.73-2.62,3.7-4.94,3.95-8.21,2.39-2.13,2.63-5.33,4.01-7.94,1.41-2.66,2.92-5.27,4.24-7.99,2.95-6.08,5.94-12.15,8.98-18.18,3.27-6.48,6.67-12.89,9.94-19.37,3.94-7.81,7.8-15.67,11.72-23.49,1.02-2.05,2.07-4.08,3.23-6.05,1.25-2.11,1.51-4.42,2.07-7.15-1.47.19-2.53.23-3.55.47-8.74,2-17.45,4.13-26.21,6.03-4.45.96-8.99,1.54-13.49,2.27-.25.04-.54-.14-1.02-.27.37-.52.54-.76.7-1-.06-.08-.1-.21-.18-.23-2.85-.6-5.7-1.18-8.48-1.75-.46-.82-.89-1.6-1.32-2.36,1.26.13,2.52-.52,3.32-2.25-.52-.75-1.1-1.6-1.68-2.45.35-.19.83-.47,1.91-1.06-1.99-.74-3.49-1.3-5.42-2.01,1.27-.99,2.33-1.83,3.59-2.82-.19-.16-.58-.49-.99-.85-.29-.85,1.73-.45.97-1.75-.13-.23.82-1.16,1.34-1.71.53-.56,1.13-1.05,1.85-1.7-.67-.59-1.21-1.08-1.84-1.63.33-.3.5-.6.73-.65,8.24-1.88,16.5-3.69,24.73-5.61,5.14-1.2,10.2-2.73,15.36-3.77,4.15-.84,8.15-2.47,12.53-2.29,1.41.06,2.83-.89,4.28-1.21,1.52-.34,3.1-.39,4.62-.74,1.62-.37,3.18-1.07,4.81-1.39,2.91-.57,5.86-.91,8.78-1.45,1.64-.3,3.24-.84,4.87-1.2,3.08-.69,6.16-1.35,9.24-1.98.8-.17,1.64-.88,2.47.12.19.23,1.02.23,1.33.02,1.19-.81,2.56-.74,3.82-1.08,2.15-.58,4.08-.04,6.12-.02,2.56.04,5.15-.35,7.7-.72,6.38-.94,12.75-2.01,19.13-2.97,4.81-.73,9.64-1.37,14.46-2.04.58-.08,1.26-.25,1.73-.03,1.47.7,2.76,1.09,3.88-.57.16-.23.97-.38,1.09-.24,1.2,1.41,2.38.27,3.61.16,1.26-.12,2.54.22,3.62-.78.17-.15.59-.1.88-.05,5.41.93,10.61-.83,15.91-1.19,5.22-.35,10.48-.29,15.72-.45,2.16-.07,4.32-.22,6.8-.34-3.88,2.48-8.13.65-11.88,2.15,3.32.25,6.6.71,9.87.69,2.34-.01,4.68-.58,7-1.04,2.24-.44,2.23-.51,4.46.29h0ZM167.26,199.5c.04-.21.08-.42.12-.63-.7-.15-1.4-.29-2.11-.44l-.13.71c.71.12,1.41.24,2.12.36ZM326.6,5.94c.37-.15.74-.3,1.1-.45-.07-.16-.15-.45-.21-.45-.34.03-.67.14-1,.21.04.23.08.46.11.68ZM333.58,13.48c-1-.13-2.03-1.25-3.54.22,1.55-.1,2.55-.16,3.54-.22ZM334.55,5.08c-.04-.26-.09-.53-.13-.79-.88-.08-1.85-.55-2.87,1.04,1.3-.11,2.15-.18,3-.25ZM369.91.45c-1.19.32-1.77.53-2.38.63-.65.12-1.32.14-1.98.2,1.04-1.38,2.3-1.65,4.36-.84ZM366.78,16.62c.08.15.17.29.25.44-.15.09-.31.18-.46.26-.08-.15-.26-.33-.22-.44.05-.12.28-.18.43-.27Z"/><path class="cls-2" d="M376.33,57.56c.52,1.44,1.14,3.32.63,4.55-.79,1.9-2.37,3.56-3.87,5.06-1.51,1.51-3.81,2.24-4,4.92-.06.79-.92,1.5-1.36,2.28-1.01,1.79-1.99,3.59-3.22,5.82-1.82.21-3.28,1.09-2.8,4.07.17,1.07-1.33,2.59-2.34,3.62-1.23,1.24-2.06,2.4-1.06,4.18-1.4,1.71-2.57,3.33-2.92,5.65-.25,1.67-1.78,3.29-3.09,4.58-.77.76-1.43,1.4-1.93,2.42-1.36,2.74-2.67,5.62-4.6,7.95-2.05,2.47-4.19,4.77-5.22,7.87-.06.18-.19.38-.35.47-2.67,1.63-3.68,4.4-5.07,6.98-1.09,2.02-2.77,3.71-4.14,5.58-1.69,2.3-3.31,4.64-4.99,6.93-5.12,6.96-10.57,13.6-17.12,19.33-5.08,4.44-10.85,7.61-17.02,10.14-1.43.59-2.92,1.19-4.43,1.34-1.43.14-2.92-.29-4.38-.52-.76-.12-1.49-.48-2.24-.49-1.32-.03-2.38-.04-3.3-1.41-.53-.8-2.1-.96-3.24-1.29-1.36-.38-2.56-.87-3.57-1.99-.61-.68-1.71-.92-2.61-1.32-.85-.38-2.09-.42-1.22-1.97.13-.22-.66-1.13-1.17-1.52-2.91-2.24-3.57-5.88-5.51-8.71.9-1.8-.82-3.24-.65-4.99.19-1.88-.09-3.8.14-5.67.36-2.95.73-5.94,1.53-8.79,2.97-10.51,6.02-21,9.24-31.44,1.55-5.03,3.44-9.97,5.34-14.88.75-1.92,1.94-3.68,2.98-5.48,1.19-2.05,2.43-4.06,3.65-6.09.66-1.09,1.22-2.21,2.78-2.43.58-.08,1.15-.92,1.56-1.53,1.94-2.9,2.56-2.98,5.96-1.66.93.36,2.24-.23,3.41-.4,2.25,2.2,2.55,5.05.9,8.54.37.09.68.21,1,.22.27,0,.55-.11.81-.17.65,1.77.14,3.2-.62,4.81-1.47,3.12-2.45,6.47-3.79,9.66-4.5,10.68-7.57,21.79-10.15,33.05-1.31,5.71-2.04,11.55-2.98,17.34-.17,1.03-.02,2.11-.02,3.72,1.66-.84,3.07-1.32,4.22-2.17,5.62-4.17,10.63-9,15.1-14.38,6.8-8.21,13.09-16.8,18.93-25.72.22-.33.45-.65.72-.95,7.4-8.22,13.15-17.68,19.98-26.31,1.46-1.84,3.17-3.45,4.11-5.7.48-1.15.72-.9,2.49-1.33.87-.21,2.38.63,2.64-1.12h-1.37v-.53h1.67s.01.14.01.14c-.07.16-.18.27-.34.34,0,0,0,0,0,0,0,0,0,0,0,0,.51.53,1.03,1.06,1.54,1.58.14-.17.28-.33.42-.5-.54-.47-1.08-.95-1.62-1.42v-.14c-1-2.25.69-3.78,1.89-4.94,2.11-2.06,2.8-4.62,3.75-7.18,1.05-2.86,2.51-5.5,4.82-7.98.99,1.72,1.81,3.13,2.65,4.59,1.2-1.07,2.19-1.96,3.12-2.8,2.57,1.76-1.21,3.11,0,4.88.87.38,1.73.76,2.78,1.22.56-.84,1.03-1.56,1.52-2.29.09.05.24.11.37.2.49.37.97,1.05,1.47,1.06,2.18.04,3.53,1.26,4.19,3.09ZM260.47,146.5h-.21v1.34c.07,0,.14,0,.21,0v-1.33ZM337.01,92.95c-1.74-.47-2.42-.09-2.74,1.46.95-.51,1.65-.88,2.74-1.46ZM338.22,106.3c-.81,1.5-1.63,3-2.44,4.51,1.33-1.26,2.86-2.44,2.44-4.51ZM337.91,103.97c-.73.32-1.03.35-1.16.52-.15.19-.17.5-.24.75.13.05.25.1.37.15.24-.33.48-.66,1.03-1.42ZM343.22,98.95c-.2-.06-.4-.12-.59-.19-1.44,2.45-2.88,4.89-4.31,7.35.36-.08.78-.1.96-.32,1.41-1.74,2.79-3.51,4.08-5.34.22-.32-.08-.99-.14-1.5ZM341.96,87.07c.1.11.19.21.28.32.33-.28.67-.57,1-.85l-.29-.34c-.33.29-.66.58-.99.87ZM342.92,80.96c-.11.39-.22.78-.32,1.17.19.04.38.08.58.11.05-.4.11-.8.17-1.21l-.42-.07h0ZM345.99,95.18c-.6.52-1.43.87-1.5,1.78.18.11.37.21.56.32.31-.7.63-1.4.95-2.1ZM349.37,89.49c-1.3.19-1.59.94-1.82,2.03-.24,1.17-.87,2.26-1.34,3.38.7-.07,1.38-.15,1.82-.19.5-1.96.9-3.54,1.33-5.22ZM347.99,75.12c.26.17.51.34.77.51.16-.45.44-.9.42-1.34-.02-.36-.4-.7-.62-1.05-.36.24-.92.42-1.03.75-.1.29.29.75.46,1.13ZM348.35,85.53c-.17,0-.35.3-.53.47.22.12.43.24.62.35.19-.15.32-.25.45-.34-.18-.17-.36-.47-.54-.47ZM354.96,83.31c-.71-.19-.96-.31-1.22-.32-.16,0-.45.16-.45.25,0,.23.13.45.21.68.22-.09.45-.19,1.46-.61ZM356.52,74.86c.51-.79.93-1.42,1.63-2.48-1.34.33-2.09.6-2.14,1.68-.01.21.26.43.51.81ZM358.43,76.9c-.21-.23-.41-.47-.62-.71-.4.41-.8.83-1.2,1.24.15.17.3.33.45.5.46-.34.91-.69,1.37-1.04ZM370.45,51.26c-.16-.22-.26-.37-.36-.51.22-.14.44-.3.69-.41.03-.01.29.35.26.39-.16.2-.38.35-.58.53ZM377.31,52.12c-.05.42-.1.84-.15,1.26-.21-.06-.42-.12-.63-.18.1-.39.21-.78.31-1.16.16.03.31.06.47.08Z"/><path class="cls-2" d="M504.53,21.46c-.11,1.36-.13,2.84-.7,4.03-3.24,6.82-6.64,13.57-9.97,20.36-7.13,14.57-14.16,29.19-20.34,44.19-2.61,6.34-5.28,12.66-7.91,18.99-1.06,2.56-1.55,5.55-3.23,7.6-3,3.67-3.11,8.27-4.89,12.31-1.95,4.4-2.86,9.28-4.1,13.98-4.01,15.3-7.96,30.62-13.15,45.58-.42,1.22-.77,2.47-1.05,3.73-.52,2.38-1.2,4.61-3.83,5.56.15-1.3.32-2.71.48-4.11-.19-.04-.39-.09-.58-.13-1.15,3.79-2.31,7.58-3.47,11.38-.21,0-.43,0-.64-.01-.22-1.15-.44-2.31-.82-4.24-.71,1.32-1.02,2.08-1.52,2.71-.13.17-.7-.02-1.12-.07.02.03.03.05.05.08-2,.04-1.74,2.21-2.74,2.97-2.06.34-3.94.65-6,.99,0-1.35,0-2.33,0-3.31,0-.59.25-1.26.05-1.76-1.24-3.08-.26-6.01.33-9.02,1.95-9.98,4.83-19.7,8.54-29.14,5.96-15.14,9.25-31.07,14.19-46.51,3.06-9.56,6.45-19.02,9.69-28.53.44-1.3.86-2.6,1.15-3.95-7.74,11.77-14.86,23.88-21.76,36.12-4.54,8.06-9.14,16.1-13.91,24.03-2.3,3.83-4.78,7.63-7.69,10.99-2.36,2.73-5.38,4.97-8.35,7.08-1.16.83-2.99.73-4.52,1.04-.9,1.31-2.17,1.38-3.63,1.15-1.02-.17-2.09-.03-3.66-.03-.24-.69-.55-1.73-.96-2.73-.36-.88-.31-1.82-1.43-2.5-1.76-1.06-2.53-2.96-2.31-5.09.36-3.33.57-6.69,1.25-9.95.37-1.79,1.47-3.46,2.4-5.1,1.9-3.36,4.33-6.5,5.79-10.04,4.65-11.3,8.96-22.74,13.4-34.13-.17-.11-.35-.22-.52-.34-.21.2-.5.36-.63.6-5.16,9.66-10.3,19.33-15.48,28.97-7.11,13.23-14.1,26.54-21.49,39.61-2.82,4.99-6.55,9.46-10,14.08-.64.86-1.89,1.28-2.86,1.89-.16.1-.46.07-.54.2-1.63,2.55-4.69,2.17-7,3.34-.71.36-1.74.11-2.68,0-.1.04-.2.08-.31.12.28.31.58.65,1.09,1.21-1.15.49-2.1.89-3.06,1.29-.08-.12-.16-.24-.24-.36.65-.68,1.29-1.35,1.93-2.04-1.32.49-2.67,1-4.19,1.57-.37-.46-.96-1.21-1.65-2.08.54-.07.91-.13,1.4-.19.05-1.08.1-2.19.17-3.47-.62.15-1.25.31-1.94.48-.3-.81-.6-1.62-1.04-2.8.11-.14.53-.66,1-1.25-.41-.57-.83-1.16-1.24-1.73.62-.91,1.17-1.72,1.72-2.51.17-.24.53-.64.47-.71-1.39-1.74.58-2.28,1.07-3.55-1.22.55-2.44,1.11-3.65,1.66-.1-.09-.2-.19-.29-.28.89-.93,1.75-1.9,2.68-2.8,1.98-1.92,3.93-3.75,5.13-6.44,1.15-2.58,3.3-4.69,4.79-7.13,2.96-4.83,5.76-9.77,8.65-14.64,2.64-4.45,5.22-8.94,8.01-13.28,2.08-3.24,4.69-6.15,6.66-9.44,4.34-7.25,8.39-14.68,12.63-21.99,7.69-13.25,15.92-26.17,24.85-38.61,4.28-5.97,8.56-11.98,13.25-17.63,4.94-5.95,10.05-11.83,16.9-15.8.77-.45,1.53-.96,2.16-1.59,1.72-1.71,3.48-2.77,6.05-.02.18-1.66.27-2.53.37-3.41,1.49-.33,1,1.12,1.64,1.92.9-.3,1.88-.63,2.92-.98,1.18,1.59.02,3.14-.38,4.99.68-.36,1.36-.72,2.09-1.11.23.2.53.34.65.57.6,1.16,0,2.82,1.65,3.61.31.15.37,1.34.17,1.91-1.05,2.99-2.01,6.05-3.38,8.9-5.22,10.85-10.59,21.62-15.9,32.42-.16.33-.25.7.1,1.37.57-.81,1.18-1.6,1.71-2.44,7.52-11.99,16.01-23.27,24.98-34.2,5.28-6.43,11.34-12.03,18.26-16.6,2.48-1.64,4.94-3.64,8.37-3.37.84.07,1.79-1.24,2.86-2.03.52-.1,1.33-.32,2.16-.41.74-.08,1.62-.28,2.21.03,1.02.53.61,1.51.26,2.36-.07.17,0,.39,0,.53.75.32,1.74.43,2.09.96.43.65.33,1.65.4,2.51,0,.03-.43.09-.72.15.08.47.15.95.25,1.54.58.08,1.34-.02,1.79.31.39.28.63,1.07.59,1.6ZM346.06,184.33s-.05,0-.08,0h.06s.01,0,.02,0ZM349.09,181.87c-1.59-.07-1.69.97-1.69,2.11,0,0,0,0,0,0,.55-.69,1.1-1.37,1.68-2.1ZM396.72,164.32c-.05-.25-.06-.55-.21-.71-.2-.22-.54-.34-.84-.44-.06-.02-.34.34-.31.39.17.25.37.52.63.65.21.11.48.09.73.11ZM428.45,199.72c-.81,1.09-1.5,2.2-.76,3.56,1.66-.9.75-2.32.76-3.56ZM449.28,155.54c-.63.35-.87.96-.73,1.81.26-.64.46-1.14.73-1.81ZM451.15,147c.02-.07-.24-.21-.37-.32-.15.19-.33.37-.44.58-.02.04.24.21.46.4.13-.23.29-.44.35-.66ZM498.61,12.57c-.16-.05-.33-.1-.49-.15-.13.44-.26.88-.38,1.32.16.05.31.1.47.14.14-.44.27-.88.41-1.31ZM501.82,17.93c0-.5,0-1.02,0-1.9-1.03,1.06-1.03,1.58,0,1.9Z"/></svg>