<?xml version="1.0" encoding="UTF-8"?><svg id="Layer_1" xmlns="http://www.w3.org/2000/svg" xmlns:xlink="http://www.w3.org/1999/xlink" viewBox="0 0 167.78 238.55"><defs><style>.cls-1{clip-path:url(#clippath);}.cls-2{fill:none;}.cls-2,.cls-3{stroke-width:0px;}.cls-4{opacity:.2;}.cls-3{fill:#fff;}</style><clipPath id="clippath"><rect class="cls-2" x="-2922.77" y="-879.82" width="2001.75" height="827.64"/></clipPath></defs><path class="cls-3" d="M66.32,52.44l-.28.28c.14-.12.23-.21.28-.28Z"/><path class="cls-3" d="M68.8,51.12v-.18c-.09.14-.11.22,0,.18Z"/><path class="cls-3" d="M90.22,47.37c.16.11.38.22.71.35l-.71-.35Z"/><path class="cls-3" d="M55.49,63.06c.01.19.02.38.06.58.39-.58.07-.42-.06-.58Z"/><path class="cls-3" d="M64.59,112.03s.06.07.08.1c.04-.03,0-.07-.08-.1Z"/><path class="cls-3" d="M121.51,81.52v-.03c-.07.12-.05.1,0,.03Z"/><path class="cls-3" d="M48.42,87.56s-.01.05-.02.08c.21.35.16.19.02-.08Z"/><path class="cls-3" d="M108.51,56.72c.06.03.04,0,.01-.03,0,0-.01.03-.01.03Z"/><path class="cls-3" d="M107.35,56.03c.71.03.92.3,1.17.65.77-1.48-.1-.91-1.17-.65Z"/><path class="cls-3" d="M91.02,47.55c-.06-.08-.07-.16-.07-.23-.12.05-.13.13.07.23Z"/><path class="cls-3" d="M55.48,62.95s-.02.08,0,.11v-.11Z"/><path class="cls-3" d="M119.4,76.64c.02-.26.07-.42.13-.53-.1,0-.17.14-.13.53Z"/><path class="cls-3" d="M116.54,101.55l-.59.74c.18-.1.48-.57.59-.74Z"/><path class="cls-3" d="M119.88,92.41c-.48-.19-.54-.18-.42.34.15-.24.25-.23.42-.34Z"/><path class="cls-3" d="M120.04,89.9c-.13-.13-.2-1.49-.35-.25.14.13.07,1.13.35.25Z"/><path class="cls-3" d="M114.53,64.6c.33-.27-.59-1.9-.91-.97.41,1.08.59-.05.91.97Z"/><path class="cls-3" d="M114.56,63.91c.09.08.18.16.3.24-.15-.15-.24-.2-.3-.24Z"/><path class="cls-3" d="M74.22,49.61l.63.16c.06-.31-.28-.21-.63-.16Z"/><path class="cls-3" d="M65.81,53.37c.44-.1-.35-.25-.39-.33,0,0,.39.33.39.33Z"/><path class="cls-3" d="M59.86,58.97c.23-.24.44-.58.7-.78-.49.53-1.2.43-.7.78Z"/><path class="cls-3" d="M52.71,196.53l-.67-.85c.3.41.51.67.67.85Z"/><path class="cls-3" d="M57.01,203.05l.24.07c-.28-.25-.42-.34-.24-.07Z"/><path class="cls-3" d="M94.93,226.03c.34-.33.79-.83,1.39-1.55l-1.39,1.55Z"/><path class="cls-3" d="M29.87,160.42l-.95-.91c.99,1.71.72.86.95.91Z"/><path class="cls-3" d="M29.55,18.28c.1-.07.21-.14.3-.2,0-.06-.13.04-.3.2Z"/><path class="cls-3" d="M161.02,109.49s-.02.05-.03.08c.17-.26.14-.21.03-.08Z"/><path class="cls-3" d="M1.98,94.11c0-.07,0-.15-.01-.22-.37-.98-.25-.54.01.22Z"/><path class="cls-3" d="M126.92,178.73s.03-.07.05-.11c-.02.04-.14.15-.05.11Z"/><path class="cls-3" d="M125.21,181.96c.44-1.55.95-2.27,1.66-3.21-1.9-.09-1.6,1.93-1.66,3.21Z"/><path class="cls-3" d="M166.22,92.6C177.37,15.16,78.24-26.23,29.55,18.28c-1.95,1.22-4.65,4.38-5.27,4.85.64-.57,1.3-1.11,1.95-1.66-8.63,8.11-13.94,17.2-18.39,26.74l.05-.21c-.32,1.14-.87,2.59-1.45,4.08.34-1.46-1.42,2.43-.94.54-1.65,6.17-1.01,5.37-2.29,11.67-1.72-2.52-1.73,7.92-2.86,10.73.56,2.87,1.05-5.2,1.09-3.62,1.49,1.04-1.76,9.31-1.27,12.43-.02-.5-.09-.53-.11-1.03-.43,3.64,2.4,14.19.68,4.7,2.09,7.2,1.64,6.39,1.97,10.19-1.1-1.17-1.5-6.07-2.22-7.97-.33.43,1.29,4.68.39,3.84.98,2.15,3.92,12.55,2.05,8.6,1.16,2.43,1.2,5.04,2.28,7.44-1.76-5.12.06-1.31-.39-3.56,2.45,5.69.7,5.81,3.11,10.85-1.9-5.38.72.26.73,1.81,1.96,4.52.09-.86,1.12.98,1.55,4.22,2.93,6.02,5,9.9,0,0-1.43-1.68-1.43-1.68,4.6,9.81,4.42,8.22,6.62,14.27-2.47-4.4,4.24,5.5,1.75,2.75.96,1.12,2.88,4.83-.12.99,5.21,10.21,21.75,35.86,20.91,34.93l1.08,2.34c-7.65-9.29,4.8,6.84,5.04,7.53-.25-.41-.35-.44-.6-.85.34,1.59,5.66,5.6,4.67,6.68.06.07,3.27,4.02,1.99,2.84,2.47,3.78,4.42,5.65,6.15,8.04-3.24-1.8-1.93-2.2,1.94,4.48-3.23-4.3-.13,1.01,1.51,3.9-3.31-8.99,2.92,3.76,5.23,5.31,1.33,1.98,1.27,2.62,1.31,3.29,2.13,3.17-.97-2.54,1.72,1.09,11.58,15.45,10.92,19.1,22.38.55-2.09,2.18.7-3.21,1.03-3.8-.64,1.64,2.38-4.36,1.24-.84-2.63,3.31-1.84,3.35.93.68,4.08-5.25,5.1-9.14,9.29-16.3.81,1.93-1.33,3.79-3.5,7.55.98-1.31.98-.88.81-.48,2.93-5.19,4.05-6.3,7.52-12.61.31.04.26.66-1.34,2.92,2.24-2.19,1.36-3.84,3.47-6.04-2.21,3.4,3.58-5.46,1.66-1.96,3.01-3.07,7.78-15.1,7.56-11.18-.3-1.67,4.58-12.51,3.37-5.33,2.94-3.8.29-3.49,4.74-7.78-1.38,1.61-.05-3.98.69-1.18l1.4-4.18c-.41,1.01.6.58,1.32-.12-.39.29,1.9-3.21,2.39-4.25l-1.11,1.47c2.83-5.61,10.58-24.7,6.62-11.3,1.1-1.37,3-4.5,1.08-.49,1.82-2.91,3.91-6.79,4.42-10.09-2.38,7.06-4.93,8.47-.09-1.83,2.17.84,1.45-1.86,5-7.69,3.63-4.16-3.13-.52,1.22-5.85,4.01-3.78,5.74-16.47,11.17-28.39.04-.65-.03-1.27.25-2.62,1.05-2.5-.58,3.02.44,1.16-.3-.25.37-3.57.36-5.56-.31.26-.45,1.38-.64,2.66ZM98.16,220.43c.37-.59.83-1.23,1.42-1.88-.2.53-.75,1.19-1.42,1.88ZM91.86,46.24c-.77.26,2.04-.12.38.64-.39-.79-1.27-.06-1.3.43.41.02.91-.13,1.04.69,2.68-.07,10.9,1.66,3.75.8,3.27,2,6.46,1.28,7.26,3.32,2.59,2.34,10.01,3.66,5.56,4.61,1.23,1.87,1.76-.8,2.33,2.35.13-1.02,2.19-.13.34.36.6.17,1.2.36,1.75.61-.37-.21-.67.45-.67.89.96,1.6,2.01.97,3.94,2.99-2.08.3-.49,1.26,1.09,1.5,2.32,3.59-2.69-1.3-1.44,1.51-.08.43-.58-.3-.72-.55.28,1.26,1.37,2.75,2.43,3.23-.52-.89-2.65-3.02-.25-1.66,2.92,2.88-.75.51,1.35,5.4-.98,2.73,2.68-1.68,1.89,1.76,1.49,2.52-1.18-.24-.89,2.21.59.06.22,1.76.54.34,8.13,30.45-33.21,56.47-57.69,32.87.31.96-7-5.39-7.77-7.26-.72-.23-1.38-1.78-.65-1.79-3.82-2.72-1.6-2.53-3.21-5.68-.35-.58-.62-1.05-.32-1.68-1.17-.68.21,1.96-.17,1.48-1.79-.09-.48-2.42-.82-4.46.6.79-1.77-5.56-.67-1.19-1.37-2.22-.92-2.39-.63-3.71.63.07.43,1.95,1.07,2.84.21-.51-.76-1.76.03-1.38-1.61-3.08-.05-2.82-.09-5.85-1.44,3.03-.41-.82.23-2.74-.44,2.03-.61-.19.13-.68.18-1.73-.45.21-.58-.56.57-.52-.07-.88-.1-1.69,1.65-.65-.47-1.11.41-2.35.39.98.35.96.45-.07.97.07.36-1.94.56-3.19.44-.48,1.31-.81.42.39.48,1.19.9-1.23,1.02-1.49-.94.91.94-4.52.87-1.19,2.18-5.28,7.29-12.21,9.12-12.18-1.18,2.65-.43.72.73-.36,2.15-1.2,1.48-3.28,3.74-3.32.03-.15,1.65-1.48.9-.64,1.47-.93,4.45-3.17,2.37-1.28.69.48,3.59-1.57,1.94-.25,4.35.48-2.02-.89,3.62-1.5.14,1.24,1.74-1.62,2.41.11,1.36-.12-1.06-.52.52-.86,1.04.38,3.58-1.53,3.45-.29.73-1.01,4.48-1.39,4.82-.21,1.8-.22,2.36-1.08,3.87-.14-1-.57,1.27-1.13,1.64-1.13ZM93.5,47.56c-.23.08-.52-.06-.83-.3.26.03.54.12.83.3ZM71.7,49.78c.12-.54.43-.41.9-.44-.22.17-.63.6-.9.44ZM62.04,210.37c.86.43,1.04,1.1,1.64,2.21-.49-.56-1.54-1.63-1.64-2.21Z"/><path class="cls-3" d="M54.7,199.37l-.24-.35c.09.14.17.25.24.35Z"/><path class="cls-3" d="M96.26,224.25c-.18.13-.27.13-.36.13-.11.28-.05.33.36-.13Z"/><path class="cls-3" d="M30.05,160.59c-.02-.07-.12-.17-.18-.17,0,0,.18.17.18.17Z"/><path class="cls-3" d="M157.37,122.77c-.34.62-.57.95-.75,1.16.08.08.28-.18.75-1.16Z"/><path class="cls-3" d="M162.33,55.84c-.22-.79-.44-1.58-.72-2.35.19.78.49,1.59.72,2.35Z"/><path class="cls-3" d="M167.54,79.87c.02.88-.69,1.25.23,1.27,0,0-.23-1.27-.23-1.27Z"/><path class="cls-3" d="M167.44,87.78c.11.28-.15,3.97.31.54-.06-.29.03-3.02-.31-.54Z"/><path class="cls-3" d="M140.14,156.38c-1.85,4.43.3.94,1.12-1.19.19-.75-1.34,1.94-1.12,1.19Z"/><path class="cls-3" d="M140.14,156.38c.12-.28.25-.59.37-.92-.23.51-.32.76-.37.92Z"/><path class="cls-3" d="M66,217.88c.49.11-.21-.75-.66-1.49l.66,1.49Z"/><path class="cls-3" d="M50.85,194.66c.51,1.07.11-.4.18-.61,0,0-.18.61-.18.61Z"/><path class="cls-3" d="M37.86,175.33c.48.82,1.16,1.72,1.64,2.54-1.16-1.72-1.25-3.08-1.64-2.54Z"/><g class="cls-1"><image class="cls-4" width="15215" height="8421" transform="translate(-3028.31 -1485.26) scale(.25)" xlink:href="../../../Tri State Generation and Transmission Association Dropbox/Communications/PROJECTS/Events/_Annual Meeting/2024/Assets/White BG Chart_XL.png"/></g></svg>