<?xml version="1.0" encoding="UTF-8"?><svg id="Layer_1" xmlns="http://www.w3.org/2000/svg" xmlns:xlink="http://www.w3.org/1999/xlink" viewBox="0 0 682.14 274.17"><defs><style>.cls-1{clip-path:url(#clippath);}.cls-2{fill:none;}.cls-2,.cls-3{stroke-width:0px;}.cls-4{opacity:.2;}.cls-3{fill:#fff;}</style><clipPath id="clippath"><rect class="cls-2" x="-2704.19" y="331.07" width="2001.75" height="827.64"/></clipPath></defs><g class="cls-1"><image class="cls-4" width="15215" height="8421" transform="translate(-2809.73 -274.37) scale(.25)" xlink:href="../../../Tri State Generation and Transmission Association Dropbox/Communications/PROJECTS/Events/_Annual Meeting/2024/Assets/White BG Chart_XL.png"/></g><path class="cls-3" d="M83.81,36.81c.03.36-.07.8-.26,1.1-.64.99-1.09,2.08-1.72,3.08-1.99,3.21-4.95,5.34-7.79,7.61-2.64,2.1-5.41,4.06-8.16,6.02-1.89,1.35-3.86,2.58-5.76,3.9-1.99,1.39-3.93,2.87-5.93,4.23-2.98,2.03-6.07,3.93-9,6.03-2.04,1.46-4.52,1.97-6.61,3.29-.28.18-.62.26-.88.46-.4.29-.7.51-1.27.26-.51-.23-.59.2-.51.62-.23-.04-.53-.16-.65-.06-1.03.83-2.41.67-3.5,1.28-1.08.6-2.17,1.21-3.27,1.77-1.82.93-3.71,1.76-5.48,2.77-2.02,1.16-3.01,2.59-3.91,4.72-.83,1.97-1.82,3.88-2.68,5.83-1.04,2.35-2.02,4.72-3.02,7.08-.37.87-.75,1.73-1.05,2.62-.49,1.47-.92,2.96-1.37,4.45-.05.17-.13.46-.05.52.58.46.18.85-.19.89-.8.09-.96.69-1.25,1.22-.77,1.38-1.52,2.76-2.29,4.13-.16.29-.33.62-.58.81-.26.2-.63.26-.95.39-.05-.29-.1-.58-.16-.87-.03-.13-.08-.26-.12-.4-1.3-.53-1.35.95-2.28,1.35.2-.53.35-.92.5-1.31-.08-.06-.15-.12-.22-.18-.32.39-.64.77-.96,1.16-.05-.02-.11-.04-.16-.06.08-.33.17-.67.29-1.16-.32.3-.53.5-.91.86.09-.5.15-.82.2-1.15-.35-.07-.87-.02-1.02-.24-.18-.26-.04-.73-.04-1.09-.15.07-.36.17-.78.37.26-.58.41-.96.6-1.33,1.98-3.82,3.98-7.62,5.93-11.45,1.15-2.25,2.21-4.55,3.3-6.84.2-.43.44-.6.94-.8.55-.22,1.1-1.12,1.17-1.78.2-1.93.87-3.75,1.11-5.66,0-.04-.02-.09-.05-.18-.2-.03-.43-.06-.71-.09.27-.64.52-1.26.85-2.05-.47.09-.78.18-1.09.21-.31.03-.8.14-.92,0-.47-.63-1.03-.26-1.67-.21.02-.23.09-.42.03-.56-.62-1.61.19-2.7,1.4-3.5,1.63-1.08,3.35-2.02,5.04-3.02.21-.12.42-.24.63-.34,1.47-.71,2.46-1.77,3.15-3.32,3.33-7.52,7.16-14.79,11.11-22,2.09-3.81,4.36-7.51,6.82-11.11,1.19-1.75,2.4-3.43,3.9-4.92,1.26-1.26,2.75-1.78,4.46-1.81.25,0,.51.28.81.45.17-.2.34-.41.6-.71.18.38.34.69.52,1.07.44-.29.86-.58,1.51-1.02-.24.65-.58,1.38-.52,1.41.85.48-.12.74-.11,1.08,2.26.08,4.17-.94,6.14-1.81,2.73-1.2,5.6-1.89,8.55-2.28.14-.02.3-.09.42-.04,1.98.73,4.07.36,6.1.62,2.1.27,4.12.77,6.02,1.73.88.44,1.8.9,2.85.48,0,0,0,0,0,.01.51-.33.44.24.56.41.32.43.55.92.82,1.39.09-.04.19-.07.28-.11v-1.23c.3.27.42.39.55.49.41.32-.49,1.15.58,1.33.33.05.57.86.8,1.35.57,1.23,1.21,2.44,1.31,3.82h0ZM19.38,81.44s-.09-.05-.13-.07c-.88,1.14-1.75,2.28-2.62,3.42-.08.1-.06.28-.1.41-.46,1.29-.92,2.59-1.39,3.88-.04.12-.2.29-.28.28-.89-.11-.71.47-.66.98.02.17.07.39-.01.5-.54.7-.77,1.55-1.19,2.3-1.18,2.08-1.66,4.42-2.54,6.61-.03.08.09.21.17.4.24-.28.48-.47.6-.71,2.46-5.21,4.92-10.41,7.35-15.63.35-.75.54-1.57.8-2.36ZM70.97,36.45c-.39-.13-.73-.35-1.07-.35-1.39,0-2.8-.09-4.15.13-4.54.75-8.69,2.55-12.66,4.83-2.77,1.59-5.32,3.55-8.24,4.9-.38.18-.82.47-1.17.41-1.02-.2-1.6.32-2.08,1.06-1.63,2.47-3.27,4.93-4.86,7.43-1.37,2.15-2.67,4.34-4,6.52-.3-.02-.6-.04-1.1-.07.62.69.55,1.18-.02,1.57-.45.3-.91.6-1.41.81-.1.04-.42-.27-.55-.47-.11-.17-.09-.42-.15-.75-.9,1.43-.9,1.62,0,2.51,14.26-5.57,36.21-22.8,41.45-28.5ZM35.92,73.46s0-.03,0-.04c.02,0,.03,0,.04,0l-.04.04ZM36.03,73.47s-.07,0-.11-.01c0,0,.04-.04.04-.04.02.02.04.03.07.05ZM36.53,73.83c-.17-.12-.33-.24-.5-.36.21.02.41.05.62.07-.04.1-.08.19-.11.29ZM70.84,26.15c-.49-.06-.98-.12-1.47-.17,0-.04,0-.08,0-.11.49.02.99.05,1.48.08,0,.07-.01.14-.02.21ZM79.25,30.86c-.11-.49-.23-.99-.34-1.48-.17.53-.47,1.08.34,1.48Z"/><path class="cls-3" d="M122.94,81.03c-.5.15-1.21.13-1.12,1.07,1.28.28,2.58.41,3.96.1-.61.5-.41,1.55-1.38,1.71,0,0,0-.01,0-.02-1.57.5-3.12,1.09-4.72,1.49-5.25,1.32-10.39,2.93-15.31,5.21-1.24.57-2.49,1.09-3.87,1.41-1.31.3-2.63.84-3.58,2.1-.58.78-1.7,1.25-2.66,1.63-1.58.62-2.83,1.72-4.2,2.63-4.14,2.75-8.22,5.59-12.4,8.28-3.29,2.12-6.83,3.8-10.62,4.85-.84.23-1.74.09-2.55.69-.58.43-1.21-.17-1.12-.92.03-.23.16-.56.06-.66-.36-.37-.76-.74-1.22-.94-.35-.15-.81-.03-1.27-.03.16-.25.28-.44.46-.71-.49-.12-.93-.22-1.38-.32-.04-.66-.07-1.26-.11-1.96.24-.15.58-.36.99-.6-1.02-.31-.49-1.63-1.61-1.77.37-1.12.67-2.12,1.02-3.1,1.07-2.97,2.35-5.84,4.07-8.52,1.93-3.02,3.74-6.11,5.62-9.16,1.25-2.03,2.63-3.98,3.79-6.06,2.44-4.38,4.77-8.83,7.13-13.25,2.61-4.89,5.18-9.8,7.8-14.69,3.42-6.36,7.21-12.5,11.11-18.58.88-1.37,1.75-2.74,2.65-4.09.78-1.16,1.69-2.19,3.13-2.55.09-.02.2-.06.26-.12,1.01-1.14,2.44-1.29,3.87-1.6.08.36.16.71.25,1.11.29-.36.56-.7.94-1.17.47.6.77.99,1.1,1.4-.27.63-.52,1.22-.78,1.81.07.05.14.1.21.16.25-.2.5-.4.74-.59.09.08.2.14.21.21.25,1.61-.13,3.12-.71,4.61-1.1,2.83-2.71,5.37-4.35,7.9-2.78,4.3-5.6,8.56-8.28,12.92-2.88,4.68-5.9,9.27-8.39,14.19-.88,1.75-1.72,3.52-2.67,5.24-.84,1.52-1.82,2.97-2.73,4.45-.03.08-.05.16-.08.24-.59,1.33-1.18,2.67-1.78,4l.03-.02c-.46.89-.93,1.79-1.39,2.67-.26.45-.53.91-.8,1.37.39.57-.05,1-.28,1.44-1.52,2.86-3.07,5.72-4.6,8.57-.06.11-.04.26-.11.7,13.45-9.66,27.92-16.35,44.08-19.03.04.1.08.2.12.3-.23.09-.46.17-.68.26-.26.1-.53.21-.77.41,1.78-.27,3.57-.53,5.35-.8,1.79-.28,3.57-.57,5.4-.65-2.49.53-5,1.02-7.48,1.62-1.8.44-3.56,1.04-5.33,1.59-.23.07-.42.29-.62.45.87-.16,1.77-.22,2.58-.52.86-.32,1.66-.37,2.65-.09-.25.26-.44.46-.79.84.99-.15,1.75-.26,2.51-.38.02.08.04.16.06.24-.84.27-1.68.53-2.52.79,0,.07,0,.13,0,.19.7-.05,1.41-.09,2.11-.17.71-.09,1.4-.23,2.27-.37-.48.47-.86.84-1.32,1.29-.96-.52-1.58.33-2.3.96,1.64-.31,3.28-.62,4.91-.94.02.1.05.21.07.31-1.21.32-2.42.63-3.62.98h0ZM114.75,78.29c.49-.13.99-.26,1.48-.39-.55-.12-1.08-.16-1.48.39ZM116.42,76.19c.02.06.04.12.05.18.42-.13.84-.26,1.25-.39-.01-.05-.03-.1-.05-.15-.42.12-.84.24-1.26.36ZM123.76,83.72c.23.05.43.09.64.13-.07-.43-.08-.42-.64-.13Z"/><path class="cls-3" d="M182.88,57.81c-.37.81-.65,1.66-1.04,2.69h5.88c-.36.42-.56.64-.75.86.96.91,2.33,1.22,4.12.92.67.54.49,1.03-.36,1.58h1.82c-.52.39-.8.6-1.09.81.11.18.2.33.28.48-.1.1-.16.19-.24.22-1.83.64-3.6,1.37-5.24,2.45-1.05.69-2.37.98-3.4,1.69-1.34.93-2.93,1.14-4.31,1.84-1.4.71-2.66,1.53-3.4,3.19-1.9,4.28-4.08,8.43-6.13,12.63-1.4,2.87-2.94,5.69-4.14,8.64-1.2,2.93-2.85,5.62-4.06,8.51-.52,1.23-1.49,2.05-2.02,3.21-.54,1.17-1.07,2.35-1.6,3.52-.31.7-.66,1.38-.9,2.11-.25.74-.71,1.35-1.4,1.52-1,.24-1.53.85-1.88,1.85-.31-.24-.52-.41-.73-.58.01,0,.02,0,.03,0-.05-.68-.1-1.36-.14-2.05-.9-.02-1.5.32-1.77,1.39-.28-.47-.49-.67-.48-.86.07-1.13-.4-2.21-.98-2.99-1.04-1.42-.3-2.6.1-3.8,1.92-5.77,4.47-11.27,7.36-16.62,2.52-4.67,4.99-9.37,7.47-14.05.13-.25.23-.51.41-.92-.4.04-.67.01-.92.08-5.96,1.79-11.83,3.81-17.52,6.33-1.22.54-2.44,1.11-3.56,1.83-.6.39-1.12,1.06-1.44,1.71-2.78,5.61-5.5,11.25-8.24,16.88-1,2.06-1.99,4.13-3.01,6.18-.54,1.08-1.32,1.94-2.48,2.39-.18-.21-.32-.39-.46-.55-.58.51-1.13,1.02-1.7,1.5-.38.31-.72.43-1.28.2-.52-.21-.78-.48-1.09-.92-.23-.32-.87-.21-1.04-.92-.17-.68-.91-1.2-1.16-1.88-.89-2.35-.33-4.58.76-6.73,1.98-3.92,3.97-7.83,5.91-11.77.67-1.36,1.2-2.79,1.83-4.17.11-.24.37-.41.69-.75h-.9c-.36-.68-.8-1.25-.96-1.89-.14-.56-.16-1.07-.73-1.42-.13-.08-.01-.6.03-.91.08-.56.29-1.12.26-1.67-.1-1.57.44-2.68,1.9-3.28,1.28-.52,2.62-.89,3.93-1.32.27-.09.56-.15.84-.19,1.6-.21,2.62-1.06,3.33-2.54.72-1.5,1.59-2.98,2.66-4.25,2.9-3.45,5.27-7.25,7.72-11,1.93-2.94,4.41-5.39,6.5-8.17,1.03-1.38,2.11-2.72,3.26-4,1.15-1.27,2.42-2.42,3.63-3.64,2.22-2.23,4.34-4.56,6.65-6.69,2.63-2.42,5.32-4.78,8.35-6.74.85-.55,1.82-1,2.26-2.07.14-.34.64-.55,1-.78,1.36-.88,2.75-1.72,4.1-2.61.47-.31.82-.83,1.31-1.1.51-.29,1.13-.42,1.68-.86-.38-.02-.75-.04-1.13-.07.02-.06.02-.19.07-.21,1.79-.82,3.63-1.43,5.62-1.57,1.52-.11,2.55.86,3.7,1.57.08.05.16.14.17.22.14,1.23.98,2.14,1.45,3.21.24.56.23,1.3.15,1.94-.73,5.43-3.09,10.3-5.4,15.17-1.92,4.04-4.1,7.96-5.74,12.14-.68,1.73-1.62,3.35-2.39,5.04ZM184.22,33.2c.65-1.43,1.28-2.86,1.92-4.3l-.26-.31c-.41.19-.85.34-1.23.58-1.13.71-2.29,1.39-3.35,2.21-2.41,1.87-4.9,3.67-7.1,5.77-2.68,2.56-5.21,5.31-7.62,8.13-2.47,2.88-4.74,5.94-7.05,8.95-.67.87-1.24,1.82-1.79,2.76-1.28,2.17-2.54,4.36-3.79,6.55-.87,1.52-1.71,3.05-2.73,4.87.95-.25,1.64-.38,2.29-.6,5.29-1.82,10.65-3.37,16.1-4.62.69-.16,1.12-.44,1.36-1.08.13-.36.31-.7.47-1.04,4.26-9.29,8.52-18.58,12.78-27.87ZM152.96,114.66c-.21.42-.41.85-.62,1.28.63-.17.78-.63.62-1.28Z"/><path class="cls-3" d="M249.65,28.77c.8.09,1.1.57.67,1.25-.4.64-.87,1.29-1.46,1.75-1.5,1.16-2.33,2.78-3.17,4.37-1.88,3.54-3.74,7.1-5.52,10.7-1.46,2.96-2.85,5.95-4.17,8.97-2.17,4.95-4.33,9.89-6.35,14.9-2.07,5.14-3.97,10.34-5.92,15.53-.74,1.96-1.38,3.97-2.12,5.94-.23.62-.64,1.17-.91,1.77-.36.82-.72,1.66-.97,2.52-1.38,4.77-2.73,9.55-4.09,14.33-.5,1.74-.94,3.5-1.5,5.23-.23.71-.69,1.35-1.03,2.02-.38.75-.75,1.51-1.19,2.39-.29-.4-.5-.68-.88-1.21-.09.58-.15.89-.21,1.28-.18-.07-.41-.16-.64-.25-.95,1.36-1.33,1.57-2.24,1.19.23-.35.47-.7.84-1.27-.7-.15-1.22-.29-1.75-.38-1.21-.19-1.88-.79-2.15-2.02-.12-.55-.18-1.13-.34-1.67-.08-.29-.25-.65-.49-.76-.8-.38-.76-1.08-.4-1.55.45-.58.39-1.14.39-1.74.01-3.16-.19-6.33.08-9.46.38-4.38.94-8.75,1.73-13.07,1.3-7.09,2.77-14.16,4.31-21.21.99-4.52,1.94-9.07,3.59-13.42.18-.48.26-1,.17-1.64-.21.25-.45.49-.61.77-2.77,4.74-5.54,9.49-8.3,14.24-.86,1.48-1.65,3.01-2.58,4.45-.98,1.51-2.04,2.97-3.14,4.4-.21.27-.75.29-1.29.48.05-.5.08-.85.11-1.21-.14.02-.28,0-.3.05-.66,1.35-1.07,2.83-2.28,3.87-.16.13.16.65-.07,1.1-.95,1.97-1.78,3.99-2.63,6-.15.34-.14.75-.27,1.1-.25.66-.41,1.43-.86,1.94-1.11,1.26-1.53,2.84-2.22,4.29-.24.51-.45,1.06,0,1.62.07.08-.14.4-.22.61,0,0,0,0,0,0-.58,1.7-1.16,3.39-1.72,5.09-.01.04.12.12.23.23.74-.06.67-1.08,1.45-1.29-.53,2.01-1.24,3.88-2.24,5.6-.96,1.65-2.11,3.18-3.15,4.78-1.17,1.8-2.31,3.61-3.46,5.42-.51.8-1,1.61-1.5,2.42-.06-.08-.12-.16-.17-.24-.58.21-1.21.35-1.74.66-.37.21-.63.35-.97.08h0c-.28.24-.55.48-.83.72-.06-.03-.11-.07-.17-.1.2-.44.39-.88.7-1.59-.78.1-1.34.17-2.06.26.07-.54.13-1.04.2-1.64-.31-.02-.65-.04-1.14-.07.19-.62.34-1.16.52-1.69.18-.54.01-1.07-.44-1.22-.93-.3-.82-.95-.58-1.54,3.12-7.65,6.27-15.29,9.43-22.93.86-2.07,1.74-4.14,2.74-6.15,1.16-2.33,2.49-4.57,3.7-6.87.98-1.86,1.83-3.79,2.86-5.62,2.66-4.7,5.2-9.48,8.13-14.01,2.12-3.27,4.08-6.67,6.7-9.62,1.13-1.28,1.98-2.81,2.95-4.22,1.69-2.43,3.29-4.92,5.48-6.98,2.3-2.16,4.42-4.52,6.78-6.6,1.45-1.28,3.17-2.28,4.86-3.26.7-.41,1.63-.42,2.43-.67.34-.11.64-.36,1.17-.66.41.12,1.09.31,1.84.53v3.05c.08.02.16.04.24.06.16-.34.32-.68.48-1.03.08.02.22.03.24.07.12.44.22.89.31,1.34.04.18-.05.48.05.54,1.37.99.64,2.2.26,3.27-.78,2.21-1.7,4.36-2.55,6.54-.76,1.96-1.47,3.94-2.27,5.88-.72,1.77-1.58,3.48-2.3,5.25-.93,2.3-1.85,4.61-2.67,6.96-1.05,3.02-1.99,6.08-2.97,9.12-.1.3-.12.63,0,1,.82-1.87,1.62-3.75,2.45-5.62,2.77-6.31,5.79-12.49,9.06-18.55,2.32-4.29,4.5-8.65,6.79-12.95.63-1.18,1.41-2.27,2.2-3.35.59-.82,1.36-1.4,2.42-1.65.72-.17,1.38-.61,2.06-.93,0,0,0,0,0,.01,1.26-.51,1.41-.37,1.61,1.46,1.01-.23,2.05-.37,2.64,1.01-.35.07-.67.13-.99.19-.06.4-.11.81-.17,1.23.51.03,1,.03,1.48.08h0ZM176.13,118.58c-.04.35-.07.7-.11,1.05.37-.25.56-.56.11-1.05ZM184.47,111.55c.08.07.17.13.25.19-.3.44-.6.89-.9,1.33-.1-.07-.2-.13-.29-.19.31-.44.62-.89.94-1.33ZM188.5,98c.3-.4.54-.73.79-1.05-.44.16-1.03.2-.79,1.05ZM196.13,83.4c-.08.26-.16.53-.24.8-.05-.01-.11-.03-.16-.04.06-.26.12-.52.19-.77,0-.03.07-.07.11-.07.03,0,.06.05.11.08ZM198.11,79.14c.09,1.1-.71,1.25-1.22,1.53.36-.45.71-.89,1.22-1.53ZM210,118.76l-.21-.14c-.15.18-.29.37-.44.55.09.07.18.13.27.2.13-.2.25-.4.38-.6ZM218.28,71.3c-.44.47-.6,1.01-.47,1.64.17-.61.32-1.13.47-1.64ZM245.07,24.82c-.27.41-.49.82-.12,1.32.98-.86.99-.94.12-1.32ZM248.31,27.44c-.05-.21-.1-.43-.2-.88-.51.52-.9.91-1.28,1.29l.19.23c.43-.21.86-.43,1.29-.64Z"/><path class="cls-3" d="M299.19,28.77c.8.09,1.1.57.67,1.25-.4.64-.87,1.29-1.46,1.75-1.5,1.16-2.33,2.78-3.17,4.37-1.88,3.54-3.74,7.1-5.52,10.7-1.46,2.96-2.85,5.95-4.17,8.97-2.17,4.95-4.33,9.89-6.35,14.9-2.07,5.14-3.97,10.34-5.92,15.53-.74,1.96-1.38,3.97-2.12,5.94-.23.62-.64,1.17-.91,1.77-.36.82-.72,1.66-.97,2.52-1.38,4.77-2.73,9.55-4.09,14.33-.5,1.74-.94,3.5-1.5,5.23-.23.71-.69,1.35-1.03,2.02-.38.75-.75,1.51-1.19,2.39-.29-.4-.5-.68-.88-1.21-.09.58-.15.89-.21,1.28-.18-.07-.41-.16-.64-.25-.95,1.36-1.33,1.57-2.24,1.19.23-.35.46-.7.84-1.27-.7-.15-1.22-.29-1.75-.38-1.21-.19-1.88-.79-2.15-2.02-.12-.55-.18-1.13-.34-1.67-.08-.29-.25-.65-.49-.76-.8-.38-.75-1.08-.39-1.55.45-.58.39-1.14.39-1.74.01-3.16-.19-6.33.08-9.46.38-4.38.94-8.75,1.73-13.07,1.3-7.09,2.77-14.16,4.31-21.21.99-4.52,1.94-9.07,3.59-13.42.18-.48.26-1,.17-1.64-.21.25-.45.49-.61.77-2.77,4.74-5.54,9.49-8.3,14.24-.86,1.48-1.65,3.01-2.58,4.45-.97,1.51-2.04,2.97-3.14,4.4-.21.27-.75.29-1.29.48.05-.5.08-.85.11-1.21-.14.02-.28,0-.3.05-.66,1.35-1.07,2.83-2.28,3.87-.16.13.16.65-.06,1.1-.95,1.97-1.78,3.99-2.64,6-.15.34-.14.75-.27,1.1-.25.66-.41,1.43-.86,1.94-1.11,1.26-1.53,2.84-2.22,4.29-.24.51-.45,1.06,0,1.62.07.08-.14.4-.22.61,0,0,0,0,0,0-.58,1.7-1.16,3.39-1.72,5.09-.01.04.12.12.23.23.74-.06.67-1.08,1.45-1.29-.53,2.01-1.24,3.88-2.24,5.6-.96,1.65-2.11,3.18-3.15,4.78-1.17,1.8-2.31,3.61-3.46,5.42-.51.8-1,1.61-1.5,2.42-.06-.08-.12-.16-.17-.24-.58.21-1.21.35-1.74.66-.37.21-.63.35-.97.08h0c-.28.24-.55.48-.83.72-.06-.03-.11-.07-.17-.1.19-.44.39-.88.7-1.59-.78.1-1.34.17-2.06.26.07-.54.13-1.04.2-1.64-.31-.02-.65-.04-1.14-.07.19-.62.34-1.16.52-1.69.18-.54.01-1.07-.44-1.22-.93-.3-.83-.95-.58-1.54,3.12-7.65,6.27-15.29,9.43-22.93.86-2.07,1.74-4.14,2.74-6.15,1.16-2.33,2.49-4.57,3.7-6.87.98-1.86,1.83-3.79,2.86-5.62,2.65-4.7,5.2-9.48,8.13-14.01,2.12-3.27,4.08-6.67,6.7-9.62,1.13-1.28,1.97-2.81,2.95-4.22,1.69-2.43,3.29-4.92,5.48-6.98,2.3-2.16,4.42-4.52,6.78-6.6,1.45-1.28,3.17-2.28,4.86-3.26.7-.41,1.63-.42,2.43-.67.34-.11.64-.36,1.17-.66.41.12,1.09.31,1.84.53v3.05c.08.02.16.04.24.06.16-.34.32-.68.49-1.03.08.02.22.03.24.07.12.44.22.89.31,1.34.04.18-.05.48.04.54,1.37.99.64,2.2.26,3.27-.78,2.21-1.7,4.36-2.55,6.54-.76,1.96-1.47,3.94-2.27,5.88-.73,1.77-1.58,3.48-2.3,5.25-.93,2.3-1.85,4.61-2.67,6.96-1.05,3.02-1.99,6.08-2.97,9.12-.1.3-.12.63,0,1,.82-1.87,1.62-3.75,2.45-5.62,2.77-6.31,5.79-12.49,9.06-18.55,2.32-4.29,4.5-8.65,6.79-12.95.63-1.18,1.42-2.27,2.2-3.35.59-.82,1.36-1.4,2.42-1.65.72-.17,1.38-.61,2.06-.93,0,0,0,0,0,.01,1.26-.51,1.41-.37,1.61,1.46,1.01-.23,2.05-.37,2.64,1.01-.35.07-.67.13-1,.19-.06.4-.11.81-.17,1.23.51.03,1,.03,1.48.08h0ZM225.66,118.58c-.04.35-.07.7-.11,1.05.37-.25.56-.56.11-1.05ZM234,111.55c.08.07.17.13.25.19-.3.44-.6.89-.9,1.33-.1-.07-.2-.13-.29-.19.31-.44.62-.89.94-1.33ZM238.03,98c.3-.4.54-.73.79-1.05-.44.16-1.03.2-.79,1.05ZM245.66,83.4c-.08.26-.16.53-.24.8-.05-.01-.11-.03-.16-.04.06-.26.12-.52.19-.77,0-.03.07-.07.11-.07.03,0,.06.05.1.08ZM247.64,79.14c.09,1.1-.71,1.25-1.22,1.53.36-.45.71-.89,1.22-1.53ZM259.53,118.76c-.07-.05-.14-.1-.21-.14-.15.18-.3.37-.44.55.09.07.18.13.27.2.13-.2.25-.4.38-.6ZM267.81,71.3c-.44.47-.6,1.01-.47,1.64.17-.61.32-1.13.47-1.64ZM294.6,24.82c-.27.41-.49.82-.12,1.32.98-.86.99-.94.12-1.32ZM297.84,27.44c-.05-.21-.1-.43-.2-.88-.51.52-.9.91-1.28,1.29l.19.23c.43-.21.86-.43,1.29-.64Z"/><path class="cls-3" d="M303.06,61.08c.78.55,1.37,1.25,1.17,2.51-.38,2.38-1.47,4.36-2.68,6.37-1.3,2.16-2.42,4.45-3.43,6.77-2.04,4.68-3.93,9.43-5.95,14.13-.88,2.05-1.94,4.03-2.92,6.04-1.39,2.88-2.77,5.77-4.18,8.64-.28.57-.51,1.49-1.28,1.34-.9-.17-.41-1.11-.52-1.71,0-.04-.05-.08-.13-.22-.25.06-.54.12-.66.15-.13-.48-.22-.96-.38-1.42-.16-.44-.39-.85-.63-1.36-.58.24-1.07.64-1.79.17-.66-.42-1.9.16-2.43.85-.35.45-.71.89-1.15,1.44-.41-.7-.74-1.31-.27-2.02.17-.25.47-.6.69-.59,1.22.06,1.91-.9,3.06-1.35-1.14-.65-2-.07-3.16.19.63-1.42,1.18-2.66,1.72-3.9,2.63-6.04,5.27-12.08,7.88-18.14,2.22-5.14,4.39-10.3,7.41-15.04.89-1.4,2-2.69,3.16-3.87,1.08-1.1,2.46-1.36,3.96-.75.41.17.91.12,1.48.18.06.65.38,1.16,1.02,1.62h0ZM320.2,26.57c.86.08,1.4.94,1.21,1.8-.12.5-.17,1.02-.24,1.53-.02.14.02.3-.03.43-.6,1.37-1.05,2.85-1.86,4.08-2.65,4-5.01,8.13-6.55,12.7-.47,1.4-.85,2.83-1.39,4.2-.25.62-.8,1.12-1.25,1.72-.69-.36-1.3-.69-2-1.06.45-1.08-1-1.25-1.04-2.16-1.16-.41-1.61-1.63-2.58-2.24-.17-.11-.45-.03-.68-.04-.55-1.52-.23-3.03.24-4.47,1.93-5.97,4.78-11.45,8.85-16.25.61-.72,1.35-1.36,2.09-1.95.79-.64,1.81-.56,2.59-.17.67.33,1.63.75,1.3,1.88.51,0,.93-.03,1.35,0h0Z"/><path class="cls-3" d="M368.47,28.77c.8.09,1.1.57.67,1.25-.4.64-.87,1.29-1.46,1.75-1.5,1.16-2.33,2.78-3.17,4.37-1.88,3.54-3.74,7.1-5.52,10.7-1.46,2.96-2.85,5.95-4.17,8.97-2.17,4.95-4.33,9.89-6.35,14.9-2.07,5.14-3.97,10.34-5.92,15.53-.74,1.96-1.38,3.97-2.12,5.94-.23.62-.64,1.17-.91,1.77-.36.82-.72,1.66-.97,2.52-1.38,4.77-2.73,9.55-4.09,14.33-.5,1.74-.94,3.5-1.5,5.23-.23.71-.69,1.35-1.03,2.02-.38.75-.75,1.51-1.19,2.39-.29-.4-.5-.68-.88-1.21-.09.58-.15.89-.21,1.28-.18-.07-.41-.16-.64-.25-.95,1.36-1.33,1.57-2.24,1.19.23-.35.46-.7.84-1.27-.7-.15-1.22-.29-1.75-.38-1.21-.19-1.88-.79-2.15-2.02-.12-.55-.18-1.13-.34-1.67-.08-.29-.25-.65-.49-.76-.8-.38-.75-1.08-.39-1.55.45-.58.39-1.14.39-1.74.01-3.16-.19-6.33.08-9.46.38-4.38.94-8.75,1.73-13.07,1.3-7.09,2.77-14.16,4.31-21.21.99-4.52,1.94-9.07,3.59-13.42.18-.48.26-1,.17-1.64-.21.25-.45.49-.61.77-2.77,4.74-5.54,9.49-8.3,14.24-.86,1.48-1.65,3.01-2.58,4.45-.97,1.51-2.04,2.97-3.14,4.4-.21.27-.75.29-1.29.48.05-.5.08-.85.11-1.21-.14.02-.28,0-.3.05-.66,1.35-1.07,2.83-2.28,3.87-.16.13.16.65-.06,1.1-.95,1.97-1.78,3.99-2.64,6-.15.34-.14.75-.27,1.1-.25.66-.41,1.43-.86,1.94-1.11,1.26-1.53,2.84-2.22,4.29-.24.51-.45,1.06,0,1.62.07.08-.14.4-.22.61,0,0,0,0,0,0-.58,1.7-1.16,3.39-1.72,5.09-.01.04.12.12.23.23.74-.06.67-1.08,1.45-1.29-.53,2.01-1.24,3.88-2.24,5.6-.96,1.65-2.11,3.18-3.15,4.78-1.17,1.8-2.31,3.61-3.46,5.42-.51.8-1,1.61-1.5,2.42-.06-.08-.12-.16-.17-.24-.58.21-1.21.35-1.74.66-.37.21-.63.35-.97.08h0c-.28.24-.55.48-.83.72-.06-.03-.11-.07-.17-.1.19-.44.39-.88.7-1.59-.78.1-1.34.17-2.06.26.07-.54.13-1.04.2-1.64-.31-.02-.65-.04-1.14-.07.19-.62.34-1.16.52-1.69.18-.54.01-1.07-.44-1.22-.93-.3-.83-.95-.58-1.54,3.12-7.65,6.27-15.29,9.43-22.93.86-2.07,1.74-4.14,2.74-6.15,1.16-2.33,2.49-4.57,3.7-6.87.98-1.86,1.83-3.79,2.86-5.62,2.65-4.7,5.2-9.48,8.13-14.01,2.12-3.27,4.08-6.67,6.7-9.62,1.13-1.28,1.97-2.81,2.95-4.22,1.69-2.43,3.29-4.92,5.48-6.98,2.3-2.16,4.42-4.52,6.78-6.6,1.45-1.28,3.17-2.28,4.86-3.26.7-.41,1.63-.42,2.43-.67.34-.11.64-.36,1.17-.66.41.12,1.09.31,1.84.53v3.05c.08.02.16.04.24.06.16-.34.32-.68.49-1.03.08.02.22.03.24.07.12.44.22.89.31,1.34.04.18-.05.48.04.54,1.37.99.64,2.2.26,3.27-.78,2.21-1.7,4.36-2.55,6.54-.76,1.96-1.47,3.94-2.27,5.88-.73,1.77-1.58,3.48-2.3,5.25-.93,2.3-1.85,4.61-2.67,6.96-1.05,3.02-1.99,6.08-2.97,9.12-.1.3-.12.63,0,1,.82-1.87,1.62-3.75,2.45-5.62,2.77-6.31,5.79-12.49,9.06-18.55,2.32-4.29,4.5-8.65,6.79-12.95.63-1.18,1.42-2.27,2.2-3.35.59-.82,1.36-1.4,2.42-1.65.72-.17,1.38-.61,2.06-.93,0,0,0,0,0,.01,1.26-.51,1.41-.37,1.61,1.46,1.01-.23,2.05-.37,2.64,1.01-.35.07-.67.13-1,.19-.06.4-.11.81-.17,1.23.51.03,1,.03,1.48.08h0ZM294.95,118.58c-.04.35-.07.7-.11,1.05.37-.25.56-.56.11-1.05ZM303.29,111.55c.08.07.17.13.25.19-.3.44-.6.89-.9,1.33-.1-.07-.2-.13-.29-.19.31-.44.62-.89.94-1.33ZM307.32,98c.3-.4.54-.73.79-1.05-.44.16-1.03.2-.79,1.05ZM314.95,83.4c-.08.26-.16.53-.24.8-.05-.01-.11-.03-.16-.04.06-.26.12-.52.19-.77,0-.03.07-.07.11-.07.03,0,.06.05.1.08ZM316.93,79.14c.09,1.1-.71,1.25-1.22,1.53.36-.45.71-.89,1.22-1.53ZM328.82,118.76c-.07-.05-.14-.1-.21-.14-.15.18-.3.37-.44.55.09.07.18.13.27.2.13-.2.25-.4.38-.6ZM337.1,71.3c-.44.47-.6,1.01-.47,1.64.17-.61.32-1.13.47-1.64ZM363.89,24.82c-.27.41-.49.82-.12,1.32.98-.86.99-.94.12-1.32ZM367.13,27.44c-.05-.21-.1-.43-.2-.88-.51.52-.9.91-1.28,1.29l.19.23c.43-.21.86-.43,1.29-.64Z"/><path class="cls-3" d="M408.32,69.67c0,.09,0,.18,0,.27.47.12.95.24,1.55.4-1.75.88-3.28,1.97-5.18,2.37-1.87.39-3.7.94-5.55,1.43-1.35.36-2.27,1.08-2.91,2.46-1.62,3.5-3.5,6.89-5.25,10.34-.41.8-.65,1.69-1.07,2.49-.3.58-.81,1.06-1.15,1.63-1.38,2.35-2.74,4.71-4.08,7.08-.16.28-.18.62-.31.92-.38.86-.76,1.72-1.18,2.57-.07.14-.32.33-.42.3-.71-.23-.82.54-.81.72.07,1.69-1.36,2.43-2.26,3.53l1.1-1.99c-.09-.05-.17-.1-.26-.15-.15.16-.3.33-.45.49-1.54,1.63-3.07,3.27-4.65,4.87-.6.61-1.3,1.03-2.27,1.04-.88,0-1.81.18-2.48.94-.17.19-.48.25-.85.42.08-.35.13-.56.16-.71-1.17.13-2.36.26-3.66.4.15-.27.25-.44.41-.73h-1.83c-.34-.26-.59-.53-.89-.66-.38-.17-.81-.27-1.23-.35-3.09-.6-4.94-2.78-6.4-5.29-1.7-2.94-2.61-6.14-2.66-9.57-.04-3.1-.25-6.21.39-9.3-.15,3.38-.4,6.77.48,10.13.02-.29.1-.59.05-.87-.39-2.38-.15-4.77-.07-7.16.02-.42.42-.82.73-1.38-.07-.12-.35-.45-.44-.83-.09-.4-.03-.86.03-1.28.13-.95.3-1.89.45-2.83.04-.24.11-.49.06-.71-.48-2.4.41-4.62,1.05-6.82.89-3.07,2.01-6.07,3.13-9.06.45-1.2,1.13-2.3,1.71-3.44,1.22-2.38,2.35-4.81,3.69-7.11.88-1.5,2.1-2.81,3.1-4.24.81-1.16,1.86-2.16,2.09-3.69.07-.5.62-.94.95-1.4.13.06.27.12.4.18.03-.11.06-.21.09-.32-.11.02-.23.03-.34.05.69-.82,1.71-1.34,2.07-2.45.08-.24.36-.46.6-.6,2.54-1.5,4.19-4.01,6.51-5.76.37-.28.8-.48,1.18-.75.22-.15.41-.35.6-.55.27-.27.49-.59.79-.82,2.08-1.6,4.16-3.21,6.28-4.76,2.27-1.66,4.46-3.47,7.06-4.62,1.53-.67,3.08-1.31,4.67-1.81,1.54-.49,3.16-.72,4.72-1.17.8-.23,1.53-.69,2.54-1.15.57.42,1.53.84,2.02,1.58.52.78,1.82.51,1.98,1.82-.52-.18-.92-.32-1.37-.47-.26.65.02,1.08.4,1.45,1,.99,1.35,2.07,1,3.5-.38,1.56-.4,3.21-.75,4.79-.35,1.57-.92,3.1-1.41,4.64-.28.86-.63,1.7-.9,2.56-.92,2.97-2.01,5.86-3.75,8.63-.09-.27-.14-.46-.21-.66-.93-.02-1.33.64-1.67,1.33-.33.67-.66,1.18-1.45.5-.09-.08-.31-.02-.47,0-1.37.2-2.82-.79-3.06-2.12-.18-.99-.25-1.97.19-2.95.84-1.88,1.56-3.8,2.39-5.68,1.46-3.27,2.96-6.52,4.44-9.78.1-.21.18-.42.35-.83-.46.06-.79.01-1.03.15-2.97,1.64-6.23,2.74-8.96,4.81-1.6,1.21-3.21,2.42-4.73,3.73-5.05,4.35-9.79,9.04-13.77,14.36-4.71,6.3-8.66,13.08-11.16,20.6-.1.32-.27.61-.41.92,0-.37-.11-.78.01-1.1.79-2.1,1.63-4.18,2.44-6.27.12-.31.18-.64.26-.96-.89-.15-.24-.76-.34-1.15-.05-.19-.1-.38-.25-.91-.58,1.15-1.02,1.99-1.42,2.83-.41.86-.73,1.77-1.46,2.43.13-.57.36-1.09.58-1.61.22-.53.52-1.04.42-1.89-1.5,1.86-1.87,3.98-2.98,5.76.51-2.12,1.39-4.13,1.76-6.3-2.01,3.92-3.19,8.18-5.04,12.17-.28-2.09,1.02-3.9,1.02-5.94-.34.44-.61.9-.76,1.39-.76,2.51-1.48,5.03-2.23,7.55-.15.5-.3,1.01-.53,1.47-.54,1.06-.69,2.17-.57,3.33.02.23.16.52.07.68-.85,1.48-.69,2.98-.25,4.52.08.29.04.7-.11.97-.4.77.27,1.53-.02,2.29-.01.03.42.23.76.41.12-1.77.18-3.39.36-4.99.28-2.51.62-5.02.99-7.53.06-.42.35-.81.54-1.22-.46,3.77-1.49,7.46-.17,11.27.2-1.57.4-3.14.63-4.91.88.91-.25,2.01.68,2.67.59-1.39.55-2.15-.14-3.23-.08-.12-.17-.26-.17-.38.07-1.12.17-2.24.26-3.36.18.71.09,1.45.32,2.09.29.8.55,1.58.48,2.44,0,.09,0,.23.06.27.68.5.38,1.21.41,1.84.02.45,0,.9,0,1.69.27-.43.37-.54.4-.65.12-.61.25-1.22.32-1.83.52-4.29,1.57-8.45,2.93-12.54.16-.48.5-.9.76-1.34-.78,2.86-1.61,5.7-2.33,8.58-.89,3.54-1.27,7.15-1.25,10.8,0,1.24-.25,2.49-.11,3.71.26,2.32.53,4.68,1.94,6.67.77,1.09,1.67,1.32,2.87.7,1.96-1.01,3.49-2.57,4.72-4.33,1.73-2.46,3.32-5.03,4.8-7.65,2.45-4.33,4.76-8.74,7.12-13.12.31-.58.55-1.2.89-1.96-.62-.25-1.14-.65-1.65-.63-1.7.07-2.75-1.03-3.47-2.2-1.87-3.04-1.91-6.13,2.13-7.62,1.49-.55,3.18-.56,4.79-.81,3.92-.6,7.85-1.18,11.77-1.8,1.84-.29,3.67-.68,5.51-.98.54-.09,1.1-.31,1.62.34.21.26,1,.15,1.52.08,2.02-.26,3.56.65,5.05,1.98-.36.22-.62.39-.99.62.6.42,1.12.78,1.84,1.28-.53.31-.91.53-1.37.8.03.17.07.38.13.69-1.07.43-2.15.86-3.23,1.3ZM354.41,83.8c-.06,0-.11-.02-.17-.03.11-.56.22-1.12.32-1.68l.21.07-.37,1.64ZM355.61,87.95c.04-.13.07-.25.1-.36-.08,0-.19-.04-.24,0-.06.04-.11.15-.1.23,0,.04.13.08.24.14ZM355.72,90.93c-.05-.06-.1-.12-.15-.18-.05.06-.16.14-.15.18.04.09.12.16.19.24.04-.08.07-.16.11-.24ZM355.51,84.85c.16-.03.32-.04.33-.07.77-3.47,1.53-6.94,2.28-10.42.03-.15-.05-.33-.08-.5-.09-.02-.17-.04-.26-.07-.17.35-.41.69-.5,1.06-.77,3.29-1.97,6.52-1.77,10h0ZM361.03,77.84h.19c.01.23.02.47.04.7-.08.01-.15.02-.23.04v-.74ZM361.38,82.16c.22.94,1.16,1.76.38,2.75-.08-.45-.17-.91-.23-1.37-.06-.46-.1-.92-.15-1.38ZM362.27,75.32c-.11.05-.23.12-.36.14-.04,0-.17-.14-.15-.18.05-.11.14-.2.22-.3.06.06.11.13.3.34ZM362.02,64.18c.11.06.22.12.33.17.19-.35.37-.7.56-1.04-.12-.08-.24-.16-.36-.23-.18.37-.36.73-.53,1.1ZM362.07,67.04c.1.04.19.09.29.13.43-1.03.87-2.05,1.3-3.08-.97.78-1.38,1.81-1.59,2.94ZM362.96,76.7c-.26.94-.53,1.87-.79,2.81.12-.98-.16-2.08.79-2.81ZM362.36,61.29c.07.03.14.05.21.08.15-.32.3-.65.45-.97-.1-.04-.19-.08-.29-.12-.12.34-.25.67-.38,1ZM362.96,76.69s0,0,0,0h0s0,0,0,0c-.21-1,.14-1.9.35-2.82l.28.05c-.21.92-.42,1.84-.63,2.76h0ZM364.27,71.63c-.06-.04-.13-.07-.19-.11.07-.17.15-.33.22-.5.05.02.1.03.14.05-.06.18-.12.37-.17.55h0ZM364.54,61.65l.19.06.26-.53c-.1-.03-.2-.07-.3-.1-.05.19-.1.38-.14.58ZM367.06,62.9c.09.02.18.03.28.05.05-.24.09-.47.14-.71l-.29-.05c-.04.24-.08.47-.12.71ZM368.54,62.46c1.25.17,1.83-.16,1.94-1.06.02-.14,0-.29-.02-.43-.07-.5-.15-1.01-.25-1.68-.66,1.15-1.46,2-1.67,3.17ZM370.7,56.43c.09.05.19.09.29.14.07-.19.13-.38.2-.57-.06-.03-.13-.05-.19-.08-.1.17-.2.34-.3.51ZM371.63,58.34c.32-.61.58-1.11.84-1.61-.75.58-1.03,1.12-.84,1.61Z"/><path class="cls-3" d="M528.16,67.11c.76.19,1.46.37,2.26.58-.29,1.1-1.16,1.71-1.99,2.27-2.76,1.85-5.55,3.65-8.32,5.47-5.76,3.78-11.53,7.56-17.29,11.36-.61.4-1.11.95-1.69,1.39-.81.6-1.01,1.39-.98,2.35.18,5.27.26,10.54.53,15.8.13,2.6-.26,4.81-2.78,6.19-2.06-.96-3.65-2.44-4.76-4.64-.06,1.03-.1,1.78-.17,2.88-1.68-2.35-1.63-4.66-1.57-7,.05-2.42.01-4.83.01-7.86-1.38,1.1-2.39,1.83-3.3,2.66-3.59,3.28-7.11,6.65-10.76,9.87-1.26,1.12-2.85,1.86-4.24,2.84-2.98,2.11-5.81,1.48-8.6-.38-.33-.22-.6-.54-.92-.78-1.08-.8-2.8-1.39-3.12-2.42-.54-1.68-.43-3.7-.14-5.5.77-4.8,3.23-8.84,6.18-12.63.74-.96,1.28-2.08,2.01-3.04.63-.82,1.42-1.53,2.13-2.29.44-.47,1.05-.89,1.26-1.46,1.29-3.49,4.25-5.33,7.03-7.37.33-.24.77-.42.94-.75,1.65-3.1,4.74-4.82,6.95-7.38,1.37-1.58,2.81-3.12,3.95-4.86.58-.88.74-2.13.82-3.23.31-4.53.3-9.08.81-13.59.73-6.46,1.86-12.86,5.42-18.53,2.44-3.89,5.13-7.54,9.35-9.66,3.4-1.71,6.77-2.26,10.27.08,1.6,1.07,3.22,2.09,4.77,3.26,3.17,2.39,3.81,5.46,2.94,9.02-.87,3.55-2.06,6.99-3.93,10.17-4.18,7.12-9.59,13.26-15.19,19.25-1.83,1.96-3.67,3.9-5.45,5.89-.41.46-.81,1.12-.82,1.69-.05,3.38-.49,6.79.5,10.6,9.41-5.98,19.18-10.72,28.81-15.83.57.89,1,1.56,1.57,2.46-.75.94-1.53,1.91-2.48,3.1ZM491.34,78.95c-.02-1.1-.18-2.2-.31-3.61-6.96,3.95-19.68,20.29-21.18,26.88.25-.05.52-.02.67-.14,2.92-2.3,5.83-4.6,8.72-6.94.88-.71,1.65-1.55,2.52-2.28,2.74-2.29,5.48-4.58,8.26-6.82.83-.67,1.27-1.39,1.25-2.47-.03-1.54.09-3.08.07-4.62ZM492.69,78.98c-.13.36-.18.43-.18.5.01.47.03.95.05,1.42,0,.04.06.08.09.12.08-.46.17-.92.22-1.39.02-.14-.08-.29-.19-.66ZM492.56,75.6c.1,0,.2,0,.3,0v-1.42c-.1,0-.2,0-.3,0v1.42ZM495.89,33.28c-1.89,3.7-4.1,21.73-3.03,26.65,1.02-4.38.19-8.91.99-13.32.81-4.45,1.38-8.94,2.04-13.33ZM500.19,52.75c.21.12.42.25.64.37.6-.5,1.3-.92,1.78-1.51,3.6-4.47,7.57-8.63,10.89-13.34,2.8-3.97,4.04-8.35,4.61-13.03.16-1.35-.5-2.26-1.84-2.39-1.03-.1-2.19-.15-3.12.21-3.6,1.4-6.48,3.63-7.68,7.52-.12.38-.2.83-.46,1.11-1.76,1.98-2.19,4.53-2.66,6.94-.91,4.67-1.45,9.41-2.15,14.12ZM526.76,67.1l-.28-.45c-1.28.78-2.57,1.57-3.86,2.35.11.18.23.37.34.55,1.27-.82,2.53-1.63,3.8-2.45Z"/><path class="cls-3" d="M81.24,156.95c-.38,3.46-1.71,7.02-2.86,10.62-1.5,4.71-2.99,9.42-4.46,14.14-1.25,4-2.49,8-3.71,12-.31,1.03-.88,2.12.03,3.19.5.04,1.14.08,1.77.13.01.06.03.13.04.19-.46.15-.92.29-1.53.49.39.37.71.67,1.22,1.14-.52-.08-.78-.12-1.06-.16-.06.68-.12,1.33-.18,2.08.37-.08.68-.15,1.02-.22.17.27.34.55.45.74-.73.64-1.41,1.24-2.09,1.82-.63.54-1.06,1.23-1.87,1.68-1.08.6-2.05,1.38-2.56,2.75-2.28,6.21-4.7,12.38-7.09,18.56-1.05,2.71-2.18,5.4-3.21,8.12-.8,2.13-1.47,4.3-2.24,6.45-.71,2.01-1.47,4.01-2.3,6.25-.11-.42-.17-.65-.24-.93-1.5.73-1.98,2.29-3.07,3.58,0-.49-.01-.84-.02-1.23-.53.35-1.06,1.16-1.6,2.44.03-.32.12-.65.07-.94-.07-.35-.23-.7-.44-.97-.32-.4-.72-.73-1.11-1.12-.02.02-.1.14-.21.19-.52.24-1.06.45-1.69.72-.18-2.34-.16-4.58.44-6.88,1.31-5.07,2.8-10.11,4.66-15.05,1.79-4.77,3.76-9.49,5.67-14.23.47-1.17,1-2.31,1.47-3.47.18-.44.28-.9.49-1.56-1.41.21-2.62.38-3.82.57-1.48.23-2.97.47-4.45.71-2.27.37-4.53.76-6.8,1.13-.7.11-1.21.44-1.61,1.08-2.66,4.26-5.33,8.52-8.02,12.76-1.14,1.79-2.36,3.54-3.55,5.31-.15.22-.31.47-.52.63-.92.69-1.98,1.11-2.94,1.73-.93.61-2.13.76-3.41,1.18.08-.42.11-.61.14-.76-.35.19-.74.54-1.09.53-.24,0-.38-.57-.65-.77-.28-.2-.67-.27-1.05-.41.19-1.11.44-2.24.55-3.37.15-1.46.91-2.67,1.66-3.92,2.22-3.67,4.81-7.09,7.3-10.58.44-.62.83-1.27,1.42-2.17-.9.04-1.53.03-2.16.1-3.37.4-6.74.82-10.1.69-1.26-.05-2.55.01-3.76-.22-.93-.18-1.78-.71-2.61-1.16-.72-.4-1.37-.91-1.96-1.31.01-.38.15-.8,0-.94-.62-.62-.37-1.2-.09-1.98.44-1.23,1.61-1.87,2.18-3,.2-.4,1.15-.47,1.83-.73-.25-.09-.44-.15-.65-.22.34-.69,1.17-.96,1.48-1.72.08-.21.8-.28,1.22-.29,1.44-.03,2.88.11,4.32-.02,2.79-.25,5.59-.63,8.39-.96,2.54-.29,5.07-.58,7.61-.87.48-.05.96-.11,1.44-.17.53-.07.89-.34,1.15-.83.5-.96,1.04-1.9,1.57-2.84,2.27-3.96,4.68-7.84,7.37-11.56,1.41-1.95,2.72-3.97,4.22-5.85,2.15-2.7,4.4-5.32,6.67-7.92,1.67-1.91,3.35-3.84,5.21-5.57,2.18-2.04,4.27-4.21,6.76-5.91.51-.35.89-.91,1.38-1.3,1.69-1.37,3.39-2.73,5.12-4.05.98-.75,1.16-.7,1.96.02.53-.21.93-.44,1.35-.51.25-.04.72.09.76.26.23.87,1.41,1.48.29,2.86.98-.24,1.22.16,1.4.73.1.33.37.6.68,1.09ZM65.93,171.92c-.75.67-1.51,1.24-2.14,1.93-1.9,2.08-3.8,4.17-5.59,6.33-1.45,1.74-2.81,3.56-4.08,5.43-1.55,2.28-2.99,4.64-4.43,6.99-.65,1.06-1.43,2.08-1.61,3.54,1.55-.11,3.02-.26,4.49-.32,1.65-.07,3.32-.17,4.95-.06,1.28.09,1.5.08,1.9-1.21.98-3.19,1.97-6.37,2.94-9.56,1.19-3.91,2.38-7.83,3.56-11.74.14-.44.38-.9.01-1.33Z"/><path class="cls-3" d="M140.19,158.77c.8.09,1.1.57.67,1.25-.4.64-.87,1.29-1.46,1.75-1.5,1.16-2.33,2.78-3.17,4.37-1.88,3.54-3.74,7.1-5.52,10.7-1.46,2.96-2.85,5.95-4.17,8.97-2.17,4.95-4.33,9.89-6.35,14.9-2.07,5.14-3.97,10.34-5.92,15.53-.74,1.96-1.38,3.97-2.12,5.94-.23.62-.64,1.17-.91,1.77-.36.82-.72,1.66-.97,2.52-1.38,4.77-2.73,9.55-4.09,14.33-.5,1.74-.94,3.5-1.5,5.23-.23.71-.69,1.35-1.03,2.02-.38.75-.75,1.51-1.19,2.39-.29-.4-.5-.68-.88-1.21-.09.58-.15.89-.21,1.28-.18-.07-.41-.16-.64-.25-.95,1.36-1.33,1.57-2.24,1.19.23-.35.47-.7.84-1.27-.7-.15-1.22-.29-1.75-.38-1.21-.19-1.88-.79-2.15-2.02-.12-.55-.18-1.13-.34-1.67-.08-.29-.25-.65-.49-.76-.8-.38-.76-1.08-.4-1.55.45-.58.39-1.14.39-1.74.01-3.16-.19-6.33.08-9.46.38-4.38.94-8.75,1.73-13.07,1.3-7.09,2.77-14.16,4.31-21.21.99-4.52,1.94-9.07,3.59-13.42.18-.48.26-1,.17-1.64-.21.25-.45.49-.61.77-2.77,4.74-5.54,9.49-8.3,14.24-.86,1.48-1.65,3.01-2.58,4.45-.98,1.51-2.04,2.97-3.14,4.4-.21.27-.75.29-1.29.48.05-.5.08-.85.11-1.21-.14.02-.28,0-.3.05-.66,1.35-1.07,2.83-2.28,3.87-.16.13.16.65-.07,1.1-.95,1.97-1.78,3.99-2.63,6-.15.34-.14.75-.27,1.1-.25.66-.41,1.43-.86,1.94-1.11,1.26-1.53,2.84-2.22,4.29-.24.51-.45,1.06,0,1.62.07.08-.14.4-.22.61,0,0,0,0,0,0-.58,1.7-1.16,3.39-1.72,5.09-.01.04.12.12.23.23.74-.06.67-1.08,1.45-1.29-.53,2.01-1.24,3.88-2.24,5.6-.96,1.65-2.11,3.18-3.15,4.78-1.17,1.8-2.31,3.61-3.46,5.42-.51.8-1,1.61-1.5,2.42-.06-.08-.12-.16-.17-.24-.58.21-1.21.35-1.74.66-.37.21-.63.35-.97.08h0c-.28.24-.55.48-.83.72-.06-.03-.11-.07-.17-.1.2-.44.39-.88.7-1.59-.78.1-1.34.17-2.06.26.07-.54.13-1.04.2-1.64-.31-.02-.65-.04-1.14-.07.19-.62.34-1.16.52-1.69.18-.54.01-1.07-.44-1.22-.93-.3-.82-.95-.58-1.54,3.12-7.65,6.27-15.29,9.43-22.93.86-2.07,1.74-4.14,2.74-6.15,1.16-2.33,2.49-4.57,3.7-6.87.98-1.86,1.83-3.79,2.86-5.62,2.66-4.7,5.2-9.48,8.13-14.01,2.12-3.27,4.08-6.67,6.7-9.62,1.13-1.28,1.98-2.81,2.95-4.22,1.69-2.43,3.29-4.92,5.48-6.98,2.3-2.16,4.42-4.52,6.78-6.6,1.45-1.28,3.17-2.28,4.86-3.26.7-.41,1.63-.42,2.43-.67.34-.11.64-.36,1.17-.66.41.12,1.09.31,1.84.53v3.05c.08.02.16.04.24.06.16-.34.32-.68.48-1.03.08.02.22.03.24.07.12.44.22.89.31,1.34.04.18-.05.48.05.54,1.37.99.64,2.2.26,3.27-.78,2.21-1.7,4.36-2.55,6.54-.76,1.96-1.47,3.94-2.27,5.88-.72,1.77-1.58,3.48-2.3,5.25-.93,2.3-1.85,4.61-2.67,6.96-1.05,3.02-1.99,6.08-2.97,9.12-.1.3-.12.63,0,1,.82-1.87,1.62-3.75,2.45-5.62,2.77-6.31,5.79-12.49,9.06-18.55,2.32-4.29,4.5-8.65,6.79-12.95.63-1.18,1.41-2.27,2.2-3.35.59-.82,1.36-1.4,2.42-1.65.72-.17,1.38-.61,2.06-.93,0,0,0,0,0,.01,1.26-.51,1.41-.37,1.61,1.46,1.01-.23,2.05-.37,2.64,1.01-.35.07-.67.13-.99.19-.06.4-.11.81-.17,1.23.51.03,1,.03,1.48.08h0ZM66.67,248.58c-.04.35-.07.7-.11,1.05.37-.25.56-.56.11-1.05ZM75.01,241.55c.08.07.17.13.25.19-.3.44-.6.89-.9,1.33-.1-.07-.2-.13-.29-.19.31-.44.62-.89.94-1.33ZM79.04,228c.3-.4.54-.73.79-1.05-.44.16-1.03.2-.79,1.05ZM86.67,213.4c-.08.26-.16.53-.24.8-.05-.01-.11-.03-.16-.04.06-.26.12-.52.19-.77,0-.03.07-.07.11-.07.03,0,.06.05.11.08ZM88.65,209.14c.09,1.1-.71,1.25-1.22,1.53.36-.45.71-.89,1.22-1.53ZM100.54,248.76l-.21-.14c-.15.18-.29.37-.44.55.09.07.18.13.27.2.13-.2.25-.4.38-.6ZM108.82,201.3c-.44.47-.6,1.01-.47,1.64.17-.61.32-1.13.47-1.64ZM135.61,154.82c-.27.41-.49.82-.12,1.32.98-.86.99-.94.12-1.32ZM138.85,157.44c-.05-.21-.1-.43-.2-.88-.51.52-.9.91-1.28,1.29l.19.23c.43-.21.86-.43,1.29-.64Z"/><path class="cls-3" d="M179.24,187.81c-.37.81-.65,1.66-1.04,2.69h5.88c-.36.42-.56.64-.75.86.96.91,2.33,1.22,4.11.92.67.54.49,1.03-.35,1.58h1.81c-.52.39-.8.6-1.09.81.11.18.2.33.28.48-.1.1-.15.19-.24.22-1.83.64-3.6,1.37-5.24,2.45-1.05.69-2.37.98-3.4,1.69-1.34.93-2.93,1.14-4.31,1.84-1.4.71-2.66,1.53-3.4,3.19-1.9,4.28-4.08,8.43-6.13,12.63-1.4,2.87-2.94,5.69-4.14,8.64-1.2,2.93-2.85,5.62-4.06,8.51-.52,1.23-1.49,2.05-2.02,3.21-.53,1.17-1.07,2.35-1.6,3.52-.31.7-.66,1.38-.9,2.11-.25.74-.71,1.35-1.4,1.52-1,.24-1.52.85-1.88,1.85-.31-.24-.52-.41-.73-.58.01,0,.02,0,.03,0-.05-.68-.1-1.36-.14-2.05-.9-.02-1.5.32-1.77,1.39-.28-.47-.49-.67-.48-.86.07-1.13-.4-2.21-.98-2.99-1.04-1.42-.3-2.6.1-3.8,1.92-5.77,4.48-11.27,7.36-16.62,2.52-4.67,4.99-9.37,7.47-14.05.13-.25.23-.51.41-.92-.4.04-.67.01-.92.08-5.96,1.79-11.83,3.81-17.52,6.33-1.22.54-2.44,1.11-3.56,1.83-.6.39-1.12,1.06-1.44,1.71-2.78,5.61-5.5,11.25-8.24,16.88-1,2.06-1.99,4.13-3.01,6.18-.54,1.08-1.32,1.94-2.48,2.39-.18-.21-.32-.39-.47-.55-.58.51-1.13,1.02-1.7,1.5-.37.31-.72.43-1.28.2-.52-.21-.78-.48-1.09-.92-.23-.32-.87-.21-1.04-.92-.17-.68-.91-1.2-1.16-1.88-.89-2.35-.33-4.58.76-6.73,1.98-3.92,3.97-7.83,5.91-11.77.67-1.36,1.2-2.79,1.83-4.17.11-.24.37-.41.69-.75h-.9c-.36-.68-.8-1.25-.96-1.89-.14-.56-.16-1.07-.73-1.42-.13-.08-.01-.6.03-.91.08-.56.29-1.12.26-1.67-.1-1.57.44-2.68,1.9-3.28,1.28-.52,2.62-.89,3.93-1.32.27-.09.55-.15.84-.19,1.6-.21,2.62-1.06,3.33-2.54.72-1.5,1.59-2.98,2.65-4.25,2.9-3.45,5.27-7.25,7.73-11,1.92-2.94,4.41-5.39,6.5-8.17,1.03-1.38,2.11-2.72,3.26-4,1.15-1.27,2.42-2.42,3.63-3.64,2.22-2.23,4.34-4.56,6.66-6.69,2.63-2.42,5.32-4.78,8.34-6.74.85-.55,1.82-1,2.26-2.07.14-.34.64-.55,1-.78,1.36-.88,2.75-1.72,4.1-2.61.47-.31.82-.83,1.31-1.1.51-.29,1.13-.42,1.68-.86-.38-.02-.75-.04-1.13-.07.02-.06.02-.19.07-.21,1.79-.82,3.63-1.43,5.62-1.57,1.52-.11,2.55.86,3.7,1.57.08.05.16.14.17.22.14,1.23.98,2.14,1.45,3.21.24.56.23,1.3.15,1.94-.73,5.43-3.09,10.3-5.4,15.17-1.92,4.04-4.1,7.96-5.74,12.14-.68,1.73-1.62,3.35-2.39,5.04ZM180.58,163.2c.65-1.43,1.28-2.86,1.92-4.3-.09-.1-.18-.21-.26-.31-.41.19-.85.34-1.23.58-1.13.71-2.29,1.39-3.35,2.21-2.41,1.87-4.9,3.67-7.1,5.77-2.68,2.56-5.21,5.31-7.62,8.13-2.47,2.88-4.74,5.94-7.06,8.95-.67.87-1.23,1.82-1.79,2.76-1.28,2.17-2.54,4.36-3.79,6.55-.87,1.52-1.71,3.05-2.73,4.87.95-.25,1.64-.38,2.29-.6,5.29-1.82,10.65-3.37,16.1-4.62.69-.16,1.12-.44,1.36-1.08.13-.36.31-.7.47-1.04,4.26-9.29,8.52-18.58,12.78-27.87ZM149.32,244.66c-.21.42-.41.85-.62,1.28.63-.17.78-.63.62-1.28Z"/><path class="cls-3" d="M234.87,211.03c-.5.15-1.22.13-1.13,1.07,1.28.28,2.58.41,3.96.1-.61.5-.41,1.55-1.38,1.71,0,0,0-.01,0-.02-1.57.5-3.12,1.09-4.72,1.49-5.25,1.32-10.39,2.93-15.31,5.21-1.24.57-2.5,1.09-3.87,1.41-1.31.3-2.63.84-3.58,2.1-.58.78-1.7,1.25-2.66,1.63-1.58.62-2.83,1.72-4.2,2.63-4.14,2.75-8.22,5.59-12.4,8.28-3.29,2.12-6.83,3.8-10.62,4.85-.84.23-1.74.09-2.55.69-.58.43-1.21-.17-1.12-.92.03-.23.16-.56.06-.66-.36-.37-.76-.74-1.22-.94-.35-.15-.81-.03-1.27-.03.16-.25.28-.44.46-.71-.49-.12-.93-.22-1.38-.32-.04-.66-.07-1.26-.11-1.96.25-.15.58-.36.99-.6-1.01-.31-.49-1.63-1.61-1.77.37-1.12.66-2.12,1.02-3.1,1.07-2.97,2.35-5.84,4.07-8.52,1.93-3.02,3.74-6.11,5.62-9.16,1.25-2.03,2.63-3.98,3.79-6.06,2.44-4.38,4.77-8.83,7.13-13.25,2.61-4.89,5.18-9.8,7.8-14.69,3.42-6.36,7.21-12.5,11.11-18.58.88-1.37,1.75-2.74,2.65-4.09.78-1.16,1.69-2.19,3.13-2.55.09-.02.2-.06.26-.12,1.01-1.14,2.44-1.29,3.87-1.6.08.36.16.71.25,1.11.29-.36.56-.7.94-1.17.47.6.77.99,1.1,1.4-.27.63-.52,1.22-.77,1.81.07.05.14.1.21.16.25-.2.5-.4.74-.59.09.08.2.14.21.21.25,1.61-.13,3.12-.7,4.61-1.1,2.83-2.71,5.37-4.35,7.9-2.78,4.3-5.6,8.56-8.28,12.92-2.88,4.68-5.91,9.27-8.39,14.19-.88,1.75-1.72,3.52-2.67,5.24-.85,1.52-1.82,2.97-2.73,4.45-.03.08-.05.16-.08.24-.59,1.33-1.18,2.67-1.78,4l.03-.02c-.47.89-.93,1.79-1.39,2.67-.26.45-.53.91-.8,1.37.39.57-.05,1-.28,1.44-1.52,2.86-3.07,5.72-4.6,8.57-.06.11-.04.26-.11.7,13.45-9.66,27.92-16.35,44.08-19.03.04.1.08.2.12.3-.23.09-.46.17-.68.26-.27.1-.53.21-.77.41,1.78-.27,3.57-.53,5.35-.8,1.79-.28,3.57-.57,5.4-.65-2.49.53-5,1.02-7.48,1.62-1.8.44-3.56,1.04-5.33,1.59-.23.07-.42.29-.62.45.87-.16,1.77-.22,2.58-.52.86-.32,1.66-.37,2.65-.09-.25.26-.44.46-.79.84.99-.15,1.75-.26,2.51-.38.02.08.04.16.06.24-.84.27-1.68.53-2.52.79,0,.07,0,.13,0,.19.7-.05,1.41-.09,2.11-.17.71-.09,1.4-.23,2.27-.37-.48.47-.86.84-1.32,1.29-.96-.52-1.58.33-2.3.96,1.64-.31,3.28-.62,4.91-.94.02.1.05.21.07.31-1.21.32-2.42.63-3.62.98h0ZM226.68,208.29c.49-.13.99-.26,1.48-.39-.55-.12-1.08-.16-1.48.39ZM228.35,206.19c.02.06.04.12.05.18.42-.13.84-.26,1.25-.39-.01-.05-.03-.1-.05-.15-.42.12-.84.24-1.26.36ZM235.69,213.72c.22.05.43.09.64.13-.07-.43-.08-.42-.64-.13Z"/><path class="cls-3" d="M309.05,162.27c.18,1.84-.42,3.4-1.47,4.73-1.38,1.76-2.86,3.45-4.4,5.08-4.63,4.9-9.26,9.79-13.48,15.05-2.62,3.28-5.18,6.62-7.68,10-2.33,3.14-4.54,6.38-6.82,9.55-1.02,1.41-2.21,2.7-3.12,4.16-1.73,2.75-3.33,5.57-4.94,8.39-.24.42-.23.99-.3,1.5-.21,1.65-.33,3.31-.61,4.94-.11.62-.59,1.16-.92,1.77-.53-.08-.99-.15-1.64-.25-.11.14-.23.5-.45.57-1.9.59-2.84,2.03-3.63,3.73-.53,1.15-1.36,2.17-2.01,3.27-.39.65-.76,1.32-1.03,2.02-1.91,4.89-3.78,9.79-5.69,14.67-.25.65-.68,1.22-.99,1.85-.14.28-.22.6-.27.91-.16,1.04-.61,1.84-1.64,2.22.96-2.63,1.92-5.26,2.9-7.88.79-2.09,1.44-4.27,2.49-6.22.95-1.76,1.24-3.65,1.77-5.5,0,0,0,0,0,0,0,0,0,0,0-.01h0c.26-.28.64-.52.75-.85.62-1.99,1.82-3.68,2.7-5.53.12-.26.52-.69-.18-.78-.21.46-.42.92-.64,1.37-.24.48-.55.81-1.31.14-.08.87-.11,1.45-.21,2.02-.08.44-.24.87-.37,1.3,0,0,.02,0,.03,0-.04.09-.05.21-.12.26-1.71,1.31-2.15,3.39-3.14,5.14-.33.59-.55,1.27.04,1.93.12.13.02.52-.06.76-.56,1.61-1.13,3.22-1.73,4.81-.6,1.59-1.24,3.18-1.86,4.76-.09.22-.17.44-.25.67-1.04,3.08-2.43,6-4.01,8.84-.55.99-1.04,2.02-1.63,3.17-.2-.24-.32-.4-.54-.66-.22.61-.94,1-.4,1.76.02.03.02.1,0,.14-.59,1.21-1.02,2.54-2.48,3.18.5.8.09,1.28-.68,1.64-.59.27-.98.73-1.09,1.4-.28.2-.56.38-.83.59-.54.41-1.06.84-1.66,1.32-.38-1.91.68-3.1,1.49-4.39-.67-.23-.39-.74-.34-1.18-.83,1.13-1.65,2.25-2.58,3.51-.72.06-1.7.13-2.95.23.27-.55.44-.96.65-1.35,1.08-1.97,2.28-3.88,3.25-5.91,1.51-3.14,2.79-6.39,4.33-9.52,1.56-3.18,2.84-6.48,3.94-9.83,1.19-3.6,2.76-7.03,4.34-10.44,2.27-4.9,4.75-9.71,7.18-14.53.56-1.12.73-2.26.68-3.47-.15-3.58-.29-7.16-.43-10.75-.1-2.43-.22-4.87-.25-7.31-.07-5.55.33-11.09.88-16.61.37-3.71.71-7.42,1.11-11.13.21-1.95.52-3.89.8-5.83.12-.8.28-1.58,1-2.15.34-.27.48-.8.74-1.25.65-.14,1.25-.12,1.88.27.87.53,1.73,1.31,2.92.59.12-.07.99-.33,1.23.41.05.16.36.28.58.35,1.6.56,2.19,1.38,2.23,3.01.11,4.85-.58,9.64-1.21,14.43-.89,6.64-1.54,13.29-1.38,20.01.05,1.94.02,1.94.79,3,.75-.49,1.49-.98,2.24-1.48.2-.13.42-.26.55-.45,1.15-1.74,2.73-3.27,3.34-5.28.52-1.72,1.27-3.25,2.28-4.7.09-.13.11-.32.23-.74-1.18.68-1.67,1.66-2.43,2.64.06-.49.09-.78.12-1.07-.08-.04-.15-.09-.23-.13-.53.64-1.06,1.28-1.6,1.92-.04-.01-.08-.03-.12-.04.13-.26.23-.53.38-.77,2.95-4.59,6.4-8.81,9.79-13.08,1.96-2.47,3.85-5,5.86-7.43,3.38-4.09,7.08-7.9,10.91-11.58.96-.93,1.97-1.81,3.01-2.65l6.94.02-3.46.51c.82.96.86,1,1.96.33.43-.26.89-.5,1.51-.84.16,1.25.22,2.38,1.44,2.75h0ZM234.02,269.28c-.41.71-.75,1.29-1.08,1.87.97-.51,1.01-.58,1.08-1.87ZM235.23,267.78s-.1-.1-.16-.15c-.06.06-.15.12-.17.2-.02.06.03.15.06.27.1-.12.19-.21.27-.32ZM237.99,266.51c-.68.65-1.28,1.13-1.34,1.97.54-.5,1.5-.71,1.34-1.97ZM237.43,268.84c-.08-.02-.15-.04-.23-.07-.07.31-.14.61-.2.92.14-.29.29-.57.43-.85ZM237.14,273.91c.28-.55.57-1.1.85-1.65.47-.08.64.15.38.54-.3.44-.72.81-1.22,1.11ZM238,272.23s0,0,0,0c0,0,0,0,0,0,0,.01-.01.02-.02.04,0,0-.02,0-.03,0l.05-.04ZM242.38,258.45c-.56.86-1.02,1.57-1.48,2.28.09.06.18.12.27.18,1.07-.71,1.41-1.31,1.21-2.46ZM243.43,256.99c.13-.05.25-.12.35-.17-.14-.19-.19-.26-.23-.33-.08.1-.18.2-.23.32-.02.04.1.19.12.18h0ZM244.19,255.39l.58-1.09c-.07-.04-.15-.08-.22-.13-.21.36-.41.72-.61,1.07l.26.14h0ZM245.12,259.96c-.07-.05-.14-.11-.21-.16-.04.14-.09.29-.14.43.11-.09.23-.18.34-.26ZM245.55,252.05c-.06-.02-.13-.04-.19-.06-.15.35-.29.69-.44,1.04l.33.09.31-1.07ZM246.31,260.06c.26-.33.53-.67.79-1-.17.4-.34.79-.51,1.19l-.29-.18ZM247.57,254.47l-.35-.19c-.15.37-.29.74-.44,1.11.09.04.17.08.26.12.18-.35.35-.69.53-1.04ZM247.65,250.02c-.09-.06-.18-.13-.27-.19-.12.18-.24.37-.35.55.06.04.11.08.17.13.15-.16.3-.32.45-.49ZM247.11,259.06c.02-.06.05-.11.07-.17,0,0,.03.04.03.04-.04.04-.07.09-.11.13ZM247.18,258.89s.05-.06.07-.09c-.01.04-.03.09-.04.13l-.03-.04ZM247.19,239.81c.09.01.18.03.27.04.05-.29.1-.57.16-.86l-.22-.05-.2.86ZM247.25,258.79c.23-.76.46-1.52.69-2.28.24.9-.18,1.6-.69,2.28ZM247.94,256.48s-.01-.02-.02-.03c.01,0,.02,0,.03-.01,0,.01,0,.03-.01.04h0ZM247.95,256.49s0,.02,0,.02c0-.02,0-.04-.01-.06,0,0,.02.03.02.04ZM248.37,243.54l.42-.64c-.08-.06-.16-.12-.24-.19-.11.25-.22.5-.33.74.05.03.1.05.16.08ZM249.31,249.91c-.08-.02-.17-.03-.25-.05-.13.41-.27.82-.41,1.23.08.03.16.05.24.08l.41-1.25ZM249.36,241.51c.8-1.93,1.61-3.86,2.42-5.78-.1-.04-.2-.08-.3-.13-1.05,1.82-1.91,3.73-2.38,5.79.09.04.18.08.27.11ZM249.63,234.05c.02.09.17.15.27.22.07-.1.19-.21.18-.3,0-.09-.14-.18-.27-.31-.09.17-.2.29-.18.39ZM250.9,240.47c-.2.07-.34.1-.34.12,0,.13.04.27.07.4.08-.14.15-.29.28-.52ZM252.05,237c-.23.81-.92,1.49-.87,2.6.94-.82.89-1.72.87-2.6ZM252.58,235.76c-.16.36-.31.71-.47,1.07.59-.09.51-.59.47-1.07ZM253.45,232.13c-.08-.04-.15-.09-.23-.13-.13.24-.27.48-.4.71.07.04.14.08.22.12l.41-.7ZM255.11,236.84c-.32.5-.63.99-1.02,1.6-.06-1.07.06-1.24,1.02-1.6ZM255.35,231.56c.02-.4.04-.8.05-1.21-.13.39-.57.71-.05,1.21ZM255.83,234.5c-.09-.19-.18-.38-.34-.73-.18.63-.12.86.34.73ZM255.42,230.02h0s0,0,0,0h0ZM256.84,229.6c-1-.53-1-.53-1.42.41.41-.12.82-.24,1.42-.41ZM255.86,217.42s.08,0,.12.01v-1.22h-.12v1.2ZM258.34,229.57c-.07-.41-.11-.84-.96-.58.41.25.69.42.96.58ZM267.27,202.26c-.31.51-.46.77-.73,1.22-.27-.77.02-.95.73-1.22ZM269.1,208.42c-.05-.05-.11-.11-.16-.17-.05.06-.11.11-.16.17.05.05.1.11.15.16.06-.05.11-.11.17-.16ZM269.85,203.14c1.17-1.12,1.91-2.52,2.54-4-1.12,1.16-1.98,2.48-2.54,4ZM270.84,205.52c-.82.09-1.2.2-.84.97.26-.3.46-.52.84-.97ZM271.68,204.27c-.07-.04-.15-.12-.21-.11-.08.02-.13.11-.2.17.09.06.18.11.27.17.04-.08.09-.16.13-.24ZM272.74,201.32c-.75.2-1.16.67-1.23,1.39.47-.53.85-.96,1.23-1.39ZM274.51,200.04c-.42-.34-.67-.54-.97-.78-.21.24-.39.44-.69.78h1.67ZM276.79,189.44c-1.07-.09-1.61.31-2.12,1.19,1.21.34,1.51-.45,2.12-1.19Z"/><path class="cls-3" d="M400.45,153.57c-.37.32-.71.61-1.12.96.34.2.57.34.83.49-.1.11-.18.23-.28.31-.22.17-.65.44-.64.45.44.71-.32,1.09-.48,1.61-.19.58-.71,1.07-1.12,1.57-.59.72-1.23,1.4-1.81,2.14-.11.14,0,.45.02.74-2.15,1.11-4.5,1.47-6.88,1.73-6.32.68-12.66,1.08-18.94,2.14-4.38.74-8.79,1.33-13.16,2.12-5.22.95-10.41,2.07-15.62,3.06-.85.16-1.34.58-1.76,1.28-3.88,6.44-7.32,13.1-10.64,19.84-2.62,5.32-5.28,10.62-7.85,15.97-1.78,3.7-3.43,7.46-5.16,11.18-1.67,3.6-3.4,7.17-5.03,10.79s-3.25,7.25-4.75,10.92c-.96,2.34-1.7,4.77-2.52,7.17-.18.53-.25.99-.99,1.2-.55.15-.96.84-1.55,1.41-.13-.43-.25-.79-.36-1.15.33-.18.59-.33.92-.52-.52-.35-.96-.64-1.39-.92-.58.1-.37,1.14-1.29,1.01.13-.45.25-.84.36-1.22-.67-.48-1.29-.87-2.08-.29-.16.12-.48.12-.69.05-.87-.29-1.71-.78-2.68-.26-.09.05-.36-.24-.61-.42-.17.28-.32.54-.46.78-.21-.65-.46-1.25-.6-1.88-.08-.35-.1-.76.01-1.1.79-2.31,1.56-4.62,2.44-6.89.9-2.31,1.9-4.59,2.9-6.86.61-1.4,1.31-2.76,1.95-4.15.8-1.72,1.39-3.57,2.43-5.14.83-1.26,1.77-2.37,1.9-3.94,1.15-1.03,1.26-2.56,1.93-3.81.68-1.28,1.4-2.53,2.04-3.84,1.42-2.92,2.85-5.83,4.31-8.73,1.57-3.11,3.2-6.19,4.78-9.3,1.89-3.75,3.75-7.52,5.63-11.28.49-.98,1-1.96,1.55-2.91.6-1.01.72-2.12,1-3.44-.71.09-1.22.11-1.71.22-4.2.96-8.38,1.98-12.59,2.9-2.14.46-4.32.74-6.48,1.09-.12.02-.26-.07-.49-.13.18-.25.26-.37.34-.48-.03-.04-.05-.1-.08-.11-1.37-.29-2.74-.57-4.07-.84-.22-.4-.43-.77-.63-1.13.61.06,1.21-.25,1.6-1.08-.25-.36-.53-.77-.81-1.17.17-.09.4-.22.92-.51-.96-.36-1.68-.62-2.6-.97.61-.48,1.12-.88,1.72-1.35-.09-.08-.28-.24-.48-.41-.14-.41.83-.21.46-.84-.07-.11.4-.56.64-.82.25-.27.54-.5.89-.81-.32-.29-.58-.52-.88-.78.16-.14.24-.29.35-.31,3.96-.9,7.92-1.77,11.88-2.7,2.47-.57,4.9-1.31,7.38-1.81,1.99-.4,3.92-1.19,6.02-1.1.68.03,1.36-.42,2.06-.58.73-.16,1.49-.19,2.22-.35.78-.18,1.53-.51,2.31-.67,1.4-.27,2.81-.44,4.21-.69.79-.14,1.56-.4,2.34-.58,1.48-.33,2.96-.65,4.44-.95.38-.08.79-.42,1.19.06.09.11.49.11.64.01.57-.39,1.23-.35,1.83-.52,1.03-.28,1.96-.02,2.94,0,1.23.02,2.47-.17,3.7-.35,3.06-.45,6.12-.97,9.18-1.43,2.31-.35,4.63-.66,6.95-.98.28-.04.61-.12.83-.02.71.34,1.33.52,1.86-.28.08-.11.47-.18.52-.12.58.68,1.14.13,1.74.08.61-.05,1.22.11,1.74-.37.08-.07.28-.05.42-.02,2.6.45,5.09-.4,7.64-.57,2.51-.17,5.03-.14,7.55-.22,1.04-.03,2.07-.1,3.26-.17-1.86,1.19-3.91.31-5.71,1.03,1.6.12,3.17.34,4.74.33,1.12,0,2.25-.28,3.36-.5,1.08-.21,1.07-.25,2.14.14h0ZM301.91,247.88c.02-.1.04-.2.06-.3-.34-.07-.67-.14-1.01-.21l-.06.34c.34.06.68.12,1.02.17ZM378.43,154.92c.18-.07.35-.14.53-.22-.03-.08-.07-.22-.1-.22-.16.02-.32.06-.48.1.02.11.04.22.05.33ZM381.79,158.54c-.48-.06-.98-.6-1.7.11.74-.04,1.22-.08,1.7-.11ZM382.25,154.51c-.02-.13-.04-.25-.06-.38-.42-.04-.89-.26-1.38.5.63-.05,1.04-.09,1.44-.12ZM399.23,152.29c-.57.15-.85.25-1.14.3-.31.06-.63.07-.95.1.5-.66,1.1-.79,2.09-.4ZM397.73,160.05c.04.07.08.14.12.21-.07.04-.15.08-.22.13-.04-.07-.12-.16-.11-.21.02-.06.13-.09.21-.13Z"/><path class="cls-3" d="M363.24,191.08c.78.55,1.37,1.25,1.17,2.51-.38,2.38-1.47,4.36-2.68,6.37-1.3,2.16-2.42,4.45-3.43,6.77-2.04,4.68-3.93,9.43-5.95,14.13-.88,2.05-1.94,4.03-2.92,6.04-1.39,2.88-2.77,5.77-4.18,8.64-.28.57-.51,1.49-1.28,1.34-.9-.17-.41-1.11-.52-1.71,0-.04-.04-.08-.13-.22-.25.06-.54.12-.66.15-.13-.48-.22-.96-.38-1.42-.16-.44-.39-.85-.63-1.36-.58.24-1.06.64-1.79.17-.66-.42-1.9.16-2.44.85-.35.45-.71.89-1.15,1.44-.41-.7-.74-1.31-.27-2.02.17-.25.47-.6.69-.59,1.22.06,1.91-.9,3.06-1.35-1.14-.65-2-.07-3.16.19.63-1.42,1.18-2.66,1.72-3.9,2.63-6.04,5.27-12.08,7.88-18.14,2.21-5.14,4.39-10.3,7.41-15.04.89-1.4,1.99-2.69,3.16-3.87,1.08-1.1,2.46-1.36,3.96-.75.41.17.91.12,1.48.18.06.65.38,1.16,1.02,1.62h0ZM380.39,156.57c.86.08,1.4.94,1.21,1.8-.12.5-.17,1.02-.24,1.53-.02.14.02.3-.03.43-.6,1.37-1.05,2.85-1.86,4.08-2.65,4-5.01,8.13-6.55,12.7-.47,1.4-.85,2.83-1.39,4.2-.25.62-.8,1.12-1.25,1.72-.69-.36-1.3-.69-2-1.06.45-1.08-1-1.25-1.04-2.16-1.16-.41-1.61-1.63-2.58-2.24-.17-.11-.45-.03-.68-.04-.55-1.52-.23-3.03.24-4.47,1.93-5.97,4.78-11.45,8.85-16.25.61-.72,1.35-1.36,2.08-1.95.79-.64,1.81-.56,2.59-.17.67.33,1.63.75,1.3,1.88.51,0,.93-.03,1.35,0h0Z"/><path class="cls-3" d="M434.06,153.31c1.97.19,2.88,1.38,2.32,3.23-.39,1.29-.94,2.54-1.41,3.82-.59,1.6-1.25,3.17-1.75,4.8-1.2,3.95-3.2,7.5-5.28,11.02-3.61,6.11-7.27,12.2-10.93,18.28-.48.81-1.06,1.57-1.67,2.29-.66.78-1.25,1.51-2.55,1.58-1.06.05-2.08.93-3.23,1.49.17-.49.3-.86.46-1.29-1.06.38-2.02.73-3.07,1.1-.33-.82-.51-1.45-.83-2-.47-.8-.96-1.64-1.61-2.29-1.06-1.06-1.31-1.99-.51-3.24,2.38-3.74,4.73-7.5,7.2-11.18,3.07-4.57,6.06-9.21,9.44-13.56,2.3-2.97,4.28-6.08,6.02-9.37.15-.29.24-.62.51-1.32-.79.34-1.3.46-1.68.75-5.24,3.96-10.66,7.72-15.63,11.99-3.67,3.14-6.91,6.84-10.08,10.5-5.35,6.18-10.7,12.37-15.68,18.85-6.16,8.02-11.11,16.79-14.44,26.4-.86,2.49-2.37,9.47-2.51,11.97,1.23,0,2.23-.35,3.04-1.04,2.56-2.19,5.15-4.36,7.59-6.68,3.65-3.47,7.16-7.08,10.79-10.58,4.34-4.19,9.24-7.63,14.62-10.31,3.65-1.82,7.4-3.54,11.28-4.78,2.83-.91,5.71-1.97,8.77-2.04.52-.01,1.11.25,1.56.54.42.27.71.76,1.15,1.27-1.76,1.27-4.1,1.82-5.87,3.25.05.12.1.25.15.37.48-.11.97-.2,1.44-.34.57-.17,1.12-.39,1.68-.57,1.11-.34,1.99.11,2.64,1.34-1.27.76-2.55,1.52-3.83,2.28.03.1.07.21.1.32.8-.13,1.61-.25,2.41-.38.04.11.09.22.13.32-1.61.89-3.23,1.75-4.82,2.67-3.11,1.8-6.26,3.56-9.3,5.49-2.79,1.77-5.52,3.67-8.16,5.67-2.26,1.71-4.35,3.64-6.49,5.5-1.03.89-2,1.85-2.99,2.78-2.14,2.04-4.26,4.1-6.42,6.12-2.73,2.55-5.59,4.93-8.94,6.67-.29.15-.54.38-.71.82.37-.05.73-.11,1.1-.16-.04.11-.04.26-.1.29-1.17.57-2.33,1.19-3.54,1.66-1.31.51-2.64.89-4.13.62-.96-.17-2,.09-3,.21-1.74.2-3.17-.49-4.71-1.51.57-.14.98-.24,1.39-.35.04-.1.09-.2.13-.29-.16-.07-.31-.2-.47-.21-2.29-.17-3.67-1.98-5.5-3-1.85-1.03-2.28-2.76-2.81-4.63-.77-2.72-.26-5.29.47-7.83,3.4-11.89,8.83-22.83,15.83-33.01,4.24-6.17,9.1-11.82,14.21-17.27.85-.9,1.73-1.69,2.91-2.24,1.08-.5,1.93-1.52,3.13-2.52-.26.68-.42,1.11-.58,1.54.11.04.25.12.29.08,1.51-1.38,3.04-2.75,4.52-4.16.77-.73,1.49-1.52,2.2-2.31,1.98-2.19,3.95-4.39,5.9-6.6.31-.35.75-.74.79-1.15.14-1.28,1.14-1.84,1.92-2.58,1.63-1.56,3.49-2.82,5.43-3.95.4-.23.85-.4,1.3-.55.72-.24,1.48-.39,2.19-.68,1.7-.67,3.34-1.48,5.06-2.09,1.73-.6,3.5-1.07,5.28-1.5.82-.2,1.5-.43,2.13-1.09.95-.97,2.17-1.44,3.52-.61.19-.25.39-.5.61-.78.7.95-.54,2.69,1.44,2.88-.12.39-.22.7-.33,1.05.2.11.33.25.49.26h0ZM393.08,174.66c-.1-.1-.2-.19-.3-.29.21-.25.41-.51.62-.76.08.06.17.12.25.18l-.57.87ZM395.93,182.16c-.1-.1-.2-.21-.3-.31-.1.05-.27.07-.29.15-.05.15-.02.32-.03.48.2-.11.41-.21.61-.32ZM395.44,179.67c.05.07.11.2.14.2.1-.02.18-.1.27-.16-.04-.07-.09-.13-.14-.2-.09.05-.18.1-.27.16ZM397.97,179.35c-.06-.04-.12-.07-.18-.11l-.64.77c.05.06.11.11.16.17.13-.12.29-.23.4-.37.11-.13.18-.3.26-.46Z"/><path class="cls-3" d="M494,162.55c-.75,2.28-2.12,4.18-3.51,6.05-1.97,2.65-3.98,5.26-6.1,7.79-2.77,3.29-5.75,6.41-9.02,9.2-1.7,1.45-3.58,2.7-5.4,4.01-.37.27-.67.6-1.37.27-.49-.23-1.36.36-2.29.66.2-.38.34-.65.46-.89-.41-.58-.8-1.15-1.29-1.85-.46.3-.96.61-1.69,1.08.37-1.51,1.54-1.92,2.48-2.68-.16-.42-.34-.86-.52-1.34-.96.24-1.49,1.34-2.69,1.11-.2-.99-.48-1.99.61-2.75,1.4-2.86,4.15-4.44,6.27-6.62,1.57-1.61,3.13-3.22,4.68-4.86.24-.25.38-.6.73-1.18-.5.2-.73.24-.91.36-6.25,3.99-12.58,7.87-18.72,12.01-5,3.37-9.77,7.07-14.09,11.3-1.22,1.2-2.29,2.57-3.35,3.92-.42.54-.65,1.23-1.01,1.95,1.33.55,2.53.75,3.74.97.64.12,1.25.4,1.88.57.64.17,1.29.33,1.94.42.61.09,1.24.08,1.89.11-.48,1.5-1.86.28-2.73,1,1.67.22,3.21.52,4.76.61,3.05.17,6.12.09,9.16.36,2.51.23,5,.81,7.49,1.27.7.13,1.41.3,2.07.59.95.41,1.86.92,2.78,1.42.25.13.43.42.68.52,1.83.73,2.95,2.21,4.01,3.75.14.2.3.37.61.75-.06-.57-.1-.95-.14-1.33.08.01.2,0,.23.04,1,1.71,1.16,3.61,1.28,5.53,0,.14-.03.29-.09.42-1.09,2.15-1.78,4.5-3.49,6.34-2.81,3-5.64,5.98-9.13,8.24-2.94,1.9-6.03,3.51-9.23,4.91-5.96,2.59-12.1,4.46-18.6,5.05-2.95.27-5.83-.09-8.66-.86-.45-.12-.85-.43-1.29-.62-.44-.19-.85-.64-1.37-.01-.12.15-.85-.03-1.16-.26-2.09-1.55-4.5-2.83-5.34-5.58-.04-.13-.11-.27-.2-.38-1.84-2.34-1.51-4.95-.84-7.54.68-2.62,1.96-4.98,3.42-7.24,2.74-4.25,6.15-7.93,9.97-11.23.25-.22.51-.44.74-.68.09-.09.13-.24.18-.33-.42-.61-.77-1.25-1.24-1.77-.85-.95-.78-2.04-.47-3.1.52-1.73,1.09-3.46,1.81-5.11.39-.9,1.14-1.64,1.74-2.44,1.75-2.34,3.88-4.33,5.93-6.4,1.04-1.05,2.08-2.1,3.17-3.11.94-.88,1.94-1.69,2.93-2.52.18-.15.41-.34.62-.33.96.03,1.57-.63,2.27-1.1,4.25-2.85,8.46-5.75,12.74-8.55,2.52-1.65,5.17-3.1,7.7-4.73,2.85-1.84,5.69-3.71,8.43-5.72.88-.64,1.8-1.19,2.68-1.82,1.11-.79,2.15-1.67,3.22-2.52,1.26-1.01,2.51-2.03,3.85-3.11.55.67,1.24.53,1.96.44.69-.08,1.46-.12,2.1.1.57.19,1.26-.5,1.68.25.27.5.39,1.09.7,1.55,1.25,1.83,1.03,3.68.37,5.66ZM434.72,216.79c-2.05,2.34-3.9,4.84-5.22,7.68-.68,1.47-1.3,2.98-1.83,4.51-.43,1.26-.11,1.77,1.21,2.04,1.16.24,2.36.34,3.21.46,5.09-.36,9.71-1.35,14.2-2.88,4.21-1.43,8.32-3.11,12.18-5.37,2.86-1.68,5.54-3.58,7.81-6.01.65-.69,1.18-1.5,1.77-2.25.32-.41.41-.83.13-1.32-.93-1.64-1.98-3.15-3.73-4.04-1.64-.84-3.34-1.46-5.2-1.45-5.06.04-10.13.13-15.19.18-1.08,0-1.95.39-2.67,1.17-2.23,2.42-4.52,4.8-6.69,7.28ZM471.08,167.67c-1.76.88-2.04,1.09-2.58,1.95.99-.6,1.99-1.01,2.58-1.95ZM472.22,167.29c-.57-.39-.71.07-.98.28.33-.09.65-.19.98-.28Z"/></svg>