<?xml version="1.0" encoding="UTF-8"?><svg id="Layer_1" xmlns="http://www.w3.org/2000/svg" xmlns:xlink="http://www.w3.org/1999/xlink" viewBox="0 0 719.65 87.01"><defs><style>.cls-1{clip-path:url(#clippath);}.cls-2{fill:none;}.cls-2,.cls-3{stroke-width:0px;}.cls-4{opacity:.2;}.cls-3{fill:#fff;}</style><clipPath id="clippath"><rect class="cls-2" x="-2704.19" y="-41.7" width="2001.75" height="827.64"/></clipPath></defs><g class="cls-1"><image class="cls-4" width="15215" height="8421" transform="translate(-2809.73 -647.14) scale(.25)" xlink:href="../../../Tri State Generation and Transmission Association Dropbox/Communications/PROJECTS/Events/_Annual Meeting/2024/Assets/White BG Chart_XL.png"/></g><path class="cls-3" d="M60.87,43.57c.06,1.91-.63,3.57-1.83,5.04-.47.57-.85,1.2-1.29,1.79-.73.99-1.76,1.62-2.83,2.17,0-.02.02-.04.03-.05-.46.29-.92.59-1.41.91-.09-.21-.18-.42-.31-.7-.24.18-.48.31-.65.5-1.83,2.08-3.99,3.77-6.24,5.35-3.12,2.19-6.16,4.48-9.37,6.53-2.31,1.48-4.51,3.14-7.01,4.32-.07.03-.15.07-.19.13-1.18,1.74-3.42,1.63-4.93,2.79-.48.37-1.05.63-1.55,1.1h.99c-.09.11-.13.22-.21.26-.67.37-1.34.73-2.04,1.1-.17-.11-.4-.37-.64-.39-.36-.02-.33.3-.32.6,0,.14-.17.33-.31.42-.23.15-.48.28-.74.34-2.04.46-4.01,1.23-6.15,1.18-.41,0-.84.11-1.25.23-2.41.7-4.8.56-7.19.06,0-.08,0-.16,0-.24h2.87s0-.07,0-.1c-.99-.13-1.98-.32-2.98-.37-1.49-.08-2.56-.83-3.67-1.75-1.34-1.11-1.15-2.57-1.39-3.96-.08,0-.16,0-.24,0,.14-.66.27-1.33.43-1.98.05-.16.1-.32.16-.48.09.03.17.05.26.08,1.13-3.67,2.85-7.1,4.75-10.45,1.91-3.36,4.08-6.54,6.86-9.39-.3-.19-.52-.33-.73-.47-.13-.08-.26-.17-.39-.26-.74-.53-.32-1.68-1.32-2.2-.81-.43-.89-1.62-.84-2.42.09-1.42.04-2.83.13-4.25.15-2.45,1.57-4.24,2.83-6.15,2.44-3.69,6.04-6.14,9.41-8.83,2.94-2.33,6.21-4.14,9.44-6.02,4.52-2.63,9.29-4.76,14.01-6.99.81-.38,1.67-.65,2.48-1.03.52-.24.98-.6,1.48-.88.27-.15.55-.3.85-.38,1.65-.44,3.31-.86,4.97-1.26.6-.14,1.26-.14,1.33-1.06,1.67.57,3.32.91,4.01,2.74.09.25.41.42.63.63.01.03.02.05.03.08.22,1.66.58,3.29.86,4.94-.41.97-.8,1.92-1.33,2.78-.75,1.2-1.41,2.48-2.46,3.48-.69.66-1.16,1.56-1.86,2.21-1.28,1.18-2.2,2.71-3.66,3.72-.26.18-.4.53-.71.96-.02-.35-.04-.51-.05-.73-.84.83-1.7,1.6-2.46,2.45-.75.83-1.34,1.83-2.15,2.6-.84.81-1.71,1.55-2.24,2.72.24.07.41.14.58.15,1.44.08,2.9.02,4.3.27,1.52.27,2.99.83,4.48,1.26,2.07.6,3.57,2,4.96,3.55.23.26.4.57.58.86.1.16.16.44.29.48,1.1.3.94,1.23.96,2ZM51.41,46.32c-.04-.11-.08-.22-.11-.34-.59-.15-1.17-.38-1.77-.45-1.58-.19-3.17-.41-4.75-.45-1.86-.05-3.74-.04-5.59.14-2.71.27-5.4.72-8.1,1.11-1.02.15-2.03.33-3.09.51-.04-.53-.07-.95-.09-1.36-1.21-.31-1.37-.27-1.74.55.54-.13.99-.24,1.44-.35.13.44.06.64-.35.77-.2.06-.32.4-.72.96-.15-.35-.27-.63-.39-.9-.49.08-.95.16-1.22.21-.37.36-.58.7-.88.84-.93.42-1.77.91-2.25,1.88-.15.3-.41.57-.66.81-.76.73-1.55,1.41-2.3,2.15-1.03,1.01-2.13,1.96-3.01,3.09-2.4,3.07-4.17,6.38-5.84,10.14-.53,1.2-.64,2.47-.95,3.7-.09.36-.01.76-.01,1.16,1.05.41,2.06.29,3.05.14,3.99-.59,7.65-2.15,11.18-3.98,6.65-3.45,12.93-7.51,18.94-11.98,2.85-2.12,5.57-4.39,8.03-6.95.42-.44.78-.92,1.18-1.39ZM13.14,77.35c.35.06.71.12,1.06.18-.01.09-.03.18-.04.27-.36-.05-.73-.09-1.09-.14.02-.11.05-.21.07-.32ZM19.9,75.11c-.03-.1-.07-.19-.1-.29-.59.24-1.29.2-1.71.89.6-.2,1.2-.4,1.8-.6ZM23.71,33.49c-.78.75-1.56,1.49-2.32,2.25-.5.51-.96,1.07-1.44,1.6.05.08.1.17.15.25,3.55-.3,7.05-.96,10.59-1.4,3.54-.44,7.1-.71,10.62-1.06.31-.82.77-1.23,1.38-1.22v1.12c.86.05.86.05,1.16-.3.25-.3.52-.58.74-.9.42-.59.81-1.19,1.21-1.79-.41.12-.68.45-.96.46-.31.01-.64-.27-.93-.41-.18.16-.36.33-.53.48-.48-.32-.45-1.03-1.16-1.04-.06.13-.12.26-.19.38-.14.24-.23.6-.44.7-.37.19-.81.25-1.22.29-.09,0-.18-.4-.33-.47-.14-.06-.37.09-.61.17-.05-.85.41-1.65-.25-2.32-.08-.08.02-.37.09-.55.72-1.75,1.42-3.51,2.73-4.94.87-.94,1.69-1.93,2.54-2.89.33-.38.71-.72.65-1.41-.26.12-.62.23-.61.28.1.66-.41.74-.82.93-.5.22-1,.43-1.49.67-.62.31-1.22.38-1.8-.05.07-.49.5-.62.86-.79,1.9-.89,3.8-1.78,5.7-2.68.27-.13.72-.1.61-.7-1.4.5-2.79.98-4.15,1.5-1.48.56-2.73,1.56-4.28,2.06-1.23.39-2.3,1.25-3.47,1.85-.79.41-1.53.86-2.26,1.37-1.36.95-2.89,1.67-4.32,2.52-.87.51-1.71,1.06-2.54,1.64-.8.57-1.87.73-2.42,1.72-.22.39-.83.55-1.22.87-.48.39-1.05.7-1.27,1.34.21-.04.37-.13.51-.24,3.05-2.25,6.18-4.38,9.58-6.09-.15,1.14-.16,1.14-1.27,1.21-.41.36-.69.66-1.02.88-1.07.7-2.17,1.36-3.23,2.07-1.44.98-2.87,1.98-4.28,3-.57.41-1,.96-1.36,1.73,1.1-.76,2.08-1.43,3.06-2.1ZM23.89,33.32s.08-.04.11-.06c-.03.03-.06.06-.09.09,0,0-.03-.03-.03-.03ZM24.63,32.94c-.21.1-.41.21-.62.32l.49-.5c.04.06.08.12.13.18ZM27.17,71.9c-.59.78-1.19.94-1.91.82.54-.33.93-.99,1.91-.82ZM28.09,71.69s.06.1.08.16c-.15.07-.3.14-.45.21-.03-.08-.06-.17-.09-.25.15-.04.31-.09.46-.11ZM30,44.84c.6.57.61.58,1.18,0h-1.18ZM31.26,44.84c1.09.77,2.1,0,3.13-.35-1.04.12-2.09.24-3.13.35ZM31.82,26.67s.02.01.03.02c0,0,0,0-.01,0,0,0-.02-.03-.01-.02ZM31.84,26.69c.76-.47,1.53-.93,2.3-1.39.04.25.08.5.14.84-.84.12-1.41,1.22-2.43.56ZM33.8,68.25c.06.08.15.15.14.17-.03.06-.1.12-.16.14-.06.01-.12-.05-.19-.07.07-.08.13-.15.21-.24ZM34.15,25.29s0,0-.01,0c0,0,0-.02,0-.03,0,0,.02.03.02.02ZM34.16,25.28s0,0,0,0c0,0-.02-.02-.01-.02,0,0,.01.01.02.01ZM34.97,25.82c-.27-.18-.54-.35-.81-.53.35-.08.7-.16,1.05-.24-.08.26-.16.52-.24.78ZM35.64,25.81c-.22.14-.44.28-.78.5.06-.25.09-.36.11-.46.2-.06.39-.12.59-.19.02.05.05.1.07.15ZM34.97,25.82s.01,0,.02.01h0s0,.02,0,.02c0,0-.02,0-.03,0,0-.01,0-.03.01-.05ZM35.05,44.32c.59.58,1.03.33,1.5.16.54-.2,1.13-.54,1.6.2.18-.4.32-.74.57-1.3-1.31.33-2.43.62-3.68.94ZM35.23,25.03s-.01,0-.02,0c0-.02,0-.03.01-.05.01,0,.02,0,.03,0,0,.01-.02.02-.02.03ZM35.26,25c.11-.15.22-.3.39-.53.02.64.02.65-.39.53ZM37.52,24.47c-.23-.29-.36-.46-.54-.69.74-.42,1.34-.96,2.2-.84-.54.49-1.07.98-1.66,1.53ZM38.07,65.5c.07.08.14.16.21.25-.28.19-.55.38-.83.57-.05-.07-.11-.14-.16-.21.26-.2.52-.41.78-.61ZM39.22,22.94s-.03,0-.04,0c.01-.01.02-.02.04-.03,0,0,0,0,.01,0,0,0,0,.02-.01.03ZM39.24,22.92c.23-.53.62-.71,1.16-.56-.23.91-.46,1.02-1.16.56ZM40.47,22.38s-.04-.01-.06-.02c0-.02.01-.05.02-.07l.05.09ZM44.32,60.72c.72-.51,1.48-.98,2.22-1.46.04.05.09.09.13.14-.32.26-.65.52-.97.79-.63.55-1.27,1.1-1.88,1.68-.44.42-.91.7-1.74.56.81-.62,1.51-1.18,2.24-1.7h0ZM47.58,56.93s-.08-.07-.12-.1c-.1.12-.21.25-.31.37.04.03.08.06.11.09.11-.12.21-.24.32-.36ZM47.77,58.38c.24-.22.47-.44.71-.66.05.06.11.12.17.17-.23.23-.46.46-.69.68-.06-.07-.13-.13-.19-.2ZM55.17,51.39c-.23.27-.38.56-.49.87-.01.04.17.15.27.23.19-.34.41-.67.21-1.1ZM56.91,49.84c-.07-.04-.14-.07-.21-.11-.21.42-.43.83-.64,1.25.92-.05.65-.71.85-1.14ZM59.56,46.18c-.06-.03-.11-.05-.16-.08-.09.15-.18.29-.27.44.06.05.13.1.19.15.08-.17.16-.34.24-.51ZM60.75,9.76c-.07-.3-.14-.61-.21-.91.05.02.09.05.12.07.03.28.06.55.09.83,0,0,0,0,0,.01Z"/><path class="cls-3" d="M112.96,13.17c.04.07.08.15.12.22-.52.41-1.03.83-1.64,1.32.4.08.82.17,1.23.25-.45.47-1.66.94-3.63,1.39-.02.28.08.55-.4.65-1.9.42-3.79.89-5.67,1.37-4.35,1.09-8.7,2.2-13.04,3.3-.85.22-1.7.43-2.53.7-.82.26-1.61.6-2.45.92.19.16.45.28.44.38-.07.82-.22,1.62-.92,2.38-.04-.36-.07-.58-.1-.81-.21-.02-.43-.04-.78-.07.22-.54.4-.99.6-1.48-.95.28-1.64,1.36-1.49,2.31,0,0-.02,0-.02,0-.46,1.89-1.26,3.63-2.31,5.34.33,1.16-.38,2.5-1.84,3.25-.14-.16-.29-.32-.4-.44-.52.84-1.02,1.64-1.52,2.44-.21-.24-.41-.47-.62-.71-.23.54-.47,1.09-.78,1.81.87-.22,1.61-.4,2.34-.59-.12.66-.24,1.33-.37,2.01.06,0,.21-.01.4-.03.07,1-1.07.89-1.39,1.51,0,0,.02-.02.03-.02-.12.37-.23.74-.38,1.22.34-.08.64-.12.92-.21,1.03-.31,2.08-.5,3.12-.72,2.51-.53,4.97-1.28,7.47-1.9.33-.08.73.08,1.2.14.3-.43.8-.48,1.46-.48,1.14,0,2.29-.2,3.4-.48.66-.17,1.22-.69,1.85-.99.36-.17.78-.2,1.21-.2-.71.31-1.48.49-1.72,1.47.51-.06.92-.11,1.64-.19-.59.56-.96.92-1.3,1.25,1.11.23,1.38.13,2.09-.87.54.48,1.37-.53,1.92.49-.51.45-1.04.92-1.78,1.58.06-.49.08-.68.12-1-.45.23-.82.42-1.24.63.4.25.73.46,1.21.75-.45.19-.79.33-1.12.49-.23.11-.43.24-.19.52-1.08-.25-1.28-.19-2.2.65.53-.05,1.08-.08,1.62-.15.32-.04.73.03.75-.49.27-.02.66.07.79-.07.56-.62,1.44-.31,2.03-.78.03-.02.17.11.36.24-2.03,1.45-4.5,1.65-6.54,2.92.53-.15,1.07-.29,1.6-.44.64-.18,1.28-.41,1.93-.53.26-.05.56.13.83.39-.26.05-.52.09-.77.16-.33.1-.8.08-.69.66.01.06-.13.19-.23.22-1.02.31-2.03.61-3.06.9-1.33.38-2.66.75-4,1.11-.42.12-.84.23-1.27.31-.36.07-.85-.06-.75.6,0,.05-.2.2-.27.18-.73-.23-.69.43-.85.76-.9.23-1.73.45-2.71.7.13-.41.21-.65.31-.94-.5.1-.96.19-1.51.29.16.6.07,1.09-.68,1.11-.62.9-1.64,1.09-2.57,1.36-.93.28-1.9.39-2.87.57.08-.14.15-.27.22-.39-1.19-.06-1.82.84-2.57,1.53-.11.1-.2.22-.41.45-.05-.93.24-1.47,1.26-1.71-1.87-.15-1.94,1.4-2.73,2.36-.1-.32-.16-.5-.27-.84-.16.31-.29.56-.51.97-.18-.46-.24-.62-.31-.81-.19.13-.38.25-.66.44v-.74c-.31.2-.61.28-.71.47-.78,1.44-1.52,2.91-1.66,4.59-.02.22-.05.55-.19.63-.84.47-.54,1.18-.46,1.85-.28.12-.55.24-.91.4.16.12.24.24.32.24.37-.03.74-.1,1.16-.07-.68.49-1.34.97-1.33,1.88,0,.17.23.33.36.5-.33.37-1.27.55-.46,1.35.04.04-.57.44,0,.79-.27.16-.5.31-.76.46v1.42c.93-.22,1.83-.32,2.64-.64,2.37-.91,4.69-1.95,7.06-2.87,2.47-.96,4.98-1.83,7.47-2.74.07-.03.15-.05.23-.05,1.63,0,3.03-.8,4.53-1.24,1.14-.33,2.29-.62,3.44-.88.38-.08.8-.05,1.18.01.81.13,1.61.31,2.57.5-.44.14-.76.24-1.07.34,0,.06,0,.12,0,.18.18.03.37.1.54.07.98-.16,1.07-.06,1.14,1.01.02.29.31.57.47.84.33-.07.61-.12.89-.18.02.07.03.14.05.21-1.05.25-2.1.49-3.21.75-.04.25-.09.51-.14.81.28.07.53.13.83.2-.44.65-1.76.25-1.67,1.56.29-.13.51-.24.76-.36-.06.53-.47.87-1.23,1.02-.25.77-.84,1.24-1.66,1.21-.56-.02-.56.85-1.17.59-.59-.25-.97.39-1.41.38-1-.01-1.93.08-2.72.75-1.2-.17-2.15.61-3.23.91-.96.27-1.83.82-2.75,1.25-1.21,0-2.14.84-3.26,1.14-.15.04-.24.29-.36.44-.43.19-.85.38-1.28.57-.72.12-1.49.08-2.22.8.66-.08,1.19-.46,1.61.07h-.03c.11.5-.29.59-.61.72-1.07.44-2.15.83-3.21,1.29-1.02.44-1.77-.33-2.82-.37-.44.65-1.31.81-2.23.86-.51.03-1.02.11-1.53.15-.23.02-.48.04-.71,0-1.22-.27-2.44-.56-3.6-.83-.38-.92-.76-1.84-1.14-2.77-.19-.29.69-.26.2-.78-.1-.11.09-.5.17-.87-.08-.11-.25-.35-.29-.41.28-.59.53-.99.67-1.43.94-2.91,1.78-5.85,2.8-8.73,1.21-3.44,2.51-6.85,3.89-10.23,1.23-3.01,2.65-5.95,3.95-8.94,1.14-2.62,2.23-5.27,3.32-7.91,1.72-4.19,3.44-8.37,5.11-12.58.41-1.04.64-2.15.91-3.24.04-.16-.16-.38-.25-.59.49-.74.93-1.55,1.39-2.34.46-.81.95-1.57,1.24-2.54.93-.34,1.87-.78,2.35-1.8.06-.14.37-.31.46-.26.5.24.58-.23.85-.46.07.22.13.42.22.72.31-.21.59-.4.99-.67.19.25.39.52.58.76,2.91-.73,5.78-1.45,8.64-2.17-.26.19-.5.46-.79.54-1.72.45-3.46.85-5.19,1.28-.32.08-.63.25-.94.38.03.08.05.17.08.25.83-.21,1.65-.43,2.48-.62,3.13-.72,6.23-1.6,9.39-2.1,1.82-.29,3.62-1,5.53-.67-.16.28-.71.5-.12.92.12.08.05.44.07.78,1.36-.08,2.6-.76,4.1-.54-.22.23-.34.36-.55.58.4.08.74.15,1.27.26-1.3.47-2.43.87-3.62,1.3.51.19,2.51.02,3.74-.22,1.26-.25,2.53-.44,3.84-.45-.49.13-.98.26-1.24.33-.52.53-.89.9-1.26,1.27.62-.1.43.75,1.07.76-.65.31-1.14.55-1.64.79.99.57,1.77-.09,2.6-.48h0ZM65.21,77.05c-1.01.71-2.08.92-3.3.5,1.02-.91,2.25-.12,3.3-.5ZM63.84,75.73c.6.07,1.14-.1,1.61-.51-.71.22-1.16.36-1.61.51ZM64.64,63.61c.12-.15.25-.31.37-.46-.08-.06-.15-.12-.23-.17-.1.17-.21.33-.3.5,0,.01.1.09.15.14h0ZM67.03,65.92c-.19.29-.33.5-.51.78,0-.39.17-.65.51-.78ZM67.4,62.54c.03.33.04.33.47.45-.09.21-.17.41-.27.64-.63-.65-.63-.65-.2-1.09ZM67.32,59.14c.05-.09.1-.19.15-.28.09.03.15.05.21.07-.06.09-.1.19-.18.26-.03.02-.12-.03-.19-.05ZM67.4,62.53s0,0,0,.01c0-.01,0-.02,0-.03,0,0,0,0,0,0,0-.02.01-.03.02-.05v.08h0ZM67.64,61.76c-.08.23-.16.46-.23.7v-.74c.08.01.16.03.23.04ZM68.02,58.07c.29.03.58.05.88.08l-.03.3c-.29-.04-.58-.07-.87-.11,0-.09.02-.18.03-.27ZM68.66,75.18s.06.1.09.15c.14-.09.28-.17.42-.26-.03-.05-.06-.09-.09-.14-.14.08-.28.16-.42.25ZM68.78,55.92c.3-.33.45-.47.57-.63.14-.18.26-.37.51-.74.06.87-.17,1.26-1.08,1.37ZM69.09,59.32c-.04-.09-.12-.21-.09-.27.04-.08.18-.11.27-.16.02.07.05.13.08.23-.08.06-.17.13-.25.2ZM70.64,55.88c-.17.42-.28.66-.37.89-.42-.15-.75-.27-1.09-.4.02-.03.04-.07.04-.08.41-.12.8-.23,1.41-.41h0ZM70.18,51.71c-.15,0-.3-.02-.59-.04.2.14.27.23.31.22.1-.04.18-.12.27-.18ZM70.85,54.83c-.09.16-.17.33-.26.49-.06-.03-.11-.06-.17-.09.09-.16.17-.33.26-.49.05.03.11.06.16.09ZM77.46,71.79c.3-.12.56-.36.84-.56.11.34.26.65.68.55-.2.2-.39.45-.63.55-.93.39-1.88.75-2.83,1.07-.31.1-.67.05-1.13.08-.27.61-.77,1.02-1.6.75,0,0,.02,0,.02,0,.2-.29.41-.58.61-.86.43-.19.85-.38,1.28-.57.92-.33,1.85-.65,2.76-1.01ZM74.04,42.31c.19-.23.34-.42.5-.62-.36-.03-.73-.09-1.03.33.22.12.38.2.53.28ZM74.49,39.95c.71-.58,1.41-1.16,2.29-1.88-1.42.05-2.09.69-2.29,1.88ZM76.2,40.6c-.18-.16-.36-.32-.51-.46-.39.55-.74,1.03-1.08,1.52.31-.16.63-.3.92-.49.24-.16.45-.37.67-.56ZM76.75,34.93c-.4.2-.76.38-1.21.61.19.12.33.21.48.31.64,0,.61-.51.74-.92ZM75.7,51.36c.23-.04.46-.08.69-.13-.04-.1-.09-.2-.13-.3-.19.14-.38.28-.56.43ZM76.6,36.62s0,0,0,0c0-.01.02-.03.02-.04,0,0,0,0,0,0,0,0-.01.01-.02.02h0ZM76.63,36.59s.03.02.05.02c-.03,0-.05,0-.08,0,0,0,0,0,0,0,0,0,.02-.02.02-.02ZM77.21,33.8c-.05-.08-.1-.16-.15-.23-.14.12-.27.24-.41.36.03.04.06.08.1.12.15-.08.3-.17.46-.25ZM77.56,37.07c-.3-.15-.6-.3-.89-.45.29-.02.57-.05.88-.08.47-.7.74-1.6,1.71-1.82-.15,1.1-.71,1.87-1.69,2.33l.03.03s-.03,0-.04,0c0,0,0-.02,0-.03ZM77.78,31.42c-.21.52-.41,1.01-.61,1.5.62-.4.83-.9.61-1.5ZM77.93,50.67c.03.09.05.19.08.28.45-.18.9-.36,1.35-.54-.03-.07-.05-.13-.08-.2-.45.15-.9.31-1.35.46ZM78.29,71.23s.01,0,.01,0c0,0,0,0,0,0,0,0,0,0,0,0,0,0,0,0,0,0,0,0-.01.01-.02.02,0,0,0,0,0,0ZM78.79,32.93c-.08-.04-.15-.08-.23-.13-.08.21-.15.43-.23.64.06.03.13.05.19.08.09-.2.18-.4.27-.59ZM79.61,30.55c-.35.43-.81.8-.68,1.5.08-.58.88-.76.68-1.5ZM79.05,71.77s-.05.01-.07.02c.02-.02.03-.03.05-.05l.03.03ZM79.04,71.73s0,.03,0,.04c0,0-.03-.03-.03-.03,0,0,.01,0,.02-.01ZM82.25,70.21c-1.07.51-2.14,1.01-3.21,1.52-.05-.45.2-.74.6-.87.86-.27,1.73-.5,2.61-.65ZM80.95,35.22c.07-.19.14-.37.21-.56.06.03.12.05.17.07-.08.18-.17.35-.25.53-.05-.02-.09-.03-.14-.05ZM83.96,26.42s-.01,0-.02,0c.15.03.3.05.48.09-.03.6-.2,1.13-.84,1.38-.4.15-.53.43-.41.85.33,1.18-.2,2.09-.91,2.95-.12-.36-.28-.09-.33.05-.26.6-.48,1.22-.81,1.79.27-1.23.35-2.53,1.21-3.55h0c-.31-.92.54-1.55.61-2.38.03-.32.19-.66.38-.92.12-.16.42-.17.65-.26ZM81.56,25.41c-.06-.02-.12-.04-.19-.06-.09.22-.17.43-.26.65.1.03.2.07.29.1l.16-.7ZM81.88,33.08c-.05.3-.1.6-.15.9-.08-.02-.16-.04-.24-.06.07-.3.04-.64.39-.84ZM81.94,23.59c-.06-.02-.12-.03-.18-.05l-.23.91c.05.01.1.03.15.04l.26-.9ZM81.88,33.08s0-.03,0-.04l.03.02s-.02.01-.03.02h0ZM81.89,33.04s.03-.02.04-.03c0,.02-.01.04-.01.05,0,0-.03-.02-.03-.02ZM81.93,33c.11-.41.22-.82.33-1.24.07.46.1.91-.33,1.24ZM82.25,31.7s0,0,0,0c0,.01,0,.02.01.04,0,0,0,0,0,0,0,.01,0,.03-.01.04,0-.02,0-.05-.01-.07ZM82.89,29.68c-.28.14-.42.21-.54.28.03.23.07.47.12.9.17-.48.27-.75.42-1.17ZM82.71,26c.26-.05.52-.1.78-.14.49-.09.47.23.44.55-.41-.14-.82-.27-1.23-.41,0,0,.02,0,.01,0ZM83.93,26.41s0,0,.01,0c0,0,0,0,0,0,0,0,0,0,0,0ZM83.94,26.41s.02,0,.02,0h-.02s0,0,0,0ZM89.59,68.95c-1.07.07-2.15.14-3.28.21,2.22-.99,2.33-1,3.28-.21ZM89.8,66.62c.12.06.26.2.36.17.11-.02.19-.2.36-.4-.24-.06-.39-.15-.48-.11-.11.05-.16.22-.24.34ZM90.57,45.51s.03.09.04.13c.19-.04.38-.08.57-.11-.02-.08-.05-.17-.07-.25-.18.08-.36.15-.53.23ZM91.33,68.07c.07,0,.16.1.29.19-.14.09-.23.19-.31.18-.09-.01-.16-.12-.25-.19.09-.07.17-.17.27-.18ZM91.95,46.8c-.02-.07-.04-.15-.07-.22.23-.11.47-.21.7-.32.04.05.07.09.11.14-.11.1-.2.23-.33.29-.12.07-.28.08-.42.11h0ZM93.35,46.28c.25-.12.5-.23.75-.35.04.07.08.14.12.2-.27.1-.54.2-.8.3-.02-.05-.05-.1-.07-.16ZM93.64,40.06c.16.02.32.05.48.07,0-.05.02-.09.03-.14-.16-.03-.31-.07-.47-.1-.01.06-.02.12-.03.18ZM94.18,8.8s-.04,0-.05.01c.01,0,.02-.02.03-.03,0,0,0,0,0,0h0s.02,0,.02,0ZM94.18,8.8s0,0-.01,0c0,0,.01,0,.02,0h0ZM94.19,8.8c.62-.17,1.24-.35,1.86-.52-.5.72-1.15.73-1.86.52ZM104.48,11.29c-.01-.06-.03-.11-.04-.17-.18.04-.36.07-.54.11.01.06.03.13.04.19.18-.05.36-.09.53-.14ZM104.72,7.87s-.02,0-.03,0c0,0,0,0,0-.01h0s.02.01.02.01ZM104.72,7.88h-.02s.04-.01.06-.01c-.01,0-.02,0-.03.01ZM105.66,7.86c-.3,0-.6,0-.9,0,.28-.11.55-.21.83-.32.02.11.05.22.07.32ZM108.85,12.34c-.15,0-.29-.02-.44-.03,0,.03-.01.06-.02.09.07.03.15.08.21.07.09-.02.16-.08.25-.13ZM109.93,12.36c.32-.09.63-.17.95-.26-.35-.1-.7-.16-.95.26ZM110.52,8.88c-.03-.08-.06-.15-.1-.23.49-.09.99-.19,1.48-.28.01.06.03.12.04.18-.48.11-.95.22-1.43.33ZM113.62,11.25h-.45v-.12c.15-.01.3-.02.44-.04,0,.05,0,.1,0,.15Z"/><path class="cls-3" d="M164.14,23.36c-.02.19-.07.4-.17.56-.51.81-.92,1.75-1.61,2.36-.58.51-1.54.6-1.58,1.64-.9.5-1.14,1.53-1.85,2.2-.42.4-.76.89-1.2,1.26-4.22,3.54-8.87,6.47-13.64,9.21-2.6,1.49-5.3,2.8-7.96,4.19-1,.52-2.01,1.03-2.99,1.59-.3.18-.52.5-.77.77,3.18-1.54,6.35-3.08,9.53-4.62-2.24,1.65-4.79,2.75-7.21,4.07-2.46,1.34-4.94,2.62-7.46,3.95.48.93,1.03,1.65,1.73,2.28,1.03.94,1.98,1.97,3.01,2.91,2.95,2.71,6.36,4.75,9.85,6.68,1.33.74,2.63,1.51,3.95,2.26.41.23.81.47,1.24.65,1.18.47,1.19.46.89,1.61.56.51,1.15.96,1.74,1.32-.08.28-.16.57-.23.86-.26.82-.49,1.64-.67,2.48-.04-.02-.08-.03-.12-.05-.36-.18-.89,0-1.35,0-.29,0-.58.06-.86,0-.79-.14-.89-.05-.72.92-.35-.05-.68-.1-1-.15.01.17.03.36.05.67-1.69-.45-2.97-1.54-4.53-1.98-.42.5.22.64.35,1.14-.8-.4-1.5-.7-2.16-1.08-2.15-1.25-4.3-2.5-6.43-3.79-1.09-.67-2.11-1.46-3.2-2.13-1.24-.75-2.28-1.78-3.52-2.53-.17-.18-.34-.36-.51-.54.17.18.34.36.51.54-.55.02-.75-.19-.76-.81-1.63-1.48-3.26-2.95-5.05-4.57-.59,1.33-1.13,2.48-1.61,3.65-.25.62-.25,1.39-.61,1.93-1.01,1.5-1.68,3.18-2.38,4.81-.43,1-.61,2.14-1.15,3.13-.19.35-.53.62-.8.92.09.05.27.13.26.14-.18.45-.38.88-.57,1.32-.08-.03-.17-.07-.25-.1.12-.26.23-.53.35-.79-.82,1.49-1.64,2.99-2.47,4.47-.22.39-.24.92-.97.89-.25-.01-.54.6-.8.94-.47.62-.92,1.26-1.74,1.47l.02.04h-.04s0-.01.01-.03c-.5-.52-.62-.49-.94.26-.23.21-.47.43-.89.81.21-.66.34-1.08.48-1.5-.05-.03-.09-.06-.14-.09-.38.46-.76.92-1.19,1.43-.12-.49-.22-.91-.36-1.49-.29.29-.46.47-.65.64-.47.43-.96.35-1.2-.22-.61-1.48-.73-2.85.09-4.42,2.76-5.33,5.36-10.74,8.01-16.12.62-1.26,1.17-2.55,1.82-3.79.53-1.02.79-2.04.65-3.2-.06-.52.23-1.09.37-1.63.1-.39.25-.74.31-1.17.1-.82.55-1.6,1.37-2.04,1.04-.56,1.63-1.47,2.13-2.53,2.89-6.09,5.84-12.16,8.77-18.22.61-1.26,1.26-2.5,1.87-3.71-.3-.69-.79-.87-1.5-.67-.03-.47-.38-.68-.59-.97-.41-.57-.71.35-1.05-.12-.32-1.49-.08-2.95.91-4.29.39-.53.65-1.14.94-1.74.42-.85,1.16-1.36,1.93-1.82,1.71-1.02,3.52-1.82,5.5-2.18.84-.15,1.66-.42,2.49-.6.38-.08.77-.13,1.16-.13,1.6-.02,3.19-.05,4.79-.02.8.01,1.61.14,2.41.24,1.08.13,2.2.56,3.21.38,2.09-.39,3.94.53,5.9.73.96.1,1.88.28,2.65,1,.36.33.92.59,1.52.38.15-.05.43,0,.55.12,1.15,1.08,2.75,1.73,3.22,3.46.08.3.4.53.59.8.54.76.98,1.61,1.62,2.27,1.02,1.06.83,2.27.67,3.5ZM105.79,80.31c.3-.08.61-.15.91-.22-.19.58-.5,1.06-1.15,1.4.09-.44.16-.81.24-1.17ZM105.8,80.28s0,.02,0,.03c0,0-.02,0-.03,0l.03-.04ZM154.8,21.87c-1.02-.55-2.11-1.02-3.21-1.38-2.19-.71-4.45-1.09-6.74-1.29-2.22-.2-4.43-.06-6.64.26-.72.1-1.24.49-1.61,1.05-.46.71-.86,1.48-1.24,2.24-1.82,3.71-3.66,7.4-5.42,11.14-1.05,2.24-1.96,4.55-3.01,7.02.35-.1.55-.12.71-.21,3.31-1.66,6.68-3.21,9.91-5.02,3.97-2.23,7.83-4.67,11.72-7.04,2.17-1.32,4.19-2.85,5.84-4.8.75-.89.7-1.43-.31-1.97ZM127.37,21.83l.08.09c.11-.08.22-.15.34-.23-.04-.05-.08-.09-.12-.13-.1.09-.2.18-.3.27ZM132.32,47.17c-.49-.08-.91.03-1.2.52.4-.17.8-.35,1.2-.52ZM143.03,71.59c.52.22,1.04.44,1.56.66-.42-.42-.73-1.02-1.56-.66ZM148.94,66.31c.13.02.25.12.39.19-.28.26-.55.23-.8-.11.16-.04.29-.1.41-.08ZM163.34,21.55c-.39,1.03-.73,1.93-1.13,2.98.51-.19.85-.31,1.29-.47-.26-.75.72-1.52-.15-2.51Z"/><path class="cls-3" d="M227.68,14.73c-.29.14-.68.4-1.11.53-2.13.66-4.1,1.65-5.99,2.81-.64.39-1.26.97-2.13.75-.02.16.02.38-.07.48-.07.08-.3.02-.46.02.05-.12.07-.27.16-.36.06-.07.2-.06.31-.09,0,0,.02,0,.03-.01,0,0-.02.01-.03.01-.07-.02-.16-.02-.22-.05-1.01-.53-1.34-.38-1.54.73-.02.1-.05.21-.07.3-.52.33-1.35-.05-1.57.78.14.15.27.31.5.56-.4.08-.66.13-.92.17-.25.04-.51.08-.75.12-.02.74-.32,1.19-.91,1.33-.08.35-.09.71-.24.98-.31.54-.88.54-1.42.57-.33.66-.35.67-1.22,1.06-.04,0-.1-.02-.1-.03,0-.18.02-.36.04-.64-.31.04-.6.07-.88.1-.14.48-.44.14-.65.1-.3-.07-.6-.25-.81.21.46.2.92.39,1.37.59-.02.05-.04.09-.05.14-.55-.07-1.1-.14-1.83-.24.4.64,1.39.23,1.28,1.1-.41.19-.81.46-1.26-.12-.29.99-.65,1.81-1.43,2.41-.35.26-.61.74-.74,1.17-.2.69-.72.92-1.28.95-.58.03-.88.35-1.16.83.34-.1.69-.19,1.17-.33-.36,1.04-1.37,1.4-1.77,2.34-.32-.34-.5-.83-1.01-.55-.04.02-.2-.15-.31-.25-.06.4-.08.73.33,1.06.54.43.54.73,0,1.1-.63.42-.63.98-.63,1.58-.59.04-.67.48-.7.95-.99.57-1.95,1.22-3.17,1.2.28-.49.41-.95-.29-1.26-.81.38-.33,1.27-.68,1.83-.92-.04-1.34.25-1.75,1.22-.64-.11-1.28-.22-2-.34v1.12c.42-.25.7-.42,1.11-.66.35.48.68.92,1,1.36.43-.6.54-1.42,1.25-1.88.21.79.26.92-.05,1.07-.97.46-.5,1.37-.7,2.05-.04.15.24.51.44.58.2.07.56-.02.72-.17.27-.26.47-.62.63-.96.06-.13-.08-.35-.16-.64-.42.38-.72.65-1.02.93.13-.6.3-1.14.62-1.54.59-.74.54-1.4-.03-2.08.51.34.94.03,1.38-.17.27-.12.53-.35.8,0,0,0,0,0,.01-.02,0,0,.01-.02.01-.02,0,.01,0,.03.01.05-.01,0-.02,0-.04,0-.2.31-.39.62-.59.94-.03.03-.06.05-.09.08-.46.5-.52.93-.19,1.3.29-.22.58-.44.87-.66-.02.14-.02.29-.09.4-.61.98-1.24,1.95-1.85,2.94-.63,1.02-1.25,2.05-1.87,3.07-.51.83-1.06,1.63-1.52,2.48-1.3,2.4-2.57,4.81-3.84,7.22-1.25,2.38-2.48,4.77-3.75,7.14-.21.39-.6.68-.88,1.03-.39.48-.79.95-1.11,1.48-.88,1.42-1.7,2.88-2.58,4.31-.28.46-.63.9-1.01,1.28-.7.7-1.22,1.51-1.6,2.41-.22.52-.62.94-1.12.89-.82-.07-1.2.43-1.62.92-.2.23-.36.5-.64.88-.57-1.09-1.2-1.62-2.26-1.41-.63.13-1.3.11-1.94.11-.19,0-.38-.19-.58-.29-.08.19-.16.38-.24.56-.04,0-.08-.02-.12-.03v-1.82c-.45-.51-.78-.89-1.11-1.27-.08.07-.27.24-.55.49-.25-.76-.09-1.38.13-1.99,1.14-3.21,1.83-6.5,1.9-9.93.08-3.78.25-7.56.59-11.32.37-4.19.51-8.38.57-12.59.05-3.43.24-6.86.35-10.29.02-.62-.01-1.25-.04-1.87-.12-2.51.95-3.44,2.86-4.21.75-.3.84-.35,1.02-1.17.46.07,1.07-.16,1.84-.71.27.36.56.72.8,1.1.25.39.47.8.71,1.21.62-.08,1.01.39,1.17,1.42.42-.17.26-.47.25-.76-.01-.24.1-.48.34-.72.2,1.07.39,2.14.59,3.21l.21-.02c.09-.41.18-.82.33-1.5.2,1.24.45,2.2.42,3.24-.1,3.42-.09,6.85-.19,10.27-.09,3.23-.25,6.46-.38,9.69,0,.11.02.23.05.5.25-.23.45-.38.59-.56,1.26-1.72,2.44-3.51,3.79-5.15.54-.66.85-1.42,1.34-2.08.51-.69.97-1.4,1.48-2.08.3-.4.68-.73.98-1.12.22-.29.38-.63.59-.98.78-.26,1.44-.69,1.99-1.46.62-.89,1.02-2.01,2.19-2.46.26-.1.43-.54.56-.85.43-.99.98-1.85,2.06-2.23.14-.05.28-.16.37-.27.66-.79,1.32-1.58,1.96-2.4.29-.38.52-.81,1.1-.55-.12.42-.24.84-.36,1.25.36.05.71.1,1.06.15.23-.99.43-1.85.63-2.71.08,0,.16.01.25.01.06.23.13.46.21.76.19-.29.35-.53.56-.86-.14-.12-.37-.23-.44-.4-.09-.23-.15-.67-.04-.74.74-.47,1.06-1.44,2.06-1.61.9-.15,1.4-.95,2.02-1.52.35-.32.65-.7,1.08-1.18.73.26,1.2-.57,1.88-.96.36-.31.71-.62,1.06-.93.36-.32.77-.55.89-1.14.06-.32.6-.58.9-.75.61-.35,1.39-.42,2.11-.61-.03-.1-.06-.21-.1-.39-.38.16-.74.32-1.09.48,1.67-1.6,3.3-3.25,5.8-3.35.04.23.07.44.11.65.12,0,.23.03.26,0,.43-.53.98-.77,1.64-.96.44-.13,1.29-.01,1.29-1.01.15.36.29.71.45,1.07h0c.56.31,1.24.51,1.65.95.41.43.55,1.12.83,1.76h-.75c.02.13,0,.26.04.27.74.27,1.49.52,2.26.79.18-.53-1.04-.48-.43-1.22.36.21.76.4,1.1.67.31.25.55.6.88.97ZM175.7,74.85c-.19.22-.35.41-.51.6.4-.07.57-.27.51-.6ZM176.09,22.66c-.02-.07-.05-.13-.07-.2-.07.06-.14.1-.19.17-.01.02.08.1.12.15.04-.04.09-.09.13-.13ZM178.54,50.55c-.48.22-.88.2-.64.96.25-.37.38-.57.64-.96ZM179.59,49.66c.01-.1-.01-.2-.03-.31-.1.05-.21.08-.21.11,0,.1.04.2.07.3.06-.03.16-.05.17-.09h0ZM183.63,57.17s-.08-.01-.12-.02c-.08.24-.16.48-.24.71.08.02.16.04.24.06.03-.25.07-.51.11-.76ZM184.38,60.03c-.01-.08-.14-.14-.26-.25-.05.14-.13.25-.11.32.03.08.15.13.23.19.05-.09.15-.19.14-.27ZM186.73,56.78s.07-.12.19-.32h-1.58c-.61.78-.46,1.67-.45,2.54.19-.18.31-.39.34-.61.21-1.34.42-1.57,1.5-1.6ZM185.02,54.22c.06.02.12.05.18.07.07-.16.14-.33.21-.49-.06-.03-.12-.05-.19-.08-.07.16-.14.33-.2.49ZM185.74,55.83c.1.04.19.07.29.11.17-.38.38-.75.23-1.25-.17.38-.35.76-.52,1.14ZM186.3,51.37c.09.25.17.49.3.86.43-.51.18-.72-.3-.86ZM188.67,46.66c-.68-.25-1.26-.26-1.74-.04.7-.15,1.12.92,1.74.04ZM187.5,54.1c.13,0,.25-.04.39-.07-.04-.13-.07-.2-.09-.26-.12.05-.25.1-.37.16,0,0,.05.17.07.17ZM187.65,48.41c-.07.07-.19.14-.2.22-.02.12.04.25.09.55.19-.25.34-.36.34-.46,0-.1-.14-.21-.23-.31ZM187.79,55.05l.14-.16c-.07-.04-.14-.08-.21-.11-.03.06-.09.12-.08.18,0,.04.1.06.15.09ZM190.24,49.31c-.45.38,0,1.43-1.07,1.12.11-.36.22-.7.33-1.05-1.19,1.18-1.33,1.45-1.4,2.52.42-.28.68-.46.99-.67.35.82-.27,1.42-.47,2.19.98-.42.79-1.31,1.09-1.94.32-.65.83-1.26.53-2.18ZM190.63,47.33c-.08-.04-.15-.07-.22-.11-.13.23-.25.46-.38.69-.36-.34-.6-.57-.92-.87-.21,1.14-.11,1.24,1.35,1.46.06-.39.11-.77.17-1.16ZM189.09,45.64c.28-.1.52-.18.94-.34-.51-.39-.77-.32-.99-.04-.04.06.02.2.05.38ZM190.02,46.59c-.03-.13-.13-.24-.2-.36-.08.07-.21.13-.22.21-.01.12.05.24.11.45.17-.15.32-.24.31-.29ZM190.38,43.63c.39.28.62.44.89.63.34-.47.73-.83.5-1.41-.46.26-.85.47-1.39.77ZM192.48,42.1c.06,1.51-1.23,2.57-1.15,4.06.25.21.53.45.84.7.48-.37.74-.73.44-1.31-.3.06-.56.12-1.05.22.42-.58.69-.94.94-1.28.71.26.72.26,1.56-.02-.41-.18-.71-.31-1.02-.44.07-.07.14-.14.22-.21.21-.04.42-.07.54-.09v-1.37c-.47-.1-.94-.19-1.31-.26ZM191.73,47.82c-.04-.11-.12-.21-.19-.31-.04.16-.08.31-.12.47.06,0,.13.01.19.02.04-.06.13-.14.12-.18ZM194.01,32.56c-.2.26-.39.52-.6.8.45-.05.65-.32.6-.8ZM195.48,36.49c-.29.6-1.3.24-1.43,1.12.88.03,1.36-.34,1.43-1.12ZM194.98,35.9c.6-.08,1.02-.14,1.38-.18-.03-.56-.06-1.09-.11-1.9-.95.49-.82,1.38-1.27,2.09ZM195.62,32.78c.07.07.14.15.2.22.09-.05.15-.09.2-.12-.08-.07-.15-.15-.24-.19-.03-.02-.11.06-.16.1ZM198.53,34.57c-1.02.57-1.2,1.68-1.74,2.52.05.08.1.16.14.24.37-.22.78-.4,1.12-.67.38-.31.37-.7.05-1.08.35-.22.76-.41.43-1.01ZM196.9,28.93c.13.3.21.5.34.82.19-.3.31-.49.56-.89-.43.03-.62.05-.9.07ZM197.73,39.52c.8.2,1.11-.51,1.62-.91-.33.99-.75,1.9-1.64,2.5-.23-.2-.46-.39-.7-.59.03-.03.06-.05.09-.08.65-.03.77-.4.62-.93ZM197.71,41.12h.02s.02.02.02.02c-.01.01-.03.02-.04.03,0-.02,0-.03,0-.05ZM197.71,41.12s0,0,0,0c0,0,.02.01.03.02h-.02s-.02-.02-.02-.02ZM197.82,32.7c.56-.49.7-1.02.4-1.57-.15.59-.26,1.03-.4,1.57ZM200.65,31.15c-.31-.21-.66-.35-1.12-.59-.05.45-.09.77-.12,1.01.44.26.78.46,1.12.66h0c.63-.5.67-.71.13-1.08ZM199.58,37.87s0-.02,0-.02h.01s-.01.02-.02.03c0,0,0-.01,0-.02,0,0,0,0,0,0v.02ZM199.6,37.85c.23-.3.46-.61.69-.91.11.03.3.05.3.08.01.53-.41.88-.98.84ZM200.55,33.12c0-.28-.02-.56-.03-.85-.19.18-.49.35-.51.55-.04.34.27.34.54.29ZM200.27,36.94v-.03s.02,0,.04,0c0,.01-.02.02-.03.04,0,0,0,0,0,0ZM202.07,25.98c-.09,0-.19,0-.28,0v.6c.07,0,.14,0,.2.01.03-.2.05-.4.08-.6ZM204.3,25.43c.11.35.21.65.34,1.05.37-.47.67-.86,1.01-1.29-.2-.18-.37-.32-.52-.45-.31.26-.58.49-.82.7ZM205.97,28.08c-.57.04-.97.07-1.47.11.44.3.93.26,1.47-.11ZM204.54,21.72c.02.06.05.11.07.16.15-.06.29-.12.44-.18-.03-.06-.09-.17-.1-.17-.14.05-.27.12-.41.18ZM205.62,20.64c.39.59.77.65,1.22.33.27-.37.77-.8.71-1.1-.13-.58.31-.8.46-1.18-1.01.41-1.86,1-2.39,1.95ZM208.44,22.52c-1.47-.41-1.92-.44-2.33-.11.87.27.5.98.59,1.61h1.41c-.1-.38-.26-.68-.21-.94.04-.2.34-.36.54-.56ZM206.9,21c.19.17.37.33.56.49.11-.16.21-.32.32-.47-.29,0-.58-.01-.88-.02ZM209.17,20.76c-.29-.27-.58-.54-.92-.86-.33.3-.77.54-.43,1.11.25.22.5.43.77.67.19-.31.39-.62.58-.93ZM208.09,27.51c.09-.25.19-.51.28-.76l-.05.8c-.08-.01-.16-.02-.24-.04ZM208.09,18.63c.75-.24,1.51-.49,2.32-.75-.03-.15-.08-.36-.13-.61-.55.09-1.03.18-1.5.26-.23.37-.46.74-.69,1.11ZM208.37,26.73h.01s0,0-.01.02c0,0,0-.01,0-.02ZM208.37,26.73s0,0,0-.01c0,0,0,0,.01,0h0s-.01.02-.01.02ZM209.62,24.05c-.67.15-.67.15-.55.75.17-.22.33-.45.55-.75ZM210.06,20.64c-.23-.28-.36-.44-.59-.73-.11.37-.18.61-.25.84.23-.03.47-.06.85-.11ZM210.51,18.94c-.06-.12-.13-.35-.17-.34-.21.04-.41.13-.62.21.04.12.08.23.11.35.22-.07.45-.14.67-.21ZM211.22,24.27c0-.18,0-.35,0-.52-.1.03-.19.07-.29.1.1.14.19.28.29.42ZM211.06,17.48c.01.33.03.66.06,1.2.25-.55.48-.86-.06-1.2ZM213.02,19.57h-1.74c.04.18.04.32.1.38.11.1,1.3.23,1.64.21v-.59ZM212.92,15.89c.17-.34.32-.63.5-1-.64.17-.81.5-.5,1ZM213.84,20.1c-.25.02-.49.05-.74.07.24.06.48.12.72.19,0-.08.01-.17.02-.25ZM213.75,16.88c-.77.14-.02.74-.52,1.13.87-.27.83-.65.52-1.13ZM214.57,14.01c-.29.02-.51.04-.74.06.21.13.42.39.74-.06ZM214.8,19.76c.04-.15.11-.29.1-.44,0-.07-.15-.19-.23-.19-.09,0-.21.1-.25.18-.03.05.08.16.12.25.09.06.17.13.26.19ZM215.31,15.22c-.08.17-.16.34-.24.52.09.04.18.07.27.11.06-.18.11-.36.17-.54-.07-.03-.14-.06-.2-.09h0ZM215.31,18.34c.1-.14.21-.27.31-.41-.16.07-.32.13-.48.2.06.07.12.14.17.2ZM216.28,17.23c-.28.32-.43.49-.59.67.35.06.58-.03.59-.67ZM216.58,15.89s-.09-.03-.13-.04c-.05.12-.09.25-.13.38.05.02.1.03.15.05.04-.13.08-.25.12-.38ZM217.37,12.85c-.04-.08-.08-.15-.12-.23-.23.13-.46.25-.69.38.04.07.08.15.12.22.23-.12.47-.25.7-.37ZM217.52,17.06c.07-.02.14-.03.2-.05-.06-.2-.11-.39-.17-.59-.04,0-.09.02-.13.03.03.2.06.41.1.61ZM219.49,11.88c.36-.22.58-.36.8-.49-.32-.04-.66-.11-.8.49ZM220.52,15.61s-.02-.1-.03-.15c-.16-.02-.33-.03-.68-.07.24.19.31.29.4.3.1.01.21-.05.31-.08ZM220.16,14.79h-.3c0,.06,0,.12,0,.19.07-.05.15-.1.29-.19ZM220.5,17.65c-.18-.04-.28-.08-.38-.07-.06,0-.1.09-.16.14.07.06.15.17.22.16.09-.01.16-.12.31-.24ZM220.97,13.75c.1-.23.24-.41.2-.48-.09-.14-.27-.23-.41-.33-.07.12-.23.27-.2.34.06.15.22.26.42.47ZM221.26,16.85c-.07-.1-.14-.2-.21-.3-.04.03-.07.06-.11.09.08.09.16.18.24.26,0,0,.07-.05.07-.05ZM222.63,11.27c-.19-.26-.36-.49-.53-.71-.07.72-.07.72.53.71Z"/><path class="cls-3" d="M223.95,37.64c.64.45,1.12,1.02.95,2.04-.31,1.94-1.2,3.55-2.18,5.19-1.06,1.76-1.97,3.63-2.8,5.52-1.67,3.82-3.2,7.69-4.85,11.52-.72,1.67-1.58,3.28-2.38,4.92-1.14,2.35-2.26,4.7-3.41,7.04-.23.46-.42,1.21-1.04,1.09-.73-.14-.33-.9-.42-1.4,0-.04-.04-.07-.11-.18-.21.05-.44.1-.54.12-.1-.39-.18-.78-.31-1.15-.13-.36-.32-.7-.51-1.11-.47.2-.87.52-1.46.14-.54-.34-1.55.13-1.98.69-.28.37-.58.73-.94,1.18-.34-.57-.6-1.07-.22-1.65.13-.2.38-.49.57-.48,1,.05,1.56-.73,2.5-1.1-.93-.53-1.63-.06-2.57.15.51-1.16.96-2.17,1.4-3.18,2.14-4.93,4.3-9.85,6.42-14.78,1.81-4.19,3.58-8.39,6.04-12.26.73-1.14,1.63-2.19,2.57-3.16.88-.89,2-1.11,3.23-.61.34.14.74.1,1.21.15.05.53.31.95.84,1.32h0ZM237.93,9.52c.7.07,1.14.77.98,1.47-.09.41-.14.83-.19,1.25-.02.12.02.25-.03.35-.49,1.12-.85,2.32-1.52,3.33-2.16,3.26-4.09,6.63-5.34,10.35-.38,1.14-.69,2.31-1.13,3.42-.2.51-.65.92-1.02,1.4-.56-.3-1.06-.56-1.63-.86.36-.88-.82-1.02-.85-1.76-.94-.33-1.31-1.33-2.1-1.82-.14-.09-.37-.03-.55-.04-.45-1.24-.19-2.47.2-3.65,1.57-4.87,3.9-9.33,7.22-13.25.5-.59,1.1-1.11,1.7-1.59.64-.52,1.47-.45,2.11-.14.55.27,1.33.61,1.06,1.54.42,0,.76-.03,1.1,0h0Z"/><path class="cls-3" d="M280.45,11.31c.65.07.89.47.54,1.02-.33.52-.71,1.05-1.19,1.42-1.22.94-1.9,2.26-2.59,3.56-1.54,2.89-3.05,5.79-4.5,8.72-1.19,2.41-2.32,4.85-3.4,7.31-1.77,4.03-3.53,8.06-5.18,12.15-1.69,4.19-3.24,8.43-4.83,12.66-.6,1.6-1.13,3.23-1.72,4.84-.19.5-.52.95-.74,1.45-.29.67-.58,1.35-.79,2.05-1.13,3.89-2.23,7.78-3.33,11.68-.4,1.42-.77,2.85-1.22,4.26-.19.58-.56,1.1-.84,1.65-.31.61-.61,1.23-.97,1.95-.24-.32-.4-.56-.72-.99-.08.47-.12.73-.17,1.05-.14-.06-.33-.13-.52-.21-.77,1.11-1.09,1.28-1.83.97.19-.28.38-.57.69-1.03-.57-.13-.99-.24-1.43-.31-.99-.16-1.53-.65-1.75-1.65-.1-.45-.15-.92-.28-1.36-.07-.23-.21-.53-.4-.62-.65-.31-.62-.89-.32-1.26.37-.47.31-.93.32-1.42.01-2.57-.15-5.16.07-7.71.31-3.57.77-7.13,1.41-10.66,1.06-5.78,2.26-11.54,3.52-17.29.81-3.68,1.58-7.39,2.93-10.94.15-.39.21-.82.14-1.34-.17.21-.36.4-.5.63-2.26,3.87-4.52,7.74-6.77,11.61-.7,1.21-1.35,2.45-2.1,3.63-.79,1.23-1.66,2.42-2.56,3.59-.17.22-.61.24-1.05.39.04-.41.06-.69.09-.99-.11.02-.23,0-.24.04-.54,1.1-.87,2.31-1.86,3.16-.13.11.13.53-.05.9-.77,1.6-1.45,3.25-2.15,4.89-.12.28-.12.61-.22.9-.2.54-.33,1.17-.7,1.58-.91,1.03-1.25,2.31-1.81,3.5-.19.41-.37.86,0,1.32.06.07-.12.32-.18.49,0,0,0,0,0,0-.47,1.38-.94,2.76-1.41,4.15,0,.03.1.1.19.19.61-.05.54-.88,1.18-1.05-.43,1.64-1.01,3.16-1.83,4.56-.78,1.34-1.72,2.59-2.57,3.89-.95,1.46-1.88,2.94-2.82,4.42-.41.65-.82,1.31-1.22,1.97-.05-.07-.09-.13-.14-.2-.48.17-.99.29-1.41.54-.3.17-.52.28-.79.07h0c-.22.2-.45.39-.68.59-.05-.03-.09-.06-.14-.08.16-.36.32-.72.57-1.29-.63.08-1.09.14-1.68.21.05-.44.1-.84.17-1.34-.25-.01-.53-.03-.93-.06.15-.5.28-.94.42-1.37.15-.44,0-.87-.36-.99-.76-.25-.67-.77-.48-1.25,2.55-6.24,5.11-12.47,7.69-18.69.7-1.69,1.42-3.38,2.24-5.01.95-1.9,2.03-3.73,3.02-5.6.8-1.52,1.49-3.09,2.33-4.58,2.16-3.83,4.24-7.73,6.63-11.42,1.73-2.66,3.33-5.44,5.46-7.84.92-1.04,1.61-2.29,2.41-3.44,1.37-1.98,2.68-4.01,4.46-5.69,1.88-1.76,3.6-3.68,5.53-5.38,1.18-1.04,2.59-1.86,3.96-2.66.57-.33,1.33-.34,1.98-.54.28-.09.52-.29.95-.54.34.1.89.26,1.5.43v2.49c.07.02.13.04.19.05.13-.28.26-.56.39-.84.07.02.18.03.19.06.1.36.18.73.26,1.09.03.15-.04.39.04.44,1.11.81.52,1.8.21,2.67-.63,1.8-1.39,3.56-2.08,5.33-.62,1.6-1.2,3.21-1.85,4.8-.59,1.44-1.29,2.83-1.88,4.28-.76,1.87-1.51,3.76-2.17,5.67-.86,2.46-1.62,4.95-2.42,7.43-.08.25-.1.51,0,.81.67-1.53,1.32-3.06,2-4.59,2.26-5.14,4.72-10.18,7.39-15.12,1.89-3.5,3.66-7.05,5.54-10.56.51-.96,1.15-1.85,1.79-2.73.48-.66,1.11-1.14,1.97-1.34.59-.14,1.12-.5,1.68-.76,0,0,0,0,0,0,1.03-.42,1.15-.3,1.31,1.19.83-.19,1.67-.3,2.16.82-.29.06-.55.1-.81.15-.05.33-.09.66-.14,1,.42.02.81.02,1.2.07h0ZM220.52,84.51c-.03.29-.06.57-.09.85.3-.21.46-.46.09-.85ZM227.32,78.78c.07.05.14.1.21.16-.24.36-.49.72-.73,1.09-.08-.05-.16-.1-.24-.16.25-.36.51-.72.76-1.09ZM230.6,67.74c.24-.32.44-.59.64-.86-.36.13-.84.16-.64.86ZM236.82,55.84c-.06.22-.13.44-.2.65-.05-.01-.09-.02-.13-.03.05-.21.1-.42.16-.63,0-.03.06-.06.09-.06.02,0,.05.04.09.07ZM238.44,52.36c.08.9-.58,1.02-1,1.24.29-.36.58-.73,1-1.24ZM248.13,84.66c-.06-.04-.11-.08-.17-.12-.12.15-.24.3-.36.45.07.05.15.11.22.16.1-.16.21-.33.31-.49ZM254.88,45.98c-.36.38-.49.83-.38,1.34.14-.49.26-.92.38-1.34ZM276.72,8.09c-.22.33-.4.67-.1,1.08.8-.7.81-.77.1-1.08ZM279.36,10.22c-.04-.17-.08-.36-.17-.72-.42.42-.73.74-1.04,1.05l.16.19c.35-.17.7-.35,1.05-.52Z"/><path class="cls-3" d="M316.11,44.64c0,.07,0,.15,0,.22.39.1.77.2,1.26.33-1.43.72-2.67,1.61-4.22,1.93-1.52.32-3.02.77-4.52,1.17-1.1.29-1.85.88-2.37,2.01-1.32,2.85-2.85,5.62-4.28,8.43-.33.66-.53,1.38-.87,2.03-.25.48-.66.86-.94,1.33-1.13,1.91-2.23,3.84-3.33,5.77-.13.23-.15.51-.26.75-.31.7-.62,1.41-.96,2.1-.06.12-.26.27-.35.24-.58-.19-.67.44-.66.59.06,1.38-1.11,1.98-1.84,2.88l.89-1.62c-.07-.04-.14-.08-.21-.13-.12.13-.24.27-.36.4-1.26,1.33-2.5,2.67-3.79,3.97-.49.5-1.06.84-1.85.85-.71,0-1.48.15-2.02.77-.14.15-.39.2-.69.35.07-.29.1-.45.13-.58-.95.1-1.92.21-2.98.33.12-.22.2-.36.33-.6h-1.5c-.28-.21-.48-.43-.72-.54-.31-.14-.66-.22-1-.28-2.52-.49-4.03-2.26-5.22-4.31-1.39-2.39-2.13-5-2.17-7.8-.03-2.53-.21-5.06.31-7.58-.12,2.76-.32,5.52.39,8.26.02-.24.08-.48.04-.71-.32-1.94-.12-3.89-.05-5.83.01-.34.34-.67.59-1.13-.05-.09-.29-.37-.36-.68-.07-.33-.02-.7.03-1.04.11-.77.25-1.54.37-2.31.03-.19.09-.4.05-.58-.39-1.96.34-3.76.86-5.56.73-2.5,1.64-4.95,2.55-7.39.36-.97.92-1.88,1.4-2.81.99-1.94,1.91-3.92,3.01-5.8.71-1.23,1.71-2.29,2.53-3.46.66-.94,1.52-1.76,1.7-3.01.06-.41.51-.77.77-1.14.11.05.22.1.33.15.03-.09.05-.17.08-.26-.09.01-.19.03-.28.04.56-.66,1.39-1.09,1.69-2,.06-.2.3-.37.49-.49,2.07-1.22,3.42-3.27,5.31-4.69.3-.23.65-.39.96-.61.18-.13.33-.29.49-.45.22-.22.4-.48.64-.67,1.7-1.3,3.39-2.61,5.12-3.88,1.85-1.35,3.63-2.83,5.76-3.76,1.24-.54,2.51-1.06,3.81-1.47,1.26-.4,2.58-.59,3.85-.96.65-.19,1.25-.56,2.07-.94.46.34,1.25.69,1.65,1.29.42.64,1.48.41,1.62,1.49-.43-.15-.75-.26-1.11-.38-.22.53.02.88.33,1.18.82.8,1.1,1.69.81,2.86-.31,1.27-.33,2.62-.61,3.9-.29,1.28-.75,2.53-1.15,3.78-.23.7-.52,1.38-.73,2.09-.75,2.42-1.64,4.78-3.06,7.03-.07-.22-.12-.38-.17-.54-.76-.02-1.08.52-1.36,1.09-.27.55-.54.96-1.18.41-.07-.06-.26-.02-.38,0-1.11.16-2.3-.64-2.49-1.73-.14-.81-.2-1.6.15-2.41.68-1.53,1.27-3.1,1.95-4.63,1.19-2.67,2.41-5.32,3.62-7.98.08-.17.14-.35.28-.68-.37.05-.65.01-.84.12-2.42,1.34-5.08,2.23-7.31,3.92-1.3.99-2.61,1.97-3.85,3.04-4.11,3.54-7.98,7.36-11.22,11.71-3.84,5.13-7.06,10.66-9.1,16.79-.09.26-.22.5-.34.75,0-.3-.09-.63,0-.9.64-1.71,1.33-3.41,1.99-5.11.1-.25.14-.52.22-.78-.73-.12-.19-.62-.27-.93-.04-.16-.08-.31-.2-.74-.47.94-.83,1.62-1.16,2.31-.33.7-.59,1.44-1.19,1.98.1-.47.29-.89.47-1.31.18-.43.42-.85.34-1.54-1.22,1.52-1.53,3.24-2.43,4.7.42-1.73,1.14-3.37,1.43-5.14-1.64,3.2-2.6,6.67-4.11,9.92-.23-1.7.83-3.18.83-4.84-.27.36-.49.73-.61,1.14-.62,2.05-1.21,4.1-1.82,6.15-.12.41-.24.82-.43,1.2-.44.86-.56,1.76-.47,2.71.02.19.13.43.06.56-.69,1.2-.56,2.43-.2,3.69.07.24.03.57-.09.79-.33.63.22,1.25-.01,1.87,0,.03.34.19.62.33.1-1.44.15-2.76.3-4.07.23-2.05.51-4.09.81-6.14.05-.34.29-.66.44-.99-.37,3.07-1.22,6.08-.14,9.19.16-1.28.33-2.56.51-4.01.72.74-.2,1.64.55,2.18.48-1.13.45-1.75-.12-2.64-.06-.09-.14-.21-.14-.31.06-.91.14-1.83.21-2.74.15.58.07,1.19.26,1.7.24.66.45,1.28.39,1.99,0,.07,0,.19.05.22.55.4.31.98.34,1.5.02.37,0,.73,0,1.37.22-.35.3-.44.32-.53.1-.5.2-.99.26-1.49.43-3.49,1.28-6.89,2.39-10.22.13-.39.41-.73.62-1.1-.64,2.33-1.31,4.65-1.9,6.99-.72,2.89-1.03,5.83-1.02,8.8,0,1.01-.2,2.03-.09,3.03.21,1.89.43,3.81,1.58,5.44.63.89,1.36,1.07,2.34.57,1.6-.82,2.84-2.1,3.85-3.53,1.41-2.01,2.7-4.1,3.91-6.24,1.99-3.53,3.88-7.12,5.81-10.69.26-.47.45-.98.73-1.59-.51-.21-.93-.53-1.34-.52-1.39.05-2.24-.84-2.83-1.79-1.52-2.47-1.56-4.99,1.74-6.21,1.22-.45,2.6-.46,3.9-.66,3.2-.49,6.4-.96,9.59-1.47,1.5-.24,2.99-.56,4.49-.8.44-.07.9-.26,1.32.28.17.22.82.12,1.24.06,1.65-.21,2.9.53,4.12,1.61-.29.18-.5.32-.81.51.49.34.92.64,1.5,1.05-.43.25-.74.43-1.12.65.03.13.06.31.11.56-.87.35-1.75.7-2.64,1.06ZM272.17,56.16s-.09-.02-.14-.03c.09-.46.18-.91.26-1.37l.17.06-.3,1.34ZM273.15,59.55c.03-.1.06-.2.08-.3-.07,0-.15-.04-.2,0-.05.04-.09.12-.09.19,0,.03.1.06.2.11ZM273.24,61.97s-.08-.1-.12-.15c-.04.05-.13.12-.12.15.03.07.1.13.16.19.03-.06.06-.13.09-.19ZM273.06,57.01c.13-.03.26-.03.27-.06.63-2.83,1.25-5.66,1.86-8.49.03-.13-.04-.27-.07-.41-.07-.02-.14-.04-.21-.06-.14.29-.34.56-.41.86-.63,2.69-1.6,5.31-1.44,8.15h0ZM277.57,51.3h.15c.01.19.02.38.03.57-.06,0-.12.02-.18.03v-.6ZM277.86,54.83c.18.77.94,1.43.31,2.24-.06-.36-.14-.74-.19-1.11-.05-.37-.08-.75-.12-1.12ZM278.58,49.25c-.09.04-.19.1-.3.12-.03,0-.14-.12-.12-.15.04-.09.11-.17.18-.25.05.05.09.1.24.28ZM278.37,40.17c.09.05.18.09.27.14.15-.28.3-.57.45-.85-.1-.06-.19-.13-.29-.19-.14.3-.29.6-.44.9ZM278.42,42.5c.08.04.16.07.24.11.35-.84.71-1.67,1.06-2.51-.79.63-1.12,1.48-1.3,2.4ZM279.14,50.37c-.22.76-.43,1.53-.65,2.29.1-.8-.13-1.7.65-2.29ZM278.65,37.81c.06.02.12.04.17.07.12-.26.24-.53.37-.79-.08-.03-.16-.06-.23-.1-.1.27-.2.55-.31.82ZM279.14,50.37s0,0,0,0h0s0,0,0,0c-.17-.81.11-1.55.28-2.3l.23.04c-.17.75-.34,1.5-.51,2.25h0ZM280.21,46.24c-.05-.03-.1-.06-.16-.09.06-.13.12-.27.18-.4.04.01.08.03.12.04-.05.15-.09.3-.14.45h0ZM280.43,38.11l.15.05.21-.43c-.08-.03-.16-.06-.25-.08-.04.16-.08.31-.12.47ZM282.48,39.13c.07.01.15.03.23.04.04-.19.07-.38.11-.58l-.24-.04c-.03.19-.07.39-.1.58ZM283.69,38.77c1.02.14,1.49-.13,1.58-.87.01-.11,0-.23-.02-.35-.06-.41-.12-.82-.21-1.37-.54.94-1.19,1.63-1.36,2.58ZM285.45,33.85c.08.04.16.08.23.11.05-.15.11-.31.16-.46-.05-.02-.1-.04-.16-.07-.08.14-.16.28-.24.42ZM286.21,35.4c.26-.5.47-.91.68-1.31-.61.47-.84.91-.68,1.31Z"/><path class="cls-3" d="M414.9,13.62c.15.11.25.42.23.63-.05.53-.05,1.11-.27,1.58-1.27,2.67-2.6,5.31-3.9,7.97-2.79,5.7-5.54,11.42-7.96,17.3-1.02,2.48-2.07,4.96-3.1,7.43-.41,1-.61,2.17-1.26,2.97-1.17,1.44-1.22,3.24-1.92,4.82-.76,1.72-1.12,3.63-1.6,5.47-1.57,5.99-3.11,11.99-5.15,17.84-.16.48-.3.97-.41,1.46-.2.93-.47,1.8-1.5,2.18.06-.51.12-1.06.19-1.61-.08-.02-.15-.03-.23-.05-.45,1.48-.9,2.97-1.36,4.45-.08,0-.17,0-.25,0-.09-.45-.17-.9-.32-1.66-.28.52-.4.82-.59,1.06-.05.06-.28,0-.44-.03,0,.01.01.02.02.03-.78.02-.68.86-1.07,1.16-.81.13-1.54.25-2.35.39,0-.53,0-.91,0-1.3,0-.23.1-.49.02-.69-.49-1.2-.1-2.35.13-3.53.76-3.91,1.89-7.71,3.34-11.41,2.33-5.93,3.62-12.16,5.56-18.21,1.2-3.74,2.53-7.45,3.79-11.17.17-.51.34-1.02.45-1.55-3.03,4.61-5.82,9.35-8.52,14.14-1.78,3.16-3.58,6.3-5.44,9.41-.9,1.5-1.87,2.99-3.01,4.3-.93,1.07-2.1,1.95-3.27,2.77-.46.32-1.17.28-1.77.41-.35.51-.85.54-1.42.45-.4-.06-.82-.01-1.43-.01-.09-.27-.22-.68-.38-1.07-.14-.34-.12-.71-.56-.98-.69-.42-.99-1.16-.9-1.99.14-1.3.22-2.62.49-3.9.14-.7.58-1.35.94-2,.75-1.32,1.7-2.54,2.27-3.93,1.82-4.42,3.51-8.9,5.24-13.36-.07-.04-.14-.09-.2-.13-.08.08-.19.14-.24.24-2.02,3.78-4.03,7.57-6.06,11.34-2.79,5.18-5.52,10.39-8.41,15.51-1.1,1.95-2.57,3.7-3.91,5.51-.25.34-.74.5-1.12.74-.06.04-.18.03-.21.08-.64,1-1.84.85-2.74,1.31-.28.14-.68.04-1.05,0-.04.02-.08.03-.12.05.11.12.23.25.43.48-.45.19-.82.35-1.2.5-.03-.05-.06-.09-.09-.14.25-.27.51-.53.76-.8-.52.19-1.05.39-1.64.61-.14-.18-.38-.47-.65-.81.21-.03.35-.05.55-.07.02-.42.04-.86.07-1.36-.24.06-.49.12-.76.19-.12-.32-.24-.64-.41-1.1.05-.06.21-.26.39-.49-.16-.22-.33-.45-.48-.68.24-.36.46-.67.67-.99.07-.1.21-.25.18-.28-.54-.68.23-.89.42-1.39-.48.22-.95.43-1.43.65-.04-.04-.08-.07-.12-.11.35-.37.69-.74,1.05-1.09.78-.75,1.54-1.47,2.01-2.52.45-1.01,1.29-1.84,1.88-2.79,1.16-1.89,2.25-3.82,3.39-5.73,1.03-1.74,2.04-3.5,3.14-5.2.81-1.27,1.84-2.41,2.61-3.7,1.7-2.84,3.28-5.75,4.94-8.61,3.01-5.19,6.23-10.24,9.73-15.11,1.68-2.34,3.35-4.69,5.18-6.9,1.93-2.33,3.93-4.63,6.62-6.18.3-.17.6-.38.85-.62.67-.67,1.36-1.09,2.37,0,.07-.65.11-.99.14-1.33.58-.13.39.44.64.75.35-.12.73-.25,1.14-.38.46.62,0,1.23-.15,1.95.27-.14.53-.28.82-.43.09.08.21.13.25.22.23.45,0,1.1.64,1.41.12.06.15.52.07.75-.41,1.17-.79,2.37-1.32,3.48-2.05,4.25-4.15,8.46-6.22,12.69-.06.13-.1.27.04.54.22-.32.46-.63.67-.95,2.94-4.69,6.27-9.11,9.78-13.39,2.07-2.52,4.44-4.71,7.15-6.5.97-.64,1.93-1.42,3.27-1.32.33.03.7-.48,1.12-.79.2-.04.52-.13.85-.16.29-.03.64-.11.87.01.4.21.24.59.1.93-.03.07,0,.15,0,.21.29.12.68.17.82.38.17.25.13.65.16.98,0,.01-.17.04-.28.06.03.18.06.37.1.6.23.03.52,0,.7.12h0ZM353.1,78s-.02,0-.03,0h.02s0,0,0,0ZM354.28,77.04c-.62-.03-.66.38-.66.82,0,0,0,0,0,0,.22-.27.43-.54.66-.82ZM372.93,70.17c-.02-.1-.02-.22-.08-.28-.08-.09-.21-.13-.33-.17-.02,0-.13.13-.12.15.07.1.15.2.25.26.08.04.19.04.29.04ZM385.35,84.02c-.32.43-.59.86-.3,1.39.65-.35.29-.91.3-1.39ZM393.5,66.73c-.25.14-.34.37-.28.71.1-.25.18-.45.28-.71ZM394.23,63.38s-.09-.08-.15-.12c-.06.08-.13.15-.17.23,0,.01.09.08.18.16.05-.09.11-.17.14-.26ZM412.81,10.76c-.07-.02-.13-.04-.19-.06-.05.17-.1.34-.15.52.06.02.12.04.18.06.05-.17.11-.34.16-.51ZM414.07,12.86c0-.19,0-.4,0-.74-.4.42-.4.62,0,.74Z"/><path class="cls-3" d="M463.86,14.82c.15.18.31.37.49.59-.24.11-.45.22-.66.32.32.42-.05.44-.3.51-.24.06-.5.09-.76.29.47.08.94.16,1.59.28-1.01.78-1.95,1.22-3.28,1.22.28.24.38.33.65.56-1.18.2-2.23.4-3.29.55-3.24.48-6.48.94-9.72,1.41-1.89.27-3.78.57-5.67.83-3.23.45-6.27,1.57-9.36,2.55-.36.11-.74.46-.91.8-1.82,3.54-3.59,7.09-5.39,10.64-.42.83-.9,1.63-1.33,2.46-.22.43-.39.89-.69,1.6.62-.1.99-.12,1.33-.22,2.1-.59,4.2-1.21,6.3-1.79,1.31-.36,2.64-.7,3.97-.98,1.24-.26,2.5-.42,3.89-.64-.15.25-.23.37-.37.6.4-.11.69-.21.98-.26.43-.07.94-.46,1.21.31.04.12.76.18.96.02.69-.58,1.36-.27,2.06-.15.13.02.28-.02.7-.05-.52.34-.8.53-1.25.83.97.17,1.59-.52,2.44-.39-.2.22-.37.42-.59.66h1.36c-.18.26-.29.41-.45.64.24.18.5.38.76.56-.02.1-.02.19-.06.23-.41.41-.74.84-1,1.39-.3.63-.92,1.1-1.46,1.7.1.07.28.21.51.37-5.55,2.81-11.54,4.13-17.4,5.82.02.09.05.18.08.26,2.98-.79,5.95-1.58,8.93-2.37.02.09.05.17.07.25-5.28,1.55-10.57,3.1-15.95,4.67-.07-.47-.11-.75-.16-1.09-1.01-.04-1.87.05-2.39,1.07-.54,1.07-1.22,2.08-1.75,3.16-1.43,2.9-2.8,5.83-4.22,8.74-.22.44-.6.8-.86,1.22-.23.38-.4.81-.6,1.21-.28.54-.57,1.06-.86,1.6.05.07.1.14.16.22.37-.13.77-.22,1.11-.39,2.22-1.13,4.4-2.35,6.67-3.39,4.56-2.11,9.14-4.19,13.89-5.84,1.8-.62,3.62-1.18,5.44-1.75.39-.12.79-.31,1.21.07.15.14.51.06.78.06,1.08,0,2.15,0,3.23,0,.03.08.07.17.1.25-.49.33-.98.67-1.47,1,.03.06.05.13.08.19.49-.06.98-.12,1.48-.19.02.07.04.14.06.22-.41.23-.83.45-1.24.68.03.07.05.13.08.2.72-.27,1.44-.53,2.23-.82-.1.84-.28,1.05-1.55,1.82h1.23c-.5.3-.76.45-1.18.7.44.07.74.12,1.25.21-.42.25-.63.4-.86.52-.36.19-.7.27-.87.8-.12.39-.74.63-1.15.92-.55.39-1.34.5-1.48,1.34-.02.11-.22.21-.35.27-2.34,1.12-4.69,2.25-7.04,3.35-.74.34-1.52.57-2.26.91-1.48.67-2.95,1.36-4.4,2.08-1.04.51-2.06,1.08-3.09,1.62-.17.09-.36.16-.51.29-.78.66-1.92.28-2.74,1.11-.67.68-1.75.94-2.64,1.4-.9.46-1.8.91-2.68,1.4-.5.27-1.08.52-1.41.94-.91,1.17-2.27,1.02-3.47,1.35-.93.26-1.83-.13-2.74-.13-1.01,0-2.03.01-3.04-.03-.62-.03-1.25-.1-1.84-.26-.3-.09-.58-.39-.78-.66-.57-.8-1.19-1.36-2.01-1.65-.23-1.4-.07-2.82.3-4.2,1.13-4.17,3.04-8.01,4.97-11.84,2.17-4.32,4.37-8.63,6.53-12.95,2.18-4.36,4.34-8.73,6.5-13.1.28-.56.52-1.13.81-1.69,2.1-4.05,4.19-8.1,6.32-12.13.42-.79.94-1.53,1.44-2.27.26-.38.63-.61,1.04-.86.55-.33.97-.94,1.34-1.5.26-.39.54-.63.98-.73,1.63-.38,3.26-.77,4.88-1.18.6-.15,1.23-.27,1.79-.54,1.69-.82,3.53-.93,5.34-1.2,2.35-.35,4.71-.63,7.08-.84,1.15-.1,2.45-.27,3.44.15,1.1.46,2.07.24,3.11.24.83,0,1.65.13,2.48.2,0,.1,0,.2.01.3-.39.05-.78.11-1.43.2.88.14,1.52.24,2.24.35,1-.68,1.05-.67,1.7.59.78.05,1.59.11,2.45.17v1.24c-.2.07-.44.16-.67.24,0,.03.01.06.02.09.65-.05,1.3-.11,2.18-.18-.26.31-.4.47-.58.68h0ZM426.41,48.83l.04.13c.24-.07.47-.14.71-.21l-.04-.13c-.24.07-.47.14-.71.22Z"/><path class="cls-3" d="M510.5,14.25c-.05.53-.05,1.11-.27,1.58-1.27,2.67-2.6,5.31-3.9,7.97-2.79,5.7-5.54,11.42-7.96,17.3-1.02,2.48-2.07,4.96-3.1,7.43-.41,1-.61,2.17-1.26,2.97-1.17,1.44-1.22,3.24-1.92,4.82-.76,1.72-1.12,3.63-1.6,5.47-1.57,5.99-3.11,11.99-5.15,17.84-.16.48-.3.97-.41,1.46-.2.93-.47,1.8-1.5,2.18.06-.51.12-1.06.19-1.61-.08-.02-.15-.03-.23-.05-.45,1.48-.9,2.97-1.36,4.45-.08,0-.17,0-.25,0-.09-.45-.17-.9-.32-1.66-.28.52-.4.82-.59,1.06-.05.06-.28,0-.44-.03,0,.01.01.02.02.03-.78.02-.68.86-1.07,1.16-.81.13-1.54.25-2.35.39,0-.53,0-.91,0-1.3,0-.23.1-.49.02-.69-.49-1.2-.1-2.35.13-3.53.76-3.91,1.89-7.71,3.34-11.41,2.33-5.93,3.62-12.16,5.56-18.21,1.2-3.74,2.53-7.45,3.79-11.17.17-.51.34-1.02.45-1.55-3.03,4.61-5.82,9.35-8.52,14.14-1.78,3.16-3.58,6.3-5.44,9.41-.9,1.5-1.87,2.99-3.01,4.3-.93,1.07-2.1,1.95-3.27,2.77-.46.32-1.17.28-1.77.41-.35.51-.85.54-1.42.45-.4-.06-.82-.01-1.43-.01-.09-.27-.22-.68-.38-1.07-.14-.34-.12-.71-.56-.98-.69-.42-.99-1.16-.9-1.99.14-1.3.22-2.62.49-3.9.14-.7.58-1.35.94-2,.75-1.32,1.7-2.54,2.27-3.93,1.82-4.42,3.51-8.9,5.24-13.36-.07-.04-.14-.09-.2-.13-.08.08-.19.14-.24.24-2.02,3.78-4.03,7.57-6.06,11.34-2.79,5.18-5.52,10.39-8.41,15.51-1.1,1.95-2.57,3.7-3.91,5.51-.25.34-.74.5-1.12.74-.06.04-.18.03-.21.08-.64,1-1.84.85-2.74,1.31-.28.14-.68.04-1.05,0-.04.02-.08.03-.12.05.11.12.23.25.43.48-.45.19-.82.35-1.2.5-.03-.05-.06-.09-.09-.14.25-.27.51-.53.76-.8-.52.19-1.05.39-1.64.61-.14-.18-.38-.47-.65-.81.21-.03.35-.05.55-.07.02-.42.04-.86.07-1.36-.24.06-.49.12-.76.19-.12-.32-.24-.64-.41-1.1.05-.06.21-.26.39-.49-.16-.22-.33-.45-.48-.68.24-.36.46-.67.67-.99.07-.1.21-.25.18-.28-.54-.68.23-.89.42-1.39-.48.22-.95.43-1.43.65-.04-.04-.08-.07-.12-.11.35-.37.69-.74,1.05-1.09.78-.75,1.54-1.47,2.01-2.52.45-1.01,1.29-1.84,1.88-2.79,1.16-1.89,2.25-3.82,3.39-5.73,1.03-1.74,2.04-3.5,3.14-5.2.81-1.27,1.84-2.41,2.61-3.7,1.7-2.84,3.28-5.75,4.94-8.61,3.01-5.19,6.23-10.24,9.73-15.11,1.68-2.34,3.35-4.69,5.18-6.9,1.93-2.33,3.93-4.63,6.62-6.18.3-.17.6-.38.85-.62.67-.67,1.36-1.09,2.37,0,.07-.65.11-.99.14-1.33.58-.13.39.44.64.75.35-.12.73-.25,1.14-.38.46.62,0,1.23-.15,1.95.27-.14.53-.28.82-.43.09.08.21.13.25.22.23.45,0,1.1.64,1.41.12.06.15.52.07.75-.41,1.17-.79,2.37-1.32,3.48-2.05,4.25-4.15,8.46-6.22,12.69-.06.13-.1.27.04.54.22-.32.46-.63.67-.95,2.94-4.69,6.27-9.11,9.78-13.39,2.07-2.52,4.44-4.71,7.15-6.5.97-.64,1.93-1.42,3.27-1.32.33.03.7-.48,1.12-.79.2-.04.52-.13.85-.16.29-.03.64-.11.87.01.4.21.24.59.1.93-.03.07,0,.15,0,.21.29.12.68.17.82.38.17.25.13.65.16.98,0,.01-.17.04-.28.06.03.18.06.37.1.6.23.03.52,0,.7.12.15.11.25.42.23.63ZM448.47,78s-.02,0-.03,0h.02s0,0,0,0ZM449.66,77.04c-.62-.03-.66.38-.66.82,0,0,0,0,0,0,.22-.27.43-.54.66-.82ZM468.3,70.17c-.02-.1-.02-.22-.08-.28-.08-.09-.21-.13-.33-.17-.02,0-.13.13-.12.15.07.1.15.2.25.26.08.04.19.04.29.04ZM480.72,84.02c-.32.43-.59.86-.3,1.39.65-.35.29-.91.3-1.39ZM488.87,66.73c-.25.14-.34.37-.28.71.1-.25.18-.45.28-.71ZM489.61,63.38s-.09-.08-.15-.12c-.06.08-.13.15-.17.23,0,.01.09.08.18.16.05-.09.11-.17.14-.26ZM508.18,10.76c-.07-.02-.13-.04-.19-.06-.05.17-.1.34-.15.52.06.02.12.04.18.06.05-.17.11-.34.16-.51ZM509.44,12.86c0-.19,0-.4,0-.74-.4.42-.4.62,0,.74Z"/><path class="cls-3" d="M565.89,8.31c-.33,1.15-.58,2.37-1.15,3.4-.55,1-1.37,1.9-2.22,2.69-1.76,1.64-3.6,3.19-5.44,4.74-.53.45-1.18.75-1.74,1.16-1.06.78-2.09,1.6-3.14,2.38-.24.18-.55.27-.82.43-.33.19-.66.38-.95.61-.48.38-.91.84-1.42,1.2-.66.47-1.37.87-2.07,1.29-.17.1-.36.24-.53.23-1.08-.06-1.8.65-2.57,1.22-.21.16-.79.21-.38.72-.38.21-.79.63-1.14.59-.46-.05-.61.13-.84.4-.35.4-.69.84-1.13,1.13-1.44.92-2.93,1.75-4.37,2.67-1.17.75-2.28,1.6-3.43,2.37-.97.65-1.97,1.24-2.95,1.87-.29.19-.55.42-.76.82.43-.07.86-.15,1.29-.22,4.58-.74,9.14-1.59,13.73-2.2,3.79-.51,7.61-.67,11.44-.38,2.38.18,4.64.74,6.43,2.42.49.46.83,1.11,1.14,1.72.33.65.54,1.37.79,2.06.08.21.16.44.15.66-.07,1.64-.5,3.1-1.72,4.31-2.85,2.85-6.11,5.18-9.4,7.48-2.1,1.47-4.18,2.99-6.33,4.38-2.78,1.8-5.63,3.48-8.45,5.23-4.01,2.48-8.01,4.97-12.03,7.44-2.12,1.3-4.3,2.49-6.39,3.84-.77.5-1.5,1.06-2.3,1.54-2.12,1.28-4.17,2.68-6.28,3.98-1.98,1.22-3.99,2.39-6,3.56-.73.43-1.42.88-2.36.9-.56.01-1.11.46-1.85.8.26-.41.41-.65.59-.94-.1-.1-.22-.28-.32-.27-.17.02-.34.14-.48.25-.53.41-1.05.42-1.56.04-.12-.99,1.32-1.4.84-2.55-.23.1-.43.19-.64.28-.24-.31-.47-.61-.72-.94.48-1.14,1.53-1.81,2.46-2.54,2.57-2.02,5.15-4.05,7.83-5.91,4.55-3.15,9.11-6.28,13.79-9.23,6.13-3.87,12.36-7.58,18.57-11.32,3.84-2.31,7.69-4.59,11.31-7.25.71-.52,1.46-1.02,2.01-1.97-.52-.06-.93-.15-1.34-.15-2.65.06-5.3.08-7.94.25-1.5.1-2.99.44-4.48.71-2.42.43-4.84.82-7.24,1.35-2.01.44-3.98,1.08-5.98,1.6-2,.52-4.01.98-6.01,1.47-.19.05-.41.07-.55.19-.39.33-.84.52-1.34.57-.7.07-1.08.47-1.36,1.1-.74,1.71-1.5,3.41-2.32,5.09-1.05,2.16-2.14,4.31-3.25,6.44-1.35,2.59-2.7,5.18-4.1,7.74-.6,1.09-1.32,2.11-1.99,3.16-.08.13-.21.25-.25.39-.32,1.26-1.48,1.85-2.24,2.76-.31.38-.81.85-1.48.05-.2.34-.38.65-.5.86-1-.17-.75-.86-.79-1.52-.43.29-.75.51-1.12.76-.18-.12-.39-.26-.63-.43.07-.43.15-.86.23-1.34-.29-.02-.47-.04-.73-.06.11-.77-.47-1.5,0-2.33.61-1.09,1.17-2.2,1.71-3.33,2.7-5.72,5.83-11.19,8.96-16.68.41-.71.76-1.45,1.13-2.18.05-.1.05-.22.09-.42-.67-.04-1-.86-1.77-.66-.03,0-.08-.02-.1-.05-.68-.77-1.47-1.47-2-2.33-.41-.68.1-1.46.32-2.17.14-.44.59-.75.28-1.37-.13-.26.22-.88.5-1.19.6-.66,1.25-1.3,1.97-1.81,1.79-1.26,3.6-2.47,5.45-3.63.98-.61,1.6-1.43,1.99-2.49,1.08-2.88,2.17-5.76,3.3-8.63,1.07-2.72,2.19-5.42,3.27-8.13.19-.47.33-.95.48-1.39-.44-.49-.76-1.04-1.51-.84.13.09.25.18.46.33-.42.06-.72.11-.84.13-.54-.39-.91-.77-1.37-.95-.34-.14-.45-.2-.44-.6.01-.64-.29-1.32-.15-1.91.25-1.07.51-2.25,1.17-3.06.6-.75,1.56-1.36,2.74-1.34.8.01,1.61-.23,2.41-.38.83-.15,1.36-.49,1.77-1.4.62-1.38,1.65-2.58,2.5-3.86.17-.26.37-.5.51-.78.6-1.12,1.88-1.3,2.59-.4.45.57.94,1.08,1.21,1.8.23.62.71,1.15,1.09,1.75,1.45-.38,2.84-.77,4.24-1.1,4.79-1.13,9.61-2.07,14.56-1.91,1.5.05,3.01.36,4.49.65,1.51.3,2.7,1.18,3.7,2.32.15.17.25.38.37.57.43.68.82,1.4,1.3,2.04.37.49.69.99.51,1.6ZM556.09,9.68c-1.63,0-3-.14-4.33.03-2.43.31-4.86.69-7.24,1.27-3.55.86-7.06,1.91-10.59,2.87-.54.15-.84.47-1.04.99-.47,1.24-.97,2.46-1.48,3.68-1.25,2.98-2.52,5.95-3.77,8.93-.17.41-.29.84-.52,1.54.69-.43,1.12-.68,1.54-.95,1.41-.9,2.81-1.82,4.23-2.71,3.78-2.4,7.54-4.84,11.36-7.17,3.76-2.3,7.37-4.8,10.84-7.53.3-.23.55-.52,1-.94Z"/><path class="cls-3" d="M602.85,56.06c-.13.88.6.97,1.36,1.07-.85,1.64-2.28,2.42-3.6,3.39.53.34.99.64,1.43.92-2.61,2.38-5.61,3.79-8.73,5.01-3.69,1.44-7.33,3-11.02,4.47-1.75.7-3.55,1.27-5.32,1.92-.51.19-.98.48-1.46.72-.16.08-.31.27-.45.26-.94-.09-1.67.45-2.44.8-2.01.92-4.15,1.03-6.31,1.1-.73.02-1.45.1-2.21.15-.51-.31-1.09-.65-1.66-1-.12-.07-.28-.1-.35-.2-1.04-1.38-1.93-2.86-1.72-4.66.18-1.56,1.23-2.57,2.59-3.17,1.89-.83,3.84-1.53,5.78-2.27,4.18-1.59,8.33-3.24,12.54-4.73,3.04-1.07,6.16-1.91,9.24-2.86.62-.19,1.21-.46,1.84-.6,1.88-.43,3.76-.9,5.66-1.2.86-.13,1.78.03,2.64.46.61.31,1.4.27,2.21.4h0ZM614.95,32.65c-.33.3-.67.59-1.06.94.24.22.42.4.64.59-.42.31-.83.61-1.38,1.01.48.2.75.32,1.02.44-.04.13-.03.25-.09.29-.34.23-.69.46-1.06.64-.33.15-.63.17-.65.71,0,.27-.54.57-.88.75-.73.39-1.66.54-2.21,1.09-1.14,1.14-2.58,1.48-4.01,1.9-3.9,1.12-7.84,2.13-11.71,3.34-2.33.72-4.57,1.72-6.85,2.62-1.54.61-3.04,1.35-4.61,1.88-2.27.76-4.58,1.38-6.88,2.05-.26.08-.66.25-.79.13-.99-.88-2.47-.3-3.46-1.3-.93-.94-1.78-1.82-1.86-3.22-.03-.58-.38-1.16-.34-1.73.08-1.08.7-1.89,1.66-2.39.74-.38,1.47-.77,2.24-1.1,7.81-3.34,15.77-6.25,24.08-8.12,2.97-.67,5.93-1.36,8.91-1.99.55-.11,1.16.04,1.73.09.27.02.57.18.81.11,1.92-.54,3.84-.26,5.82-.05-.55.46-1.42.18-1.7,1.21.5.03.92.09,1.34.06.39-.02.78-.13,1.3.02ZM621.24,9.08v1.71c-1.24,1.56-3.19,2-5.01,2.56-3.87,1.2-7.81,2.17-11.67,3.38-3.96,1.24-7.87,2.6-11.77,4-2.69.96-5.32,2.09-7.98,3.12-.51.2-1.07.28-1.72.45-.05-.23-.09-.41-.14-.63-1.39-.21-2.8-.42-4.38-.65-.31-.37-.74-.98-1.26-1.5-1.72-1.69-.71-3.57.58-4.64.84-.7,1.85-1.21,2.83-1.72,6.18-3.16,12.67-5.54,19.38-7.27,3.12-.81,6.31-1.33,9.49-1.85,1.06-.18,2.19.07,3.28.05,1.1-.02,2.2-.11,3.3-.18.02.04.04.09.06.13-.81.24-1.63.48-2.45.72.02.08.04.16.05.24,1.29-.27,2.59-.54,3.88-.81.04.12.08.23.12.35l-1.72.64c.02.09.03.18.05.28.79-.09,1.59-.29,2.37-.22.69.06,1.36.42,2.15.68-.02.42-.35,1.15.57,1.17Z"/><path class="cls-3" d="M665.89,23.36c-.02.19-.07.4-.17.56-.51.81-.92,1.75-1.61,2.36-.58.51-1.54.6-1.58,1.64-.9.5-1.14,1.53-1.85,2.2-.42.4-.76.89-1.2,1.26-4.22,3.54-8.87,6.47-13.64,9.21-2.6,1.49-5.3,2.8-7.96,4.19-1,.52-2.01,1.03-2.99,1.59-.3.18-.52.5-.77.77,3.18-1.54,6.35-3.08,9.53-4.62-2.24,1.65-4.79,2.75-7.21,4.07-2.46,1.34-4.94,2.62-7.46,3.95.48.93,1.03,1.65,1.73,2.28,1.03.94,1.98,1.97,3.01,2.91,2.95,2.71,6.36,4.75,9.85,6.68,1.33.74,2.63,1.51,3.95,2.26.41.23.81.47,1.24.65,1.18.47,1.19.46.89,1.61.56.51,1.15.96,1.74,1.32-.08.28-.16.57-.23.86-.26.82-.49,1.64-.67,2.48-.04-.02-.08-.03-.12-.05-.36-.18-.89,0-1.35,0-.29,0-.58.06-.86,0-.79-.14-.89-.05-.72.92-.35-.05-.68-.1-1-.15.01.17.03.36.05.67-1.69-.45-2.97-1.54-4.53-1.98-.42.5.22.64.35,1.14-.8-.4-1.5-.7-2.16-1.08-2.15-1.25-4.3-2.5-6.43-3.79-1.09-.67-2.11-1.46-3.2-2.13-1.24-.75-2.28-1.78-3.52-2.53-.17-.18-.34-.36-.51-.54.17.18.34.36.51.54-.55.02-.75-.19-.76-.81-1.63-1.48-3.26-2.95-5.05-4.57-.59,1.33-1.13,2.48-1.61,3.65-.25.62-.25,1.39-.61,1.93-1.01,1.5-1.68,3.18-2.38,4.81-.43,1-.61,2.14-1.15,3.13-.19.35-.53.62-.8.92.09.05.27.13.26.14-.18.45-.38.88-.57,1.32-.08-.03-.17-.07-.25-.1.12-.26.23-.53.35-.79-.82,1.49-1.64,2.99-2.47,4.47-.22.39-.24.92-.97.89-.25-.01-.54.6-.8.94-.47.62-.92,1.26-1.74,1.47l.02.04h-.04s0-.01.01-.03c-.5-.52-.62-.49-.94.26-.23.21-.47.43-.89.81.21-.66.34-1.08.48-1.5-.05-.03-.09-.06-.14-.09-.38.46-.76.92-1.19,1.43-.12-.49-.22-.91-.36-1.49-.29.29-.46.47-.65.64-.47.43-.96.35-1.2-.22-.61-1.48-.73-2.85.09-4.42,2.76-5.33,5.36-10.74,8.01-16.12.62-1.26,1.17-2.55,1.82-3.79.53-1.02.79-2.04.65-3.2-.06-.52.23-1.09.37-1.63.1-.39.25-.74.31-1.17.1-.82.55-1.6,1.37-2.04,1.04-.56,1.63-1.47,2.13-2.53,2.89-6.09,5.84-12.16,8.77-18.22.61-1.26,1.26-2.5,1.87-3.71-.3-.69-.79-.87-1.5-.67-.03-.47-.38-.68-.59-.97-.41-.57-.71.35-1.05-.12-.32-1.49-.08-2.95.91-4.29.39-.53.65-1.14.94-1.74.42-.85,1.16-1.36,1.93-1.82,1.71-1.02,3.52-1.82,5.5-2.18.84-.15,1.66-.42,2.49-.6.38-.08.77-.13,1.16-.13,1.6-.02,3.19-.05,4.79-.02.8.01,1.61.14,2.41.24,1.08.13,2.2.56,3.21.38,2.09-.39,3.94.53,5.9.73.96.1,1.88.28,2.65,1,.36.33.92.59,1.52.38.15-.05.43,0,.55.12,1.15,1.08,2.75,1.73,3.22,3.46.08.3.4.53.59.8.54.76.98,1.61,1.62,2.27,1.02,1.06.83,2.27.67,3.5ZM607.54,80.31c.3-.08.61-.15.91-.22-.19.58-.5,1.06-1.15,1.4.09-.44.16-.81.24-1.17ZM607.55,80.28s0,.02,0,.03c0,0-.02,0-.03,0l.03-.04ZM656.55,21.87c-1.02-.55-2.11-1.02-3.21-1.38-2.19-.71-4.45-1.09-6.74-1.29-2.22-.2-4.43-.06-6.64.26-.72.1-1.24.49-1.61,1.05-.46.71-.86,1.48-1.24,2.24-1.82,3.71-3.66,7.4-5.42,11.14-1.05,2.24-1.96,4.55-3.01,7.02.35-.1.55-.12.71-.21,3.31-1.66,6.68-3.21,9.91-5.02,3.97-2.23,7.83-4.67,11.72-7.04,2.17-1.32,4.19-2.85,5.84-4.8.75-.89.7-1.43-.31-1.97ZM629.12,21.83l.08.09c.11-.08.22-.15.34-.23-.04-.05-.08-.09-.12-.13-.1.09-.2.18-.3.27ZM634.07,47.17c-.49-.08-.91.03-1.2.52.4-.17.8-.35,1.2-.52ZM644.78,71.59c.52.22,1.04.44,1.56.66-.42-.42-.73-1.02-1.56-.66ZM650.69,66.31c.13.02.25.12.39.19-.28.26-.55.23-.8-.11.16-.04.29-.1.41-.08ZM665.09,21.55c-.39,1.03-.73,1.93-1.13,2.98.51-.19.85-.31,1.29-.47-.26-.75.72-1.52-.15-2.51Z"/><path class="cls-3" d="M719.22,14.39c-.62,1.86-1.73,3.41-2.86,4.93-1.6,2.16-3.24,4.29-4.97,6.35-2.26,2.68-4.68,5.22-7.35,7.5-1.39,1.18-2.92,2.2-4.4,3.27-.31.22-.54.49-1.11.22-.4-.19-1.11.29-1.87.54.16-.31.28-.53.38-.73-.33-.47-.65-.93-1.05-1.51-.38.24-.78.5-1.37.88.3-1.23,1.26-1.57,2.02-2.19-.13-.34-.27-.7-.43-1.09-.78.19-1.22,1.09-2.2.91-.16-.8-.39-1.62.49-2.24,1.14-2.33,3.38-3.62,5.11-5.39,1.28-1.31,2.55-2.63,3.81-3.96.2-.21.31-.49.6-.96-.41.16-.59.2-.74.29-5.1,3.25-10.25,6.41-15.26,9.79-4.07,2.75-7.96,5.76-11.49,9.21-1,.98-1.86,2.1-2.73,3.2-.35.44-.53,1-.83,1.59,1.08.45,2.07.61,3.05.79.52.1,1.02.33,1.54.46.52.14,1.05.27,1.58.35.5.07,1.01.06,1.54.09-.39,1.22-1.52.22-2.23.82,1.37.18,2.62.43,3.88.5,2.49.14,4.99.07,7.47.3,2.05.19,4.07.66,6.1,1.03.57.11,1.15.25,1.68.48.78.33,1.52.75,2.26,1.15.2.11.35.34.56.42,1.5.59,2.4,1.8,3.27,3.05.11.16.24.3.49.61-.05-.47-.08-.77-.11-1.09.07,0,.16,0,.18.03.81,1.39.94,2.95,1.05,4.5,0,.11-.02.24-.07.34-.89,1.75-1.45,3.67-2.85,5.16-2.29,2.45-4.6,4.87-7.44,6.72-2.39,1.55-4.91,2.86-7.53,4-4.86,2.11-9.86,3.63-15.16,4.12-2.41.22-4.75-.07-7.06-.7-.37-.1-.69-.35-1.05-.5-.36-.16-.69-.52-1.12-.01-.1.12-.69-.03-.94-.21-1.71-1.27-3.67-2.3-4.35-4.55-.03-.11-.09-.22-.16-.31-1.5-1.91-1.23-4.03-.68-6.14.55-2.13,1.6-4.06,2.79-5.9,2.23-3.47,5.01-6.46,8.13-9.15.21-.18.41-.36.6-.55.08-.08.11-.2.15-.27-.34-.5-.63-1.02-1.01-1.45-.69-.78-.64-1.66-.38-2.53.42-1.41.89-2.82,1.47-4.17.32-.73.93-1.34,1.42-1.99,1.43-1.91,3.16-3.53,4.83-5.22.85-.86,1.7-1.72,2.58-2.54.77-.71,1.58-1.38,2.39-2.05.15-.12.34-.28.51-.27.78.02,1.28-.51,1.85-.89,3.46-2.32,6.9-4.69,10.39-6.97,2.05-1.35,4.21-2.53,6.28-3.86,2.33-1.5,4.64-3.03,6.87-4.66.71-.52,1.47-.97,2.18-1.48.9-.65,1.75-1.36,2.62-2.06,1.03-.82,2.05-1.66,3.14-2.53.45.54,1.01.43,1.6.36.57-.06,1.19-.1,1.71.08.47.16,1.03-.41,1.37.21.22.41.31.89.57,1.27,1.02,1.49.84,3,.3,4.61ZM670.91,58.6c-1.67,1.91-3.18,3.95-4.26,6.26-.56,1.2-1.06,2.43-1.49,3.68-.35,1.02-.09,1.44.99,1.67.95.2,1.92.28,2.62.37,4.15-.29,7.91-1.1,11.58-2.35,3.43-1.17,6.78-2.53,9.93-4.38,2.33-1.37,4.51-2.92,6.37-4.9.53-.57.96-1.22,1.44-1.83.26-.34.34-.68.11-1.08-.76-1.33-1.62-2.56-3.04-3.29-1.34-.68-2.72-1.19-4.23-1.18-4.13.04-8.26.11-12.38.15-.88,0-1.59.32-2.17.95-1.82,1.97-3.68,3.91-5.45,5.93ZM700.54,18.56c-1.44.72-1.67.89-2.1,1.59.81-.49,1.62-.82,2.1-1.59ZM701.47,18.25c-.47-.32-.58.05-.8.23.27-.08.53-.15.8-.23Z"/></svg>