<?xml version="1.0" encoding="UTF-8"?><svg id="Layer_1" xmlns="http://www.w3.org/2000/svg" xmlns:xlink="http://www.w3.org/1999/xlink" viewBox="0 0 631.67 589.55"><defs><style>.cls-1{clip-path:url(#clippath);}.cls-2{fill:none;}.cls-2,.cls-3{stroke-width:0px;}.cls-4{opacity:.2;}.cls-3{fill:#fff;}</style><clipPath id="clippath"><rect class="cls-2" x="-3242.77" y="-772.78" width="2001.75" height="827.64"/></clipPath></defs><path class="cls-3" d="M253.9,243.15c-10.74,5.98-22.9,11.3-30.69,20.32-10.44,12.08-22.21,23.99-27.37,40.15-.2.62-.63,1.14-1.47,2.64,1.34-43.41,40.23-66.88,75.91-67.31-5.5,1.32-11.6,1.54-16.39,4.2M231.59,260.75c-.24-.5-.47-1-.71-1.5,8.8-4.4,17.6-8.81,26.4-13.22.26.61.51,1.21.77,1.8-8.82,4.31-17.64,8.61-26.46,12.92M302.47,257.13c2.63,2.14,6.07,3.25,9.95,5.24-4.78,4.29-9.02,6.54-15.06,4.15.52-1.86.86-3.08,1.1-3.97-2.7-1.25-5.12-2.37-8.38-3.88,4.66-3.99,8.04-5.1,12.38-1.55M299.8,416.02c7.03-2.33,14.17-4.5,20.91-7.57,8.31-3.78,16.89-7.5,24.23-12.84,17.26-12.58,32.08-27.89,44.18-45.79,17.3-25.59,24.5-52.87,15.75-83.82-4.93-17.44-13.16-33.05-21.94-48.48-10.36-18.18-25.46-30.86-44.07-39.89-11.36-5.5-22.8-9.45-35.35-9.87-11.2-.38-22.4-.72-33.59-.98-26.28-.63-49.34,9.47-69.97,24.55-14.14,10.35-26.19,23.68-34.42,39.83-9.98,19.59-15.4,39.89-10.14,62.24,3.09,13.13,5.17,26.5,7.63,39.77,1.03,5.52.14,12.39,8.84,12.03.38,0,.98.34,1.12.67,2.94,7.01,6.85,3.4,10.66,1.06,1.53-.94,3.05-1.86,5.54-3.39.73,3.2,1.22,5.65,1.87,8.04,1.43,5.29,2.74,10.62,4.44,15.83,6.64,20.46,20.48,33.97,39.55,42.44,20.95,9.31,42.33,13.61,64.77,6.16"/><path class="cls-3" d="M42.52,292.58c10.9-.55,21.85-.31,32.77-.2,3.54.04,7.15,1.52,10.61,1.13,20.34-2.22,29.73-21.14,30.13-37.03.04-1.4-1.08-2.84-2.22-4.27-2.23.93-4.87.88-7.59-.81-12.76-7.98-22.8-16.95-35.67-22.92-9.67.89-19.35,1.76-29.01,2.75-6.68.69-13.62.97-19.86,3.14-5.49,1.91-10.61,5.69-15.06,9.63-2.28,2.02-2.73,6.2-4.15,9.8,3.87,5.81-2.15,11.03-2.46,17.01,3.27,2.43,8.48,3.47,7.21,9.84-.17.88,1.69,2.48,2.92,3.25,1.48.94,3.53.98,4.91,2.01,8.29,6.14,17.56,7.16,27.47,6.66"/><path class="cls-3" d="M55.44,184.57c-4.81-2.47-9.6-4.93-14.41-7.39-.27.49-.55.99-.81,1.49,21.95,13.47,43.49,27.53,63.43,44.35-1.62.39-3.17.82-4.69,1.24,2.73,1.84,5.53,3.73,8.47,5.69.09-.83.17-1.66.24-2.5l1.89-.42c3.66,3.98,7.27,8.03,11.03,11.93,1.04,1.07,3.52,2.54,3.62,2.41,3.36-4.28,6.75.66,11.13-.42-.26-3.04-.54-6.25-.81-9.45-1.24-.35-2.69-.42-3.66-1.14-10.49-7.76-20.93-15.58-31.32-23.47-6.92-5.26-13.96-10.41-20.49-16.14-2.36-2.07-3.42-5.69-5.07-8.6,2.33,1.26,4.89,2.22,6.96,3.83,15.6,12.11,31.18,24.23,46.56,36.63,2.87,2.31,4.75,5.91,7.1,8.91l-.09-.13c2.57,3.13,5.15,6.25,8.1,9.85.34-2.24.58-3.85.85-5.61,1.71.85,2.97,1.47,4.84,2.39,0-4.62,1.56-9.84-.3-12.05-4.66-5.53-10.86-9.69-16.45-14.4-.68.45-1.78,1.45-1.99,1.28-7.55-5.99-15.03-12.09-22.09-19.25,1.13.09,2.27.18,3.41.28-1.21-2.63-2.55-4.25-6.09-3.95-2.59.22-5.66-1.16-7.99-2.69-7.84-5.13-15.25-10.95-23.19-15.9-6.5-4.07-13.51-7.28-20.3-10.87-.26.38-.52.76-.78,1.13,1.06,1.42,2.13,2.85,3.58,4.8-3.06-1.04-5.24-1.77-7.41-2.5-.08.28-.15.55-.23.84,7.02,4.76,14.05,9.52,21.08,14.3-7.81-2-15.64-3.9-23.42-6.06-2.69-.74-5.21-2.12-7.8-3.21-.21.37-.42.73-.63,1.1,6.11,4.2,12.22,8.4,18.33,12.59l-.6,1.13Z"/><path class="cls-3" d="M421.17,185.18c-.52.63.16,3.41,1,3.9,2.87,1.68,8.4-.11,7.26,6.37,5.79,1.66,2.39,4.54.8,6.98-2.01,3.06-4.23,5.98-6.4,9.02,7.95.89,15.03,1.69,22.86,2.57-2.23,3.29-3.84,5.66-5.46,8.04,3.48,3.34,6.27.67,8.92-.51,21.81-9.7,43.71-19.17,66.91-24.91,12.21-3.02,24.63-5.23,36.81-8.38,4.44-1.14,9.13-3.22,12.42-6.3,1.72-1.61.64-6.33.83-9.64.02-.22.13-.44.14-.67.62-6.69-6.01-19.98-12.07-22.19-7.93-2.88-15.88-6.45-24.73-4.84-6.41,1.16-12.88,1.98-19.25,3.26-28.13,5.62-54.86,15.62-80.82,27.73-3.74,1.75-6.4,6.12-9.21,9.56"/><path class="cls-3" d="M233.67,105.96c1.71,14.76,7.31,26.44,18.92,35.68,5.48-6.03,11.06-4.87,16.41,1.22.85-4.33,1.48-7.56,2.38-12.15,2.91,3.76,4.95,6.4,7.5,9.69,6.93-10.7,8.43-15.54,7.28-25.29-2.32-19.5-4.24-39.1-7.62-58.42-2.28-12.97-6.68-25.57-10.36-38.27-.97-3.38-3.11-5.55-7.05-6.41-9.6-2.07-9.73-2.26-17.57,4.41-.79.66-2.39.32-3.61.46-1.66.2-3.65-.13-4.91.71-4,2.66-7.73,5.75-11.72,8.8-1.66-2.59-2.81-4.4-3.98-6.21-.64.21-1.29.41-1.93.62,2.46,12.91,4.87,25.84,7.37,38.75,3.01,15.48,7.08,30.81,8.88,46.43"/><path class="cls-3" d="M509.47,269.71c-21.95.55-44.04-.4-65.52,5.73-5.46,1.56-10.86,3.39-15.52,4.85,1.52,6.2,1.69,11.61,4.09,15.64,4.59,7.72-5.55,7.34-5.5,12.68,3.14,1.67,6.48,3.45,10.28,5.48-1.06,1.24-2.12,2.47-3.16,3.7.18.6.37,1.19.55,1.79,7.83-1.07,15.66-2.1,23.49-3.23,13.29-1.93,26.52-5.01,39.87-5.65,20.2-.96,40.32,1.34,60.1,6.06,3.15.74,6.92,2.44,5.76-4.24,3.87,1.61,7.2,2.99,10.53,4.38.64-.8,1.28-1.6,1.92-2.4-2.57-1.8-5.42-3.3-7.65-5.47-3.82-3.73-3.13-7.43,1.5-9.81,1.32-.68,2.81-1.03,3.84-1.39.53-6.24-1.05-10.45-6.5-13.26-4.66-2.39-8.34-6.89-13.08-8.94-14.37-6.23-29.7-6.27-45-5.89"/><path class="cls-3" d="M356.02,539.54c-4.61-25.93-14.07-50.34-35.17-72.02-8.95-9.21-20.83-10.29-34.35-12.37.65,1.58.78,2.39,1.29,3.05,9.94,12.73,16.99,26.34,22.23,40.5,2.34,6.34,5.22,12.6,6.99,19.02,2.26,8.2,3.23,16.61,5.53,24.8,2.7,9.6,7.03,18.96,9.13,28.61,1.27,5.8,7.59,9.11,9.14,14.52,2.79-3.87-.77-8.52,4.24-13.13,3.29,6.12,6.01,11.2,9.15,17.04,2.23-2.8,5.69-5.24,5.94-7.84.7-7.09.52-14.28-.21-21.38-.72-6.96-2.67-13.85-3.9-20.79"/><path class="cls-3" d="M131.11,25.55c13.77,18.54,24.41,38.85,33.81,60.02,8.14,18.33,17.72,36,26.46,54.06,3.45,7.11,8.86,10.58,16.66,10.98-2.15-9.07-10.46-15.5-10.09-25.65,4.15,4.83,7.23,10.26,10.48,15.56,1.79,2.92,2.89,8.33,7.31,6.27,4.6-2.14,1.27-6.85.54-10.36-.53-2.47-1.81-4.79-2.76-7.18.37-.13.72-.27,1.09-.4,1.03,2.4,2.06,4.82,3.08,7.22.63-.27,1.24-.53,1.87-.8-4.8-13.69-10.19-27.19-14.26-41.09-7.97-27.28-17.04-54.05-31.35-78.63-5.16-8.85-12.26-15.3-23.28-15.55v4.69c-1.86-.5-3.44-.93-5.06-1.37-.11,1.79-.18,3.1-.28,4.82-2.59-1.31-4.55-2.3-7.25-3.66,2.35,3.28,4.07,5.66,5.42,7.56-6.47,1.72-12.12,3.24-18.15,4.85,2.22,3.37,3.86,6.11,5.75,8.66"/><path class="cls-3" d="M39.2,406.97c4.97,4.05,21.25,8.98,28.41,7.67,19.3-3.53,38.86-6.12,56.02-17.3,10.72-6.99,19.77-14.6,19.2-29.35-8.11-.88-16.26-1.76-25.18-2.73,1.28-1.78,2.17-4.07,3.83-5.12,4.47-2.82,4.31-7.34,4.24-11.52-.04-2.53-1.79-5-2.67-7.54-2.35-6.7-4.63-7.37-11.11-4.15-11.68,5.78-23.38,11.53-35.29,16.77-12.34,5.43-25.01,10.06-37.39,15.4-5.04,2.17-9.69,5.27-15.29,8.37,5.23,1.79,11.62-1.94,15.61,3.87,3.07,4.48,8.44,7.76,6.32,14.41,2.52.84,4.56,1.51,6.67,2.21-3.29,6.42-3.81,6.75-13.37,9.01"/><path class="cls-3" d="M528.84,453.26c-1.78-.34-3.99-2.2-4.66-3.91-1.3-3.34-1.59-7.09-2.42-10.62-.51-2.17-.69-4.81-2.02-6.31-4.78-5.43-9.19-11.88-15.18-15.4-18.78-11.05-34.68-25.95-52-38.91-7.02-5.26-14.12-10.38-23.27-11.06-2.11,4.69-3.8,9.18-6.17,13.27-.77,1.3-3.31,1.82-5.12,2.1-1.38.21-2.89-.54-4.74-.94q2.64,5.19,2.06,10.31c-.71,6.35-.76,6.43,4.99,10.02,8.22,5.14,17.11,9.37,24.65,15.38,16.27,12.96,31.99,26.67,47.63,40.41,3.04,2.67,4.74,6.92,7.1,10.41.71,1.04,1.35,2.45,2.36,2.89,8.04,3.59,16.17,6.99,22.79,9.81,2.44-2.47,3.65-4.64,5.39-5.3,6.54-2.49,10.21-7.47,9.7-14.12-.28-3.64-5.37-6.95-11.11-8.03"/><path class="cls-3" d="M631.67,370.91c-3.64-2.81-6.5-5.54-9.81-7.48-20.29-11.87-42.95-15.73-65.56-19.17-26.28-3.98-52.83-3.38-79.32-2.8-1.88.04-3.73.59-5.6.9,1.05,1.17,2.44,1.12,2.98,1.78,1.91,2.37-1.61,9.15-4.93,9.73-2.91.52-6.45-.03-7.2,3.94,6.34,1.9,12.3,4.16,18.47,5.45,13.35,2.8,26.77,5.28,40.22,7.51,13.17,2.19,26.46,3.58,39.59,5.92,15.12,2.69,30.11,6.07,45.17,9.08,1.51.29,4.35.55,4.48.14,1.48-4.68,5.21-1.57,8.22-2.69-2.7-1.84-5.07-3.47-7.79-5.33,7.09-2.35,13.39-4.44,21.1-7"/><path class="cls-3" d="M145.56,202.73c1.22,1.64,3.48,3.62,5.17,3.52,7.55-.41,10.74-3.68,12.49-11.55.28-1.27.57-2.55.74-3.31,3.95-.26,8.66.87,10.52-.98,3.68-3.66,7.72-8.79,8.17-13.64,1.08-11.65.12-23.44-9.71-32.07-8.08-7.09-15.98-14.4-24.07-21.5-3.06-2.68-6.17-5.43-9.68-7.37-3.52-1.95-7.56-6.92-11.46-.13-.07.13-1.82-.73-2.84-1.15-.13,11.62-1.79,13.72-8.68,11.96-.71,1.8-1.08,4.74-2.14,5.02-3.22.87-6.7.71-10.24.96.48,9.08,3.73,18.22,9.58,26.32,10.62,14.72,21.34,29.37,32.17,43.92"/><path class="cls-3" d="M343.29,133.78c-.13,2.34-.24,4.15-.38,6.29,3.39-1.84,6.17-3.36,9.89-5.38-.47,4.7-.81,8-1.31,12.97,7.65-6.02,15.66-10.02,20.42-16.5,15.63-21.27,25.51-45.65,32-71.29,1.51-5.95.22-12.64.22-18.99-4.66,5.21-8.16,10.45-15.39,5.49-.33-.22-.88-.28-1.3-.21-5.15.95-10.28,1.94-15.72,2.97.14-2.59.25-4.55.36-6.5-.58-.28-1.17-.55-1.75-.82-4.48,7.75-9.43,15.26-13.32,23.29-8.14,16.8-15.8,33.85-23.48,50.87-1.58,3.49-2.56,7.3-3.48,11.04-.27,1.07.62,2.43.98,3.65,5.05-2.45,7.51,4.14,12.25,3.1"/><path class="cls-3" d="M427.79,517.34c1.62-4.62.2-10.29-4.07-10.64-5.64-.46-5.86-3.79-5.9-7.75-.1-9.4-3.65-17.26-9.68-24.19-8.93-10.25-17.82-20.54-26.63-30.91-1.13-1.33-2.85-3.75-2.39-4.62,2.2-4.12-1.18-5.56-3.18-6.92-4.06-2.77-8.45-5.12-12.95-7.09-2.05-.89-4.65-.47-7-.66-.14,2.63-.4,5.25-.38,7.88,0,1,.64,1.99,1.15,3.45-6.92.63-13.29,1.22-20.29,1.85,1.28,5.28,1.91,11.07,4.14,16.14,1.78,4.02,5.35,7.29,8.4,10.64,10.85,11.9,22.07,23.45,32.56,35.66,3.42,3.98,5.29,9.45,7.45,14.43,1.67,3.86,2.7,8.01,4.24,12.75q3.42-5.79,8.33-3.09c5.67,3.15,11.57,3.06,17.5,1.1,3.39-1.12,6.66-2.6,9.77-3.83-.34-1.2-1.5-2.99-1.07-4.21"/><path class="cls-3" d="M189.93,442.68c-2.12-6.3-6.77-5.92-11.53-5.24-.59-4.61-1.13-8.83-1.87-14.58-7.99,5.33-15.02,9.31-21.23,14.37-5.69,4.63-12.87,9.51-15.15,15.86-4.1,11.43-10.53,20.62-18.57,28.9-6.16,6.33-13.06,11.89-20.06,18.17,2.37-.85,4.42-1.55,6.45-2.33,2.09-.8,4.2-1.56,6.22-2.54,3.24-1.55,6.56-1.23,7.89,1.97.56,1.38-2.04,4.18-3.31,6.26-.56.92-1.41,1.66-2.76,3.22q7.42-2.05,19.12.47c-1.94,1.55-3.89,3.1-5.83,4.65,10.93.56,19.61-4.13,26.87-10.78,14.06-12.89,25.92-27.79,34.97-44.85,1.77-3.32,3.51-6.67,5.28-10.02-2.76-1.42-5.97-2.01-6.49-3.54"/><path class="cls-3" d="M280.87,508.48c-1.21-6.26-1.41-12.71-2.08-19.08-1.38-13.08-3.52-25.81-14.13-33.5-3,.76-5.12,1.24-7.2,1.84-.88.25-2.04.48-2.48,1.13-3.24,4.78-11.05,7.68-15.64,6.05-.45,3.5-2.39,7.84-1.06,10.48,3.36,6.71,3.55,13.9,5.15,20.87,3.56,15.52,4.2,30.61-2.69,45.13,1.08.74,2.05,1.68,2.76,2.92.38.67.64,1.41.84,2.16.87.44,1.72,1.37,2.59,2.84,2.98,5.05,7.33,7.84,13.03,8.03,4.9.17,9.92-.74,14.64.16,1.82.35,3.15,1.47,3.81-.65,1.24-4.06,2.29-8.35-1.54-10.95-2.18,2.21-3.92,4.22-5.96,5.83-.42.33-1.93-.77-2.94-1.21.99-2.36,1.7-4.89,3.02-7.03,6.58-10.73,12.5-21.5,9.89-35.04"/><path class="cls-3" d="M129.37,431.56c.7.61,1.39,1.22,2.09,1.82-8.85,12.4-16.23,26.09-29.82,35.14,5.61-15.97,19.66-23.92,27.73-36.96M139.26,445.7c6.89-6.8,8.24-15.61,10.22-24.68-2.47,1.06-4.04,3.25-6.15,4.23-2.23,1.03-4.98.92-8.35,1.44,1.28-2.98,2.3-4.78,2.79-6.71.45-1.73.31-3.63.43-5.44-1.79.63-4.14.71-5.25,1.97-7.56,8.43-16.14,16.31-21.89,25.92-6.61,11.03-15.93,19.05-24.81,27.36-9.04,8.46-20.17,14.57-30.27,21.9-2.39,1.74-4.28,4.24-6.4,6.39.32.37.64.74.96,1.11,5.72-1.64,10.81-5.4,16.52-7.84.76-.42,1.54-.73,2.31-.87,3.21-1.1,6.61-1.72,10.48-1.22-1.52,1.78-2.38,2.78-3.22,3.75.13.13.28.27.41.4,1.84.96,3.73,1.93,6.36,3.29,7.64-5.72,16.59-11.28,24.18-18.36,11.04-10.33,20.88-22,31.67-32.64"/><path class="cls-3" d="M390.98,155.52c-3.83,7.95-11.53,14.22-11.15,24.03.5.36,1,.71,1.5,1.07,1.87-1.8,3.74-3.62,5.99-5.79-.48,4.88-.88,9.02-1.4,14.29,15.6-18.14,30.49-35.01,44.88-52.3,14.46-17.38,31.54-32.42,44.76-50.88-.52-.56-1.04-1.13-1.55-1.69-8.15,6.93-16.29,13.86-24.44,20.79-.17-.21-.35-.42-.52-.63,2.89-3.72,5.77-7.43,8.66-11.15-1.64-.29-2.38.17-3.06.71-20.35,16.41-37.73,35.85-54.21,56.15-2.56,3.15-4.81,6.35-9.47,5.41"/><path class="cls-3" d="M395.41,135.91c-8.79,11.28-19.09,21.34-26.51,33.73.67.48,1.34.96,2,1.44,8.61-11.37,17.22-22.74,25.83-34.11-.45-.35-.88-.71-1.32-1.05"/><path class="cls-3" d="M390.95,155.53h0s.02,0,.02,0c.02-.03.04-.06.05-.09-.03.03-.05.06-.08.1"/><path class="cls-3" d="M378.26,171.04c4.32-5.29,8.51-10.41,12.69-15.52-5.93.33-13.23,9.05-12.69,15.52"/><g class="cls-1"><image class="cls-4" width="15215" height="8421" transform="translate(-3348.31 -1378.22) scale(.25)" xlink:href="../../../Tri State Generation and Transmission Association Dropbox/Communications/PROJECTS/Events/_Annual Meeting/2024/Assets/White BG Chart_XL.png"/></g></svg>