<svg id="Layer_1" enable-background="new 0 0 66 66" height="512" viewBox="0 0 66 66" width="512" xmlns="http://www.w3.org/2000/svg"><g><path d="m15.08 42.04c1.2.59 2.42 1.1 3.66 1.57-1.85 1.77-3.54 3.15-5.12 4.16-.41.26-.64.72-.61 1.2s.31.91.74 1.12c6.12 3 12.69 4.49 19.25 4.49s13.14-1.5 19.25-4.49c.43-.21.72-.64.74-1.12.03-.48-.21-.94-.61-1.2-1.58-1.01-3.27-2.39-5.12-4.16 1.23-.46 2.46-.98 3.66-1.57.43-.21.72-.64.74-1.12.03-.48-.21-.94-.61-1.2-1.55-.99-3.23-2.38-5.08-4.19 1.22-.45 2.43-.96 3.62-1.54.43-.21.72-.64.74-1.12.03-.48-.21-.94-.61-1.2-1.53-.98-3.2-2.38-5.04-4.21 1.21-.44 2.41-.94 3.58-1.51.43-.21.72-.64.74-1.12.03-.48-.21-.94-.61-1.2-1.5-.96-3.15-2.37-5-4.25 1.2-.42 2.38-.91 3.54-1.48.43-.21.72-.64.74-1.12.03-.48-.21-.94-.61-1.2-4-2.55-8.61-8.22-12.99-13.97-.5-.66-1.62-.66-2.12 0-4.38 5.75-8.99 11.42-12.99 13.97-.41.26-.64.72-.61 1.2s.31.91.74 1.12c1.16.57 2.34 1.06 3.54 1.48-1.85 1.88-3.5 3.29-5 4.25-.41.26-.64.72-.61 1.2s.31.91.74 1.12c1.17.57 2.37 1.08 3.58 1.51-1.85 1.84-3.51 3.24-5.04 4.21-.41.26-.64.72-.61 1.2s.31.91.74 1.12c1.19.58 2.4 1.09 3.62 1.54-1.85 1.81-3.53 3.2-5.08 4.19-.41.26-.64.72-.61 1.2 0 .48.29.91.72 1.12zm33.92 6.6c-10.28 4.36-21.72 4.36-32 0 1.44-1.1 2.95-2.46 4.57-4.08 3.74 1.1 7.59 1.66 11.43 1.66s7.69-.55 11.43-1.66c1.62 1.62 3.13 2.98 4.57 4.08zm-16-44.03c3.36 4.36 7.08 8.9 10.68 11.81-6.89 2.75-14.47 2.75-21.36 0 3.6-2.91 7.32-7.45 10.68-11.81zm-7.5 15.61c2.47.61 4.99.92 7.5.92s5.03-.31 7.5-.92c1.62 1.72 3.11 3.14 4.51 4.25-7.74 3.15-16.28 3.15-24.02 0 1.39-1.1 2.89-2.52 4.51-4.25zm-1.3 8.12c2.89.77 5.85 1.16 8.8 1.16 2.96 0 5.91-.4 8.81-1.16 1.62 1.69 3.12 3.09 4.53 4.19-1.06.44-2.12.82-3.2 1.15-.05.01-.1.02-.15.04-6.53 1.96-13.45 1.96-19.98 0-.05-.02-.1-.03-.15-.04-1.08-.33-2.15-.71-3.2-1.15 1.41-1.1 2.92-2.5 4.54-4.19zm-1.32 8.12c3.32.93 6.72 1.41 10.12 1.41s6.8-.48 10.12-1.41c1.62 1.65 3.13 3.03 4.55 4.13-1.07.45-2.16.84-3.26 1.19-.05.02-.11.03-.16.05-7.35 2.29-15.15 2.29-22.5 0-.05-.02-.1-.04-.16-.05-1.1-.35-2.19-.74-3.26-1.19 1.42-1.1 2.93-2.48 4.55-4.13z"/><path d="m63.67 62.22h-12v-4.77c4.35-.18 8.63-1.24 12.62-3.2.43-.21.72-.64.74-1.12.03-.48-.21-.94-.61-1.2-.83-.53-1.95-1.58-2.99-2.6.65-.26 1.29-.54 1.9-.84.43-.21.72-.64.74-1.12.03-.48-.21-.94-.61-1.2-.97-.62-2.01-1.47-3.15-2.54.7-.27 1.39-.57 2.07-.9.43-.21.72-.64.74-1.12.03-.48-.21-.94-.61-1.2-.96-.61-1.99-1.46-3.13-2.56.69-.27 1.38-.56 2.05-.88.43-.21.72-.64.74-1.12.03-.48-.21-.94-.61-1.2-.94-.6-1.97-1.46-3.11-2.58.69-.26 1.37-.54 2.02-.86.43-.21.72-.64.74-1.12.03-.48-.21-.94-.61-1.2-1.3-.83-2.79-2.2-4.55-4.17-.49-.55-1.33-.6-1.88-.11s-.6 1.33-.11 1.88c1.14 1.28 2.2 2.34 3.18 3.19-.87.31-1.77.56-2.7.76-.72.15-1.18.86-1.03 1.58.13.63.69 1.06 1.3 1.06.09 0 .18-.01.28-.03.16-.03.32-.08.47-.11.93.98 1.8 1.83 2.63 2.53-1.61.6-3.3 1.01-5.05 1.22-.73.09-1.25.76-1.16 1.49.08.67.66 1.17 1.32 1.17.06 0 .11 0 .17-.01 1.03-.13 2.04-.34 3.03-.59.92.95 1.81 1.8 2.63 2.49-2.01.76-4.14 1.26-6.34 1.48-.73.07-1.27.73-1.19 1.46.07.69.65 1.2 1.33 1.2.04 0 .09 0 .13-.01 1.5-.15 2.96-.43 4.39-.81.92.93 1.81 1.77 2.64 2.45-.49.19-.99.37-1.5.53-.44.14-.78.51-.89.96s.03.93.36 1.26l.66.65c.78.77 1.62 1.61 2.43 2.34-5.08 2.05-10.58 2.6-16.04 1.6-.72-.14-1.42.35-1.55 1.07s.35 1.42 1.07 1.55c1.46.27 2.92.4 4.37.46v4.8h-14.67v-5.01c0-.74-.6-1.33-1.33-1.33s-1.33.6-1.33 1.33v5.01h-14.67v-4.8c1.46-.06 2.92-.2 4.38-.46.72-.13 1.2-.83 1.07-1.55s-.82-1.21-1.55-1.07c-5.45 1-10.95.44-16.04-1.6.88-.78 1.8-1.69 2.65-2.53l.46-.46c.33-.33.47-.8.36-1.26-.11-.45-.45-.82-.89-.96-.52-.17-1.03-.35-1.53-.54.83-.68 1.71-1.51 2.64-2.45 1.43.38 2.9.66 4.4.81.04 0 .09.01.13.01.68 0 1.26-.51 1.33-1.2.07-.73-.46-1.39-1.2-1.46-2.2-.22-4.33-.71-6.35-1.48.83-.69 1.71-1.54 2.64-2.49 1 .25 2.01.46 3.04.59.06.01.11.01.17.01.66 0 1.24-.49 1.32-1.17.09-.73-.43-1.4-1.16-1.49-1.75-.22-3.44-.63-5.06-1.22.83-.7 1.7-1.54 2.63-2.53l.48.12c.09.02.18.03.28.03.62 0 1.17-.43 1.3-1.06.15-.72-.31-1.43-1.03-1.58-.93-.2-1.84-.45-2.71-.76.98-.85 2.04-1.9 3.18-3.19.49-.55.44-1.39-.11-1.88s-1.39-.44-1.88.11c-1.77 1.98-3.26 3.34-4.55 4.17-.4.25-.64.71-.61 1.19s.31.91.74 1.12c.65.32 1.33.6 2.03.86-1.14 1.12-2.17 1.98-3.11 2.58-.41.26-.64.72-.61 1.2s.31.91.74 1.12c.67.33 1.35.62 2.05.88-1.14 1.09-2.17 1.95-3.13 2.56-.41.26-.64.72-.61 1.2s.31.91.74 1.12c.68.33 1.37.63 2.07.9-1.14 1.08-2.18 1.92-3.15 2.54-.41.26-.64.72-.61 1.2s.31.91.74 1.12c.62.3 1.26.59 1.92.85-1.06 1.03-2.17 2.06-3.01 2.59-.41.26-.64.72-.61 1.2s.31.91.74 1.12c3.99 1.96 8.27 3.02 12.62 3.2v4.77h-12c-.74.01-1.34.61-1.34 1.35s.6 1.33 1.33 1.33h61.33c.74 0 1.33-.6 1.33-1.33s-.59-1.34-1.32-1.34z"/></g></svg>