<svg id="Layer_1" enable-background="new 0 0 66 66" height="512" viewBox="0 0 66 66" width="512" xmlns="http://www.w3.org/2000/svg"><g><path d="m63.94 44.4c-1.33-1.91-3.87-2.5-5.91-1.36l-11.96 6.7c.04-.25.07-.5.07-.76 0-2.42-1.97-4.38-4.38-4.38h-6.69c-1.27 0-2.57-.4-3.76-1.17-1.72-1.1-4.19-1.74-6.78-1.74-3.24 0-6.17.96-7.83 2.56-1.15 1.11-2.76 1.72-4.52 1.72h-3.74v-1.08c0-.41-.34-.75-.75-.75h-5.69c-.41 0-.75.34-.75.75v18.86c0 .41.34.75.75.75h5.69c.41 0 .75-.34.75-.75v-.88c9.44-2.78 20.85-.27 21.01-.24.37.06.74.11 1.1.15 6.21.76 12.72-.63 18.33-3.92l13.64-7.99c1.08-.63 1.86-1.7 2.13-2.93.26-1.22.01-2.51-.71-3.54zm-57 18.6h-4.19v-17.36h4.19zm56.24-15.37c-.18.83-.69 1.52-1.42 1.95l-13.63 7.99c-5.32 3.12-11.5 4.45-17.39 3.72-.35-.04-.7-.09-1-.13-.31-.07-5.07-1.12-11.02-1.12-3.25 0-6.85.31-10.28 1.26v-13.83h3.74c2.15 0 4.13-.76 5.56-2.14 1.37-1.32 3.97-2.14 6.79-2.14 2.31 0 4.48.55 5.97 1.5 1.44.92 3.02 1.41 4.57 1.41h6.69c1.59 0 2.88 1.29 2.88 2.88 0 .81-.34 1.55-.88 2.07-.03.02-.05.05-.08.07-.51.46-1.19.74-1.93.74h-11.3c-.41 0-.75.34-.75.75s.34.75.75.75h11.3c1.12 0 2.15-.42 2.92-1.12l14.08-7.89c1.36-.76 3.05-.37 3.94.91.5.7.67 1.54.49 2.37z"/><path d="m17.55 40.63c0 .41.33.73.75.73.41 0 .75-.35.75-.77 0-2.82.68-5.47 1.86-7.84.33.6.6 1.24.76 1.88.23.92.61 2.46 2.01 2.64.7.09 1.28-.25 1.73-.53.15-.09.31-.19.47-.26 1.03-.46 2.34.38 3.04.91 1.21.94 2.02 1.88 2.46 2.89.18.4.3.85.34 1.28.04.38.37.67.74.67h.08c.41-.05.71-.42.66-.83-.06-.59-.22-1.17-.46-1.72-.54-1.24-1.5-2.37-2.92-3.47-1.68-1.3-3.26-1.68-4.56-1.1-.22.1-.43.22-.64.35-.29.18-.57.34-.76.32-.39-.05-.61-.97-.75-1.52-.26-1.05-.74-2.08-1.38-3.02 3.12-4.99 8.66-8.33 14.97-8.33 3.44 0 6.64 1 9.36 2.71.66 1.22 1.17 2.5 1.51 3.81.36 1.42.43 2.54.2 3.52-.26 1.14-.98 2.07-1.88 2.41-.61.23-1.31.23-2.06.23-.51 0-1.06 0-1.61.07-2.72.39-5.06 2.8-5.67 5.86-.08.41.18.8.59.88.05.01.1.01.15.01.35 0 .66-.25.73-.6.42-2.07 2.07-4.34 4.42-4.67.44-.06.9-.06 1.39-.06.86.01 1.74 0 2.6-.33 1.36-.52 2.43-1.85 2.8-3.48.28-1.22.21-2.56-.21-4.22-.13-.53-.3-1.05-.49-1.56 3.57 3.23 5.83 7.89 5.83 13.08 0 .5-.03.99-.08 1.48-.04.41.27.78.68.81h.06c.39 0 .71-.3.75-.69.04-.47.08-1.03.08-1.6 0-6.74-3.5-12.66-8.77-16.08-.01-.01-.03-.02-.05-.03-2.79-1.8-6.07-2.88-9.6-3.02v-1.69h.67c5.23 0 9.48-4.25 9.48-9.48v-1.39c0-.41-.34-.75-.75-.75h-1.42c-1.6 0-3.12.4-4.44 1.11-.01-2.44-.97-4.76-2.72-6.52l-1-1c-.29-.29-.77-.29-1.06 0l-1 1c-1.76 1.76-2.71 4.07-2.75 6.51-1.33-.71-2.84-1.11-4.44-1.11h-1.42c-.41 0-.75.34-.75.75v1.42c0 5.23 4.25 9.48 9.48 9.48h.67v1.69c-6.69.26-12.49 3.95-15.72 9.38-.03.04-.05.07-.07.12-1.68 2.85-2.64 6.14-2.64 9.67zm28.56-31v.67c0 4.4-3.58 7.98-7.98 7.98h-.67v-.07-.6c0-4.4 3.58-7.98 7.98-7.98zm-9.87-5.85.47-.47.47.47c1.71 1.71 2.54 4.06 2.28 6.47-1.19.97-2.15 2.22-2.76 3.66-.61-1.44-1.56-2.69-2.76-3.66-.24-2.41.58-4.75 2.3-6.47zm-8.93 6.52v-.67h.67c4.4 0 7.98 3.58 7.98 7.98v.6.07h-.67c-4.4 0-7.98-3.58-7.98-7.98z"/></g></svg>