<svg id="Layer_1" enable-background="new 0 0 66 66" height="512" viewBox="0 0 66 66" width="512" xmlns="http://www.w3.org/2000/svg" style="fill:#fff"><g><path d="m24 42.75h-6c-.41 0-.75.34-.75.75v8c0 .41.34.75.75.75h6c.41 0 .75-.34.75-.75v-8c0-.41-.34-.75-.75-.75zm-.75 8h-4.5v-6.5h4.5z"/><path d="m42 52.25h6c.41 0 .75-.34.75-.75v-8c0-.41-.34-.75-.75-.75h-6c-.41 0-.75.34-.75.75v8c0 .41.34.75.75.75zm.75-8h4.5v6.5h-4.5z"/><path d="m64.62 48.08-2-3c-.28-.42-.97-.42-1.25 0l-1.37 2.07-1.38-2.06c-.28-.42-.97-.42-1.25 0l-1.37 2.06-1.38-2.06c-.28-.42-.97-.42-1.25 0l-.63.94v-14.78h3.26c.25 0 .48-.13.62-.33s.16-.47.07-.7l-5-12c-.12-.28-.39-.46-.69-.46h-11.29c-.37-3.37-3.24-6-6.71-6s-6.33 2.63-6.71 6h-3.54v-4.5h1.25c.41 0 .75-.34.75-.75v-3c0-.41-.34-.75-.75-.75h-8c-.41 0-.75.34-.75.75v3c0 .41.34.75.75.75h1.25v4.5h-2.25c-.3 0-.58.18-.69.46l-5 12c-.1.23-.07.5.07.7s.37.33.62.33h3.25v14.77l-.63-.94c-.28-.42-.97-.42-1.25 0l-1.37 2.07-1.38-2.06c-.28-.42-.97-.42-1.25 0l-1.37 2.06-1.38-2.06c-.28-.42-.97-.42-1.25 0l-2 3c-.08.12-.13.27-.13.42v8c0 .41.34.75.75.75h62c.41 0 .75-.34.75-.75v-8c.01-.16-.03-.3-.12-.43zm-36.87-29.58c0-2.9 2.35-5.25 5.25-5.25s5.25 2.35 5.25 5.25v5.25h-10.5zm-11-8.25h6.5v1.5h-6.5zm2 3h2.5v4.5h-2.5zm-3.25 6h10.75v5.25c0 .41.34.75.75.75h12c.41 0 .75-.34.75-.75v-5.25h10.75l4.38 10.5h-43.75zm-12.75 29.48 1.25-1.88 1.25 1.88v7.02h-2.5zm4 0 1.25-1.88 1.25 1.88v7.02h-2.5zm4 0 1.25-1.88 1.25 1.88v7.02h-2.5zm4-.23v-17.25h36.5v17.25 7.25h-12.5v-17.25c0-.41-.34-.75-.75-.75h-10c-.41 0-.75.34-.75.75v17.25h-12.5zm14 7.25v-16.5h8.5v16.5zm24-7.02 1.25-1.88 1.25 1.88v7.02h-2.5zm4 0 1.25-1.88 1.25 1.88v7.02h-2.5zm6.5 7.02h-2.5v-7.02l1.25-1.88 1.25 1.88z"/></g></svg>