<svg id="Layer_1" enable-background="new 0 0 66 66" height="512" viewBox="0 0 66 66" width="512" xmlns="http://www.w3.org/2000/svg" style="fill:#fff">
<defs>
  <filter id="shadow" x="-20%" y="-20%" width="140%" height="140%">
    <feDropShadow dx="1" dy="1" stdDeviation="1.5" flood-color="black" flood-opacity="1"/>
  </filter>
</defs>

<g filter="url(#shadow)"><path d="m12.62 57.35c-2.42 0-4.39-1.9-4.53-4.28.98 1.01 2.35 1.65 3.88 1.65.41 0 .75-.34.75-.75s-.34-.75-.75-.75c-2.15 0-3.9-1.75-3.9-3.9v-.02c.85.8 1.99 1.29 3.25 1.29.41 0 .75-.34.75-.75s-.34-.75-.75-.75c-1.79 0-3.25-1.46-3.25-3.25 0-.41-.34-.75-.75-.75s-.75.34-.75.75c0 1.79-1.46 3.25-3.24 3.25-.41 0-.75.34-.75.75s.34.75.75.75c1.25 0 2.4-.49 3.24-1.29v.02c0 2.15-1.75 3.9-3.9 3.9-.41 0-.75.34-.75.75s.34.75.75.75c1.52 0 2.89-.64 3.87-1.65-.15 2.38-2.12 4.28-4.54 4.28-.41 0-.75.34-.75.75s.34.75.75.75c1.82 0 3.45-.82 4.56-2.09v6.17c0 .41.34.75.75.75s.75-.34.75-.75v-6.17c1.11 1.28 2.74 2.09 4.56 2.09.41 0 .75-.34.75-.75s-.34-.75-.75-.75z"/><path d="m25.62 52.35c-2.42 0-4.39-1.9-4.53-4.28.98 1.01 2.35 1.65 3.88 1.65.41 0 .75-.34.75-.75s-.34-.75-.75-.75c-2.15 0-3.9-1.75-3.9-3.9v-.02c.85.8 1.99 1.29 3.25 1.29.41 0 .75-.34.75-.75s-.34-.75-.75-.75c-1.79 0-3.25-1.46-3.25-3.25 0-.41-.34-.75-.75-.75s-.75.34-.75.75c0 1.79-1.46 3.25-3.24 3.25-.41 0-.75.34-.75.75s.34.75.75.75c1.25 0 2.4-.49 3.24-1.29v.02c0 2.15-1.75 3.9-3.9 3.9-.41 0-.75.34-.75.75s.34.75.75.75c1.52 0 2.89-.64 3.87-1.65-.15 2.38-2.11 4.28-4.53 4.28-.41 0-.75.34-.75.75s.34.75.75.75c1.82 0 3.45-.82 4.56-2.09v6.17c0 .41.34.75.75.75s.75-.34.75-.75v-6.17c1.11 1.28 2.74 2.09 4.56 2.09.41 0 .75-.34.75-.75s-.35-.75-.76-.75z"/><path d="m32.56 39.16c.14.21.37.33.62.33h21.82c.41 0 .75-.34.75-.75s-.34-.75-.75-.75h-20.7l5.93-14.4c.22.08.44.12.68.12 1.24 0 1.84-1 2.28-1.74.41-.68.64-1 .99-1s.58.32.99 1c.44.73 1.03 1.74 2.28 1.74s1.84-1 2.28-1.74c.41-.68.64-1 .99-1s.57.31.99 1.01c.44.73 1.04 1.74 2.28 1.74.24 0 .47-.04.69-.12l5.93 14.4h-2.41c-.41 0-.75.34-.75.75s.34.75.75.75h3.51c.25 0 .48-.13.62-.33.14-.21.17-.47.07-.7l-11.54-28.04c-.12-.28-.39-.46-.69-.46h-5.45c-.3 0-.58.18-.69.46l-11.54 28.02c-.1.23-.07.5.07.71zm12.66-27.69h4.45l4.42 10.73c-.04.01-.08.01-.12.01-.35 0-.57-.31-.99-1-.44-.73-1.04-1.74-2.28-1.74s-1.84 1-2.28 1.74c-.41.68-.64 1-.99 1s-.58-.32-.99-1c-.44-.73-1.03-1.74-2.28-1.74s-1.84 1-2.28 1.74c-.41.68-.64 1-.99 1-.04 0-.07 0-.11-.01z"/><path d="m33.18 13.88c.84 0 1.66-.18 2.42-.52.38-.17.54-.62.37-.99-.17-.38-.62-.55-.99-.37-.56.26-1.17.39-1.79.39-2.4 0-4.35-1.95-4.35-4.35s1.95-4.35 4.35-4.35 4.35 1.95 4.35 4.35c0 .93-.29 1.82-.83 2.56-.24.33-.17.8.16 1.05s.8.17 1.05-.16c.74-1.01 1.12-2.2 1.12-3.45 0-3.23-2.62-5.85-5.85-5.85s-5.85 2.62-5.85 5.85c-.01 3.21 2.61 5.84 5.84 5.84z"/><path d="m2 32.44h22.71c.41 0 .75-.34.75-.75s-.34-.75-.75-.75h-21.59l4.62-11.22c.38.19.81.3 1.25.3 1.42 0 2.59-1.02 2.79-2.41.03-.08.04-.16.04-.25v-.3c0-.73.6-1.33 1.33-1.33s1.33.6 1.33 1.33v2.88c0 1.14.68 2.16 1.73 2.61.35.15.72.22 1.1.22s.75-.07 1.1-.22c1.05-.44 1.73-1.47 1.73-2.61v-2.88c0-.73.6-1.33 1.33-1.33s1.33.6 1.33 1.33v.3c0 .08.01.16.04.24.2 1.39 1.37 2.42 2.79 2.42.44 0 .86-.11 1.25-.3l2.55 6.21c.12.29.4.46.69.46.1 0 .19-.02.29-.06.38-.16.57-.6.41-.98l-9.7-23.56c-.12-.28-.4-.47-.7-.47h-6.23c-.3 0-.58.18-.69.46l-2.23 5.42c-.16.38.02.82.41.98.38.16.82-.02.98-.41l2.04-4.95h5.22l6.38 15.5c-.2.13-.43.2-.67.2-.69 0-1.26-.52-1.32-1.22 0-.03-.01-.07-.01-.1v-.14c0-1.56-1.27-2.83-2.83-2.83s-2.83 1.27-2.83 2.83v2.88c0 .54-.32 1.02-.81 1.23-.33.14-.71.14-1.04 0-.49-.21-.81-.69-.81-1.23v-2.88c0-1.56-1.27-2.83-2.83-2.83s-2.83 1.27-2.83 2.83v.14c-.01.03-.01.07-.01.1-.06.7-.62 1.22-1.31 1.22-.24 0-.47-.07-.67-.2l2.99-7.32c.16-.38-.02-.82-.41-.98-.38-.16-.82.02-.98.41l-8.62 20.97c-.1.23-.07.5.07.7.14.21.37.34.62.34z"/><path d="m50.96 44.54c-1.65-1.12-3.37-2.28-4.94-3.41-.34-.24-.81-.17-1.05.17s-.17.8.17 1.05c1.59 1.15 3.31 2.31 4.98 3.44 6.4 4.33 13.01 8.81 13.13 12.93.05 1.6-.89 3.1-2.85 4.61-.33.25-.39.72-.14 1.05.15.19.37.29.6.29.16 0 .32-.05.46-.15 2.34-1.8 3.5-3.76 3.44-5.85-.16-4.89-6.78-9.38-13.8-14.13z"/><path d="m27.92 33.94c.55-2.51 3-4.8 7.49-7.02.37-.18.52-.63.34-1s-.63-.52-1-.34c-4.92 2.43-7.63 5.06-8.29 8.04-.91 4.15 2.31 8.15 5.43 12.02 2.89 3.59 5.88 7.3 5.14 10.73-.53 2.46-2.88 4.71-7.18 6.88-.37.19-.52.64-.33 1.01.13.26.4.41.67.41.11 0 .23-.03.34-.08 4.73-2.39 7.34-4.98 7.97-7.91.89-4.14-2.32-8.13-5.43-11.99-2.91-3.59-5.91-7.31-5.15-10.75z"/></g></svg>