<svg id="Layer_1" enable-background="new 0 0 512 512" height="512" viewBox="0 0 512 512" width="512" xmlns="http://www.w3.org/2000/svg"><g><circle cx="256" cy="15.5" r="7.8"/><circle cx="200.3" cy="25.4" r="7.8"/><path d="m156.2 59.6c3.3-2.7 3.7-7.7.9-10.9-2.8-3.3-7.7-3.7-10.9-.9-3.3 2.7-3.7 7.7-.9 10.9s7.7 3.6 10.9.9z"/><path d="m366.6 58.6c2.7-3.3 2.3-8.1-.9-10.9-3.3-2.7-8.1-2.3-10.9.9-2.7 3.3-2.3 8.1.9 10.9 3.3 2.8 8.2 2.4 10.9-.9z"/><path d="m309.1 32.7c4 1.5 8.5-.6 9.9-4.7s-.6-8.5-4.7-9.9c-4-1.5-8.5.6-9.9 4.7-1.5 3.9.6 8.4 4.7 9.9z"/><path d="m111 103.7c3.7 2.2 8.5.9 10.6-2.9s.9-8.5-2.9-10.6-8.5-.9-10.6 2.9c-2.1 3.7-.7 8.4 2.9 10.6z"/><ellipse cx="397.1" cy="259.9" rx="7.8" ry="7.8"/><path d="m94.3 157.8c4.2.8 8.2-2.1 9-6.3s-2.1-8.2-6.3-9-8.2 2.1-9 6.3 2 8.2 6.3 9z"/><path d="m415.1 214.3c4.2.8 8.2-2.1 9-6.3s-2.1-8.2-6.3-9-8.2 2.1-9 6.3c-.8 4.3 2 8.3 6.3 9z"/><path d="m96.9 214.3c4.2-.8 7.1-4.7 6.3-9-.8-4.2-4.7-7.1-9-6.3-4.2.8-7.1 4.7-6.3 9 .8 4.2 4.8 7.1 9 6.3z"/><path d="m417.7 157.8c4.2-.8 7.1-4.7 6.3-9-.8-4.2-4.7-7.1-9-6.3-4.2.8-7.1 4.7-6.3 9 .8 4.2 4.9 7 9 6.3z"/><path d="m118.8 266.6c3.7-2.2 5-6.9 2.9-10.6-2.2-3.7-6.9-5-10.6-2.9-3.7 2.2-5 6.9-2.9 10.6 2.1 3.8 6.9 5 10.6 2.9z"/><ellipse cx="397.1" cy="97" rx="7.8" ry="7.8"/><path d="m417.6 380.5c10.3-9.9 16.8-23.7 16.8-39.2 0-29.9-24.4-54.3-54.3-54.3s-54.3 24.4-54.3 54.3c0 15.4 6.5 29.3 16.8 39.2-4.8.5-9.5 1.8-14 3.6-8.7-10.4-21.1-17.5-35.2-19.1 10.3-9.9 16.8-23.7 16.8-39.2 0-29.9-24.4-54.3-54.3-54.3s-54.3 24.4-54.3 54.3c0 15.4 6.5 29.3 16.8 39.2-14.1 1.7-26.5 8.8-35.2 19.1-4.5-1.8-9.2-3-14-3.6 10.3-9.9 16.8-23.7 16.8-39.2 0-29.9-24.4-54.3-54.3-54.3s-54.3 24.4-54.3 54.3c0 15.4 6.5 29.3 16.8 39.2-26.9 3.3-47.9 26.1-47.9 53.9v62.1c0 4.3 3.5 7.8 7.8 7.8h124.1 155.2 124.1c4.3 0 7.8-3.5 7.8-7.8v-62.1c.2-27.7-20.8-50.6-47.7-53.9zm-324.5-39.2c0-21.4 17.4-38.8 38.8-38.8s38.8 17.4 38.8 38.8-17.4 38.8-38.8 38.8-38.8-17.4-38.8-38.8zm77.6 77.6v69.8h-108.6v-54.3c0-21.4 17.4-38.8 38.8-38.8h62.1c4.1 0 8.2.7 12.1 1.9-2.9 6.7-4.4 13.9-4.4 21.4zm46.5-93.1c0-21.4 17.4-38.8 38.8-38.8s38.8 17.4 38.8 38.8-17.4 38.8-38.8 38.8-38.8-17.4-38.8-38.8zm108.6 162.9h-15.5v-46.5c0-4.3-3.5-7.8-7.8-7.8s-7.8 3.5-7.8 7.8v46.5h-77.6v-46.5c0-4.3-3.5-7.8-7.8-7.8s-7.8 3.5-7.8 7.8v46.5h-15.5v-69.8c0-5.4 1.3-10.6 3.3-15.6 6-13.7 19.6-23.2 35.5-23.2h62.2c15.8 0 29.5 9.5 35.5 23.2 2 5 3.3 10.2 3.3 15.6zm15.5-147.4c0-21.4 17.4-38.8 38.8-38.8s38.8 17.4 38.8 38.8-17.4 38.8-38.8 38.8-38.8-17.4-38.8-38.8zm108.6 147.4h-108.6v-69.8c0-7.5-1.6-14.7-4.3-21.3 3.9-1.2 8-1.9 12.1-1.9h62.1c21.4 0 38.8 17.4 38.8 38.8v54.2z"/><path d="m318.4 294.7c1.5 2.4 4 3.7 6.6 3.7 1.4 0 2.8-.4 4-1.2 41.7-25.8 66.6-70.1 66.6-118.8 0-77-62.6-139.6-139.6-139.6s-139.6 62.6-139.6 139.6c0 48.7 24.9 93.1 66.5 118.8 3.6 2.2 8.5 1.1 10.7-2.6 2.2-3.6 1.1-8.5-2.6-10.7-7.7-4.7-14.7-10.2-21.1-16.4 6.7-8.8 14.5-16.4 23.4-22.7 2.2 8.1 4.7 15.8 7.8 22.9 1.2 2.9 4.1 4.7 7.1 4.7 1 0 2-.2 3-.6 4-1.6 5.8-6.2 4.2-10.2-3.3-7.7-6-16.2-8.1-25.2 12.7-6.4 26.6-10.2 41.1-11.2v23c0 4.3 3.5 7.8 7.8 7.8s7.8-3.5 7.8-7.8v-22.8c14.5 1 28.4 4.9 41.1 11.2-2.2 9-5 17.5-8.1 25.2-1.6 4 .2 8.5 4.2 10.2 4 1.6 8.5-.2 10.2-4.2 2.9-7.1 5.5-14.8 7.8-22.9 8.8 6.2 16.6 14 23.4 22.7-6.4 6.1-13.3 11.6-21.1 16.4-4.1 2.3-5.3 7.1-3.1 10.7zm-159.2-193.8c8.6 10.8 18.9 19.9 30.3 27.1-2.6 13.3-4.1 27.6-4.5 42.7h-52.7c1.6-26.3 11.4-50.5 26.9-69.8zm0 155.1c-15.9-19.7-25.4-43.9-27.1-69.8h52.8c.4 14.7 1.9 29.1 4.6 42.7-11.4 7.2-21.6 16.3-30.3 27.1zm34-144.2c-8.8-6.2-16.5-13.9-23.2-22.6 13.3-12.9 29.5-22.8 47.5-28.7-10.3 12.7-18.7 30.3-24.3 51.3zm55 97.9c-15.5 1-30.6 4.9-44.4 11.2-1.9-11.2-3-22.8-3.4-34.8h47.8zm0-39h-47.8c.4-12.1 1.6-23.7 3.4-34.8 13.8 6.4 28.9 10.3 44.4 11.2zm0-39.3c-14.5-1-28.5-4.9-41.2-11.3 8.3-33.9 23.6-58.6 41.2-64.4zm104.6-30.5c15.5 19.4 25.3 43.4 26.9 69.7h-52.7c-.4-15-1.9-29.3-4.5-42.7 11.4-7.1 21.6-16.3 30.3-27zm-89-45.2c17.6 5.7 32.8 30.5 41.2 64.4-12.7 6.4-26.7 10.2-41.2 11.3zm0 91.5c15.5-1 30.6-4.9 44.4-11.2 1.9 11 3 22.7 3.4 34.8h-47.8zm44.3 73.7c-13.8-6.4-28.9-10.2-44.4-11.2v-23.5h47.8c-.3 11.9-1.4 23.6-3.4 34.7zm-13.5-160.4c18 5.9 34.1 15.8 47.5 28.7-6.7 8.7-14.4 16.4-23.2 22.6-5.7-21-14.1-38.6-24.3-51.3zm27.9 168.3c2.6-13.6 4.2-27.9 4.6-42.7h52.8c-1.6 25.9-11.2 50.1-27.1 69.8-8.7-10.7-18.9-19.8-30.3-27.1z"/></g></svg>