<svg id="Layer_1" enable-background="new 0 0 66 66" height="512" viewBox="0 0 66 66" width="512" xmlns="http://www.w3.org/2000/svg"><g><path d="m27.18 58.73h-1.43l-1.14-1.96c-.65-1.12-.85-2.36-.57-3.49.43-1.74-.06-4.08-1.31-6.24-.99-1.72-2.37-3.13-3.79-3.86-.92-.47-1.65-1.14-2.13-1.95l-2.54-4.39c-.62-1.08-1.79-1.75-3.03-1.75-.62 0-1.23.16-1.75.47-.08.04-.14.1-.21.15l-.15-10.06c-.02-.91-.37-1.77-.97-2.39-.61-.66-1.44-1.06-2.33-1.13-.99-.09-1.99.25-2.73.93s-1.17 1.64-1.17 2.64l-.03 5.15c0 .41.33.75.75.75.41 0 .75-.33.75-.75l.03-5.15c0-.59.25-1.14.68-1.54.44-.4 1-.59 1.59-.54.52.04 1 .28 1.37.67.35.36.55.86.56 1.39l.18 12.28c-.16.82-.03 1.66.4 2.4l4.29 7.41c.21.36.67.48 1.03.27s.48-.67.27-1.02l-4.29-7.42c-.26-.44-.34-.96-.22-1.45.13-.55.46-1.01.95-1.29.91-.53 2.2-.2 2.74.73l2.54 4.39c.62 1.06 1.57 1.94 2.74 2.53 1.17.61 2.33 1.8 3.18 3.28 1.05 1.81 1.49 3.77 1.15 5.13-.37 1.51-.11 3.14.73 4.6l.7 1.2h-10.63c-2.42-4.45-5.31-7.6-5.4-7.7-.17-.21-.33-.41-.49-.63-2.69-3.56-4.16-8.07-4.13-12.71l.02-3.68c0-.41-.33-.75-.75-.75-.41 0-.75.33-.75.75l-.02 3.68c-.03 4.96 1.55 9.8 4.43 13.61.17.23.34.45.56.72.03.03 2.57 2.8 4.82 6.72h-.59c-.41 0-.75.34-.75.75v4.52c0 .41.34.75.75.75h16.1c.41 0 .75-.34.75-.75v-4.52c-.01-.41-.34-.75-.76-.75zm-.75 4.52h-14.6v-3.02h1.11 12.38 1.11z"/><path d="m64.07 25.7c0-1-.43-1.96-1.17-2.64-.74-.67-1.72-1.01-2.73-.93-.89.08-1.72.48-2.33 1.12-.61.63-.96 1.49-.98 2.41l-.14 10.04c-.07-.05-.14-.09-.21-.13-.53-.31-1.14-.47-1.76-.47-1.25 0-2.41.67-3.03 1.75l-2.54 4.39c-.47.81-1.21 1.49-2.13 1.96-1.41.74-2.79 2.14-3.79 3.86-1.25 2.16-1.74 4.5-1.31 6.23.28 1.13.07 2.37-.57 3.49l-1.14 1.96h-1.43c-.41 0-.75.34-.75.75v4.51c0 .41.34.75.75.75h10.07c.41 0 .75-.34.75-.75s-.34-.75-.75-.75h-9.32v-3.02h1.11 12.38 1.11v3.02h-2.06c-.41 0-.75.34-.75.75s.34.75.75.75h2.81c.41 0 .75-.34.75-.75v-4.52c0-.41-.34-.75-.75-.75h-.59c2.25-3.91 4.79-6.69 4.85-6.76.18-.23.36-.45.51-.67 2.89-3.82 4.46-8.66 4.43-13.62zm-5.58 24.72c-.15.21-.31.41-.44.58-.13.14-3.02 3.29-5.44 7.74h-10.63l.7-1.21c.84-1.46 1.1-3.09.73-4.6-.34-1.35.11-3.32 1.15-5.13.86-1.48 2.01-2.67 3.17-3.28 1.17-.6 2.12-1.47 2.74-2.54l2.54-4.39c.54-.93 1.82-1.26 2.74-.73.48.27.81.72.94 1.27 0 .01 0 .02.01.03.11.48.04.99-.22 1.43l-4.29 7.41c-.21.36-.08.82.27 1.02.36.21.82.08 1.03-.27l4.29-7.41c.44-.75.58-1.62.4-2.45l.17-12.22c.01-.54.21-1.03.57-1.41.36-.39.83-.62 1.36-.66.6-.04 1.15.14 1.59.54s.68.95.68 1.54l.06 11.99c.05 4.66-1.42 9.17-4.12 12.75z"/><path d="m40.38 53.03c-.11-.4-.51-.64-.92-.53-1.87.49-3.79.75-5.72.81v-9.16h9.32c.41 0 .75-.34.75-.75s-.34-.75-.75-.75h-9.32v-13.86h13.13c-.07 4.39-.77 8.68-2.04 12.43-.13.39.08.82.47.95s.82-.08.95-.47c1.32-3.9 2.04-8.35 2.12-12.91h6.2c.41 0 .75-.34.75-.75s-.34-.75-.75-.75h-6.2c-.08-5.1-.98-9.85-2.49-13.86h7.78c1.52 2.16 2.72 4.59 3.52 7.24.12.4.54.62.94.5s.62-.54.5-.94c-3.44-11.35-13.74-18.98-25.62-18.98s-22.18 7.63-25.63 18.99c-.12.4.1.82.5.94.07.02.15.03.22.03.32 0 .62-.21.72-.53.8-2.65 2.01-5.08 3.53-7.24h7.78c-1.5 4.01-2.41 8.76-2.49 13.86h-6.2c-.41 0-.75.34-.75.75s.34.75.75.75h6.2c.07 4.56.8 9.01 2.12 12.91.11.31.4.51.71.51.08 0 .16-.01.24-.04.39-.13.6-.56.47-.95-1.27-3.75-1.97-8.03-2.04-12.43h13.13v13.86h-9.17c-.41 0-.75.34-.75.75s.34.75.75.75h9.17v9.16c-1.93-.06-3.85-.32-5.72-.81-.4-.1-.81.13-.92.53s.13.81.53.92c2.23.59 4.54.89 6.85.89s4.62-.3 6.85-.89c.4-.12.64-.53.53-.93zm6.51-25.74h-13.14v-13.86h10.58c1.54 3.94 2.47 8.71 2.56 13.86zm-14.64-15.36h-9.95c2.4-5.28 5.96-8.76 9.95-9.15zm1.5-9.14c4 .39 7.55 3.87 9.95 9.15h-9.95zm18.78 9.14h-7.23c-1.58-3.65-3.69-6.57-6.13-8.43 5.28 1.31 9.95 4.28 13.36 8.43zm-39.06 0c3.41-4.15 8.07-7.13 13.36-8.43-2.44 1.86-4.54 4.78-6.13 8.43zm5.64 15.36c.08-5.15 1.02-9.92 2.55-13.86h10.58v13.86z"/></g></svg>